<svg id="Warstwa_1" data-name="Warstwa 1" xmlns="http://www.w3.org/2000/svg" viewBox="0 0 76.01 128.74"><defs><style>.cls-1{fill:white;}</style></defs><title>SBR_bp_grande drinki0</title><path class="cls-1" d="M38.79,112.43c0,.05,0,.11,0,.16,0,.26.06.85.08,1.42a1.39,1.39,0,0,0,.92-.42c0-.24,0-.48,0-.72A1.71,1.71,0,0,0,38.79,112.43Zm8.82,2.77a.58.58,0,0,0-.18,1.13c2.38.73,10.2,2.7,6.54,6.36-1.78,1.78-4.83,2.27-7,3.53a.35.35,0,0,0-.16.37c-.65.08-1.32.13-2,.16-1.32.06-2.67-.06-4,.08a18,18,0,0,0-3.91.45c-1.64.61-2.53.15-4-.05s-3.23-.41-4.84-.64a19.43,19.43,0,0,1-7.21-2.07,7.52,7.52,0,0,1-2.64-2.32c-1.13-1.75,2.17-3.14,3.43-3.72a21,21,0,0,1,2.76-1.05,1.62,1.62,0,0,1-.32.26,7.19,7.19,0,0,0-1.3,1.32c-.77.76-.47,2.1,0,2.9a0,0,0,0,0,.05,0c-.7-1.46-.19-2.42.79-3.55.2-.24.58-.38.77-.6s.23-.26.38-.41a8.94,8.94,0,0,1,1.6-.29c.26,0,.53,0,.8,0a4.11,4.11,0,0,0-1.67,1.16,2.35,2.35,0,0,0-.4,2.77,0,0,0,0,0,0,0c-.65-1.27.11-2.37,1.08-3.24a3.88,3.88,0,0,1,1.28-.67h.73l0,0c-.31.18-.43,0-.66.24s-.32.39-.46.58c-.41.55-.93.92-1.08,1.62a0,0,0,0,0,0,0,3.53,3.53,0,0,1,.55-1c.15-.18.34-.31.49-.49a6.27,6.27,0,0,0,.48-.6c.13-.21.32-.2.51-.24a5.16,5.16,0,0,0-.73,1.2c-.37.84,0,1,.38,1.78,0,0,0,0,0,0a2.88,2.88,0,0,0-.29-.54c-.36-.53,0-1.08.22-1.54a5.76,5.76,0,0,1,.77-1.06c.2,0,1.49-.3.9-.17a.18.18,0,0,0,0,.35l.41.09a.29.29,0,0,0,.36-.19,3.37,3.37,0,0,1,.11-.38.39.39,0,0,0-.38-.49,16.58,16.58,0,0,0-5.46.32,26.08,26.08,0,0,0-5.17,2.15c-2.15,1.23-3,2.74-1.33,4.79,1.79,2.24,4.91,3.22,7.65,3.75,2,.39,4,.63,6,.89,1.5.2,3,.82,4.52.54,6.74-1.26,14.67.33,19.93-4.89,1.69-1.68,1.37-3.74-.07-5.44C53.93,116,50.57,115.3,47.6,115.2Zm28.22-95c-.72-3.73-3.47-7-6.71-9A17.56,17.56,0,0,0,63,9.26a27.46,27.46,0,0,0-7.39-1.45C51.67,7.6,48,9.61,45.19,12a14.48,14.48,0,0,0-3.29,4.78,14.12,14.12,0,0,0-1.82,5.55,10.19,10.19,0,0,0,.14,2.21,10.41,10.41,0,0,0,.07,2,18,18,0,0,0,1.77,5.23,7.86,7.86,0,0,0-.93.15H41a.54.54,0,0,0-.19-.95c-2-.39-4-.25-6.05-.49l-1-.09-.19-.25-.32-.39h0a.3.3,0,0,0-.22-.29c.2,0-.37-.73-.37-.76A11.09,11.09,0,0,0,32,27.29a22.73,22.73,0,0,0-1.7-2.83,26.16,26.16,0,0,1,2.41,4.83.07.07,0,0,0,0,.1,1.87,1.87,0,0,0,.13.17.64.64,0,0,1-.06.49.32.32,0,0,0,.44,0l0,0c.1.11.18.23.26.34l-1-.09a1,1,0,0,1-.43.15c-.24-.17-.2-.3-.11-.56s-.31-.61-.42-.78a18.46,18.46,0,0,1-1.24-1.66,19.73,19.73,0,0,0-1-1.95c-1.73-2.61-2.93-5.53-4.49-8.23-.68-1.17-1.43-2.33-2-3.55s-1.57-2.35-2.27-3.59A15.15,15.15,0,0,1,19.48,8c-.26-.7-.36-1.38-.55-2.09a1.91,1.91,0,0,0-1.1-1.08l.1-.07L18,4.73l-.2-.05-.16.11-.58-.24c-.06,0-.11.07,0,.1l.48.24-.6.43,0,0c-.16-.18-.37-.37-.57-.56.57-.45,1.17-.87,1.72-1.33.31-.26.83-.46.83-.92a.09.09,0,0,0-.15-.06,5.53,5.53,0,0,1-1.07.9,18.44,18.44,0,0,0-1.51,1.22l0,0a10,10,0,0,0,.7-.73c.29-.28.58-.56.85-.86a3.92,3.92,0,0,1,.68-.71.12.12,0,0,0,.17-.07.71.71,0,0,0,0-.09.15.15,0,0,0-.21-.16c-.52.24-.87.88-1.25,1.28-.22.23-.48.44-.68.68a5.42,5.42,0,0,1-.43.49l-.1-.13h0c.24-.51.62-1,.9-1.45h0l-.07-.12a15.46,15.46,0,0,0,1-1.38,7,7,0,0,0,1.09.66,14.69,14.69,0,0,1,1.08,1.86l.44.9C21.54,7.33,22.75,10,24,12.74a.57.57,0,0,1,0,.56l.08.19c.74,1.52,1.6,3,2.46,4.44h0q.59,1,1.16,2l.28.5c.42.76.88,1.52,1.35,2.28h0l.17.27.7,1.13c-.16-.27-.31-.55-.45-.83,1-.05,2-.09,3.05-.08l3.52,0c.15,0,.9.14,1.11.17a1.6,1.6,0,0,0,.59-.08.23.23,0,0,0,.27.09,1.26,1.26,0,0,0,.7-.41.4.4,0,0,0-.38-.67c-2.43.42-5,.09-7.51.25l-1.65.13a19,19,0,0,0-1.12-2c-.35-.53-.67-1.06-1-1.6-.79-1.83-1.69-3.63-2.46-5.45-.55-1.3-1.1-2.55-1.73-3.81l-.65-1.3c-.25-.62-.5-1.24-.73-1.87-.36-1-1-1.83-1.44-2.77L19.64,3a2.92,2.92,0,0,0,.06.33l-.11-.25-.11-.29c-.22-.29-.44-.59-.66-.89a2.06,2.06,0,0,0,.23.09.1.1,0,0,0,.08-.17l-.68-.48L18.24,1,18.12.95l-.4-.26c.16.14.3.29.44.45l0,0C17,.39,15.8-.28,14.35.16a.11.11,0,0,0-.11-.08.11.11,0,0,0-.12.11s0,0,0,0h-.05c-.15.06-.08.24.05.27a.9.9,0,0,0,.06.29,2.48,2.48,0,0,1,.08.6,3.63,3.63,0,0,0,.12.63.07.07,0,0,0,.13,0A4.11,4.11,0,0,0,14.4.49a3.72,3.72,0,0,1,1.41,0c-.06.33-.19.67-.28,1a2,2,0,0,0-.16,1c0,.06.07.07.12,0a6,6,0,0,0-.05,1,.7.7,0,0,0-.1.33l-.55,0c-.06-.45-.26-.9-.36-1.33A8.44,8.44,0,0,0,14,1.27a.81.81,0,0,0-.17.19c.1.29.21.57.31.86.18.51.3,1,.45,1.55l-.38,0A.86.86,0,0,1,14,3.9h-.2l-.29.2h-.06a.12.12,0,0,0-.08.09,6.46,6.46,0,0,1-.7.4A14.73,14.73,0,0,0,10.48,6c-1,.75-6.42,4-7.54,4.65-.4.22-.81.43-1.23.63a.24.24,0,0,0-.07-.18A4.14,4.14,0,0,1,.9,9.93L.74,9.56c.2.33.41.65.62,1,0,.07.18,0,.15-.06a8.81,8.81,0,0,0-1-1.84l.11-.07a17.46,17.46,0,0,0,1.7-1.25c1.22-.79,6.8-4,8.12-4.64a8.27,8.27,0,0,0,1.73-1.22v0a2.92,2.92,0,0,0,.74-.48L13,.83c.09-.06.16-.13.24-.19l.06,0,.11-.05a.18.18,0,0,0,.09-.05A.4.4,0,0,0,13.63.3c0-.07-.05-.13-.12-.12l-.08,0,0,0a.11.11,0,0,0-.13,0c-.07.05-.21.07-.3.14s-.11.15-.23.2a1.18,1.18,0,0,0-.27.13c-.21.17-.51.21-.71.4s-.3.33-.33.33h0c-.07,0-.09.07-.09.12h0c-1.11.87-6.66,4-7.9,4.65-.55.3-1.09.62-1.61,1S.67,8.23,0,8.37l.08.15h0c.53,1,1,2,1.45,3l.06.13.19-.1c1.33-.65,6.76-4.12,8.06-4.8,1-.54,1.88-1.34,2.92-1.86a7.46,7.46,0,0,0,.65-.38s.08,0,.1,0v0l.05,0c.13,0,.07.08.32.11a1.63,1.63,0,0,0,.4,0,2.44,2.44,0,0,1,1.64.74c1,.87,1.47,2.41,2.08,3.51a25.25,25.25,0,0,1,1.53,3.74,34.9,34.9,0,0,0,1.62,3.48c1.21,2.43,2.53,4.78,3.84,7.16-.78.06-1.57.12-2.35.16a26.1,26.1,0,0,0-3.22.18c-1.24.21-2.51.63-3.74.93a2.84,2.84,0,0,0-1,.44l-.14,0c-.42.14-.88.19-1.28.35a.54.54,0,0,0-.39.44h0a.59.59,0,0,0-.54.11.64.64,0,0,0-.4,1.08c.63.53.82,1.48,1.23,2.17a17.21,17.21,0,0,1,1.19,3.86c.41,1.33.84,2.59,1.2,3.88.07.57.16,1.14.28,1.7s.24,1.15.34,1.73a.08.08,0,0,0,0,.16l0,0a31.47,31.47,0,0,1,.45,6.32A41.46,41.46,0,0,1,15.47,52c-.63,2.32-1.42,4.58-2.17,6.87-.63,1.92-1.56,4.27-1.58,6.28A9.81,9.81,0,0,1,11,67.9a22.63,22.63,0,0,1-1.32,2.61A32.12,32.12,0,0,0,8,76.7a23.81,23.81,0,0,0,.76,13.22,17.28,17.28,0,0,0,2.78,5.46c.67.76,1.44,1.45,2.12,2.2l.09.11h-.21a.08.08,0,1,0,0,.16l.38,0a22.48,22.48,0,0,0,1.85,2.25,18.39,18.39,0,0,0,1.75,1.43h0A4.63,4.63,0,0,0,19.43,103l1.1.77a15.45,15.45,0,0,0,4.83,2.42.22.22,0,0,0,.12.12,13.71,13.71,0,0,0,3.08.8,5.26,5.26,0,0,0,2.86.9,3.62,3.62,0,0,1,1.27.27,13.1,13.1,0,0,0-.08,1.53.51.51,0,0,0,0,.21,3.38,3.38,0,0,0-1,1.69,3.29,3.29,0,0,0,.33,2l.35.73a.48.48,0,0,0-.16.11A.43.43,0,0,0,32,115a8.58,8.58,0,0,0,.08,2c.09.42.09.9.18,1.35a3.54,3.54,0,0,0-1.54.73.34.34,0,0,0,.07.54,1.28,1.28,0,0,0,1.1.12.84.84,0,0,1-.27.31,6,6,0,0,1-1.28.66c-.72.25-1.48.36-2.19.64s-1.57.8-2.38,1.13c-.39.16-.77.36-1.16.54s-1.09.77-1.31.84-.09.18,0,.17c.65-.06,1.17-.59,1.77-.83,1-.41,2-.86,3-1.31s2.05-.52,3-.93a4.35,4.35,0,0,0,1.14-.68,1.4,1.4,0,0,0,.32-.67.81.81,0,0,0,.63,0,.12.12,0,0,0,0-.18.82.82,0,0,0,.21-.09,2.82,2.82,0,0,0,.88.84,3.68,3.68,0,0,0,2.36.65c1,0,2.71.06,3.19-1a.16.16,0,0,0-.16-.2l-.36.06a29.35,29.35,0,0,0,0-3.23.05.05,0,0,0-.1,0,29,29,0,0,0,0,3.27,1.2,1.2,0,0,0-.51.32.06.06,0,0,0,.08.1,1.37,1.37,0,0,1,.62-.2c-.55.63-1.82.59-2.57.6-1,0-2.72-.29-3.23-1.31a.54.54,0,0,0,.16-.35.29.29,0,0,0,.12-.06c.47.18.93.47,1.36.66a4.25,4.25,0,0,0,1.78.22c.44,0,.89,0,1.33-.07,0,.16,0,.32,0,.47a.09.09,0,0,0,.18,0l0-.49h.05c.25,0,.23-.25.19-.43a.06.06,0,0,0-.11,0c0,.05-.06.08-.1.11.07-.74.13-1.48.14-2.22a.09.09,0,0,0-.18,0c0,.77-.16,1.55-.2,2.32-.22,0-.5,0-.68,0a11.53,11.53,0,0,1-1.54,0,8.33,8.33,0,0,1-2.16-.78h0c0-.77,0-1.53,0-2.3a4.3,4.3,0,0,0,1.54.64,5.67,5.67,0,0,0,2.89-.28,5.77,5.77,0,0,0,.91-.44,1.91,1.91,0,0,0,.63-.1,1.61,1.61,0,0,0,.52-.35v.07l0,0a2.17,2.17,0,0,1-.44.31l-.06,0c-.07.54-.13,1.09-.14,1.63l-.13.05a.12.12,0,0,0,0,.2l.31.13h0c0,.1,0,.2,0,.3l-.13-.11c-.21-.16-.45.07-.3.27l.43,1.07a.36.36,0,0,0,0,.12c-.25,0-.44.29-.18.44a15.78,15.78,0,0,1,2.58,2,7,7,0,0,0,2.94,1.9.18.18,0,0,0,.22-.26c-.24-.41-.59-.49-1-.72a10.82,10.82,0,0,1-1.95-1.54A12.61,12.61,0,0,0,40.53,120a.3.3,0,0,0,.23-.31c0-.36,0-.72,0-1.08a1.44,1.44,0,0,0,.45.67.4.4,0,0,0,.54,0,1,1,0,0,0,.26-.68,21.06,21.06,0,0,1,3.37-.53l.76-.12a7.46,7.46,0,0,1,1,.55,2.57,2.57,0,0,1,.45.81,3.76,3.76,0,0,1,.38.9,0,0,0,0,0,.06,0c0-.58-.48-1.12-.68-1.65-.12-.31-.56-.48-.95-.64l1.34-.2c.06.39.54.67.84.89a2.7,2.7,0,0,1,.63,1,5.7,5.7,0,0,1,.47,1s.06,0,.06,0a4,4,0,0,0-.65-1.51,1.81,1.81,0,0,0-.43-.57c-.25-.19-.74-.52-.8-.82l1.38-.19c.13,0,.09-.19,0-.2a15.84,15.84,0,0,0-4.34.34,14.9,14.9,0,0,0-2.91.5,5.09,5.09,0,0,1-.12-.82,10.64,10.64,0,0,0-.31-2.05c.37-.52.75-1,1.09-1.56a4.61,4.61,0,0,0-.15-1.65,3.08,3.08,0,0,0-.38-.72c-.16-.22-.33-.49-.54-.72a2.85,2.85,0,0,0,.07-.77l.34.4a2.26,2.26,0,0,1,.5.72,8.27,8.27,0,0,1,.2,1.53,0,0,0,0,0,.08,0,5.23,5.23,0,0,0-.07-1.58c-.07-.35-.33-.54-.56-.81a6.12,6.12,0,0,0-.49-.54s0-.06,0-.09a1.41,1.41,0,0,0-.06-.66,2.81,2.81,0,0,1-.15-.3.76.76,0,0,0,.28-.53,13.59,13.59,0,0,0,1.78-.47l.67,0a.85.85,0,0,0,.66-.26c0,.08.16.09.41,0a6,6,0,0,0,1.32-.33,13.48,13.48,0,0,0,2.26-.83c1.73-.76,3-1.94,4.71-2.77a12.65,12.65,0,0,0,4.06-3.5,16.54,16.54,0,0,1,1.79-2.29c.17-.15,1-1.11.8-1,.92-.37,1.63-2.48,2.06-3.23a11.28,11.28,0,0,0,.85-1.93,16.6,16.6,0,0,1,0-2.94c.07-.89.18-1.77.29-2.66.08-.62.17-1.24.24-1.86V84h0c0-.33.08-.66.11-1,0-1.78,0-3.55-.06-5.33,0-.36-.06-.72-.09-1.08l0-.14h0c-.14-.58-.28-1.16-.43-1.73l0-.07c-.75-3-1.54-6-2.27-8.95q-.49-1.36-1-2.71c-.13-.38-.26-.77-.39-1.15-.21-.6-.41-1.2-.61-1.81a73.56,73.56,0,0,1-2.17-8,44.83,44.83,0,0,1-.93-7.14.68.68,0,0,1,0-.27l0,0,0-.07a.69.69,0,0,1,.1-.14c0-.34,0-.68,0-1,.07-.94.19-1.88.34-2.8a23.56,23.56,0,0,0,8.85-.86l.2,0a15.37,15.37,0,0,0,4.61-2.5A12.62,12.62,0,0,0,74,32.06a24.71,24.71,0,0,0,1.65-6A17.42,17.42,0,0,0,75.82,20.2ZM.3,8.78h0L.45,9A1.48,1.48,0,0,1,.3,8.78ZM14.06,4l.09-.07.46,0,0,.05A2.82,2.82,0,0,0,14.06,4Zm1.88-2.4-.1-.07,0-.13c.06-.23.15-.47.19-.7a.06.06,0,0,0,0,0l0-.11a5.64,5.64,0,0,1,1,.39l.29.17c-.49.54-.93,1.1-1.38,1.69a4.89,4.89,0,0,1-.37.39C15.81,2.68,15.88,2.15,15.94,1.62Zm-.21,2.89a2.48,2.48,0,0,0-.94-.44s0,0,0-.07a2.55,2.55,0,0,1,.82.24,1.22,1.22,0,0,0,.16.22ZM15.67,4a.11.11,0,0,0-.09,0h0a1.2,1.2,0,0,1,.2-.29A2.22,2.22,0,0,0,15.67,4Zm1,1.48a4.54,4.54,0,0,0-.77-.87h0l.12.11a.13.13,0,0,0,.09.08,1.87,1.87,0,0,1,.22.24l.34.43Zm.07.1,0,0,.07.09a.37.37,0,0,1,.07.23ZM8.95,84.89s0-.07,0-.1a34,34,0,0,1,0-4.21C9,82,8.91,83.47,9,84.9Zm0,.3H9c0,.09,0,.19,0,.28C9,85.38,9,85.28,9,85.19ZM42.31,113.7c0,.08,0,.15,0,.23a1.16,1.16,0,0,1-.26.52C42.13,114.2,42.23,114,42.31,113.7Zm-.41-2.06a4.62,4.62,0,0,1,0,.56,2.9,2.9,0,0,0-.3-.82A1.84,1.84,0,0,1,41.9,111.63Zm-1-83.69a8.85,8.85,0,0,1-.31-1.61,13.39,13.39,0,0,0,.51,1.38,41.25,41.25,0,0,0,1.91,4l-.56.06A25,25,0,0,1,40.94,27.95Zm-7.69,4c1,.05,2,.16,2.94.24l-.75,0a46.69,46.69,0,0,1-7.28-.37c-1.73-.27-3.41-.61-5.1-1,.59.07,1.18.15,1.75.27a38.75,38.75,0,0,0,5.68.66,6.48,6.48,0,0,0,1.11.08h.1Zm-10-12.82c-.75-1.44-1.44-2.9-2.2-4.34-.22-.42-.42-.84-.61-1.26.36.77.88,1.46,1.29,2.21l-.15-.07q.51,1.06,1.05,2.11c.51,1,1,2,1.53,3C23.86,20.18,23.55,19.64,23.27,19.09ZM25,21.9a.62.62,0,0,1,0-.41h0c-.62-1.31-1.32-2.59-2-3.88-.23-.43-.44-.87-.66-1.31a2.08,2.08,0,0,0-.34-.86c-.38-.61-.72-1.23-1.12-1.82a10.46,10.46,0,0,1-1-2.27,14.11,14.11,0,0,0-.81-1.56c-.58-1.14-1.17-2.29-1.77-3.42-.18-.34-.1-.59-.3-.9q.34-.21.67-.45c.54.32,1.1.76,1.14,1.22a5.09,5.09,0,0,0,.45,1.57,37.74,37.74,0,0,0,2.09,3.63c1.42,2.44,2.8,4.92,4.13,7.4.73,1.37,1.38,2.77,2.15,4.13A37.39,37.39,0,0,1,29.86,27a5.41,5.41,0,0,0,.72,1.35c.25.32,1.33,1.17,1,1.61a.3.3,0,0,0,0,.34.62.62,0,0,1-.13-.09l-2.07-.12a.25.25,0,0,0,0-.19,22.82,22.82,0,0,0-2-3.26c-.74-1.12-1.24-2.32-1.87-3.49Q25.25,22.53,25,21.9Zm-9.26,3.79.37-.38a0,0,0,1,0,0-.09.64.64,0,0,0-.34.15v-.06a.19.19,0,0,0,0-.16v-.28h0a.06.06,0,0,0,0,0,4.23,4.23,0,0,1,.52-.15c1-.21,1.87-.42,2.82-.68a29,29,0,0,1,6.24-.41c.51,1,.95,1.95,1.5,2.89.27.53.53,1.06.75,1.62a2.84,2.84,0,0,0,.81,1.24.16.16,0,0,0-.05.12.15.15,0,0,0,.16.16h.2l.08.15a.22.22,0,0,0,0,.23l.06.07c-1-.07-1.9-.15-2.85-.29a43.88,43.88,0,0,1-8.93-2.13l-.6-.43a3.07,3.07,0,0,0-.34-.22,2.17,2.17,0,0,1,0-.9,2,2,0,0,1,.2-.67c.07-.15.49-.79.5-.56a.06.06,0,0,0,.12,0c0-.07,0-.13,0-.2a.07.07,0,0,0-.11-.06,2.46,2.46,0,0,0-1,2.1,1.24,1.24,0,0,0,0,.22l-.1,0h0l-.15,0s0,0,0,0l-.09-.07a6.09,6.09,0,0,1,.1-1A.07.07,0,0,0,15.71,25.69Zm.78,1.74-.25-.09a1.69,1.69,0,0,1-.07-.19A3.23,3.23,0,0,1,16.49,27.43ZM16,27.21,15.74,27l.08,0,.12,0A1.55,1.55,0,0,0,16,27.21ZM15.35,25h0Zm-1.75.28h0l-.53.28C13.16,25.38,13.42,25.32,13.6,25.27Zm.23.1h0l0,.09a2,2,0,0,0-.62.28l0,0h0c.19-.1.36-.26.55-.37l.15-.07Zm.31,0-.14,0a.53.53,0,0,0,0-.09v0h0v0a.07.07,0,0,0,0-.05l.39-.15a2,2,0,0,0-.25.31Zm.24.79h0l.05,0Zm.36-.48a1.78,1.78,0,0,0,.31-.06.16.16,0,0,0,0-.3l.11-.08a1.36,1.36,0,0,0,.29-.12.14.14,0,0,1,.08,0c-.06.5-.15,1-.18,1.49l-.1-.09A6.92,6.92,0,0,1,14.5,26Zm0,.81a.38.38,0,0,0,0-.08c.21.15.43.29.64.45h0l-.29-.19Zm0,.16h0Zm.14,2.74c-.07-.28-.15-.56-.21-.85.21.11.29.72.34,1.22ZM11.54,91.27l.1.05s-.07,0,0,0a4.11,4.11,0,0,1,.43.51c-.16-.22.13.45.19.51s.09.11.13.17L12,92.4Q11.78,91.84,11.54,91.27Zm1.22,2.52-.2-.37c-.14-.26-.27-.52-.4-.79l.38.21A11,11,0,0,1,13.06,94c.1.23.2.44.32.66l-.13,0C13.08,94.34,12.91,94.06,12.76,93.79Zm2,2.81c-.31-.39-.64-.76-1-1.12l-.17-.26,0-.05-.23-.4.13,0a7.11,7.11,0,0,0,1.32,1.71l.11.11Zm.46.62-.24-.33.3.09c.41.41.82.82,1.23,1.25-.23-.07-.44-.18-.67-.25C15.6,97.72,15.38,97.48,15.19,97.21Zm.89,1.1.62.14.59.61a28.21,28.21,0,0,0,3,2.51l.39.29A16.39,16.39,0,0,1,16.09,98.32Zm24,17.54a1.16,1.16,0,0,1-.44.16,4.67,4.67,0,0,0,.84-.74c0,.07,0,.15,0,.22A2.69,2.69,0,0,1,40.07,115.86Zm.84-1.57a.51.51,0,0,0-.41.42h0c0,.08,0,.16,0,.24a4.13,4.13,0,0,1-1.3,1.12c-.36,0-.73,0-1,0a0,0,0,1,0,0,.08l.75.06-.39.19a5.83,5.83,0,0,1-2.75.37,4.08,4.08,0,0,1-1.73-.66,2,2,0,0,0,.7-.1.16.16,0,0,0,0-.31c-.25-.08-.48-.14-.68-.23,0-.05,0-.11-.05-.17a2.64,2.64,0,0,1-.42-.32,2.73,2.73,0,0,1-.44-.5v.12c-.21-.36-.4-.74-.59-1.12a2.4,2.4,0,0,1,.48-2.86q0,.16,0,.31a3.44,3.44,0,0,0-.32,2.14.05.05,0,0,0,.1,0,11.64,11.64,0,0,1,.11-1.35,1.49,1.49,0,0,1,.13-.39l0,.21a3,3,0,0,1,.17-.49v0a2.18,2.18,0,0,1,1-.63,7.79,7.79,0,0,1,2.58-.27,8.77,8.77,0,0,1,2.35.11,3.55,3.55,0,0,1,1.51,1c.05.86.52,1.58.55,2.42C41.12,113.9,41,114.1,40.91,114.28Zm.4.12h0v0Zm-.54-3a7.49,7.49,0,0,1,.61.76,1.33,1.33,0,0,1,0,1.19C41.28,112.65,40.86,112.06,40.76,111.37Zm.64,2.46s0,0,0,0,0-.09,0-.13.06-.13.08-.2l0-.1A3.24,3.24,0,0,1,41.4,113.83Zm.16-1.77a9.27,9.27,0,0,0-.94-1.07,3.1,3.1,0,0,0-1.1-.83,7.55,7.55,0,0,0-2.94-.23,6.51,6.51,0,0,0-3,.54l-.06,0a1.59,1.59,0,0,1,.1-.16l0-.05a1.7,1.7,0,0,1,.24-.22L34,110l.16-.1c0-.51,0-1-.08-1.53l.36,0c0,.47-.06.95-.07,1.43a1.64,1.64,0,0,1,.7-.05c0-.37,0-.75-.05-1.12l.19-.26,1.09,0q.69,0,1.39.05a6.83,6.83,0,0,0,1.56-.15v.17a1.13,1.13,0,0,1-.17.34.09.09,0,0,0,0,.1.26.26,0,0,0-.21.24c0,.28,0,.55,0,.83a2.86,2.86,0,0,1,.92.13c0-.56,0-1.12-.05-1.68a.49.49,0,0,0,.18.13,13.17,13.17,0,0,0,0,1.61,2.71,2.71,0,0,1,.43.23,2.67,2.67,0,0,1,.37.26s0,.08,0,.11a.12.12,0,0,0,.14.11s0,0,.05,0l.07.09s0,0,0,.07a.26.26,0,0,0,.1.09,2.74,2.74,0,0,1,.21.27A2.43,2.43,0,0,1,41.56,112.06Zm-1-2.75,0,0h-.13v-.06h0a1.54,1.54,0,0,1,.33.08c0,.32,0,.65,0,1l-.08-.08h0V110a.47.47,0,0,1,0-.61Zm0-.26h-.15c0-.13,0-.27,0-.4l.29.06a1.28,1.28,0,0,0,.1.31v.1A1.59,1.59,0,0,0,40.51,109ZM61.83,87.82a12.59,12.59,0,0,1-1,3.68c0,.05,0,.1,0,.15-.26.6-.54,1.2-.85,1.77l-.21.38-.16.27c-1.81-.09-3.6.44-5.4.5-.86,0-1.73,0-2.6.05a7.79,7.79,0,0,1-1.36-.07c-.16,0-1.14-.26-.71-.33a.05.05,0,0,0,0-.11l-.28,0c-.09,0-.12.1-.07.16.84,1,2.79.54,3.93.54a16.31,16.31,0,0,0,3.42-.26,19.83,19.83,0,0,1,3-.24c-.16.29-.32.57-.5.86l-.18.18c-.11.1-.22.23-.32.34-1.76.05-3.51.26-5.28.24-1,0-2.1,0-3.15,0s-2.32-.22-3.49-.24a.07.07,0,1,0,0,.13c2.32,0,4.62.28,6.95.25,1.09,0,2.16-.05,3.25-.14.51,0,1-.08,1.53-.1h.07q-.42.46-.82,1c-.43.05-.87.11-1.31.15-.87.07-1.78,0-2.65,0-2.07,0-4.15-.06-6.22,0a0,0,0,1,0,0,.08c2,.08,4,0,5.92,0H56a10.78,10.78,0,0,0,1.46-.14c-.42.56-.82,1.14-1.23,1.65l-.56.67a6.93,6.93,0,0,0-1.58.24,8.15,8.15,0,0,1-3.89-.13A19,19,0,0,0,47.49,99a14.75,14.75,0,0,0-2.79.29c-.05,0,0,.08,0,.08.93.06,1.84-.23,2.78-.21a19.75,19.75,0,0,1,3.38.51,7.38,7.38,0,0,0,2.19.17c.83-.09,1.61-.29,2.42-.37A9,9,0,0,1,53.64,101c-.75.47-1.64.9-2.35,1.42a18.9,18.9,0,0,1-4.9,2.71c-.68.25-2,.23-2.72.74l-.3,0a.87.87,0,0,0-.85.6c.1-.42,0-.2-.49-.14a3.61,3.61,0,0,0-1.17.3,1.59,1.59,0,0,0-.25.16h0a0,0,0,0,0,0,.06,1.13,1.13,0,0,0-.27.37l-.58.14h-.05a2.36,2.36,0,0,0-1,.2l-.17,0-.26,0a7.44,7.44,0,0,1-.74.06.58.58,0,0,1-.59.18,26.23,26.23,0,0,0-3-.38l-.16,0-.89-.11c-.29-.22-.53-.51-1-.51a5.38,5.38,0,0,1-3-1.19l-.11-.06.18,0a17.9,17.9,0,0,0,1.9.43,2.65,2.65,0,0,1,1.47.57s.1,0,.07-.05c-.35-.47-1.24-.6-1.79-.7-.73-.14-1.49-.32-2.23-.53s-1.46-.6-2.16-.92a13.8,13.8,0,0,0-2.27-.8,8.39,8.39,0,0,1-2.29-1.25l-1.29-1c-1-.73-1.88-1.48-2.75-2.3-.23-.21-.45-.44-.67-.66l.19,0c1.43.28,2.84.64,4.28.91,1.17.22,2.35.48,3.54.69l-.15-.2c-1.36-.19-2.68-.53-4-.79q-1.1-.21-2.17-.49c-.63-.17-1.26-.24-1.89-.38-.38-.41-.76-.81-1.16-1.21.21.06.43.12.64.2a18.83,18.83,0,0,0,6.21,1.1c.44,0,.88,0,1.32.05l-.14-.21C22,98,20.38,98,18.77,97.72a18.31,18.31,0,0,1-2.88-.78c-.67-.24-.52-.29-.81-.31l-.22-.21a5.65,5.65,0,0,1-1.25-1.6l.15,0L18.59,96c1.49.35,2.91.9,4.39,1.29l-.13-.2c-1-.28-2.08-.63-3.11-1-1.62-.52-3.35-.76-5-1.18-.36-.09-.77-.17-1.19-.27a14.85,14.85,0,0,1-.64-1.4c0-.11-.1-.22-.15-.34.28.15.56.29.86.42a34.1,34.1,0,0,0,5.78,1.84l2.69.61-.1-.18-1.88-.44a55.19,55.19,0,0,1-5.43-1.59,15.48,15.48,0,0,1-2-.89,4.92,4.92,0,0,0-1-1.38,4.4,4.4,0,0,0,.41.21c1.46.58,3,.93,4.5,1.4a42.34,42.34,0,0,0,4.63,1.31l.08,0-.15-.32-.21,0a42.19,42.19,0,0,1-4.59-1.34c-1.51-.47-3-.81-4.5-1.42a4.21,4.21,0,0,1-.41-.21q-.33-.84-.6-1.7l.23.12c1.25.6,2.51,1.35,3.82,1.83a26.83,26.83,0,0,0,5.66,1.23l-.09-.27a18.7,18.7,0,0,1-5.84-1.3L10.78,89l0,0q-.27-.89-.45-1.8c.76.51,1.56,1,2.33,1.44a17.24,17.24,0,0,0,5.29,2,19.59,19.59,0,0,0,2.2.3l0-.21c-.48,0-1-.08-1.44-.16a18.46,18.46,0,0,1-5.33-1.74,21.39,21.39,0,0,1-2.2-1.35l-.86-.56q-.12-.66-.2-1.32l.05,0c1.4.55,2.72,1.3,4.16,1.73a22.44,22.44,0,0,0,4.39.41,40.07,40.07,0,0,0,5.11.05,0,0,0,1,0,0-.09c-1.38-.05-2.77,0-4.16-.1s-3.15-.1-4.66-.34a18.93,18.93,0,0,1-3.55-1.36c-.46-.17-.92-.36-1.37-.54,0-.5-.08-1-.09-1.49,0,0,0-.07,0-.1a15.16,15.16,0,0,0,3.27,1.18c1.47.41,2.92.87,4.38,1.3a0,0,0,0,0,0-.08c-1.21-.42-2.42-.81-3.64-1.17a19.7,19.7,0,0,1-4-1.36c-.06-.51-.1-1-.12-1.51,0-.1,0-.2,0-.31,0-.54,0-1.09,0-1.63,0,0,0,0,0-.07a26.72,26.72,0,0,1,.29-2.9c.46.13.91.29,1.39.4a15.65,15.65,0,0,0,2.53.42c1.88.14,3.72.63,5.58.93a38.35,38.35,0,0,0,5.24.32c1.88,0,3.78.09,5.67,0a0,0,0,1,0,0-.1c-3.84-.15-7.75.16-11.56-.5A34.77,34.77,0,0,0,14,77.9a21.21,21.21,0,0,1-3.9-.86c0-.19.05-.39.08-.58a16.48,16.48,0,0,1,.2-2.05v0A12.4,12.4,0,0,1,12,75a15.48,15.48,0,0,0,2.23.76,46.93,46.93,0,0,0,5.56,1.3,33.12,33.12,0,0,0,4.8.7c.8,0,1.61,0,2.41,0s1.43.23,2.16.24a0,0,0,1,0,0-.09c-.64,0-1.24-.24-1.88-.28-.8-.05-1.61,0-2.41,0a32.6,32.6,0,0,1-5.36-.78,50.15,50.15,0,0,1-5.6-1.34c-1.15-.33-2.29-1-3.48-1.31,0-.3.09-.6.15-.9s.08-.36.13-.54a27.41,27.41,0,0,0,4.08,1.36c2.08.5,4.21.81,6.28,1.34a10.75,10.75,0,0,0,2.63.25,20.19,20.19,0,0,0,2.48.1,52.31,52.31,0,0,1,6.2-.36.07.07,0,1,0,0-.13H29.94c-1,0-1.92.18-2.89.25a22.73,22.73,0,0,1-5.62-.18A59.54,59.54,0,0,1,10.72,72.6c.07-.28.13-.56.21-.84l.14-.5,1,.3,2.18.62a32.89,32.89,0,0,0,4.94,1c.07,0,.08-.1,0-.11A40.92,40.92,0,0,1,13,71.66c-.4-.12-.81-.23-1.22-.34-.19-.05-.43-.15-.66-.23l.13-.43c.06-.08.12-.17.19-.25a3.53,3.53,0,0,0,.42-.58,23.83,23.83,0,0,0,4.13.94,33.38,33.38,0,0,0,5.33.59,0,0,0,1,0,0-.09,54.74,54.74,0,0,1-5.67-.69,22.87,22.87,0,0,1-3.74-.84,6.58,6.58,0,0,0,.53-1.25l.23.07c.65.14,1.33.21,2,.35a33.82,33.82,0,0,0,4.06.74,73.58,73.58,0,0,0,8.78.17,0,0,0,1,0,0-.09c-2.93-.1-5.86-.07-8.78-.29A39,39,0,0,1,14,68.57c-.5-.1-1-.16-1.52-.28.19-.63.35-1.28.55-1.85.32-.88.22-1.91.47-2.82.35-1.23.59-2.47,1-3.68a112.53,112.53,0,0,0,3.33-11.29l.85.23c.43.11.85.21,1.29.3.69.14,1.41.2,2.12.28a28.3,28.3,0,0,1-1.2,4.9c-.24.81-.49,1.62-.77,2.42A7.68,7.68,0,0,0,19.44,59s0,0,0,0a10,10,0,0,1,.8-2.41c.32-.9.57-1.8.86-2.71a20.11,20.11,0,0,0,1-4.41l.31,0a32.8,32.8,0,0,0,5.84,0,0,0,0,1,0,0-.09c-1.82-.06-3.64.07-5.46-.08l-.68-.07c0-.19,0-.38,0-.58a0,0,0,0,0,0,0c0,.2,0,.38-.06.57-.81-.08-1.64-.19-2.4-.34s-1.21-.42-1.83-.52q.15-.73.27-1.46c1.57.4,3.18.7,4.76,1a.06.06,0,1,0,0-.11,29.07,29.07,0,0,0-3-.71l-1.51-.32-.26-.06c.07-.42.11-.86.14-1.29a26.55,26.55,0,0,0,4.88,1,.05.05,0,0,0,0-.1c-1.63-.35-3.28-.52-4.89-1,0-.24,0-.47,0-.71a44.49,44.49,0,0,0,7.82,1.28c.07,0,.07-.09,0-.1a74.25,74.25,0,0,1-7.82-1.31c0-.39,0-.78-.05-1.16l.88.27c.71.22,1.45.36,2.15.62a22.84,22.84,0,0,0,4.58.91,0,0,0,0,0,0-.07,28.93,28.93,0,0,1-4.83-1c-.69-.25-1.44-.38-2.15-.6l-.64-.18A13.06,13.06,0,0,0,18,41.6c0-.21-.08-.42-.12-.63a59.62,59.62,0,0,0,6.44,2.16,34.08,34.08,0,0,0,9.32,1,0,0,0,1,0,0-.08,49.35,49.35,0,0,1-9.61-1.19,43.46,43.46,0,0,1-4.32-1.39l-1.87-.7q-.12-.71-.22-1.42a13.73,13.73,0,0,0,2,1c1.35.55,2.8.77,4.17,1.24a22.29,22.29,0,0,0,8,1.55.05.05,0,1,0,0-.1c-1.23-.09-2.56-.14-3.77-.36a26.19,26.19,0,0,1-3.87-1.18c-2.26-.78-4.51-1.18-6.53-2.36q-.06-.47-.14-.93a16.86,16.86,0,0,0,2.66,1.19,45.43,45.43,0,0,0,5.37,1.24c1.64.3,3.19.68,4.86.9,2,.27,4,.8,6,1s4.16,0,6.19,0c1.72,0,3.37-.61,5.08-.62a13.37,13.37,0,0,0,2.43-.48,13.84,13.84,0,0,0,2.6-.56l.29-.13a2.53,2.53,0,0,0-.14,1.06c0,.87.06,1.74.06,2.61a43.72,43.72,0,0,0,.19,7.53,23.13,23.13,0,0,0,1.09,3.45c.36,1,.6,2.11,1,3.13.7,1.73,1.7,3.37,2.37,5.13.17.63.35,1.25.53,1.87,0,.06,0,.12,0,.19a10.52,10.52,0,0,0,.66,2.84,35.33,35.33,0,0,1,1.51,4c.36,1.1.47,2.37.91,3.42a6.53,6.53,0,0,1,.27,2.31c0,.59.23,1.15.25,1.74.06,1.26,0,2.53,0,3.79S61.89,86.49,61.83,87.82Zm-44.51-51a.72.72,0,0,1,.31.27,1.73,1.73,0,0,0-.37-.13l0-.12,0-.13a4.21,4.21,0,0,0,.58-.36l0,0a2.71,2.71,0,0,0-.52.45A0,0,0,0,0,17.33,36.82Zm36.8,11c.19,1.41.47,2.85.8,4.28.07.73.11,1.45.26,2.18.1.5.28,1,.42,1.47a5.72,5.72,0,0,0,.3,1.07,21.7,21.7,0,0,1,1.34,5.34L56.76,61a38.74,38.74,0,0,1-1.65-3.54c-.35-1.13-.73-2.24-1.08-3.37a16.33,16.33,0,0,1-.89-3.86c-.08-1.2,0-2.4,0-3.6s0-2.48,0-3.71c0-.6-.34-1.89.2-2.36l.19-.1a.14.14,0,0,0,.16,0c.14-.07.32-.1.47-.18l.13-.06c0,.1,0,.2,0,.3A30.2,30.2,0,0,0,54.13,47.87Zm1.09-3.19h0c0-.17,0-.34,0-.5v0c0,.27,0,.55,0,.83,0,.46,0,.92,0,1.38C55.2,45.84,55.19,45.26,55.21,44.68Zm7.57,36.25c0,.23,0,.45,0,.68a1,1,0,0,1,0,.1,3.18,3.18,0,0,0,0,1c0,.38,0,.76-.09,1.14s0,.5,0,.75a1.17,1.17,0,0,1-.26.42s0,.12.08.08a1.15,1.15,0,0,0,.17-.23A18.69,18.69,0,0,1,62,88.15a25.93,25.93,0,0,0,0-3.35c0-1.21,0-2.43,0-3.64a27.28,27.28,0,0,0-.86-6.61,3.91,3.91,0,0,1,.21.47c.06.18,0,.42,0,.6l.27.78c.18.52.36,1,.51,1.58l.43,1.61c.1.36,0,.73.08,1.08ZM57,59.2c.94,2.44,2,4.75,2.95,7.14l.61,1.95a.2.2,0,0,0-.08,0q.39,1.09.73,2.18c.13.62.24,1.24.31,1.88a25.59,25.59,0,0,0,.8,3.71c0,.12,0,.24,0,.36.16.89.26,1.78.33,2.68-.24-.94-.49-1.88-.81-2.8A8.27,8.27,0,0,1,61.59,75a11.22,11.22,0,0,0-.49-1.21c-.3-1-.66-1.91-1-2.89C59.34,69,58.82,67,58.27,65.08a7,7,0,0,0-.25-.91l0-.06c-.6-2.05-.9-4.15-1.41-6.22C56.73,58.32,56.88,58.77,57,59.2ZM56,48.71l.13,1.09q-.11-.65-.18-1.31Zm.29,8.47-.22-.43a6.06,6.06,0,0,1-.35-1.25c-.12-.43-.23-.86-.33-1.29Q55.84,55.72,56.33,57.19ZM54.57,37.92c-.06.56-.13,1.13-.2,1.7a0,0,0,0,0-.07,0v.12l-.84,0c-.5-.12-.93-.4-1.43-.53a8.34,8.34,0,0,1-1.85-.52,8.62,8.62,0,0,1-1-.74c-.39-.28-1.19-.77-1.11-1.32,0,0-.06-.06-.07,0-.16.75,1.17,1.52,1.7,1.87a5.75,5.75,0,0,0,2.13.81,7.06,7.06,0,0,1,1.08.37c-.47-.06-.94-.15-1.41-.2a13.72,13.72,0,0,0-1.69-.09,7.08,7.08,0,0,1-2-.52,4.46,4.46,0,0,1-1.29-.53,5.88,5.88,0,0,1-.53-.43h-.3a3.46,3.46,0,0,0,1.1.81c.68.16,1.35.39,2,.6a6.75,6.75,0,0,0,1.88.23c.77,0,1.51.22,2.27.31.22,0,.45,0,.67,0h.16l.49,0-.12.06-.39.2c0-.09,0-.17,0-.26a3.91,3.91,0,0,1-1.54.6.6.6,0,0,1-.3,0c-.65.13-1.43.18-1.9.28a16.2,16.2,0,0,1-3.2.43c-1.34,0-2.76.52-4.12.6-2,.11-4.16,0-6.19,0-1.67-.06-3.25-.81-4.91-.9a27.36,27.36,0,0,1-4.18-.67,1,1,0,0,0,.21-.11,11.07,11.07,0,0,1,1.15-.6c.75-.39,1.46-.85,2.24-1.19s1.5-.73,2.23-1.14c.9-.5,1.92-.75,2.79-1.31a.05.05,0,0,0-.05-.1c-1.56.72-3.16,1.34-4.64,2.2-.64.37-1.33.67-2,1-.38.21-.74.43-1.12.63a5.18,5.18,0,0,1-1,.53l-1.36-.28c-.86-.16-1.72-.33-2.57-.52a18,18,0,0,0-2.12-.62,7.71,7.71,0,0,1-2.91-1.09.24.24,0,0,0-.07-.2,1.74,1.74,0,0,0-.36-.28,1.69,1.69,0,0,0-.28-.34c-.21-.19,1.34-.86,1.58-1l.22,0A2.83,2.83,0,0,0,20,35.6l.74-.26.27-.06c.39-.09.81,0,1.19-.07s.37-.18.63-.22a0,0,0,0,0,0,0c-.46,0-.89.18-1.37.2l-.16,0a4.6,4.6,0,0,1,.9-.18,0,0,0,1,0,0,0,4.82,4.82,0,0,0-1.61.35l-.58.15c-.32.08-.65.18-1,.29a1.81,1.81,0,0,0-.63.11c-.44.19-.79.53-1.22.76-.22-.91-.49-1.82-.78-2.73A44.28,44.28,0,0,1,16,29.41c0-.06-.09-.06-.09,0a29.74,29.74,0,0,0,.17,3.49l-.51-1.52c0-.08,0-.16-.05-.24a7.44,7.44,0,0,1-.45-1.72c0-.33,0-.84-.37-.95h0c0-.14-.05-.28-.08-.42l.48.2a8.58,8.58,0,0,0,.51,1.47c0,.09.16.06.14,0-.11-.46-.26-.88-.35-1.32l.57.22a12.07,12.07,0,0,0,1.09.74c0,.19,0,.39,0,.58a0,0,0,0,0,.07,0c0-.17,0-.34,0-.5l1.37.8A13,13,0,0,0,22,31.4a31.27,31.27,0,0,0,3.13.75A57.81,57.81,0,0,0,33,33c1.34,0,2.66.09,4,0,1.1-.05,2.14-.25,3.21-.32a9.33,9.33,0,0,0,3.64-.18,46.81,46.81,0,0,0,5.63-1.21A28.62,28.62,0,0,0,55.35,29c.48-.26.94-.54,1.39-.84-.12.31-.26.61-.38.93a6.86,6.86,0,0,0-.31,1.7A31.77,31.77,0,0,0,54.57,37.92Zm2.3-12L57,26c0,.17.07.31.27.33a0,0,0,0,0,0-.09c-.13,0-.16-.12-.16-.22a3,3,0,0,1,.77.41v0h0a.19.19,0,0,0-.07.07.43.43,0,0,1-.12.14.42.42,0,0,0-.49-.09.62.62,0,0,0-.25.25,3,3,0,0,1-.36-.41c-.19-.2-.1-.59-.21-.84,0,0-.06,0-.09,0a1.67,1.67,0,0,1,0-.16l.54.35,0,0C56.78,25.74,56.73,26,56.87,26ZM58,27.14h0l.07,0c0,.18-.07.35-.11.53a.5.5,0,0,0-.46.08A1.25,1.25,0,0,1,58,27.14Zm-.81.69a3.62,3.62,0,0,1-.08.56,13.2,13.2,0,0,0-.73,1.43A14.57,14.57,0,0,1,57,28Zm-1.1,8.35a17.45,17.45,0,0,1-.27,2.23l0,.16h0c0-.21,0-.43,0-.64,0-.76.26-1.54.27-2.31a15.75,15.75,0,0,1,.83-3.45c.07-.24.14-.48.21-.73a17.24,17.24,0,0,0-.38,2c-.12,1-.24,2-.39,2.92,0-.05,0-.11,0-.16A.11.11,0,0,0,56.13,36.18Zm3,3.85q-1.4,0-2.8-.05l0-.23A21.89,21.89,0,0,0,59,39.9c.65,0,1.31,0,2,.05C60.35,40,59.76,40,59.17,40ZM74.55,26.33c-.11.56-.23,1.1-.37,1.62a22.41,22.41,0,0,1-1.63,4.52A22.61,22.61,0,0,1,69.92,36a16.44,16.44,0,0,1-4.84,2.73,9.12,9.12,0,0,1-3.33.23c-1.3,0-2.61,0-3.91,0a12.35,12.35,0,0,1-1.25-.07c0-.14.05-.29.09-.43.46-2.11.44-4.28.92-6.38.43-1.88,1.15-3.73,1.12-5.68a.21.21,0,0,0-.24-.21,1.14,1.14,0,0,0-.45-.33c-.16-.06-.34-.09-.5-.15l-.07,0,0-.06a.39.39,0,0,0-.06-.49c-.08-.07-.17-.13-.25-.2a1.56,1.56,0,0,1,.83,0c.3.13.5.41.8.52.12,0,.23.06.33.11l.16.17a.46.46,0,0,1,.05.17c0,.21,0,.43,0,.65a4.94,4.94,0,0,0,0,.69,5.66,5.66,0,0,0-.71.79c-.12.19.17.42.32.25s.34-.33.53-.49a3.07,3.07,0,0,0,0,.45c0,.18.21.27.37.35s.15.16.24.22a1.78,1.78,0,0,0,.32.16h0l.15.17c.62,1,1.23,1.95,1.88,2.9l0,.06.14.21.16.23a32.55,32.55,0,0,0,2.05,2.76.34.34,0,0,0,.29.09,8.69,8.69,0,0,1,.52.75,2.05,2.05,0,0,0,.87.88,4.92,4.92,0,0,1-1,.53c-.38.11-3.57,1.53-3.73,1.25,0-.05-.12,0-.12,0v.08a.06.06,0,0,0,.07.05h0a1,1,0,0,0,.54-.09c.84-.28,1.65-.6,2.48-.9.33-.12.7-.26,1-.36a5.24,5.24,0,0,0,1-.55A.27.27,0,0,0,66.9,37a4.25,4.25,0,0,0,.93-.64,3.49,3.49,0,0,1,1-.76c.58-.21,1-1,1.41-1.49a7.16,7.16,0,0,0,1.41-2,8.86,8.86,0,0,1,.82-1.46,15,15,0,0,1,.72-1.33,3.39,3.39,0,0,0,.54-2.39s-.05,0-.06,0a5.69,5.69,0,0,1-.76,2.24c-.45.72-.77,1.5-1.21,2.22-.77,1.26-1.79,2.32-2.68,3.5a12.59,12.59,0,0,1-1.12,1.24,3.9,3.9,0,0,1-.91.64.25.25,0,0,0-.2-.25,2,2,0,0,1-.69-.57.19.19,0,0,0,.08-.1l0-.06A.22.22,0,0,0,66,35.5c-.32-.11-.63-.71-.82-1-.54-.81-1.19-1.6-1.78-2.39S62.31,30.7,61.72,30c-.36-.43-.67-1-1.09-1.45l.42.22s.1,0,.06-.07c-.37-.32-.84-.32-.91-1,0-.47.54-.73.54-1.14s-.24-.93.2-1.07.64-.27,1-.37a.07.07,0,1,0,0-.14,7.26,7.26,0,0,0-1.25.52s-.13.1-.13.16c0,.38.28.67.07,1.07s-.6.72-.47,1.18a1.23,1.23,0,0,0,.15.34h0a.16.16,0,0,0-.11,0,.43.43,0,0,1-.11-.12c-.06-.12,0-.33,0-.46a1,1,0,0,0-.11-.26,2.19,2.19,0,0,0,.22-.3.17.17,0,0,0,.1,0c.28-.25.18-.84.16-1.17a1.64,1.64,0,0,0-.15-.59c.29-.13.65-.27.83-.34a15,15,0,0,1,2-.91,9.33,9.33,0,0,0,2.22-1.16c1.11-.68,2.34-1.2,3.49-1.82.55-.3,1-.81,1.5-1.15a4.59,4.59,0,0,0,.89-.52.2.2,0,0,0,.17.1h.23a.21.21,0,0,0,.2-.31c-.22-.34-.59-.29-1-.13A8.6,8.6,0,0,0,69,20a19.49,19.49,0,0,1-2.46,1.44c-1.4.74-2.77,1.46-4.21,2.12-.68.31-1.29.73-2,1l-.44.2a1.84,1.84,0,0,0-.32-.28,4.35,4.35,0,0,0-1.54-.36,2,2,0,0,0-.38-.1,26.4,26.4,0,0,0-.18-3.92c-.08-1.5-.16-3-.15-4.49s-.2-3-.07-4.52a.61.61,0,0,0-.1-.32h.07a.08.08,0,0,0,0-.15.28.28,0,0,0-.24-.05c-.06,0-.1-.06-.11,0a.18.18,0,0,0-.09-.12.22.22,0,0,0-.12,0,.24.24,0,0,0-.15,0h0q-.95-.05-.3-.09a4.73,4.73,0,0,1,.55,0c.33,0,.66,0,1,0a16.8,16.8,0,0,1,2.06.13A12,12,0,0,1,64,11.95c1.16.61,2.32,1.27,3.53,1.79a2.75,2.75,0,0,1,.94.51c.22.21.36.49.59.71s.5.49.74.75l0,0a.05.05,0,0,0,.07.07l0,0,.07.08s0,0,0,.06c.07.26.3.42.44.64.28.45.64.83.9,1.3a19.91,19.91,0,0,1,1.13,3.06,19.38,19.38,0,0,1,.77,3,4.33,4.33,0,0,1,.07,1.92,3.07,3.07,0,0,0,0,1c0,.05.09.08.11,0a7.47,7.47,0,0,0,.39-2.49,15.18,15.18,0,0,0-.79-3.26c-.39-1-.84-2.06-1.25-3.09a4,4,0,0,0-.58-.95c-.17-.22-.39-.44-.6-.66a.1.1,0,0,0,.1-.14,8.63,8.63,0,0,0-1-1.4c-.41-.48-.73-1-1.34-1.31-1.35-.59-2.67-1.25-4-1.94a11,11,0,0,0-3.9-1.26,23.78,23.78,0,0,0-4.52,0,.08.08,0,0,0,0,.14.79.79,0,0,0,.83.11.18.18,0,0,0-.06.12v.08a.22.22,0,0,0,.17.21c.21,0,.28,6,.3,6.68.07,2.11.09,4.35.34,6.45a1.07,1.07,0,0,0-.26.08,1.46,1.46,0,0,0-.42.28,29.38,29.38,0,0,0-5.22-3c-1.29-.63-2.56-1.37-3.81-2.07-.52-.3-1.09-.59-1.64-.91-.11-.22-.38-.37-.54-.54A1.37,1.37,0,0,1,45,17a6.76,6.76,0,0,0,0-.81h0s0,0,0,0a6,6,0,0,1,1.52-1.8,16.14,16.14,0,0,1,2.29-1.7,13.43,13.43,0,0,1,2.46-1.26c.4-.16.8-.33,1.2-.47A5.83,5.83,0,0,1,54,10.79c.11,0,.15-.18,0-.22a3.82,3.82,0,0,0-2.43.41,14.07,14.07,0,0,0-2.7,1.4,24.93,24.93,0,0,0-2.61,2c-.54.5-1.34,1.17-1.38,2a0,0,0,0,0,0,0,2.56,2.56,0,0,0,0,1.11,2,2,0,0,0,.36.6l0,0a7.58,7.58,0,0,1-.71-.54,1.15,1.15,0,0,1,0-.27c0-.21.05-.41.05-.62a0,0,0,0,0-.08,0,5.82,5.82,0,0,0-.08.77l-.07-.06a.17.17,0,0,0-.29.15.52.52,0,0,0,.29.33h0c.55.4,1.15.75,1.71,1.14,1.27.88,2.72,1.52,4,2.4s2.5,1.54,3.77,2.29c.76.45,1.47,1,2.2,1.49-.33.58-.45,1.76.49,1.87l0,0,.07.06a11.83,11.83,0,0,1-1.77,1.06,25.6,25.6,0,0,1-6.12,2.32,36.88,36.88,0,0,1-4.07.9,5.58,5.58,0,0,0-.44-.75,8.17,8.17,0,0,1-.75-1.79c-.22-.57-.51-1.12-.69-1.7s-.2-1.2-.36-1.78A11.7,11.7,0,0,1,42.26,24a6.42,6.42,0,0,1,.38-2.52c0-.06-.06-.11-.09,0a2.73,2.73,0,0,0-.21.53c.13-1,.76-1.92,1-2.92a.07.07,0,0,0-.13-.05,6.21,6.21,0,0,0-1,4.42,9.1,9.1,0,0,0,0,1,0,0,0,0,0,.07,0v0c0,.11,0,.22,0,.33a13,13,0,0,0,.81,3.46c.27.63.44,1.27.67,1.91a13.27,13.27,0,0,0,.78,1.36l-.58.1.23-.09c-.5-.85-.93-1.74-1.42-2.67a12.4,12.4,0,0,1-1.62-7.36A14.2,14.2,0,0,1,43.67,17c.08-.11-.1-.21-.19-.11-.49.61-1.06,1.14-1.52,1.78.29-.66.64-1.31,1-1.94a.37.37,0,0,0,.25-.12c2.85-2.84,5.12-6.14,9.43-7a25.47,25.47,0,0,1,10.28.61c1.15.44,2.27,1,3.37,1.48.69.32,1.26.83,1.94,1.17a9.63,9.63,0,0,1,2.46,1.63c2.9,2.76,3.88,6.5,3.9,10.28C74.61,25.35,74.59,25.84,74.55,26.33ZM57.38,24.6h.07Zm1.87.31a1.55,1.55,0,0,1,.34.22l0,0,0,.05Zm-3.42-2.57c-.72.94-2.07,0-2.79-.51a20.06,20.06,0,0,0-2.2-1.23c-.73-.4-1.43-.77-2.13-1.23-.38-.25-.81-.43-1.22-.64a4.27,4.27,0,0,1-.75-.49l-.18-.14q-.33-.07-.14-.06a0,0,0,1,0,0-.08h-.06s-.06,0,0,.07a7.87,7.87,0,0,0,1.11.8c.52.29,1.06.54,1.56.87a25.18,25.18,0,0,0,2.69,1.5c.44.23.87.48,1.29.75a5.37,5.37,0,0,0,1.31.77c.22.06.67.39.94.32l0,0a.07.07,0,0,0,.06.11c.58,0,.42-.33.66-.71C56,22.34,55.89,22.26,55.83,22.35Zm-.42-10v-.06s-.05,0,0,0v.06A0,0,0,0,0,55.41,12.39Zm0,1.36a3.89,3.89,0,0,0-.1-1.5.06.06,0,0,0-.11,0c.12.49.08,1,.16,1.47C55.36,13.78,55.41,13.78,55.41,13.76Zm-.35-.6c.08.2.16.4.23.6,0,0,0,0,0,0a1.87,1.87,0,0,0-.14-.57c-.09-.21-.11-.47-.22-.67-.2-.39-.8-.47-1.19-.61h0a.07.07,0,0,0,0,.13c.35.18,1,.21,1.13.62l0,.12h0a41.51,41.51,0,0,1,.71,4.72,11.72,11.72,0,0,1,.1,2.49c0,.38,0,.74-.05,1.12-.08.55.25,1.18-.47,1.44a0,0,0,1,0,0,.07c.16,0,.43-.06.53-.21s.05-.8,0-1.12c0-.93.16-1.86.12-2.8s-.33-2-.45-3A20.64,20.64,0,0,0,55.07,13.16ZM48.8,13.1a15.56,15.56,0,0,1,2.94-1.35,0,0,0,0,0,0,0,18.41,18.41,0,0,0-3,1.31c-.35.19-.66.48-1,.7s-.68.51-1,.77a0,0,0,0,0,0,0C47.45,14,48.14,13.59,48.8,13.1Zm-5.6,9.21a0,0,0,0,0,.06,0c.13-.35.36-.69.52-1,.23-.5.4-1,1-1.15a1.69,1.69,0,0,1,1.28.43,9.63,9.63,0,0,1,1,.6c.21.18.36.08.58.27a.42.42,0,0,0,.3.07,4.74,4.74,0,0,1,.54,0c1.1.68,2.44,1.08,3.5,1.81.67.46,2.15.89,2.3,1.76.06.35.3.61.39,1s.21.79.34,1.19c0,.06.12.05.12,0a7.09,7.09,0,0,0-.23-1c-.06-.24-.46-1-.41-1.23.14-.57-1-.95-1.32-1.13a27.65,27.65,0,0,0-2.8-1.55c-.45-.19-.94-.4-1.42-.65l.07,0s.06,0,0-.06a2.71,2.71,0,0,0-.56-.23,5.62,5.62,0,0,1-.71-.49s-.1,0-.06.06a4.85,4.85,0,0,0,.55.43c-.19,0-.66.07-.7-.2a.06.06,0,0,0-.06,0c-.41,0-.83-.49-1.22-.63S45.43,20,44.92,20a1.12,1.12,0,0,0-.95.61A8.14,8.14,0,0,0,43.19,22.31ZM58.92,24A2.07,2.07,0,0,1,58,23.1c0-.06-.11,0-.09,0a2.39,2.39,0,0,0,.8.95,2.16,2.16,0,0,0,1.23.36,0,0,0,0,0,0-.08A10.63,10.63,0,0,1,58.92,24Zm10.53-7.67c.11.15.23.29.33.45a0,0,0,0,0,.05,0,3.89,3.89,0,0,0-.45-.71v0a1.44,1.44,0,0,1,0-.15c0-.06-.1-.07-.1,0v0A7.93,7.93,0,0,0,68,14.77a11.08,11.08,0,0,0-1.49-1c-.52-.27-1.07-.47-1.57-.76s-.88-.56-1.35-.8a5.78,5.78,0,0,0-1.38-.37c-.55-.12-1.08-.3-1.64-.4-.33-.06-.69-.21-.89-.14a0,0,0,0,0,0,0l-.07,0c-.05,0-.08.07,0,.08.87.15,1.72.44,2.58.64a6.56,6.56,0,0,1,1.56.46c.4.2.76.46,1.13.69.88.54,1.81.88,2.66,1.48a9.45,9.45,0,0,1,1.81,1.58v0a9.51,9.51,0,0,1,.07,1.36c0-.2-.06-.43-.09-.58a0,0,0,0,0-.09,0l.07-.11s0,0,0,0-.08.07-.1.21a0,0,0,0,0,.07,0c.19-.1,0,.24.08.42a1.48,1.48,0,0,0,.1.3,1.54,1.54,0,0,1-.32.85c-.26.12-.56.21-.69.25a20,20,0,0,0-2.62,1.65,13.36,13.36,0,0,0-1.29.74,7.65,7.65,0,0,1-1.6,1c-.61.24-1.19.79-1.9.71-.19,0-.31,0-.33.22s.11.08.12,0a7.1,7.1,0,0,1,.82-.14,2.4,2.4,0,0,0,.59-.29c.5-.26,1-.45,1.52-.75s.89-.66,1.38-.94,1-.53,1.46-.82.88-.62,1.34-.9a5.59,5.59,0,0,1,1-.45l-.21.27s0,0,0,0,.24-.23.36-.37l.34-.12c.14-.05.34-.27.27-.44a2.4,2.4,0,0,0-.21-.39c0-.37,0-.79,0-1.19.28.81.67,1.91.26,1.93a.07.07,0,0,0-.07,0c-.06.15-.56.46-.68.56a3.34,3.34,0,0,0-.6.63s0,.08.07,0a3.18,3.18,0,0,1,1-.95,2.67,2.67,0,0,1,.33-.19.07.07,0,0,0,.07,0c.48-.85-.15-1.54-.41-2.31Zm0,1.68.05.12c0,.13-.06.25-.23.36A1,1,0,0,0,69.49,18Zm-5.81-4.45a19.39,19.39,0,0,1,5.57,3.91s0,0,0,0a16,16,0,0,0-4.65-3.53,27.67,27.67,0,0,0-2.75-1.27,8.82,8.82,0,0,0-1.39-.5,8.31,8.31,0,0,1-.94-.19c.08-.1.18-.24.27-.18s.07,0,.22.06a0,0,0,0,0,0-.1.52.52,0,0,1-.23-.13.08.08,0,0,0-.1,0l-.37.25a.4.4,0,0,1-.14-.15s-.09,0-.07,0a.44.44,0,0,0,.14.18.78.78,0,0,0-.29.36.76.76,0,0,0,0,.34,4,4,0,0,1,0,1c-.06,1.09-.23,2.18-.36,3.26a10,10,0,0,0,.07,1.59c0,.67-.08,1.34,0,2,0,.43.26.84.34,1.26a2.19,2.19,0,0,0,.43,1.09s.05,0,0,0A3.22,3.22,0,0,1,59,21.59a8,8,0,0,1-.3-1.76,12.15,12.15,0,0,0,0-1.76,3.86,3.86,0,0,1,.06-1.69,5.18,5.18,0,0,0,.1-1.3c.06-.59.15-1.2.26-1.78s-.33-.92.27-1.23a4.26,4.26,0,0,0,1,.23,8.52,8.52,0,0,1,1.77.67C62.71,13.17,63.2,13.36,63.68,13.58Zm7,17.67a8.42,8.42,0,0,0-.78.84,8.2,8.2,0,0,1-.9.77.56.56,0,0,0-.11.18,1.22,1.22,0,0,1-.86.77,4,4,0,0,1-1.18,0l-.56-.64c-.54-.62-1.12-1.2-1.68-1.81-1.09-1.2-2.29-2.29-3.31-3.56,0,0-.07,0,0,0A19.59,19.59,0,0,0,63,30a11,11,0,0,0,1,.9c.34.27.55.65.87.94a23.35,23.35,0,0,1,1.66,1.84,6.13,6.13,0,0,0,1.09,1c-.23,0-.53,0-.57,0s-.1,0-.08,0c.07.23.63.15.8.14h0v.14A.08.08,0,0,0,68,35l.12-.13a.08.08,0,0,0,0,0l.05-.08a2.31,2.31,0,0,0,1-.53c.06-.05,0-.14-.08-.1l-.06,0h0a4.19,4.19,0,0,1-.69.4l.07-.11a0,0,0,0,0-.07-.06,1.38,1.38,0,0,0-.19.23,1.1,1.1,0,0,1-.21,0h0a3.09,3.09,0,0,1-.88-.71c.57,0,1.47.18,1.81-.35a2.23,2.23,0,0,0,.19-.35c.21-.48.42-.38.71-.69s.68-.86,1.05-1.27A0,0,0,0,0,70.71,31.26ZM72,25s.13,0,.12,0a2.44,2.44,0,0,0,0-.27,0,0,0,0,0,0,0c0-.16,0-.33,0-.46a2.05,2.05,0,0,0-.13-.54,7.1,7.1,0,0,0-.65-1.35c-.16-.25-.43-.37-.62-.61a.77.77,0,0,0-.65-.4.05.05,0,1,0,0,.1c.41,0,.57.43.82.66a1.86,1.86,0,0,1,.36.44,1.79,1.79,0,0,1-.61-.45c-.64-.76-1.15-.09-1.78.3A26.24,26.24,0,0,1,65.41,24c-.59.25-1.14.51-1.71.79a4.85,4.85,0,0,1-.81.41,0,0,0,0,0,0,0l0,.06a0,0,0,0,0,0,0c0-.18.83-.42,1-.52.91-.45,1.89-.78,2.78-1.27a18.49,18.49,0,0,0,2.32-1.21,3.27,3.27,0,0,0,.46-.35c.57-.52.93.06,1.19.34s.77.27.6.55c0,0,0,.07.06,0a.37.37,0,0,0,.06-.07l.13.27.14.29a5,5,0,0,0-1.25-1.19.87.87,0,0,0-1.14.19,0,0,0,0,0,.06,0c.77-.8,1.47.33,1.93.71.28.24.6.57.46.95a1.57,1.57,0,0,0,.21,1,10.14,10.14,0,0,1,.56,2s.09,0,.08,0a5.46,5.46,0,0,0-.52-2.05C72.07,25,72.06,25,72,25Zm-8.46,9.89c0,.42.19.9.21,1.33l0-.07s0,0,0,0l.08.25a1,1,0,0,1-.21.55l-.2.08a3.54,3.54,0,0,0-.59.25c-.11.07-.22.07-.3.18s0,.09.07.05a1.69,1.69,0,0,1,.6-.27l.18-.07s0,0,0,0A2.28,2.28,0,0,0,63.7,37l.19-.09c.15-.09.14-.24.08-.39,0-.33-.2-1-.27-1.43.16.36.38.71.52,1.08a2.83,2.83,0,0,0,.28.62.88.88,0,0,0-.74.55s0,.09.07.05a1.14,1.14,0,0,1,.86-.42.1.1,0,0,0,.08-.17,4.87,4.87,0,0,1-.59-1.17c-.23-.45-.44-.92-.68-1.37a11.88,11.88,0,0,0-1.92-2.56c-.37-.39-.81-.7-1.17-1.09a1.36,1.36,0,0,1-.32-.8.2.2,0,0,0-.09-.12c-.26-.12-.8,0-.83.34a0,0,0,0,0,0,0l.07,0c.06,0,.11,0,.05-.08s.22-.21.27-.24.38.13.41.3a1.29,1.29,0,0,0,.33.59,7.61,7.61,0,0,0,.87.8,7.18,7.18,0,0,1,1.13,1.35A14.16,14.16,0,0,1,63.59,34.85Zm-.22,1.89a1.28,1.28,0,0,0,.25-1.12,5.83,5.83,0,0,0-.21-1c-.07-.21-.32-.4-.41-.61a0,0,0,0,0,0,0c.09.33.38.58.42.92s.38,1.31,0,1.73A0,0,0,0,0,63.37,36.75ZM51.45,24.19a14.48,14.48,0,0,1,1.39.6c.24.13.4.36.65.45,0,0,.08-.06,0-.08a4.88,4.88,0,0,1-.62-.47,5.43,5.43,0,0,0-1-.45,15.06,15.06,0,0,1-2.39-1.32c-1.31-.81-2.81-1.34-4.06-2.22,0,0-.09,0,0,.07,1.23.91,2.73,1.46,4,2.25A13.92,13.92,0,0,0,51.45,24.19Zm2.16,1.6c0,.29.22.5.09.79s-.65.29-1,.39c-.49.16-1,.37-1.47.52a7.29,7.29,0,0,0-1.21.38,29.22,29.22,0,0,1-3.33,1.37c-.24.08-1.2.37-1,.76a.07.07,0,0,0,.12,0c.28-.36,1-.46,1.37-.59s.94-.33,1.4-.52,1.06-.45,1.58-.69a11.12,11.12,0,0,1,1.56-.47,6.13,6.13,0,0,1,1.5-.44c.25,0,.41-.22.58-.37.46-.39,0-.79-.08-1.19C53.78,25.62,53.59,25.67,53.61,25.79Zm-17,89.36a3.26,3.26,0,0,0-1.28-.58c-.58-.18-1.28-.2-1.67-.73a2,2,0,0,1,.1-2s0-.08-.07-.05a1.68,1.68,0,0,0,.51,2.6c.44.15.89.24,1.33.37a4.71,4.71,0,0,1,1.35.72,1.38,1.38,0,0,0,1.61,0,0,0,0,0,0,0-.05A1.45,1.45,0,0,1,36.61,115.15Zm8.16-81.22a1.09,1.09,0,0,0-.58-.61,0,0,0,0,0,0,0,1.11,1.11,0,0,1,.61.79c0,.16.51.48.64.59.55.48,1.11.93,1.65,1.41l.12.05c-.29-.29-.58-.59-.87-.87C45.83,34.87,45.06,34.59,44.78,33.93Zm-.54,2.13a4,4,0,0,1-1.07-2.31s-.08,0-.08,0A3.7,3.7,0,0,0,44,36.06ZM37,35c.42,0,.84,0,1.27,0s1.13-.32,1.24,0a0,0,0,0,0,.06,0c0-.13-.09-.23-.26-.22-.5,0-.95.19-1.46.21a3.9,3.9,0,0,1-1.45-.36,8.77,8.77,0,0,0-2.21-.13c-1.58-.06-3.16-.2-4.75-.15s-3.26.38-4.9.4a0,0,0,1,0,0,.09c1.45,0,2.88-.24,4.32-.35a32.26,32.26,0,0,1,4.2.07l2,.08a3.68,3.68,0,0,1,1.49.17A2.33,2.33,0,0,0,37,35ZM18.52,37.43c-.39-.39-.18-.66.19-.91s.44-.43.75-.49c.07,0,0-.11,0-.1a2.62,2.62,0,0,0-1.09.72.44.44,0,0,0-.14.54c.15.28.54.78.89.84s.39.19.63.21.29,0,.29.16.12.08.12,0v-.2a.06.06,0,0,0-.06-.06A2.16,2.16,0,0,1,18.52,37.43Zm.41.23c.22.11.12.15.36.11a0,0,0,0,0,0,0c-.11,0-.32,0-.08-.2s.73-.45,1.1-.65c.76-.42,1.55-.79,2.32-1.21,0,0,0-.08,0-.07a20.8,20.8,0,0,0-3.67,1.94A.07.07,0,0,0,18.93,37.66Zm.8.34c-.06,0,0,.12,0,.1A16.59,16.59,0,0,0,23.59,36a0,0,0,0,0,0-.06c-.61.32-1.17.71-1.75,1.09A12.12,12.12,0,0,1,19.74,38Zm6.86-2.64a0,0,0,0,0,0-.08c-.91,0-1.82.87-2.55,1.33a18.32,18.32,0,0,1-1.81.92l-.78.38c-.13.06-.67.4-.7.28a0,0,0,0,0-.08,0,1.23,1.23,0,0,0,0,.14.07.07,0,0,0,.1.08c1-.43,1.91-.89,2.86-1.35S25.49,35.62,26.6,35.36Zm1.72.14h0l0,0,.29-.1a.06.06,0,1,0,0-.12.4.4,0,0,0-.26.12,3.06,3.06,0,0,0-.5.14,7.82,7.82,0,0,0-.85.35l-2.11,1.21a31.94,31.94,0,0,0-3.11,1.55s0,.07,0,.05a19.12,19.12,0,0,1,2.87-1.34C26,36.77,27,36,28.32,35.5Zm-.38,1.12c.56-.25,1.09-.57,1.64-.83a0,0,0,0,0,0,0l.35-.17.29-.1a.06.06,0,1,0,0-.12,1,1,0,0,0-.21.08s0,0,0,0a8.16,8.16,0,0,0-1,.45c-.66.36-1.35.65-2,1a20.28,20.28,0,0,0-2.09,1,4.59,4.59,0,0,1-2.11.9c-.06,0-.07.1,0,.1,1.33-.06,2.09-1,3.29-1.43C26.71,37.21,27.32,36.9,27.93,36.62Zm2.65-.6c.34-.19.74-.46,1-.63a3.09,3.09,0,0,0-.6.52s0,.05,0,0a4.34,4.34,0,0,1,.8-.59s0-.09,0-.07c-1.4.61-2.67,1.46-4.07,2.06a20.2,20.2,0,0,0-3.87,2s0,.09.05.07a33,33,0,0,1,4.39-2.22C29.08,36.85,29.83,36.43,30.58,36Zm-4,2.89c-.06,0,0,.11,0,.08,2.06-.9,4.13-1.79,6.18-2.74,0,0,0-.07,0-.05C30.68,37.07,28.62,38,26.56,38.92ZM38.5,35.51c.05,0,0-.09,0-.08a2.26,2.26,0,0,0-.41.14l.14-.07a8.66,8.66,0,0,0-1.08.38,28.32,28.32,0,0,0-2.81,1.36c-.92.48-1.85.93-2.77,1.4A15.06,15.06,0,0,1,29,40.15s0,0,0,0a4.28,4.28,0,0,0,1.67-.88c.8-.49,1.67-.87,2.52-1.28A57.74,57.74,0,0,1,38.5,35.51Zm.75.39a78.94,78.94,0,0,0-8.41,4.69s0,.11,0,.08c2.75-1.65,5.64-3.07,8.4-4.71A0,0,0,0,0,39.26,35.9ZM39,37a6.34,6.34,0,0,0,.72-.45,1.33,1.33,0,0,0,.32-.25l.11-.1q.26-.39.53,0a0,0,0,0,0,0,0A.84.84,0,0,0,41,36a0,0,0,0,0,0,0,.63.63,0,0,0-.73.11A13.34,13.34,0,0,1,38,37.37c-1.79.86-3.47,2-5.23,2.89-.08,0,0,.17.07.13,1.41-.74,2.79-1.54,4.19-2.31C37.66,37.71,38.33,37.39,39,37Zm2.36-.16a0,0,0,0,0,0-.08c-1.13.55-2.2,1.22-3.29,1.85s-2.21,1.08-3.22,1.8c0,0,0,.08,0,.06,1-.69,2.17-1.14,3.24-1.74S40.28,37.51,41.36,36.88Zm.91,1.44A34.67,34.67,0,0,0,37.49,41c-.06,0,0,.13.09.09,1.48-1.07,3.19-1.77,4.73-2.74A0,0,0,0,0,42.27,38.32Zm.79.15a22.78,22.78,0,0,0-5.26,3c-.07.06,0,.16.1.1a41,41,0,0,1,5.21-3C43.16,38.51,43.11,38.44,43.06,38.46Zm.85.53s0-.12-.06-.08c-.56.35-1.19.6-1.76.92s-1.28.77-1.9,1.17c-.1.07,0,.23.09.16.63-.4,1.26-.8,1.9-1.17A9,9,0,0,0,43.91,39Zm-.33,1.15a15.51,15.51,0,0,0-1.51,1c-.09.07,0,.19.12.12a16.77,16.77,0,0,1,1.65-1.1,5.29,5.29,0,0,0,1.33-.9s0-.1-.07-.06A12.71,12.71,0,0,1,43.58,40.14Zm0,52.15a8.15,8.15,0,0,0,.66-3c0-2.24.12-4.51,0-6.75s-1.34-4.3-2.08-6.44a22.38,22.38,0,0,1-1.32-6.84c0-.47-.22-.94-.2-1.4s.18-1,.2-1.56c.05-1.19.21-2.38.21-3.57a46.28,46.28,0,0,0-.62-5,11.38,11.38,0,0,1,.16-2.42,20,20,0,0,0,0-2.8c-.07-1.73.3-3.4.31-5.11,0-.84,0-1.68,0-2.53a2.73,2.73,0,0,0-.23-1.66c-.06-.09-.22,0-.16.08a2.73,2.73,0,0,1,.19,1.57q0,.81,0,1.62t0,1.82c0,.61-.18,1.21-.2,1.82,0,1.08-.08,2.14,0,3.23a29.8,29.8,0,0,1-.16,3.58,9.15,9.15,0,0,0,.27,2.78,13.51,13.51,0,0,1,.33,3.85,27.11,27.11,0,0,1-.28,3.5,3,3,0,0,0-.13,1.08A6.41,6.41,0,0,1,40.72,70a21.32,21.32,0,0,0,1.39,6.37c.34,1,.76,1.91,1.17,2.86a10.68,10.68,0,0,1,.85,4.15c0,1.1,0,2.2,0,3.3s.07,2.22,0,3.31a13.74,13.74,0,0,1-1,3.25,18.33,18.33,0,0,1-1.54,3.52,14.62,14.62,0,0,1-6.44,6.13c-.69.31-1.41.55-2.1.85l-1.06.46c-.42.18-.91.24-1.32.42A6,6,0,0,1,29,105c-.2,0-.25.32-.25.45s.07,0,.08,0c0-.48,1.3-.52,1.66-.67s1-.32,1.55-.52,1.23-.54,1.85-.79a14.74,14.74,0,0,0,3-1.41c.35-.24.72-.41,1-.68a11.52,11.52,0,0,0,1.2-1.2,17.11,17.11,0,0,0,3.37-4.85C42.87,94.36,43.21,93.32,43.61,92.3Zm2.25-10.48c-.25-1.05-.57-2.07-.81-3.13s-.55-2.26-.81-3.4-.48-2.2-.81-3.3a33.44,33.44,0,0,1-.88-3.67A42.56,42.56,0,0,1,41.94,61c0-1,0-2.1,0-3.15s.18-2.31.2-3.47c0-2.5-.25-5,.18-7.49,0,0-.05-.06-.06,0a39.56,39.56,0,0,0-.24,7c0,1.09-.22,2.17-.22,3.25v3.34a56.61,56.61,0,0,0,.45,6.78c.28,2.41,1.14,4.67,1.61,7a66.69,66.69,0,0,0,1.58,6.62c.3,1,.47,2,.78,3a31.09,31.09,0,0,1,.57,3.2c.23,1.11-.32,2-.46,3.1-.08.57-.14,1.14-.27,1.7a2.62,2.62,0,0,1-1,1.49c-.21.18-.32.67-.46.91a9.11,9.11,0,0,1-.82,1.08,12.69,12.69,0,0,1-1,1.36,1.73,1.73,0,0,0-.53.72.06.06,0,0,0,.11,0c.11-.41.56-.68.77-1.05A9.2,9.2,0,0,1,44,95.19a12.85,12.85,0,0,1,1.75-2.29c.53-.43.58-1.4.67-2a7.34,7.34,0,0,1,.31-1.73A4.18,4.18,0,0,0,47,87.71a13.4,13.4,0,0,0-.4-2.59C46.46,84,46.13,82.92,45.86,81.82Zm-2.51,22.7a1.38,1.38,0,0,0,.92-.52,7,7,0,0,1,1.65-1.12,13.65,13.65,0,0,0,1.29-.92,5.44,5.44,0,0,1,1.42-.9s0,0,0,0a4.93,4.93,0,0,0-2.13,1.37c-.51.44-1.18.68-1.72,1.08s-.86.91-1.44,1C43.27,104.44,43.3,104.52,43.35,104.52Zm10.8-33.68c-.41-1.22-.62-2.51-1.12-3.7A14.49,14.49,0,0,1,52,63c-.15-1.27-.45-2.53-.57-3.81,0,0-.08-.05-.08,0,0,1,.32,2,.38,3A15.06,15.06,0,0,0,52.36,66c.19.57.5,1.1.71,1.67s.39,1.28.56,1.92c.36,1.35.88,2.64,1.35,4a19.34,19.34,0,0,1,1,3.91,30.31,30.31,0,0,1,.18,4.33A28,28,0,0,1,56,86.1a8.3,8.3,0,0,0-.17,1.47,4.06,4.06,0,0,1-.61,1.94s0,0,0,0a12.93,12.93,0,0,0,.55-1.17A10.06,10.06,0,0,0,56,86.63a19.07,19.07,0,0,0,.35-3.77,24.51,24.51,0,0,0-.76-8.05C55.11,73.48,54.6,72.17,54.15,70.84ZM51.43,49.93a6.47,6.47,0,0,0,.2-2.24,0,0,0,0,0-.07,0,8.32,8.32,0,0,1-.23,2.21C51.31,50,51.41,50,51.43,49.93Zm.08-3.65c0,.1.16.1.16,0V43.56a13.22,13.22,0,0,0-.25-1.93s-.09,0-.09,0c0,.64.18,1.27.18,1.92Zm-28.67,72a7.68,7.68,0,0,1,.72-.29c.12-.06.05-.11.18-.12a.05.05,0,1,0,0-.11h-.13a.06.06,0,0,0-.06,0c0,.08-.28.08-.35.11a4,4,0,0,0-.66.37c-.44.3-.65.75-1.09,1.05a0,0,0,0,0,0,0,1.48,1.48,0,0,0,.57-.42A3.3,3.3,0,0,1,22.84,118.25Zm-1.68,4.56a2.76,2.76,0,0,0,.54.66.92.92,0,0,0,.71.13,0,0,0,0,0,0-.06c-.24,0-.5,0-.68-.16a2.81,2.81,0,0,1-.5-.59S21.14,122.77,21.16,122.81Zm26.66,2.31c1.34-.75,2.86-1.15,3.83-2.39.34-.43.94-.93,1-1.49a3.35,3.35,0,0,0-.21-1.76s0,0,0,0a5.43,5.43,0,0,1,.14,1.5c0,.67-.86,1.54-1.35,2-.94,1-2.29,1.32-3.44,2A.05.05,0,0,0,47.82,125.12Zm3.29-7s0,0,0,0a2.06,2.06,0,0,1-.63-.41c-.1-.1-.13-.17-.29-.16a0,0,0,1,0,0,0c.19,0,.3.21.45.33A2.49,2.49,0,0,0,51.11,118.16Zm-1.8-.28a0,0,0,0,0,0,0l-.21,0a0,0,0,0,0,0,.08.72.72,0,0,0,.37.26c.82.27.94.73,1.38,1.3.88,1.16.31,2.25-.43,3.29,0,0,0,.07.06,0a2.79,2.79,0,0,0,.84-2.91,5.11,5.11,0,0,0-.5-.71c-.16-.22-.2-.53-.42-.72a1.09,1.09,0,0,0-.43-.27C49.8,118.13,48.89,117.95,49.32,117.88Zm.4,3.84c.2-.1.13-.32.12-.49s-.05,0-.05,0,.08.35-.09.47C49.69,121.7,49.7,121.73,49.72,121.72Zm-.58,1.34a0,0,0,1,0-.07,0c0,.08-.08.11-.09.19s0,0,0,0S49.13,123.14,49.14,123.06Zm-1.7.6c.47-.59,1.13-1,1.23-1.82a3,3,0,0,0-.25-2,0,0,0,0,0,0,0,8.05,8.05,0,0,1,.26,1c0,.28-.09.5-.06.79.09.84-.75,1.39-1.22,2A.06.06,0,1,0,47.44,123.66Zm.47-4.28s0,0,0,0,.27.19.39.3.09,0,.05,0S48,119.47,47.91,119.37Zm-2.13-1.28h-.1a.06.06,0,0,0,0,.1c.78.66,1.6,1.18,1.61,2.31,0,.67-.23,1.24-.28,1.89,0,0,0,0,0,0a5.61,5.61,0,0,0,.26-2.42,2.33,2.33,0,0,0-.54-1.09,3.54,3.54,0,0,0-.41-.32c-.08-.06-.69-.34-.53-.36S45.83,118.1,45.78,118.09Zm-.22,5.25a0,0,0,0,0,0,0v-.1s0,0,0,0Zm1.25-2.11a0,0,0,0,0,0,0,3,3,0,0,1-.7,1.22,5.73,5.73,0,0,1-1,.78,0,0,0,0,0,0,.06A3.3,3.3,0,0,0,46.81,121.23Zm-26.07-2a5.11,5.11,0,0,0-.39.6s0,0,.06,0a5.08,5.08,0,0,0,.42-.57A.05.05,0,0,0,20.74,119.27Zm-.68,4c.15.15.25.33.41.48s0,0,0,0-.25-.34-.4-.49S20,123.24,20.06,123.27Zm5.57-6.06a0,0,0,0,0,0-.06h-.1s0,0,0,0h-.06a7.51,7.51,0,0,1-.76.61,4.28,4.28,0,0,0-1.34,1.75,3.34,3.34,0,0,0-.1,1.77c.09.54.71.91,1.15,1.17a0,0,0,0,0,0,0c-.67-.42-1.15-.86-1.09-1.71a3.6,3.6,0,0,1,.42-1.68A5.05,5.05,0,0,1,25.64,117.21Zm11.55-9.93a.24.24,0,1,0,0,.48c.2,0,.7.07.71-.24S37.39,107.28,37.19,107.28ZM35.32,79.07c.07,0,0-.1,0-.11a22.18,22.18,0,0,0-3,.25.06.06,0,1,0,0,.13A22.3,22.3,0,0,0,35.32,79.07Zm25.15-2.94A4.51,4.51,0,0,0,60,74.83a16.57,16.57,0,0,1-1.1-2.65c-.24-.7-.38-1.41-.64-2.11s-.62-1.62-.87-2.45c-.19-.65-.5-1.24-.68-1.89s-.1-1.41-.24-2.09a5.24,5.24,0,0,0-.51-1.38c-.22-.42-.32-1.16-.69-1.51a2.4,2.4,0,0,1-.8-1.52s-.23-.37-.45-.68-.2-.66-.31-1a12.12,12.12,0,0,0-.31-1.21c-.26-.46-.26-.35-.25-.74a.89.89,0,0,0,0-.3A10.12,10.12,0,0,1,52,50.77c0-.08-.13-.08-.13,0a20.24,20.24,0,0,0,.55,3.8c.07.41.52.68.52,1.09s.27.59.3,1a6.68,6.68,0,0,0,.53,1.59,2.14,2.14,0,0,0,.12.26c-.32-.46-.55-.76.18.33a2.08,2.08,0,0,1,.27.63,2,2,0,0,0,.33.94c.63.61.69,1.26,1.12,1.94.77,1.23.42,2.67.85,4a41.82,41.82,0,0,0,1.53,4.2c.69,1.51,1,3.16,1.77,4.64a5.64,5.64,0,0,1,.53,2.6c0,.69.23,1.36.27,2.05,0,.08.14.08.13,0a9.83,9.83,0,0,0-.21-1.46C60.55,77.6,60.61,76.85,60.46,76.12ZM61,83.38c0,.26,0,.52,0,.78,0,.06.09,0,.1,0,0-.25,0-.51,0-.77C61.18,83.29,61,83.28,61,83.38ZM53.27,61.56s.07,0,.07,0A11.27,11.27,0,0,0,53,59.46a6,6,0,0,0-.69-2c0-.07-.16,0-.11.06a5.69,5.69,0,0,1,.67,2C53,60.17,53.19,60.87,53.27,61.56Zm6.81,16.59a10.55,10.55,0,0,0-.53-2.52,27.73,27.73,0,0,0-1.71-4.51c-.16-.32-.22-.85-.41-1.15s-.43-.73-.63-1.11a21.87,21.87,0,0,1-1.24-3c0-.12-.24-.07-.2,0,.26.73.54,1.46.85,2.18s.91,1.65,1.2,2.54a18.25,18.25,0,0,0,.9,1.87,26.61,26.61,0,0,1,1,2.84c1.21,3.7.71,7.78,1,11.6a0,0,0,0,0,.07,0,49.83,49.83,0,0,0-.21-6C60.06,80,60.12,79.07,60.08,78.15Zm-.37,12.64c-.23.23-.32.54-.54.77a.05.05,0,0,0,.08.07c.23-.23.32-.54.54-.77A.05.05,0,0,0,59.72,90.79Zm-44.59-87a10.55,10.55,0,0,0-.22-2.63l-.24,0c0,.27.06.53.08.8A9.14,9.14,0,0,0,15,3.76.08.08,0,0,0,15.13,3.74ZM13.79,2.17A3.29,3.29,0,0,0,13.09.9C13,.83,12.91.93,13,1s.25.25.27.39a.58.58,0,0,0,.12.25,2.64,2.64,0,0,1,.17.37l0,0a.86.86,0,0,1-.25.15c.07.1.13.19.18.28a14.92,14.92,0,0,1,.82,1.38.11.11,0,0,0,.19,0c.07-.43-.28-.81-.53-1.14a4.48,4.48,0,0,1-.29-.47.46.46,0,0,0,.08.09C13.76,2.29,13.81,2.22,13.79,2.17ZM3.27,8.24C2.75,8.61,2,9.37,1.33,9.42a.09.09,0,0,0-.1.09l0,.17s0,.09.06.06c.25-.17.55-.15.83-.3.5-.26,1.08-1.16,1.67-1.19.79-.05,5.81-3.32,6.44-3.7C11.12,4,12.08,3.48,13,3c0,0,0,0,0,0-1.49.66-2.82,1.53-4.27,2.24C8.32,5.41,3.65,8,3.27,8.24Z"/></svg>