<svg id="Warstwa_1" data-name="Warstwa 1" xmlns="http://www.w3.org/2000/svg" viewBox="0 0 91.01 122.01"><defs><style>.cls-1{fill:white;}</style></defs><title>SBR_bp_happy hours0</title><path class="cls-1" d="M91,13.88h-.08l-.09.17c-.17-.82-.28-1.64-.5-2.43A14.53,14.53,0,0,0,87,5.71,15.8,15.8,0,0,0,77.47.37,29.86,29.86,0,0,0,73.54,0,10,10,0,0,0,70.1.46c-.45.16-.95.16-1.41.29a7.8,7.8,0,0,0-1.05.41c-1,.44-2.06.83-3,1.35a14.57,14.57,0,0,0-1.79,1.3A7.64,7.64,0,0,0,60.7,6.25a8.59,8.59,0,0,0-1,3.24,13.58,13.58,0,0,0,.2,4c.11.58.26,1.14.4,1.77-.2,0-.35,0-.5,0-1.09-.16-2.17-.31-3.26-.49L50,13.69c-1-.17-2.09-.32-3.14-.47a19.92,19.92,0,0,1-2.52-.38,14.14,14.14,0,0,0-3-.5c-1-.06-2-.16-2.94-.2a32.51,32.51,0,0,0-3.73-.05c-1.31.1-2.61.39-3.91.61a19.41,19.41,0,0,0-5.51,1.66C24,15,22.68,15.6,21.36,16.21c-.1,0-.24,0-.36,0l.2-.3s0,0,.07,0c1.89-.87,3.79-1.73,5.68-2.62a20.29,20.29,0,0,0,2.41-1.29,1.68,1.68,0,0,0,.49-2.61,11,11,0,0,0-1.77-1.84A15.39,15.39,0,0,0,17.5,4.2l-.23,0-2.15.35a12,12,0,0,0-1.74.35A24.92,24.92,0,0,0,10.65,6,12.33,12.33,0,0,0,6,9.7a8.17,8.17,0,0,0-1.79,5.52,40.18,40.18,0,0,0,.57,4.28,7.56,7.56,0,0,0,1,2.72,3.69,3.69,0,0,0,2.89,2,3.8,3.8,0,0,0,2.59-.71c1.08-.77,2.09-1.62,3.14-2.44l1-.78c-.37.35-.74.71-1.12,1.06A39.07,39.07,0,0,0,9,27.19,41.18,41.18,0,0,0,4.44,35.1c-.72,1.65-1.37,3.34-2,5a37.72,37.72,0,0,0-1.76,7C.45,49.09.18,51,.08,52.91A62.5,62.5,0,0,0,.42,63c.1,1,.21,2,.39,3,.31,1.67.66,3.34,1,5,.26,1.14.57,2.26.88,3.38.21.76.41,1.51.67,2.25a46.22,46.22,0,0,0,2.93,6.61,38.9,38.9,0,0,0,5.74,8,34.3,34.3,0,0,0,6.16,5.25.29.29,0,0,1,.12.45A5.63,5.63,0,0,0,17.89,98c-.36,1.42-.69,2.85-1,4.28a2.5,2.5,0,0,1-2.62,2.09h-2a4,4,0,0,0-1.92.5A2.1,2.1,0,0,0,9,107c0,.41-.1.47-.46.48-1.36,0-2.72.1-4.08.15-.31,0-.52.11-.48.46s.31.31.54.3L9,108.29a.62.62,0,0,1,.43.11c.32.35.61.73.93,1.13a2.26,2.26,0,0,1-.29.05l-5.85.3c-.9,0-1.81.06-2.71.09-.25,0-.5.07-.49.38s.25.38.53.37c.86,0,1.73,0,2.59-.07A96.33,96.33,0,0,1,15,110.39c1.32.09,2.64.14,4,.13a4.73,4.73,0,0,0,1.64-.33,3.1,3.1,0,0,0,2-2.18,4.08,4.08,0,0,0,.13-2,10,10,0,0,1-.16-2.16,3.48,3.48,0,0,1,.24-1.43,24.58,24.58,0,0,1,1.35-2.33.37.37,0,0,1,.33-.1,8,8,0,0,1,1.1.39,5.19,5.19,0,0,0,1.94.66c1,0,2.06.17,3.08.29s2,.28,3,.38c.75.08,1.51.07,2.27.13,1.18.1,2.36.25,3.54.36.3,0,.6,0,.9,0q2.48.17,5,.37c1,.08,2.07.2,3.11.29s1.91.12,2.86.18c1.61.1,3.22.18,4.82.3a6.17,6.17,0,0,0,2.21-.16c1.4-.41,2.8-.85,4.2-1.25a.5.5,0,0,1,.44.15,7.58,7.58,0,0,1,.63,1.15A5.87,5.87,0,0,1,64,107c-.27,1.11-.59,2.22-.83,3.34-.33,1.58-.3,3.09,1,4.29.2.18.12.28-.09.35-1.32.45-2.64.92-4,1.36-2.05.68-4.11,1.37-6.17,2-1.27.4-2.56.73-3.83,1.11a.63.63,0,0,0-.39.39c0,.27.21.39.44.38a3.3,3.3,0,0,0,.84-.15q1.83-.57,3.65-1.16l4.49-1.48c1.1-.36,2.21-.72,3.3-1.1.86-.3,1.71-.62,2.56-.92a.52.52,0,0,1,.33,0,15.81,15.81,0,0,0,4.21,1,4.8,4.8,0,0,1,.63.17v.1c-.52.15-1.06.26-1.57.45-1.61.6-3.23,1.18-4.82,1.85-1.26.53-2.47,1.18-3.7,1.78-.22.11-.43.25-.26.54s.4.23.64.1.57-.31.87-.44l4.07-1.72c1.14-.48,2.28-1,3.44-1.41.87-.32,1.77-.55,2.66-.8a1.68,1.68,0,0,1,.68-.1,8.2,8.2,0,0,0,3.2,0c2-.48,2.29-1.81,1.94-3.39a4,4,0,0,0-2-2.44,15.39,15.39,0,0,0-4.73-1.7c-.36-.08-.55-.23-.58-.6-.16-1.89-.35-3.77-.51-5.66a10.06,10.06,0,0,0-.93-3.45c-.17-.36-.11-.52.22-.71A30.14,30.14,0,0,0,75.13,94a38.36,38.36,0,0,0,6.71-9.52c1.1-2.16,2.12-4.37,3-6.6a50.68,50.68,0,0,0,1.77-5.23c.45-1.54.8-3.12,1.09-4.7.33-1.78.61-3.58.8-5.39a49.85,49.85,0,0,0,.17-8.27q-.11-1.87-.34-3.74c-.13-1.06-.32-2.12-.52-3.17s-.41-2.13-.71-3.17c-.45-1.57-1-3.11-1.44-4.69a5.93,5.93,0,0,0-.44-1.15c-.58-1.16-1.06-2.37-1.63-3.54-.34-.69-.75-1.35-1.14-2-.58-1-1.17-2-1.77-3-.11-.19-.1-.28.12-.33s.2,0,.27-.05a2.16,2.16,0,0,0,.28-.32A1.53,1.53,0,0,0,81,29a.65.65,0,0,0-.35,0,.57.57,0,0,1-.78-.32,2.86,2.86,0,0,1-.11-.3c.11,0,.22-.07.33-.08.83-.13,1.67-.19,2.47-.38a9.69,9.69,0,0,0,5.26-3.32A12.25,12.25,0,0,0,90.5,19a6.78,6.78,0,0,1,.24-1.4A3.05,3.05,0,0,0,91,16.4q0-.5,0-1C91,14.89,91,14.39,91,13.88Zm-70.84,1a2.4,2.4,0,0,1,1.55-1.49A7.46,7.46,0,0,1,20.12,14.86ZM22,14a3.29,3.29,0,0,1,2-1.76C23.31,12.87,23,13.72,22,14ZM10.3,21.78a1.44,1.44,0,0,1-1.68,1.11c-.26,0-.32-.15-.22-.37a6.94,6.94,0,0,1,1.72-2.46c.07-.06.17-.11.2-.18a2.09,2.09,0,0,0,.06-.42c-.14,0-.34,0-.41,0A21.76,21.76,0,0,0,8.47,21.2a9.48,9.48,0,0,0-.71,1.31c-.29-.1-.42-.18-.27-.55a14.82,14.82,0,0,1,1.83-2.78,9.31,9.31,0,0,1,.86-.84,1.29,1.29,0,0,0,.17-.4c-.16,0-.39-.13-.48-.06a5.3,5.3,0,0,0-1,.93c-.66.87-1.27,1.78-2,2.75a5.65,5.65,0,0,0-.33-.76c-.21-.34,0-.49.2-.72.44-.53.82-1.09,1.23-1.64a9.35,9.35,0,0,1,2.4-2.25s.06,0,.06,0l.17-.41c-.16,0-.38-.12-.47-.06a9,9,0,0,0-1.36,1.1c-.6.64-1.13,1.34-1.69,2a10.1,10.1,0,0,1-.78.91c-.19-.47-.42-.86-.16-1.39A11.64,11.64,0,0,1,8.14,15.7c.11-.12.34-.15.5-.24s.26-.17.26-.25a.38.38,0,0,0-.23-.28.88.88,0,0,0-.93.37c-.55.64-1.07,1.3-1.6,2a1.39,1.39,0,0,1-.27.29c-.09-.33-.22-.63.06-.95.57-.65,1.11-1.34,1.7-2a12.59,12.59,0,0,1,1.06-.84,1.52,1.52,0,0,0,.25-.41c-.17,0-.41-.15-.51-.08A15.12,15.12,0,0,0,7,14.5c-.37.35-.67.76-1,1.14a3.71,3.71,0,0,1-.32.28c0-.66-.15-1.19.39-1.64s.76-.81,1.17-1.2c.21-.2.49-.34.72-.54a1.53,1.53,0,0,0,.24-.41c-.17,0-.41-.13-.51-.05-.49.36-.94.77-1.4,1.17a4.58,4.58,0,0,0-.36.39l-.13-.06a1.45,1.45,0,0,1,.2-.5c.51-.53,1-1,1.59-1.55.11-.1.3-.12.4-.22s.28-.31.26-.43-.29-.23-.47-.11-.65.47-1,.71a3.35,3.35,0,0,0-.26.24l-.08-.06a1.71,1.71,0,0,1,.11-.3,9.56,9.56,0,0,1,3.79-3.61,37.64,37.64,0,0,1,3.59-1.62,8,8,0,0,1,1.6-.34c.52-.09,1.05-.17,1.58-.23a3.69,3.69,0,0,1,.74,0l3.23.28a.55.55,0,0,1,.19.09c-1.1.45-2.2.88-3.28,1.35a6,6,0,0,0-.93.57c-.18.12-.28.32-.1.49a.47.47,0,0,0,.43,0,12,12,0,0,1,4.11-1.74,3.47,3.47,0,0,0,.64-.18c.69-.31,1.25.1,1.85.28l0,.12-1,.29L17.67,8.63c-.21.06-.39.2-.27.41a.5.5,0,0,0,.45.11c1.44-.42,2.87-.89,4.31-1.31.9-.26,1.82-.46,2.74-.67a.66.66,0,0,1,.41.09,13.06,13.06,0,0,1,3.3,2.52.6.6,0,0,1-.1,1c-.6.38-1.25.69-1.89,1s-1.33.65-2,1a.61.61,0,0,1-.39.06,3.32,3.32,0,0,0,.27-.37A2.63,2.63,0,0,1,26,11.26a.67.67,0,0,0,.35-.48c0-.27-.32-.43-.61-.31a56,56,0,0,0-6.88,3.35,44.62,44.62,0,0,0-6.19,4.36c-.75.63-1.5,1.25-2.22,1.89a3.64,3.64,0,0,0-.56.74C9.5,21.39,9.61,21.64,10.3,21.78Zm5.87-2.21q.57-.53,1.16-1c.06,0,.18,0,.27,0s0,.16-.06.19L15.6,20.16C15.79,20,16,19.76,16.17,19.58Zm-.24-1.77c.1-.19.19-.39.31-.57s.15,0,.23,0,0,.19,0,.24a5.66,5.66,0,0,1-.44.43Zm1.44-1.63c-.2-.21-.18-.32,0-.48.81-.58.8-.58,1.47.17.25.28.51.55.77.83a3.16,3.16,0,0,1,.22.31l.09.13a3.24,3.24,0,0,0-.32.15l-.55.36a.28.28,0,0,1-.43-.07C18.24,17.1,17.82,16.63,17.37,16.17Zm-6.32,5.75c.32-.54.6-1,.86-1.46.11-.19.17-.4.28-.59a2.74,2.74,0,0,1,.45-.61c.32-.29.67-.55,1-.84C13.7,19.14,11.86,21.62,11.05,21.93Zm2.71-2.12a1.41,1.41,0,0,1,.07-.26c.17-.32.35-.63.52-.95.05-.1.13-.24.1-.32-.21-.47.16-.63.43-.83l.7-.5A5.81,5.81,0,0,1,13.77,19.81Zm7.47,87.93-.21,0a7.6,7.6,0,0,1-.49-.71c-.1-.18-.21-.36-.4-.23a.47.47,0,0,0-.12.45,2.9,2.9,0,0,0,.56.78c.22.22.21.35,0,.51a.78.78,0,0,1-1-.06,7.81,7.81,0,0,1-.58-1,2.51,2.51,0,0,0-.36-.37c-.06.15-.22.32-.18.44a8.63,8.63,0,0,0,.48,1.08,3.4,3.4,0,0,0,.28.39,5.25,5.25,0,0,1-1.54,0c-.26-.09-.38-.57-.55-.88a2,2,0,0,1-.13-.44c0-.2-.16-.38-.37-.25a.5.5,0,0,0-.17.43,4.66,4.66,0,0,0,.27.76c0,.08,0,.17.1.36a11,11,0,0,1-1.36-.11c-.11,0-.2-.31-.25-.49s0-.42-.1-.61-.18-.18-.28-.28c-.1.11-.27.21-.27.32a3.2,3.2,0,0,0,.12.76c.06.25,0,.35-.29.35-.51,0-.7-.11-.88-.6-.11-.3-.13-.63-.24-.93-.05-.14-.21-.24-.32-.36-.08.14-.22.27-.23.42a2,2,0,0,0,.09.65,6.33,6.33,0,0,0,.22.61,1.05,1.05,0,0,1-1.3-.91,2.47,2.47,0,0,0-.11-.53c0-.1-.2-.16-.3-.24-.09.11-.21.21-.24.34a1.82,1.82,0,0,0,.06.54,1.23,1.23,0,0,1-.61-.92.7.7,0,0,1,.46-.74,6,6,0,0,1,2.41-.46c.39,0,.79,0,1.18,0a3.54,3.54,0,0,0,3.74-2.89c.17-.63.26-1.28.39-1.93a3.16,3.16,0,0,1,.16-.41,17.62,17.62,0,0,0,1.06,1.58A12.54,12.54,0,0,0,21,103.23a.54.54,0,0,1,.19.3c.07,1,.15,1.92.18,2.89A10.5,10.5,0,0,1,21.24,107.74ZM19.15,99c.4.78.74,1.54,1.16,2.24a7.76,7.76,0,0,0,.88.95,1.2,1.2,0,0,1,.14.41c-.13,0-.3,0-.39,0a2.7,2.7,0,0,1-.6-.6c-.46-.7-.89-1.42-1.33-2.14A.63.63,0,0,1,19.15,99Zm2.45,2.6c-.23.21-.44,0-.54-.19-.44-.82-.85-1.65-1.26-2.48-.14-.29-.23-.6-.37-1l.34-.4c.13.12.32.21.37.35a9.48,9.48,0,0,0,1.58,3A.47.47,0,0,1,21.6,101.6Zm.45-1.09-1.24-2.22c.41,0,.61.13.71.38a2.3,2.3,0,0,0,.8,1.16C22.58,100,22.52,100.18,22.05,100.51Zm.74-1c-.14-.09-.26-.2-.39-.3l.15-.18.4.31A1.45,1.45,0,0,1,22.79,99.52Zm57.41-68a1.69,1.69,0,0,1-.25.1c-1.58.27-3.17.53-4.75.82a32.87,32.87,0,0,1-6.56.89c-.19,0-.35,0-.35.25s.16.28.37.29a20.87,20.87,0,0,0,4.56-.48c2.15-.42,4.32-.81,6.47-1.22a1.06,1.06,0,0,1,1.3.65c.46.89.5.85-.5,1-2,.37-4,.77-6,1.15a12.82,12.82,0,0,1-3.46.41c-.44,0-.87-.16-1.31-.22a1.16,1.16,0,0,0-.42.12c.09.14.16.38.27.39a9.44,9.44,0,0,0,2.2.22c1.36-.13,2.72-.39,4.07-.62s2.85-.52,4.28-.79a12.83,12.83,0,0,0,1.33-.33c.24-.07.36,0,.46.18.31.7.64,1.38.95,2.08.12.27,0,.44-.29.48l-3.85.51c-1,.13-2,.29-3,.38-.79.07-1.59.07-2.39.09-.2,0-.43,0-.44.26s.21.3.42.29c1.42-.09,2.85-.17,4.26-.29,1-.08,1.92-.23,2.88-.37s1.62-.25,2.43-.42c.26-.05.36,0,.45.22L84,39.21a7.73,7.73,0,0,1-.74.29c-1,.27-1.93.54-2.91.77a8.12,8.12,0,0,1-3.62.16c-.22,0-.44,0-.5.23s.19.33.37.33a23.07,23.07,0,0,0,2.9,0A17.57,17.57,0,0,0,82,40.35l1.84-.5a2.65,2.65,0,0,0,.39-.2l.55,1.52c-.64.2-1.21.4-1.8.55s-1,.18-1.42.31c-.14,0-.23.21-.35.33.13.07.28.22.4.2.62-.1,1.23-.24,1.84-.39.4-.1.8-.25,1.19-.39.18-.06.29,0,.35.17.33,1.23.7,2.45,1,3.69.24.94.43,1.88.61,2.83s.29,1.65.38,2.48a49.5,49.5,0,0,1,.29,9.61c-.12,1.45-.22,2.91-.43,4.35s-.49,3-.84,4.48c-.45,1.86-.93,3.72-1.54,5.54s-1.34,3.54-2.06,5.29a44.54,44.54,0,0,1-3.66,6.91,35.43,35.43,0,0,1-6,7.26,30.36,30.36,0,0,1-4.55,3.35c-.29.18-.41.14-.57-.14A7.7,7.7,0,0,0,65.18,95a1.34,1.34,0,0,0-.75-.22.67.67,0,0,0-.59.6.69.69,0,0,0,.36.76,6.71,6.71,0,0,1,2.15,2.27,14,14,0,0,1,1.47,3.44,18.23,18.23,0,0,1,.52,4c.07,1.22.22,2.44.35,3.65,0,.25,0,.38-.25.46-.41.13-.81.28-1.21.44-.1,0-.17.15-.25.23.11,0,.23.15.32.13.42-.13.83-.31,1.25-.43.14,0,.32.06.48.09-.1.11-.17.25-.29.31-.28.14-.58.22-.86.36-.1.05-.15.2-.22.3.12,0,.26.09.36.06.52-.2,1-.43,1.56-.63a1,1,0,0,1,.52-.06,16,16,0,0,1,4.12,1.34A3.06,3.06,0,0,1,76,113.93c.23.88-.06,1.51-1.07,1.61a12.33,12.33,0,0,1-3.51-.27l-3.35-.63a5.75,5.75,0,0,1-2.85-1.19,2.1,2.1,0,0,1-.72-1.45,7.77,7.77,0,0,1,.6-3.21,8.2,8.2,0,0,0,.42-4.14,9.57,9.57,0,0,0-1.6-3.74c-.63-.92-1.32-1.79-2-2.68a.7.7,0,0,0-1-.25.79.79,0,0,0-.16,1.16c.29.38.6.75.9,1.12.08.1.15.2.22.31-.24.25-.46.12-.66,0a15.7,15.7,0,0,1-3.67-2.87,1.55,1.55,0,0,0-.33-.33,1.51,1.51,0,0,0-.45-.09c0,.16,0,.39,0,.48a14.67,14.67,0,0,0,1.43,1.38c.74.59,1.53,1.13,2.29,1.69a1.08,1.08,0,0,1,.14.16.81.81,0,0,1-.2.14c-.58.16-1.15.33-1.74.47a.68.68,0,0,1-.44-.1A17,17,0,0,1,54,98a1.71,1.71,0,0,0-.29-.31c-.09-.06-.3-.11-.33-.07a.55.55,0,0,0-.09.38.64.64,0,0,0,.19.28,17,17,0,0,0,3.89,3.29.63.63,0,0,1,.25.3A4.32,4.32,0,0,1,57,102a5.52,5.52,0,0,1-3.78-1.55c-.65-.53-1.21-1.17-1.82-1.76a1.27,1.27,0,0,0-.37-.28.37.37,0,0,0-.33,0c-.06.08,0,.23,0,.35s0,.06.07.09c.82.78,1.63,1.56,2.46,2.33a6.26,6.26,0,0,0,.66.48l0,.1h-.33c-.75,0-1.49-.11-2.24-.13a2.15,2.15,0,0,1-1.16-.4c-.69-.46-1.39-.92-2.1-1.35-.34-.21-.73-.35-1.09-.52-.21-.1-.45-.14-.51.12,0,.11.15.32.29.41.86.5,1.74,1,2.61,1.47,0,0,0,0,0,.1a.56.56,0,0,1-.19.08A7,7,0,0,1,45,100.42a12.61,12.61,0,0,0-1.24-.69c-.2-.1-.44-.1-.47.13s.18.34.34.42c.47.24,1,.42,1.45.64a1.94,1.94,0,0,1,.37.33c-.51.24-.89,0-1.25-.15-1.16-.42-2.31-.89-3.46-1.36-.2-.08-.4-.11-.44.11a.52.52,0,0,0,.26.42c.48.21,1,.36,1.47.54a1.62,1.62,0,0,1,.2.1s0,.09,0,.09c-1,0-2.13.13-3-.58-.17-.13-.32-.31-.49-.44a.74.74,0,0,0-.28-.07c0,.1-.06.25,0,.31a6.33,6.33,0,0,0,.57.55,2.63,2.63,0,0,1-2.14-.55,2.21,2.21,0,0,0-.51-.29l.19.52s0,0,0,.12a1.63,1.63,0,0,1-.28,0L32,100.18l-2.91-.32a7.24,7.24,0,0,1-1.48-.13c-.87-.29-1.72-.68-2.56-1a37.23,37.23,0,0,1-9.26-5.75,34.36,34.36,0,0,1-5.32-5.67,41,41,0,0,1-5.17-9.42c-.48-1.21-.9-2.44-1.3-3.68-.25-.77-.47-1.55-.65-2.34-.31-1.31-.61-2.62-.86-3.94S2.09,65.46,2,64.24c-.21-2.49-.42-5-.51-7.48A39.68,39.68,0,0,1,1.92,49c.27-1.72.53-3.44,1-5.12s1-3.5,1.63-5.23a40.35,40.35,0,0,1,2.69-6,36.78,36.78,0,0,1,8.25-10.49,39.17,39.17,0,0,1,6.45-4.65,25.39,25.39,0,0,1,5.83-2.54c1.56-.42,3.13-.83,4.72-1.13s3.26-.48,4.9-.67a4.34,4.34,0,0,1,1.2.15c1.74.31,3.47.65,5.21.93,1.36.22,2.73.34,4.08.55,1.6.25,3.2.54,4.79.81l3.68.58,2.68.42c.63.09,1.27.19,1.9.26a.69.69,0,0,1,.57.38c.62,1,1.27,2,1.93,3,.17.25.09.38-.11.54a3.45,3.45,0,0,0-1.19,1.78,2,2,0,0,0,.16,1.61,3,3,0,0,0,2,1.73,2.31,2.31,0,0,0,1.78-.55,11,11,0,0,0,1-.82c.3-.27.58-.37.91-.06a3.63,3.63,0,0,0,.4.28v.12a2.78,2.78,0,0,1-.48.12c-.3,0-.61,0-.9,0s-.28.16-.42.24c.14.11.28.3.41.3a7.86,7.86,0,0,0,1.56-.12,1.38,1.38,0,0,1,1.25.18,5.42,5.42,0,0,0,.84.45l0,.11c-.55.05-1.1.13-1.66.15-1,0-2,0-3,0-.08,0-.18,0-.23,0a2.53,2.53,0,0,0-.32.27c.11.09.2.23.32.26a1.84,1.84,0,0,0,.51,0,29.47,29.47,0,0,0,5.33-.25c.25,0,.54.15.81.24l2.79.9a1.11,1.11,0,0,1,.19.13,1.54,1.54,0,0,1-.33.16,31.52,31.52,0,0,1-8.59.55l-1.29-.13c-.23,0-.48-.07-.52.24s.23.32.42.34a24.61,24.61,0,0,0,5.57.14c1.56-.17,3.11-.4,4.67-.63.52-.08,1-.23,1.53-.34.13,0,.26,0,.39,0,.71-.08.94.5,1.27.92,0,0-.1.25-.19.27-.64.15-1.28.26-1.92.39l-2.84.6a14.48,14.48,0,0,1-5.21.44c-.32-.05-.64-.16-1-.19a.49.49,0,0,0-.41.17c-.1.22.09.3.28.36a7.57,7.57,0,0,0,3.31.25c1.67-.26,3.32-.58,5-.89,1.08-.2,2.15-.43,3.23-.64.1,0,.27,0,.32.06C79.47,30.46,79.82,31,80.2,31.56ZM64.73,24.1a.41.41,0,0,1,.1.33c0,.07-.19.14-.28.14a1.48,1.48,0,0,1-1-1.76C63.91,23.23,64.33,23.66,64.73,24.1ZM64,22.21c0-.11.08-.26.13-.37l1.7,1.69c.14.14.15.26,0,.39l-.28.2a7,7,0,0,0-.59-.54A2.34,2.34,0,0,1,64,22.21Zm25.41-5.74a.45.45,0,0,1-.29.32,22.72,22.72,0,0,1-5.16.36,14,14,0,0,1-5.73-1.6c-.67-.35-1.32-.73-2-1.09,0,0-.1-.07-.14-.06l-.44.08c.05.14.07.35.17.41a23.36,23.36,0,0,0,4.93,2.27,16.79,16.79,0,0,0,8.19.22c.28-.05.41,0,.33.31-.22.86-.43,1.72-.64,2.58-.07.28-.24.36-.52.34-1.62-.12-3.24-.22-4.86-.36a28.1,28.1,0,0,1-7.77-2.06,11.81,11.81,0,0,1-1.84-1.08c-.17-.11-.35-.28-.5-.06a.49.49,0,0,0,.12.47,12.46,12.46,0,0,0,2,1.17,34.18,34.18,0,0,0,4.25,1.46,35.56,35.56,0,0,0,4.52.75c1.27.15,2.56.16,3.84.23.3,0,.38.12.21.39q-.63,1-1.24,2a.63.63,0,0,1-.62.31,23.38,23.38,0,0,1-4.2-.5A28.64,28.64,0,0,1,77.47,22,36.69,36.69,0,0,1,72,19.3c-.57-.34-1.13-.7-1.71-1-.12-.07-.31,0-.47,0,.05.15.06.37.17.43,1.32.78,2.64,1.57,4,2.31a29.3,29.3,0,0,0,5.46,2.25,24.76,24.76,0,0,0,6.16,1.11l.46.05a1.48,1.48,0,0,1-.23.31q-.82.59-1.66,1.16a.59.59,0,0,1-.33.08c-1.36,0-2.73-.06-4.08-.17a19,19,0,0,1-7.88-2.38,28.15,28.15,0,0,1-4.06-2.83,10.5,10.5,0,0,0-1.17-.84c-.13-.08-.44-.1-.5,0s0,.35.2.49c.86.63,1.72,1.26,2.56,1.92a21,21,0,0,0,5.74,3.14,18.54,18.54,0,0,0,7,1.1h.83l0,.13a1.23,1.23,0,0,1-.29.14,14.07,14.07,0,0,1-4.88.08,20.57,20.57,0,0,1-6.67-2.29A18.39,18.39,0,0,1,63,17.16c-.22-.41-.39-.84-.59-1.26a1.11,1.11,0,0,0-.21-.37,3.58,3.58,0,0,1-1-2.36,18.14,18.14,0,0,1-.19-3A6.92,6.92,0,0,1,62.58,6,9.44,9.44,0,0,1,66.34,3.2c1.11-.49,2.3-.82,3.45-1.26a8.48,8.48,0,0,1,3.06-.56,12.13,12.13,0,0,1,3,.09c.55.14,1.15.12,1.71.25a17.69,17.69,0,0,1,1.94.59,15.38,15.38,0,0,1,5,2.87c.09.08.17.17.26.26l-.07.06c-.16.09-.5-.06-.47.26s.35.29.57.26a1.14,1.14,0,0,1,1.13.53c.26.34.54.66.81,1a2.3,2.3,0,0,1,.17.28l-.06.09c-.32-.09-.63-.18-.95-.26s-.51-.29-.64.06.21.41.44.48a4.25,4.25,0,0,0,1.14.25.78.78,0,0,1,.82.5c.07.15.16.29.31.56H87a5,5,0,0,1-2.24-.28c-.1,0-.28.09-.43.14.07.12.11.32.21.35a13.58,13.58,0,0,0,1.79.36,8.55,8.55,0,0,0,1.49,0,.53.53,0,0,1,.62.41c.08.24.16.49.27.72s0,.34-.24.39a8.46,8.46,0,0,1-3.2-.12l-3.29-.72a1.49,1.49,0,0,0-.54,0,.36.36,0,0,0-.22.25.3.3,0,0,0,.16.25c2,.33,3.9,1,5.94,1a9,9,0,0,0,1.32-.13c.24,0,.37,0,.42.25s.17.78.26,1.17A.39.39,0,0,1,89,14a4.9,4.9,0,0,1-2.72.36c-.85-.12-1.71-.27-2.55-.45s-1.83-.41-2.74-.66a5.85,5.85,0,0,1-2.23-1.1c-.17-.14-.37-.28-.54-.06s0,.36.19.51a8.4,8.4,0,0,0,3.46,1.48c1.21.29,2.43.51,3.65.75a6.15,6.15,0,0,0,3.59-.28c.22-.09.33,0,.33.2C89.44,15.31,89.46,15.89,89.43,16.47ZM31,114c1.2-.17,2.42-.31,3.6-.56a33.2,33.2,0,0,1,5.18-1c.25,0,.49-.12.48-.41s-.25-.4-.54-.37c-.52.07-1,.12-1.55.22-1.51.31-3,.69-4.52,1s-2.79.47-4.19.64c-1.83.22-3.67.35-5.51.56a88.42,88.42,0,0,1-9,.55,1,1,0,0,0-.42.06.41.41,0,0,0-.22.28.47.47,0,0,0,.18.34.76.76,0,0,0,.41.09h2.36v-.05c1.42-.09,2.85-.16,4.27-.29,2.06-.18,4.12-.4,6.17-.61C28.77,114.25,29.86,114.12,31,114Zm27.41.2c.21-.15.35-.35.19-.59s-.4-.18-.62,0a12.62,12.62,0,0,1-5.09,1.78c-1,.19-2.07.34-3.09.57-1.62.36-3.23.77-4.83,1.18a30.89,30.89,0,0,1-5.53.92H38.18c-.24,0-.51,0-.51.35s.22.4.5.4a26.05,26.05,0,0,0,6.34-.76c1.47-.32,2.9-.77,4.37-1.1,2-.45,4-.81,6-1.25A9.06,9.06,0,0,0,58.36,114.17Zm-13.64.14c.89-.21,1.78-.43,2.65-.67.13,0,.31-.29.28-.37a.64.64,0,0,0-.4-.32,1.14,1.14,0,0,0-.5.08l-2.4.59-3.93.9-3.63.79c-1,.2-1.92.38-2.88.6a45.24,45.24,0,0,1-6.16,1.15l-1,.11a.36.36,0,0,0-.36.42c0,.24.18.32.41.31l.39,0,0,.1c1.86-.34,3.73-.66,5.59-1,1.17-.23,2.32-.53,3.48-.78,1.66-.36,3.32-.7,5-1.07C42.42,114.86,43.57,114.58,44.73,114.3ZM21,112.21c1.18-.13,2.36-.32,3.54-.45.61-.06,1.23,0,1.84-.05.24,0,.41-.09.42-.35s-.14-.37-.38-.4a1.9,1.9,0,0,0-.39,0c-1.42.12-2.84.23-4.26.38-1.6.17-3.19.45-4.79.58-1.77.14-3.56.16-6.22.26l-4.81.09h-.2c-.25,0-.43.16-.38.39s.22.28.38.34a1.32,1.32,0,0,0,.51,0c3.32-.1,6.65-.17,10-.32C17.78,112.61,19.37,112.39,21,112.21Zm60.18,5a1.14,1.14,0,0,0,.49-.34c.06-.08,0-.38-.07-.4a1.06,1.06,0,0,0-.63,0c-1.38.52-2.77,1-4.11,1.62-2.53,1.14-5,2.36-7.53,3.55a1.39,1.39,0,0,0-.3.28l.07.1a2.83,2.83,0,0,0,1.73-.29,25.26,25.26,0,0,1,2.31-1.15q2.85-1.27,5.73-2.5C79.58,117.71,80.37,117.47,81.14,117.18Zm3.72,1.71a13.67,13.67,0,0,1-1.93.71,14.22,14.22,0,0,0-3.23,1,7.06,7.06,0,0,1-3.07,1c-.12,0-.24.15-.36.23l.08.14c.46,0,.91,0,1.37,0a3.08,3.08,0,0,0,1.73-.38,13.6,13.6,0,0,1,4-1.38,8.77,8.77,0,0,0,1.81-.7.37.37,0,0,0,.16-.56C85.28,118.73,85.09,118.79,84.85,118.89ZM67.62,54a42.78,42.78,0,0,0-1-7.62c-.4-1.7-.78-3.42-1.29-5.09-.46-1.51-1.06-3-1.65-4.46a24.07,24.07,0,0,0-4.08-6.65A41.2,41.2,0,0,0,49.72,22,27.74,27.74,0,0,0,38,18.18c-1.18-.13-2.36-.31-3.54-.47a14.06,14.06,0,0,0-2.3-.27,19,19,0,0,0-5.48,1.12A23.87,23.87,0,0,0,21.59,21a32.21,32.21,0,0,0-8.85,8.57A43.06,43.06,0,0,0,6.92,41a47.13,47.13,0,0,0-2,8.22,45.37,45.37,0,0,0-.53,8c.06,2,.19,4.07.4,6.1.14,1.37.47,2.73.7,4.1.07.4.1.82.19,1.22.26,1.11.51,2.23.83,3.32s.75,2.43,1.22,3.61c.53,1.34,1.12,2.66,1.76,4a35.13,35.13,0,0,0,4.72,7.14,30.37,30.37,0,0,0,6.41,5.72,28.65,28.65,0,0,0,8.15,3.72,29.07,29.07,0,0,0,17.93-.72A27.59,27.59,0,0,0,54.49,91a29.34,29.34,0,0,0,8.79-12c.46-1.11.83-2.25,1.23-3.37.29-.82.6-1.63.84-2.47.29-1,.53-2,.75-3s.39-2.14.6-3.21c.06-.29.18-.57.22-.86.15-1,.31-2.09.4-3.14.19-2.08.33-4.16.49-6.24h-.17C67.63,55.8,67.67,54.91,67.62,54Zm-1.53,9.93a22.19,22.19,0,0,0-.3,2.26,30.49,30.49,0,0,1-.72,3.54,8.56,8.56,0,0,1-.15.95c-.3,1.13-.58,2.27-1,3.37-.46,1.36-1,2.71-1.53,4a31.28,31.28,0,0,1-3.3,6.3,27.37,27.37,0,0,1-12.64,9.85,26.3,26.3,0,0,1-11,1.78,35,35,0,0,1-4.63-.57,25.44,25.44,0,0,1-5.42-1.78,30.07,30.07,0,0,1-6-3.53,28,28,0,0,1-5.12-5.1,35.61,35.61,0,0,1-4.06-6.6c-.48-1-.93-2-1.33-3S8.05,73,7.64,71.86c-.13-.36-.3-.71-.4-1.08-.22-.87-.4-1.75-.6-2.62-.07-.31-.2-.61-.25-.92A56.27,56.27,0,0,1,5.45,56c.08-2,.22-3.94.48-5.89A52.56,52.56,0,0,1,7,44.4a42.85,42.85,0,0,1,3-8.08,40.39,40.39,0,0,1,4.51-7.36,28.56,28.56,0,0,1,9.27-8,21.43,21.43,0,0,1,7.15-2.33,9,9,0,0,1,2.53,0c2.12.31,4.26.56,6.37.89A25.19,25.19,0,0,1,47.27,22a37.08,37.08,0,0,1,8.84,6.16,27.5,27.5,0,0,1,6.75,9.58,48.67,48.67,0,0,1,2.38,7.47,53.56,53.56,0,0,1,1.35,11.33A56.59,56.59,0,0,1,66.09,63.95Zm9.58,8.22c-.06,0-.09.15-.14.23a.84.84,0,0,0,.28,0c.74-.15,1.47-.3,2.2-.47.09,0,.16-.12.25-.18L78,71.56C77.2,71.76,76.44,72,75.67,72.17Zm.63-1.65a4.75,4.75,0,0,1,2-.54,1.54,1.54,0,0,0,.42-.14c-.49-.24-2.25.21-3.59.84l0,.1A6.29,6.29,0,0,0,76.3,70.52ZM68.36,5.31c-.29.4-.55.83-.83,1.27.12.14.18.29.27.31a.38.38,0,0,0,.32-.13,12.69,12.69,0,0,0,.62-1.15.32.32,0,0,0-.08-.3A.31.31,0,0,0,68.36,5.31Zm-.8-.38s-.23.08-.28.17a6.39,6.39,0,0,0-.46.92.38.38,0,0,0,.12.35.36.36,0,0,0,.34-.08c.18-.32.32-.66.5-1C67.71,5.14,67.66,5,67.56,4.93ZM29.86,59a1,1,0,0,0,.88-.62A4.26,4.26,0,0,0,31,55.51a1.66,1.66,0,0,0-1.2-1.32C29.2,54,28.57,54,28,53.86c-.14,0-.33-.07-.38-.17a11.48,11.48,0,0,1-.74-1.44A34.41,34.41,0,0,0,24.5,47a1.59,1.59,0,0,1-.06-1.49c.21-.51.43-1,.66-1.53a2.31,2.31,0,0,0-.45-2.93c-.48-.47-.85-1-1.3-1.53a.8.8,0,0,1-.17-.92,4.66,4.66,0,0,0,.45-2.17c-.05-.7-.13-1.4-.19-2.1a1.24,1.24,0,0,1,.05-.31l.27.11a7.47,7.47,0,0,0,1,.47.64.64,0,0,0,.57-.17.74.74,0,0,0,0-.63,3.88,3.88,0,0,0-.58-.78,6.49,6.49,0,0,0-2-1.9c-.65-.31-1-.22-1.32.42,0,.08-.07.17-.1.25a10,10,0,0,1-1.06,2.6.53.53,0,0,0,.13.79c.22.2.55.12.79-.16l.93-1,.18.23a.91.91,0,0,1,.11.16,4.34,4.34,0,0,1,.11,2.47c-.08.51-.33,1-.46,1.51a2,2,0,0,0,.47,2c.53.59,1,1.2,1.54,1.79a.87.87,0,0,1,.15,1c-.23.55-.46,1.09-.71,1.63A3.2,3.2,0,0,0,23.68,48a9,9,0,0,1,.79,1.42c.55,1.32,1,2.68,1.61,4a1.45,1.45,0,0,1,0,1.28,17.85,17.85,0,0,0-.81,3,1.49,1.49,0,0,0,1.13,1.85,1.31,1.31,0,0,1,.26.14c-.1.15-.17.28-.27.4a33,33,0,0,0-3.5,5.35A12.61,12.61,0,0,1,20,69.06c-.13.11-.28.2-.49.34,0-.28-.06-.46-.08-.65-.07-.49-.38-.91-.66-.9s-.64.35-.72.89a.79.79,0,0,0,0,.15c0,.59,0,1.19.09,1.77.08.83.41,1.1,1.24,1.13a7.08,7.08,0,0,0,3.25-.74.56.56,0,0,0,.33-.67.51.51,0,0,0-.62-.4c-.47,0-.94.11-1.4.17l-.36,0c0-.08,0-.11,0-.13a.64.64,0,0,1,.12-.15,12.87,12.87,0,0,0,2.89-3.48c.82-1.35,1.57-2.74,2.44-4.05.64-1,1.45-1.82,2.15-2.75a1.35,1.35,0,0,1,1.2-.58A4.29,4.29,0,0,0,29.86,59Zm-2.29-1.15a.86.86,0,0,1-.37.47,1.12,1.12,0,0,1-.69.09c-.09,0-.19-.34-.16-.5.14-.66.32-1.32.5-2,.05-.2.15-.39.26-.67a3.09,3.09,0,0,1,.33.44A2.84,2.84,0,0,1,27.56,57.85ZM30,56.65c-.31,0-.63.07-.94.09,0,0-.12-.08-.14-.14s.07-.12.11-.12h.95Zm-.2-1s.09.06.1.11a.16.16,0,0,1-.05.13,1.65,1.65,0,0,1-1.16-.18Zm-1,1.67H30A1,1,0,0,1,28.8,57.32Zm29.87.11c-.53-.56-.54-.53-.17-1.18a2,2,0,0,0,.37-1.42,1.67,1.67,0,0,0-1.39-1.31,4.41,4.41,0,0,0-3.38.79.65.65,0,0,0-.26.85.76.76,0,0,0,1.16.43A3.72,3.72,0,0,1,56.87,55c.37,0,.47.19.25.5a2.27,2.27,0,0,1-.43.5c-.91.71-.68,1.35.14,1.87a5.3,5.3,0,0,1,.8.63,3.26,3.26,0,0,1,.54.66.8.8,0,0,1-.39,1.28,2.72,2.72,0,0,1-1.72.26,1.93,1.93,0,0,1-.81-.4A.88.88,0,0,0,54,60.27c-.34.29-.32.71,0,1.13a2.83,2.83,0,0,0,2.19,1,5,5,0,0,0,3-1.07,1.84,1.84,0,0,0,.48-2.64A7.59,7.59,0,0,0,58.68,57.42ZM11.35,59.52c.12-.62.17-1.24.22-1.61-.1-1.25-.16-2.24-.27-3.23a.75.75,0,0,0-.33-.52,4.54,4.54,0,0,0-1.37-.5A2.39,2.39,0,0,0,7,56.56,2.49,2.49,0,0,0,9.44,58.2c.49-.1.56-.05.46.45a3.11,3.11,0,0,1-.31.67A3.16,3.16,0,0,1,9,58.87c-.31-.39-.59-.49-1-.28a.78.78,0,0,0-.44,1.06,1.93,1.93,0,0,0,1,1A1.79,1.79,0,0,0,11.35,59.52Zm-2.08-3.1c-.07.22-.23.25-.38.08s-.32-.41-.42-.55a.82.82,0,0,1,.93-.74.3.3,0,0,1,.15.25A9.55,9.55,0,0,1,9.27,56.42ZM34.84,29.1c-.47,0-.95,0-1.41,0a3.25,3.25,0,0,1-1-.27c-.54-.25-.53-.31-.11-.71a6.42,6.42,0,0,0,1.64-2,3.08,3.08,0,0,0,.27-2.39A1.53,1.53,0,0,0,33,22.61a3.45,3.45,0,0,0-2.87.71,1.38,1.38,0,0,0-.66,1.21,1.11,1.11,0,0,0,.79,1,.76.76,0,0,0,.8-.57c.17-.6.66-.68,1.14-.77s.59.11.45.53a5.56,5.56,0,0,1-1.23,2,12.05,12.05,0,0,0-.86,1,1.35,1.35,0,0,0-.17,1.56,2.75,2.75,0,0,0,1.18,1.1,4.51,4.51,0,0,0,2.22.37h1a.73.73,0,0,0,.76-.84C35.6,29.33,35.37,29.11,34.84,29.1ZM31,87.54c-.19,0-.4,0-.32-.28.14-.52.27-1,.42-1.56.09-.34.26-.52.68-.44a.85.85,0,0,0,.91-.64c.09-.43-.08-.71-.56-.88a1.71,1.71,0,0,0-2.07.72,7.58,7.58,0,0,0-1.23,4,3,3,0,0,0,1,2.51,2.66,2.66,0,0,0,2.45.72,1.71,1.71,0,0,0,1.36-1.43,2,2,0,0,0-.63-2A2.82,2.82,0,0,0,31,87.54Zm.9,2.57c0,.1-.44.16-.57.07a2.65,2.65,0,0,1-.67-.68c-.14-.2,0-.35.45-.41a2.63,2.63,0,0,1,.72.41A.65.65,0,0,1,31.86,90.1ZM25.33,26.36h0c0,.81,0,1.62,0,2.43a.81.81,0,0,0,.23.54.93.93,0,0,0,1.06.14.75.75,0,0,0,.45-.78c0-1.54,0-3.09,0-4.63a.8.8,0,0,0-.86-.88.79.79,0,0,0-.9.87C25.35,24.81,25.33,25.59,25.33,26.36ZM56.07,41.24a.73.73,0,0,0,.3-1,.56.56,0,0,0-.78-.27c-.5.18-1,.36-1.49.58a5.08,5.08,0,0,0-2.23,1.7.8.8,0,0,0-.08.66c.09.19.37.3.62.49a3.57,3.57,0,0,0,.66-.48,4.37,4.37,0,0,1,1.82-1.23C55.27,41.57,55.68,41.42,56.07,41.24ZM21,81.54a.56.56,0,0,0-.69.3,7.78,7.78,0,0,0-1.08,3.35c0,.61.26.88.85.78.43-.07.52-.41.54-.74a6.57,6.57,0,0,1,.79-2.52,1.33,1.33,0,0,0,.13-.55A.63.63,0,0,0,21,81.54Zm31.75-7.62c-.18,0-.35-.08-.53-.12l-2.36-.54,0,.07a3.35,3.35,0,0,0-.35,0,.78.78,0,0,0-.71.79c0,.4.24.57.74.59a11.64,11.64,0,0,1,1.24.12c.63.1,1.25.25,1.89.34.43.06.73-.16.75-.49A.73.73,0,0,0,52.74,73.91Zm-5.92-47a.62.62,0,0,0-.83.22q-.74,1.29-1.45,2.6c-.23.42-.14.76.2.93s.68.12.94-.31c.47-.79.94-1.57,1.4-2.36a6.24,6.24,0,0,0,.26-.58C47.17,27.23,47,27,46.82,26.91ZM13,71.21a6.13,6.13,0,0,0-.77.13,19,19,0,0,0-1.93.61.6.6,0,0,0-.15,1,.82.82,0,0,0,.91.11c.71-.21,1.42-.42,2.14-.6a.69.69,0,0,0,.62-.76C13.77,71.39,13.51,71.2,13,71.21Zm-1.7-25.86a.61.61,0,0,0,.72-.47.6.6,0,0,0-.38-.82A4.35,4.35,0,0,1,9.8,42.88a.68.68,0,0,0-.9-.06.64.64,0,0,0-.16.87A4.16,4.16,0,0,0,11.28,45.35Zm4-14.6a.7.7,0,0,0-1,.33.58.58,0,0,0,.27.85,5,5,0,0,1,1.54,1.29.59.59,0,0,0,.81.16,2.44,2.44,0,0,0,.48-.51,2.79,2.79,0,0,0-.2-.48A5,5,0,0,0,15.32,30.74ZM44.25,83.89a.58.58,0,0,0-.74-.29.69.69,0,0,0-.5.72,1.52,1.52,0,0,0,.07.28,4.28,4.28,0,0,0,1.69,1.92.63.63,0,0,0,.9-.12.69.69,0,0,0-.07-.95A4.11,4.11,0,0,1,44.25,83.89Zm-1.82-36.5c-.15.09-.28.23-.43.33-.44.31-.9.61-1.33.94-.09.07-.09.27-.14.4.15,0,.35.1.44,0,.58-.37,1.13-.77,1.69-1.18a1.21,1.21,0,0,0,.22-.27C42.88,47.35,42.66,47.25,42.43,47.39ZM30.32,76.08l0,.13a2.64,2.64,0,0,0,.62,0c.13,0,.23-.19.34-.29-.11-.09-.21-.26-.32-.26a16.84,16.84,0,0,0-1.75.09,1.06,1.06,0,0,0-.54.29c-.08.08-.07.25-.11.38a1.09,1.09,0,0,0,.41.06C29.45,76.37,29.88,76.22,30.32,76.08Zm-1.52-.9c.7-.08,1.27-.12,1.83-.21.11,0,.2-.19.3-.29-.13-.09-.27-.28-.39-.27a16.39,16.39,0,0,0-1.69.25c-.11,0-.28.21-.27.28S28.77,75.16,28.8,75.19ZM42.37,46.73a1.53,1.53,0,0,0,.18-.27c-.08-.09-.13-.22-.2-.23a.51.51,0,0,0-.35.09,12.06,12.06,0,0,0-1.07,1c-.1.1-.07.33-.1.5.16,0,.36,0,.47-.08C41.68,47.39,42,47.06,42.37,46.73Z"/></svg>