<svg id="Warstwa_1" data-name="Warstwa 1" xmlns="http://www.w3.org/2000/svg" viewBox="0 0 138.09 116"><defs><style>.cls-1{fill:white;}</style></defs><title>SBR_bp_buisiness lunch0</title><path class="cls-1" d="M137.78,51.47c-.29-3.66-2-6.46-6-6.82a23.55,23.55,0,0,0,.67-3.33A4.17,4.17,0,0,0,128,36.61c-3.24.15-6.47.51-9.85.79-.17-.67-.3-1.42-.55-2.13-2.46-6.85-6.46-12.63-12.46-16.66-4.58-3.08-9.1-6.32-14.34-8.33a47.53,47.53,0,0,0-15.43-3.6c-1.3,0-2.59-.21-3.89-.33,0-2.33,1.16-6,1-6.09-3.13-.81-4.17.31-4.79,1.33-.87,1.42-1.52,3-2.33,4.61A39.51,39.51,0,0,0,57,6.83c-3.46.82-7,1.29-10,3.4a51.21,51.21,0,0,0-4.68,3.44,31.24,31.24,0,0,0-5.49,5.51,82.09,82.09,0,0,0-5.41,10,61.77,61.77,0,0,0-2.24,6c-.6-.1-1.11-.17-1.6-.28-4.85-1.1-9.69-2.24-14.54-3.29-2.92-.63-4.14-.08-5.67,2.52A23.93,23.93,0,0,0,6,37.22a18.27,18.27,0,0,0-2.73-.29c-.45,0-1.17.38-1.27.73-.76,2.6-1.91,5.22-2,7.85-.17,7.68.1,15.37.23,23.05a3.89,3.89,0,0,0,3.79,4c.95.07,1.91,0,2.74,0,.44,1.49.84,2.85,1.24,4.22,1.06,3.69,3.78,5.06,7.4,4,4.22-1.27,8.5-2.34,12.63-3.47a86.38,86.38,0,0,0,2.28,8.54c.95,2.51,2.45,4.79,3.63,7.22,3.67,7.5,9.72,12.77,16.41,17.21A35.67,35.67,0,0,0,68.93,116a50.6,50.6,0,0,0,22.94-4.42,43.56,43.56,0,0,0,17.34-13.9A104,104,0,0,0,116,87.25c1.22-2.13,3.42-4.37,1.07-7,4.21.61,8.37,1.17,12.52,1.82,1.56.25,2.15-.59,2.4-1.87.22-1.09.31-2.21.46-3.32,3.25.55,4.49-.33,4.88-3.61a77.07,77.07,0,0,0,.7-8.12C138.11,60.58,138.13,56,137.78,51.47Zm-9.46-13.7a3.1,3.1,0,0,1,3.19,3,16.84,16.84,0,0,1-.42,3c-.15,1-.88,1.08-1.69,1.07-5.6,0-11.21,0-16.81-.12a187.49,187.49,0,0,0-21.74.94c-2.91.26-5.86.13-8.79.17-.12,0-.25-.12-.71-.36,1.79-.35,3.28-.57,4.74-.94,2.36-.59,4.72-1.21,7-1.94,1.47-.46,6.65-1.36,8.33-1.61,4.78-.69,9.56-1.42,14.35-2C120,38.47,124.15,38.1,128.32,37.77ZM74.77,68.63c.5,1.65,1.66,3.1,2.65,4.83A8.67,8.67,0,0,1,75,74c-2.91-.23-5.81-.6-8.72-.92L64,72.79l0-.42,2.46-1.21-2.16-3.69-.4.22,1.31,2.63-1.66.5c-.09-.49-.13-1-.26-1.48-.34-1.24-.77-2.46-1.08-3.7a25.69,25.69,0,0,1,.59-15.88,16.39,16.39,0,0,1,2.71-4.39,2.78,2.78,0,0,1,2.34-.55c2.66.6,5.3.19,7.94.18l1.5,0a11.51,11.51,0,0,1-.75,2.3A15.58,15.58,0,0,0,74.48,55c-.09,2.76-.2,5.53-.18,8.3A18.93,18.93,0,0,0,74.77,68.63ZM66.31,42.12c-.27,1.05-1.41,2-2.34,2.7-.32.26-1.2-.11-1.8-.29-3.53-1.07-7.05-2.18-10.74-3.32,1.76-6.14,6.26-9.14,12.21-10.45,1.06-.23,1.56.07,1.78,1.21C66.07,35.34,67.19,38.69,66.31,42.12Zm.12-11,2.51,0c.23,2.31.51,5.63.7,8.51a24.75,24.75,0,0,1-.18,2.53c-.06,1.66-.91,1.65-1.64,1.28C67.33,39.19,66.88,34.62,66.42,31.15Zm7.16,12.19L73.43,32C78,30.35,90.53,34.48,94,41.16,87.28,43,80.48,45.61,73.58,43.34ZM73.48,7.91A72.93,72.93,0,0,1,82.19,9a39.74,39.74,0,0,1,15,5.88c4.42,3,9.36,5.24,12.89,9.49a31.83,31.83,0,0,1,6.71,13.45l-12.48,1.78c-2.66.38-5.32.79-8,1.11A1.68,1.68,0,0,1,95,40.22c-3.85-5.44-9.44-7.91-15.6-9.35a22.28,22.28,0,0,0-4.35-.39c-1,0-1.64-.21-1.84-1.46-.78-4.84-1.74-9.66-2.54-14.5a18.72,18.72,0,0,1-.11-4C70.7,8.37,71.27,7.75,73.48,7.91ZM66.9,7.16a7.15,7.15,0,0,1,.74-3.57,5.27,5.27,0,0,1,3.58-2.48c0,.36-1.17,5.23-1.35,7.3A27,27,0,0,0,70,15.9c1,5.53,2.22,11,2.86,16.63.41,3.57,0,7.23-.12,10.9l-2.35.18c0-.77,0-1.34,0-1.9-.33-4-.62-8.1-1.06-12.14-.18-1.66-.82-3.28-1-4.94-.55-4.53-1-9.07-1.45-13.61C66.75,9.71,67,8.27,66.9,7.16Zm-3.61,2.93c.1-.81.18-1.62.27-2.44,1.71-.55,1.82-.41,2,1.29.48,3.8,1.08,7.59,1.63,11.39,0,.25,0,.51.08.76l1,9-2-.49c-.81-2.69-1.45-5.15-2.29-7.53C62.63,18.12,62.81,14.12,63.29,10.09ZM31.46,33a39.5,39.5,0,0,1,6.1-12.64C42.9,13.43,49.76,8.71,58.79,8c.55,0,1.11-.14,1.66-.19s1-.07,1.94-.13c-.15,2.18-.27,4.19-.42,6.2a21.73,21.73,0,0,0,1.74,9.91,37.46,37.46,0,0,1,1.37,5.59c-6,.59-10.48,3.22-13.48,8.28a19.74,19.74,0,0,0-1.06,2.54,1.28,1.28,0,0,1-1.59.92c-4.72-.48-9-2.4-13.41-3.89a18.64,18.64,0,0,0-1.91-.47C31.27,36.22,30.75,35.37,31.46,33ZM7.83,36.37a8.63,8.63,0,0,1,1.58-2.88,3.06,3.06,0,0,1,2.38-.76c5.71,1.11,11.43,2.21,17.07,3.62C33,37.38,36.93,39,41,40.14c5,1.33,10,2.36,15.06,3.51l.54.15,0,.28c-2.85-.25-5.72-.36-8.55-.78-6.67-1-13.31-2.18-20-3.22-5.46-.85-10.93-1.62-16.4-2.4-1-.15-2.13-.09-3.16-.29C8.22,37.34,7.74,36.6,7.83,36.37Zm-3.45,35c-2-.09-3-1.54-3.1-3.63C1.06,63.61.67,59.47.53,55.31A41.58,41.58,0,0,1,3,38.82a1.58,1.58,0,0,1,1.33-.6c7.71.93,15.42,1.81,23.1,2.91C35,42.19,42.41,43.56,49.9,44.64c3.87.56,7.78.77,11.68,1.15.44,0,.88.15,1.51.27-3.87,7.31-3.31,14.64-1.17,22.22a13.61,13.61,0,0,1-1.54.22c-6,.15-11.92.21-17.87.44-3.25.13-6.48.58-9.72.78s-6.59.23-9.88.43c-4,.24-7.9.58-11.84.87A57.07,57.07,0,0,1,4.38,71.39Zm14.77,6.95c-1.68.37-3.33.93-5,1.36A3.87,3.87,0,0,1,9.3,76.94C9,76,8.77,75.07,8.47,74.14c-.34-1.08,0-1.58,1.14-1.78a117,117,0,0,1,16.23-1.18C30.91,71.06,36,70.25,41,70s10-.2,14.94-.28c1.68,0,3.36-.06,5-.07,1.05,0,1.05,0,1.37,1.33-3.26.49-6.51,1-9.77,1.47-5.31.75-10.66,1.29-15.94,2.23C30.8,75.72,25,77.07,19.14,78.34Zm95.12,9c-2.63,4.25-5.65,8.26-8.52,12.36a8,8,0,0,1-1.21,1.39c-4.9,4.36-10,8.37-16.41,10.34-2.37.73-4.65,1.95-7.07,2.29a77.15,77.15,0,0,1-12.14.81,32.62,32.62,0,0,1-9.28-1.4c-4.72-1.51-9.39-3.37-13.07-7A109.25,109.25,0,0,1,38,97.35,41.66,41.66,0,0,1,30.5,83.18c-.56-1.81-.46-3.84-.68-6,4.5-.69,8.91-1.35,13.31-2.05S51.62,73.66,55.88,73c2-.31,4-.48,6.06-.68.26,0,.73.07.79.23.71,1.83,2.36,2,3.9,2.19a57,57,0,0,0,7.9.53,17.49,17.49,0,0,0,4.71-1.22c.42-.13.72-.65,1.07-1l-2.74-1.15.11-.3L93.8,75.69c-2,5.7-6.28,9.22-11.08,12.13a21.9,21.9,0,0,1-13,2.72,20.79,20.79,0,0,1-12.42-4.9C53.81,82.71,50.94,79.26,50,74.5l-.78.32a9.11,9.11,0,0,0,.41,2.45c3.06,6.42,7.67,11.34,14.47,13.48A25.38,25.38,0,0,0,93.49,79.48a8.53,8.53,0,0,0,.69-1.85c.17-.58.26-1.19.45-2.1L116,79.8C117.79,82.89,115.62,85.18,114.26,87.37Zm16.41-7.1a1.51,1.51,0,0,1-1.28.67c-3.73-.48-7.46-.94-11.16-1.63-6.19-1.15-12.36-2.45-18.53-3.69a43.78,43.78,0,0,0-5.56-1.14C88.4,74.09,83,72.21,77.59,70.53c-.49-.15-.88-.67-1.31-1,7.59-.82,14.68.48,21.79,1.71,3,.52,6.09.77,9.12,1.26,3.57.57,7.12,1.28,10.69,1.9,4.34.76,8.69,1.5,13.32,2.29A30,30,0,0,1,130.68,80.26Zm6.51-25.92c0,6-.56,12-.92,18A15.16,15.16,0,0,1,136,74c-.25,1.46-1.17,1.76-2.53,1.83s-14.19-2.28-20-3.24c-2.84-.48-5.7-.89-8.55-1.31-3.11-.45-6.22-.92-9.34-1.3C90,69.27,84.4,68.66,78.81,68l-.14,0c-2.79-.21-2.85-.2-3.18-3.12a36.8,36.8,0,0,1,.83-14,6.09,6.09,0,0,1,1.76-3.3c1.06-.74,2.66-.7,4.37-1.08l-.79,1.94L83.41,47,84,48.72c.53-1.67,1.06-3.28,1.91-.27,1.32-2,3.16-1.71,5.05-1.76l-1,2.19.45.3,1.52-1.37-.78-1.13a7.11,7.11,0,0,0,1.34-.17l-.55,1.28h0l0,0c.44.93.39.88.93.33s.49-1.91,2-1.59l-.52,2.36.42.18,1-1.58.6,1.11L97.94,46l.23.18L97.91,48l.51.18,1.26-2.3.25,1.85,1.48-2.22.2,1.79c1.18-.36,2.42-.39,3-1.91l.25.55-.65,1.63.33.29a8,8,0,0,0,.79-.85c.45-.64.77-1.27,1.78-1.27,7.33.07,14.66.07,22,.1.15,0,4.22,0,5.45.79C137.53,48.57,137.18,51.7,137.19,54.34ZM8.44,69.19,6.62,65.34C6.21,66.86,7.42,69,8.44,69.19Zm23.05-.48.35-.51-2-2.46-.37.11a3.7,3.7,0,0,0,.38,1.34A13.67,13.67,0,0,0,31.5,68.71ZM37,68.35,34.92,66l-.55.32A10.51,10.51,0,0,0,35.6,68C35.87,68.28,36.43,68.23,37,68.35ZM19,40.63l-.76-.29-1,3.2.7.25ZM24.06,69l.33-.22c-.37-.78-.7-1.59-1.14-2.33-.12-.19-.57-.18-.87-.27,0,.28-.13.64,0,.82C22.89,67.66,23.49,68.3,24.06,69ZM20.82,42a.57.57,0,0,0-.2-.5c-.11-.08-.48,0-.5,0-.28.92-.52,1.85-.77,2.78l.55.14C20.21,43.62,20.54,42.81,20.82,42ZM12.17,67.71h0l0,0h0l-1.23-2c-.64,1-.62,1.06,1,3.17ZM11,39.3a4.39,4.39,0,0,0-1.23,2.93l.44.18,1.28-2.88ZM14,68.47,12.14,66l-.26.09.31,1.67,1.54,1.12ZM8.33,40.17l-.62-.1L7,43.27l.56.12Zm34.6,27.59-1.77-2.19C40.81,67,41.43,67.71,42.92,67.76Zm-13.65.31-1.93-2-.54.53,1.89,2ZM52,67.28l-2.75-2.17C50,67.07,50.63,67.49,52,67.28Zm34.89-2c-.06-.11-.14-.22-.27-.41l-.86,1-.89-1.27c-.63.85-.63.85.46,2.44l.3-.23c.4.19.79.41,1.21.57a8,8,0,0,0,.94.25,4.1,4.1,0,0,0-.16-.88C87.39,66.2,87.12,65.72,86.87,65.24Zm29.47,4.43-.62-1-.39.09c.08.47,0,1.18.27,1.35a31.41,31.41,0,0,0,3.14,1.6l.17-.31L117.19,69Zm12.33-20.56.2-2.79-1.85,0,1.13,2.92Zm-7,23.44-1.79-3.41A2.53,2.53,0,0,0,121.72,72.55ZM91.35,65.64A8.79,8.79,0,0,0,92,67.49c.24.38.79.56,1.19.83l.23-.38-1.61-2.48Zm35.43,7.54.26-1.09-1.66-1.44C124.67,72.18,125.75,72.58,126.78,73.18Zm.26-1.09,0,0,0,0Zm-23.74-2.41.48-.17-1.31-2.78C101.39,68.18,102.84,68.73,103.31,69.67Zm23.77,2.44h0l0,0Zm0,0,1.78,1.56.43-.47-1.72-2.26Zm-18-1.64-2-2.16C107,69.81,108.26,71,109.12,70.46Zm15.31,2.48-1.55-2.84C122.31,71.64,122.45,72,124.42,72.94Zm-15.2-3.71A12.09,12.09,0,0,0,110.35,71a.24.24,0,0,0,.18.06l-.8-2.15Zm1.41,2.09.73-.45c-.26,0-.62.15-.84.15ZM70.45,71.1l-3-4.41C67,68.16,68.35,70.31,70.45,71.1Zm2.38.24-3.36-5.18C69.41,68.22,71.65,71.44,72.83,71.34ZM74.3,45.68,72,48.57l.61.5,2.25-2.91Zm-8.47-.12-1.57,4.37.62.26,1.61-4.32Zm2.4,25.53-2.38-3.51A3.24,3.24,0,0,0,68.23,71.09Z"/></svg>