<svg id="Warstwa_1" data-name="Warstwa 1" xmlns="http://www.w3.org/2000/svg" viewBox="0 0 119.01 97.99"><defs><style>.cls-1{fill:#fff;}</style></defs><title>SBR_bp_live cooking0</title><path class="cls-1" d="M115.16,32.09c-1.68-2.54-3.86-3.76-6.9-3.38-.16,0-.35-.1-.67-.21a13,13,0,0,0,.45-2.86,21.73,21.73,0,0,0-.76-5.67c-2.06-6-6.56-9.48-12.2-11.86-5.94-2.5-7.91-2.19-12.29,2.48-.2-.23-.29-.32-.36-.42C77.24,2.6,70.16-.95,61,.22a15.49,15.49,0,0,0-5.28,1.87C51.61,4.33,49.52,8.46,47,12.16a3.21,3.21,0,0,1-4,1.47,15.67,15.67,0,0,1-3-1.81c-3.41-2.5-6.84-4.89-11.44-3.54a4.63,4.63,0,0,0-3.58,3.24c-.48,1.93-.77,3.84-3.51,3.23-2.28-.27-7.77,3.5-11.05,5.67C4,24.75,1,29.57,4.24,38.7c.76,2.15,1.66,4.25,2.49,6.37.41,1.05.72,1.87-.91,2.33a7.36,7.36,0,0,0-3.17,2.11,10.78,10.78,0,0,0-.26,13.82c5.26,6.34,12.47,7.36,20.41,4.84,2.05-.65,4-1.55,6.29-2.44.41,1.58.77,2.68,1,3.81C31,74.6,32,79.67,32.88,84.73c.54,2.95,1.21,5.88,1.54,8.86.28,2.58,1.14,4,3.59,4.18a83.53,83.53,0,0,0,9.36.16c3.81-.16,7.61-.82,11.42-.86,7.37-.08,14.75.33,22.11.11a18.73,18.73,0,0,0,11.63-3.94c1.7-1.41,3.15-3.12,4.8-4.61a7.59,7.59,0,0,0,0-11.51,2,2,0,0,1-.46-1.36c0-1.63.26-3.25.28-4.88,0-4.36,0-8.73,0-13.18a28.22,28.22,0,0,0,13.35-2.48c4.6-1.92,8.39-4.93,8.49-10.42A22,22,0,0,0,115.16,32.09ZM97.28,79.17a5.87,5.87,0,0,1,.16,7.4c-4.06,5.54-9.45,8.87-16.33,9-7.39.16-14.79-.19-22.19-.21a36.47,36.47,0,0,0-7.75.54c-4.36.94-8.67.45-13,.09-1.56-.13-3-3.89-2.21-5.78a10.12,10.12,0,0,1,2.39-3.71c4.07-3.46,8.26-6.76,13.86-7.47,1.38-.17,2.66-1,4-1.43a38.11,38.11,0,0,1,22.23-.74,28.31,28.31,0,0,0,6.9.54c2.47,0,4.94-.18,7.41-.17.87,0,3.67,2,4.07,1.63A1.59,1.59,0,0,1,97.28,79.17Zm14-25.75A28.3,28.3,0,0,1,99.65,56c-2.88,0-4.59-1.49-4.78-4.39-.09-1.32-.78-1.27-1.66-1.13-.05,3.12.1,6.12,1.72,9,.82,1.48.71,3.56.76,5.38.1,3.64,0,7.29,0,11.09-4.75,0-9.41.16-14.06-.07-2.22-.11-4.38-1.21-6.62-1.47C67.74,73.61,60.56,74,53.66,77c-2.72,1.19-5.87,1.51-8.42,2.94-3.58,2-6.79,4.68-10.23,7.11-.47-2.38-1.05-5.19-1.57-8-.66-3.59-1.15-7.21-1.92-10.77a5.25,5.25,0,0,1,1.79-5.51,13,13,0,0,0,2.51-4.07,6,6,0,0,0,.05-2.33L35,56.23a9,9,0,0,0-.45,1.87c-.06,2.41-3.65,6-6,6.09a4.08,4.08,0,0,0-2,.66A17.5,17.5,0,0,1,4,62.68,8.69,8.69,0,0,1,6.32,48.82c2.4-1.23,2.54-2.12,1.58-4.68a78.87,78.87,0,0,1-3.22-10.2,9.68,9.68,0,0,1,2.79-9.45c3.72-3.64,7.89-6.58,13-8,2.67-.72,3.3-.39,5.27,2.09A5.39,5.39,0,0,0,26,16.86c-.44-2.62,0-5.22,2-6.83s4.62-1.19,6.81.06,3.94,2.71,5.94,4c3.56,2.35,6.75,1.29,8.35-2.72,3.17-8,11.69-11.89,20.08-9.48A20.54,20.54,0,0,1,81.56,12c.67,1.15,1.34,1,2.15.32a5.61,5.61,0,0,0,.83-1.08c2.23-3.34,4.16-3.95,8-2.55,6.05,2.2,10.88,5.69,13.37,12a8.41,8.41,0,0,1,.46,6c-1,3-.44,3.66,2.61,3.5,2.7-.14,5.15,1.75,6.32,5.19A65.31,65.31,0,0,1,117.42,43C118.36,47.54,116.16,51.28,111.33,53.42ZM100.49,43.25a3.83,3.83,0,0,0-1.71.93c-.52.48-.93,1.09-1.45,1.57-4.38,4.05-9.79,4.81-15.42,4.7-3.9-.08-7.77-.4-11.18-2.73a7,7,0,0,0-2.35-.57,7.4,7.4,0,0,0,1.17,2.31,5.31,5.31,0,0,0,2.6,1.25c3.37.56,6.78,1.36,10.16,1.3,3.64-.07,7.26-1,10.89-1.57l0,0,0,0h0v0C96,48.38,99.28,46.93,100.49,43.25ZM75,37A38.35,38.35,0,0,1,56.82,47.16a7.87,7.87,0,0,1-6.26-.7c-.42-.26-1.11-.1-1.67-.13.24.65.33,1.75.74,1.88,1.5.5,3.18,1.14,4.66.9C62.83,47.76,70,43.53,76.1,37.57a9.82,9.82,0,0,0,1.4-2.64l-.73-.5A17.61,17.61,0,0,1,75,37ZM24.78,46a1,1,0,0,0,.3.81.9.9,0,0,0,.87,0C27,45.56,28,44.25,29,43,27.86,43,24.91,45,24.78,46Zm5.1,15.28.63.41,4.2-7.13-.56-.33Zm1-16.52-.5-.5c-1.56,0-3.39,1.43-3.52,2.82,0,.35.43.75.66,1.12a7.77,7.77,0,0,0,.75-.87,7.65,7.65,0,0,1,.87-1.49A9.5,9.5,0,0,1,30.85,44.81Zm2.54,29.25,4.32-3.46C35.24,70.62,32.83,72.57,33.39,74.06Zm52-26.85a1.25,1.25,0,0,0,.63,1,1.23,1.23,0,0,0,1.15-.27,15.93,15.93,0,0,0,1-2.32C87.12,45.35,85.48,46.2,85.42,47.2ZM87.08,66l6.63,1.45C92.6,65.87,89.08,65.12,87.08,66ZM29.67,49.72l3-3.84c-1.83-.37-2.49,1-3.47,2s-.87,1.5.18,2.12l.45,2.31L33,48.73ZM93.5,59.41,86,58.2l-.07.42,7.46,1.57Zm-6.89,2.06,5.32,1.19.15-.81-5.33-1.18ZM75.55,49.14,77,45C75,45.61,74.48,47.16,75.55,49.14Zm2.37-1.59c-.07.12.62.66,1,1.05l1.45-3.52-.65-.38A33.68,33.68,0,0,0,77.92,47.56ZM25,19.14c-1,1-2,2.05-3,3.12-.07.08.18.66.36.71a.92.92,0,0,0,.79-.3c.76-1,1.46-2.08,2.18-3.13Zm55.8,28.61c-.14.19.31.83.49,1.26.42-.23,1.08-.36,1.22-.7a16.27,16.27,0,0,0,.6-2.94A25.31,25.31,0,0,0,80.82,47.75ZM90.49,49l1.82-3.59C89.84,46.11,89.26,47.15,90.49,49ZM87.62,63.63l5,.91A4.7,4.7,0,0,0,87.62,63.63ZM31.08,53.56l3-2.81-.47-.47-2.82,3ZM92.33,80.13a76.48,76.48,0,0,0-9.18-.4c-2.76-.09-5.6.23-8.26-.33a32.93,32.93,0,0,0-14.07.22,83.41,83.41,0,0,0-9.28,2.81c-3.24,1.11-6.42,2.4-9.62,3.61l.19.54L53,83l.23.36-7,7.77.49.47c1.66-1.8,3.33-3.59,5-5.42,2.18-2.44,4.3-4.88,7.87-5.31,2.2-.27,4.36-.87,6.53-1.32l.17.5-6.75,6.39a32.41,32.41,0,0,0,6.88-5.26c2.21-2.31,4.55-1.62,7.2-1.16L71,82.82c1.12-.41,1.94-1.28,2.95-1.7a14.29,14.29,0,0,1,3.34-.55l.16.52-1.23,1.15-4.54,4.36c.59-.38,1.17-.76,1.76-1.12,2.61-1.58,4.31-4.47,7.84-4.82,3.68-.36,7.3-.92,10.88.4,2.39.88,2.41,1,1.54,3.48-.06.18.07.42.13.78C95.74,82.61,95.23,80.57,92.33,80.13ZM73.59,93.68c-5.92.08-11.85.06-17.77,0A5.38,5.38,0,0,1,54,93l-3.42,1.25-.32-.52,3.9-5a91.15,91.15,0,0,0,8.44-7.51l-.6-.62-8,7.93c-1.43,1.58-2.85,3.18-4.31,4.74a3.27,3.27,0,0,1-1.45,1.11c-.3.06-.76-.72-1.3-1.28-.13,2.68-2.59.67-3.94,1.86a4.56,4.56,0,0,0,1.24.37c2.9-.18,5.79-.56,8.69-.57,8.86,0,17.72,0,26.58.09,2.19,0,2.66,0,3.45-1.14H76.48C76.62,93,74.63,93.67,73.59,93.68Zm1-2.62c-.2.16-.07.71-.1,1.13l11.6-9.94-.28-.4C82.06,84.91,78.3,88,74.58,91.06Zm6.54,1,11.74-9.21C90.14,83.34,81.29,90.6,81.12,92.1ZM49.55,85.46l-.62-.39-7.46,8.08.45.4C44.16,90.59,47.68,88.78,49.55,85.46ZM74,87.86l.33.43,9.29-7-.53-.64Zm-2.35-1.21,0,0h0Zm-6.72,6.72c.54-.23,1.57-.53,1.55-.69-.21-1.77,1.36-2.15,2.23-3.06s2-2,2.95-3l-7.22,5.93ZM91.07,82.09l-.57-.73-6.25,5,.38.47Z"/></svg>