<svg id="Warstwa_1" data-name="Warstwa 1" xmlns="http://www.w3.org/2000/svg" viewBox="0 0 127.61 116.73"><defs><style>.cls-1{fill:#fff;}</style></defs><title>SBR_bp_menu0</title><path class="cls-1" d="M7.13,17a31.77,31.77,0,0,0,.13-4.22c-.2-2.12-.71-4.21-1-6.33a19.61,19.61,0,0,1,0-3.95c0-.54.53-1,.8-1.51C9.48,2.09,9.19,4.24,9.49,6.07c.55,3.34,1,6.71,1.44,10.07.05.38.18.74.35,1.45A6.7,6.7,0,0,0,12.45,13c-.08-2.23-.47-4.45-.55-6.68a42,42,0,0,1,.24-5.14A3.75,3.75,0,0,1,12.75,0h.61a48.8,48.8,0,0,1,1.39,5.13c.58,3.61,1.14,7.24,1.41,10.88.24,3.22.07,6.46.06,9.7a1.44,1.44,0,0,1-.24.86c-1.65,2-.81,4.09-.43,6.2,1,5.63,2,11.26,3,16.9.57,3.45,1.1,6.92,1.45,10.41.61,6,.93,12,1.65,18a28.5,28.5,0,0,1-.6,8.72c-.21,1.11-.7,2.25-2.06,2.32A2.28,2.28,0,0,1,16.53,87c-.64-3.38-1.32-6.76-1.74-10.17C14.08,71,13.5,65.17,13,59.3c-.46-4.9-.72-9.83-1.24-14.72-.39-3.63-1.06-7.23-1.6-10.85a9.91,9.91,0,0,1-.22-1.51c0-2.39-1.63-3.69-3.37-4.67a6.28,6.28,0,0,1-3.27-4.18C2.06,18,.94,12.7.07,7.31a13.19,13.19,0,0,1,.7-5C.85,2,2,1.55,2.42,1.72a2.57,2.57,0,0,1,1.32,1.6c.5,2.38.76,4.81,1.21,7.2.38,2,.9,4,1.38,6.05,0,.17.21.3.31.45ZM9.38,28c1.13-.07,1.12.68,1.22,1.36.39,2.61.81,5.22,1.12,7.84q.91,7.71,1.71,15.43c.34,3.38.52,6.78.87,10.16.54,5.25,1.1,10.51,1.77,15.74.34,2.67.9,5.32,1.47,7.95.1.47.77.81,1.17,1.21.36-.42,1-.81,1-1.28a37.6,37.6,0,0,0,.83-7.37c-.27-5.58-.78-11.15-1.42-16.7C18.32,55,17.4,47.63,16.24,40.3c-.62-3.93-1.8-7.77-2.72-11.64-.31-.05-.43-1.08-.07-1.42.61-.58,1.43-1.14,1.65-1.87a9.39,9.39,0,0,0,.23-3.46c-.47-5.1-1-10.19-1.57-15.28-.13-1.22-.44-2.43-.66-3.64a4.23,4.23,0,0,0-.44,2.07c.11,2,.3,4,.46,6.07.17,2.23.43,4.48-.75,6.54-.24.42-.76.68-1.15,1-.34-.41-.9-.78-1-1.24C9.78,14.92,9.42,12.36,9,9.81c-.32-2.16-.61-4.32-1-6.47,0-.27-.39-.49-.6-.73L7,2.75c.3,2.8.68,5.59.87,8.39a45.83,45.83,0,0,1,0,6c0,.41-.73,1-1.21,1.08-.28.06-1-.61-1.06-1.05-.71-2.95-1.34-5.92-2-8.89-.36-1.73-.65-3.48-1-5.48A5.22,5.22,0,0,0,1,7.48c.5,2.54,1.07,5.07,1.6,7.61.44,2.12,1,4.23,1.29,6.37C4.28,24.19,9.1,28,9.38,28Z"/><path class="cls-1" d="M127.58,89.92a22.87,22.87,0,0,0-.79-3.24c-2.48-7.62-5-15.22-7.49-22.84-2.57-7.9-5-15.84-7.68-23.72-2-5.8-4-11.58-6.23-17.28-2.14-5.45-4.55-10.81-6.95-16.16A21,21,0,0,0,96,3a1.22,1.22,0,0,0-1-.31,29.49,29.49,0,0,0-4.26.73c-6,2.28-12,4.52-17.89,7C64,14.15,55.15,18,46.28,21.85c-4.32,1.86-8.61,3.78-12.95,5.6a4.62,4.62,0,0,0-2.32,6,9.43,9.43,0,0,1,.51,1.18c1.23,3.68,2.33,7.41,3.7,11C38.71,54.87,42.31,64,45.87,73.17c2.89,7.45,5.73,14.93,8.7,22.36,2.46,6.15,5,12.25,7.64,18.33a4.22,4.22,0,0,0,5.37,2.69,52.64,52.64,0,0,0,6.73-1.95c4.12-1.55,8.19-3.24,12.25-4.95,2.51-1.06,4.95-2.3,7.45-3.38,3.89-1.68,7.85-3.19,11.71-4.94,5.68-2.58,11.27-5.33,16.93-7.95a16.63,16.63,0,0,1,3.11-1A2.33,2.33,0,0,0,127.58,89.92Zm-2.64,1.35c-3,1.24-6,2.65-9,4q-9.16,4.16-18.31,8.35c-3.78,1.73-7.5,3.59-11.32,5.2-4.06,1.72-8.19,3.28-12.33,4.78-2.14.78-4.38,1.31-6.6,1.88a3.8,3.8,0,0,1-3.91-1.43c-1.75-1.85-2.19-4.29-3.12-6.5-2.13-5.09-4.22-10.2-6.24-15.34-1.73-4.41-3.28-8.89-5-13.31C47.2,74,45.21,69.08,43.22,64.17c-1.16-2.88-2.48-5.7-3.55-8.61-2.33-6.35-4.55-12.73-6.78-19.12a17.56,17.56,0,0,1-.9-3.62,12.06,12.06,0,0,1,.29-2.59c.3-2.37,4.72-3.26,7.13-4.31C50.65,21,61.83,16,73.12,11.25c5.93-2.5,12.06-4.56,18.12-6.75a7.49,7.49,0,0,1,2.7-.33c2,.06,2.11.33,2.78,2.21.44,1.24,1.36,2.3,1.9,3.51,2.54,5.66,5.21,11.28,7.47,17,2.15,5.49,3.86,11.15,5.73,16.74q3.51,10.56,6.94,21.14c.75,2.33,1.32,4.72,2.09,7,1.74,5.32,3.55,10.62,5.33,15.92.1.29.2.57.28.86C126.9,90.35,126.62,90.58,124.94,91.26Zm-38-81.87h0ZM121,80.59c-1.4-4.21-2.73-8.44-4.17-12.64-2.07-6-4.21-12.05-6.35-18.07-1.61-4.5-3.16-9-4.93-13.47-2-5.08-4.3-10.05-6.39-15.11-1.35-3.26-2.56-6.58-3.81-9.88-.4-1.06-1-1.39-2.07-1-2.32.83-4.57,1.31-6.37-1h0a40.54,40.54,0,0,1-4.59,2.73c-6,2.56-12,4.92-18,7.51C58.87,22,53.49,24.61,48,27c-2.77,1.22-5.64,2.21-8.46,3.33a2.6,2.6,0,0,0-.71.5A8.5,8.5,0,0,1,40,32.58a4.66,4.66,0,0,1-1,4.11,1.87,1.87,0,0,1-1.33.64c-1.31,0-1.36.65-.95,1.6.53,1.22,1.07,2.42,1.58,3.65q4,9.68,8,19.37c3.22,7.86,6.5,15.7,9.61,23.6,2,5.16,3.8,10.42,5.75,15.62.13.35.77.82,1.07.75a4.22,4.22,0,0,1,4.5,1.68c1.4,1.81,2.64,3.75,4.11,5.85.9-.32,2.12-.7,3.3-1.18,3.33-1.35,6.62-2.79,10-4.1,3-1.18,6.12-2.16,9.12-3.38,3.36-1.37,6.65-2.9,10-4.38q7.6-3.39,15.19-6.8c.73-.33,1.21-.81.68-1.8a3.57,3.57,0,0,1-.27-2.13,2.23,2.23,0,0,1,1.89-2,5.22,5.22,0,0,0,.84-.11,3.06,3.06,0,0,0-.12-1.21C121.64,81.73,121.24,81.19,121,80.59Zm-.68,2.27a3.78,3.78,0,0,0-2.07,4.75c.21.79.16,1.21-.7,1.6-6.83,3.06-13.59,6.27-20.46,9.23-3.65,1.57-7.5,2.67-11.21,4.1-4.24,1.63-8.43,3.41-12.65,5.1-.51.21-1.06.32-1.65.49a4.55,4.55,0,0,1-.27-.49c-1-2.41-2.82-4.16-4.68-5.79-1-.89-2.62-1.13-4-1.67L37.78,38.35A6,6,0,0,0,41,32a1.26,1.26,0,0,1,.44-1.06c6.77-3.12,13.51-6.29,20.35-9.25,6.44-2.79,13-5.31,19.46-8,1.59-.67,3.07-1.61,4.62-2.39.29-.15.83-.26,1-.1,1.78,1.47,3.63,1.11,5.51.32l1.31-.55c.83,1.87,1.63,3.58,2.36,5.31,2.87,6.75,5.87,13.45,8.55,20.28q4.61,11.72,8.74,23.63c2.58,7.39,4.9,14.88,7.35,22.37A1.58,1.58,0,0,1,120.36,82.86ZM86.94,9.39s-.12,0,0,0ZM69,66.52a11.51,11.51,0,0,1-.8-1.62q-2.87-7.07-5.72-14.14c-.45-1.1-.88-2.21-1.33-3.32l-.49,0c-.15,2.43-.23,4.87-.46,7.3s-.61,5-.93,7.43l-.32.08c-2-3.23-4.06-6.48-6.14-9.69-.2-.3-.78-.36-1.18-.54a3.16,3.16,0,0,0-.16,1.19c.17.62.58,1.16.78,1.77,1,2.9,1.86,5.83,2.82,8.73s2,5.77,2.94,8.66l.33,0c.09-.26.29-.54.25-.78a13,13,0,0,0-.48-2Q56,63.25,53.9,56.83l.14-.08,5.45,7.75.4-.12L61.3,50.8c.57,1.32,1.08,2.45,1.56,3.59,1.87,4.5,3.73,9,5.62,13.51A5.43,5.43,0,0,0,69.36,69l.37-.19L70,67C69.43,66.92,69.13,66.77,69,66.52Zm9.57-25.17a1.76,1.76,0,0,0-.17,1.52c1.85,5.42,3.76,10.81,5.67,16.21a9.29,9.29,0,0,0,.57,1.12l.56-.2c-.8-5.28-3-10.18-4.7-15.45,4.05,3.71,7,8.21,11.19,11.42l.54-.26c-.11-.86-.16-1.72-.33-2.56-1.1-5.46-3.46-10.61-4-16.31a2.12,2.12,0,0,0-.77,2.6c.89,3,1.86,6,2.71,9,.5,1.77.83,3.59,1.23,5.39a2.35,2.35,0,0,1-1.17-.71Q85,47.53,80.11,41.89C79.66,41.36,79.2,40.75,78.55,41.35Zm14.66,24c-1,.43-1.94.95-2.91,1.44s-1.92,2-3.31.93a8.29,8.29,0,0,0-5.19,2.74,4.4,4.4,0,0,1-1.34.83,25.49,25.49,0,0,0-3.68,1.52,2.56,2.56,0,0,0-1.09,2.07c.21,1,1.39,1.13,2.28.82,1.46-.51,2.86-1.2,4.28-1.81.31-.13.67-.39.93-.32,1.72.45,3.17-.26,4.55-1.07A19.74,19.74,0,0,1,92.92,70a6.67,6.67,0,0,0,2.14-1.2c.93-.68,1.48-2.33,1-3C95.27,64.78,94.22,65,93.22,65.4ZM81.32,73.48c-1.49.45-2.85,1.86-4.86.95,1.37-1.58,3.12-2,4.86-2.46Zm2.08-2.73a3.33,3.33,0,0,1,4-1.42Zm1.23,2.07-.14-.33c1.21-1,2.39-2.16,4.35-1.37Zm10.49-5.46a1.47,1.47,0,0,1-.52.72A10,10,0,0,1,89,69.87c.23-.62.26-1.25.56-1.43,1.49-.85,3-1.61,4.6-2.32a1.15,1.15,0,0,1,1,.32C95.27,66.61,95.21,67.07,95.12,67.36ZM60.79,42.09a8.2,8.2,0,0,0,2.87-.3c1.48-.41,2.88-1.36,4.36-1.45A7.61,7.61,0,0,0,73.3,38l-4,1.26c1-1.52,2.46-1.69,4-1.87,2.49-.29,4.89-.88,6.64-2.84.42-.47.92-1.35.73-1.75-.39-.83-1.35-.83-2.18-.46-1.62.72-3.23,1.47-4.39,2-1.4-.14-2.5-.53-3.43-.29a7.81,7.81,0,0,0-3.5,1.83A9,9,0,0,1,63.77,38a6.31,6.31,0,0,0-3.61,2.59C59.67,41.46,60,42,60.79,42.09Zm19.06-8.74a8.38,8.38,0,0,1-5.78,2.91C74.05,35.07,77.68,33.17,79.86,33.35Zm-10.15,2c.89-.09,1.77-.27,2.66-.42l.19.57-4.07,2.21C68.87,36.59,68.43,35.48,69.71,35.34Zm-2.21,3.43c-1.1,1.34-4.95,2.74-6.65,2.18C62.85,39.07,64.78,37.67,67.49,38.78ZM80.85,61.9c.39-.17.64-.67,1-1l-.34-.34c-2.38,1-4.78,1.94-7.15,2.94-.73.31-1.1,0-1.29-.62a14.58,14.58,0,0,0-1.3-3,35.51,35.51,0,0,1-2-5.26l6.9-3L76.38,51l-7.32,2.33c-.73-1.78-1.48-3.46-2.11-5.19s-.48-1.73,1.24-2.17c2.05-.52,4.12-1,6.15-1.59a5.11,5.11,0,0,0,1.29-.85l-.31-.39c-1.25.31-2.49.64-3.74.94-1.72.41-3.45.78-5.16,1.22-1.06.27-1.29.9-.85,1.92,1.2,2.76,2.35,5.53,3.48,8.31s2.25,5.49,3.26,8.27c.47,1.29,1.24,1.21,2.2.78s2.16-1.1,3.28-1.57S79.87,62.34,80.85,61.9Zm21.36-19.61c-.27-2.44-.66-4.86-1.12-7.27a12.51,12.51,0,0,0-1-2.46l-.41.14a2.74,2.74,0,0,0,0,.69c.65,3.2,1.43,6.39,1.93,9.61a68.86,68.86,0,0,1,.48,7.23c.07,1.56-.52,1.94-1.87,1.13a6.4,6.4,0,0,1-2.34-2c-1.44-2.54-2.7-5.19-4-7.83-.65-1.37-1.15-2.81-1.72-4.22l-.47,0c0,.37-.22.79-.1,1.1.94,2.46,1.88,4.92,2.95,7.32s2.2,4.74,4.58,6.11a4.47,4.47,0,0,0,2.8.85c1.2-.3,1-1.71.9-2.71C102.66,47.45,102.5,44.86,102.21,42.29Z"/></svg>