<svg id="Warstwa_1" data-name="Warstwa 1" xmlns="http://www.w3.org/2000/svg" viewBox="0 0 112.02 96.98"><defs><style>.cls-1{fill:white;}</style></defs><title>SBR_bp_discount0</title><path class="cls-1" d="M72.14,25.75c.17-.68.4-1.35.58-2,.13-.48.2-1,.32-1.47.18-.68.38-1.35.58-2s.46-1.58.67-2.37.42-1.64.72-2.45.49-1.64.73-2.46.47-1.54.7-2.3c.12-.4.22-.8.35-1.2.21-.65.43-1.29.65-1.94.08-.24.17-.47.24-.71.12-.41.23-.83.36-1.24.2-.65.43-1.28.6-1.93s.24-1.23.38-1.85A2.25,2.25,0,0,0,78.73.27.67.67,0,0,0,78.13,0c-1,.29-2,.34-3,.58a91,91,0,0,0-8.89,2.57c-.81.29-1.65.53-2.48.77-1.05.3-2.11.57-3.16.85l0,.11a3.75,3.75,0,0,1-.44.11c-.44.06-.68.24-.46.8a3.08,3.08,0,0,1-.1,1.82A12,12,0,0,1,59,9.53c-.15.4-.32.78-.48,1.17s-.25.68-.39,1c-.2.51-.4,1-.62,1.51-.13.3-.32.59-.43.89q-.53,1.43-1,2.88c-.28.84-.54,1.7-.8,2.55s-.52,1.77-.77,2.66c-.09.33-.17.67-.27,1-.18.59-.39,1.16-.56,1.75s-.24,1-.37,1.45-.26.95-.4,1.42c-.21.73-.46,1.45-.62,2.19-.3,1.35-.74,2.66-1,4-.12.68-.41,1.32-.58,2-.25,1-.46,2-.69,3,0,.13-.08.26-.11.39-.18.7-.37,1.4-.54,2.11-.1.43-.16.87-.27,1.29-.18.7-.4,1.4-.59,2.1-.09.32-.14.64-.23,1-.15.59-.32,1.18-.47,1.78-.1.37-.17.74-.27,1.1-.2.71-.42,1.42-.62,2.13-.11.4-.17.81-.3,1.2-.19.61-.43,1.2-.62,1.81s-.25,1-.39,1.45-.27.75-.38,1.13c-.26.86-.48,1.72-.76,2.58-.2.61-.47,1.2-.68,1.82s-.36,1.21-.56,1.81-.46,1.33-.68,2c-.28.84-.54,1.68-.82,2.52-.14.42-.32.83-.46,1.26s-.22.78-.35,1.16c-.21.61-.47,1.2-.67,1.81-.29.89-.54,1.79-.82,2.67-.16.5-.35,1-.54,1.49-.39,1-.79,2-1.17,3-.25.67-.48,1.34-.71,2s-.46,1.37-.68,2.06c-.11.34-.19.69-.27,1s-.21.89-.31,1.34-.15.79-.22,1.19c-.12.72-.23,1.44-.36,2.16-.09.49-.19,1-.3,1.48s-.2.86-.31,1.29-.21.88-.35,1.3c-.2.59-.42,1.17-.64,1.76-.06.17-.2.36-.17.52a13.64,13.64,0,0,0,.49,1.78.76.76,0,0,0,1.26.14,1.25,1.25,0,0,1,.89-.56c1.35-.22,2.61-.76,4-.87a21.63,21.63,0,0,0,3.61-.73c2.66-.68,5.3-1.41,8-2.12a8.19,8.19,0,0,0,1.13-.32,1.41,1.41,0,0,0,.67-.53,11.5,11.5,0,0,0,.61-1.51c.24-.64.47-1.29.69-1.94a7.68,7.68,0,0,0,.25-1c.1-.5.17-1,.25-1.5s.13-.83.18-1.24c0-.26,0-.54,0-.8.15-.79.33-1.58.51-2.36.11-.46.21-.93.35-1.38.2-.65.43-1.29.65-1.93.09-.26.2-.5.29-.76.22-.63.43-1.25.65-1.88s.47-1.27.67-1.92a13,13,0,0,0,.49-1.57,11.63,11.63,0,0,1,.64-1.72c.34-1,.66-2,1-3q.4-1.24.81-2.47c.07-.21.18-.42.24-.63.2-.71.37-1.42.59-2.12s.45-1.21.67-1.82.33-.94.47-1.42c.26-.87.51-1.75.77-2.63.11-.39.23-.78.36-1.16.21-.62.43-1.24.63-1.86.12-.39.17-.79.29-1.18.19-.63.42-1.26.6-1.89s.39-1.42.58-2.14c.08-.3.15-.6.24-.9.13-.46.28-.92.41-1.38s.16-.74.25-1.1.29-1,.41-1.5.13-.72.23-1.07c.26-1,.55-2,.81-3,.12-.47.17-1,.27-1.44s.18-.65.26-1,.22-.77.31-1.16.2-1,.32-1.53.23-.76.32-1.14c.18-.78.33-1.57.52-2.35s.39-1.49.57-2.24S72,26.48,72.14,25.75Zm3.47-20.1a6.74,6.74,0,0,0-.42,1.69c-.12.45-.21.9-.31,1.36s-.14.67-.21,1c-.13.6-.25,1.2-.41,1.79s-.39,1.36-.6,2-.46,1.29-.67,1.94-.35,1.28-.53,1.91c-.13.45-.28.89-.42,1.33l-.11.38h-.08c0-.28.08-.55.14-.82.12-.6.24-1.21.37-1.81s.23-1,.33-1.46.15-.79.23-1.19.14-.78.22-1.16c.18-.83.38-1.65.56-2.48s.36-1.62.53-2.44c.09-.44.19-.88.27-1.33a1.32,1.32,0,0,1,1.11-1C75.61,5.47,75.64,5.58,75.61,5.65ZM43.32,91.73a.85.85,0,0,1-.69.58,6.56,6.56,0,0,0-1,.45c-.1-.48.22-.67.47-.89.44-.39.9-.75,1.38-1.15A9.42,9.42,0,0,1,43.32,91.73Zm.37-3a11.85,11.85,0,0,1-2.22,2c-.36.27-.71.55-1.09.81-.69.47-1.37.94-2.08,1.38-.53.33-1.09.6-1.71.94.13-.49.27-.9.35-1.32.12-.57.2-1.16.31-1.73s.18-1,.27-1.45c0-.22.08-.45.1-.68a11.28,11.28,0,0,1,.46-2.51c.14-.42.2-.88.31-1.31s.24-.78.37-1.16l.61-1.81c.2-.58.39-1.17.6-1.75.32-.89.66-1.77,1-2.65s.6-1.68.89-2.53c.13-.37.21-.76.33-1.14.18-.59.36-1.18.55-1.76.12-.37.27-.73.39-1.09.23-.67.47-1.34.68-2s.41-1.49.65-2.22.62-1.63.86-2.47c.16-.58.36-1.15.54-1.72s.32-.94.46-1.41c.21-.68.39-1.37.6-2.05s.42-1.29.61-1.94.35-1.35.55-2,.46-1.4.66-2.11.34-1.41.53-2.12c.11-.41.28-.81.38-1.22.18-.71.33-1.43.51-2.14s.37-1.25.54-1.88c.1-.35.15-.71.24-1.07s.16-.61.23-.91.21-.83.3-1.25.21-1,.33-1.43.17-.68.25-1,.13-.62.2-.93.16-.57.22-.85c.16-.69.3-1.38.45-2.07.22-1,.45-1.93.68-2.89.13-.56.24-1.14.39-1.7s.4-1.29.57-1.94c.13-.49.18-1,.31-1.5s.34-1.21.52-1.82c.05-.19.09-.38.15-.56.24-.82.49-1.64.72-2.46.17-.6.3-1.21.48-1.81s.42-1.3.61-2,.36-1.38.57-2.06.44-1.21.64-1.83c.13-.41.2-.84.32-1.25s.2-.57.29-.86l.43-1.27c.16-.48.35-1,.49-1.44s.35-1.25.51-1.87a11.86,11.86,0,0,0,.31-1.32,9.25,9.25,0,0,0,0-1.2l2-.39.29-.07c.94-.25,1.88-.53,2.82-.75,1.46-.34,2.92-.63,4.38-1s2.8-.7,4.2-1.06c.44-.12.87-.27,1.31-.4a.49.49,0,0,1,.36,0c-.18.15-.36.31-.54.45-.44.33-.88.66-1.33,1s-1.21.76-1.81,1.16c-.44.29-.87.59-1.28.91s-.79.65-1.18,1A14.59,14.59,0,0,0,68.7,8.51a22.85,22.85,0,0,0-1.9,2.44,15.25,15.25,0,0,0-1,2.15q-.37.82-.68,1.67c-.14.37-.22.76-.33,1.14-.18.64-.36,1.29-.54,1.93-.13.49-.25,1-.39,1.46-.21.75-.45,1.49-.65,2.25s-.33,1.42-.51,2.12-.36,1.26-.52,1.9c-.19.79-.35,1.59-.54,2.37-.1.41-.26.81-.36,1.21s-.2.93-.31,1.4-.24.78-.34,1.17-.14.65-.22,1c-.22.83-.46,1.66-.68,2.5s-.34,1.45-.54,2.17-.45,1.38-.65,2.08c-.28.94-.51,1.89-.81,2.82-.2.63-.49,1.24-.71,1.86s-.33,1.14-.52,1.7c-.12.37-.28.73-.44,1.08s-.41.83-.58,1.25a3.29,3.29,0,0,0-.11.73c-.39,0-.16.3-.22.47-.13.37-.23.76-.35,1.14s-.13.47-.2.71c-.21.71-.42,1.42-.65,2.13-.13.39-.32.75-.46,1.13-.25.7-.5,1.41-.7,2.12s-.35,1.45-.54,2.16c-.13.47-.31.93-.44,1.4-.19.69-.34,1.39-.51,2.09-.1.38-.23.76-.33,1.14s-.13.6-.19.9c-.17.82-.33,1.64-.5,2.46s-.37,1.71-.53,2.57c-.09.49-.08,1-.16,1.49s-.22.93-.31,1.39a5,5,0,0,0,0,.66c0,.45,0,.91-.09,1.36-.13.8-.32,1.59-.47,2.38-.09.49-.12,1-.21,1.49s-.24,1.08-.36,1.61-.24,1.12-.39,1.68A17.93,17.93,0,0,1,47,83.51,16.49,16.49,0,0,1,46,85.66c-.38.65-.82,1.26-1.26,1.86C44.38,87.94,44,88.32,43.69,88.73ZM57.63,46a4.59,4.59,0,0,1-.44,1.73l-.11,0L57.53,46Zm-11,41.09c-.08.41-.18.82-.27,1.22s-.24,1-.34,1.54a9.89,9.89,0,0,1-.2,1.12.91.91,0,0,1-.45.44,4.52,4.52,0,0,1-.82.23c0-.23.06-.41.1-.59.13-.63.22-1.26.4-1.87a4.56,4.56,0,0,1,.56-1.09c.34-.54.71-1.05,1.09-1.61C46.72,86.7,46.71,86.91,46.67,87.1Zm2.17.94q-.23,1-.39,2.07c-.06.35-.16.61-.57.67a9.69,9.69,0,0,0-1,.25.77.77,0,0,1,0-.25c.17-.74.37-1.47.53-2.21s.32-1.69.49-2.54c.1-.48.23-1,.34-1.44s.14-.81.23-1.21.23-1,.34-1.47.18-.84.26-1.26c.12-.62.21-1.24.33-1.86.15-.77.3-1.54.46-2.3.09-.45.19-.89.27-1.34s.17-1.06.27-1.59.21-1,.29-1.48.14-1,.23-1.51.23-.88.34-1.32a5.15,5.15,0,0,0,.08-.57c0-.4.08-.81.15-1.21s.2-.73.28-1.1c.12-.57.2-1.15.32-1.72.09-.41.23-.81.34-1.22,0-.18.05-.38.09-.57.12-.64.24-1.28.38-1.92s.27-1,.39-1.47.14-.81.25-1.21.27-.72.39-1.09.15-.63.24-.94c.19-.69.37-1.39.58-2.07s.48-1.59.76-2.37c.09-.26.32-.46.43-.72a8.28,8.28,0,0,0,.29-.91c.12-.4.23-.79.37-1.18s.29-.7.44-1h.15a4.5,4.5,0,0,1,0,.74,5.44,5.44,0,0,1-.41,1.63c-.22.39-.07.81-.32,1.16-.06.08,0,.24,0,.4l-.24-.07s0,0,0,0c.33.43,0,.87,0,1.31a1.69,1.69,0,0,1-.08.48c-.16.76-.33,1.52-.48,2.28s-.24,1.37-.38,2-.27,1.07-.39,1.61c-.07.32-.11.65-.17,1-.1.49-.22,1-.31,1.46s-.19,1.16-.31,1.73c-.09.4-.23.79-.33,1.19s-.14.74-.21,1.11c-.17.84-.32,1.68-.51,2.51s-.38,1.42-.53,2.14-.28,1.63-.44,2.44-.41,1.7-.59,2.55c-.09.4-.11.82-.18,1.23s-.19.78-.28,1.18-.22,1.08-.34,1.61-.2.83-.3,1.25c0,.2-.1.4-.14.61s-.06.46-.11.69-.16.65-.23,1c-.12.52-.26,1-.35,1.57s-.13,1.12-.23,1.67S49,87.51,48.85,88Zm5.87-16.34-.47,2.18c-.11.53-.23,1-.35,1.58s-.23,1.12-.35,1.68-.21.82-.29,1.23c0,.2,0,.42-.07.62s-.1.47-.15.71c-.08.46-.14.93-.25,1.39-.18.81-.41,1.61-.59,2.42-.09.43-.12.87-.2,1.3s-.2.76-.28,1.14c-.12.55-.22,1.1-.34,1.65s-.21.82-.31,1.23c0,.2-.06.41-.1.62s-.13.46-.17.59l-1.33.29a1.65,1.65,0,0,1,0-.3c.18-.92.36-1.84.56-2.76.09-.44.24-.87.34-1.31s.2-1,.29-1.45.15-.79.23-1.19c.15-.72.31-1.44.46-2.15.07-.34.14-.69.21-1s.16-.87.26-1.3.26-1,.37-1.55c.08-.34.12-.69.19-1s.21-1,.3-1.43.19-1.16.31-1.73c.08-.39.19-.77.29-1.16,0-.12.07-.25.1-.37.19-.88.4-1.76.58-2.65s.28-1.6.44-2.39.38-1.67.56-2.51c.09-.43.16-.87.25-1.3s.24-1.06.36-1.59c.19-.86.39-1.72.57-2.58s.27-1.59.43-2.38c.11-.54.27-1.07.39-1.61.09-.38.14-.78.23-1.16s.17-.54.24-.82a1.13,1.13,0,0,0,0-.29c.06,0,.15-.07.16-.11.07-.43.12-.86.19-1.29,0-.13.08-.26.11-.39s.08-.41.14-.61-.13-.47.18-.59a.07.07,0,0,0,0-.07c-.19-.42.12-.76.16-1.15,0-.12,0-.29.07-.36a.54.54,0,0,0,.13-.53,5.88,5.88,0,0,1,.29-1.91c.11-.49.15-1,.26-1.49.16-.72.36-1.42.52-2.14.11-.5.17-1,.28-1.52s.27-1.1.38-1.66.25-1.28.36-1.93c.08-.49.12-1,.22-1.47s.23-.83.34-1.25.21-.92.34-1.38.27-.79.38-1.19.19-.88.31-1.32.28-.8.39-1.21c.18-.7.33-1.42.51-2.12.09-.37.23-.72.33-1.09.16-.6.31-1.21.47-1.82l.42-1.62.34-1.33.51-2c.13-.5.23-1,.39-1.5s.4-1.15.6-1.72a13.2,13.2,0,0,1,.5-1.31,4.87,4.87,0,0,1-.05.58c-.11.55-.24,1.1-.36,1.65s-.3,1.29-.43,1.94c-.08.4-.11.8-.18,1.2s-.17.73-.24,1.09c-.18.89-.36,1.78-.55,2.67-.12.54-.27,1.07-.38,1.6-.15.7-.26,1.4-.41,2.09-.11.54-.26,1.07-.38,1.61s-.14.86-.22,1.29-.17.73-.25,1.1c-.18.88-.36,1.76-.54,2.64-.11.53-.26,1.06-.37,1.6s-.13.84-.22,1.26-.24.81-.34,1.23-.18,1-.28,1.47-.2.91-.28,1.36-.2,1.13-.3,1.69c-.07.38-.15.76-.24,1.13-.19.79-.39,1.57-.58,2.36-.09.38-.17.76-.26,1.15l-.3-.06a.6.6,0,0,0,0,.13,1.36,1.36,0,0,1,0,.93,2.78,2.78,0,0,0-.11.64,1.57,1.57,0,0,1-.13.41c-.14.45.06.94-.24,1.39a1.8,1.8,0,0,0-.11.74c0,.25,0,.51-.22.72-.06.06,0,.22,0,.33-.05.36-.1.73-.17,1.09-.12.62-.27,1.24-.39,1.86-.08.41-.11.84-.2,1.25s-.22.82-.31,1.23-.18,1.11-.29,1.66c-.07.39-.18.77-.26,1.15l-.35,1.57c-.1.44-.2.88-.28,1.32s-.19,1.13-.3,1.7c-.09.41-.22.8-.33,1.2,0,.07,0,.14,0,.21-.14.66-.28,1.31-.41,2s-.29,1.51-.45,2.26C54.88,71,54.8,71.33,54.72,71.71Zm6.61-19.78c-.09.41-.08.85-.14,1.27s-.21,1-.32,1.55-.24,1.24-.37,1.86c-.07.35-.14.69-.21,1s-.19,1-.29,1.43-.21.91-.31,1.37-.27,1.18-.4,1.78-.24,1.19-.37,1.79c-.18.78-.34,1.57-.56,2.35-.17.57-.45,1.1-.64,1.66s-.22.85-.35,1.27-.19.54-.29.81c-.31.79-.64,1.57-.93,2.37-.23.62-.4,1.26-.62,1.88-.13.35-.31.69-.5,1.11,0-.13-.09-.21-.07-.27.14-.53.32-1.06.44-1.6s.09-.8.16-1.19.2-.78.29-1.17.16-.76.24-1.14c.13-.57.26-1.14.39-1.71,0-.14,0-.29.07-.43.17-.81.36-1.61.53-2.42s.31-1.69.49-2.53.35-1.45.5-2.18.3-1.66.47-2.49c.11-.54.27-1.07.38-1.6s.12-.84.22-1.26.26-.82.36-1.23.1-.72.17-1.07.18-.47.24-.71.09-.59.13-.9l.12.06a3,3,0,0,1,0-.47c.11-.48.23-1,.34-1.43a3.1,3.1,0,0,0,.05-.36c.06-.53.1-1.06.18-1.59s.2-.81.28-1.22c.17-.83.33-1.66.5-2.49.09-.44.21-.88.3-1.32s.21-1,.31-1.44.22-1,.32-1.55.15-.81.23-1.21.17-.82.26-1.23.21-1.11.33-1.66c.09-.39.21-.78.29-1.18.11-.57.2-1.15.3-1.72.07-.37.16-.74.25-1.11s.23-.69.3-1c.1-.53.15-1.08.24-1.61,0-.21.12-.42.17-.63.09-.45.14-.91.25-1.36s.27-.8.37-1.22.1-.75.16-1.12c0-.22.08-.43.13-.64.13-.57.25-1.15.38-1.72.1-.42.2-.84.3-1.26s.17-.85.25-1.27c.13-.62.27-1.23.39-1.84.08-.43.12-.86.2-1.28s.17-.69.25-1c.19-.9.36-1.81.54-2.71a15.45,15.45,0,0,1,.45-1.92,2.65,2.65,0,0,1,.65-.78c.38-.4.77-.8,1.15-1.2l.12,0c0,.29-.06.59-.12.88-.11.61-.23,1.22-.36,1.82-.08.38-.21.74-.29,1.12s-.15.83-.23,1.24c0,.23-.09.45-.14.68l-.46,2.15c-.12.54-.25,1.08-.36,1.62s-.22,1.16-.33,1.74-.21,1-.33,1.55c-.19.84-.38,1.67-.57,2.51s-.3,1.49-.46,2.24-.36,1.62-.52,2.43c-.11.53-.19,1.08-.3,1.61-.16.74-.35,1.47-.5,2.21-.11.54-.16,1.09-.26,1.62-.08.39-.21.76-.3,1.15s-.14.81-.23,1.21c-.12.56-.26,1.12-.38,1.69S64.08,39.5,64,40c0,.22-.11.44-.15.66-.15.77-.28,1.54-.43,2.31-.12.62-.23,1.24-.37,1.86s-.37,1.45-.53,2.17c-.11.5-.16,1-.26,1.52s-.24,1-.38,1.57S61.47,51.32,61.33,51.93Zm9.46-33.06c-.11.49-.17,1-.27,1.49s-.21.83-.3,1.25-.21,1-.31,1.51-.18.84-.27,1.26-.21,1.12-.32,1.68-.22,1-.33,1.47-.25,1.19-.38,1.78-.28,1.18-.4,1.77-.17,1.11-.28,1.66-.21.83-.3,1.24-.2,1-.31,1.51A10,10,0,0,0,67,36.8c0,.47-.34.92-.14,1.41a.57.57,0,0,1,0,.33c-.12.5-.26,1-.39,1.5l-.27,1.06-.39,1.54c-.18.72-.35,1.44-.55,2.16-.11.39-.25.78-.36,1.17-.2.7-.36,1.4-.57,2.09-.29.95-.61,1.88-.91,2.82-.2.64-.36,1.3-.57,1.93-.27.81-.57,1.61-.84,2.42-.12.37-.21.76-.32,1.13l-.1,0c0-.24.09-.48.14-.72s.19-.73.26-1.1c.15-.75.27-1.51.42-2.26.1-.52.24-1,.36-1.56.07-.3.14-.61.19-.91s.13-.89.22-1.33.19-.74.26-1.11c.12-.6.22-1.2.34-1.79.06-.31.14-.61.21-.91l.41-1.77c.11-.48.23-1,.34-1.43s.18-.89.27-1.34l.28-1.41c.23-1.15.45-2.3.7-3.45.18-.85.41-1.7.59-2.55.09-.4.1-.82.18-1.22s.23-.77.32-1.15.13-.76.21-1.13c.13-.59.28-1.18.4-1.77s.17-1.08.28-1.61.22-.81.32-1.22a5.37,5.37,0,0,0,.11-.6c.05-.39.08-.78.14-1.16s.16-.6.22-.91c.14-.63.26-1.27.39-1.9.06-.29.15-.58.21-.87.2-.95.38-1.9.59-2.85.16-.74.38-1.48.53-2.23s.28-1.6.44-2.39c.11-.55.27-1.09.39-1.64a12.59,12.59,0,0,1,.21-1.26c.17-.55.2-1.19.91-1.44a3.4,3.4,0,0,0,.76-.54l.11.06c0,.28-.09.56-.14.84-.09.45-.2.9-.3,1.35-.17.74-.34,1.49-.49,2.24-.11.54-.17,1.08-.28,1.62-.08.38-.19.75-.29,1.13,0,.07,0,.14-.05.22-.15.82-.27,1.64-.44,2.45S71,18.14,70.79,18.87ZM112,60.62c0-.39-.07-.78-.07-1.18,0-.83.06-1.66,0-2.48s-.26-1.72-.31-2.6a14.05,14.05,0,0,0-.42-2.38c-.19-.83-.44-1.66-.73-2.7a21.17,21.17,0,0,0-1.18-3.6,17.24,17.24,0,0,1-.78-2,1.31,1.31,0,0,0-.07-.17c-.26-.47-.51-1-.79-1.41s-.37-1.09-.9-1.42c0,0,0-.11-.07-.17-.19-.4-.13-1-.71-1.13,0,0,0,0,0-.07-.08-.66-.73-.94-1-1.48a.32.32,0,0,0-.12-.14c-.48-.25-.73-.73-1.1-1.09s-.47-.64-.78-.81a10.79,10.79,0,0,0-.88-.63c-.59-.27-1.05-.81-1.69-1.06a3.36,3.36,0,0,1-.51-.29c-.29-.18-.56-.4-.87-.55-.51-.26-1-.5-1.55-.72a8.75,8.75,0,0,0-1.09-.39,11.56,11.56,0,0,0-1.17-.24c-.87-.15-1.73-.32-2.6-.41a10.18,10.18,0,0,0-1.72,0c-.65,0-1.31.14-2,.2a7.31,7.31,0,0,0-.92,0,27.45,27.45,0,0,0-5.31,1.74,5.78,5.78,0,0,0-.6.3l-1.4.86c-.17.11-.33.25-.51.35-.63.34-1.26.68-1.46,1.45a1,1,0,0,1-.31.4c-.54.5-1.14.94-1.63,1.49A26.21,26.21,0,0,0,75.1,40.5a18.08,18.08,0,0,0-1.21,1.87,18.45,18.45,0,0,0-.83,1.84c-.27.65-.52,1.31-.77,2a4.3,4.3,0,0,0-.23.8c-.09.57-.16,1.15-.23,1.72s-.16,1.16-.21,1.75c0,.3,0,.61,0,.92,0,.76-.1,1.51-.08,2.27s.13,1.54.19,2.32.08,1.5.2,2.24a29.13,29.13,0,0,0,.66,3.15c.42,1.48.92,2.95,1.4,4.41.21.62.47,1.22.72,1.83.09.23.26.43.33.66a6.44,6.44,0,0,0,.72,1.33c.35.59.63,1.22.94,1.82,0,0,.05.05.08.08a3.61,3.61,0,0,1,.52.6,7.21,7.21,0,0,0,1.42,1.77c.48.46.88,1,1.36,1.43a23.55,23.55,0,0,0,2,1.71,16.4,16.4,0,0,0,2.25,1.43,34,34,0,0,0,3.11,1.38,18,18,0,0,0,2.05.61c.49.13,1,.23,1.48.31s.91.14,1.36.17.67,0,1,0c.75,0,1.51,0,2.26,0a10.47,10.47,0,0,0,1.73-.25,15,15,0,0,0,3.24-1.07l.92-.47c.63-.32,1.28-.62,1.89-1a9.78,9.78,0,0,0,1.19-.87c.6-.48,1.19-1,1.76-1.49a8.81,8.81,0,0,0,.78-.88,10.88,10.88,0,0,1,.69-.84,4.75,4.75,0,0,0,.94-1.34c.2-.41.44-.81.66-1.21s.53-.89.74-1.36.25-.78.39-1.16c.2-.59.47-1.16.62-1.75.24-.92.43-1.86.6-2.8.1-.56.12-1.14.17-1.71,0-.12,0-.25,0-.37C111.93,61.75,112,61.19,112,60.62ZM79.11,71.53l-.66-.69,0-.07.79.37Zm1.91.33c-.08.25-.14.51-.2.77s-.07.3-.1.45c-.25-.21-.53-.42-.8-.66a.32.32,0,0,1-.1-.23,1.51,1.51,0,0,1,.12-.6c.21-.36.54,0,.82-.07A.25.25,0,0,1,81,71.86Zm.56,2a.58.58,0,0,1-.08-.48c.14-.59.31-1.16.47-1.76l1.55-.41-1,3.27A8.91,8.91,0,0,1,81.58,73.85Zm2.77,1.69-.21-.08a.81.81,0,0,1-.66-1.15c.21-.76.42-1.51.61-2.27a8.58,8.58,0,0,1,.19-.88.89.89,0,0,1,.4-.49,3.27,3.27,0,0,0,.94-.81,2.5,2.5,0,0,0,.3-.43l.09,0a11.78,11.78,0,0,1-.64,3.1C85.06,73.56,84.69,74.55,84.35,75.54Zm3-2c-.11.45-.33.88-.45,1.33s-.16.81-.24,1.22c0,.17-.09.33-.14.5a5.22,5.22,0,0,0-.6-.22.39.39,0,0,1-.33-.54c.19-.78.4-1.55.57-2.33.13-.6.19-1.2.29-1.8.07-.39.18-.77.25-1.16.11-.58.2-1.15.31-1.73s.21-1,.32-1.54c.07-.31.16-.62.26-1,.31.28.57.57.88.81a.56.56,0,0,1,.2.73c-.14.46-.2.95-.31,1.42s-.27,1-.38,1.46C87.81,71.6,87.63,72.57,87.4,73.52ZM85.64,56.91a3.87,3.87,0,0,1,.06-.57c.08-.75.16-1.51.26-2.26.06-.49.15-1,.26-1.45s.25-.92.38-1.39A9.44,9.44,0,0,1,87,49.92c.1-.22.4-.35.58-.54a7.21,7.21,0,0,1,2.08-1.24,3.24,3.24,0,0,1,1.93-.42c.27,0,.54,0,.81,0A4.4,4.4,0,0,1,95.42,49c.32.32.68.61,1,1a5.2,5.2,0,0,1,.45.77,6.7,6.7,0,0,1,.88,2c.13.58.41,1.13.55,1.7a21.11,21.11,0,0,1,.42,2.3,11.1,11.1,0,0,1,.08,1.91,8.61,8.61,0,0,1-.28,2.12,6.21,6.21,0,0,1-1,2.19,7.32,7.32,0,0,1-1.17,1.41,3.8,3.8,0,0,1-1.87,1,2.5,2.5,0,0,0-.44.11,4.42,4.42,0,0,0-.58.16A3.47,3.47,0,0,1,92,65.7a5.86,5.86,0,0,1-1.16-.14,4.29,4.29,0,0,1-1-.33,8.67,8.67,0,0,1-1.63-1A7.55,7.55,0,0,1,87.09,63,5.83,5.83,0,0,1,86,60.39a8.12,8.12,0,0,1-.26-2.31A8.16,8.16,0,0,0,85.64,56.91ZM87.12,66l-.08,0c-.09-.12-.23-.23-.25-.35s.16-.2.3-.36Zm2.65,8.08c-.14.5-.33,1-.43,1.51s-.12,1.06-.19,1.7l-.51-.1c-.36-.09-.72-.17-1.07-.28a.2.2,0,0,1-.1-.17c.13-.59.26-1.17.4-1.75.07-.27.21-.53.28-.8.14-.58.25-1.17.38-1.76.17-.78.35-1.55.51-2.34s.31-1.58.46-2.37l1.47.64c-.1.41-.23.86-.3,1.33s-.13,1.13-.22,1.69c-.06.38-.18.76-.27,1.14s-.11.48-.17.72S89.85,73.83,89.77,74.11Zm2.05,2a10.07,10.07,0,0,0,0,1.35c0,.09-.13.24-.2.23-.44,0-.88-.06-1.32-.12a.32.32,0,0,1-.2-.23,4,4,0,0,1,.06-.88c.11-.57.26-1.13.4-1.69.1-.4.24-.8.33-1.21s.2-1.08.29-1.62c0-.18.05-.37.08-.55s.13-.63.18-.95c.1-.63.18-1.26.28-1.9l1.79.19-.27,1.42c-.11.55-.2,1.09-.32,1.63s-.24,1-.36,1.51C92.28,74.24,92,75.18,91.82,76.12Zm3.74-4.32c0,.15-.12.28-.15.43-.14.82-.32,1.63-.4,2.46a20.77,20.77,0,0,1-.54,2.91c0,.08-.1.2-.17.22a6,6,0,0,1-.85.11,1.71,1.71,0,0,1-.57,0c-.12,0-.29-.17-.29-.26a9.41,9.41,0,0,1,.08-1.19c.05-.43.12-.86.2-1.28a5.6,5.6,0,0,1,.19-.56c.15-.47.31-.94.42-1.42s.17-1,.26-1.45.18-1.08.28-1.62a7.45,7.45,0,0,0,.23-1c0-.39.25-.46.54-.53s.83-.22,1.36-.36c-.16.84-.32,1.59-.45,2.34C95.64,71,95.63,71.38,95.56,71.8Zm1.29,5.66L96,77.7c-.26.06-.4-.07-.36-.33a15,15,0,0,0,.22-1.67c.06-1,.32-2,.48-3,.07-.43.07-.87.13-1.31s.16-.76.22-1.15.08-.68.14-1,.13-.53.19-.79a2.45,2.45,0,0,0,.06-.5c0-.4.41-.46.59-.7s.52-.63.79-.94a1.65,1.65,0,0,1,.16-.14A94.57,94.57,0,0,1,96.85,77.46Zm3.7-9.77c-.06.53-.11,1.07-.18,1.6s-.2,1-.25,1.52c-.07.67-.07,1.35-.12,2,0,.35-.1.69-.14,1-.1.86-.18,1.72-.28,2.57a.42.42,0,0,1-.2.3c-.47.18-1,.34-1.49.52.09-.64.18-1.22.26-1.8,0-.29.06-.58.1-.87s.06-.39.08-.58c.06-.44.12-.89.17-1.33.1-.78.19-1.55.29-2.33s.25-1.71.32-2.58c0-.61,0-1.22,0-1.83a4.89,4.89,0,0,1,.45-1.8c.2-.49.3-1,.46-1.53a1.78,1.78,0,0,1,.22-.34c.19.54.53.92.52,1.46,0,.72,0,1.44,0,2.15S100.62,67.09,100.55,67.69Zm2.75,1.39c-.08.58-.13,1.17-.21,1.75s-.16,1-.24,1.47l-.2,1.23c-.08.49-.15,1-.24,1.47,0,.07-.1.13-.16.17l-1.46,1-.15-.08c0-.37.06-.74.11-1.1s.12-1,.19-1.48.11-.77.15-1.15c.06-.57.1-1.14.16-1.71s.17-1.11.23-1.67a6,6,0,0,0,0-.84c0-.63-.06-1.27-.06-1.9s0-1.37,0-1.95l1.89.92c.05,0,.13.07.14.12a5.85,5.85,0,0,1,.12.88,10.4,10.4,0,0,1-.06,1.27C103.47,68,103.37,68.53,103.29,69.07Zm2-1.58c-.08.62-.22,1.22-.32,1.84s-.11.94-.14,1.42c0,.69-.06,1.39-.09,2.08a.6.6,0,0,1,0,.11A2.37,2.37,0,0,1,103.53,74c.12-.72.25-1.4.35-2.09.06-.45.06-.9.1-1.35s.12-.85.15-1.27,0-1,0-1.5a6,6,0,0,0,0-.65c0-.44-.1-.88-.15-1.32a.37.37,0,0,1,.43-.44,2.43,2.43,0,0,0,.59,0c.27,0,.38.09.37.32C105.43,66.3,105.41,66.9,105.33,67.49Zm2.18-.49c-.12.69-.19,1.38-.28,2.07,0,0,0,.05,0,.07.2.54-.17.89-.43,1.27s-.67,1-1,1.44l-.12,0c0-.25.06-.51.08-.76.07-.87.08-1.75.22-2.61a17.75,17.75,0,0,0,.05-2.8.34.34,0,0,1,.31-.39,3.58,3.58,0,0,0,.58-.16c.26-.11.49-.25.74-.38a2.28,2.28,0,0,1,.33-.09C107.82,65.46,107.64,66.22,107.51,67Zm1.07-.24-.13,0c0-.27,0-.53,0-.8a5.83,5.83,0,0,0,.1-1.29c-.08-.51.28-.69.52-1a3.68,3.68,0,0,1,.42-.35A28.06,28.06,0,0,1,108.57,66.76ZM110,58.19c0,.44,0,.88,0,1.32a1.59,1.59,0,0,1-.17.78,8.12,8.12,0,0,1-1.63,2.09,6.09,6.09,0,0,1-1.42.87c-.26.1-.49.34-.75.38a9.88,9.88,0,0,1-1.66.09,4.08,4.08,0,0,1-1.27-.17,6,6,0,0,1-1.27-.69,3.44,3.44,0,0,1-1.36-2.08,3.66,3.66,0,0,1,0-.94c0-.45,0-.9,0-1.34s-.07-1.08-.13-1.61a12.52,12.52,0,0,0-.2-1.5c-.17-.76-.38-1.52-.62-2.26A8.65,8.65,0,0,0,98.94,52c0-.07-.07-.13-.1-.2a8.61,8.61,0,0,0-.62-1.39,20.83,20.83,0,0,0-1.64-2.14,11.79,11.79,0,0,0-1.52-1.42,11.08,11.08,0,0,0-1.31-.8c-.25-.15-.5-.3-.76-.42a1.1,1.1,0,0,0-.37-.09,3.7,3.7,0,0,0-1.54-.16,3.34,3.34,0,0,1-1,.06,2.26,2.26,0,0,0-1.19.45,9.61,9.61,0,0,0-1,.57A6,6,0,0,0,86.24,48c-.28.44-.68.81-1,1.23a6.64,6.64,0,0,0-1.18,2.26c-.21.73-.4,1.47-.54,2.22a5,5,0,0,0,0,1c0,.3,0,.61,0,.91s.08.68.1,1a14.35,14.35,0,0,0,.82,3.72,24.4,24.4,0,0,0,1.07,2.48A5.19,5.19,0,0,1,86,64.68a2.81,2.81,0,0,0,.09.27,2.85,2.85,0,0,0,0,.42c.14.41-.31.81,0,1.23,0,0,0,.17-.08.25s-.25.27-.23.39c.09.52-.35.77-.51,1.16-.23.55-.81.56-1.14.9s-1,.39-1.36.56a4.29,4.29,0,0,1-.67.17c-.54,0-1.07.06-1.61.08a3.8,3.8,0,0,1-1.81-.48,6.13,6.13,0,0,1-1.29-.95,10.24,10.24,0,0,1-1.21-1.22,3.67,3.67,0,0,1-.42-.9,18.1,18.1,0,0,1-1-2.59c-.31-1.22-.74-2.42-1.09-3.64a15,15,0,0,1-.42-2c-.09-.63-.09-1.27-.13-1.91a.34.34,0,0,0,0-.11A4.57,4.57,0,0,1,73,54.71c0-.74,0-1.49,0-2.24s.11-1.36.18-2a9.49,9.49,0,0,1,.15-1.24,19,19,0,0,1,2-5.38A21.14,21.14,0,0,1,77,41.25a24,24,0,0,1,1.8-2.07,3.32,3.32,0,0,1,1.48-1,5.84,5.84,0,0,0,2-.89.93.93,0,0,1,.28-.1c1.14-.38,2.28-.76,3.42-1.13.86-.28,1.72-.58,2.6-.78s2-.36,3-.5a6.85,6.85,0,0,1,1.09,0c.61,0,1.23,0,1.84.06a8.2,8.2,0,0,1,.94.13,12,12,0,0,1,1.24.25c.45.13.89.31,1.34.47a10.65,10.65,0,0,1,2.84,1.52l1.7,1.34A7.57,7.57,0,0,1,104,40.15a11,11,0,0,0,.81.82,3.79,3.79,0,0,1,.42.56c.38.6.72,1.22,1.12,1.81a22.28,22.28,0,0,1,1,2.07,21.06,21.06,0,0,1,1.05,2.82,21.57,21.57,0,0,1,.71,2.25c.25,1,.46,2,.63,3.08.1.59.05,1.2.1,1.8.06.81.15,1.61.22,2.42A3.52,3.52,0,0,1,110,58.19Zm-74.68-.36a9.47,9.47,0,0,0,1-1.18c.3-.41.54-.87.8-1.31.37-.62.78-1.23,1.1-1.88a14.94,14.94,0,0,0,.83-2c.28-.83.51-1.68.7-2.54s.37-1.88.51-2.83c.08-.52.08-1,.11-1.57,0-.31,0-.61,0-.92,0-.73,0-1.46,0-2.19,0-.42-.06-.83-.09-1.25-.06-.68-.11-1.37-.18-2.05,0-.16-.13-.33-.1-.48a8.6,8.6,0,0,0-.37-2.79c-.15-.89-.46-1.75-.7-2.63l-.57-2.09,0,0L38,28.76c-.21-.53-.42-1.06-.64-1.59s-.38-.94-.6-1.39-.42-.77-.63-1.15a11.38,11.38,0,0,0-.55-1.09c-.33-.5-.77-.93-1.08-1.44a10,10,0,0,0-1.35-1.75c-.51-.53-1-1.1-1.54-1.6a18.83,18.83,0,0,0-1.76-1.43c-.56-.4-1.16-.73-1.74-1.09A7.54,7.54,0,0,0,27,15.62c-.79-.31-1.62-.52-2.4-.84a9.28,9.28,0,0,0-2.32-.48c-.59-.08-1.2-.1-1.8-.13-.37,0-.74,0-1.11,0-.79,0-1.56.22-2.36.24a6.31,6.31,0,0,0-2.23.5c-.9.38-1.86.5-2.75,1s-1.56.73-2.3,1.16c-.38.22-.71.53-1.09.73A2.52,2.52,0,0,0,7.25,19a1.53,1.53,0,0,1-.4.53c-.51.48-1.06.91-1.54,1.42s-1,1.15-1.43,1.74A12.35,12.35,0,0,0,3,24c-.35.59-.64,1.22-1,1.82A12.77,12.77,0,0,0,1,28.4c-.11.34-.14.7-.27,1a9.73,9.73,0,0,0-.46,2.34c0,.29,0,.59,0,.88C.13,33.24,0,33.83,0,34.43s0,1.45.05,2.17c0,.46,0,.92.06,1.38.08.76.21,1.52.3,2.28,0,.3,0,.62,0,.92.11.63.23,1.25.41,1.87.51,1.81,1.05,3.62,1.58,5.43a.74.74,0,0,0,.05.14,6.3,6.3,0,0,1,.82,1.87,1,1,0,0,0,.14.3c.24.43.48.85.72,1.27.34.63.65,1.27,1,1.88.2.35.48.65.72,1s.5.78.8,1.14c.44.51.9,1,1.38,1.47.31.31.66.58,1,.88a14,14,0,0,0,1.46,1.26c1.06.7,2.16,1.33,3.27,2a10.17,10.17,0,0,0,1.55.7c.7.25,1.42.46,2.13.67a8.61,8.61,0,0,0,1.17.28,14.72,14.72,0,0,1,1.75.2,9.12,9.12,0,0,0,2.07.14c.4,0,.82-.14,1.22-.08a5.93,5.93,0,0,0,2.17-.31,12.79,12.79,0,0,0,3.86-1.32c.72-.43,1.52-.75,2.23-1.2A12.67,12.67,0,0,0,33.5,59.5C34.13,59,34.76,58.41,35.36,57.83Zm-.2-4.63a1.44,1.44,0,0,1-.07-.49A3.56,3.56,0,0,0,35,51.13c0-.1,0-.29.09-.32.31-.15.64-.26.93-.38A3.57,3.57,0,0,1,35.16,53.2ZM7.86,54.35c-.11-.08-.24-.14-.34-.23A5.65,5.65,0,0,1,7,53.68c-.06-.06-.07-.17-.14-.35L8,54Zm1.73.79a4,4,0,0,1-.47.6c-.13-.14-.44-.33-.53-.59a1.85,1.85,0,0,1,.09-.87s.18-.05.27,0,.28.09.43.12.29,0,.43,0A3.92,3.92,0,0,1,9.59,55.14ZM8.82,53.2a5.54,5.54,0,0,1-1.77-.77,16,16,0,0,1-1.54-1.09A.94.94,0,0,1,5.3,51c-.28-.49-.57-1-.83-1.48s-.57-1.15-.85-1.73a1.4,1.4,0,0,1-.1-.2c-.41-1.37-.84-2.73-1.23-4.11-.21-.74-.36-1.51-.51-2.27-.07-.37-.05-.76-.09-1.14S1.6,39.35,1.56,39c0-.23-.07-.46-.08-.7,0-.59,0-1.18-.05-1.76,0-.23,0-.46,0-.69,0-.53.08-1.07.12-1.6s0-1,.12-1.42a15,15,0,0,1,.85-3.49,20.94,20.94,0,0,1,.92-2.24A15,15,0,0,1,5.52,24c.28-.3.48-.68.76-1,.54-.59,1.1-1.17,1.69-1.72a2.2,2.2,0,0,1,.72-.32c.38-.15.78-.27,1.16-.43s.65-.3,1-.45a8.39,8.39,0,0,1,.79-.33l3.5-1.15a11.27,11.27,0,0,1,1.31-.45c1-.19,1.93-.25,2.87-.49a22.84,22.84,0,0,1,2.67-.15,3.19,3.19,0,0,1,.72.07,11.52,11.52,0,0,1,1.39.15,24.37,24.37,0,0,1,2.5.68,15.73,15.73,0,0,1,1.71.8,13.18,13.18,0,0,1,2.22,1.47,10.39,10.39,0,0,1,1.26,1.19c.5.53,1,1.09,1.43,1.65a15.39,15.39,0,0,1,1,1.29,10.58,10.58,0,0,1,.55,1.11c.13.26.29.5.42.76q.43.82.84,1.64a4.79,4.79,0,0,1,.34.74c.48,1.57.95,3.15,1.4,4.73.17.61.29,1.24.41,1.87.05.3,0,.61.06.92,0,.47.11.93.15,1.4.05.73.08,1.46.11,2.19s.07,1.29.05,1.94-.1,1.07-.16,1.6c0,.23,0,.46-.07.69a11.8,11.8,0,0,1-.17,1.35,10.83,10.83,0,0,1-.5,1.53c-.05.13-.28.18-.4.3a11,11,0,0,1-1.38,1,5.76,5.76,0,0,1-2.09.84,4.2,4.2,0,0,1-2-.13,4.36,4.36,0,0,1-2-1.36,2.52,2.52,0,0,1-.49-.86c-.13-.34-.17-.71-.3-1.05a4.09,4.09,0,0,1-.11-2.26A12.53,12.53,0,0,0,28.91,42c0-.54,0-1.08,0-1.62,0,0,0,0,0-.07-.08-.59-.12-1.18-.25-1.75-.27-1.1-.55-2.2-.9-3.28A10.39,10.39,0,0,0,27,33.63c-.22-.42-.46-.83-.71-1.23-.13-.21-.34-.38-.49-.58a5.17,5.17,0,0,0-.33-.51c-.63-.65-1.26-1.3-1.94-1.9a5,5,0,0,0-1.23-.72A14.62,14.62,0,0,0,20.46,28a7.53,7.53,0,0,0-.94,0,3,3,0,0,0-1.57.24,10.64,10.64,0,0,0-1.36.74,4.75,4.75,0,0,0-.64.43,7.13,7.13,0,0,0-1,.93c-.52.64-.95,1.35-1.47,2a7.37,7.37,0,0,0-1.12,2.46A6.29,6.29,0,0,0,12.15,36c-.07.62-.14,1.24-.18,1.86A5.24,5.24,0,0,0,12,39a22.4,22.4,0,0,0,.92,4.17,18.44,18.44,0,0,0,1.14,2.57,4.75,4.75,0,0,1,.74,1.65c0,.36,0,.72,0,1.09,0,.2.07.39.07.59a3.86,3.86,0,0,1-.81,2.24,9,9,0,0,1-1.21,1.06,3.75,3.75,0,0,1-1.61.65,2.51,2.51,0,0,0-.44.12A3.36,3.36,0,0,1,8.82,53.2Zm5.29-13.61A6.94,6.94,0,0,1,14.27,38c0-.19,0-.39.06-.58.2-1,.4-2.08.63-3.11.14-.59.33-1.17.52-1.75,0-.1.17-.16.26-.24a9.37,9.37,0,0,1,1.86-1.17,6,6,0,0,1,1.61-.57,6.81,6.81,0,0,1,2.25-.16A4.54,4.54,0,0,1,24,31.68a11.83,11.83,0,0,1,1,1.07c.22.29.3.69.52,1A4,4,0,0,1,26.06,35c.16.54.38,1.06.57,1.58l-.13,0c.23.84.49,1.68.68,2.54a5.93,5.93,0,0,1,0,1.29c0,.62,0,1.25-.05,1.86a7.85,7.85,0,0,1-.35,1.5,9.22,9.22,0,0,1-.58,1.43c-.16.32-.45.57-.64.88a5.3,5.3,0,0,1-1.18,1.17,5.39,5.39,0,0,1-2.82,1.1,7,7,0,0,1-2-.16,6,6,0,0,1-1.35-.32,5.93,5.93,0,0,1-1.22-.69,4.89,4.89,0,0,1-.93-.84,4.63,4.63,0,0,1-1-1.53c-.13-.41-.38-.78-.5-1.19a14,14,0,0,1-.28-1.46s0-.08,0-.11A9,9,0,0,1,14.11,39.59ZM10.86,57.05c-.26-.19-.52-.36-.77-.56a.24.24,0,0,1,0-.21q.22-.71.46-1.41a.45.45,0,0,1,.5-.35,4,4,0,0,0,.65-.06Zm2.24.82a2.11,2.11,0,0,1-.28.45,8.34,8.34,0,0,0-.8-.51c-.24-.12-.33-.21-.2-.5A5,5,0,0,0,12,56.5c.1-.39.23-.77.34-1.16s.19-.68.31-1a.46.46,0,0,1,.25-.25,2.25,2.25,0,0,0,1.31-.84c.08-.13.26-.2.48-.35l-.68,2c-.24.7-.5,1.4-.73,2.1C13.19,57.27,13.18,57.58,13.09,57.87Zm2.12-.8a9.9,9.9,0,0,1-.44,1.61,1.93,1.93,0,0,0,.06.61c-.39-.23-.71-.38-1-.59s-.25-.25,0-.45.12-.4.17-.61,0-.23,0-.32a8.9,8.9,0,0,0,.67-1.9c.2-.62.44-1.24.64-1.86.14-.47.23-1,.35-1.44s.23-.83.34-1.25c0-.12,0-.24.05-.36.09-.41.19-.82.29-1.3.37.31.73.6,1.06.92.06.06,0,.26,0,.38-.24.68-.5,1.36-.74,2-.33.94-.65,1.89-1,2.83A10.41,10.41,0,0,0,15.21,57.08Zm1.23,2.63a4.14,4.14,0,0,0-.56-.14c-.23,0-.24-.14-.17-.31.16-.39.35-.76.48-1.16s.25-.87.37-1.31.23-.8.33-1.21.22-.86.32-1.29.22-1,.33-1.44.22-.92.34-1.37a4.55,4.55,0,0,1,.23-.72.32.32,0,0,1,.29-.1,7.23,7.23,0,0,1,.95.32c.06,0,.11.2.08.28-.23.75-.45,1.49-.71,2.23S18.1,55.19,17.8,56c-.11.3-.18.62-.29.92-.21.57-.45,1.13-.67,1.69Zm2.86.66L17.4,60c1.38-2.81,2-5.86,2.85-8.75l1.13.1c0,.24-.06.52-.1.79-.06.46-.1.92-.19,1.37s-.25,1.05-.41,1.57c-.33,1.08-.7,2.15-1,3.24C19.5,59,19.42,59.69,19.3,60.36Zm2.86-1c-.09.39-.13.79-.19,1.16l-1.67,0c0-.17.07-.33.11-.5.25-1,.5-2,.74-2.94.09-.37.11-.75.2-1.12s.23-.69.29-1c.11-.66.18-1.33.26-2A8.17,8.17,0,0,1,22,51.7c0-.17.32-.34.53-.4.4-.12.83-.15,1.24-.24s.51,0,.42.41-.1.85-.18,1.27-.23,1-.37,1.55-.3,1-.45,1.55l-.71,2.36C22.4,58.58,22.25,59,22.16,59.36Zm2.25-.74c-.09.59-.13,1.19-.2,1.77L23,60.46a1.14,1.14,0,0,1,0-.36c.1-.43.22-.85.34-1.27.22-.8.46-1.59.66-2.39.13-.52.18-1.06.29-1.59.07-.37.2-.73.26-1.11.11-.65.19-1.3.28-1.95,0-.33.09-.66.14-1,0-.06.05-.17.09-.17a1.22,1.22,0,0,0,.78-.53s.09,0,.24-.07c0,.32,0,.58-.08.84-.12.8-.24,1.6-.38,2.4-.09.47-.23.93-.33,1.4q-.23,1-.45,2C24.66,57.35,24.51,58,24.41,58.62Zm2.77-2.69c-.08.46-.19.92-.29,1.38s-.15.67-.21,1c-.09.49-.17,1-.27,1.47a.28.28,0,0,1-.17.16c-.3.09-.61.17-1.06.29.05-.28.09-.45.11-.63.13-.85.24-1.7.38-2.54.11-.69.26-1.38.37-2.08s.23-1.61.34-2.41c.14-1.08.27-2.16.42-3.24a1.14,1.14,0,0,1,.2-.42,7,7,0,0,0,1-2.06,3.55,3.55,0,0,1,.26-.55c.12.64.41,1.12.21,1.75a10.19,10.19,0,0,0-.23,1.72c-.06.4-.15.79-.23,1.18s-.16.89-.25,1.33c-.12.64-.25,1.28-.36,1.93S27.28,55.36,27.18,55.93Zm2.26.82c-.09.59-.1,1.19-.17,1.79a.49.49,0,0,1-.19.31,4.67,4.67,0,0,1-.53.26l-.68.37a.89.89,0,0,1-.22,0c.3-1.87.65-3.71.88-5.56s.43-3.62.55-5.44h.19A3.24,3.24,0,0,0,30.53,50a.56.56,0,0,1,.15.45c-.07.55-.16,1.09-.27,1.63q-.3,1.55-.62,3.09C29.68,55.73,29.52,56.24,29.44,56.76Zm3.15-4.4a7.79,7.79,0,0,1-.19,1.06c-.1.43-.25.85-.33,1.28-.15.8-.27,1.62-.41,2.42,0,.06,0,.15-.06.17l-1.37.84s0,0,0,0c.18-2.55,1-5,1-7.55l1.42.51C32.62,51.52,32.63,51.94,32.59,52.36Zm.18,3.77c.13-.77.27-1.42.35-2.08.06-.51,0-1,.06-1.53s0-.85.09-1.27c0-.05.13-.13.2-.14.28,0,.56,0,1-.07-.05.47-.1.92-.15,1.37,0,.15,0,.31,0,.47,0,.48-.1,1-.15,1.45a1.26,1.26,0,0,1-.41.9c-.17.14-.27.35-.42.51A5.74,5.74,0,0,1,32.77,56.13Z"/></svg>