<svg id="Warstwa_1" data-name="Warstwa 1" xmlns="http://www.w3.org/2000/svg" viewBox="0 0 35 121.3"><defs><style>.cls-1{fill:#fff;}</style></defs><title>SBR_beer bootle_mini0</title><g id="_2" data-name="2"><path class="cls-1" d="M21.47,18.88l.14-6.11q-.57.13-1.15.22l.9,5.9S21.47,18.91,21.47,18.88Z"/><path class="cls-1" d="M23.66.6C22.79.39,15.11-.87,9.85,1a2.89,2.89,0,0,0-1.6,1.85c-.54,1.55-.86,3.6.7,3.55-.25,0-.4,1.57-.43,1.81-.36,3.69,3.66,4.36,6.46,4.85a25.74,25.74,0,0,0,5.48,0s4-.76,4.82-1.73c1-1.17.81-3.78.2-5.22C28.11,6.77,26.39,1.26,23.66.6ZM22,1.14C26.61,2,18.59,3,12.33,2.31S15.43.68,22,1.14Zm2.88,7.64a4.15,4.15,0,0,1-1,2.26,4.72,4.72,0,0,1-2.48.77,24.1,24.1,0,0,1-6.45.14c-2-.21-4.55-.35-5.24-2.7a3.08,3.08,0,0,1-.09-.75c0-1,.22-2.28.82-2.45l.25,3s.08,0,.09,0l.38-2.79.05,0a1.39,1.39,0,0,0,1.1.5c.46-.09.58-.61,1-.71.66-.16.76.73,1.25,1s.83,0,1.21-.32c.2-.17.54-.48.82-.43s.46.49.74.69c1,.73,1.42-.91,2.33-.71.42.09.57.7,1.08.76s.8-.52,1.15-.86l.59,3.29s.08,0,.09,0l.14-3.42a5.69,5.69,0,0,1,.56.39l.49,3.91s.08,0,.09,0L24,6.53h0c.09-.11.15-.26.29-.28C24.86,6.2,24.89,8.44,24.84,8.78Zm1.1-3.59s0,.08-.18.1-.19,0-.35-.15c-.3-.32-.7-.62-1.08-.49-.73.26-.25,1.85-1.19.8s-1.62-.86-2.08.29c-.22.55-.33.64-.75.06a1.31,1.31,0,0,0-1.11-.72c-1.21.06-1,2.16-1.75.86-.65-1.1-1.44-1.06-2.12,0-.35.53-.47.57-.75,0-1-2.15-2.23.2-2.55.16-.12,0-.17-.12-.29-.46-.4-1.17-1.19-1.28-2.09-.38s-1.32.18-.82-1.59l1.38.09a.12.12,0,0,0,0-.06L9,3c.08-.22.16-.45.27-.69,3.53,1.6,12.4,1.43,15.65-.13L25,2.3l-.06,0c-.2.11-.5.26-.87.42a16,16,0,0,1-2.84.94,16.67,16.67,0,0,1-3,.41c-.42,0-.77,0-1,0h-.39s0,.05,0,.06l.39,0c.25,0,.6,0,1,.06A17,17,0,0,0,21.29,4a16.48,16.48,0,0,0,3-.78c.39-.14.71-.27.93-.37l.08,0,.13.26-.8.34a19.11,19.11,0,0,1-2.51.79,20.53,20.53,0,0,1-2.65.46c-.74.08-1.23.09-1.23.09s0,.06,0,.06.5,0,1.24,0A20.87,20.87,0,0,0,22.2,4.6,19.66,19.66,0,0,0,24.83,4l.84-.28A2.57,2.57,0,0,1,25.95,5.19Z"/><path class="cls-1" d="M34.91,93.11c0-48,1.27-42.46-6.06-50.75-1.54-1.74-1.76-2.44-2.89-19.91-.44-6.78-.5-10.14-.46-11.38a17.58,17.58,0,0,1-3.74,1.67l.64-.12c0,.25.11.69.17,1.25.11.9.22,2.12.32,3.35s.21,2.46.32,3.38.21,1.52.21,1.52.11,0,.11,0,0-.61,0-1.53,0-2.14.08-3.37.09-2.47.08-3.4c0-.77,0-1.33,0-1.5a5.41,5.41,0,0,0,.79-.3c.11.72,0,6.42.29,12.9a2.17,2.17,0,0,0-.52-.22,5.14,5.14,0,0,0-1.31-.18c-.47,0-.95,0-1.43,0-1,0-1.93.06-2.65.12s-1.2.13-1.2.13,0,.08,0,.08.48,0,1.19,0,1.67.09,2.63.16c.48,0,1,.06,1.39.12a4.43,4.43,0,0,1,1.1.27,1,1,0,0,1,.49.36l0,.06v0c-1,.25-2,.65-3,.86a20.92,20.92,0,0,1-4.33.44,21.35,21.35,0,0,1-4.34-.42,6.89,6.89,0,0,1-1.78-.56,6.18,6.18,0,0,1-.74-.5c.23-4.8,0-12.85,0-13.89a6.76,6.76,0,0,0,.66.31l.52,10s.09,0,.09,0L12,12.49a16,16,0,0,0,3,.53,16.25,16.25,0,0,1-5.64-2.28c0,.06-1,25.72-2.16,29.32-1,3-4,4.8-5.48,7.61S.18,53.79.12,57c-.07,3.74,0,7.48,0,11.22q0,10,0,20.06,0,9.71,0,19.41c0,2.22-.29,4.71.53,6.83a9.28,9.28,0,0,0,4.07,4.31c4.21,2.53,9.42,2.58,14.18,2.45a27.79,27.79,0,0,0,10.4-1.87,10.79,10.79,0,0,0,3.09-2,3,3,0,0,0,1.25-.95,2.39,2.39,0,0,0,.31-.55,2.12,2.12,0,0,0,.11-.34c0-.1,0-.21,0-.31s0-.08,0-.12a7.77,7.77,0,0,0,.82-3c.23-3.05,0-6.22,0-9.29C34.92,99.62,34.91,96.36,34.91,93.11Zm-2.17,19.56a5.9,5.9,0,0,0-1-.61,13.33,13.33,0,0,0-2.61-.83c-.93-.21-1.9-.36-2.91-.48s-2-.22-3.1-.28-2.13-.09-3.21-.08c-2.14,0-4.28.17-6.26.37a40.61,40.61,0,0,0-5.41.77,14.58,14.58,0,0,0-2.09.64,8.81,8.81,0,0,0-.83.38l-.36.19-.31.19a4.59,4.59,0,0,0-.5.36l-.2.15-.15.14-.27.26c-.08.08,0,.2.13.13l.28-.24L4,113.6l.2-.13a4.37,4.37,0,0,1,.51-.31l.31-.17.35-.16a8.48,8.48,0,0,1,.82-.32A14.17,14.17,0,0,1,8.29,112a40.11,40.11,0,0,1,5.36-.45c2-.09,4.09-.12,6.19,0,1,.05,2.09.14,3.11.25s2,.28,3,.45,1.88.37,2.72.61a13.31,13.31,0,0,1,1.69.59l-.81.29c-.32.12-.69.24-1.1.37-.81.26-1.77.52-2.8.78s-2.15.47-3.28.65-2.26.31-3.33.39S17,116,16.1,116H14.93l-.9,0-.79,0c-.06,0-.07.1,0,.11l.79.09.9.09.56,0,.62,0c.86.06,1.87.08,3,.07s2.24-.08,3.39-.18,2.3-.27,3.37-.45c.8-.15,1.56-.3,2.25-.45-.63.26-1.29.52-2,.77a34.46,34.46,0,0,1-4.45,1.16,34.21,34.21,0,0,1-4.59.49,30.89,30.89,0,0,1-4-.14l-.85-.09-.76-.12c-.48-.07-.89-.13-1.23-.21L9.07,117a.06.06,0,1,0,0,.11l1.06.28c.34.1.75.18,1.23.27l.76.15.85.13a31.3,31.3,0,0,0,4.08.33,34.81,34.81,0,0,0,4.7-.28,35.27,35.27,0,0,0,4.62-1,31.79,31.79,0,0,0,3.88-1.42l.3-.13c-3.6,2.94-8.27,3.73-12.85,3.64s-9.89-.2-13.51-3.5c-2.87-2.62-2.46-5.73-2.46-9.28,0-5.88-.37-10.7-.37-16.59,0-1,0-31.57,0-32.56-.07-12.22,6-10.84,7.78-18.25.89-3.63.7-7.48,1.13-11.15,0-.2,0-.41.06-.64,1.35,1.09,4.37,1.33,5.43,1.4a22.46,22.46,0,0,0,4.92-.22,15.73,15.73,0,0,0,4.24-1.05c1.39,25.21,7.41,11.26,8.76,29.27C33.16,66,34.08,109.51,32.74,112.67Z"/><path class="cls-1" d="M23.4,29.69l0,2.29c0,1,0,2.16.08,3.61,0,.73.08,1.52.18,2.38a21.18,21.18,0,0,0,.47,2.78,14.81,14.81,0,0,0,.45,1.52c.1.26.19.52.31.79s.12.27.19.4l.22.39a20.29,20.29,0,0,0,2.36,2.93,11.6,11.6,0,0,1,1.19,1.57,8.46,8.46,0,0,1,.83,1.89,17.74,17.74,0,0,1,.66,4.57c0,.83,0,1.68,0,2.57l0,2.72q0,2.79,0,5.88c0,4.13,0,7.85,0,11.21v9c0,5.32,0,9.31.07,12.27.07,5.92.17,7.72.17,7.72s.12-1.79.27-7.71c.08-3,.16-7,.24-12.27l.11-9c0-3.36.08-7.08.08-11.22q0-3.1,0-5.9l-.05-2.72c0-.88,0-1.74-.07-2.59A18.25,18.25,0,0,0,30.47,50a9.16,9.16,0,0,0-.93-2.06,12.17,12.17,0,0,0-1.29-1.66,20.33,20.33,0,0,1-2.34-2.79l-.21-.35-.18-.36c-.11-.24-.21-.49-.31-.74a14.56,14.56,0,0,1-.47-1.45,21.58,21.58,0,0,1-.54-2.69c-.12-.84-.2-1.62-.26-2.34-.12-1.44-.18-2.62-.24-3.59s-.12-1.72-.17-2.28-.1-1-.13-1.2l0-.35v.35C23.38,28.74,23.39,29.13,23.4,29.69Z"/><path class="cls-1" d="M29.68,55.44A15.78,15.78,0,0,0,29,51.57,13.82,13.82,0,0,0,27.91,49,15.84,15.84,0,0,0,27,47.58c-.24-.35-.43-.58-.54-.73l-.16-.21.13.23c.09.16.25.41.45.78s.48.87.78,1.52a15,15,0,0,1,.91,2.52,16.33,16.33,0,0,1,.51,3.77c0,.74,0,1.54,0,2.41L29,60.66c-.08,4-.16,8.94-.23,15.15-.27,24.87.11,30.27.11,30.27s.5-5.39.77-30.26c.07-6.22.09-11.19.09-15.16q0-1.49,0-2.79C29.73,57,29.74,56.2,29.68,55.44Z"/><path class="cls-1" d="M3.79,51.79A4.28,4.28,0,0,1,4,51.31a9.51,9.51,0,0,1,.91-1.76,30.29,30.29,0,0,1,2.25-2.94,23.9,23.9,0,0,0,2-2.65A15.41,15.41,0,0,0,11,39a20.75,20.75,0,0,0,.43-3.65c0-1,0-1.75,0-2.32s-.08-1-.12-1.21l0-.35v.35c0,.25,0,.64,0,1.22s0,1.33-.1,2.3a22.3,22.3,0,0,1-.59,3.56,15.44,15.44,0,0,1-2,4.69,24.21,24.21,0,0,1-2,2.54,29.75,29.75,0,0,0-2.36,3,10.15,10.15,0,0,0-1,1.89,4.87,4.87,0,0,0-.19.53c-.05.18-.12.36-.16.54-.1.36-.18.74-.25,1.12a29.83,29.83,0,0,0-.38,4.84c0,.85,0,1.72-.06,2.6L2.12,62q0,.69,0,1.4c0,1.9,0,3.89,0,6l.1,20.46c0,5.38.1,9.42.16,12.42.11,6,.23,7.81.23,7.81s.11-1.81.22-7.81c.05-3,.11-7,.14-12.42l0-9.12q0-2.55,0-5.38c0-1.89,0-3.88,0-6s-.05-4.07,0-5.95q0-.7,0-1.39L3,60.69c0-.9,0-1.77,0-2.62a29.8,29.8,0,0,1,.33-4.71c.06-.36.14-.72.22-1.06C3.68,52.12,3.74,52,3.79,51.79Z"/></g></svg>