<svg id="Warstwa_1" data-name="Warstwa 1" xmlns="http://www.w3.org/2000/svg" viewBox="0 0 119 113.99"><defs><style>.cls-1{fill:#262626;}</style></defs><title>SBR_beczka0</title><path class="cls-1" d="M118.66,51.06a.28.28,0,0,0-.05-.36,39.65,39.65,0,0,0,.17-7.49c-.06-1.38-.2-2.75-.35-4.12a5,5,0,0,0-.4-2,.33.33,0,0,0,.22-.33,51.57,51.57,0,0,0-2-8.08c-.2-.6-.41-1.19-.62-1.77v0a.22.22,0,0,0-.11-.23c-.21-.57-.43-1.13-.65-1.7a14.66,14.66,0,0,0-1.19-2.81.36.36,0,0,0-.26-.55c-.64-2.39-2.82-4.84-4.29-6.57a23.07,23.07,0,0,0-3.69-3.54.19.19,0,0,0,0-.19c-1.63-2.38-4.51-4.17-7-5.57-1.59-.91-3.94-2.18-6-1.93a.19.19,0,0,0-.1-.15c-1.51-1-3.67-1.5-5.39-2.15A14.73,14.73,0,0,0,82.77.38,2.93,2.93,0,0,0,81.44.23a5.55,5.55,0,0,0-1.52.13,4.42,4.42,0,0,0-2-.35,5.85,5.85,0,0,0-2.46.47.27.27,0,0,0-.17.2A44.26,44.26,0,0,0,69.06.46a14.52,14.52,0,0,0-5.66.9c-1.57.1-3.15.27-4.72.36-2,.1-4,.13-6,.37a2.9,2.9,0,0,0-1.44-.32c-1.77-.3-6.12-.43-6.52.18a40.45,40.45,0,0,0-5.17.36c-1.84.16-4.34.08-6.07.79-.44.18-2.76.58-3.26,1a.45.45,0,0,0-.26,0,35.34,35.34,0,0,0-5.3,2.12c-1.83.89-4.15,1.93-5.5,3.51-.07.09.1.18.17.14l.17-.1a8.73,8.73,0,0,0,.71,1.57,8.58,8.58,0,0,0,1.31,2.48c.06.06.35.13.31,0v0h0l.28-.07.83-.2c.51-.12,1-.22,1.52-.38.26-.08.15-.49-.11-.41-.53.17-1.09.28-1.63.41a6.12,6.12,0,0,0-1,.22q-.08-.22-.18-.43c1.16-.18,2.31-.62,3.47-.82.27,0,.15-.46-.11-.41-1.18.21-2.36.68-3.55.83L21,11.8c1.49.14,3.11-.67,4.57-.88.27,0,.15-.45-.11-.41-1.46.21-3.1,1.06-4.59.86h-.09l0,0c-.06-.12-.11-.26-.17-.41a30.6,30.6,0,0,0,5.5-1.21A.21.21,0,0,0,26,9.29a29.8,29.8,0,0,1-5.45,1.2l-.1,0a5.47,5.47,0,0,0-.24-.51c2-.38,4-1,6.07-1.36.27,0,.15-.46-.11-.41-2.08.37-4.11,1-6.19,1.38h0l0,0,.73-.43h.1c1.88-.5,3.79-.88,5.68-1.38a.21.21,0,0,0-.11-.41c-1.51.4-3,.73-4.55,1.1q.66-.42,1.34-.82a.23.23,0,0,0,.23.13c1.33-.18,2.63-.51,4-.69.27,0,.15-.45-.11-.41-1.16.16-2.29.42-3.44.61a39.14,39.14,0,0,1,6-2.65.13.13,0,0,0,.1.07h.1a30.92,30.92,0,0,0,.82,5.41l-.4.11c-2.18.69-4.38,2.21-6.4,3.27a25.62,25.62,0,0,0-2.43,1.29.69.69,0,0,0-.24.26.79.79,0,0,0-.37.11l-.2.13h-.05a5.51,5.51,0,0,0-2,1.65c-.69.67-1.37,1.34-2,2s-2.15,2-2.49,3.12c-.15.19-.3.38-.43.57a5.51,5.51,0,0,0-1.36-1.28l1.47-1c.23-.15,0-.52-.21-.37l-1.55,1-.05.05L11.69,21l-.28-.25a27.23,27.23,0,0,0,2.67-1.51c.23-.15,0-.52-.21-.37a28,28,0,0,1-2.79,1.58L10.67,20l-.1-.1c1.38-1,2.84-1.79,4.2-2.79.22-.16,0-.53-.21-.37-1.38,1-2.88,1.86-4.28,2.85l0,0s0-.08,0-.1l0,0h0c.21-.38.42-.75.63-1.12h0C12.21,17,14,16.19,15.45,15c.21-.16,0-.53-.21-.37-1.19.91-2.53,1.61-3.72,2.51q.48-.74,1-1.44c1.3-.82,2.53-1.74,3.8-2.6.22-.15,0-.52-.21-.37-.93.63-1.84,1.29-2.76,1.92.38-.46.79-.91,1.22-1.35,1.54-1.55,3.44-2.65,5-4.13.09-.09-.11-.18-.19-.15a20.93,20.93,0,0,0-7.61,6.62l-.33.19a.2.2,0,0,0,0,.33,15.64,15.64,0,0,0-1.56,3,.25.25,0,0,0-.23.12l-.06.12a.25.25,0,0,0,0,.11,40.81,40.81,0,0,0-3.11,4.55l-.14.09a.21.21,0,0,0-.07.28,35.16,35.16,0,0,0-2.34,4.92l0,0a.18.18,0,0,0-.06.2c-.33.88-.62,1.78-.87,2.69a.11.11,0,0,0,0,.12A11.28,11.28,0,0,0,1.47,36a.22.22,0,0,0-.06.24c-.19.79-.34,1.57-.47,2.31-.38,2.19-.76,5-.06,7.19A11.24,11.24,0,0,0,.5,49c-.16.23-.32.47-.47.72a.21.21,0,0,0,.37.21l.06-.1c0,.17,0,.33,0,.5l0,0a.22.22,0,0,0,0,.31q0,1.71,0,3.42A16.26,16.26,0,0,0,1,58.18a3,3,0,0,0,.45.79.12.12,0,0,0,0,.06A38.58,38.58,0,0,0,3,65.9a15.65,15.65,0,0,0,2.88,5.76c-.12,0-.24,0-.18.17,1.6,4.11,4.53,8.94,8.57,11.05C16.86,85.81,21,88,24.5,89.42a.31.31,0,0,0,.2,0v0l0,0A11.57,11.57,0,0,0,23.3,93c-.54,1.64-1,3.29-1.48,4.95-1,3.52-1.86,7.08-2.9,10.59-.1.34.27.49.61.45a.42.42,0,0,0,.14.07c2.83.68,5.91.51,8.8.59s5.8.78,8.59.58l0,0,.39,0,.93.1a3.67,3.67,0,0,0,2.07,0,.37.37,0,0,0,.23-.44c2.21-2.45,4.61-3.2,7.9-2.94,2.3.18,4.77,1.19,7.07,1.09.28.43.53.86.7,1.09.78,1.05,1.54,2.13,2.37,3.14a.62.62,0,0,0,.51.19,6.28,6.28,0,0,0,1.92.13c1.8.07,3.56.49,5.37.54,1.63,0,3.25,0,4.88.06s3.33.32,5,.27a.59.59,0,0,0,.3-.11,9.83,9.83,0,0,0,2.16.45,6.65,6.65,0,0,0,3.39,0,.2.2,0,0,0,.07-.34l-.09-.07a.12.12,0,0,0,0-.13c-1.23-4.68-2.72-9.28-4.19-13.89.54.07,1.25.23,1.65-.12a.37.37,0,0,0,.15-.37A7.56,7.56,0,0,1,86.56,96a4.83,4.83,0,0,0,1,.08c1.81.23,3.73.84,5.49.7.32.42.6.86.86,1.2.64.82,1.27,1.66,2,2.44a.57.57,0,0,0,.44.16,8.13,8.13,0,0,0,2.25.1c1.41.07,2.81.31,4.22.3s3.07-.05,4.61-.08c1.38,0,2.76.21,4.13.12a.58.58,0,0,0,.28-.11,9.31,9.31,0,0,0,2.25.37,5.33,5.33,0,0,0,2.66-.14.18.18,0,0,0,.07-.3l-.08-.06a.1.1,0,0,0,0-.12c-1.25-4.24-2.74-8.41-4.21-12.58-.88-2.49-1.75-5-2.57-7.5-.36-1.1-.59-2.67-1.3-3.57a.21.21,0,0,0-.28,0,.52.52,0,0,0-.16.26.26.26,0,0,0,0-.1c-.35-.46-1-.4-1.57-.46s-1.34-.12-2-.16l-.09,0h-.09a1.18,1.18,0,0,0-.26,0H104q1.11-1.63,2.11-3.33a27.88,27.88,0,0,0,3-6,1,1,0,0,0,.34-.44,1.18,1.18,0,0,0,.08-.21.23.23,0,0,0,0-.06,22.88,22.88,0,0,0,1.07-4.2c.32-1.12.57-2.27.78-3.42a28.9,28.9,0,0,0,.86-7.11v0c.11-1.72,0-3.5-.07-5.14a43.68,43.68,0,0,0-.26-4.41c-.13-1-.24-2.13-.41-3.2q0-.39,0-.8l.06,0c.3-.15.13-.41-.08-.53a31.41,31.41,0,0,0-2-7.6,27.88,27.88,0,0,0-2.43-5.65c-.76-2.73-2.73-5.05-4.55-7.13-1.33-1.52-2.74-3-4.18-4.39,0,0,0,0,0-.07a3.64,3.64,0,0,0-.6-.8c-1.18-2-3.58-3.5-5.43-4.74A19.59,19.59,0,0,0,88.07,5a8.65,8.65,0,0,0-2.82-1.69,16.83,16.83,0,0,0-3.78-1.64A22.87,22.87,0,0,0,77.57.59H78A11.06,11.06,0,0,1,79.42.8l.1,0h0a2.91,2.91,0,0,0,.52,0,.23.23,0,0,0,.17-.09c1.77.69,3.6,1.23,5.35,2,2.08.93,4,2.37,6.07,3.21,1.17.8,2.39,1.54,3.53,2.33a35.55,35.55,0,0,1,5.48,4.56l.3.33a.19.19,0,0,0,.15.16c.56.6,1.09,1.23,1.6,1.87l0,.13a.22.22,0,0,0,.32.24c.52.66,1,1.34,1.51,2a1.46,1.46,0,0,0,.07.28.21.21,0,0,0,.23.14l.29.42v0a.2.2,0,0,0,.2.26c.88,1.29,1.68,2.67,2.59,3.95a.39.39,0,0,0,.23.37l0,0,.07.09a16.29,16.29,0,0,0,.77,2c.64,1.69,1.28,3.4,1.87,5.13l-.11.42a.22.22,0,0,0,.32.23q.23.68.44,1.37l-.07.3a.22.22,0,0,0,.25.26c.16.53.31,1.07.45,1.6v0a.18.18,0,0,0,.08.22c.1.4.2.79.3,1.19s.14.65.21,1a.29.29,0,0,0,.05.25c.23,1.12.41,2.25.57,3.38l-.12.11c-.17.15,0,.37.19.35q.09.69.16,1.38a.19.19,0,0,0,0,.31c.06.59.1,1.18.14,1.77a.22.22,0,0,0,0,.31q.1,1.68.12,3.37a.2.2,0,0,0,0,.2q0,1,0,2.07a.22.22,0,0,0,0,.19c0,2.22-.18,4.43-.37,6.63a.13.13,0,0,0,.07.13,51.65,51.65,0,0,1-2.27,8,75.31,75.31,0,0,1-4,8.69q-.69,1.22-1.46,2.39a7.3,7.3,0,0,1,.82,0,38.11,38.11,0,0,1,3.38-5,.22.22,0,0,0,0-.23,37,37,0,0,1,2.59-4.67l.06,0a3,3,0,0,0,.89-.48l.45-.08h.06a25.53,25.53,0,0,0-1.34,3c-.06.18.11.28.26.25q-.57,1-1.16,1.95c-.95,1.54-2,3-3,4.51-.23.33-.47.66-.72,1h.06a.71.71,0,0,1,.54.36c1-1.38,1.87-2.86,2.77-4.22s1.73-2.73,2.53-4.14a17.36,17.36,0,0,0,1.63-3.18l.27-.15h0a.38.38,0,0,0,.26-.17.16.16,0,0,0,.1-.2h0a.17.17,0,0,0,0-.21h0v-.07a.14.14,0,0,0-.05-.07l.1-.07a.19.19,0,0,0,0-.28.57.57,0,0,0-.12-.12,50.42,50.42,0,0,0,2-6.12A12.48,12.48,0,0,0,118.66,51.06ZM47.89,1.9a22.05,22.05,0,0,1,3.88.31.21.21,0,0,0,.12,0c2,.75,4.18,1.29,6.25,2a43.11,43.11,0,0,1,5.15,2.35.48.48,0,0,0,.45.33h.19c.32.22.69.39,1,.58A45.22,45.22,0,0,1,69.08,10c1.34,1,2.6,2,3.85,3.09.38.33.74.67,1.11,1,0,0,0,.05,0,.09l.07.06a1,1,0,0,0,.79.78H75q.54.53,1,1.1v.08a.2.2,0,0,0,.24.2q.39.45.75.92c0,.16,0,.33.06.49s.25.19.35.07l.23.32c0,.31,0,.63-.08.94s.4.27.42,0,0-.25,0-.38a60.45,60.45,0,0,1,3.9,7.2c1.22,2.51,2.31,5.07,3.34,7.66s1.78,5.58,2.93,8.24c.22,1.54.5,3.07.63,4.62.15,1.82,0,3.74.16,5.58-.16,1.42-.31,2.83-.48,4.23l-.18.1c-.13.09,0,.23.13.24h0c-.24,1.86-.52,3.71-.92,5.57-.46,2.13-1.19,4.34-1.67,6.55a.2.2,0,0,0-.21.2c0,.07,0,.14,0,.21l-.65.89c-.16.22.21.44.37.21l.21-.29a7.75,7.75,0,0,1-.35,1.46c-1.16,2-2.19,4.17-3.44,6.17a63.28,63.28,0,0,1-4.88,6.65c-.56.68-1.15,1.33-1.74,2-.07,0-.11.08-.12.12l-.65.67a5.9,5.9,0,0,0-.41-.84.25.25,0,0,0-.34-.09.61.61,0,0,0-.16.26l0,0a1.23,1.23,0,0,0-.76-.48,24.5,24.5,0,0,0,2.44-2.73l0,0A47.77,47.77,0,0,0,78,78.9c.6-.92,1.24-1.92,1.82-2.95a.22.22,0,0,0,.05-.07l.07-.16.21-.38c.39-.66.76-1.32,1.09-2l0,0A3.26,3.26,0,0,0,82,71.92a4.29,4.29,0,0,0,.16-.46.49.49,0,0,0,.31-.31,78.61,78.61,0,0,0,2.76-22.61,40.87,40.87,0,0,0-.88-7.13v0a95.5,95.5,0,0,0-4.87-14.83.43.43,0,0,0-.39-.2l-.3-.53q-1-1.87-2.16-3.66a53.59,53.59,0,0,0-5-6.63A43,43,0,0,0,66,10.22,25.2,25.2,0,0,0,60.7,6.81l-.07-.07c-1.11-.77-2.77-1-4-1.43C55,4.71,53.49,4,51.92,3.45a19.19,19.19,0,0,0-5.68-1.5C46.79,1.91,47.34,1.91,47.89,1.9ZM75.85,15h0L76,15v.19Zm.58.8V15h.44c0,.45,0,.91,0,1.36l-.4-.43s0,0,0-.07ZM77.3,15l.66-.07c-.14.8-.2,1.61-.26,2.42l-.34-.44C77.31,16.28,77.3,15.64,77.3,15Zm.79,2.88a26.73,26.73,0,0,1,.31-3l.49-.07c-.1,1.29-.14,2.59-.25,3.88Q78.37,18.28,78.09,17.88Zm5.09,9.6a2.94,2.94,0,0,0,.75.06,12.62,12.62,0,0,1,0,1.49C83.66,28.51,83.42,28,83.18,27.48ZM85,76.09a53.07,53.07,0,0,0,3.24-5.36c.44-.1.9-.16,1.35-.22-1.13,1.85-2,3.86-3.2,5.67-.15.23.21.44.37.21,1.26-1.9,2.14-4,3.37-5.94l1-.11.28,0c-1.24,2-2.16,4.16-3.3,6.21-.13.24.23.45.37.21,1.19-2.14,2.14-4.42,3.47-6.48l1.3-.13C92,72.07,91,74.15,90,76.18c-.13.24.24.46.37.21,1.12-2.13,2.13-4.31,3.42-6.33l.88-.12C93.33,72.26,92.13,74.63,91,77c-.12.25.25.46.37.21,1.17-2.52,2.42-5,3.81-7.4l.35-.06,1-.19a58.51,58.51,0,0,0-4.48,8,.22.22,0,0,0,.3.29l-1.61,2.3c-.28.41-1.47,1.67-1.29,2.24.08.26.49.15.41-.11s1.25-1.93,1.51-2.3c.63-.91,1.29-1.81,1.91-2.73.15-.23-.21-.44-.37-.21l-.46.66a55.4,55.4,0,0,1,4.68-8.21l1.05-.19c-2.18,2.92-3.27,6.53-5.45,9.47a.18.18,0,0,0,.09.28,37.06,37.06,0,0,0-2.32,3.35.2.2,0,0,0,0,.16l-.82.21a.19.19,0,0,0-.33-.06l-.15.18-1.36.3A39,39,0,0,1,91,78.69c.19-.2-.11-.5-.3-.3-1.39,1.46-2.27,3.29-3.47,4.89v0l-.58.1-.53.08a47.91,47.91,0,0,0,3-4.32.21.21,0,0,0-.37-.21,50.24,50.24,0,0,1-3.26,4.61l-1.11.13a26.14,26.14,0,0,1,3.33-4.48c.18-.2-.12-.51-.3-.3a25.58,25.58,0,0,0-3.54,4.84l-1,.1c1.26-1.74,2.54-3.46,3.8-5.2.16-.22-.21-.43-.37-.21-1.33,1.83-2.67,3.65-4,5.48l-.89.11c1.24-2,2.85-3.71,4.06-5.71a.21.21,0,0,0-.37-.21c-1.27,2.1-3,3.89-4.23,6l-.65.1a64.63,64.63,0,0,1,3.52-5.54c.15-.23-.21-.44-.37-.21a59.31,59.31,0,0,0-3.68,5.85l-.87.18c1.38-1.92,2.65-3.91,4-5.81.16-.22-.21-.43-.37-.21-1.49,2-2.83,4.15-4.31,6.18q-.61.16-1.2.38l.74-.88c2.85-3.43,6-7.57,7.62-11.9.07,0,.19.05.22,0l0-.06a.18.18,0,0,0,.05-.1l0-.12.1-.3a.62.62,0,0,0,.44-.1,5,5,0,0,1,1.36-.62,43.34,43.34,0,0,1-3,4.91C84.51,76,84.81,76.31,85,76.09ZM101.17,75c-.05-.13-.22-.22-.33-.08s-.43.56-.63.85q2-3.86,4.15-7.6l.39-.08C103.41,70.32,102.36,72.7,101.17,75Zm4.16-7,.63-.15c-1.24,2.07-2.48,4.13-3.56,6.28L101.1,76C102.55,73.36,103.71,70.55,105.33,68ZM92.55,84a19,19,0,0,1-5.08,6.15.22.22,0,0,0-.07.08l-.91.25-.47.12a2.74,2.74,0,0,0-1.41.24,41.68,41.68,0,0,0,5.2-6.42l.28-.06C88.66,86.21,87.14,88,85.85,90c-.15.23.22.44.37.21,1.38-2.11,3-4,4.52-6l.6-.14c-1.68,1.94-3.21,4-4.93,5.92-.18.2.12.5.3.3,1.86-2.07,3.5-4.31,5.34-6.39.75-.18,1.5-.37,2.25-.58-1.58,2.25-3.33,4.38-5,6.56h0a5.14,5.14,0,0,0-.9.1,21.12,21.12,0,0,0,4.58-5.8A.21.21,0,0,0,92.55,84Zm-8.35,7-.21.1-.89.23q2.41-3.38,5-6.58l.86-.18.2,0a42,42,0,0,1-5.06,6.15A.2.2,0,0,0,84.21,91Zm-3,.83-.7.19c1.35-2.49,3.39-4.49,5.09-6.75l.63-.12c-1.64,2.19-3.43,4.25-5,6.45A.17.17,0,0,0,81.22,91.82Zm-2,3.4L79.4,95h0l.89-.08-.37.18Zm.1,1.4-.26.17.18-.18Zm-.19-4.24c1.9-2.27,3.72-4.6,5.54-6.93l.37-.07c-1.73,2.23-3.74,4.24-5,6.77Zm-.45.11-.68.15c1.7-2,3.47-4,5-6.21.16-.23-.21-.44-.37-.21-1.56,2.24-3.38,4.27-5.13,6.36a.21.21,0,0,0-.05.17c-.43.08-.86.15-1.29.2l-.27-.88c1.56-2,3.22-3.84,4.83-5.77a.21.21,0,0,0,0-.18l.58-.1,2.7-.46c-1.76,2.25-3.52,4.49-5.35,6.67A.22.22,0,0,0,78.64,92.48Zm-.56,5.86h0Zm-4.4-8.25c-1,.78-1.91,1.6-2.89,2.36l-.3-1.1c1-.92,2.36-1.6,3.36-2.47l.09.27-.18.18.1.3.16,0,.08-.08c.09.25.17.46.21.6l.25.83a14.31,14.31,0,0,0-3.48,2.48l-.18-.64c1-.8,2-1.67,3.06-2.49C74.17,90.22,73.88,89.93,73.68,90.1Zm-7-5.3c-.43-.67-1.14-1.32-1.53-1.85s-.6-.84-.9-1.27a.17.17,0,0,0,.12-.14l.45-2.71a13.27,13.27,0,0,0,1.29-1.68c-.42,1.7-.73,3.43-1.12,5.14-.06.27.35.38.41.11.48-2.14.86-4.3,1.45-6.41l.23-.37.24-.37a52.43,52.43,0,0,1-1.13,6.17c-.06.27.35.38.41.11a49,49,0,0,0,1.21-7,.18.18,0,0,0,0-.05c.25-.38.5-.79.74-1.2Q68,76.67,67.42,80c0,.27.36.38.41.11.44-2.67.91-5.33,1.37-8a9,9,0,0,0,.73-1.95l0,0,.34.13c-.66,3.09-1.17,6.22-1.68,9.34,0,.27.36.38.41.11.51-3.1,1-6.2,1.67-9.28l.48.25c-.64,2.66-.72,5.42-1.53,8a.21.21,0,0,0,.41.11c.8-2.59.89-5.31,1.5-7.93.49.3,1,.62,1.46.9-.17,1.33-.34,2.66-.62,4-.06.27.35.38.41.11.27-1.29.45-2.59.61-3.89a5.53,5.53,0,0,0,.72.3l.17.05v0c0,.16-.05.33-.08.49a.2.2,0,0,0-.1.12A4.83,4.83,0,0,0,74,74.56a.2.2,0,0,0,0,.13c-.23.52-.44,1-.63,1.57-.18.25-.36.5-.55.75a.23.23,0,0,0,0,.32A61,61,0,0,1,66.7,84.8Zm.89,1.58,0,.09-.49.27c.05-.14.09-.28.15-.42ZM61,89.4a21.25,21.25,0,0,1-7.41,3.2c-.07-.14-.14-.29-.17-.37s-.2-.37-.29-.55l0-.08a1.24,1.24,0,0,0-.06-.23c-.07-.19-.14-.38-.22-.57s-.08-.22-.12-.33a32.79,32.79,0,0,0,1.6-4.75l.84-.29C54.64,87.23,54,89,53.32,90.76c-.09.26.31.37.41.11.67-1.83,1.37-3.65,1.89-5.54a.21.21,0,0,0,0-.1l.74-.31a39.35,39.35,0,0,1-1.48,4.23c-.11.25.26.47.37.21a43,43,0,0,0,1.62-4.68l.58-.29h0l.19-.1c-.49,1.63-.85,3.3-1.41,4.9-.09.26.32.37.41.11.61-1.75,1-3.56,1.53-5.32l.61-.38c-.44,1.27-.76,2.58-1.17,3.86-.08.26.32.37.41.11.47-1.45.81-2.95,1.36-4.37h0l.63-.42c-.61,1.59-1,3.25-1.55,4.87-.09.26.32.37.41.11.58-1.81,1-3.66,1.77-5.41.26-.18.53-.37.79-.56a.18.18,0,0,0,.09.05c-.49,1.76-1.08,3.5-1.51,5.29-.06.27.34.38.41.11.49-2,1.18-4,1.71-6a6.49,6.49,0,0,0,.51-.5l.13.25c-.69,1.71-1,3.55-1.55,5.3-.09.26.32.37.41.11.56-1.63.82-3.34,1.42-4.95l.35.53c-.47,1.49-.84,3-1.32,4.48-.08.26.32.37.41.11.45-1.38.8-2.78,1.22-4.17l.61.83a11.88,11.88,0,0,0,1.72,2.2A47.23,47.23,0,0,1,61,89.4Zm4.41-2.26-.21.78-.67.45c.06-.21.11-.42.15-.63Zm-1.25,1c-.05.2-.11.41-.17.61l-.65.44a4.16,4.16,0,0,1,.32-.67v0ZM63,89c-.08.19-.14.39-.19.59l-.28.19-.27.16c.06-.19.12-.38.19-.57Zm-1.12.72c-.06.18-.11.36-.17.55l-.51.29c.06-.18.13-.37.21-.55Zm-1.66,1,.48-.28.13-.08c-.05.16-.1.32-.14.48l-.48.25.06-.17A.17.17,0,0,0,60.22,90.68Zm-1,.57.6-.33c0,.14-.09.28-.14.42l-.51.25.06-.13A.21.21,0,0,0,59.2,91.24Zm-.46.24c0,.12-.09.24-.13.36l-.29.14.05-.24a.22.22,0,0,0,0-.08Zm-.84.4c0,.11,0,.21-.07.32l-.87.4a.21.21,0,0,0-.38.12v0L56,93l-1-.07A17.67,17.67,0,0,0,57.9,91.89Zm-3.84,2-.67.23v-.33Zm-2.57-1a.22.22,0,0,0-.2.07l-.16.05a.21.21,0,0,0-.41.08v0a28.44,28.44,0,0,1-5.09,1.09,20,20,0,0,1-3.81.09,12.8,12.8,0,0,1-2.62-.63.29.29,0,0,0,.14-.21A18.87,18.87,0,0,0,39.48,91a.19.19,0,0,0,.12-.09c.42-.72.77-1.48,1.12-2.23a3.73,3.73,0,0,0,.47-1.13h.69a41.29,41.29,0,0,1-2.3,4.19c-.16.22.21.43.36.21,1-1.37,1.6-3,2.44-4.42l.59,0-1.84,3.71c-.12.24.24.46.37.21l2-4,.73,0C43.57,88.7,43,90,42.49,91.28c-.1.25.31.36.41.11.54-1.36,1.13-2.69,1.79-4l.83-.07c-.56,1.26-1.15,2.51-1.81,3.72-.13.24.23.46.37.21.71-1.3,1.33-2.63,1.93-4l.47,0,.41,0c-.72,1.22-1.08,2.63-1.8,3.85a.21.21,0,0,0,.37.21c.78-1.31,1.11-2.87,2-4.13l.9-.12c-.8,1.48-1.3,3.12-2.21,4.55-.15.23.22.45.37.21,1-1.53,1.47-3.28,2.38-4.84l.56-.09a51,51,0,0,0-2.81,6.32c-.08.26.32.37.41.11a54.59,54.59,0,0,1,2.91-6.52l.68-.13c0,.11,0,.23.07.35a.18.18,0,0,0-.26.08c-.92,1.88-1.72,3.8-2.58,5.71-.11.25.25.46.37.21.85-1.89,1.65-3.8,2.56-5.67q.12.5.25,1a38.7,38.7,0,0,0-2.16,4.86c-.1.26.31.36.41.11a42.07,42.07,0,0,1,1.91-4.36l0,.16c0,.15-.08.3-.12.46a.21.21,0,0,0,.28.25l0,.14a.22.22,0,0,0-.13.13c-.36.92-.67,1.85-1,2.77-.1.26.31.37.41.11.25-.65.49-1.3.73-2a.19.19,0,0,0,.21,0A7.77,7.77,0,0,0,52,92.69Zm.37.54a4.06,4.06,0,0,0-.1,1.08l-.09,0v-1l.18-.08Zm-.71.87v-.6l.09,0v.94l-.28.05-.84,0V94l.61-.19v.45A.21.21,0,0,0,51.16,94.28Zm-1.45-.14v.44c-.6,0-1.2-.05-1.8-.06C48.5,94.42,49.11,94.29,49.7,94.14ZM34.93,92.53c1.29-1.31,2.53-2.68,3.81-4,0,.21,0,.42,0,.63-1.1,1.28-2.29,2.48-3.39,3.76a.21.21,0,0,0,0,.22c-.49-.08-1-.16-1.4-.26s-1-.23-1.47-.35l-.64-.2A41.87,41.87,0,0,1,26,89.76l-.07,0a.45.45,0,0,0-.15-.06l-.32-.16s0,0,0,0a.23.23,0,0,0,0-.08,2.9,2.9,0,0,0,.51-.82.23.23,0,0,0,.4.11,20.33,20.33,0,0,1,3.06-3l.63.22c-.93.86-1.92,1.63-2.82,2.52a.21.21,0,0,0,.3.3c1-.94,2-1.76,3-2.67l.54.16a34.56,34.56,0,0,0-3,2.73.21.21,0,0,0,.3.3,32.19,32.19,0,0,1,3.17-2.88l.91.23a20.29,20.29,0,0,0-3,2.7c-.18.21.12.51.3.3A21.32,21.32,0,0,1,33,86.71l.74.15a33.23,33.23,0,0,1-3.2,2.73c-.23.15,0,.52.21.37,1.29-.85,2.32-2,3.51-3l.89.15a24.91,24.91,0,0,0-3.84,3.76c-.16.22.21.43.37.21a27,27,0,0,1,4-3.9l.75.1c-1.18,1.24-2.44,2.39-3.72,3.54-.2.18.1.48.3.3,1.36-1.21,2.7-2.43,3.94-3.77l.85.08L33.6,91.71a.21.21,0,0,0,.3.3l4.47-4.5h0l.5,0c0,.11,0,.22-.07.34l-.05,0c-1.4,1.42-2.73,2.91-4.13,4.33C34.44,92.42,34.74,92.72,34.93,92.53Zm3.54,1h-.05c-.06,0-.18,0-.2.07l-1.05-.07-.11,0a12.91,12.91,0,0,0,1.44-1.25c0,.39,0,.78-.06,1.16A.29.29,0,0,0,38.47,93.49Zm-2-.14-.84-.15c1-1.15,2-2.23,3-3.36v.07c0,.55-.09,1.11-.13,1.66A12.53,12.53,0,0,1,36.48,93.34ZM23,74.35a.2.2,0,0,0-.24.13,5.65,5.65,0,0,0-1-.09v0A12.36,12.36,0,0,1,24,68.2a7.87,7.87,0,0,1,2.47-2.3h0a5.83,5.83,0,0,1,.83.15c.13,0,.24.11.36.16s0,.26.07.38a1,1,0,0,1,0,.13.22.22,0,0,0-.22.32,1.71,1.71,0,0,0,.1.14,3.09,3.09,0,0,0-.52.45l-.08-.12c-.13-.24-.49,0-.37.21a1.3,1.3,0,0,0,.16.24l-.17.24a3.2,3.2,0,0,1-.52-.39c-.2-.19-.5.11-.3.3a3.62,3.62,0,0,0,.59.45l0,.08a5.24,5.24,0,0,0-.81-.52c-.24-.12-.46.24-.21.37a4.92,4.92,0,0,1,.82.53l-.09.2a12.27,12.27,0,0,0-1.21-.75c-.24-.12-.46.24-.21.37a12.89,12.89,0,0,1,1.27.79l0,.08-.08.27a8.85,8.85,0,0,1-1.43-1c-.2-.19-.5.11-.3.3a5.48,5.48,0,0,0,1,.72.08.08,0,0,0-.07,0l0,.08a2.59,2.59,0,0,1-.78-.45c-.2-.19-.5.11-.3.3a3.08,3.08,0,0,0,.91.54l-.08.18a7.81,7.81,0,0,1-.92-.36c-.24-.12-.46.25-.21.37a8.59,8.59,0,0,0,1,.39c0,.13-.1.26-.14.39a2.32,2.32,0,0,1-.59-.43c-.2-.19-.49.11-.3.3a2.75,2.75,0,0,0,.76.53c0,.11-.06.22-.09.34l-.64-.19c-.26-.09-.37.33-.11.41l.68.2c0,.09,0,.17,0,.26l-.72-.18a.21.21,0,0,0-.11.41l.95.24a.26.26,0,0,0,.14,0l.7.18c0,.15-.09.3-.13.45a8.12,8.12,0,0,1-1.84-.6c-.24-.12-.46.25-.21.37a8.27,8.27,0,0,0,1.74.59c-.3,0-.6.09-.88.1Zm.75,5.22-.2.26-.55-.5c-.25-1.42-.23-2.9-.34-4.33l.76.09C23.56,76.58,23.7,78.07,23.72,79.57Zm-1.25-.72-.27-.25c-.12-1.27-.39-2.52-.44-3.79a3.28,3.28,0,0,0,.44.12C22.31,76.23,22.3,77.56,22.47,78.86Zm-1.14-4.24c0,1.18.26,2.34.4,3.51l-.38-.38c-.22-1-.38-1.95-.64-2.91a.21.21,0,0,0-.41.11c.2.73.34,1.47.49,2.21l-.62-.68c-.1-.49-.2-1-.32-1.47-.06-.27-.47-.15-.41.11s.11.47.16.7a41.26,41.26,0,0,1-3.12-4.14c2.25-2.33,4.37-4.79,6.54-7.19,2.61-2.88,5.4-5.65,7.92-8.61,0,.19,0,.38,0,.54a2.32,2.32,0,0,0,.12,1.05,6.43,6.43,0,0,0-.81.15.35.35,0,0,0-.23.23l0,0a2.61,2.61,0,0,0,0,1.58l-.31.09c-.16.05-.4.28-.39.47a.53.53,0,0,0-.18.31c0,.12,0,.45,0,.53,0,.4,0,.8-.07,1.2a10.35,10.35,0,0,1-.22,1.9v0c-1.77,0-3.81,2.12-4.86,3.26A11.5,11.5,0,0,0,21,74.37C21,74.53,21.16,74.61,21.33,74.62ZM15,63.77c0-.27-.45-.16-.41.11.26,1.63,0,3.43.21,5.09l-.15-.28a36.46,36.46,0,0,1-1.63-4.59l.1-.13.1.25c.1.25.51.14.41-.11l-.2-.51.32-.39.18.38c.13.24.49,0,.37-.21s-.17-.35-.26-.53l.6-.72a.22.22,0,0,0,.19-.23c1.72-2,3.51-4,5.21-6.07s3.52-4.28,5.31-6.39c1.18-1.4,2.52-2.73,3.73-4.14a1.94,1.94,0,0,0,0,.2,2,2,0,0,0,3,1.48l.14.14c.07.07.12.14.19.2a.59.59,0,0,0,.4.11c-.08.9,0,1.82,0,2.71a18.44,18.44,0,0,0,.06,2.48,4.62,4.62,0,0,0-1.67.31.06.06,0,0,0,0,.1,0,0,0,0,0,0,0,.4.4,0,0,0,.16.3l-.16.08a.1.1,0,0,0,0,.15,1.55,1.55,0,0,0-.14.87c0,.24-.05.47.08.63h0c-.08,0-.07.12,0,.15C28.24,58,25.71,61,23.09,63.82c-2.29,2.49-4.65,4.94-6.84,7.53q-.36-.55-.7-1.12a.2.2,0,0,0,0-.05C14.84,68.2,15.36,65.83,15,63.77Zm-3-4c-.05-.27-.1-.54-.15-.82s-.08-.47-.11-.71c.55,1.49,1.07,3,1.74,4.43l-.28.36C12.8,61.94,12.4,60.86,12,59.76Zm.89,3.66,0,.07-.16-.61Zm.19-14.06c-.62-1.41-1.1-2.88-1.69-4.3q.07-.72.16-1.45a38.28,38.28,0,0,1,1.49,4,.21.21,0,0,0,.41-.11,48.59,48.59,0,0,0-1.79-4.74q.09-.65.19-1.31a28.57,28.57,0,0,0,1.9,4.48c.13.24.49,0,.37-.21A28.13,28.13,0,0,1,12,40.53l.07-.39.31-.44c.51,1.39,1.14,2.74,1.69,4.11.1.25.51.14.41-.11-.6-1.47-1.27-2.91-1.8-4.41L13,38.9a28.68,28.68,0,0,0,1.82,4.61c.13.24.49,0,.37-.21a29.74,29.74,0,0,1-1.87-4.79v0l.4-.55a23.29,23.29,0,0,0,1.81,4.37c.15.23.51,0,.36-.21A25.53,25.53,0,0,1,14,37.54l.51-.67A32.83,32.83,0,0,0,16,40.75c.11.25.47,0,.37-.21a29.82,29.82,0,0,1-1.56-4.09l.1-.14A.24.24,0,0,0,15,36.2l.36-.47c.34,1,.76,2,1.14,3.07.1.25.5.14.41-.11-.42-1.12-.87-2.22-1.23-3.36l.43-.55c.38.83.74,1.67,1.1,2.51.11.25.47,0,.36-.21-.38-.89-.76-1.79-1.17-2.67l.51-.65.81,1.63c.12.25.49,0,.36-.21l-.88-1.78.4-.49c.16.36.29.74.46,1.1s.48,0,.37-.21-.32-.82-.52-1.21l0,0,.2-.24h0a2.49,2.49,0,0,1,.31.65c.12.25.48,0,.37-.21a2.7,2.7,0,0,0-.38-.74l0,0c1.83-2.24,3.69-4.46,5.52-6.71,2-2.41,3.83-4.91,5.73-7.37a.68.68,0,0,0,0,.2c.22.54.54,1,.8,1.54.12.24.49,0,.37-.21s-.35-.65-.52-1c-.08-.15-.16-.3-.23-.46h0a.22.22,0,0,0,0-.36.47.47,0,0,0-.18-.07l.1-.13.6-.75a22.3,22.3,0,0,1,.89,2.05c.09.26.5.15.41-.11-.27-.8-.66-1.54-1-2.3l.66-.79a12.65,12.65,0,0,1,1.14,2.34c.09.26.5.15.41-.11a13.57,13.57,0,0,0-1.25-2.57l.46-.53a31.39,31.39,0,0,1,1.42,3c.1.25.51.14.41-.11a34.32,34.32,0,0,0-1.52-3.26l.59-.65c.49,1.09,1,2.16,1.58,3.21.13.24.5,0,.37-.21-.59-1.09-1.13-2.21-1.64-3.34l.54-.59q.83,1.75,1.76,3.45c.13.24.5,0,.37-.21q-1-1.76-1.82-3.57l.55-.6c.46,1,1.08,2,1.59,3,.12.24.49,0,.36-.21-.54-1-1.19-2-1.65-3.12l.47-.51c.6,1.23,1.27,2.42,1.84,3.67.11.25.48,0,.37-.21-.58-1.28-1.27-2.5-1.88-3.76l.55,0c.67.94,1.19,2,1.82,3,.15.23.52,0,.37-.21-.59-.9-1.09-1.87-1.69-2.76l.75,0c.57.92,1.07,1.88,1.6,2.82a.21.21,0,0,0,.37-.21c-.49-.87-1-1.76-1.48-2.62l.63,0a21,21,0,0,0,1.34,2.52.21.21,0,0,0,.37-.21,21.13,21.13,0,0,1-1.26-2.34l.7-.1c.4.77.84,1.53,1.23,2.31.12.24.49,0,.37-.21-.37-.74-.78-1.46-1.16-2.19l.33-.09a21.17,21.17,0,0,0,1.32,2.32.21.21,0,0,0,.37-.21,20.1,20.1,0,0,1-1.3-2.25l.13-.05c.13-.06.11-.15,0-.24l.45.1a.22.22,0,0,0,0,.27c.35.44.69.88,1,1.34.15.23.52,0,.37-.21-.3-.45-.64-.88-1-1.31l.76.17a.21.21,0,0,0-.12.36,3.09,3.09,0,0,1,.81,1.12c.09.26.5.15.41-.11a3.55,3.55,0,0,0-.91-1.31l0,0c.66.15,1.31.31,2,.52s1.07.36,1.6.56l-.23.2h0c-.11-.25-.48,0-.37.21l0,.1-.45.44L45.65,12c-.09-.26-.5-.15-.41.11l.15.4-.52.56a.21.21,0,0,0-.15.17l-.45.5h0c-.09-.25-.5-.14-.41.11l.09.24-.4.45c-.12-.23-.48,0-.36.22l.06.12-.37.41-1.45,1.6a.22.22,0,0,0-.29.29v0l-.7.77c-.14-.15-.44,0-.36.19l.06.16-.74.84c-.14-.15-.43,0-.33.27l0,.07-.6.67c-.14-.1-.39.09-.3.3v0l-.06.07-.73.85-.06-.12c-.12-.25-.49,0-.37.21l.13.26-.57.66-.05-.1c-.13-.24-.5,0-.37.21l.12.23-1.5,1.77c-.14-.18-.45,0-.34.25l0,.1-.35.42c-.11-.24-.5-.13-.4.12l.1.24-.51.61,0-.1c-.09-.26-.5-.15-.41.11l.14.36-.49.59a.22.22,0,0,0-.16.19l-3.61,4.38c-3.1,3.77-6.37,7.4-9.6,11.06L17,45.29a.19.19,0,0,0-.17.19l-1.4,1.61c0-.09-.05-.18-.07-.27-.06-.27-.47-.15-.41.11s.1.37.15.55l-.73.86,0-.14c-.06-.27-.47-.15-.41.11s.08.29.11.43q-.74.9-1.45,1.82c-.5-1-.93-2.09-1.34-3.17q0-.71.09-1.41c.47,1.2.89,2.41,1.41,3.59C12.87,49.83,13.23,49.61,13.12,49.36Zm.41-11.85c-.32.45-.64.91-1,1.37l-.12-.37,0,0q.29-1.38.66-2.74c.16.42.31.84.47,1.26a.23.23,0,0,0-.12.3Zm19.88-25.7a6.69,6.69,0,0,1-.47-.77l.24-.12c.08.17.16.33.25.5l.31.68-.54.57L32.9,12a.17.17,0,0,0-.26-.08c-.08-.2-.16-.4-.23-.6l.16-.08A7,7,0,0,0,33,12C33.2,12.26,33.57,12,33.42,11.81Zm.18-1,.48,0a1.54,1.54,0,0,0,.39.61h0l-.35.34a.2.2,0,0,0-.06-.14,1.93,1.93,0,0,1-.25-.33l-.06-.14A.19.19,0,0,0,33.7,11Zm1.34-.11.32,0-.26.23Zm35.54,5.4a1.32,1.32,0,0,0,.35-.08l.21.25c-.15-.13-.44,0-.35.2.51,1.28.53,2.7,1,4,.1.25.51.14.41-.11-.51-1.28-.53-2.69-1-4l0-.06.56.66a.2.2,0,0,0-.07.21c.16.64.31,1.28.52,1.9.08.26.49.15.41-.11-.16-.48-.28-1-.4-1.46,1.18,1.45,2.27,3,3.29,4.54.76,1.16,1.46,2.36,2.14,3.58.22.4.42.85.62,1.28a7.59,7.59,0,0,0-1.18.36c-.68.23-1.38.4-2.05.67a.64.64,0,0,0-.27.2v0c-1.26-2.13-2.53-4.29-3.91-6.37a.21.21,0,0,0,0-.18c-.34-1.79-.78-3.56-1-5.37l.14,0,.15,0c.22,1.49.62,2.94.8,4.43,0,.27.46.27.42,0C71.09,19.07,70.69,17.61,70.47,16.11ZM78.84,35c.3-1.55.47-3.12.87-4.64q.24.77.49,1.53a15.6,15.6,0,0,0-.58,3.4c0,.27.39.27.42,0a22.25,22.25,0,0,1,.38-2.73l.34,1a.19.19,0,0,0-.1.13A10.1,10.1,0,0,0,80.31,36a.21.21,0,0,0,.42,0A8.65,8.65,0,0,1,81,34.15l.61,1.75A40.38,40.38,0,0,1,83,41.16l-.77.14h0l-.6.1a6.69,6.69,0,0,0-2.2.47c-.11-.78-.33-1.55-.49-2.29-.3-1.46-.67-2.9-1.09-4.33-.28-.95-.58-1.93-1-2.89a.22.22,0,0,0,.28-.13c.46-1.33.48-2.77.9-4.1a4.19,4.19,0,0,0,.62-.26,3.85,3.85,0,0,0,.57.72q.14.53.29,1a.21.21,0,0,0,0,.07,46.41,46.41,0,0,0-1,5.19C78.38,35.15,78.79,35.26,78.84,35Zm3.59,28.08c.5-1,1-2.06,1.39-3.12a67.07,67.07,0,0,1-1.64,8,.19.19,0,0,0-.28.07c-.38.76-.82,1.49-1.2,2.25a.16.16,0,0,0,0,0h-.19l-.41,0a35.33,35.33,0,0,1,2.17-3.86c.13-.24-.24-.46-.37-.21a29.43,29.43,0,0,0-2.28,4.13l-1,.14c.66-1.4,1.48-2.7,2.23-4.05.13-.24-.23-.45-.37-.21-.8,1.44-1.68,2.84-2.36,4.34l-.85.12c.87-1.72,1.84-3.39,2.71-5.11.12-.24-.24-.46-.37-.21C78.87,67,78,68.52,77.2,70.06c.13-.41.24-.83.37-1.23s.32-1.05.48-1.58.56-1.07.79-1.64c.07-.16-.13-.31-.27-.26l.05-.2a36.07,36.07,0,0,0,1.18-7.06.49.49,0,0,0,.3-.18,1.41,1.41,0,0,0,.33,0c-.27.67-.55,1.34-.79,2-.09.26.32.37.41.11.25-.74.57-1.46.86-2.19l.3-.06h0l.51.09c-.75,1.24-1.24,2.62-1.93,3.91-.13.24.24.46.37.21.71-1.34,1.2-2.8,2-4.07h.55a49.64,49.64,0,0,0-2.28,4.94c-.1.26.31.37.41.11a51.46,51.46,0,0,1,2.36-5.1,2.7,2.7,0,0,0,.82-.25c0,.21,0,.42-.07.63a.21.21,0,0,0-.08.11,36.72,36.72,0,0,1-1.87,4.45C81.94,63.1,82.31,63.32,82.43,63.07Zm-.51,5.83q-.21.77-.44,1.54a1.26,1.26,0,0,0-.34-.09C81.39,69.86,81.66,69.38,81.92,68.9Zm-11.36.48-.12-.18a41.43,41.43,0,0,0,3.7-12.25,9,9,0,0,0,2.6.35,14.94,14.94,0,0,0,2.39.26,42.14,42.14,0,0,1-1.59,8c-.34,1.19-.73,2.37-1.12,3.55,0,.11-.08.22-.12.33a7.77,7.77,0,0,0-.92,1.8l-.3.42c-1.6-.28-2.93-1.68-4.53-1.79a1.55,1.55,0,0,0,0-.23A.43.43,0,0,0,70.56,69.37Zm-.46-1.19c-.13.39-.26.77-.38,1.17a.18.18,0,0,0,0,.07h0c-.08.08-.15.17-.23.25-.26-2.28-.79-4.5-1.14-6.77,0-.27-.45-.15-.41.11.36,2.37.93,4.7,1.17,7.09-.12.15-.24.31-.36.48-.37-2.05-.77-4.1-1.26-6.12-.06-.27-.47-.15-.41.11.52,2.16.94,4.34,1.33,6.52-.21.34-.42.7-.62,1.06a64.59,64.59,0,0,0-1.51-6.48c-.09-.26-.5-.15-.41.11.8,2.24,1,4.62,1.63,6.92l-.55,1c-.87-1.89-1-4-1.52-6a.21.21,0,0,0-.41.11c.52,2,.68,4.18,1.57,6.11a.17.17,0,0,0,.19.11c-.14.25-.28.5-.42.74l-.46.73A46.83,46.83,0,0,1,64,67.75c0-.27-.45-.16-.41.11a47,47,0,0,0,1.89,8,.2.2,0,0,0,.1.12q-.45.67-.93,1.32a12.28,12.28,0,0,1-1-3.89c-.29-1.53-.51-3.07-.84-4.59-.06-.27-.47-.15-.41.11.4,1.8.65,3.63,1,5.44a9.44,9.44,0,0,0,1,3.27c-.25.31-.54.61-.82.91-.35-1-.82-3.26-.92-3.6-.4-1.4-.77-2.81-1.05-4.24-.05-.27-.46-.15-.41.11.54,2.72,1.41,5.35,2.12,8a3.72,3.72,0,0,0-.6.94,50.46,50.46,0,0,1-2.14-6.83c-.06-.27-.47-.15-.41.11A51,51,0,0,0,62.37,80a5.78,5.78,0,0,0-.86.54,50.77,50.77,0,0,1-1.42-5.16c0-.27-.46-.16-.41.11a54.37,54.37,0,0,0,1.47,5.32l-.72.61a38.44,38.44,0,0,0-1.2-3.79c-.09-.25-.5-.14-.41.11a37.77,37.77,0,0,1,1.25,4l-.13.11-.37.28a6.41,6.41,0,0,0-.88-2.8.21.21,0,0,0-.36.21,5.87,5.87,0,0,1,.83,2.83.18.18,0,0,0,0,0c-.29.21-.59.4-.89.58-.13-.52-.26-1-.43-1.55-.08-.26-.49-.15-.41.11.18.55.32,1.11.46,1.67a22.29,22.29,0,0,1-2.53,1.24c-1.3.28-2.58.6-3.87.91a.19.19,0,0,0,0-.12,40.62,40.62,0,0,1-1.24-5.31l.69-.83c.38,1.8.88,3.57,1.18,5.39,0,.27.45.16.41-.11-.32-1.92-.86-3.79-1.24-5.7l.79-1c.53,2.13.68,4.34,1.42,6.42.09.26.5.15.41-.11-.77-2.18-.9-4.5-1.5-6.72l.57-.69a52.23,52.23,0,0,1,1.38,5.62.21.21,0,0,0,.41-.11,47.5,47.5,0,0,0-1.48-5.88l.57-.7c.52,2,.86,4,1.53,6,.09.26.5.15.41-.11-.68-2-1-4-1.55-6.06a.19.19,0,0,0-.13-.14l.76-.93a38.7,38.7,0,0,0,1.55,5.5c.1.25.51.14.41-.11a41.49,41.49,0,0,1-1.62-5.8L56,73c.45,1.74.57,3.56,1.15,5.28.09.26.49.15.41-.11-.61-1.81-.71-3.74-1.23-5.57l.66-.82c.28,1.19.56,2.38.85,3.56a.21.21,0,0,0,.41-.11c-.32-1.29-.61-2.58-.92-3.87l.66-.82a11.86,11.86,0,0,1,.54,1.86c.06.27.46.15.41-.11a11.85,11.85,0,0,0-.65-2.13l.57-.72a7.72,7.72,0,0,1,.37,1.06c.09.26.49.15.41-.11a6.6,6.6,0,0,0-.5-1.31l.62-.8c2.34-3.05,4.72-6,7.2-9a63.51,63.51,0,0,0,6.18-8.08,44.42,44.42,0,0,0,.72,5.12.13.13,0,0,0,0,.06c-.22,1-.44,1.92-.68,2.87a3.87,3.87,0,0,1-.11-.94.21.21,0,0,0-.42,0c0,.06,0,.13,0,.19a.21.21,0,0,0-.35.16,3.23,3.23,0,0,0,.41,1.88.17.17,0,0,0,.11.06q-.22.82-.47,1.64c-.16-.87-.28-1.74-.49-2.6-.06-.27-.47-.15-.41.11.22.91.34,1.85.52,2.77a.18.18,0,0,0,.25.14l0,.11c-.08.23-.16.47-.24.7-.19-1.11-.44-2.2-.6-3.32,0-.27-.45-.16-.41.11.19,1.28.5,2.53.69,3.81a.17.17,0,0,0,.07.12l-.2.54a14.35,14.35,0,0,1-.82-4c0-.27-.46-.27-.42,0a13.36,13.36,0,0,0,1,4.55l-.37.95c-.44-1.54-.61-3.13-.94-4.69-.06-.27-.46-.15-.41.11.35,1.67.52,3.38,1,5a.2.2,0,0,0,.1.12l-.29.78a23.88,23.88,0,0,1-1.11-5.28c0-.27-.45-.27-.42,0A23.93,23.93,0,0,0,70.1,68.18Zm-7,12,0,.09L63,80.2l.05-.09.08,0a4.75,4.75,0,0,0,1.15-.77l-.33,2c-.19-.25-.38-.5-.59-.73l.1-.21C63.64,80.13,63.27,79.91,63.15,80.16ZM51.91,86.37c-.12.37-.22.75-.31,1.13l-.06,0c-.1-.34-.22-.67-.35-1ZM47.14,83.8l.52-.65A13.06,13.06,0,0,0,48.34,86l-.63.11a.19.19,0,0,0,0,0A18.85,18.85,0,0,1,47.14,83.8Zm.16,2.4-.69.1-.17-.46-.2-.56L46.17,85h0l.63-.8A18.25,18.25,0,0,0,47.3,86.19ZM48,82.7l.78-1c.35,1.32.53,2.69.87,4l-.87.18A13.9,13.9,0,0,1,48,82.7Zm1.1-1.37.81-1a35.18,35.18,0,0,0,1.17,5,.22.22,0,0,0,.06.09l-1.09.25C49.7,84.24,49.52,82.75,49.11,81.33ZM75.87,37.25a55.32,55.32,0,0,0-3,5.15q-.11-.43-.23-.86c1-1.54,1.71-3.23,2.7-4.77.15-.23-.22-.44-.37-.21-.92,1.43-1.61,3-2.49,4.43l-.23-.78v0a17.38,17.38,0,0,1,2.21-4.28c.16-.22-.21-.44-.37-.21a18.05,18.05,0,0,0-2.06,3.85l-.18-.6a.22.22,0,0,0,.22-.14,19.26,19.26,0,0,1,2.21-4.1c.16-.23-.21-.44-.36-.21a19.73,19.73,0,0,0-2.19,4.05l-.18-.59h0A17.69,17.69,0,0,1,74,33a.21.21,0,0,0-.37-.21,22.83,22.83,0,0,0-2.25,4.39c-.1-.37-.2-.73-.29-1.1L71,35.83a.19.19,0,0,0,.21-.1,41.08,41.08,0,0,0,2.06-3.81c.11-.25-.26-.47-.37-.21a39.14,39.14,0,0,1-2,3.7l-.18-.79a37.9,37.9,0,0,1,1.69-3.74c.13-.24-.23-.45-.37-.21a32.1,32.1,0,0,0-1.49,3.27,13.45,13.45,0,0,0-.41-1.34,8.16,8.16,0,0,1,.72-1.71.21.21,0,0,0-.37-.21A8.41,8.41,0,0,0,69.93,32a5,5,0,0,0-.61-1,.32.32,0,0,0,.2,0,28,28,0,0,1,4.68-2.28,47.64,47.64,0,0,1,2.9,7.41c.36,1.26.65,2.55.93,3.83.15.7.2,1.6.39,2.38h0a2.31,2.31,0,0,0-.43.24,16.2,16.2,0,0,1-2.32.52c-.41.06-.82.12-1.23.19a.19.19,0,0,0,.09-.09c.79-1.56,1.62-3.1,2.41-4.67.12-.24-.24-.46-.37-.21-.78,1.57-1.62,3.11-2.41,4.67a.22.22,0,0,0,.19.32,7.3,7.3,0,0,0-1.21.34l-.06-.27a.17.17,0,0,0,0-.16l0-.18a60.84,60.84,0,0,1,3.18-5.55C76.39,37.24,76,37,75.87,37.25Zm-30,29.86c-.24-1.38-2.2-4-3.82-3.33a3,3,0,0,0-.92-.11c-1,0-2.49.89-2.53,2a2.94,2.94,0,0,1-.52-.81,9.07,9.07,0,0,1,2-3c.85-1,1.76-2,2.64-3,.67-.76,1.32-1.54,2-2.33,0,1.5.15,3,.17,4.48a.21.21,0,0,0,.42,0c0-1.56-.16-3.11-.17-4.67a.19.19,0,0,0-.12-.18l1.09-1.37c0,1.32.14,2.65.15,4a.21.21,0,0,0,.42,0c0-1.5-.15-3-.17-4.5l.78-1c0,1.38,0,2.75.17,4.13,0,.27.45.27.42,0-.15-1.56-.17-3.12-.17-4.68l.83-1.1A32.88,32.88,0,0,1,48.67,55a.21.21,0,0,0,.42,0,29.43,29.43,0,0,0-.17-3.81v0l.8-1.07a25.27,25.27,0,0,0,.17,3.18c0,.27.46.27.42,0a29.09,29.09,0,0,1-.17-3.75l.43-.58a9.05,9.05,0,0,1,.18,1.73.21.21,0,0,0,.42,0,9.1,9.1,0,0,0-.27-2.17l.33-.45.19-.24a2.91,2.91,0,0,1,0,1.25c-.06.27.35.38.41.11a3.64,3.64,0,0,0-.1-1.79c2.43-3.13,5.23-6,7.76-9,1.31-1.58,2.53-3.23,3.78-4.86a28.6,28.6,0,0,1,3.94-4.78c.41.7.84,1.39,1.3,2.06a.25.25,0,0,0,.13.09,17.4,17.4,0,0,0,.86,2.36l.05.16c0,.09,0,.18-.06.27a.23.23,0,0,0,.23.26c.29,1,.53,1.94.77,2.92.17.72.32,1.52.49,2.33a.2.2,0,0,0-.22,0C63.44,47,57.16,55.92,50.39,64.25q-2.29,2.82-4.62,5.62A6.25,6.25,0,0,0,45.88,67.11ZM43.76,71.5a.14.14,0,0,0,.15,0,4.08,4.08,0,0,0,.57-2.74.18.18,0,0,0-.07-.21,1.69,1.69,0,0,0-.05-.16c0-.06-.15-.12-.2-.07a.66.66,0,0,0-.68.09l0,0h0a3.65,3.65,0,0,0-.74-2.19,3.56,3.56,0,0,1,.5.08,1.48,1.48,0,0,0,.64,0h0a5.63,5.63,0,0,1,.26.78,5.63,5.63,0,0,0,.23,1.23c0,.09.27.14.32,0a2.6,2.6,0,0,0,.06-1.71,4.26,4.26,0,0,1,.23.49,4.8,4.8,0,0,1-.21,3.44,5.3,5.3,0,0,1-1.32,1.72l-.23.12.14-.17A3.32,3.32,0,0,0,43.76,71.5Zm0-2.57.09,0,0,.11ZM39.52,67.1a1.79,1.79,0,0,0,.89-.38c.11-.08,0-.2-.12-.21a2.83,2.83,0,0,1-1.43-.6,3.4,3.4,0,0,1,1.37-1.16c.26.16.54.25.8.42a1.63,1.63,0,0,1,.52.58.18.18,0,0,0-.08.28,5.27,5.27,0,0,1,.74,2l-.06,0-.06.06a7.47,7.47,0,0,0-.77-2.33A.21.21,0,0,0,41,66a8,8,0,0,1,.8,2.64A12.16,12.16,0,0,0,41.44,70c-.07.27-.15.53-.24.79A10.56,10.56,0,0,0,41.35,69a.21.21,0,0,0-.42,0,8.7,8.7,0,0,1-.4,2.7h-.09a14.46,14.46,0,0,0,.05-3,.21.21,0,0,0-.42,0,17.3,17.3,0,0,1,0,2.73,2.24,2.24,0,0,1-.24-.41A19.78,19.78,0,0,0,40,68.15a.21.21,0,0,0-.42,0c0,.64,0,1.28,0,1.91h-.12c0-.52-.06-1-.08-1.55a.19.19,0,0,0,.16-.1A2.06,2.06,0,0,0,39.52,67.1ZM39,70.35a1.8,1.8,0,0,1-.28.22c-.05-.57-.1-1.14-.15-1.7a.2.2,0,0,0,.18-.07,1,1,0,0,0,.1-.17l.06,0C38.91,69.23,38.95,69.79,39,70.35Zm3.16-4,.11,0a3.13,3.13,0,0,1,.74,2l-.3,0A8.44,8.44,0,0,0,42.14,66.32Zm-1.69,6.8a10.88,10.88,0,0,0,.49,2.53l0,0-.62.75a24.75,24.75,0,0,1-.66-3.79A3.21,3.21,0,0,0,40.45,73.12Zm.43.16a3.84,3.84,0,0,0,.61.13,2.12,2.12,0,0,0,.16.56c.11.25.48,0,.37-.21a1.46,1.46,0,0,1-.1-.31h0A3,3,0,0,0,43,73.22l-1.71,2.09A10.5,10.5,0,0,1,40.88,73.28ZM37.81,70.6h-.28a17.19,17.19,0,0,1-.3-2.63.21.21,0,0,0-.42,0,17.47,17.47,0,0,0,.3,2.67l-.15,0c-.14-.8-.29-1.6-.42-2.4,0-.27-.45-.16-.41.11.13.79.28,1.57.41,2.35l-.21,0a5,5,0,0,1-.34-1,3.42,3.42,0,0,0-.62-2.2,3.64,3.64,0,0,1-.25-.42,3.62,3.62,0,0,0,1.27,0c.27,0,.15-.46-.11-.41a3.11,3.11,0,0,1-1.35-.05,3.43,3.43,0,0,1-.11-.41,3,3,0,0,0,1.74-.17c.25-.1.14-.51-.11-.41a2.54,2.54,0,0,1-1.7.12,5.62,5.62,0,0,1,0-.87,6.44,6.44,0,0,0,1.76.3.21.21,0,0,0,0-.43,6.08,6.08,0,0,1-1.71-.3c0-.1,0-.2,0-.29a5.6,5.6,0,0,0,1.51.16.21.21,0,0,0,0-.43,5,5,0,0,1-1.45-.15l0-.23a2.28,2.28,0,0,0,1.3-.06c.26-.08.15-.49-.11-.41a1.8,1.8,0,0,1-1.13.05c0-.18,0-.37.05-.55a4.14,4.14,0,0,0,1,.05.21.21,0,0,0,0-.43h-.61a1.3,1.3,0,0,1-.34,0,5.34,5.34,0,0,0,0-.56,1.76,1.76,0,0,0,.91-.37c.23-.15,0-.52-.21-.37s-.51.37-.77.3c0-.06,0-.11,0-.17s-.14-.13-.15,0,0,.07,0,.11c-.2-.16-.48.13-.28.31a.9.9,0,0,0,.23.16q0,.34-.11.68a.18.18,0,0,0,0,.07A23.55,23.55,0,0,0,33.88,66h-.15l.11-.11a.19.19,0,0,0,0-.28c-.32-.32-.69-.17-1.09-.14a1.26,1.26,0,0,0,0-.17,1.19,1.19,0,0,0-.35-.48,2.93,2.93,0,0,0-1-.6A4,4,0,0,0,29.83,64l-.09-.06-.1,0,.05-.17,0,0a.17.17,0,0,0,.18,0c.46-.4.31-1,.31-1.58a2.37,2.37,0,0,0-.29-1.56c0-.07,0-.15,0-.22a7.62,7.62,0,0,0,1,0,3.75,3.75,0,0,0,1.82-.35.19.19,0,0,0,.1-.12,26.87,26.87,0,0,0,3.9,0,.47.47,0,0,0-.08.16.29.29,0,0,0,0,.09s0,0,0,.06a3.72,3.72,0,0,0-1.1-.05,17.49,17.49,0,0,0-2.05,0c-.21,0-.14.24,0,.29a9.89,9.89,0,0,0,2,.27,3.65,3.65,0,0,0,1.16,0c0,.24,0,.47,0,.71a11.25,11.25,0,0,0,.33,3.6,3.6,3.6,0,0,0,1,1.46,8.65,8.65,0,0,0,.22.87c0,.06,0,.13,0,.2a.23.23,0,0,0-.2.26c.14.91.18,1.83.27,2.75h-.05c-.06-.84-.18-1.68-.32-2.51,0-.27-.45-.15-.41.11C37.63,69,37.75,69.8,37.81,70.6Zm-1.9.27-.17,0a1.51,1.51,0,0,0,.07-.29Zm-5.78-2.61a22.88,22.88,0,0,1,.76,2.48l-.28-.12c-.3-.89-.44-1.82-.78-2.7l0-.05a5.2,5.2,0,0,0,1.38-.17h0a.14.14,0,0,0,0,.06A.23.23,0,0,0,31,68,26.76,26.76,0,0,0,31.55,71l-.12,0-.06,0a.23.23,0,0,0,0-.05c-.35-.92-.46-1.92-.88-2.82C30.38,67.8,30,68,30.13,68.26Zm-4.92,2.63-.07,0,0-.18.26.09c.26.09.37-.32.11-.41l-.27-.1,0-.09a.08.08,0,0,0,0,0l.44.27h0c-.12.43-.22.9-.31,1.37a.2.2,0,0,0-.12,0,2,2,0,0,1-.36,0l.09-.42h0C25.35,71.39,25.46,71,25.21,70.89Zm.12,1.28h.07c0,.15,0,.3-.05.45l-.51-.15.06-.33A2.38,2.38,0,0,0,25.32,72.17Zm-.06.86h0v0l0,.17-.58-.15c0-.07,0-.15.06-.22Zm.12,2.19c.06.44.14.87.25,1.3.06.27.47.15.41-.11s-.17-.8-.23-1.2a1.63,1.63,0,0,0,.39,0c0,.21.08.42.12.64s.46.15.41-.11-.1-.52-.14-.78l0,0a6.22,6.22,0,0,0,.45-1.3,9,9,0,0,0,.3,1.53.19.19,0,0,0,.13.14l-.89,1.07c-.46.54-1,1.07-1.44,1.6-.14-.88-.16-1.78-.26-2.66h0a.2.2,0,0,0,.21-.08l.12,0A.24.24,0,0,0,25.39,75.22Zm2.51-5.13-.1.13a.16.16,0,0,0-.09.09,5.5,5.5,0,0,1-.37-.77l.18-.28C27.65,69.53,27.77,69.81,27.9,70.08Zm-.11-1.23.24-.32a9.3,9.3,0,0,1,.47,1,2.41,2.41,0,0,0-.3.23Q28,69.3,27.79,68.86Zm-.33,1.86-.14.24q-.17-.32-.36-.63l.12-.32A6.57,6.57,0,0,0,27.46,70.72Zm-.46.53a.17.17,0,0,0-.17.2c0,.1,0,.19,0,.29a2.55,2.55,0,0,1-.21-.35c0-.18.09-.36.14-.53Q26.9,71,27,71.24Zm-.31,1,0,0a9.16,9.16,0,0,0-.31.92c0-.07,0-.13,0-.2h0c0-.35.09-.69.14-1C26.59,72.07,26.64,72.15,26.69,72.24Zm.67.17a6.12,6.12,0,0,1,.2-.6,3.27,3.27,0,0,1,.23-.46,14.1,14.1,0,0,0,.43,2.91.21.21,0,0,0,0,.08l-.51.61A13.23,13.23,0,0,1,27.36,72.41Zm.8-1.6,0,0,.08.08,0,0a2.75,2.75,0,0,0,.34.27c.09.68.14,1.38.26,2.06a.17.17,0,0,0,.17.15l-.49.59A20,20,0,0,1,28.16,70.81ZM29,69.6l.05-.1c0-.08-.06-.15-.14-.16a9.79,9.79,0,0,0-.57-1.17l.2-.24.18.08h0v0c.25.65.39,1.34.57,2L29.13,70C29.08,69.86,29,69.73,29,69.6ZM29.06,67a.33.33,0,0,0,0-.14.76.76,0,0,0-.16-.49,1.33,1.33,0,0,0,0-.45,1.76,1.76,0,0,1,.46-1.16c.37.13.83.19,1.08.29.58.24.91.73,1.42,1a.4.4,0,0,0,0,0c.29,1-2.32.92-2.82,1.34a.1.1,0,0,0,0,.13.71.71,0,0,0,.41.23.17.17,0,0,0-.05.21c.29.76.43,1.57.66,2.35l-.29-.13c-.23-.78-.37-1.58-.66-2.33a.21.21,0,0,0-.18-.14.21.21,0,0,0-.14-.18h0l.26-.32A.18.18,0,0,0,29.06,67Zm1.26,4.86-1,1.21c-.1-.55-.15-1.11-.21-1.67A7.45,7.45,0,0,0,30.31,71.89ZM31.38,68a6.31,6.31,0,0,1,.61.78l.13.24a.19.19,0,0,0-.13.25q.2.61.38,1.23a1.29,1.29,0,0,1-.1.3.76.76,0,0,0-.08.36l-.16,0A23.86,23.86,0,0,1,31.38,68Zm-.19-8.66a5.93,5.93,0,0,0-.61,0c0-.18-.08-.38-.1-.56a4.54,4.54,0,0,0-.07-.69c.34,0,.68,0,1,0a.31.31,0,0,0-.2.16,1.16,1.16,0,0,0-.09.61A1.94,1.94,0,0,0,31.19,59.33Zm1-4.39a5.88,5.88,0,0,0-.73.08,1.73,1.73,0,0,0,0-.58c0-.14,0-.28,0-.42a.73.73,0,0,0,0-.21,1.51,1.51,0,0,0,.73,0A2.24,2.24,0,0,0,32.22,54.93Zm-.23-9a1.12,1.12,0,0,1-.84.12,1.33,1.33,0,0,1-.72-.7.94.94,0,0,1,0-.95c.41-.61,1.3-.5,2-.37A2.62,2.62,0,0,0,32,45.94Zm0-2.77a1.51,1.51,0,0,0-.93-.08c2.92-4.44,7.17-7.83,10.39-12,1.4-1.83,2.85-3.62,4.34-5.39a8.6,8.6,0,0,0,.54,1.6c.12.25.48,0,.37-.21a9,9,0,0,1-.57-1.78l.57-.68c.23.89.55,1.75.81,2.63a.21.21,0,0,0,.41-.11c-.29-1-.65-1.92-.88-2.91l.34-.4c.43,1.18.73,2.41,1.16,3.6.09.26.5.15.41-.11-.46-1.27-.78-2.59-1.26-3.85l.54-.62c.34,1.26.76,2.48,1.17,3.72.09.26.49.15.41-.11-.44-1.32-.9-2.64-1.25-4L48.9,22c.47,1.38.87,2.8,1.32,4.19.09.26.49.15.41-.11-.48-1.48-.9-3-1.41-4.44l.53-.6a28.88,28.88,0,0,0,1.53,4.34c.11.25.47,0,.37-.21a27.68,27.68,0,0,1-1.56-4.51l.54-.6a24.12,24.12,0,0,0,1.69,4.64c.13.24.49,0,.37-.22A24.85,24.85,0,0,1,51,19.65l.47-.53c.47,1.61.94,3.23,1.55,4.79.1.25.51.14.41-.11-.64-1.65-1.13-3.35-1.63-5.05l.71-.79a29.13,29.13,0,0,0,1.57,5c.12.25.48,0,.37-.21a31,31,0,0,1-1.6-5.12l.44-.49c.35,1.77.81,3.52,1.28,5.26a.21.21,0,0,0,.41-.11c-.5-1.84-1-3.67-1.34-5.54l.38-.42a38.46,38.46,0,0,0,1.41,5.21c.09.26.5.15.41-.11a38.7,38.7,0,0,1-1.47-5.49l.42-.46c.51,1.87,1,3.72,1.68,5.55.09.26.5.15.41-.11-.66-1.87-1.19-3.77-1.71-5.68l1,.89c1.68,1.5,3.28,3.27,5.28,4.35l.15.27a48,48,0,0,0-7.42,7.76c-2.57,3.08-5,6.31-7.39,9.51s-5.06,6-7.52,9c-1.31,1.62-3.49,3.68-4,5.74a.11.11,0,0,0,0,.08h-.08a16.82,16.82,0,0,0,.19-2.53,16.16,16.16,0,0,0,.11-2.7,1.43,1.43,0,0,1,.8-.57h0a1.32,1.32,0,0,0,1.24.25A2.27,2.27,0,0,0,39.26,45a1.73,1.73,0,0,0-1.62-1.57h0c-.38-.29-1,.09-1.29.33a2.06,2.06,0,0,0-.28.28.75.75,0,0,0-.39-.36,2.3,2.3,0,0,0-2.88,0A3,3,0,0,0,32,43.17ZM67.44,18.26a9.28,9.28,0,0,0,.33,1,.22.22,0,0,0,.42,0l.17.23c0,.15.06.31.1.47a.2.2,0,0,0,.33.11c1.87,2.59,3.14,5.63,5.16,8.09l.05.11a26.53,26.53,0,0,0-4.8,2.36.23.23,0,0,0,0-.17c-.46-.72-.89-1.46-1.31-2.2,0,0,0-.09-.07-.12a30.47,30.47,0,0,0-2.06-3.21c-1.14-1.5-2.38-2.91-3.54-4.38.59-.71,1.09-1.51,1.68-2.23.12-.14.26-.29.4-.45l.1,0,.06,0h0c.42-.29.82-.61,1.22-.93l.3-.23a.32.32,0,0,0,.27,0Zm-.59-1.72.22,0,.06.36Zm.64-.09.32,0h.06c.07.59.16,1.18.25,1.77l-.24-.31-.15-.19C67.63,17.26,67.55,16.86,67.48,16.45Zm.8-.1.22,0c.23,1.06.47,2.12.65,3.18l-.48-.65C68.5,18,68.39,17.19,68.28,16.35Zm-17.88,32v0l0,0c-2.77,3.71-5.54,7.55-8.65,11A42.34,42.34,0,0,0,38.67,63a6.76,6.76,0,0,0-.78,1.27,30.5,30.5,0,0,1-.4-4.3.26.26,0,0,0,0-.12c.07-.09,0-.22-.14-.24l-.44,0v0h0a1,1,0,0,0,0-.13c0-.19,0-.38,0-.57a1.26,1.26,0,0,0-.05-.73c.14-.12.21-.29,0-.37l-.33-.1c0-.24,0-.48,0-.72a5.25,5.25,0,0,0,0-1.46.86.86,0,0,0,.13-.3.1.1,0,0,0,0-.05,5.51,5.51,0,0,0,.12-1.44c.13-.17.16-.36-.1-.47l-.28-.09c.12,0,0-.15-.08-.16l-.65-.08a.15.15,0,0,0,.06-.08c.59-2,2.73-4,4-5.62,2.45-3.06,5.18-5.88,7.53-9s4.6-6.09,7-9,5-5.37,7.5-8c.85,1.35,2.12,2.48,3,3.76.81,1.13,1.49,2.34,2.19,3.54a14.69,14.69,0,0,0-2.69,3c-1.55,1.91-3,3.9-4.52,5.83-2.66,3.38-5.68,6.44-8.36,9.8a.19.19,0,0,0-.16.21l-.64.82A.2.2,0,0,0,50.4,48.31ZM31.77,58.12h-.06l.65,0a2.13,2.13,0,0,0-.06.8.28.28,0,0,0,.36.2h0a3.8,3.8,0,0,0,1.46.18,3.58,3.58,0,0,0,2-.23h0a2.91,2.91,0,0,0,0,.44,28.32,28.32,0,0,0-3.9,0l-.22,0h0C32.27,59,32.27,58.3,31.77,58.12Zm0-2.65c.49,0,1,0,1.49,0l.74,0a1.14,1.14,0,0,0-.15.62,6,6,0,0,0,0,1.31h-.28c-.6,0-1.23,0-1.85,0a3.07,3.07,0,0,0,.09-.67A4.65,4.65,0,0,0,31.82,55.47Zm.67-1.59a1,1,0,0,0,.63,0l.14.06a1.56,1.56,0,0,0,0,.65,2.48,2.48,0,0,0,0,.34h-.81A2.23,2.23,0,0,0,32.49,53.89ZM35,56.33a5.87,5.87,0,0,0-.06-.8,5.39,5.39,0,0,0,.68-.05,2.63,2.63,0,0,0-.05.73c0,.42-.05.84-.08,1.26l-.59,0a1.44,1.44,0,0,0,.1-.31A3.69,3.69,0,0,0,35,56.33ZM35,46a1.23,1.23,0,0,1-1-.05.39.39,0,0,0-.33.06,1.52,1.52,0,0,1-.4-.73c-.23-1.16,1-1.37,1.94-1.24a2.16,2.16,0,0,1,.25,1.19,1.26,1.26,0,0,1-.33.7Zm-1.69,3.68c0-.7,0-1.4,0-2.1h.06a.19.19,0,0,0,.16-.09v0a2,2,0,0,0,.69,0l.11,0a12.65,12.65,0,0,0,0,2.69,15.67,15.67,0,0,0,.19,2.69c-.4,0-.82-.08-1.22-.08A23.74,23.74,0,0,0,33.29,49.63Zm2.73,5s0,.07,0,.1,0-.17,0-.25,0-.28,0-.42H36a1.87,1.87,0,0,0,0,.21A1.13,1.13,0,0,0,36,54.63ZM64.88,16.37a16.65,16.65,0,0,0-1.63,1.95,7.78,7.78,0,0,0-1.31,1.87.17.17,0,0,0-.07-.11c-1.79-1.4-3.52-2.83-5.22-4.34-.37-.33-.78-.7-1.2-1.07l0,0c.17-.19-.18-.32-.38-.24A9,9,0,0,0,52,12.55a10.87,10.87,0,0,0,1.39-2.14,9.14,9.14,0,0,0,.8-2l.14-.13a.68.68,0,0,0,.48-.19.69.69,0,0,1,.25-.22c4,1.24,7.07,5.24,9.93,8.1a.25.25,0,0,0,0,.12ZM36.58,44.71a1.64,1.64,0,0,1,.46-.8,1.32,1.32,0,0,1,.4-.25A1.33,1.33,0,0,1,38.6,45.5a1.52,1.52,0,0,1-.35.63c-.31.29-.87.1-1.18-.07A1.26,1.26,0,0,1,36.58,44.71Zm-3.32,8.61-.08.07a1.07,1.07,0,0,0-.75.08v0a.73.73,0,0,0-.21-.1c.32,0,.65,0,.95,0ZM76,30.49a14.31,14.31,0,0,0-1-1.74,4.36,4.36,0,0,0,1.23-.15C76.17,29.23,76.13,29.86,76,30.49Zm.4.18c.11-.72.16-1.45.25-2.17l.1,0,.74-.2c-.34,1.25-.39,2.57-.81,3.8q-.25-.64-.55-1.27A.18.18,0,0,0,76.43,30.67Zm3.23,18.85h0a.22.22,0,0,0,0,.21s0,.07,0,.1a50.88,50.88,0,0,1-.41,6.94,15.53,15.53,0,0,0-2-.19c.33-.95.82-1.82,1.2-2.75.1-.25-.31-.36-.41-.11-.38.93-.87,1.81-1.2,2.77a.18.18,0,0,0,0,0L76,56.4c.62-1.05,1.14-2.16,1.8-3.19.15-.23-.22-.44-.37-.21-.7,1.07-1.23,2.25-1.89,3.34a4.61,4.61,0,0,0-.66,0c.72-1.45,1.5-2.86,2.23-4.31.12-.24-.24-.46-.37-.21-.73,1.45-1.51,2.87-2.24,4.33a.21.21,0,0,0,0,.23h0c-.15-1-.25-2.09-.34-3.15a19.82,19.82,0,0,0,1.41-2.74c.12-.25-.25-.46-.37-.21-.37.75-.67,1.54-1.1,2.26,0-.39-.06-.79-.08-1.18l.71-1.78c.1-.25-.31-.36-.41-.11l-.37.92A50.79,50.79,0,0,0,73.2,44a25.48,25.48,0,0,1,3.43-.64,9.7,9.7,0,0,0,2-.44,2.37,2.37,0,0,0,.33.59.25.25,0,0,0,.08.06C79.24,45.52,79.56,47.51,79.66,49.52Zm-.13-7,.26,0-.13.41C79.63,42.79,79.58,42.65,79.54,42.5ZM73,59.7l-.11.41a2.2,2.2,0,0,1-.12-.47c0-.06,0-.13,0-.19l0,.11A.2.2,0,0,0,73,59.7Zm7.23-14q0-.27-.08-.53a28,28,0,0,1,1-2.82l.31,0,.25,0C81.15,43.45,80.66,44.58,80.22,45.73Zm1.92-3.45.57-.06c-.68,1.87-1.48,3.7-2.27,5.53q0-.55-.1-1.09C80.87,45.17,81.49,43.72,82.13,42.27Zm-2.16,2q-.05-.25-.11-.51.16-.57.35-1.14a.22.22,0,0,0,0-.09l.39-.05C80.4,43.06,80.17,43.65,80,44.25ZM83.51,56c.28-.69.54-1.38.78-2.09q0,1-.08,2A3.17,3.17,0,0,0,83.51,56Zm.77-3.43A33.84,33.84,0,0,1,83,56.09c-.42,0-.85.1-1.26.17.85-1.85,1.7-3.7,2.49-5.57,0,.6,0,1.21.06,1.81Zm-.17-2.6c-.9,2.16-1.88,4.28-2.86,6.41a5.76,5.76,0,0,0-.72.16l0-.05c.92-2.81,2.38-5.38,3.44-8.13.1-.26-.31-.37-.41-.11-.92,2.39-2.14,4.65-3.05,7,0-.46.07-.92.08-1.38,1.08-2.41,2.26-4.77,3.23-7.23l.1.78c.1.81.18,1.62.24,2.43A.21.21,0,0,0,84.11,49.93Zm-.52-3.81c-.87,2.28-1.94,4.47-3,6.68,0-.4,0-.79,0-1.18a56.07,56.07,0,0,1,3-7q.1.66.18,1.32A.21.21,0,0,0,83.59,46.12Zm-.32-1.78a53,53,0,0,0-2.69,6.16l0-.54c0-.43,0-.86-.06-1.29.92-2.12,1.86-4.23,2.65-6.41a.19.19,0,0,0,0-.11h0q.19,1.05.35,2.11A.18.18,0,0,0,83.27,44.34ZM70.22,21l-.54-.78c-.19-1.34-.47-2.66-.76-4a2.35,2.35,0,0,0,.4,0h0C69.54,17.86,69.91,19.43,70.22,21Zm-2-6.39c-.66.11-1.3.25-2,.41a2.48,2.48,0,0,0-.82.36,36.79,36.79,0,0,0-5.67-5A15.8,15.8,0,0,0,55.6,7.78a2.42,2.42,0,0,0,.7-.3h0l.61-.05h.17c.33,0,.66,0,1,0a7.52,7.52,0,0,0,1.47-.11.45.45,0,0,0,.24,0c1.52,1,3.18,1.75,4.64,2.81a37.48,37.48,0,0,1,5.08,4.52A2.6,2.6,0,0,0,68.23,14.63ZM54.62,6.92A.73.73,0,0,0,54,7c-.65-.29-1.36-.5-2-.75q-1.93-.75-3.9-1.41a17.68,17.68,0,0,0-4.88-1.15c.35-.15.7-.3,1.05-.43C45,3,45.8,2.86,46.52,2.6a22.08,22.08,0,0,1,6.12,1.75c1.32.6,2.8,1.46,4.32,2.07A10.53,10.53,0,0,0,54.62,6.92ZM49,5.32c1.61.57,3.21,1.54,4.85,2.09V8h0c-.24.58-.4,1.19-.65,1.76a9.31,9.31,0,0,1-1.63,2.56,1.8,1.8,0,0,0-.71-.15q-1.39-.53-2.81-1a14.11,14.11,0,0,0-.18-2.53c0-.27-.46-.16-.41.11A12.81,12.81,0,0,1,47.64,11l-.05,0a.35.35,0,0,0-.13-.07.22.22,0,0,0-.16,0L47,10.77a.2.2,0,0,0,0-.06V7.6a.21.21,0,0,0-.42,0v3l-.76-.24a.19.19,0,0,0,.15-.2V7.94a.21.21,0,0,0-.42,0v2.25a.2.2,0,0,0,0,.13l-.54-.17a.2.2,0,0,0,0-.19,8.93,8.93,0,0,1-.16-2,.21.21,0,0,0-.42,0A9.65,9.65,0,0,0,44.72,10c-.53-.16-1.08-.33-1.66-.46a.19.19,0,0,0,0-.14,5.68,5.68,0,0,1-.16-1.67.21.21,0,0,0-.42,0,6.37,6.37,0,0,0,.16,1.72,8,8,0,0,0-.81-.11v0a20.93,20.93,0,0,1,.79-5.45l.12,0A24,24,0,0,1,49,5.32ZM12.24,50.79a.18.18,0,0,0,.12.1l-.54.73c-.21-.67-.42-1.34-.63-2q0-.58,0-1.16C11.53,49.23,11.86,50,12.24,50.79ZM11.51,52l-.29.4q0-.72,0-1.44C11.29,51.35,11.39,51.7,11.51,52Zm.12.74c.76,2.53,2,4.86,3,7.3.1.25.51.14.41-.11a74.61,74.61,0,0,1-3.09-7.59l.35-.44a49.85,49.85,0,0,0,3.21,6.63c.15.23.51,0,.36-.21a51.51,51.51,0,0,1-3.27-6.75l0,0,.61-.76a49.55,49.55,0,0,0,3.18,6.72c.15.23.51,0,.36-.21a51.92,51.92,0,0,1-3.25-6.87l.77-1a14,14,0,0,0,3,5.67c.19.2.49-.1.3-.3a13.8,13.8,0,0,1-3-5.76l.74-.91a36.29,36.29,0,0,0,2.77,6.07c.13.24.49,0,.37-.21a34.4,34.4,0,0,1-2.81-6.24l.6-.72c.84,1.71,1.64,3.43,2.54,5.1.13.24.49,0,.37-.21-.92-1.72-1.75-3.49-2.61-5.24l.53-.64c.59,1.48,1.43,2.84,2,4.32.1.25.51.14.41-.11-.64-1.55-1.53-3-2.13-4.57L18,45c.57,1.57,1.3,3.08,2,4.6.11.25.48,0,.37-.21-.7-1.57-1.46-3.12-2-4.75l.58-.67,1.43,2.87c.12.25.49,0,.37-.22l-1.49-3h0l.41-.46a.21.21,0,0,0,0,.06l1,2.08c.12.25.49,0,.37-.21L20,43a.18.18,0,0,0-.15-.1l.55-.62A1.89,1.89,0,0,1,21,43.41c0,.27.43.27.42,0a2.35,2.35,0,0,0-.72-1.5C23.3,39,25.94,36.05,28.44,33l3.27-4c.3.48.52,1,.82,1.49.15.23.51,0,.37-.21-.32-.5-.54-1.06-.86-1.56L32,28.72l.5-.6A6.22,6.22,0,0,0,33.39,30c.16.22.53,0,.37-.21a6.06,6.06,0,0,1-.94-2.1l.39-.46c.32.77.68,1.51,1.05,2.26.12.25.49,0,.37-.21-.39-.79-.78-1.59-1.11-2.41l.53-.64a23.86,23.86,0,0,1,1.4,3.38.21.21,0,0,0,.41-.11,27.94,27.94,0,0,0-1.5-3.63l.38-.46c.61,1.23,1.21,2.47,1.77,3.73.11.25.48,0,.36-.22-.58-1.3-1.2-2.59-1.84-3.87l.57-.67c.67,1.43,1.46,2.8,2.11,4.24.11.25.48,0,.37-.21-.67-1.49-1.5-2.89-2.18-4.37l.63-.75a21.08,21.08,0,0,0,2.42,4.34c.17.21.47-.09.3-.3A21.62,21.62,0,0,1,36.81,23l.56-.66a19,19,0,0,0,2.25,3.79c.17.21.47-.09.3-.3a19,19,0,0,1-2.25-3.84l.77-.89a19.93,19.93,0,0,0,2,4c.16.22.53,0,.37-.21a20.73,20.73,0,0,1-2.06-4.09l.59-.68c.64,1.32,1.36,2.6,2,3.94.11.25.48,0,.37-.21-.63-1.38-1.38-2.7-2-4.07l.69-.78a17.66,17.66,0,0,0,2.18,4.2c.16.22.53,0,.37-.21a17.55,17.55,0,0,1-2.23-4.34l.74-.83c.7,1.34,1.47,2.65,2.15,4,.12.24.49,0,.36-.21-.7-1.4-1.5-2.74-2.21-4.13l.41-.46.36-.4a33,33,0,0,0,2.12,4.34c.13.24.5,0,.37-.21a30.77,30.77,0,0,1-2.16-4.48l.69-.79c.75,1.61,1.42,3.26,2.31,4.79a.21.21,0,0,0,.37-.22c-.92-1.58-1.59-3.28-2.37-4.92l.37-.42a45.61,45.61,0,0,0,2.32,5c.13.24.49,0,.37-.21a44.55,44.55,0,0,1-2.37-5.18l.39-.43A46.32,46.32,0,0,0,47,18.73c.1.25.51.14.41-.11a39,39,0,0,1-2.18-5.16l.39-.41c.73,1.83,1.67,3.57,2.44,5.39.11.25.47,0,.36-.21-.79-1.85-1.75-3.63-2.48-5.5l.48-.47a53.72,53.72,0,0,0,2.5,5,.21.21,0,0,0,.37-.21,54.6,54.6,0,0,1-2.54-5.07l.54-.47h0A21.4,21.4,0,0,0,50.08,17c.15.22.52,0,.37-.21a21.48,21.48,0,0,1-2.7-5.18l1,.38a46.31,46.31,0,0,1,2.29,4.79c.1.25.51.14.41-.11a46.82,46.82,0,0,0-2.11-4.48l.85.27a.19.19,0,0,0,0,0,38.78,38.78,0,0,0,1.92,3.5c.17.21.47-.09.3-.3a22.3,22.3,0,0,1-1.66-3.08h0a.36.36,0,0,0,.24,0,1.42,1.42,0,0,1,.38.17.35.35,0,0,0,.26,0l.1.06a.21.21,0,0,0,.08.25,4,4,0,0,1,1.3,1.48c.13.24.49,0,.37-.21a4.37,4.37,0,0,0-.58-.86,15.22,15.22,0,0,1,1.72,1.25l-.51.57a.23.23,0,0,0-.32.24l0,.1-1.26,1.4a.21.21,0,0,0-.31.23l0,.09-.78.87a.21.21,0,0,0-.27.25v0l-.47.53a.21.21,0,0,0-.4.12l.07.25-.51.58,0-.08c-.06-.27-.46-.15-.41.11l.08.35-.58.66c-.14-.15-.44,0-.36.19l.05.16-.35.4A.21.21,0,0,0,48,22l.06.24-.63.73c-.15-.07-.37,0-.29.23l0,.07-.28.32,0-.16c0-.27-.45-.15-.41.11s.05.31.09.46l-.6.71a.22.22,0,0,0-.34.21l0,.15c-1.73,2.05-3.42,4.14-5,6.27-1.74,2.29-3.83,4.3-5.79,6.4a22.39,22.39,0,0,0-4.19,5.45l-.32.15a2.28,2.28,0,0,0-.88.86,62.81,62.81,0,0,0-4.83,5.5C22.77,51.85,21,54,19.27,56.12c-1.35,1.63-2.78,3.17-4.18,4.76l-.47.52c-1.31-2.45-2-5.17-3.33-7.62q0-.26,0-.52Zm2.69,9-.5.57c-.86-1.92-1.5-3.94-2.29-5.89q-.09-.76-.15-1.53C12.43,57.13,13.13,59.54,14.32,61.73ZM24.8,78.32l-.67.76c0-1.31-.17-2.62-.31-3.93a4.73,4.73,0,0,0,.64.08c.13,1,.13,2,.31,3A.2.2,0,0,0,24.8,78.32Zm-1,1.76a.21.21,0,0,0,.35-.16c0-.06,0-.12,0-.18.87-.9,1.68-1.89,2.5-2.82,1.41-1.59,2.87-3.19,4.14-4.9a10.41,10.41,0,0,0,1.08.2,4.65,4.65,0,0,0,3.24-.53,7.77,7.77,0,0,0,2,0,13.79,13.79,0,0,1,2,.5A26.42,26.42,0,0,0,40,76.85l-.19.24-.59.74c-.18-1.53-.49-3-.82-4.54-.06-.27-.47-.15-.41.11a44,44,0,0,1,.85,4.79.23.23,0,0,0,0,.08l-.54.71c-.3-1.61-.51-3.24-1-4.82a.21.21,0,0,0-.41.11c.48,1.69.7,3.44,1,5.16l-.76,1a21.46,21.46,0,0,1-.72-5.9.21.21,0,0,0-.42,0,21.16,21.16,0,0,0,.83,6.33l-.56.78-.29.42c-.52-2.22-.36-4.55-1.11-6.72-.09-.26-.5-.15-.41.11.79,2.29.57,4.76,1.2,7.09A9.21,9.21,0,0,1,34,84.78v0a53.56,53.56,0,0,0-1.38-9.05c-.06-.27-.47-.15-.41.11a52.86,52.86,0,0,1,1.37,8.94.21.21,0,0,0,.16.19,2.2,2.2,0,0,1-.41.2c-.08,0-.09.08-.06.13l-1.61-.53c.15,0,.18-.1.26-.24s-.23-.45-.37-.21c.25-.44-.12-1.94-.23-2.66a32.39,32.39,0,0,0-1.1-5.94c-.09-.26-.5-.15-.41.11a30.27,30.27,0,0,1,1.17,6.46c.08.67,0,1.87.47,2.41l-1.17-.39a.14.14,0,0,0-.08-.13l-.83-.31c-.65-2.1-.79-4.31-1.39-6.42a.21.21,0,0,0-.41.11c.57,2,.72,4.1,1.29,6.1l-.64-.27a.17.17,0,0,0,.1-.23c-.61-1.5-.74-3.13-1.2-4.67a.21.21,0,0,0-.41.11c.37,1.24.54,2.54.9,3.79a.19.19,0,0,0-.05.14v.17a.2.2,0,0,0,.22.2c0,.11.08.23.12.34a43.21,43.21,0,0,1-4.05-3.15ZM27.58,85l.48.18c-.33.32-.67.62-1,.92C27.23,85.76,27.41,85.39,27.58,85Zm.92.33.46.16a20.17,20.17,0,0,0-3,2.93c.17-.39.31-.8.45-1.11l.11-.23C27.2,86.52,27.9,86,28.51,85.36Zm9.63,1.19c-.52,0-1-.11-1.55-.17A5.93,5.93,0,0,1,36,83.73a.21.21,0,0,0-.42,0,6.64,6.64,0,0,0,.48,2.57h0l-.4-.06c-.69-.31-1.41-.59-2.13-.84,1-.3,1.69-1.41,2.28-2.17.32-.4.62-.81.92-1.22.4,1.32.48,2.71.94,4,.09.26.5.15.41-.11-.49-1.41-.54-2.92-1-4.33h0l.87-1.21c.36,2,.81,4,1.13,6,0,.27.45.15.41-.11-.34-2.13-.83-4.24-1.2-6.37.27-.37.54-.73.82-1.09l1.29-1.64A.19.19,0,0,0,40.5,77c1.17-1.47,2.36-2.91,3.56-4.35l.12-.11a3.7,3.7,0,0,0,1.06-1.3c1.6-1.91,3.21-3.83,4.78-5.76C57.08,56.82,63.94,48,71,39.36a10.84,10.84,0,0,0,1.48,4l.05,0c.19,2.32.29,4.71.48,7.08C68.7,56.56,63.71,62.11,59.2,68.06l-.45.58a.22.22,0,0,0-.24.32l-.5.65h0c-.12-.25-.48,0-.37.21l.07.16-.61.78a.22.22,0,0,0-.34.22l0,.15-.7.87c-.13-.16-.44,0-.37.19l.06.19-.78.95a.22.22,0,0,0-.31.24l0,.1L51.15,78h0c0-.27-.46-.15-.41.11l.06.32-.72.88a.21.21,0,0,0-.37.19l0,.2-.86,1.05c-.11-.22-.48-.12-.4.13l.08.25-.75.93a.22.22,0,0,0-.37.2l0,.21L47,83.1c-.09-.19-.43-.08-.39.17l0,.27q-1.14,1.48-2.24,3c-.95.08-1.9.13-2.85.14a.19.19,0,0,0,.11-.24c-.84-2.75-.89-5.65-1.38-8.48,0-.27-.45-.15-.41.11.49,2.83.53,5.72,1.38,8.48a.2.2,0,0,0,.1.13C40.31,86.68,39.23,86.64,38.13,86.55Zm8-.26a.17.17,0,0,0-.2.09l-.83.1a.18.18,0,0,0,0-.06l.73-1,.1.23Zm-6.61,1.27,1.2,0,0,.05c0,.13-.1.25-.16.38-.13.29-.26.58-.4.87-.21.45-.43.9-.67,1.34A15.82,15.82,0,0,0,39.55,87.55ZM52,89.07c0-.21-.1-.41-.15-.62.17-.69.33-1.39.55-2.07a.19.19,0,0,0,0-.11L53,86.1C52.62,87.07,52.31,88.08,52,89.07ZM53.52,86l.32-.1a32.62,32.62,0,0,1-1.35,4.07,1,1,0,0,0-.22-.24l-.08,0C52.65,88.42,53,87.16,53.52,86Zm-1.24,7.55.69.15v.53l-.78.2A3,3,0,0,1,52.28,93.51Zm.3-1.25a1.45,1.45,0,0,0,.15.17l-.15.05C52.58,92.41,52.58,92.33,52.58,92.26ZM66,86.63l.46-.45.34.06c-.11.28-.21.56-.3.84l-.75.47C65.85,87.25,65.93,86.94,66,86.63Zm7-8.5a.09.09,0,0,0,.06,0,18.52,18.52,0,0,0,1.65-3.17h0a.36.36,0,0,0,.15-.09,1.64,1.64,0,0,0,.35-.74l.23-.4a5.54,5.54,0,0,0,.46-.78l.1-.21c.26,0,.52,0,.77,0a37.88,37.88,0,0,1-4.19,6.77c-.18.2.12.51.3.3,1.86-2.11,3-4.68,4.39-7.1l.76,0a49.38,49.38,0,0,1-3.42,6.36c-.15.23.22.45.37.21a49.66,49.66,0,0,0,3.53-6.62,4.4,4.4,0,0,0,.89-.19c-1.24,2.26-2.38,4.58-3.75,6.76-.15.23.22.45.36.21,1.35-2.15,2.47-4.42,3.69-6.64-.42,1-.89,1.92-1.28,2.91-.34.71-.67,1.43-1,2.15-.17.27-.34.53-.52.79-.82,1.19-1.71,2.33-2.61,3.47a9.35,9.35,0,0,0-1.64,2.32l-.79.65a1,1,0,0,0-.35.11A.17.17,0,0,0,71.5,85a1.43,1.43,0,0,0-.39-.13A28.83,28.83,0,0,1,74,80.94c.18-.21-.12-.51-.3-.3a29,29,0,0,0-3,4.19h-.36a50.54,50.54,0,0,1,3-4.46c.17-.22-.2-.43-.37-.21a51.08,51.08,0,0,0-3.18,4.7H68A21.57,21.57,0,0,0,73,78.13ZM70,87.9c.27,0,.54,0,.79,0a11.76,11.76,0,0,0-1,.91l-.15-.57Zm1.5-.07a3.84,3.84,0,0,0,1.44-.42h.22a33.1,33.1,0,0,0-3.06,2.42l-.15-.57A11.82,11.82,0,0,1,71.46,87.83Zm1.94-.12a.2.2,0,0,0,.08-.12q0,.16.07.33l-.23.23.19.5c-.95.8-2.15,1.46-3.15,2.29l-.18-.67A31.55,31.55,0,0,1,73.41,87.71Zm0-1.11v0l0,0Zm0,.77v0l0,0Zm1.23,4.06.5,1.65a.2.2,0,0,0-.13,0c-1.1.87-2.24,1.71-3.35,2.57L71.51,95a29,29,0,0,1,3.1-2.37c.21-.15,0-.5-.21-.35a31.41,31.41,0,0,0-3,2.29L71.21,94A13,13,0,0,1,74.68,91.43Zm-2,7.58,0-.11-.17-.59c1.22-.82,2.38-1.72,3.52-2.64l.21.67A16,16,0,0,0,72.66,99Zm3.65-2.27.23.72A16.1,16.1,0,0,0,73,100.14l-.2-.69A16.68,16.68,0,0,1,76.32,96.73Zm-4,1.17-.21-.74a24.93,24.93,0,0,0,3.38-2.63.19.19,0,0,0,0-.23h0l.15.47h-.16a.2.2,0,0,0,0,.41h.28l0,.08C74.71,96.17,73.56,97.08,72.34,97.9ZM72,96.75l-.19-.64c1.15-.89,2.32-1.75,3.46-2.65.05.24.11.49.15.73a.18.18,0,0,0-.2,0A22.92,22.92,0,0,1,72,96.75Zm3.69-5.17-.11-.35a32.77,32.77,0,0,0,3.9-4.88l.7-.13C78.69,88,77.15,89.76,75.7,91.58Zm-.24-.8,0-.11c-.05-.17-.1-.34-.14-.52,1-1.14,2-2.35,2.91-3.58l.72-.12A31.3,31.3,0,0,1,75.45,90.78Zm-.3-1.11-.23-.9,1.45-1.44a.21.21,0,0,0-.3-.3L74.8,88.3q-.08-.28-.16-.55l.91-1a10.49,10.49,0,0,0,2-.08C76.82,87.7,76,88.71,75.15,89.68Zm-3.64,9.17h0l.09.28c1,3.13,1.83,6.28,3,9.33-.16-.33-.31-.66-.44-1-.76-2-1.33-4.07-2-6.11q-.47-1.46-.92-2.92C71.35,98.56,71.43,98.71,71.52,98.85Zm1.6,1.74a16.75,16.75,0,0,1,3.56-2.73l.23.73c-1.09,1-2.24,1.92-3.4,2.84-.21.16.08.45.29.29,1.1-.88,2.2-1.76,3.25-2.7l.22.67c-1,.9-2.22,1.62-3.24,2.54-.2.18.09.46.29.29,1-.87,2.08-1.57,3.08-2.41l0,.11,0,0c-.22.62-1.11,1.16-1.58,1.57a8.84,8.84,0,0,0-1.66,1.73c-.14.22.21.43.35.21a10.38,10.38,0,0,1,2-2,6.62,6.62,0,0,0,1.1-1l.18.56a34.22,34.22,0,0,0-3.56,3.3C73.84,103.25,73.49,101.91,73.11,100.58ZM86.87,85l.62-.13q-2.63,3.21-5,6.6l-.19.05-.65.17C83.32,89.43,85.19,87.29,86.87,85Zm8.06-1.9,1-.32c-1.65,2-3.23,4.11-5,6-.22.15-.46.31-.7.46C91.84,87.26,93.46,85.25,94.93,83.11Zm1.77-.59q.58-.21,1.14-.45A38.94,38.94,0,0,0,94,86.38c-.51.44-1,.88-1.5,1.34C93.92,86,95.27,84.24,96.7,82.52Zm-.16,2.61A53.85,53.85,0,0,0,102,79.28l.2-.27a29,29,0,0,1-7.24,7.83c-.37.28-.76.54-1.15.78C94.74,86.83,95.66,86,96.54,85.14Zm.94-1.93c-.5.52-1,1-1.57,1.49a21.31,21.31,0,0,1,2.47-2.56.19.19,0,0,0,0-.31l.72-.35Q98.3,82.36,97.48,83.21Zm.32-2.49-.58.24h0c1.32-1.69,2.33-3.6,3.62-5.32l-.2.37a.22.22,0,0,0,.28.3C99.91,77.79,98.89,79.28,97.81,80.72Zm1.45-4a.22.22,0,0,0,.12.3,40.69,40.69,0,0,1-2.81,4.07l-1,.2a27.42,27.42,0,0,1,2.58-3.76.19.19,0,0,0,.26-.08l.43-.78.74-.91a.23.23,0,0,0-.05-.33c1.29-2.32,2.56-4.64,3.73-7l.55-.1C102.22,71,100.69,73.84,99.26,76.7Zm-.76-.28a30.25,30.25,0,0,0-3.46,5l-.92.22c1.16-1.81,2.52-3.49,3.78-5.22.12-.16,0-.31-.2-.3,1.41-2.42,2.37-5.1,4-7.41l1-.19h0C101.42,71.18,100,73.8,98.5,76.42ZM95.85,78a.23.23,0,0,0,.05.33c-.83,1.11-1.64,2.22-2.37,3.4l-1.1.29c.92-1.85,2.4-3.34,3.42-5.14a.19.19,0,0,0,0-.2c1.54-2.55,3-5.16,4.43-7.77l.84-.15C99.14,71.75,98.16,75.28,95.85,78Zm-1.24-.13a.19.19,0,0,0,0,.16,25,25,0,0,0-2.71,4.13l-.92.24c1.12-1.91,2.71-3.52,3.67-5.53a.22.22,0,0,0-.07-.27c1.38-2.5,2.42-5.2,4.22-7.44l.95-.17C98.09,72,96.43,75,94.62,77.91ZM30.41,4.36l.09,0s0,0,0-.05c.86,0,2.6-.74,3.76-.94,3.32-.57,6.79-.46,10.09-1.06a.22.22,0,0,0,.11.06l.79.08-.65.23a11.84,11.84,0,0,0-2,.92l-.14,0a91.87,91.87,0,0,0-12,.93Zm0,.35c3.08-.1,6.15-.51,9.23-.64a10.1,10.1,0,0,1,2.09,0c0,.05.06.11.11.09h0a.06.06,0,0,1,0,0c-.22.66-.39,1.33-.55,2a4.25,4.25,0,0,0,.16,3.12h0a4.76,4.76,0,0,0-1.07.08c-.06,0,0,.06,0,.09a43.4,43.4,0,0,0-4.53.13,18.12,18.12,0,0,0-4.23.47.78.78,0,0,0-.47-.07A35.93,35.93,0,0,0,30.44,4.71ZM15.23,29.43a21.27,21.27,0,0,0,.79,2c.12.25.48,0,.37-.21a24.89,24.89,0,0,1-.92-2.33q.24-.56.51-1.12c.39,1.06.79,2.11,1.25,3.14.11.25.47,0,.36-.21-.5-1.13-.94-2.29-1.36-3.46l.43-.86a24,24,0,0,0,1.6,3.49.21.21,0,0,0,.37-.21,24.78,24.78,0,0,1-1.7-3.78q.34-.63.69-1.25c.52,1.36,1.08,2.7,1.68,4,.11.25.48,0,.37-.21C19,27,18.43,25.59,17.89,24.14l.37-.62A37.12,37.12,0,0,0,20,27.6c.12.25.49,0,.37-.21a35.72,35.72,0,0,1-1.8-4.31q.34-.52.69-1A23.8,23.8,0,0,0,21,26.39a.21.21,0,0,0,.37-.21,24.87,24.87,0,0,1-1.84-4.57l.58-.79A38.76,38.76,0,0,0,21.7,25c.12.25.48,0,.36-.21a41.75,41.75,0,0,1-1.64-4.37l.32-.41.2-.24c.43,1.47,1.05,2.88,1.59,4.32.09.26.5.14.41-.11-.57-1.53-1.24-3-1.67-4.6l.16-.19.43-.47a29.73,29.73,0,0,0,1.55,4c.12.25.48,0,.37-.21a29.79,29.79,0,0,1-1.58-4.17l.54-.52a20.69,20.69,0,0,0,1.36,3.87c.12.25.48,0,.37-.21a20.4,20.4,0,0,1-1.37-4l.6-.51c.32,1,.7,2.07,1.08,3.09.09.25.5.14.41-.11-.4-1.08-.8-2.16-1.13-3.27l.56-.43A11.54,11.54,0,0,0,26,19.82a.21.21,0,0,0,.37-.21A11.14,11.14,0,0,1,25,16l.62-.45c.35,1,.79,2,1.06,3a.21.21,0,0,0,.41-.11c-.29-1.07-.75-2.08-1.11-3.13l.59-.41a14.6,14.6,0,0,0,1,2.84c.13.24.49,0,.36-.21a15,15,0,0,1-1-2.88l.72-.5a21.93,21.93,0,0,1,.93,2.33.21.21,0,0,0,.41-.11,24,24,0,0,0-1-2.46l.59-.42c.22.71.44,1.42.67,2.13.09.26.49.15.41-.11-.25-.76-.48-1.52-.72-2.28l.47-.35c.23.63.45,1.25.7,1.87.1.25.51.14.41-.11-.27-.68-.51-1.36-.76-2l.32-.15a12.09,12.09,0,0,0,.55,1.62c.1.25.51.14.41-.11a11.18,11.18,0,0,1-.57-1.7l.32-.15a12.13,12.13,0,0,0,.55,1.32c.12.25.49,0,.37-.21a11.22,11.22,0,0,1-.54-1.29l.29-.14a9.62,9.62,0,0,1,.37,1.08.21.21,0,0,0,.41-.11,10,10,0,0,0-.4-1.15l.19-.09a13.28,13.28,0,0,0,.51,1.23.18.18,0,0,0,.27.08l.09.2-.61.68-.07-.14c-.12-.25-.49,0-.37.21L32,14l-.5.59-.13-.21c-.15-.23-.52,0-.37.21l.22.33-.62.78c-.15-.08-.39,0-.31.22l0,.11c-2.33,3-4.44,6.23-6.76,9.06C21.41,27.76,19.15,30.35,17,33a.22.22,0,0,0-.28.3l0,0-.51.64L16,33.62l0,0a.21.21,0,0,0,.2-.31,17.33,17.33,0,0,1-1.4-2.82C15,30.11,15.09,29.77,15.23,29.43ZM14.59,31a18.14,18.14,0,0,0,1.26,2.45l0,0a.22.22,0,0,0-.2.32l.25.52-.32.41a29.17,29.17,0,0,0-1.32-2.87C14.38,31.6,14.49,31.31,14.59,31Zm-.51,1.41c.4.77.76,1.56,1.08,2.37a.19.19,0,0,0,0,.18l.08.26-.35.46-1.05-2.47Zm-.46,1.42.82,1.91a.21.21,0,0,0-.16.26l.09.34L14,36.9c-.24-.61-.46-1.24-.71-1.85Q13.45,34.45,13.63,33.86ZM7.85,27.48a44.12,44.12,0,0,0-3.75,2.73l.26-.68C5.67,28.4,7,27.32,8.27,26.09a.21.21,0,0,0-.3-.3c-1,1-2.15,2-3.26,2.89q.33-.76.68-1.5a.21.21,0,0,0,.13,0c1-.84,2-1.68,2.92-2.6a.21.21,0,0,0-.3-.3c-.74.73-1.54,1.42-2.33,2.09q.52-1,1.09-2a27.36,27.36,0,0,0,2.7-1.66c.21-.16,0-.53-.21-.37a16.61,16.61,0,0,1-2,1.27A43.22,43.22,0,0,1,9.8,20l0,0c0,.15.08.31.22.28a10.77,10.77,0,0,0,1.11,1.1A9.42,9.42,0,0,0,13.32,23l.1,0c-.09.14-.17.29-.24.44a3.48,3.48,0,0,0-.58.6c-1.35,1.56-2.24,3.9-3.16,5.73a21.3,21.3,0,0,0-1.7,4c-.61-.33-1.33-.58-1.86-.88l-1.18-.69L4.63,32c1.12-.78,2.25-1.55,3.3-2.43.21-.18-.09-.48-.3-.3-1,.86-2.11,1.6-3.2,2.36l-.17-.26A1.14,1.14,0,0,0,3.89,31a28.54,28.54,0,0,1,4.17-3.16C8.28,27.69,8.07,27.32,7.85,27.48ZM10,52c0-.73-.06-1.47-.06-2.21,0-1.11.07-2.22.19-3.33Q9.9,49.19,10,52ZM3.85,39.28C3,40.12,2,40.86,1.22,41.72c0-.25,0-.51,0-.76A24.91,24.91,0,0,0,4.32,38c.18-.21-.12-.51-.3-.3a23,23,0,0,1-2.75,2.64q0-.47.08-.94l0,0c1-1,2.09-1.94,3.1-2.94a.21.21,0,0,0-.3-.3c-.89.89-1.84,1.72-2.75,2.6,0-.25.08-.51.13-.75,1-.89,1.94-1.92,3-2.73.22-.16,0-.53-.21-.37a34,34,0,0,0-2.67,2.39c.11-.44.23-.87.36-1.29.69-.53,1.37-1.08,2.05-1.63.21-.17-.09-.47-.3-.3L2.33,35.3a29.73,29.73,0,0,1,1.25-2.94.94.94,0,0,0,.29.05.34.34,0,0,1,.35.2.44.44,0,0,0,.48.08l1.1.66a12.68,12.68,0,0,0,1.77,1,33.34,33.34,0,0,0-2.52,11h-.2c-.49,0-1-.08-1.48-.12a3.83,3.83,0,0,0-1.87.24c0-.12-.14-.17-.26-.16q0-.39,0-.78a.26.26,0,0,0,.23.16c.25,0,.5-.23.68-.37a11.57,11.57,0,0,0,1.69-1.84c.16-.22-.2-.43-.37-.21a13.53,13.53,0,0,1-1,1.19c-.19.2-.38.39-.59.56l-.24.18c-.07-.15-.3-.19-.37,0,0-.15,0-.29,0-.44C2.15,42.81,3.13,42,4,41c.18-.21-.12-.51-.3-.3-.75.89-1.62,1.67-2.46,2.48q0-.4,0-.81c.9-1,2-1.82,2.93-2.76A.21.21,0,0,0,3.85,39.28ZM7.23,57l-.07-.14q0-.18,0-.35ZM2.46,46A12.39,12.39,0,0,0,1.33,47.1c.06-.37.12-.75.15-1.11C1.81,46,2.14,46,2.46,46ZM1.2,47.89l.05,0A11.54,11.54,0,0,1,3.09,46l.35,0a16.66,16.66,0,0,0-2.26,2.11Zm.19,9.49,0-.28a1.44,1.44,0,0,0,.45-.23,5.61,5.61,0,0,0,.8-.68.21.21,0,0,0-.3-.3,5.86,5.86,0,0,1-.66.57,1.35,1.35,0,0,1-.36.22q0-.32-.08-.64L1.26,56a8,8,0,0,1,1.51-1.86.21.21,0,0,0-.3-.3,10.41,10.41,0,0,0-1.33,1.53c0-.25,0-.51,0-.76.73-.9,1.55-1.72,2.36-2.54.19-.19-.11-.5-.3-.3-.72.72-1.43,1.45-2.09,2.22,0-.24,0-.48,0-.72,0-.07,0-.14,0-.21a15.11,15.11,0,0,1,2.59-2.72c.21-.18-.09-.48-.3-.3A16.36,16.36,0,0,0,1,52.35q0-.34,0-.68c.72-1,1.64-1.8,2.43-2.74.18-.21-.12-.51-.3-.3C2.48,49.43,1.71,50.15,1,51c0-.23,0-.47,0-.7C2,49.2,3,48.2,4,47.2a.21.21,0,0,0-.3-.3c-.88.89-1.75,1.77-2.59,2.7,0-.25,0-.5,0-.75A15.74,15.74,0,0,1,4,46.07a4.6,4.6,0,0,0,1.12,0A22.36,22.36,0,0,0,5,51.9c0,1.18.1,2.36.22,3.54a5.14,5.14,0,0,0,.35,2,4.15,4.15,0,0,0-1,.3.17.17,0,0,0-.22.1c-.25.11-.5.23-.73.32l-.47.19a.22.22,0,0,0-.35,0l-.1.16c-.28.11-.56.2-.84.29C1.79,58.4,1.44,57.62,1.4,57.38ZM1.83,59,2.42,59q-.2.35-.38.71C2,59.47,1.91,59.26,1.83,59Zm.37,1.24c.24-.48.48-1,.75-1.41.31-.06.63-.13.95-.22-.49.85-1.06,1.65-1.5,2.52C2.35,60.88,2.28,60.58,2.21,60.29Zm1.1,5.06C3,64.2,2.76,63,2.53,61.78a.18.18,0,0,0,.1-.1c.51-1.13,1.29-2.11,1.86-3.21a7.93,7.93,0,0,0,1.22-.53c0,.06,0,.12,0,.18a34.76,34.76,0,0,0-2.6,4.38c-.12.24.24.46.37.21a35.39,35.39,0,0,1,2.33-4c.06.35.14.69.22,1a21.17,21.17,0,0,0-2.41,4.16c-.11.25.3.36.41.11a19.71,19.71,0,0,1,2.14-3.73c.12.46.25.91.38,1.36-.65,1.1-1.28,2.21-2,3.25-.16.22.21.43.37.21a34.15,34.15,0,0,0,1.83-2.9c.1.35.2.71.29,1l0,.09c-.53.74-1,1.49-1.62,2.19-.17.21.13.51.3.3.52-.64,1-1.31,1.46-2,.42,1.58.86,3.16,1.33,4.73a.47.47,0,0,0,.09.16,5.52,5.52,0,0,0,.59,1.41l-.47.24a14.14,14.14,0,0,1-2.42,1A18.52,18.52,0,0,1,3.3,65.35Zm11.33,17.1c-4.05-2.13-6.07-6.59-8.36-10.37.12.07.36,0,.37-.1A10.92,10.92,0,0,0,9.55,70.8a32.91,32.91,0,0,0,2.24,2.7c.92,1.08,1.91,2.12,2.88,3.16A5.92,5.92,0,0,0,16,77.95a3,3,0,0,0,.67,1c-.24.36-.45.75-.66,1.09-.46.74-1,1.47-1.38,2.23A.21.21,0,0,0,14.63,82.45ZM24.7,89.07A59,59,0,0,1,15,83c.17-.09.27-.27,0-.37l-.14-.07a.58.58,0,0,0,.42-.13,20.27,20.27,0,0,0,1.44-2.12c.16-.25.37-.52.57-.79a30.22,30.22,0,0,0,2.9,1.85,13.45,13.45,0,0,0,3.66,1.88c.27.13.53.26.81.37A12.37,12.37,0,0,0,27,84.82a8.88,8.88,0,0,0-1.21,2c-.25.49-.49,1-.73,1.49A4.66,4.66,0,0,0,24.7,89.07Zm.57,2.36-.16,0a1,1,0,0,1,0-.15h0Zm14.83,18a7.52,7.52,0,0,0-1.56-.12l-.33,0h2Zm.33-.54H38.5l.07-.07h1.9Zm.39-.48H39l.24-.25a8.62,8.62,0,0,0,1.67.17Zm.51-.48a10.62,10.62,0,0,1-1.76-.12l.42-.41a15.08,15.08,0,0,1,1.74.22Zm.91-.63h0c-.6-.11-1.19-.21-1.8-.27l.4-.28a11,11,0,0,1,2.14.19A7.52,7.52,0,0,0,42.23,107.27Zm1.4-.62,0,0a8.68,8.68,0,0,0-2.07-.31l.52-.23a8.87,8.87,0,0,0,2.05.4Zm3.54-.58a12.38,12.38,0,0,0-1.92.17.18.18,0,0,0-.17-.1,10.33,10.33,0,0,1-2.35-.27,8.67,8.67,0,0,1,1.13-.22.17.17,0,0,0,.13.09,14.16,14.16,0,0,0,2.46.17l.09,0,.09,0a21.8,21.8,0,0,1,2.72.22C48.64,106.09,47.91,106.06,47.18,106.07Zm5.32.41c-.77-.13-1.54-.22-2.31-.29a.23.23,0,0,0,.09-.24c1.35.19,2.69.43,4,.67a.9.9,0,0,1,.36.17C53.93,106.66,53.17,106.6,52.5,106.48Zm23.44,5.91c-2.49-.83-5.81-.28-8.29-.34-1.65,0-3.29-.19-4.93-.33a10,10,0,0,0-2.7-.06l0,0c-.85-1.33-1.87-2.54-2.82-3.8-.36-.46-1-1.9-1.69-1.95-2.93-.2-5.8-.93-8.75-1.08a11.31,11.31,0,0,0-6.08,1c-1,.54-3.18,2-3.74,3.34-2.12-.87-5.2-.59-7.28-.66-3.16-.1-6.37-.25-9.53-.1,1-3.13,1.86-6.32,2.74-9.49.51-1.83,1-3.65,1.57-5.48.08-.28.19-.58.3-.89a.49.49,0,0,0,.24-.16c.44-.05.88-.09,1.32-.1a10,10,0,0,0,2.45,1.22c-1.25-.07-2.49-.16-3.73-.29-.26,0-.26.38,0,.41,1.8.18,3.61.3,5.42.38l.46.11a33.55,33.55,0,0,0,8,1l.37.05c-4.76,0-9.52-.3-14.28-.31a.2.2,0,0,0,0,.41c5,0,10.09.3,15.13.32a.2.2,0,0,0,.18-.27c.8.11,1.6.21,2.41.28A53.14,53.14,0,0,0,53,95.49a25.32,25.32,0,0,0,11.27-4.3c.45-.2.88-.43,1.29-.66h0a7.43,7.43,0,0,0,2.22-1.09l.07.23A56.56,56.56,0,0,0,71,101l.16.57c1.06,3.7,2.1,7.54,4.44,10.66a.55.55,0,0,0,.35.13Zm.24-.23s0,0,0,0l0-.11.06.12Zm5.63.94a8.76,8.76,0,0,0-1.95-.09h0a5.14,5.14,0,0,0,1.2-1.29c.15-.21-.2-.42-.35-.21a4.38,4.38,0,0,1-1.13,1.2.2.2,0,0,0-.07.26l-.78-.09a8.59,8.59,0,0,1,1.91-2c.21-.16,0-.51-.2-.35a9.22,9.22,0,0,0-2.14,2.31v0l-.7-.11c.88-1.17,2-2.11,3-3.22Zm-1.73-5q-1.65,1.78-3.32,3.54c-.18.19.11.48.29.29q1.59-1.69,3.18-3.39l.18.52,0,0c-1,1.23-2.32,2.26-3.25,3.56H77a.77.77,0,0,0-.14-.35v0a.22.22,0,0,0,0,0c-.16-.35-.3-.7-.45-1a.2.2,0,0,0,.15-.09,12.47,12.47,0,0,1,3.19-3.28c.22-.15,0-.5-.21-.35a13,13,0,0,0-3.29,3.36l-.21-.53a17.43,17.43,0,0,1,3.4-3.62c.2-.16-.09-.45-.29-.29a17.88,17.88,0,0,0-3.29,3.46c-.1-.26-.2-.51-.29-.77a27.92,27.92,0,0,1,3.66-3.34Zm-.94-2.73a.21.21,0,0,0-.14,0,29.11,29.11,0,0,0-3.55,3.2l-.2-.61a38.28,38.28,0,0,1,3.65-3.38Zm-.38-1.11a.21.21,0,0,0-.11,0,38,38,0,0,0-3.56,3.28l-.21-.67A28.38,28.38,0,0,1,78.22,104c.22-.15,0-.5-.2-.35a27,27,0,0,0-3.25,2.84l-.13-.44h0a29.79,29.79,0,0,1,3.61-3.27Zm-.65-1.91a26.69,26.69,0,0,0-3.62,3.25l-.18-.63a.18.18,0,0,0,.15-.06,34.15,34.15,0,0,1,3.44-3.2Zm0-6-.05-.18.29,0Zm.45-.69.5,0,0,0-.57.09Zm.74,2.75-.15,0-.46,0h0l.11-.06.53,0Zm.27-.5h0Zm.18-1.62-.21,0L80,96h.37ZM81,95.66l-.45,0,.45-.2.31.08Zm.86-.39-.25,0a7.41,7.41,0,0,1,.74-.18Zm4.6,0H86c-.31,0-.64,0-1,.06l.14-.09.09-.08c.47,0,.94,0,1.41,0Zm29.81,5.24,0,.07-.13,0Zm-.29-.76c-.13,0-.07-.09-.05-.14Zm-.07-.18a.36.36,0,0,0-.16,0l-.33,0,.14-.21c.13-.19-.18-.37-.31-.18l-.3.42-.84.06a7.4,7.4,0,0,1,1.09-1.1c.18-.15-.08-.4-.25-.26a7.78,7.78,0,0,0-1.33,1.39l-.66.07c.67-.81,1.46-1.55,2.12-2.37ZM115,97l0,0c-.75,1-1.68,1.79-2.43,2.75a3.4,3.4,0,0,0-.41-.18l2.7-3.05Zm-.32-.84q-1.41,1.61-2.84,3.21a.18.18,0,0,0,0,.12h-.05l-.23-.5a.17.17,0,0,0,.14-.08,11,11,0,0,1,2.74-3c.19-.13,0-.45-.18-.31a11.46,11.46,0,0,0-2.83,3.06l-.2-.46a15.47,15.47,0,0,1,2.91-3.29c.18-.15-.08-.41-.25-.26A15.91,15.91,0,0,0,111,97.83l-.27-.68a24.82,24.82,0,0,1,3.15-3.05Zm-.9-2.39a.18.18,0,0,0-.12,0,25.74,25.74,0,0,0-3.06,2.93l-.2-.53a33.81,33.81,0,0,1,3.14-3.09Zm-.36-1a.18.18,0,0,0-.09,0,33.65,33.65,0,0,0-3.06,3l-.2-.58a25.08,25.08,0,0,1,2.86-2.68c.19-.14,0-.45-.18-.31a23.88,23.88,0,0,0-2.81,2.61l-.13-.39h0a26.12,26.12,0,0,1,3.11-3Zm-.82-2.23.2.56a23.64,23.64,0,0,0-3.12,3l-.18-.55a.15.15,0,0,0,.13-.06A30.27,30.27,0,0,1,112.58,90.59Zm-1-2.73h0c-.94.9-1.93,1.76-2.93,2.6-.18.15.08.4.25.26,1-.81,1.9-1.62,2.8-2.48l.21.59c-.89.82-1.91,1.49-2.79,2.33-.17.16.09.42.25.26.84-.8,1.81-1.45,2.67-2.22l0,.09,0,0c-.18.54-.91,1-1.3,1.39a8.08,8.08,0,0,0-1.48,1.62.18.18,0,0,0,.31.18,9,9,0,0,1,1.65-1.76,6.07,6.07,0,0,0,1-1l.18.49a30.35,30.35,0,0,0-3.07,3c-.37-1.17-.72-2.34-1.08-3.51a14.8,14.8,0,0,1,3.07-2.51Zm-5.07-.57.22.63c.88,2.6,1.69,5.23,2.69,7.78l-.14-.14c-.62-1.46-1.07-3-1.58-4.52q-.66-1.92-1.31-3.85A.21.21,0,0,0,106.53,87.29Zm-.14-.13-.85-2.49c.3.8.6,1.58.88,2.35A.14.14,0,0,0,106.39,87.15Zm4.86-.28a14.27,14.27,0,0,0-3.07,2.47l-.19-.61a14.66,14.66,0,0,1,3-2.49Zm-.34-1a14.14,14.14,0,0,0-3,2.45l0-.11-.16-.5c1.06-.75,2.06-1.58,3-2.43ZM110,83.37l.54,1.57c-1,.85-2,1.68-3,2.44l-.21-.65a22.1,22.1,0,0,0,2.92-2.41c.16-.17-.1-.43-.25-.26a20.35,20.35,0,0,1-2.78,2.31l-.18-.56C108,85,109.05,84.2,110,83.37Zm-.11-.33a.18.18,0,0,0-.11,0c-1,.8-1.93,1.57-2.9,2.36l-.18-.59a25.62,25.62,0,0,1,2.67-2.17c.18-.14,0-.45-.18-.31a27.82,27.82,0,0,0-2.61,2.1l-.17-.55a11.46,11.46,0,0,1,3-2.33Zm-1.28-3.67c.17.46.34.87.41,1.08l.27.8a12.65,12.65,0,0,0-3,2.28l-.17-.56c.9-.73,1.75-1.52,2.63-2.28.18-.15-.08-.41-.25-.26-.84.71-1.64,1.47-2.49,2.17l-.3-1C106.63,80.81,107.78,80.17,108.65,79.37Zm-.13-.36,0,0c-.83.79-2,1.43-2.86,2.23l-.18-.58a27.84,27.84,0,0,1,2.77-2.34.18.18,0,0,0,.07-.12A8,8,0,0,0,108.52,79ZM108,77.44l.17,0a.16.16,0,0,0,.09-.05,2.28,2.28,0,0,0,0,.73.14.14,0,0,0-.22,0,30,30,0,0,0-2.71,2.26l-.15-.5a11.81,11.81,0,0,1,2.71-2.29A.17.17,0,0,0,108,77.44Zm-1.28.11a.14.14,0,0,0,.09-.15l.54.07a12,12,0,0,0-2.24,1.93l-.15-.5A5.71,5.71,0,0,1,106.67,77.55ZM105,77.18h.07l-.07.06S105,77.2,105,77.18Zm.31.27a.18.18,0,0,0,.06-.23l.77.09.18,0a5.93,5.93,0,0,0-1.52,1.17l-.14-.46A3.83,3.83,0,0,1,105.3,77.45Zm-.79,6.1a6.36,6.36,0,0,0-1.34.33c-.25.08-.14.48.11.39a5.63,5.63,0,0,1,1.35-.33c.64,2.23,1.3,4.45,2,6.66a48,48,0,0,0,2.22,6.09,10.33,10.33,0,0,0,.23,1,5.91,5.91,0,0,0,.31,1.11c.07.26.14.53.19.79a.61.61,0,0,0,.07.18c-2-.18-4.2.19-5.89.2-1.5,0-3-.09-4.48-.17a8.61,8.61,0,0,0-2.26,0l0,0c-.7-1-1.54-2-2.34-3-.41-.5-1.1-1.89-1.79-2a59.54,59.54,0,0,0-7.31-.72,15.45,15.45,0,0,0-3.23.17q-1.15.15-2.31.24l0,0,.47-.14c.31-.1.62-.22.92-.35C83,94,84.63,94,86.2,94a.2.2,0,0,0,0-.41c-1.25,0-2.51,0-3.76,0l.37-.18a.18.18,0,0,0,.12,0c4.94-.16,9.88,0,14.79-.69.26,0,.26-.44,0-.41A133.59,133.59,0,0,1,83.58,93l.56-.28.47-.23c4.92-.72,9.9-.35,14.84-.8.26,0,.26-.43,0-.41-4.6.42-9.23.14-13.81.66l.09-.05a10.5,10.5,0,0,0,2.8-.82c4.37-.68,8.82-.34,13.21-1,.26,0,.15-.43-.11-.39-3.89.54-7.84.33-11.73.76l.28-.12a52,52,0,0,0,5.64-2.78,19.7,19.7,0,0,0,4.72-3.8,8.13,8.13,0,0,0,2.5-2.28,6.8,6.8,0,0,0,.65-1Q104.09,82.06,104.51,83.55ZM104.06,80c.07.31.14.61.22.92l-.28-.83Zm1.82-8c-.48.88-1,1.74-1.54,2.59.36-.68.72-1.35,1.13-2,.14-.23-.22-.45-.37-.21-1.15,1.87-2,3.91-3.27,5.71a.18.18,0,0,0,0,.16c-.42.55-.86,1.1-1.31,1.63a.71.71,0,0,0-.39,0c-.53.16-1,.35-1.56.55,1.09-1.48,2.13-3,3.16-4.53a.19.19,0,0,0,.33,0c.23-.52.48-1,.74-1.55l.12-.18a.18.18,0,0,0,0-.13c1.09-2.15,2.34-4.21,3.58-6.27a.2.2,0,0,0,0-.08l.41-.14c-.06.2-.13.41-.2.6a.18.18,0,0,0-.09.09,36.87,36.87,0,0,1-3.1,5.54h0c-1.26,1.84-2.44,3.74-3.78,5.52-.16.22.2.43.37.21,1.64-2.18,3-4.55,4.64-6.75a.17.17,0,0,0,0-.16c.16-.25.3-.51.45-.77a.18.18,0,0,0,.21-.1,23,23,0,0,0,1.91-4.2.2.2,0,0,0,0-.14,8.33,8.33,0,0,0,1-.46C107.45,68.55,106.78,70.38,105.89,72Zm3.18-6.7h0l-.66.07c.35-.47.67-1,1-1.45C109.24,64.38,109.15,64.84,109.07,65.3Zm.61-2.84a19.14,19.14,0,0,1-1.89,3l-.71.1c.92-1.43,2-2.77,2.86-4.21Q109.82,61.9,109.68,62.47Zm1.24-8a.23.23,0,0,0-.33.11,18.12,18.12,0,0,1-2,3.93c-.16.23.21.44.37.21a18.3,18.3,0,0,0,1.95-3.7c-.15,1.43-.3,2.85-.52,4.27,0,.23-.08.46-.12.69-1,2-2.49,3.71-3.68,5.6l-1.09.18c1-1.66,2.13-3.28,3.12-5a.21.21,0,0,0-.37-.21c-1.05,1.79-2.22,3.51-3.31,5.28l-1.09.21c.81-1.52,1.81-2.93,2.7-4.41a.21.21,0,0,0-.37-.21c-1,1.58-2,3.08-2.87,4.73l-1.14.24c.6-1,1.28-2,2-3,.16-.22-.21-.44-.37-.21a37.55,37.55,0,0,0-2.16,3.37l-1.08.24a9.35,9.35,0,0,1,1.5-2.15c.19-.2-.11-.5-.3-.3A10.18,10.18,0,0,0,100,66.94l-1.1.25c.41-.66.76-1.35,1.11-2,.12-.24-.24-.46-.37-.21a21,21,0,0,1-1.33,2.39l-.81.18c.34-.48.65-1,1-1.49a.21.21,0,0,0-.37-.21,16.54,16.54,0,0,1-1.21,1.84l-1.34.28a7.48,7.48,0,0,1,1.51-2c.21-.18-.09-.48-.3-.3A9.17,9.17,0,0,0,94.95,68l-.92.19c.55-.85,1.09-1.71,1.64-2.55.15-.23-.21-.44-.37-.21-.63,1-1.23,1.93-1.86,2.89L92,68.63c.58-.93,1.12-1.89,1.74-2.79.16-.23-.21-.44-.37-.21-.7,1-1.3,2.09-2,3.12l-.5.1a.2.2,0,0,0-.1,0q1.34-2.2,2.75-4.35c.15-.23-.22-.44-.37-.21q-1.55,2.35-3,4.76L89,69.27a26.78,26.78,0,0,0,2.9-4.64c.11-.25-.25-.46-.37-.21a27.79,27.79,0,0,1-3.16,5l-1,.22c1-1.53,2.29-3,2.79-4.71a.21.21,0,0,0-.41-.11c-.53,1.83-2,3.34-3,5l-.46.11q.19-.7.36-1.41a15.34,15.34,0,0,0,1.94-3.37c.1-.26-.31-.37-.41-.11A12.43,12.43,0,0,1,87,67.37c.37-1.7.69-3.42,1.06-5.08s.79-3.68,1-5.57a7.17,7.17,0,0,0,1.16-.11c-.47.87-.9,1.77-1.44,2.61-.15.23.22.44.37.21.61-.94,1.07-2,1.61-2.92.54-.11,1.07-.24,1.59-.35-.91,1.65-2.07,3.14-2.56,5a.21.21,0,0,0,.41.11c.5-1.95,1.77-3.47,2.68-5.22l1.25-.22a32.37,32.37,0,0,0-2.62,5.32c-.11.25.3.36.41.11a30.08,30.08,0,0,1,2.77-5.52l1.48-.22C95,57.41,94,59.35,93.07,61.3c-.12.24.24.46.37.22,1-2.06,2.06-4.1,3.27-6L98,55.3A35.85,35.85,0,0,1,94.27,62c-.14.23.22.45.37.21a34.83,34.83,0,0,0,3.81-7h0l1.32-.16c-1,2.26-2.25,4.42-3.47,6.57a.21.21,0,0,0,.36.21c1.27-2.24,2.54-4.49,3.6-6.85l1.21-.15c-.7,2.66-2.39,5.17-3.79,7.47a.21.21,0,0,0,.37.21c.47-.76,1-1.55,1.44-2.36-.1.27-.2.53-.28.81s.33.37.41.11a33.22,33.22,0,0,1,3.25-6.43l1.24-.17a45,45,0,0,0-3.35,6.83c-.09.26.32.37.41.11a46.72,46.72,0,0,1,3.46-7l.82-.12c-1.11,2.23-2.24,4.46-3.46,6.63a.21.21,0,0,0,.36.21c1.28-2.27,2.45-4.59,3.61-6.92l1-.17c-1.25,2-2.32,4.1-3.43,6.18-.13.24.24.46.37.21,1.17-2.19,2.29-4.41,3.63-6.5l.92-.18c-1.11,2.08-2.25,4.14-3.54,6.12-.15.23.22.44.37.21,1.36-2.08,2.54-4.26,3.71-6.44l1.3-.3c-1.22,2.21-2.63,4.31-3.83,6.53-.13.24.23.46.37.21,1.25-2.29,2.71-4.46,4-6.75a.2.2,0,0,0,0-.12l.22-.05h0C111,53.63,111,54.06,110.92,54.49ZM89.13,56l0-.22.3.08Zm12.39.2a12.94,12.94,0,0,0,.44-1.41l.41-.05Zm9.33-15.64a46,46,0,0,1,.41,4.92c0,1.48.07,3,.07,4.45,0,.47,0,.95,0,1.42a7.28,7.28,0,0,0-2,.39l-.79.16a19.43,19.43,0,0,0,2-3.38c.12-.24-.24-.46-.37-.21a18.45,18.45,0,0,1-2,3.42.22.22,0,0,0,0,.26l-.87.17a.21.21,0,0,0,0-.11,5.76,5.76,0,0,1,1.16-2.31c.5-.77,1-1.51,1.56-2.26.16-.22-.21-.44-.37-.21-.63.88-1.25,1.76-1.83,2.67a5,5,0,0,0-1,2.1.17.17,0,0,0,.08.17l-.37.07c-2.07.41-4.14.74-6.23,1-.48.07-1,.14-1.43.23a70.35,70.35,0,0,1,3.53-6.93c.12-.24-.24-.46-.36-.21a65.31,65.31,0,0,0-3.65,7.23l-1.4.28a57.92,57.92,0,0,1,3.18-6.09c.16-.23-.21-.44-.37-.21-1.38,2-2.19,4.3-3.36,6.42l-1.86.4c-1.78.37-3.57.47-5.35.78,0-.5.07-1,.08-1.5.07,0,.15,0,.16-.09a30.29,30.29,0,0,0-.1-6.52,29.14,29.14,0,0,0-.85-5.87,12,12,0,0,0,5,.12,10.3,10.3,0,0,1-1.67,3.32c-.17.22.2.43.37.21A10.58,10.58,0,0,0,94,41.39a.22.22,0,0,0,0-.1L95.41,41c-1.18,1.56-1.72,3.53-2.68,5.22a.21.21,0,0,0,.37.21c1-1.82,1.57-4,3-5.58l1-.22c-1,2.34-2.6,4.3-3.5,6.67-.1.26.31.37.41.11.93-2.44,2.66-4.46,3.6-6.89l1.23-.26c-1.19,2.55-2.41,5.08-3.84,7.51a.21.21,0,0,0,.36.21c1.48-2.53,2.75-5.17,4-7.82l.19,0,.81-.12c-1.61,2.43-2.59,5.21-4,7.77-.13.24.23.46.36.21,1.45-2.66,2.44-5.57,4.18-8.07.94-.13,1.89-.25,2.83-.35-1.2,1.69-1.88,3.65-2.91,5.44a.21.21,0,0,0,.37.21c1.09-1.88,1.77-4,3.1-5.71h0l1-.12c-.91,1.73-1.6,3.57-2.56,5.27a.21.21,0,0,0,.37.21c1-1.8,1.71-3.74,2.7-5.55l.53-.06.8-.1a56.44,56.44,0,0,1-2.85,5.67.21.21,0,0,0,.37.21,56.32,56.32,0,0,0,3-5.94l1.23-.17a48,48,0,0,0-2.67,5.21c-.12.24.24.46.37.21a41.94,41.94,0,0,1,2.89-5.53c.37-.07.73-.16,1.09-.27a47.49,47.49,0,0,1-2.28,4.72c-.13.24.23.46.37.21.77-1.4,1.47-2.83,2.1-4.3C110.72,39.67,110.79,40.13,110.85,40.58Zm-2-9.66c.48,1.53.91,3.07,1.29,4.63.16.66.27,1.34.43,2-1.37.09-2.78.5-4.11.68-1.89.26-3.78.46-5.67.72-4.14.57-8.24,1.87-12.46,1.52h0a66,66,0,0,0-2.51-7c-.49-1.27-1-2.52-1.57-3.77a8.6,8.6,0,0,0,.16-2.2l.65-.06.85-.08a9,9,0,0,0-.37,2.55.21.21,0,0,0,.42,0,8.52,8.52,0,0,1,.42-2.61c.91-.13,1.81-.31,2.71-.51a.21.21,0,0,0-.1.12,41.71,41.71,0,0,0-1,5.19c-.06.27.35.38.41.11a41.82,41.82,0,0,1,1-5.19.19.19,0,0,0-.2-.26l1.2-.28a.22.22,0,0,0,0,.07c-.35,1.49-.54,3-.86,4.5-.06.27.35.38.41.11.32-1.49.51-3,.86-4.5a.2.2,0,0,0-.13-.24l.52-.12.7-.15a22.45,22.45,0,0,0-1,5.65c0,.27.4.27.42,0a21.44,21.44,0,0,1,1-5.65.2.2,0,0,0,0-.09l1.45-.28c-.48,1.61-.56,3.31-1,4.93a.21.21,0,0,0,.41.11c.46-1.65.53-3.38,1-5a.2.2,0,0,0,0-.11l1.15-.2v0c-.33,1.72-.53,3.47-.86,5.19-.05.27.36.38.41.11.33-1.72.53-3.47.86-5.19a.21.21,0,0,0-.06-.2l2.21-.36.51-.08c-.17.87-.31,1.74-.48,2.6-.05.27.36.38.41.11.18-.92.33-1.85.52-2.77,0,0,0,0,0,0l3-.52a11.65,11.65,0,0,0,3.95-1C106.74,25.9,108,28.29,108.81,30.91ZM96.94,12.66c-.51,2.27-1,4.54-1.49,6.82-.06.27.35.38.41.11.49-2.29,1-4.57,1.49-6.86l.36.48a.21.21,0,0,0,0,.15c.3,1.94-.49,3.89-.86,5.77-.05.27.36.38.41.11.35-1.81,1-3.63.91-5.49l.5.59a.19.19,0,0,0-.11.18,18.6,18.6,0,0,1-1,5,.21.21,0,0,0,.41.11,19.74,19.74,0,0,0,1-4.9l.44.5c-.35,1.3-.5,2.64-.85,3.94a.21.21,0,0,0,.41.11c.33-1.21.49-2.46.79-3.68l.37.41a.21.21,0,0,0,0,.1,27.49,27.49,0,0,1-.51,3.58c0,.27.37.38.41.11.17-1.13.44-2.24.51-3.37l.5.55.13.15-.51,2.57c-.05.27.35.38.41.11l.45-2.28.52.6h0c-.2.63-.32,1.28-.52,1.9-.08.26.32.37.41.11.17-.54.28-1.09.44-1.63l.69.86a.19.19,0,0,0-.17.2v1.21a.21.21,0,0,0,.42,0V19.66c.79,1,1.53,2.07,2.22,3.18l0,.12a5.6,5.6,0,0,0-2.41.13l-3.91.67c-2.32.4-4.65.83-7,1.33-1.87.41-3.72.88-5.61,1.23-1.19.22-2.7,0-3.85.4l-.62-1.29c-1-1.93-2-4.14-3.2-6.17a.23.23,0,0,0,0-.07c.15-1.47.19-3,.3-4.43l.27,0,.28,0c-.13,1.36,0,2.73-.24,4.09,0,.27.36.38.41.11.24-1.41.09-2.83.25-4.24l.65-.06c-.1,1.42-.15,2.83-.28,4.25,0,.27.4.27.42,0,.13-1.43.18-2.86.29-4.3l.74-.09c-.24,1.33-.26,2.69-.42,4,0,.27.39.27.42,0,.16-1.36.18-2.74.44-4.09l.83-.11c-.08,1.29-.3,2.56-.32,3.85a.21.21,0,0,0,.42,0c0-1.31.25-2.6.32-3.91l.83-.11c-.2,1.32-.27,2.65-.54,4-.05.27.35.38.41.11.28-1.37.35-2.76.56-4.13l.47-.06.3,0c-.24,1.5-.39,3-.54,4.52,0,.27.4.27.42,0,.15-1.53.3-3.06.56-4.58l.68-.08a40.86,40.86,0,0,0-.45,4.49.21.21,0,0,0,.42,0,41.27,41.27,0,0,1,.46-4.54l.64-.07c-.11,1.72-.62,3.39-.66,5.13a.21.21,0,0,0,.42,0c0-1.75.56-3.43.67-5.17l.82-.08a29.09,29.09,0,0,0-.7,5.09.21.21,0,0,0,.42,0,29.45,29.45,0,0,1,.72-5.13l1-.1a31.64,31.64,0,0,0-.73,5.4.21.21,0,0,0,.42,0,32,32,0,0,1,.75-5.45l1.07-.11c-.47,1.94-.89,3.88-1.2,5.85,0,.27.36.38.41.11.32-2,.76-4,1.24-6l.82-.09a25.45,25.45,0,0,0-1.28,6.4c0,.27.4.27.42,0a24.79,24.79,0,0,1,1.32-6.45l.83-.1a48.76,48.76,0,0,0-1.53,6.5c0,.27.37.38.41.11a50.21,50.21,0,0,1,1.58-6.67L96,12.8a.19.19,0,0,0-.06.1c-.54,2.2-1.07,4.4-1.72,6.57a.21.21,0,0,0,.41.11c.65-2.17,1.18-4.37,1.72-6.57a.2.2,0,0,0-.13-.25ZM86.91,5a.1.1,0,0,0,0,0A41.93,41.93,0,0,0,91.7,8.1a31.41,31.41,0,0,1,3.14,2.4c.49.42.93.9,1.4,1.34l-.72,0a.21.21,0,0,0-.41-.11l0,.1a57.79,57.79,0,0,0-7.56.76c-2.2.29-4.39.59-6.59.86-1.34.16-2.91.15-4.33.41a3.73,3.73,0,0,0-.73-.05h-.63a.44.44,0,0,0-.22.05.7.7,0,0,0-.28-.07A51.34,51.34,0,0,0,70,10a37.07,37.07,0,0,0-4.38-2.85c.47,0,.95-.08,1.28-.1,1.59-.1,3.18-.4,4.75-.64l.21,0A21.45,21.45,0,0,0,75.64,6l2-.17c2.31-.2,5-.07,7.27-.7.28,0,.59,0,.86,0S86.63,5.21,86.91,5ZM80.47,2.56c1.93.66,3.8,1.4,5.75,2l-.38,0a4.43,4.43,0,0,0-.67.08h0c-1.85-.3-3.95.18-5.81.34-2.2.19-4.41.35-6.61.57-.45,0-.91.1-1.36.17L70,5.78c-1.89.09-3.79.17-5.67.39-2.07-1.38-4.8-2.06-7.05-2.76-1-.3-1.94-.58-2.91-.85a82.81,82.81,0,0,0,9.5-.63c3.65-.31,7.38-.32,11-.67q.64,0,1.28-.09A26.15,26.15,0,0,0,80.47,2.56Zm37.38,39.22q.06.82.1,1.64c.13,2.39-.05,4.75-.1,7.13a5.73,5.73,0,0,0-1.16.28L116,51a11.73,11.73,0,0,0-1.47.36l0,0c0-.29,0-.57,0-.86a5.7,5.7,0,0,0,.81-1.08c.65-.92,1.23-1.88,1.85-2.81.15-.23-.22-.44-.36-.21-.45.68-.88,1.38-1.33,2.06-.12.18-.6,1-1,1.45,0-.6,0-1.2,0-1.79,1.1-1.22,2-2.63,3-3.88.18-.21-.12-.51-.3-.3-1,1.14-1.77,2.42-2.74,3.56v-.4c0-.27,0-.54,0-.81l0,0c1-1.6,2.31-3,3.44-4.5Zm-2.63,10.29a5.69,5.69,0,0,1-.6,1.52l-.22.51c.06-.71.09-1.43.1-2.15l0,0h0c.22.11.47.17.47.1S115.1,52.09,115.22,52.07Zm2.62-10.51a.23.23,0,0,0-.35,0c-1,1.35-2.18,2.62-3.13,4q0-.57-.07-1.13c1.24-1.53,2.19-3.27,3.38-4.85Q117.77,40.59,117.84,41.56Zm-.32-4.5a5.16,5.16,0,0,0,.08,2,.18.18,0,0,0-.08.06c-1.18,1.52-2.11,3.22-3.28,4.74q-.06-.7-.13-1.39a10.76,10.76,0,0,0,1.22-1.87c.59-1,1.15-2,1.83-2.95.16-.22-.21-.43-.36-.21-.63.86-1.15,1.8-1.7,2.72a16.51,16.51,0,0,1-1.06,1.74q-.07-.64-.16-1.28a10.75,10.75,0,0,0,.92-1.39c.4-.66.78-1.34,1.2-2a5,5,0,0,0,1.45-.28A.26.26,0,0,0,117.52,37.06Zm-.18-.79a8.06,8.06,0,0,0-1.48.07c.27-1.06.64-2.08.85-3.15Q117.08,34.72,117.34,36.27ZM116.43,32a22.12,22.12,0,0,1-1,4.34l-.3,0a.23.23,0,0,0-.38,0l0,.06-.22,0c.46-2,1-4,1.52-6Q116.22,31.26,116.43,32Zm-4-10.5c-.49.07-1,.23-1.46.35a7.72,7.72,0,0,0,.58-2.06C111.83,20.4,112.1,21,112.42,21.53Zm-1.55-2.91c.1.14.19.3.27.45a.21.21,0,0,0,0,.17,3.62,3.62,0,0,1-.26,1.58c-.12.39-.25.78-.39,1.17l-1,.18c0-.12,0-.24.06-.33.12-.48.26-1,.4-1.44.22-.75.46-1.51.62-2.28ZM89.61,4.12l-.1-.05a.17.17,0,0,0-.13,0c-1.18-.62-2.45-1.13-3.55-1.62A29.89,29.89,0,0,0,81.19.7c.29,0,.57,0,.86,0,1.44.55,3,.83,4.47,1.37a41.06,41.06,0,0,0,4.38,1.72h0c-.3,0-.6,0-.82.17A1.32,1.32,0,0,0,89.61,4.12Zm.7.37-.15-.08h.17l.14,0Zm9.88,6.72a.33.33,0,0,0-.27.15A37.25,37.25,0,0,0,96,8.24a65.44,65.44,0,0,0-5.46-3.62l.31,0a2.54,2.54,0,0,0,.6-.13,3.81,3.81,0,0,0,.59,0,.28.28,0,0,0,.21-.11,7.58,7.58,0,0,0,1.05,0l.06,0A15.66,15.66,0,0,1,98.7,6.52,27,27,0,0,1,104.33,11L104,11a.22.22,0,0,0-.42,0v0a11.22,11.22,0,0,0-1.15.08A7.76,7.76,0,0,0,100.2,11.2Zm1,.79a2,2,0,0,0-.14.43l-.36-.36a3.13,3.13,0,0,0,.52-.11Zm.83-.07c0,.47-.1.93-.15,1.39l-.33-.37-.12-.13a1.65,1.65,0,0,1,.13-.61.23.23,0,0,0-.15-.32l.09,0h.06a.57.57,0,0,0,.27.06l.21,0A.19.19,0,0,0,102,11.92Zm.86,2.55-.63-.73a.22.22,0,0,0,0-.09c0-.58.16-1.15.17-1.73a.2.2,0,0,0,0-.06l.91-.05C103.1,12.68,103,13.58,102.85,14.47Zm.35.42c.19-1,.29-2.08.55-3.1a4.94,4.94,0,0,0,.73,0,.19.19,0,0,0-.08.11,29.51,29.51,0,0,0-.67,3.67Zm1.52,1c0,.22-.11.46-.16.71l-.52-.66a.17.17,0,0,0,.08-.13,30.71,30.71,0,0,1,.69-3.81.2.2,0,0,0-.16-.26l.08,0a4,4,0,0,0,.7.9h0C105.28,13.71,105,14.79,104.72,15.87ZM104.9,17a11.37,11.37,0,0,1,.41-1.83c.18-.74.36-1.48.48-2.24l.58.51c-.13,0-.28,0-.26.19a9.88,9.88,0,0,1-.77,4Zm.75,1a11.18,11.18,0,0,0,.88-4.38.23.23,0,0,0,0-.08l.78.63c-.2,1.61-.64,3.17-1,4.75Zm1,1.4c.34-1.64.81-3.25,1-4.91l0,0c.22.21.43.43.63.66-.31,1.76-.61,3.53-1,5.27Q107,20,106.63,19.43ZM108,21.7l-.41-.69c.44-1.77.75-3.58,1.06-5.37l.51.63A23.12,23.12,0,0,1,108,21.7Zm1.09,2.24-.08-.18a.09.09,0,0,0,0-.13l-.22-.43h.44A7.51,7.51,0,0,0,109.13,23.95Zm-.16-1.7-.58.07-.08-.14a22.24,22.24,0,0,0,1.26-5.43q.32.44.63.89a32,32,0,0,1-.88,3.33A7.68,7.68,0,0,0,109,22.25Zm.49,2.56a6.29,6.29,0,0,1,.3-1.65l.39-.06c-.14.77-.33,1.53-.48,2.3Zm.5,1.37v0c.16-1.06.44-2.09.63-3.14l.89-.14c-.33,1.51-.78,3-1.1,4.51Zm.71,2c.33-1.82.89-3.58,1.27-5.38l.63-.14c-.35,2.28-.91,4.52-1.47,6.75Zm.68,2A75.75,75.75,0,0,0,113,22.53l.11,0,.08.09,0,0a6.21,6.21,0,0,0,.18.6.22.22,0,0,0-.08.15,72,72,0,0,1-1.58,8Zm1.71,5.72q-.19-.79-.41-1.57a38.79,38.79,0,0,0,1.62-8.53c0-.27-.4-.27-.42,0a38.21,38.21,0,0,1-1.41,7.78q-.21-.71-.44-1.41c.65-2.73,1.3-5.45,1.68-8.24.09.23.19.46.27.69.38,1,.74,2,1.1,3C114.44,30.39,113.41,33.07,113.06,35.87Zm.36.62c.24-2.78,1.24-5.41,1.9-8.11l0,.06c.14.42.28.84.42,1.26-.51,2.28-1.19,4.52-1.71,6.81l-.66.1A.22.22,0,0,0,113.41,36.49Zm.13,1.81c0-.26-.09-.53-.14-.79l0-.14h.48a.21.21,0,0,0,.13.16l-.09.14C113.78,37.88,113.67,38.1,113.54,38.31Zm.27,1.71q-.08-.55-.17-1.1c.19-.25.33-.54.49-.8l.47-.77.87-.08c-.32.5-.61,1-.92,1.53S114.09,39.62,113.81,40Zm-4.23,31.32a.21.21,0,0,0,0,.07q-.42.53-.82,1.08c.92-1.8,1.7-3.67,2.46-5.54a.45.45,0,0,0,.25,0,3.16,3.16,0,0,0,.56-.16A38.16,38.16,0,0,0,109.58,71.33ZM114,67.53c-.21.39-.42.78-.64,1.17A29,29,0,0,1,114.59,66a.21.21,0,0,0,0-.18l.27-.06C114.57,66.35,114.31,67,114,67.53ZM115.52,64a3.9,3.9,0,0,0-.69.12c.38-.74.73-1.5,1.13-2.23.13-.24-.23-.45-.37-.21-.47.86-.86,1.76-1.33,2.61-.39.13-.75.27-1,.37a22.83,22.83,0,0,1,2-3.63c.16-.22-.21-.43-.37-.21a25.32,25.32,0,0,0-2.21,4l-.68.28h0c.54-1.66,1.65-3,2.24-4.67.09-.26-.32-.37-.41-.11a13.29,13.29,0,0,1-.89,1.88,22.78,22.78,0,0,0,1-4.93h0c.12-.53.22-1.07.3-1.62l0-.06c.25-.71.56-1.4.86-2.1a5.06,5.06,0,0,0,.52-1.42.2.2,0,0,0,0-.07c.43-.09,1-.24,1.55-.39-1,1.83-1.77,3.81-3,5.55-.16.23.21.44.36.21,1.29-1.86,2-4,3.2-5.93l.13,0a.31.31,0,0,0,.22.07,16.08,16.08,0,0,1-.6,6.6C117,59.94,115.91,62,115.52,64Zm2.12-11.45a12.94,12.94,0,0,1-1.53,3.41c-.15.23.22.44.36.21A13.36,13.36,0,0,0,118,52.64.21.21,0,0,0,117.64,52.53Zm-88.55,7.8h0S29.1,60.26,29.09,60.33Zm-5.63,9.54a10.47,10.47,0,0,0-.82,3.23c0,.05.1.11.12,0,.29-1.07.52-2.14.89-3.19C23.69,69.86,23.49,69.78,23.46,69.87Zm33.88-49.7a17.87,17.87,0,0,0-1.23-3.34.21.21,0,0,0-.37.21,17.25,17.25,0,0,1,1.18,3.24C57,20.54,57.43,20.43,57.34,20.17Zm.45.11c.06.27.46.15.41-.11a10.68,10.68,0,0,0-.88-2.47c-.12-.25-.48,0-.37.21A10.21,10.21,0,0,1,57.79,20.28Zm1.05-.12c.12.25.48,0,.37-.22s-.19-.7-.34-1-.48,0-.37.21S58.69,19.83,58.85,20.16Zm19.58,8.49c-.36,1.72-.5,3.47-.86,5.19-.06.27.35.38.41.11.36-1.72.5-3.47.86-5.19C78.89,28.49,78.49,28.38,78.43,28.65Zm8.94-1.38a29.39,29.39,0,0,0-.69,3.63c0,.27.37.38.41.11a29.29,29.29,0,0,1,.69-3.63A.21.21,0,0,0,87.37,27.26Zm9,2.54a28.9,28.9,0,0,1,.86-4.15c.1-.26-.31-.37-.41-.11A28.86,28.86,0,0,0,96,29.69C95.91,30,96.32,30.07,96.38,29.8ZM92,34.53c-.22.64-.52,1.25-.69,1.9a.21.21,0,0,0,.41.11c.17-.66.47-1.26.69-1.9C92.51,34.38,92.11,34.27,92,34.53Zm1.55-.35-1,2.6c-.1.26.31.36.41.11l1-2.6C94.07,34,93.66,33.93,93.56,34.19Zm2.26-1.09c-.72,1.14-1.08,2.46-1.72,3.63-.13.24.23.45.37.21.64-1.18,1-2.5,1.72-3.63C96.33,33.08,96,32.87,95.82,33.1Zm1.89-1.38a33,33,0,0,0-2.26,5.59.21.21,0,0,0,.41.11,32.33,32.33,0,0,1,2.21-5.49C98.2,31.68,97.83,31.47,97.71,31.71ZM100.12,30c-1.69,2.67-2.51,5.76-4.13,8.48a.21.21,0,0,0,.37.21C98,36,98.8,32.87,100.49,30.2,100.63,30,100.27,29.75,100.12,30Zm1.38.69c-1.46,2.11-2.22,4.6-3.27,6.92-.11.25.25.46.37.22,1-2.33,1.81-4.81,3.27-6.92C102,30.66,101.65,30.45,101.5,30.67ZM100,37.81a62.55,62.55,0,0,0,3.46-7.49c.09-.26-.32-.37-.41-.11a61.49,61.49,0,0,1-3.42,7.39C99.48,37.84,99.85,38.05,100,37.81Zm1.72-.87c1-2.06,1.91-4.17,2.92-6.23.12-.25-.24-.46-.37-.21-1,2.06-1.91,4.17-2.92,6.23C101.2,37,101.57,37.19,101.69,36.94Zm1.89-.69c.85-1.59,1.43-3.32,2.41-4.84.15-.23-.22-.44-.37-.21-1,1.53-1.55,3.25-2.41,4.84C103.09,36.28,103.45,36.49,103.58,36.25Zm1.89-.69a31.74,31.74,0,0,1,2.06-4.15c.15-.23-.21-.44-.37-.21a31.78,31.78,0,0,0-2.06,4.15C105,35.59,105.35,35.81,105.47,35.56Zm2.06-1c.36-.74.67-1.51,1-2.25.12-.24-.24-.46-.37-.21-.36.74-.67,1.51-1,2.25C107.05,34.55,107.42,34.77,107.54,34.52ZM102,40a47.76,47.76,0,0,0-2.41,5c-.12.25.25.46.37.21a47.71,47.71,0,0,1,2.41-5C102.53,40,102.16,39.79,102,40ZM95.7,50.33c0-.27-.39-.27-.42,0a3.52,3.52,0,0,1-.41,1,8.63,8.63,0,0,1-.77,1.35c-.16.22.21.43.37.21a9.21,9.21,0,0,0,.82-1.46A3.66,3.66,0,0,0,95.7,50.33Zm2-1.36c-1.09,1.35-1.56,3.06-2.44,4.54a.21.21,0,0,0,.37.21c.86-1.44,1.31-3.13,2.37-4.46C98.22,49.06,97.92,48.76,97.75,49Zm5.81-2.73c-1.16,2.11-3,4.38-3.46,6.8,0,.27.36.38.41.11.42-2.37,2.28-4.62,3.42-6.7C104.06,46.22,103.69,46,103.56,46.25Zm2.24-.52c-1.13,2.19-3,4.19-3.63,6.63-.06.27.34.38.41.11.58-2.39,2.48-4.37,3.59-6.52C106.29,45.7,105.92,45.48,105.8,45.73Zm1.2.52c-1.29,1.86-2.77,3.86-3.29,6.11-.06.27.35.38.41.11.51-2.2,2-4.18,3.25-6C107.52,46.23,107.15,46,107,46.25Zm1.18.57c-.75,1.92-2.19,3.46-3.07,5.31-.12.25.25.46.37.21.9-1.89,2.35-3.45,3.12-5.41C108.69,46.67,108.28,46.56,108.18,46.82Zm-.11,29.81c1-1.63,2-3.26,2.91-4.91a.2.2,0,0,0-.1-.29c1-1.63,1.85-3.3,2.85-4.9.15-.23-.22-.45-.37-.21-1,1.68-2,3.42-3,5.12a.2.2,0,0,0-.29.07c-1,1.7-2.05,3.33-3.13,5l.47.06c.88-1.33,1.76-2.67,2.58-4h0c-.8,1.36-1.61,2.71-2.42,4.06Zm-36,3.53A41.36,41.36,0,0,0,69,84.48a.21.21,0,0,0,.37.21,41.35,41.35,0,0,1,3.1-4.33C72.62,80.15,72.25,79.94,72.09,80.16Zm9.29,6.06c-1.59,2.11-3.27,4.15-5,6.19-.17.21.12.51.3.3,1.71-2.06,3.41-4.13,5-6.27C81.9,86.21,81.54,86,81.38,86.21ZM5.87,32.32a17.39,17.39,0,0,1,2.88-1.87c.24-.13,0-.49-.21-.37a18,18,0,0,0-3,1.94C5.35,32.19,5.65,32.48,5.87,32.32ZM63.8,84.07a15.77,15.77,0,0,1-.51,2.71c-.05.27.35.38.41.11a16.44,16.44,0,0,0,.52-2.82A.21.21,0,0,0,63.8,84.07Zm8.26-12.34a41.27,41.27,0,0,0-1,5.36c-.06.27.35.38.41.11a41.25,41.25,0,0,1,1-5.36C72.57,71.59,72.16,71.48,72.07,71.73Zm4-30c-.12.25.25.46.37.21.32-.68.54-1.4.86-2.08.12-.25-.25-.46-.37-.21C76.58,40.35,76.37,41.07,76,41.75Zm0,9.34c-.53,1.23-1.18,2.4-1.72,3.63-.11.25.26.47.37.21.54-1.23,1.18-2.4,1.72-3.63C76.52,51.06,76.15,50.84,76,51.09ZM44.1,9.44a6.33,6.33,0,0,1-.16-1.85.21.21,0,0,0-.42,0,6.73,6.73,0,0,0,.18,2A.21.21,0,0,0,44.1,9.44Zm4.82,1.44v-1a.21.21,0,0,0-.42,0v1A.21.21,0,0,0,48.92,10.88ZM59.06,48.2a7.29,7.29,0,0,1-.51-2.54.21.21,0,0,0-.42,0,7.65,7.65,0,0,0,.52,2.65C58.75,48.57,59.16,48.46,59.06,48.2Zm1.2-.69a17.86,17.86,0,0,1-.68-4.1.21.21,0,0,0-.42,0,18.37,18.37,0,0,0,.7,4.21A.21.21,0,0,0,60.26,47.51Zm1,.23c0-2.16-.49-4.26-.69-6.4,0-.27-.45-.27-.42,0,.2,2.14.65,4.25.69,6.4A.21.21,0,0,0,61.3,47.74Zm1.55-2.08c-.21-2.15-.81-4.23-.86-6.4a.21.21,0,0,0-.42,0c0,2.17.65,4.25.86,6.4C62.46,45.93,62.88,45.93,62.85,45.66Zm1.37-.4a42.82,42.82,0,0,1-.85-7.73.21.21,0,0,0-.42,0,43.5,43.5,0,0,0,.87,7.84C63.86,45.64,64.27,45.53,64.22,45.26Zm1.38-1c-.06-3.14-.8-6.21-.86-9.34a.21.21,0,0,0-.42,0c.06,3.14.8,6.21.86,9.34A.21.21,0,0,0,65.6,44.28Zm1-1.44a57.92,57.92,0,0,1-.85-9.29.21.21,0,0,0-.42,0,58.65,58.65,0,0,0,.87,9.4C66.27,43.22,66.67,43.1,66.63,42.84Zm1-1.85c-.34-2.82-.52-5.66-.86-8.48,0-.27-.46-.27-.42,0,.34,2.82.52,5.66.86,8.48C67.28,41.26,67.7,41.26,67.67,41ZM68.53,38c0-1.74-.32-3.45-.34-5.19a.21.21,0,0,0-.42,0c0,1.74.32,3.45.34,5.19A.21.21,0,0,0,68.53,38ZM39,79.57c.2,2.23.69,4.42,1,6.63,0,.27.45.16.41-.11-.35-2.17-.83-4.32-1-6.52C39.44,79.3,39,79.3,39,79.57Zm4.2,6.69a41.14,41.14,0,0,1-1.54-9.11c0-.27-.44-.27-.42,0a41.68,41.68,0,0,0,1.56,9.23A.21.21,0,0,0,43.24,86.27Zm1.2-1.38a51.6,51.6,0,0,1-1-8.59c0-.27-.44-.27-.42,0A52.34,52.34,0,0,0,44,85C44.1,85.26,44.5,85.15,44.44,84.88Zm1-.87a39.68,39.68,0,0,1-.85-7.56c0-.27-.44-.27-.42,0a40.32,40.32,0,0,0,.87,7.67A.21.21,0,0,0,45.47,84Zm.86-1.21c-.32-1.72-.37-3.47-.69-5.19,0-.27-.46-.15-.41.11.32,1.72.37,3.47.69,5.19C46,83.19,46.38,83.07,46.33,82.8Zm.87-1.5c-.18-1.67-.49-3.33-.52-5a.21.21,0,0,0-.42,0c0,1.69.34,3.34.52,5C46.81,81.57,47.23,81.58,47.2,81.3ZM48.4,80c-.32-1.52-.51-3.07-.68-4.62,0-.27-.45-.27-.42,0,.18,1.59.36,3.17.7,4.73C48,80.42,48.45,80.3,48.4,80Zm.94-.95c.27,0,.38-.37.11-.41s-.35-1.12-.38-1.34a12.23,12.23,0,0,0-.33-1.8.21.21,0,0,0-.41.11,17.28,17.28,0,0,1,.4,2.26C48.8,78.27,48.88,79,49.34,79.09Zm.95-1.3a8.34,8.34,0,0,1-.51-2.88.21.21,0,0,0-.42,0,8.71,8.71,0,0,0,.52,3C50,78.15,50.39,78,50.29,77.79Zm.52-1.85a5.42,5.42,0,0,0-.18-1.61c-.08-.26-.49-.15-.41.11a5,5,0,0,1,.16,1.5A.21.21,0,0,0,50.81,75.94ZM16.18,69.77c.06.27.47.15.41-.11-.47-2,0-4-.34-6.06,0-.27-.45-.15-.41.11C16.13,65.73,15.71,67.77,16.18,69.77Zm1.62-.92c-.16-2-.17-3.92-.17-5.88a.21.21,0,0,0-.42,0c0,2,0,3.93.17,5.88C17.39,69.12,17.82,69.12,17.79,68.85Zm1.38-1.9V62.27a.21.21,0,0,0-.42,0v4.67A.21.21,0,0,0,19.17,66.94Zm1.72-2.25a26.05,26.05,0,0,1-.17-3.46.21.21,0,0,0-.42,0,26.18,26.18,0,0,0,.17,3.46C20.5,65,20.93,65,20.89,64.69Zm1-2.42V61.06a.21.21,0,0,0-.42,0v1.21A.21.21,0,0,0,21.92,62.27ZM37.5,50.39A24,24,0,0,1,38,55.18a.21.21,0,0,0,.42,0,24.61,24.61,0,0,0-.52-4.9C37.85,50,37.44,50.12,37.5,50.39Zm1.37-.92a23.63,23.63,0,0,0,.52,4.73c.06.27.46.15.41-.11a23,23,0,0,1-.51-4.61A.21.21,0,0,0,38.87,49.47Zm1.21-1.33a19.78,19.78,0,0,1,.51,4.44.21.21,0,0,0,.42,0A20.32,20.32,0,0,0,40.49,48C40.42,47.76,40,47.87,40.08,48.14Zm1.38-.35c.19,1,.35,2,.52,2.94,0,.27.45.16.41-.11-.16-1-.32-2-.52-2.94C41.81,47.41,41.4,47.53,41.46,47.79ZM43,46.35a10.37,10.37,0,0,0,.18,2.31c.06.27.47.15.41-.11a9.79,9.79,0,0,1-.16-2.19A.21.21,0,0,0,43,46.35Zm.86-.69a8.44,8.44,0,0,0,.18,2c.06.27.47.15.41-.11a7.9,7.9,0,0,1-.16-1.85A.21.21,0,0,0,43.86,45.66Zm1.2-.69v1.56a.21.21,0,0,0,.42,0V45A.21.21,0,0,0,45.06,45ZM30.86,84c-.83-2.3-1-4.75-1.72-7.09a.21.21,0,0,0-.41.11c.68,2.34.89,4.79,1.72,7.09C30.54,84.38,30.95,84.27,30.86,84ZM33,85c.27,0,.38-.37.11-.41s-.75-3.66-.81-4c-.29-1.71-.57-3.42-.76-5.14,0-.27-.45-.27-.42,0,.21,2,.55,4,.9,6C32.11,81.88,32.32,84.88,33,85Zm2-1.47c-.83-2.51-.84-5.28-1-7.9,0-.27-.44-.27-.42,0,.18,2.65.2,5.47,1,8C34.66,83.87,35.07,83.76,35,83.5ZM80.81,5.83A45.18,45.18,0,0,1,73,7.38c-.27,0-.27.46,0,.43a45.85,45.85,0,0,0,8-1.56C81.18,6.16,81.07,5.75,80.81,5.83Zm1,1.28a.21.21,0,0,0-.11-.41c-1.48.37-3,.7-4.47,1-.27.06-.15.47.11.41C78.81,7.81,80.3,7.48,81.79,7.11ZM84.25,7c-2.3.53-4.61,1-6.88,1.73-.26.08-.15.49.11.41,2.27-.69,4.57-1.2,6.88-1.73C84.63,7.39,84.52,7,84.25,7Zm-6.42,3.87c2.74-.68,5.51-1.23,8.25-1.9.26-.07.15-.48-.11-.41-2.74.68-5.51,1.23-8.26,1.9C77.45,10.57,77.57,11,77.83,10.92Zm-3.55-8.2a66.27,66.27,0,0,1-7.74,1.56c-.27,0-.15.45.11.41a66.32,66.32,0,0,0,7.74-1.56A.21.21,0,0,0,74.28,2.72Zm-7.68.94c2-.22,3.81-.84,5.73-1.22.27-.05.15-.46-.11-.41-1.88.37-3.71,1-5.62,1.2C66.33,3.26,66.33,3.69,66.6,3.66ZM44.41,96.1c-5.33,0-10.66-.15-16-.16a.2.2,0,0,0,0,.41c5.33,0,10.66.15,16,.16A.2.2,0,0,0,44.41,96.1Zm1.2,1.84c.26,0,.26-.38,0-.41-4.92-.59-9.86-.18-14.79-.16a.2.2,0,0,0,0,.41C35.76,97.76,40.7,97.35,45.61,97.94Zm2.24,2.14c-5.11-.19-10.19-.91-15.31-.8a.2.2,0,0,0,0,.41c5.12-.12,10.2.61,15.31.8C48.11,100.5,48.11,100.09,47.85,100.08ZM43.55,102a62.53,62.53,0,0,0-7.57-.32.2.2,0,0,0,0,.41,62.47,62.47,0,0,1,7.57.32C43.81,102.44,43.81,102,43.55,102Zm59.33-13.63a104.13,104.13,0,0,0-10.37,1c-.26.05-.15.44.11.39a103,103,0,0,1,10.26-1C103.14,88.75,103.14,88.34,102.88,88.37Zm-5.16.06c1.75-.18,3.49-.37,5.21-.7.26,0,.15-.44-.11-.39-1.69.33-3.4.51-5.11.68C97.47,88,97.46,88.46,97.72,88.43Zm6.71-2c-1.86.17-3.72.35-5.56.7-.26.05-.15.44.11.39,1.8-.35,3.63-.52,5.45-.68C104.69,86.85,104.69,86.44,104.43,86.46Zm-3.9.23A36.76,36.76,0,0,1,104.6,86c.26,0,.26-.44,0-.41a37.78,37.78,0,0,0-4.18.7C100.17,86.36,100.27,86.75,100.53,86.69Zm.69-.87c1-.32,2.08-.37,3.1-.69.25-.08.14-.47-.11-.39-1,.32-2.08.38-3.1.69C100.86,85.51,101,85.9,101.22,85.83Zm1.2-.87c.63-.16,1.26-.36,1.89-.52a.2.2,0,0,0-.11-.39c-.63.16-1.26.36-1.89.52A.2.2,0,0,0,102.42,85Zm-4.18,8.6c-3.1,0-6.19.31-9.29.17-.26,0-.26.4,0,.41,3.1.13,6.19-.15,9.29-.17A.2.2,0,0,0,98.24,93.56ZM99,95.47c-1.08.17-2.18.18-3.27.35-.26,0-.15.43.11.39C97,96,98.07,96,99.15,95.86,99.41,95.82,99.3,95.43,99,95.47Z"/></svg>