<svg id="Warstwa_1" data-name="Warstwa 1" xmlns="http://www.w3.org/2000/svg" viewBox="0 0 170 21.44"><defs><style>.cls-1{fill:#fff;}</style></defs><title>SBR_divider0</title><path class="cls-1" d="M169.29,7.44c-3.36.37-6.5-1.18-9.91-.61a12.1,12.1,0,0,0-7,3.64l0,0c-1.46,0-2.93,0-4.39,0A10.67,10.67,0,0,0,155.35.63a.68.68,0,0,0-1.14-.46c-2.83,2.47-6.67,3.28-9.5,5.73-1,.86-2.9,3.1-2.56,4.7-19.35.41-38.68,1.94-58,1.8-19.2-.14-38.45-2.14-57.65-1.73,0,0,0-.09,0-.14a.65.65,0,0,0-.89-.64c-2.24-4.35-8.41-5.17-12.82-5.61a.8.8,0,0,0-.7,1.2,15.34,15.34,0,0,0,7,5.48l-2.65.16a.76.76,0,0,0-.49,0l-.47,0a.5.5,0,0,0-.17-.4c-4.4-4-10.26-1.68-14.91.58a.83.83,0,0,0-.17,1.31,13.06,13.06,0,0,0,16.58-.38l0,0c1.19-.06,2.37-.1,3.56-.14a15.28,15.28,0,0,0-6.32,8.28c-.21.66.44,1.12,1,1,4.84-.78,10-4.52,11.12-9.43,19.29-.18,38.52,1.65,57.87,1.85,19.56.2,39.07-1.31,58.61-1.83-.6,1.34.31,3.09,1.55,4,2.7,2,6.73,2.89,10.09,3.77a1.94,1.94,0,0,0,1.31.32.7.7,0,0,0,.19-1.37l-.47-.12c-.66-.47-1-2.61-1.44-3.19a8.35,8.35,0,0,0-2.29-2.11,11.82,11.82,0,0,0-2.92-1.41c1.34,0,2.67-.05,4-.06,5.12,6,12.66.75,17.05-3.19A.72.72,0,0,0,169.29,7.44ZM2.5,12.21C6.23,10.47,10.19,9.16,14,11.3c-1.4.12-2.8.26-4.2.42-.63.07-.66,1,0,1,1.41-.12,2.83-.22,4.24-.31A11.42,11.42,0,0,1,2.5,12.21ZM21.62,16.5a12,12,0,0,1-5.36,3,16.56,16.56,0,0,1,6.83-7.35l-3.73,3.88c-.23.24.08.68.37.47a26.26,26.26,0,0,0,4.53-4.07A11.61,11.61,0,0,1,21.62,16.5Zm2.46-5.77-.06,0a20.4,20.4,0,0,0-4.64-2.38c-.3-.12-.56.28-.26.44.84.44,1.67.93,2.47,1.43.3.19.59.4.89.6h-.27a15.68,15.68,0,0,1-7.65-4.74c3.94.48,7.23,1.45,9.8,4.66ZM145.41,7.05a16.15,16.15,0,0,1,3.7-2.25,30.15,30.15,0,0,0,4.69-2.56,9.32,9.32,0,0,1-8.93,7.34c1.51-.94,3-1.89,4.47-2.91.46-.32,0-1.08-.45-.76-1.74,1.15-3.41,2.41-5.07,3.67l-.47,0A8.86,8.86,0,0,1,145.41,7.05Zm7.78,10c.13.35.22.71.31,1-3.79-1-10-2.84-9.77-5.55a.64.64,0,0,0,.2.13A8.84,8.84,0,0,0,149.67,16c.61.09.87-.83.26-.92a8.94,8.94,0,0,1-4.82-2.26C148.14,13,152.09,14.06,153.19,17.08Zm2.18-5.24c1,0,2,0,3,0a.64.64,0,0,0,0-1.27q-2.25-.05-4.49-.07l0,0A13.84,13.84,0,0,1,161,8c2.18-.06,4.22.64,6.34.84C163.93,11.62,159.17,14.41,155.36,11.84Z"/></svg>