<svg id="Warstwa_1" data-name="Warstwa 1" xmlns="http://www.w3.org/2000/svg" viewBox="0 0 60.51 61.52"><defs><style>.cls-1{fill:#fff;}</style></defs><title>SBR_facebook0</title><path class="cls-1" d="M17.29,53.63a2.4,2.4,0,0,0,.44.52.4.4,0,0,1,.22.3.32.32,0,0,0,.5.23L19.67,54c.34-.2.7-.37,1-.58.14-.09.25-.22.48-.11a.86.86,0,0,1-.12.25,1.53,1.53,0,0,1-.32.25L18.48,55.1l.15.23.41.53a1.76,1.76,0,0,0,.91.69l1.77.5,2.15.66,2,.6,1.48.43,1.44.41.94.25,1.36.32,1.09.23.75.16a5.36,5.36,0,0,0,.93.14c.4,0,.8-.08,1.2-.11l1-.06a.67.67,0,0,0,.3-.09c.19-.13.37-.28.55-.42.55-.39,1.09-.78,1.65-1.16.13-.09.1-.14,0-.24s-.29-.51-.43-.76c-.05-.09-.1-.14-.21,0a11.9,11.9,0,0,1-.94.76,17.21,17.21,0,0,1-2.37,1.43,4.69,4.69,0,0,0-.49.24.33.33,0,0,1-.49-.11c-.06-.1,0-.28.19-.36.42-.21.85-.41,1.26-.62s.62-.35.91-.54c.51-.34,1-.69,1.52-1,.35-.24.35-.23.16-.63s-.29-.7-.44-1.07a.3.3,0,0,0-.1,0c-.38.27-.73.57-1.13.81s-1,.56-1.5.83a.34.34,0,0,1-.28,0,.2.2,0,0,1-.08-.3,1.19,1.19,0,0,1,.32-.28c.35-.2.71-.37,1-.58s.85-.56,1.27-.85c.12-.09.3-.2.31-.32a7.53,7.53,0,0,0,0-1,.61.61,0,0,0-.17,0l-.36.23A12.49,12.49,0,0,1,34.7,55c-.14.07-.35,0-.38-.1a.28.28,0,0,1,.16-.36,18.59,18.59,0,0,0,2.38-1.37c.19-.13.4-.24.47-.49s.11-.32.16-.48.07-.26.1-.38a1.14,1.14,0,0,1-.4-.1.37.37,0,0,0-.5,0c-.44.28-.9.54-1.35.81l-1.52.85a.21.21,0,0,1-.32-.1.31.31,0,0,1,0-.28,2.43,2.43,0,0,1,.47-.3c.68-.36,1.36-.7,2-1.08s1.06-.65,1.6-1l-.6-.82c-.1-.13-.17-.36-.29-.38s-.31.12-.47.19L34,50.74c-.22.11-.31.08-.49-.16a1.28,1.28,0,0,1,.25-.2c.26-.13.54-.22.8-.35l1.51-.72c.17-.08.33-.18.44-.24l-.43-1.49a.83.83,0,0,0-.2.05c-.26.14-.51.3-.77.43s-.76.37-1.14.54-.74.33-1.12.47a1.61,1.61,0,0,1-.5.08.26.26,0,0,1-.2-.11s0-.15.08-.19a3.07,3.07,0,0,1,.55-.35c.38-.17.79-.29,1.17-.47.64-.3,1.27-.62,1.9-.95.09,0,.24-.08.23-.25s0-.36,0-.54,0-.19,0-.31L36,46c-.59.25-1.19.5-1.78.76a.22.22,0,0,1-.33-.11c-.07-.15,0-.23.16-.29l1.79-.84a.66.66,0,0,0,.44-.49,8,8,0,0,1,.57-1.3.67.67,0,0,0,.06-.27c0-.19.13-.27.26-.36a3,3,0,0,0,.48-.36s0-.18,0-.27a.66.66,0,0,0-.21.06c-.19.13-.36.28-.54.4-.49.32-1,.65-1.48.95s-1.21.66-1.82,1a.34.34,0,0,1-.29-.07c-.2-.18,0-.38.22-.5.54-.26,1.08-.5,1.61-.78s1.18-.7,1.77-1.05c.18-.11.35-.25.5-.35l-.65-1.26-.08,0c-.35.2-.68.42-1,.61-.63.33-1.27.64-1.9,1a.49.49,0,0,1-.28.06.23.23,0,0,1-.2-.24c0-.18.12-.22.23-.27l.71-.3.87-.43,1.5-.75c.05,0,.12-.09.12-.13,0-.27,0-.53,0-.82a.63.63,0,0,0-.2,0c-.37.18-.72.38-1.1.54a5,5,0,0,1-.86.23.2.2,0,0,1-.17-.1.28.28,0,0,1,0-.22.45.45,0,0,1,.22-.15,9.88,9.88,0,0,0,1.9-.87.46.46,0,0,0,.18-.27c.06-.2.08-.41.12-.62s.11-.48.17-.74l-.12,0c-.26.14-.51.3-.78.41a5.79,5.79,0,0,1-1.66.6c-.13,0-.22,0-.27-.08s0-.18.13-.23l1.2-.6c.5-.25,1-.49,1.5-.76a1,1,0,0,0,.35-.32,6.18,6.18,0,0,0,.29-.58,3.93,3.93,0,0,1,.7-1.08.18.18,0,0,0,.05-.14c-.07-.19-.16-.37-.25-.56l-.76.46-1.44.89-1,.59c-.43.26-.47.25-.73,0l-.31.56c-.19.33-.37.67-.56,1-.32.53-.65,1-1,1.57s-.56,1-.88,1.49a8.74,8.74,0,0,1-2.81,2.68,12.63,12.63,0,0,1-1.46.85c-.59.28-1.2.51-1.81.73a4.65,4.65,0,0,1-1.55.33.29.29,0,0,1-.33-.3.33.33,0,0,1,.24-.35c.17-.05.36-.08.53-.13.57-.18,1.15-.35,1.71-.55a4.56,4.56,0,0,0,1-.45c.24-.16.61-.17.7-.53,0-.06.09-.1.14-.15.46-.36.95-.68,1.36-1.08a15.17,15.17,0,0,0,2.18-2.36c.33-.49.63-1,.92-1.54a11.11,11.11,0,0,0,.45-1c.16-.39.33-.77.47-1.17.21-.59.41-1.19.59-1.79s.26-1,.38-1.47c0-.11,0-.23.08-.39l-.9.81-1.1,1s0,.07-.07.07h-.33c0-.1,0-.24,0-.29.34-.31.7-.61,1.06-.9l1.18-.95a.56.56,0,0,0,.2-.23c.06-.22.09-.45.13-.68s.12-.5.17-.75.06-.44.09-.72l-.68.59-1,.84a.19.19,0,0,1-.18,0,.24.24,0,0,1-.05-.19.37.37,0,0,1,.12-.19l.72-.61c.24-.2.51-.37.74-.58a1.18,1.18,0,0,0,.38-.46,3.83,3.83,0,0,0,.13-.95A11.8,11.8,0,0,1,35,26.46a15.54,15.54,0,0,0,.08-1.65c0-.3,0-.6.07-.9,0-.13.14-.24.16-.36.11-.56.2-1.12.32-1.68s.19-.91.3-1.37.27-1.06.43-1.58.33-1,.51-1.5.28-.79.44-1.18.33-.78.49-1.18.28-.74.46-1.09a5.84,5.84,0,0,0,.52-1.72q.07-.4.13-.8A12.61,12.61,0,0,0,39.13,10,11.61,11.61,0,0,0,39,8.48a2.56,2.56,0,0,0-.08-.38c-.09-.37-.18-.75-.29-1.12s-.26-.89-.41-1.34c-.09-.29-.2-.57-.32-.85a2.89,2.89,0,0,0-.39-.8,15.79,15.79,0,0,0-1.18-1.13,1.44,1.44,0,0,0-.31-.22c-.41-.21-.82-.43-1.24-.62A6.55,6.55,0,0,0,34,1.72a5.38,5.38,0,0,0-1-.23,1.52,1.52,0,0,0-1.17.18.58.58,0,0,1-.71-.09.47.47,0,0,1,0-.69A4,4,0,0,1,33.27,0a3.6,3.6,0,0,1,1.36.14,5.22,5.22,0,0,1,2.14,1.22,12.33,12.33,0,0,1,1,1.05,4.93,4.93,0,0,1,.42.58c.18.28.36.56.53.85a9.28,9.28,0,0,1,.55,1.09,16.59,16.59,0,0,1,.56,1.67c.13.47.2,1,.29,1.45a.26.26,0,0,0,.06.14c.35.3.36.37.21.81a1.18,1.18,0,0,0-.12.86,2.14,2.14,0,0,1,.32-.38.36.36,0,0,1,.32,0c.12.06.25.18.18.35s-.18.45-.29.67c-.21.44-.47.87-.65,1.33a6.55,6.55,0,0,0-.53,1.28,12.78,12.78,0,0,1-.34,1.25c-.22.75-.43,1.51-.65,2.25-.18.59-.38,1.17-.56,1.76-.13.43-.24.86-.38,1.28-.2.63-.41,1.25-.6,1.87s-.36,1.23-.56,1.84c-.06.18,0,.21.14.2s.45-.09.68-.11c.5,0,1-.11,1.49-.12s1,0,1.49.05a1.32,1.32,0,0,0,.62-.2.27.27,0,0,1,.34,0l-.44.19.91.16c.3,0,.61.07.91.13s.66.15,1,.23c.54.13,1.09.26,1.63.41a8,8,0,0,0,1.4.26c.38,0,.77,0,1.15.06l1.57.06.88.06c.59.06,1.18.11,1.77.18.39,0,.78.1,1.16.19a14.32,14.32,0,0,1,1.39.37,14.16,14.16,0,0,1,2.36.93c.16.09.3.2.28.37s-.17.24-.27.36a.18.18,0,0,0,0,0,1.91,1.91,0,0,0,.18.26,9.43,9.43,0,0,1,.78.8,4.08,4.08,0,0,1,.78,2.17,4.88,4.88,0,0,1-.29,2c-.06.16-.14.32,0,.48,0,0,0,.14-.08.2s-.11.06-.2.1l.19.15a4.11,4.11,0,0,1,.72.48,5.09,5.09,0,0,1,.59.83,5,5,0,0,1,.78,2.12,5.27,5.27,0,0,1-.11,2,6.53,6.53,0,0,1-1.25,2.38.26.26,0,0,0,0,.24,3.93,3.93,0,0,1,.56,1.1,4.89,4.89,0,0,1,.22,1.28.74.74,0,0,0,.06.28,3.2,3.2,0,0,1,.29,1.28c0,.22,0,.43-.06.65s0,.66-.06,1a2.2,2.2,0,0,1-.18.7,10.77,10.77,0,0,1-.63,1c-.09.14-.23.24-.33.37-.28.35-.53.72-.82,1.07s-.45.47-.72.74l.37.18c.1.05.23.1.28.19a3.94,3.94,0,0,1,.33.72,3.2,3.2,0,0,1,.12,1.3,3,3,0,0,1-.15.75,7.61,7.61,0,0,1-.52,1.16,8.11,8.11,0,0,1-.78,1.12c-.26.32-.58.59-.88.89l-.13.15a3.92,3.92,0,0,0,.45,0,.36.36,0,0,1,.26.11c.1.12,0,.18-.11.21-.22.08-.45.13-.68.19a4.18,4.18,0,0,0-.84.22,3.62,3.62,0,0,1-.79.2c-.41.1-.82.19-1.23.28a6,6,0,0,1-.91.2,6.64,6.64,0,0,0-1.54.42c-.46.14-.93.3-1.39.43s-.92.21-1.38.32-.89.23-1.35.29-1.08.08-1.62.13c-.38,0-.76.06-1.14.13s-1,.2-1.43.29L41,61l-1.59.24c-.46.07-.93.14-1.39.18s-.84,0-1.26.07a.35.35,0,0,1-.36-.19.23.23,0,0,0-.25-.12H34.72c-.27,0-.53,0-.8.06a.18.18,0,0,0-.11.09.34.34,0,0,1-.49.15,3,3,0,0,0-.77-.24,1.32,1.32,0,0,1-.79-.25.24.24,0,0,0-.13-.06L31,60.86c-.23,0-.46,0-.69-.07s-.7-.14-1-.23q-.75-.2-1.5-.43c-.26-.08-.51-.21-.78-.29-.57-.16-1.14-.29-1.71-.44L23.72,59c-.57-.16-1.15-.31-1.71-.51q-1.09-.38-2.15-.83a7.55,7.55,0,0,1-1.15-.6,4.44,4.44,0,0,0-1.49-.61,1.54,1.54,0,0,1-.47-.18c-.25-.15,0-.32,0-.48l-.4-.33a.91.91,0,0,0-.17-.08.78.78,0,0,0-.07.18c0,.34-.06.68-.13,1-.1.51-.23,1-.36,1.52,0,.18-.13.38-.35.42a1.21,1.21,0,0,1-.5,0,8.14,8.14,0,0,0-1.56-.17c-.12,0-.24,0-.36,0a.73.73,0,0,0-.32,0c-.23.1-.44.24-.67.34-.07,0-.18,0-.28,0s0-.16.07-.23a.63.63,0,0,1,.09-.12c-.39,0-.75,0-1.11,0a.71.71,0,0,0-.51.21c-.06,0-.1.13-.16.16a.53.53,0,0,1-.31,0s-.07-.15-.08-.23a.72.72,0,0,1,.05-.21H8l-2.67-.06c-.24,0-.48,0-.72-.06-.53-.06-1.07-.13-1.6-.18a6.25,6.25,0,0,1-1.58-.41.59.59,0,0,1-.09.21s-.16.07-.2,0A.55.55,0,0,1,1,57.47a1.55,1.55,0,0,1,0-.38,7.88,7.88,0,0,0-.12.84.35.35,0,0,1,0,.15.48.48,0,0,1-.52.16C.15,58.15,0,58,0,57.82c0-.45,0-.89.06-1.34,0-.82.07-1.64.05-2.46,0-.26,0-.52,0-.78s0-.51,0-.77.05-.57.05-.86c0-.91,0-1.82,0-2.73,0-.22,0-.43,0-.65s0-.46,0-.7.06-.38.05-.57c0-.44,0-.89-.05-1.33,0-.19.05-.38.05-.57C.27,42.51.3,40,.3,37.4c0-1.63,0-3.25-.06-4.88a1.34,1.34,0,0,0,0-.25A.53.53,0,0,0,.14,32c-.17-.19-.2-.26,0-.41A.72.72,0,0,0,.42,31c0-.59,0-1.18.07-1.78,0,0,0-.06,0-.08a.39.39,0,0,1,.29-.37.37.37,0,0,1,.38.36l0,.16.11,0a5.71,5.71,0,0,1,1.61-.68,2,2,0,0,0,.85-.29s.12,0,.18,0a1,1,0,0,0,.28,0c.29,0,.58-.13.88-.17.45-.06.9-.09,1.35-.12s1,0,1.44-.06l2.19-.07a.34.34,0,0,0,.22-.13c.17-.22.33-.45.5-.67s.28-.15.34,0,0,.2-.1.28-.25.34-.39.55l1.5.08.78.07a4.92,4.92,0,0,1,.57.07c.24.05.47.21.68-.06,0,0,.08,0,.06,0s.16.18.24.21.43.12.63.21.29,0,.38-.17c.26-.53.54-1.06.82-1.58a17,17,0,0,1,1.64-2.34,17.28,17.28,0,0,1,1.23-1.36c.55-.56,1.12-1.11,1.7-1.64s1-.85,1.46-1.3c.21-.19.35-.45.55-.66.47-.49.94-1,1.43-1.43s1-.88,1.44-1.33a.61.61,0,0,0,.09-.16s0-.1.07-.13c.32-.25.66-.48,1-.74a5.3,5.3,0,0,0,1.23-1.65,18.35,18.35,0,0,0,1.31-2.9c.1-.29.18-.59.26-.89s.12-.49.18-.73.14-.41.18-.62c.09-.51.18-1,.24-1.53s.1-1.15.12-1.72,0-.94,0-1.42a1.59,1.59,0,0,0,0-.19c0-.3-.07-.59-.11-.89a.16.16,0,0,1,0-.1,1.14,1.14,0,0,0,.17-.71A.45.45,0,0,1,30.86,2a.41.41,0,0,1,.49.23,2.18,2.18,0,0,1,.1.49c.06.48.13,1,.18,1.44,0,.27,0,.54,0,.81s0,.38,0,.57,0,.48-.05.72,0,.66-.07,1-.07.43-.11.64,0,.24.21.19.13,0,.18,0a1.28,1.28,0,0,0,.48-.25A3.54,3.54,0,0,0,33,5.67,4.38,4.38,0,0,0,33,5c0-.25-.09-.49-.11-.74a5,5,0,0,0-.4-1.51.37.37,0,0,1,0-.22.42.42,0,0,1,.42-.3.44.44,0,0,1,.4.26,5.38,5.38,0,0,1,.49,2.09A7.31,7.31,0,0,1,33.8,6a6.33,6.33,0,0,1-.36,1.37,1.87,1.87,0,0,1-.91,1.07,1.76,1.76,0,0,1-1,.2c-.15,0-.21.06-.24.19s0,.26-.07.38c-.13.46-.26.92-.4,1.38-.06.21-.13.42-.21.66.05,0,.09-.05.1-.08.23-.48.46-.95.68-1.43.06-.12.15-.16.24-.12a.24.24,0,0,1,.1.21,7.2,7.2,0,0,1-.5,1.11,13.83,13.83,0,0,1-1.15,1.85c-.41.48-.8,1-1.19,1.48l-.32.4,0,0c.31-.19.63-.37.93-.56.1-.06.18-.09.24,0s0,.14-.1.17c-.47.29-.93.58-1.41.86-.27.15-.37.43-.56.63a.17.17,0,0,0,0,.16c.13.21,0,.39-.11.53-.4.53-.81,1-1.24,1.55s-.78.89-1.19,1.31C23.79,20.79,22.4,22.2,21,23.61c-.32.33-.63.67-.95,1a3.24,3.24,0,0,0-.4.47c-.26.42-.5.84-.73,1.28-.31.59-.6,1.19-.89,1.79,0,.06,0,.11-.08.19l.56-.14c0,.19,0,.28-.14.35-.4.19-.83.35-1,.83a.2.2,0,0,1-.3.08,2.42,2.42,0,0,0-.29-.11l-.32,2.7.12,0a16.57,16.57,0,0,0,2.33-1.42c.09-.07.13-.06.21,0s0,.26-.06.33c-.34.26-.69.52-1,.74s-1,.56-1.44.85c0,0-.09.07-.09.11,0,.29,0,.57-.07.86s0,.34-.05.51,0,.35,0,.55l.13-.06c.7-.4,1.4-.78,2.09-1.2.43-.26.83-.57,1.23-.86.11-.08.22-.13.3,0s-.06.17-.1.25l0,0c-.39.27-.78.55-1.17.81l-1.35.87-1,.6a.19.19,0,0,0-.09.13c0,.45,0,.89,0,1.38.36-.2.68-.38,1-.57.64-.39,1.3-.75,1.9-1.18s1-.88,1.58-1.31a1.14,1.14,0,0,1,.28-.12l.06.08a1.29,1.29,0,0,1-.15.26,8.52,8.52,0,0,1-1.41,1.23c-.61.42-1.2.86-1.82,1.27-.36.24-.76.42-1.13.64-.12.07-.29.17-.29.27,0,.54,0,1.09,0,1.64.21-.11.4-.19.58-.3l1.75-1.12c.93-.58,1.87-1.15,2.8-1.74.12-.07.17-.05.33.07l-.23.13-.47.29-2.52,1.68L16.69,39c-.18.12-.38.22-.32.51a3.36,3.36,0,0,1,.06.61c0,.37,0,.74,0,1.1,0,.06,0,.12,0,.19.19-.08.37-.14.53-.23.53-.29,1.05-.57,1.57-.88s1.07-.65,1.58-1,1.24-.91,1.86-1.36c0,0,.11,0,.17,0s0,.14,0,.17l-1.81,1.33c-.53.39-1,.8-1.59,1.15s-1.39.82-2.08,1.24a.27.27,0,0,0-.13.18c0,.55,0,1.11,0,1.71l.88-.49c.7-.41,1.4-.81,2.09-1.23s1.08-.68,1.61-1,1.18-.82,1.78-1.22c.06,0,.18,0,.27,0s0,.17-.1.21c-.28.21-.56.41-.84.61L20,42.1c-.48.33-1,.66-1.46,1s-1.23.74-1.85,1.11a.31.31,0,0,0-.19.31c0,.21,0,.43,0,.65v1a.85.85,0,0,0,.18-.05c.65-.39,1.29-.78,1.93-1.18s1-.63,1.47-1l1.51-1,.94-.61c.33-.21.65-.42,1-.62.05,0,.15,0,.23,0s0,.23-.08.27c-.39.26-.79.5-1.19.75s-.7.47-1,.72-.69.53-1,.79-.9.65-1.37,1c-.65.42-1.3.84-2,1.24a1.08,1.08,0,0,0-.49.68,4,4,0,0,0,0,.95c.07,0,.12,0,.15,0l.85-.53,1.16-.75c.3-.19.6-.38.89-.58l1.53-1.09q.61-.42,1.24-.82c.06,0,.17,0,.26,0s0,.2,0,.24a5.27,5.27,0,0,1-.47.36c-.57.42-1.13.86-1.7,1.27s-1,.7-1.51,1l-2.24,1.45a.29.29,0,0,0-.11.18c0,.24,0,.48-.06.72,0,.08,0,.17,0,.3a24.1,24.1,0,0,0,5.18-3.12c.06.28-.12.36-.23.45-.42.32-.85.64-1.29.93s-1.09.72-1.65,1-1.27.71-1.91,1.06c0,0-.1.08-.1.13,0,.5,0,1,0,1.54.27-.14.52-.24.74-.37.63-.38,1.26-.75,1.87-1.15a16.74,16.74,0,0,1,2-1.21,1.63,1.63,0,0,1,.36-.08.26.26,0,0,1-.12.36c-.52.31-1,.61-1.56.93s-.78.53-1.17.78l-1.64,1c-.18.11-.38.19-.59.3l.8,1.11ZM39.13,42.18a.43.43,0,0,1,.27.38.4.4,0,0,1-.27.39L39,43c.19.25.44.08.64.14.15-.45.29-.59.74-.54a1.62,1.62,0,0,0,1-.36c.28-.16.55-.32.84-.46.07,0,.18,0,.28,0s0,.2-.08.24-.41.28-.62.42l-.09.07v.06l.82,0,.2,0h1l1.55-.06,1-.06,1.57-.06,1-.06,1.58-.12.86-.07,1.48-.17.69-.07,1.5-.18.65-.06c.22,0,.45,0,.67-.07a.32.32,0,0,0,.28-.22c.09-.24.36-.23.66,0,.14.1.19.09.32,0l-.25-.2a.29.29,0,0,1-.11-.41.35.35,0,0,1,.42-.2,1.21,1.21,0,0,1,.4.13c.11.07.17,0,.22-.05A4.13,4.13,0,0,0,59,39a6.57,6.57,0,0,0,.19-2.16A8.78,8.78,0,0,0,59,36a2.86,2.86,0,0,0-.09-.48,2.11,2.11,0,0,0-.31-.61,7.3,7.3,0,0,0-.79-.8c-.17-.15-.28-.11-.39.1a.29.29,0,0,1-.35.18.34.34,0,0,1-.21-.17.39.39,0,0,1,.07-.27,1.32,1.32,0,0,1,.2-.22,2.32,2.32,0,0,0-.51-.18c-.3,0-.61,0-.91,0h-.1l-2,.12-1.8.12-1.46.07-1.24.06c-.79,0-1.59,0-2.38.07-.49,0-1,.08-1.47.12l-1.39.12c-.71.07-1.42.19-2.14.19a1.11,1.11,0,0,0-.52.21c-.37.22-.72.47-1.07.71l-.06,0c.2.29.21.47.06.62s-.37.13-.73-.13a3.43,3.43,0,0,0-.94,1.94A15.84,15.84,0,0,1,42,36s0,0,.08.08a9.76,9.76,0,0,0-1.73.88c-.31.2-.62.39-.92.6s-.78.54-1.16.83c-.06,0-.06.16-.07.24-.05.3-.1.6-.14.9l.07,0c.21-.11.42-.22.62-.34l1.71-1.07,2-1.25,0,0h.22a.79.79,0,0,1-.13.21,3.25,3.25,0,0,1-.33.21l-2.74,1.76-1.29.82a.51.51,0,0,0-.19.57c0,.23.07.45.12.68s.06.24.1.41c.15-.09.3-.15.44-.25a21.43,21.43,0,0,1,2.82-1.65c.13-.06.3-.17.38,0s-.13.23-.24.29c-.57.32-1.15.61-1.71.95s-.87.58-1.3.87c0,0,0,0,0,.07C38.74,41.93,38.93,42.07,39.13,42.18Zm-.88,7.49.12.12c.27.27.3.27.62,0l1.84-1.24a2.08,2.08,0,0,1,.3-.21.63.63,0,0,1,.26,0c0,.09,0,.22-.07.27a5.07,5.07,0,0,1-.51.37l-1.14.8-.46.3-.11.09.33.44a.13.13,0,0,1,0,.11.15.15,0,0,0,.06.24c.1.05.19.11.31,0,.43-.35.88-.69,1.32-1a2.23,2.23,0,0,1,.39-.26.28.28,0,0,1,.24,0c.1.07.06.16,0,.24l-.91.74-.26.23,0,.05H42l3.38.05c.36,0,.73,0,1.09-.06L47.78,51l1.41-.12,1.16-.12,1.08-.17.55-.07,1.38-.23.59-.08L55,50l1.27-.25a1.42,1.42,0,0,0,.27-.07.15.15,0,0,0,.06-.12.83.83,0,0,1,.33-.53,1.71,1.71,0,0,0,.47-.38,7.34,7.34,0,0,0,.78-1.29,6.69,6.69,0,0,0,.59-1.78,2.37,2.37,0,0,1,.12-.43.88.88,0,0,0-.18-.76A15,15,0,0,0,57.85,43c-.18-.25-.42-.46-.62-.69a.41.41,0,0,0-.45-.1c-.09,0-.23,0-.27,0s-.35-.12-.52-.1c-.36,0-.72.11-1.08.18l-.88.16-.89.14-1,.16-.54.08-1,.17-.95.14-1.06.17-.53.07-1.67.18-1.65.24h-.08l-1.53.06L41.8,44l-.37.29-1,.66c-.24.16-.5.3-.75.45l-1.45.9c-.18.11-.36.22-.53.34s-.19.16-.19.24a3.85,3.85,0,0,0,0,1.35,1.54,1.54,0,0,1,0,.35l2-1.09,1.85-1.08c.11-.06.24-.18.4,0a2.11,2.11,0,0,1-.27.23l-2.18,1.31-1.13.65-.6.37Zm1.54-18.9c.43-.23.86-.46,1.3-.67s.83-.36,1.25-.54c.08,0,.17,0,.25-.09s.23-.09.29.08-.1.27-.19.29a11,11,0,0,0-1.94.89c-.59.29-1.16.63-1.73,1-.12.07-.23.17-.1.33s.34.46.52.68a.28.28,0,0,0,.27,0c.81-.47,1.62-1,2.43-1.45l.95-.58.26-.13,0,.08-.2.14-.77.52-.83.56-1.24.79c-.14.09-.28.16-.42.26s-.1.11-.09.16a.24.24,0,0,0,.14.15,2,2,0,0,0,1.19.05.75.75,0,0,1,.19,0c.85,0,1.69,0,2.54,0s1.5-.07,2.24-.12L47.78,33l.81-.08.91,0h1.87l4.27-.07a.65.65,0,0,0,.2-.07c.09,0,.18-.11.25-.1.36.07.54-.17.71-.4a2.93,2.93,0,0,0,.5-2.11,3.66,3.66,0,0,0-.2-.76c-.08-.25-.19-.49-.28-.74a1.17,1.17,0,0,0-.67-.79c-.31-.12-.35-.23-.31-.56a.54.54,0,0,0-.1-.29.8.8,0,0,0-.23-.28,2.52,2.52,0,0,0-.54-.25c-.38-.13-.77-.25-1.16-.35s-.7-.14-1.06-.2c-.66-.11-1.33-.14-2-.2-1-.08-1.91-.11-2.87-.1a1.34,1.34,0,0,0-.29.1c-.09,0-.21.07-.28,0a1.18,1.18,0,0,0-.87,0,6.56,6.56,0,0,1-.72.14l-1,.18h-.15c-.34,0-.69,0-1,.06-.58.08-1.16.19-1.74.3a10,10,0,0,0-1.11.25,2.67,2.67,0,0,0-.72.35,1.26,1.26,0,0,0-.3.41c-.17.29-.33.59-.5.88l0,0,.12,0,1.44-.77c.3-.16.61-.3.91-.46l1.08-.62a.6.6,0,0,1,.21-.08c.15,0,.26.15.17.25a1.93,1.93,0,0,1-.46.38c-.41.24-.83.45-1.25.68L39.5,28.87l-.35.17c-.34.15-.41.47-.49.78a3,3,0,0,0-.12.74,5.61,5.61,0,0,0,.12.82ZM42,54.15c-.45.37-.91.72-1.37,1.07l-1.35,1.06c-.09.07-.17.16-.28.25.16.18.28.35.43.5s.31.29.47.43c.25-.18.49-.34.7-.52.45-.37.88-.76,1.32-1.14l.1-.1c.18-.23.22-.23.41,0a2.81,2.81,0,0,1-.23.29q-.65.64-1.32,1.26a3.7,3.7,0,0,1-.42.32c-.13.09-.14.17,0,.23s.49.17.81.27c.16.25-.21.45-.21.76.14,0,.36-.43.45.08.34,0,.68,0,1,0s.87.13,1.31.17a3,3,0,0,0,.65-.07l.64-.1,1.19-.18.55-.07L48,58.56l.46-.07,1.16-.2.79-.17.87-.19.87-.18a4.25,4.25,0,0,0,1.44-.45c.59-.38,1.2-.71,1.79-1.09a3.14,3.14,0,0,0,1.23-1.47,1.68,1.68,0,0,1,.3-.36.66.66,0,0,0,.14-.2,4.27,4.27,0,0,0,.35-1.56,1.51,1.51,0,0,0-.58-1.23,1.13,1.13,0,0,0-.64-.07c-.22,0-.44.09-.66.11L54,51.58l-1.28.12c-.49,0-1,0-1.47.13a11.35,11.35,0,0,1-1.79.11c-.27,0-.55,0-.82.06-.52,0-1,0-1.55.06s-.94.1-1.41.11c-.76,0-1.53,0-2.29,0-.49,0-1,0-1.46-.06a.7.7,0,0,0-.46.18c-.4.25-.81.47-1.2.73s-.72.52-1.07.78l-.55.43a.25.25,0,0,0-.09.15,10.08,10.08,0,0,0-.06,1.15,1.42,1.42,0,0,0,.22.52s.12,0,.16,0c.6-.45,1.19-.91,1.79-1.36.39-.29.8-.56,1.21-.84a.64.64,0,0,1,.21-.05l.07.06C42.09,54,42.07,54.09,42,54.15ZM14.57,31.64l-.06.05c-.75.79-1.49,1.58-2.24,2.36-.52.54-1.07,1.07-1.6,1.61L6.3,40.09c-.38.38-.77.75-1.17,1.11s-.76.7-1.15,1c-.61.51-1.23,1-1.84,1.5A.46.46,0,0,0,2,44a2.22,2.22,0,0,0,0,.35c0,.91,0,1.82-.07,2.73,0,.38-.17.75-.2,1.14a1.82,1.82,0,0,0,0,.83,1.54,1.54,0,0,1,0,.56c0,.07,0,.13,0,.25a1.84,1.84,0,0,0,.27-.15L3.5,48.35l.93-.81,1.44-1.26,1.13-1c.59-.54,1.18-1.08,1.75-1.63q1.56-1.51,3.1-3c.34-.33.65-.69,1-1l.79-.85a1.75,1.75,0,0,0,.14-.21.9.9,0,0,1-.24-.15c-.13-.16-.06-.35.16-.47l1.06-.56a3,3,0,0,0,.38-.24.65.65,0,0,0,.28-.6,3.7,3.7,0,0,1,.1-.66,3,3,0,0,0,0-.37l-.55.27c-.34.15-.68.3-1,.44-.14.05-.35-.05-.35-.17a.3.3,0,0,1,.23-.32c.44-.16.87-.39,1.32-.52s.48-.37.46-.74a9.78,9.78,0,0,1,0-1c0-.07,0-.13,0-.23l-.83.9s-.07.1-.11.15c-.47.51-.94,1-1.41,1.54s-.81.93-1.21,1.39l-1.28,1.46-.94,1.06-1,1.12c-.45.5-.91,1-1.37,1.49S6.35,43.43,5.77,44c-.34.35-.7.68-1.07,1s-.89.77-1.34,1.16l-.64.52a.31.31,0,0,1-.44,0,.37.37,0,0,1,0-.43l.85-.68.43-.35.79-.73,1.26-1.2c.75-.73,1.51-1.46,2.26-2.2.41-.41.81-.84,1.2-1.26l1.49-1.61L11.73,37l1.12-1.24L14,34.47c.16-.18.32-.38.49-.58l-.16-.09a.27.27,0,0,1,0-.45L15,32.9c.18-.11.37-.2.55-.31a.26.26,0,0,0,.11-.17c0-.59,0-1.17.07-1.76,0-.12,0-.21-.15-.22s-.14.08-.17.15c-.19.35-.36.72-.55,1.07,0,.06-.13.1-.2.15Zm.11,6.51s-.07.1-.11.15l-.92,1-.93,1c-.34.36-.67.72-1,1.07L8,45.12c-.32.32-.65.62-1,.92L5.63,47.31l-1.06.94-1.2,1c-.42.35-.85.71-1.29,1a1.18,1.18,0,0,1-.43.1v1.3A3.91,3.91,0,0,0,2,51.34a14.67,14.67,0,0,1,1.91-2,10.34,10.34,0,0,1,1.29-.89.38.38,0,0,1,.17-.05.86.86,0,0,1,.18,0c0,.07,0,.16-.08.19-.28.19-.57.34-.84.53a6.13,6.13,0,0,0-1.46,1.34c-.13.18-.3.34-.44.51l-.8,1,0,0a1,1,0,0,0-.33,1,7.14,7.14,0,0,1,0,.78c0,.65-.08,1.3-.12,2a2.19,2.19,0,0,0,0,.23l.4-.29,1-.86.4-.32h0c.06-.27.34-.28.5-.43l1.51-1.33c.38-.33.75-.66,1.12-1L8.43,50c.43-.41.87-.81,1.29-1.23s1-1,1.42-1.48.77-.84,1.15-1.27l1.18-1.37.94-1.12c.24-.29.47-.59.7-.88a.66.66,0,0,0,.06-.15,1.24,1.24,0,0,0-.25,0c-.15,0-.26,0-.31-.13a.25.25,0,0,1,.18-.34l.14,0c.14,0,.24-.08.22-.26a2.53,2.53,0,0,1,0-.37c0-.41,0-.81.06-1.22,0-.07,0-.13,0-.25l-.39.42c-.06.07-.11.15-.17.23l-1.08,1.26c-.16.18-.32.36-.47.54l-.72.89-.41.48L11,44.88l-.63.76L9,47.27c-.37.43-.74.87-1.11,1.3-.23.26-.47.52-.72.77-.57.6-1.14,1.2-1.73,1.79-.34.34-.68.68-1.05,1-.58.49-1.19,1-1.79,1.43l-.21.16A.25.25,0,0,1,2,53.64a.23.23,0,0,1,.05-.35l.78-.62c.13-.1.26-.2.38-.31.4-.36.81-.71,1.19-1.08C5.24,50.52,6,49.75,6.82,49c.51-.51,1-1.06,1.47-1.59l1.09-1.21,1.29-1.47,1.09-1.28,1.1-1.28,1.2-1.38.47-.56a.51.51,0,0,1-.2,0,.59.59,0,0,1-.26-.21.2.2,0,0,1,.15-.29c.3-.11.59-.24.89-.35a.24.24,0,0,0,.17-.26c0-.43,0-.85.05-1.28,0-.07,0-.13,0-.22C15,37.66,14.88,38,14.67,38.16ZM14.27,31a.28.28,0,0,1-.39,0,.22.22,0,0,1,.08-.32,4.81,4.81,0,0,1,.52-.28c.16-.08.31-.14.32-.37a2.12,2.12,0,0,1,.14-.49l-.22,0c-.36,0-.72,0-1.08,0a.78.78,0,0,0-.68.29c-.58.63-1.18,1.24-1.78,1.85l-3.89,4c-.42.42-.86.82-1.28,1.23l-1.1,1L3.55,39.08l-1,.91c-.16.14-.34.25-.5.39a.29.29,0,0,0-.1.19c0,.73,0,1.45,0,2.18A1,1,0,0,0,2,43a1.25,1.25,0,0,0,.21-.11l1.24-1L4,41.4l.66-.6L6.51,39l.9-.85L9.56,36.1c.17-.17.31-.37.48-.53s.44-.39.65-.6c.77-.78,1.52-1.58,2.3-2.36.45-.45.93-.88,1.42-1.29.16-.14.35-.21.21-.49ZM11.72,29.7l-.88.16-.93.19-.56.1c-.2,0-.39,0-.59.07a.49.49,0,0,0-.23.16c-.32.35-.63.72-1,1.07s-.58.6-.88.88l-1.82,1.7L3.69,35.13,2.32,36.31l-.17.11a.78.78,0,0,0-.34.74c0,.4,0,.8,0,1.21s.05.79.08,1.21a2.39,2.39,0,0,0,.28-.18l.95-.82L4.6,37.36,5,37l1.5-1.38L8,34.25c.35-.33.71-.66,1.05-1q1.41-1.37,2.8-2.75c.29-.29.56-.6.84-.91l0,0ZM7,54.18a.24.24,0,0,0,.15-.06c.25-.22.5-.45.74-.68,1-.95,1.94-1.89,2.9-2.85.49-.5,1-1,1.43-1.55s.72-.83,1.07-1.25l1.32-1.62a1.89,1.89,0,0,1,.23-.29c.28-.23.21-.54.21-.87l-.47.23a.27.27,0,0,1-.36-.09.28.28,0,0,1,.16-.43l.56-.25s.11-.07.11-.1c0-.41.07-.83.1-1.24l-.08,0c-.18.21-.37.41-.54.63s-.4.53-.62.79l-1.37,1.61-.51.57-.8.86c-.56.6-1.12,1.22-1.69,1.81q-1.37,1.42-2.75,2.82c-.3.31-.63.6-.95.89l-1,.93-.17.18Zm6.07-3.94c-.06,0-.17-.05-.18-.1A.22.22,0,0,1,13,50a10,10,0,0,1,1-.55c.23-.1.45-.18.5-.47a.64.64,0,0,1,.09-.18c.12-.23.18-.25.43-.1,0-.14,0-.26,0-.38s0-.48.06-.72a.18.18,0,0,0-.18-.22.23.23,0,0,1-.17-.13c0-.08,0-.24.06-.26.42-.13.27-.45.24-.75l-.42.51-.62.79-.93,1.17c-.13.16-.27.31-.4.47l-1,1.08c-.56.63-1.13,1.26-1.7,1.88-.41.45-.83.88-1.25,1.32L8.11,54,8,54.23l.25,0a9.53,9.53,0,0,1,1,0A.82.82,0,0,0,9.88,54l2.93-2.87c.25-.25.48-.51.71-.77a.47.47,0,0,0,.05-.11A4.63,4.63,0,0,1,13.1,50.24ZM44.57,25A7,7,0,0,0,43,24.7c-.22,0-.45,0-.67-.05l-1.8-.13c-.38,0-.76-.07-1.14-.12a.6.6,0,0,0-.47.16l-.79.66c-.29.24-.61.46-.89.72a.82.82,0,0,0-.2.43c-.08.39-.12.79-.19,1.18s-.12.75-.19,1.12c0,.2-.11.4-.16.61a7,7,0,0,0-.2,1l.35-.23a4.24,4.24,0,0,1,.48-.34c.31-.16.34-.43.38-.73a9,9,0,0,1,.26-1l-.19.05c-.22.1-.4.08-.44,0s.1-.24.3-.33a3,3,0,0,0,1-.6,3.91,3.91,0,0,1,1.66-1c.35-.12.7-.26,1.06-.35a9.67,9.67,0,0,1,1-.14l1.21-.17h.06l1.11-.07a2.21,2.21,0,0,0,.31-.07v-.1A2.8,2.8,0,0,0,44.57,25ZM2.7,35.08,4.3,33.71l.13-.13,1.84-1.72L7,31.19l.82-.76a.23.23,0,0,0,.07-.3c-.1-.24.06-.4.4-.39a.38.38,0,0,0,.42-.25H7.05c-.24,0-.39.18-.56.33L5.12,31.08c-.42.37-.85.73-1.28,1.1l-1.22,1-.71.59a.25.25,0,0,0-.1.15c0,.6,0,1.2,0,1.86Zm34.39-4.63a4.25,4.25,0,0,0-.41.34.58.58,0,0,1-.47.24c-.06,0-.17.16-.2.26-.15.41-.26.84-.41,1.25s-.37,1-.57,1.52c-.11.28-.25.55-.38.83a5.28,5.28,0,0,0-.31.79l.49-.25,1.41-.77,1.49-.81a.22.22,0,0,0,.11-.31,5,5,0,0,1-.19-.81c0-.15-.09-.17-.21-.09l-1,.55a2.63,2.63,0,0,1-.61.28.39.39,0,0,1-.32-.19A.26.26,0,0,1,35.7,33l1.11-.53.23-.14c.17-.09.42-.14.51-.28s0-.4,0-.61c0-.39,0-.78,0-1.16a.47.47,0,0,0,0-.08C37.37,30.25,37.23,30.34,37.09,30.45ZM4.61,29.74c-.35,0-.71.07-1.05.13a5.05,5.05,0,0,0-1,.26c-.26.11-.33.41-.39.67a5.49,5.49,0,0,0-.2,1.43,5.58,5.58,0,0,1-.08.8l.69-.52,1.26-1c.35-.28.7-.57,1-.86l1.06-.88A1.66,1.66,0,0,0,6,29.66l0-.08ZM5.4,54.62c-.43,0-.87,0-1.3.06a.23.23,0,0,0-.12.06L2.5,56c-.22.18-.45.35-.69.53a.94.94,0,0,0,.66.28c.4.07.8.1,1.21.13a.36.36,0,0,0,.23-.06c.3-.22.58-.45.87-.68l1.21-1c.18-.15.35-.32.53-.48v-.06C6.14,54.64,5.77,54.61,5.4,54.62Zm5.24,2.5c.42,0,.6-.28.85-.51l1.38-1.31c.18-.17.38-.33.62-.54l-.24,0H11.84a.44.44,0,0,0-.27.11L9.88,56.46,9.28,57a1.2,1.2,0,0,0-.1.12v.06C9.68,57.16,10.16,57.1,10.64,57.12Zm1.72-2.69c.35,0,.7,0,1,0a1.09,1.09,0,0,0,.86-.36l.5-.39c.1-.08.18-.14.11-.32a1.75,1.75,0,0,1-.07-.67c0-.09.12-.17.19-.26s.15-.1.16-.17a1,1,0,0,0,0-.43,3.68,3.68,0,0,0-.26-.52l-2.78,3A1.55,1.55,0,0,0,12.36,54.43ZM12.62,57c.24,0,.48-.07.72-.11a.75.75,0,0,0,.33-.13c.41-.35.77-.75,1.21-1.06a.89.89,0,0,0,.33-.74l0-.19c-.41,0-.82,0-1.22,0-.12,0-.24.13-.33.22L11.94,56.7l-.31.34Zm-6-.3c.31-.22.61-.46.9-.7l1-.83c.15-.13.29-.27.44-.4l0-.05a9.16,9.16,0,0,1-1,0,1.14,1.14,0,0,0-.94.39c-.47.43-1,.82-1.46,1.23l-.9.75,1.73.15C6.31,56.9,6.45,56.79,6.62,56.66Zm4.84-2.3s.06,0,.08-.06c.28-.26.57-.52.85-.79s.67-.65,1-1,.56-.64.84-1l0,0a3.2,3.2,0,0,1-.37.22,2.53,2.53,0,0,1-.48.15.19.19,0,0,1-.16-.09.19.19,0,0,1,0-.18c.25-.18.51-.35.78-.51s.44-.23.65-.34l-.2-.62-4,4.17A2.69,2.69,0,0,0,11.47,54.36ZM8.13,57.21a.41.41,0,0,0,.24-.1c.2-.16.39-.34.59-.52l1.18-1L11,54.8l0-.06a5.74,5.74,0,0,1-.66,0,1,1,0,0,0-.82.33c-.46.42-1,.81-1.44,1.21l-.75.63L7,57.15C7.42,57.18,7.77,57.2,8.13,57.21ZM40,44.71c-.27-.16-.51-.33-.78-.45-.07,0-.21,0-.3.08-.28.16-.55.34-.82.53a.43.43,0,0,0-.15.22c-.09.29-.17.58-.25.87a.39.39,0,0,0,0,.12ZM37.2,24.55v1l1.61-1.16,0-.08Zm1.7,28.83,1.86-1.26C40.22,51.89,39.3,52.54,38.89,53.38Zm1.94,6.18v-.06l-.14,0c-.29-.07-.59-.15-.88-.2a.54.54,0,0,0-.32,0c-.25.13-.49.29-.73.44v.07Zm-4.28-34.8c-.35.11-.41.2-.44.56,0,.09,0,.17,0,.26s0,.14.05.15c.18.06.22.18.14.38l.21-.09.26-1.28-.06,0Zm-.38,1.79a1.35,1.35,0,0,1-.16-.15c-.28.48,0,1-.21,1.51.36-.09.61-.72.54-1.3A.88.88,0,0,1,36.18,26.55Zm-.48,2.09c0,.19,0,.38-.07.57s-.11.65-.17,1a1.93,1.93,0,0,0,0,.44,18,18,0,0,0,.66-2.46A.52.52,0,0,0,35.7,28.64ZM38.49,59.3,39,59c.07,0,.18-.1.18-.16s-.08-.15-.12-.22l-1.72,1.24.05.06Zm-24.08-5,0,.08.47,0,.16,0c.24,0,.26,0,.15-.24s-.12-.19-.19-.32Zm41.33-3.54a.48.48,0,0,0-.59-.16l-1.17.3v0ZM39.52,34.55c0,.14.09.27.15.4a.14.14,0,0,0,.13,0l.63-.44Zm-23.12,19c-.1.27-.09.33.09.52a.43.43,0,0,0,.49.17Zm42.36-11s0-.05,0-.07c-.15-.22-.29-.45-.46-.66s-.21-.1-.31,0ZM40.68,44.37l.66-.31v0h-.9ZM17.83,55.28c-.09-.33-.59-.74-.86-.69Zm39.54-5.22-.72.21C57,50.58,57.11,50.56,57.37,50.06ZM9.28,29.52v.11l1.1-.15A2.44,2.44,0,0,0,9.28,29.52Zm4.84,27.86v0l.12,0h.31l.22,0v-.25ZM58.6,47.9a.87.87,0,0,0,.37-.66Z"/><path class="cls-1" d="M27,55.28c.32-.5.64-1,1-1.51s.64-1.15,1-1.71c.45-.73.92-1.44,1.4-2.15.35-.52.73-1,1.11-1.53.24-.31.51-.61.78-.9.43-.46.85-.93,1.3-1.36s.88-.73,1.32-1.09l.87-.69c-.13-.33-.23-.32-.49-.12-.48.37-1,.73-1.42,1.13s-1.09,1-1.61,1.55-.88.91-1.28,1.4-.92,1.19-1.34,1.82-.95,1.47-1.39,2.23c-.33.57-.62,1.18-.92,1.77-.15.29-.28.6-.4.91A.18.18,0,0,0,27,55.28Z"/><path class="cls-1" d="M17.2,53.59l.09,0a1.38,1.38,0,0,0,.94-.33c.44-.25.86-.54,1.29-.82l1.18-.79.4-.24c.13-.08.21-.18.15-.34-.24-.12-.4.08-.56.17-.61.37-1.19.79-1.8,1.16s-1,.52-1.44.76C17.28,53.29,17.18,53.38,17.2,53.59Z"/><path class="cls-1" d="M25,19.74a1.74,1.74,0,0,0,.5-.09c.51-.25,1-.52,1.5-.81s1-.69,1.52-1c.29-.19.61-.34.92-.52.09-.05.18-.12.28-.2-.26-.13-.44,0-.62.13-.42.23-.82.47-1.22.73a17,17,0,0,1-2.38,1.42l-.52.25Z"/></svg>