<svg id="Warstwa_1" data-name="Warstwa 1" xmlns="http://www.w3.org/2000/svg" viewBox="0 0 94 58"><defs><style>.cls-1{fill:#ffffff;}</style></defs><title>flagowe dania</title><path class="cls-1" d="M93.93,37.82c-.14-1.39-.31-2.78-.48-4.17-.06-.54-.13-1.09-.23-1.63-.28-1.58-.59-3.17-.88-4.75-.07-.36-.11-.72-.18-1.07a25.88,25.88,0,0,0-3.09-7.49,24.61,24.61,0,0,0-9.47-9A3.66,3.66,0,0,1,79,9.2c-1-1-1.9-2.06-3-2.95C73.8,4.37,71.49,2.59,69.22.77A.79.79,0,0,0,69,.68l-.11.13,2.06,2-.08.12-.45-.28A16,16,0,0,0,63,.09a24.56,24.56,0,0,0-7.69.58,48.31,48.31,0,0,0-9,3.07C42.08,5.62,38,7.88,34,10.14c-2.53,1.43-5,2.91-7.7,4.08s-5.31,1.9-8,2.8a85.66,85.66,0,0,0-9.58,3.62A24.31,24.31,0,0,0,3.23,24a7.8,7.8,0,0,0-2.6,3.88,10.7,10.7,0,0,0-.12,2.89c0,1.22.22,2.44.2,3.66,0,1.85-.34,3.7-.27,5.54A29.81,29.81,0,0,1,0,43.3a1.62,1.62,0,0,0,.16,1c1.71,2.86,4.37,4.4,7.42,5.38.74.23,1.53.29,2.28.51,1.5.43,3,1,4.48,1.34a28.4,28.4,0,0,0,6.24.67,126.51,126.51,0,0,0,12.9-.79c.37,0,.75-.1.92.2a2.39,2.39,0,0,1,.68-.29c2-.06,4-.13,6-.13a14.24,14.24,0,0,1,2.13.32,6,6,0,0,1,.61.14.62.62,0,0,1,0,.13,4.35,4.35,0,0,1-.51,0,14,14,0,0,0-4.33.36c-.33.09-.74.09-1,.58.3,0,.49-.06.68-.11.38-.09.75-.22,1.13-.29a17.28,17.28,0,0,1,6.29.24c.78.14,1.72,0,2,.9a2.26,2.26,0,0,1,.64,0c.54.22,1,.51,1.59.69,1.2.41,2.42.74,3.62,1.14.79.26,1.54.65,2.34.89s1.53.35,2.29.54c1.36.34,2.7.73,4.07,1a13.27,13.27,0,0,0,2,.15,23.35,23.35,0,0,0,12.61-2.71,26.92,26.92,0,0,1,3.47-1.76,30.91,30.91,0,0,0,8.59-4.82A11.49,11.49,0,0,0,93.93,37.82Zm-1.53-.56c-.44-.58-.88-1.15-1.3-1.75a.48.48,0,0,1,0-.39c.33-.78.68-1.54,1-2.29A8.24,8.24,0,0,1,92.4,37.26ZM1.14,28.84A5.7,5.7,0,0,1,2.62,25.5,16,16,0,0,1,7.45,22,50.76,50.76,0,0,1,15,18.93c3.81-1.27,7.66-2.41,11.41-3.82a52.18,52.18,0,0,0,6-3.07c4-2.12,7.93-4.32,11.94-6.4a47.24,47.24,0,0,1,8.69-3.45A30.49,30.49,0,0,1,60.17.93,15.94,15.94,0,0,1,71,4.16c.39.3.9.4,1.17.89.15.27.56.1.78-.36.16.13.3.23.42.35L79,10.82l.1.11c.55.59.77.57,1.18-.16.1.06.21.11.31.18a23.65,23.65,0,0,1,5,4.56c.15.19.43.38.07.65a1,1,0,0,0,.2.41,19.08,19.08,0,0,1,4.32,6.26,8.56,8.56,0,0,1,.58,1.75,3.62,3.62,0,0,0-.41-.52,1.23,1.23,0,0,0-.43-.16,1.64,1.64,0,0,0-.14.5c0,.14.15.26.21.41.51,1.12,1,2.24,1.48,3.39a3.23,3.23,0,0,1,.13,1.25,11.78,11.78,0,0,1-1.76,6.17c-.22.34-.22.34-.56.18.17.49-.36,1.31-1.15,1.73l-.87-1.39-.15.07c.1.22.19.44.3.66.54,1,.54,1-.39,1.72l-.22.17c-.31.28-.54.26-.71-.15,0-.08-.11-.14-.27-.18a1.43,1.43,0,0,0,.09.43c.3.52-.19.57-.43.75s-.45,0-.58-.23a3.33,3.33,0,0,0-.53-.81c-.16.54.34.88.39,1.44l-.91.33-.36-.7c-.12.41.35,1-.46,1.13-.17,0-.37-.19-.57-.31,0,.17.4.52-.2.59l.32.25a6.22,6.22,0,0,1-1,.41c-.18,0-.4-.12-.61-.2,0,.07,0,.19.12.41-.66.25-1.32.52-2,.75-1,.32-2,.61-3,.91-.63.19-.66.18-1.22-.38l.22.61c-.59.13-1.15.29-1.72.38a6.22,6.22,0,0,0-1.45.12,8.39,8.39,0,0,1-2.93.42,36,36,0,0,1-10-.77c-2.39-.52-4.74-1.22-7.11-1.86a10.11,10.11,0,0,1-1-.51,4.47,4.47,0,0,0-1.48-.53,21.08,21.08,0,0,1-2.52-.45c-1.71-.22-3.44-.44-5.17-.54-2.73-.15-5.47-.19-8.2-.29-4.17-.16-8.34-.29-12.51-.52-2-.11-4-.41-6-.68-1.5-.21-3-.5-4.48-.8-.65-.13-1.28-.36-2-.56.21-.44,0-.64-.31-.84C7.08,35.6,5.9,34.85,4.81,34a21.38,21.38,0,0,1-2-2,2.45,2.45,0,0,1-.7-1.93c0-.62-.07-.72-.7-.77C1,29.26,1.12,29,1.14,28.84Zm87.79,9.57a1,1,0,0,1-.07-.15c.29-.32.57-.65.88-.95a.42.42,0,0,1,.36,0c.08.17.17.51.11.54A12.25,12.25,0,0,1,88.93,38.41Zm.4,1.81-.76-.58C89,39.42,89.05,39.5,89.33,40.22Zm-9,4.29,1.33,1.92-.11.11-2.87-2.41C79.72,43.67,79.72,43.67,80.3,44.51ZM6.66,36.41c-2-.56-4.79-3.24-4.61-4.28.67.76,1.31,1.63,2.08,2.35S5.81,35.77,6.66,36.41ZM4.76,47.64l-2.3-1.58.08-.13,2.31,1.54Zm73.14,6-1.24.63c0-.39-.06-.65-.09-.92h-.11a1.25,1.25,0,0,0,0,.43c.12.46-.08.69-.5.9A21.53,21.53,0,0,1,65.61,57a19.81,19.81,0,0,1-4.13-.54c-1.57-.39-3.08-1-4.61-1.58a6.55,6.55,0,0,1-1.41-.5A4.23,4.23,0,0,0,54.24,54c-1.25-.37-2.52-.72-3.77-1.1a.74.74,0,0,1-.43-.32c-.47-.85-.91-1.72-1.35-2.58a.78.78,0,0,1,0-.22l.11-.1L50,50.79l.28,0c-.28-.34-.56-.71-.88-1-.11-.12-.35-.11-.52-.18-.55-.25-.71-.81-1-1.28-.46-.87-.79-1.84-1.29-2.69-.62-1-1.37-2-2.07-3h-.15a25.48,25.48,0,0,1,2.86,5.25,40.41,40.41,0,0,1-4.67-4.3l-.16.11,1.19,2c0-.15-.07-.3-.13-.58.2.17.33.28.45.4,1.18,1.09,2.37,2.18,3.53,3.28a3.7,3.7,0,0,1,.74.94c.48.91.9,1.85,1.4,2.89l-.63-.18c-.43-.14-.86-.27-1.28-.43a.85.85,0,0,1-.4-.29c-.75-1.23-1.48-2.47-2.22-3.7L45,47.67c.32.19.56.33.79.48l.07-.09c-.21-.18-.42-.38-.64-.55A4.59,4.59,0,0,1,43.85,46a2.57,2.57,0,0,0-.28-.37l.11.55c-.19-.13-.31-.21-.42-.3L39.61,42.5c-.14-.12-.29-.22-.44-.33.41.43.8.89,1.24,1.31,1.24,1.17,2.52,2.3,3.74,3.49A5.83,5.83,0,0,1,45,48.22c.57,1,1.13,1.92,1.69,2.88.08.14.14.29.21.43l-.08.11c-.76-.22-1.53-.39-2.27-.66-.26-.09-.42-.44-.59-.62-.2,0-.38.12-.54.07A12.5,12.5,0,0,0,40,50.06a.8.8,0,0,1-.56-.31c-.8-1.22-1.57-2.45-2.34-3.68-.38-.6-.75-1.2-1.12-1.8l-.16.1c1.14,1.86,2.29,3.73,3.5,5.73-.73,0-1.36,0-2,0-.14,0-.3-.22-.39-.37-1.25-1.92-2.48-3.84-3.71-5.77-.37-.58-.71-1.18-1.08-1.76a2.88,2.88,0,0,0-.26-.35L31.8,42c.08.15.15.31.23.45.88,1.5,1.84,3,2.63,4.51a30.84,30.84,0,0,0,1.9,2.77c.08.14.18.27.29.44a.83.83,0,0,1-1-.17,19,19,0,0,1-2.75-3.56,1.33,1.33,0,0,0-.34-.41,15.6,15.6,0,0,0,3,4.24,11.2,11.2,0,0,1-1.64.12c-.2,0-.43-.24-.57-.43-1-1.34-2.08-2.7-3.12-4.06a.56.56,0,0,0-.36-.23l.6.85a30.31,30.31,0,0,0,2.49,3.38,5.11,5.11,0,0,1,.35.52c-.76.1-1.39.29-2-.37a46.56,46.56,0,0,1-4.24-4.64.38.38,0,0,0-.35-.14,39.19,39.19,0,0,0,4.57,5.23l0,.12c-.67.07-1.34.17-2,.18-.19,0-.39-.27-.61-.43l.22.48L27.14,51c-.19,0-.38,0-.56,0s-.47.06-.7.09c-.72.07-1.49.3-2-.56.11.18.23.36.39.59a3.23,3.23,0,0,1-.38.07c-.78,0-1.57.08-2.35,0-1.56,0-3.12-.08-4.68-.25a26.06,26.06,0,0,1-7.39-1.91,38.94,38.94,0,0,1-5.9-3.17A5,5,0,0,1,1.52,43a4.42,4.42,0,0,1-.08-2.31,13.9,13.9,0,0,0,.15-4.41A9.26,9.26,0,0,1,2,33.09c.36.5.9.85.88,1.57,0,1.22,0,2.45,0,3.67a.85.85,0,0,0,.07.44c.81-1.2.45-2.56.52-3.92a2.07,2.07,0,0,1,.32.19,16.55,16.55,0,0,0,6,3.12,43.82,43.82,0,0,0,10.53,1.92c1.93.13,3.87.23,5.8.39,2.29.19,4.59.13,6.88.26.77,0,1.55.05,2.32.07.58,0,1.16,0,1.74,0a2,2,0,0,1,1.36.5L38,41c.22,0,.34-.05.46-.05l8,.56c.84,0,1.68.06,2.52.11a1.21,1.21,0,0,1,.61.18,10,10,0,0,0,3.72,1.7c2,.56,4,1.16,6,1.62a32.21,32.21,0,0,0,7.12.83c1.51,0,3-.17,4.53-.14a5.27,5.27,0,0,0,1.21-.19.54.54,0,0,1,.67.29,4.12,4.12,0,0,1,.41,1l-.66-.34A9.21,9.21,0,0,1,76,51.57l.11,0c0-.24-.07-.48-.12-.79.23.25.44.47.64.71.47.56.93,1.14,1.41,1.69C78.21,53.39,78.2,53.55,77.9,53.69Zm2.39-1.38c-.47.28-1,.55-1.41.84a.36.36,0,0,1-.56-.1c-.89-1.13-1.79-2.26-2.67-3.4a1.76,1.76,0,0,1-.27-.59c-.19-.69-.36-1.38-.52-2.08,0-.12,0-.27.11-.51l-.44-.4s-.06,0-.18,0c.08.51.15,1,.23,1.54A3.72,3.72,0,0,1,73,45.51a9.44,9.44,0,0,0,1.63-.37c.91-.39,1.46.1,1.92.72.77,1,1.46,2.1,2.21,3.14.58.8,1.2,1.56,1.78,2.35C80.93,51.94,80.92,51.94,80.29,52.31Zm3.09-1.85c-.63.38-1.26.77-1.9,1.13a.47.47,0,0,1-.45-.05c-1.1-1.48-2.19-3-3.27-4.47a1.13,1.13,0,0,1-.08-.26l2.58,1.74c-1.2-1.39-3.1-2-4.09-3.72a12.19,12.19,0,0,1,1.21-.34.51.51,0,0,1,.42.18c.92,1.13,1.83,2.26,2.71,3.42A6.12,6.12,0,0,1,81,49a.88.88,0,0,0,.12.15l1,1.28a.29.29,0,0,0,.26.08,2.34,2.34,0,0,0-.23-.51c-.86-1.13-1.74-2.25-2.61-3.37-.49-.63-1-1.25-1.48-1.89-.07-.09,0-.27,0-.41.13,0,.28,0,.38.08,1.31,1,2.66,1.88,3.89,2.94a24,24,0,0,1,2.23,2.44Zm8.1-5.84a11.11,11.11,0,0,1-2.88,3.19,4.85,4.85,0,0,1-1.2.68c.36-.73,1-1.28,1.27-2l-.13-.12-.41.32c-.88.84-1.75,1.69-2.65,2.52-.52.48-.65.48-1.11,0s-.64-.9-1-1.31-.58-.44-.8-.72c-.57-.7-1.12-1.43-1.65-2.16-.14-.19-.13-.48-.26-.68a6.25,6.25,0,0,0-.58-.69c.21-.09.46-.21.72-.31.92-.35.91-.34,1.46.48.66,1,1.31,2,2,2.94a13.05,13.05,0,0,0,1.26,1.32s.13.06.2.09l.12-.09c-.12-.19-.21-.4-.34-.57-1-1.26-2-2.5-3-3.76,0,0,0-.14-.09-.32l1,.75,0-.06-1.08-.93c-.27-.22-.29-.36.08-.51,1.14-.48.82-.49,1.43.41s1.12,1.62,1.67,2.44c.2.29.39.59.58.88l.23-.12a2.3,2.3,0,0,0-.23-.53c-.73-1-1.48-2-2.21-3-.23-.32-.2-.34.14-.35,0-.15,0-.29,0-.44.14,0,.34,0,.41.06.33.4.62.83.93,1.25l-.08.09-.24-.13c.74.76,1.49,1.51,2.22,2.28.26.28.42.15.55,0-.94-1.09-1.86-2.17-2.77-3.26-.13-.17-.28-.55-.22-.62.27-.26.51,0,.71.19l3.25,3.33a2.06,2.06,0,0,0,.3.29c.06,0,.17,0,.25,0s0-.22,0-.25c-.49-.38-.65-1-1.13-1.44A31.22,31.22,0,0,1,86,41.2c.73-.7,1-.69,1.49,0,.26.34.51.68.77,1a4.62,4.62,0,0,0,.38.37c0-.25.07-.39.11-.58L91,43.47l.1-.12c-.12-.1-.22-.2-.35-.29l-2.46-1.72a1.78,1.78,0,0,1-.4-.31c-.18-.23-.49-.55-.43-.72a.82.82,0,0,1,1.21-.21c.72.57,1.43,1.17,2.18,1.7a3.85,3.85,0,0,0,1,.34l.05-.11a1.42,1.42,0,0,0-.25-.24,7.57,7.57,0,0,1-2.27-2.34c-.14-.18-.15-.33.05-.47l1.19-.85.92,1.43.13-.07c.06-.7-1-1-.62-1.85-.78-.06-1-.61-.61-1.27.52-.82.47-.68,1,0,.32.44.69.85,1,1.28a.78.78,0,0,1,.19.4,21.48,21.48,0,0,0,0,2.54A6.35,6.35,0,0,1,91.48,44.62ZM6.26,25.53c-.29.71-.71,1.32-1,2C4.49,29,4.48,30.24,6,31.29a1.8,1.8,0,0,1,.41.56,7.08,7.08,0,0,0,4.68,3.33c.93.2,1.87.36,2.8.55,1.15.23,2.28.53,3.43.71a43.22,43.22,0,0,0,7.53.53,3.44,3.44,0,0,1,.45.05v.1l-.42.18,0,.12.66-.08c1.22-.16,2.43-.35,3.66-.49.65-.08,1.31-.08,2-.11,2.25-.1,4.5-.2,6.75-.27a5.54,5.54,0,0,1,1,.21,1.05,1.05,0,0,0,.3,0,2.36,2.36,0,0,1,.52-.09c.44,0,.88.08,1.31.09a1.42,1.42,0,0,1,1.18.47c.05.07.17.08.3.14v-.41c1.1,0,2,.65,3,.84l-.63-.36a8.22,8.22,0,0,1,2.94.7c.08,0,.14.12.21.18s.37.58.72.16c0,0,.19,0,.27,0l2.43.86c1.56.58,3.11,1.23,4.7,1.72A28.61,28.61,0,0,0,63,42.22a3.35,3.35,0,0,1,2.8,1.44,1.66,1.66,0,0,0,.36.26l.11-.12c-.35-.41-.7-.82-1.15-1.33h.65c1.26,0,2.53,0,3.79-.07.9,0,1.8-.17,2.7-.3,1.57-.23,3.16-.42,4.71-.78a15.93,15.93,0,0,0,3.24-1.18,11.21,11.21,0,0,0,2.2-1.49c.33-.27.59-.54.93-.46.24-.24.4-.43.59-.59.42-.35.86-.67,1.28-1,.21-.18.38-.39.57-.58l-.08-.1c-.34.2-.67.42-1,.59s-.64.56-1.15.3a12.84,12.84,0,0,0,1.21-1.44,1.21,1.21,0,0,1,1.78-.55c.37.19.53,0,.72-.23A9.21,9.21,0,0,0,88.84,31c.13-.5-.11-1.29.82-1.37,0-.11-.07-.22-.12-.24-.41-.11-.41-.47-.47-.78-.21-1.11-.41-2.22-.59-3.34,0-.11.11-.26.16-.35-.51-.87-1-1.76-1.54-2.65l-.16.08.36.83a5.33,5.33,0,0,1-1.56-2.47l.17,0,.59,0a2.12,2.12,0,0,0-.29-.48,12.44,12.44,0,0,0-3-2.24,2.21,2.21,0,0,1-.52-.39c-1.39-1.44-2.74-2.93-4.18-4.32-1.72-1.65-3.53-3.2-5.28-4.8-.92-.85-1.76-1.77-2.72-2.57-.77-.65-1.65-1.17-2.48-1.75l0,.14c-.22,0-.47.12-.66,0-.44-.17-.85-.44-1.28-.64-.28-.12-.58-.17-.87-.27L64,3.05s0-.09,0-.13l1.41-.07,0-.13a1.3,1.3,0,0,0-.33-.17c-.49-.09-1-.18-1.48-.23a18.63,18.63,0,0,0-7,.89c-.59.18-1.19.63-1.78.25-.19.15-.32.32-.48.36a34.61,34.61,0,0,0-7.05,2.89c-.37.19-.7.33-1.11,0,.33.48,0,.62-.28.78-1.16.59-2.3,1.2-3.45,1.78-3.64,1.84-7.29,3.66-10.92,5.51-1.7.86-3.36,1.78-5,2.68a.92.92,0,0,1-1.17,0c0,.22,0,.35.05.59-1.13.41-2.26.88-3.42,1.22a15.87,15.87,0,0,1-4.54.86,6.8,6.8,0,0,0-1.34.21,25.62,25.62,0,0,0-5,1.69,18.39,18.39,0,0,0-3.56,1.82,7,7,0,0,0-1.87,1.94,12.91,12.91,0,0,1-1.22,1.36c-.1.11-.18.25-.27.37l.05,0Zm-.63,2.13a6.06,6.06,0,0,0,.24,3.15C5,30.48,4.81,28.65,5.63,27.66ZM56.52,38.21c1.27.81,2.88,1.09,3.81,2.52C58.35,40.89,57.42,39.57,56.52,38.21Zm4.34,2.19,1.58.69C61.46,41.19,61.06,41,60.86,40.4ZM63,39.93l2.76,1.39A2.26,2.26,0,0,1,63,39.93Zm4.73,1.67a4.66,4.66,0,0,1-1.13-.27c-1.46-.71-2.9-1.46-4.34-2.21a1.62,1.62,0,0,1-.44-.35c-.83-.93-1.65-1.88-2.48-2.82a2.33,2.33,0,0,1-.22-.3,3.46,3.46,0,0,1,.42.12l5.34,2.82a1.87,1.87,0,0,1,.45.33c.77.75,1.52,1.5,2.27,2.26a1.69,1.69,0,0,1,.2.25S67.73,41.54,67.71,41.6Zm5.89-.81c-.2.06-.4.09-.59.14-1.58.41-1.58.41-2.62-.83-.62-.75-1.25-1.49-1.85-2.25-.09-.11-.07-.3-.11-.45h0c.79.45,1.57.93,2.38,1.34,1.07.54,2.17,1,3.26,1.52a5.14,5.14,0,0,1,.47.27ZM82,37.63a4.67,4.67,0,0,1-2,1.1.3.3,0,0,1-.22,0l-.89-.92,1.37.25c0-.06,0-.12.05-.18a9.88,9.88,0,0,0-1.16-.39,3.16,3.16,0,0,1-1.63-.93c-.83-.87-1.73-1.68-2.6-2.51a4.37,4.37,0,0,0-.48-.37l.09-.16.44.06a8.17,8.17,0,0,1-2.75-2.24c0,.53.68.63.48,1.07a16.81,16.81,0,0,1,1.29,1.11c.92.93,1.82,1.89,2.72,2.85a3.93,3.93,0,0,1,.29.42,1,1,0,0,0,.27.31A14.62,14.62,0,0,1,79.4,39c-.85.28-1.49.77-2.3.43l.31.24c-.42.16-.78.25-1.12.42A1.65,1.65,0,0,1,74,39.54a2.88,2.88,0,0,0-.54-.42l-.09.08c.12.18.24.36.35.54l0,.1c-.47-.21-.94-.41-1.4-.63l-3.48-1.7a3.59,3.59,0,0,0-.35-.12c-1.32-.93-2.14-2.33-3.28-3.44-.21-.22-.45-.41-.67-.62.43.58.88,1.14,1.3,1.72s.88.82.93,1.48c0,0,0,.07.09.1,1,.53,1.5,1.53,2.22,2.32s1.2,1.44,1.81,2.19a3.85,3.85,0,0,1-2.11.39.45.45,0,0,1-.3-.12c-.58-.55-1.14-1.11-1.71-1.68,0,0-.06-.09-.14-.25L69.83,41l.06-.14c-1-.52-2-1.07-3-1.54a7.41,7.41,0,0,1-2.43-1.79c-1.27-1.41-2.58-2.79-3.87-4.18l-1.4-1.53-.17.15q2.52,2.87,5,5.74l0,.07a1.73,1.73,0,0,1-.32-.11q-2.52-1.31-5-2.62a2.51,2.51,0,0,1-.64-.53l-3.92-4.45a2.76,2.76,0,0,0-.75-.64c.18.23.34.48.53.7,1,1.16,2,2.31,3,3.47a4.64,4.64,0,0,1,.43.79.44.44,0,0,0,.14.18,8.76,8.76,0,0,1,2,2c.45.47.87,1,1.3,1.49a1.37,1.37,0,0,1,.1.28l-1.94-1.11-.06.1c.54.35,1.09.69,1.63,1a14.55,14.55,0,0,1,1.61,1.19c.49.45.89,1,1.34,1.49a1,1,0,0,0-.08.14c-.41-.16-.82-.3-1.21-.48s-.56-.34-.86-.48-.53-.16-.78-.26a1.14,1.14,0,0,1-.39-.25q-1.43-1.59-2.83-3.21A56.14,56.14,0,0,0,53,32.21c1.7,2.45,3.88,4.48,5.71,6.85l-.26-.1-2.59-1.42a2.22,2.22,0,0,1-.48-.44c-.87-1-1.73-2-2.61-3-.25-.29-.52-.57-.79-.85l-.15.13,2.43,3a1.1,1.1,0,0,0-.09.14l-1.65-1-.1.12A11.12,11.12,0,0,1,57.15,40L54.4,38.74a1.09,1.09,0,0,0-.08.15l2.19,1.28v.07c-.37-.08-.73-.15-1.1-.25-.58-.16-1.17-.32-1.74-.54a2.23,2.23,0,0,1-.78-.54,8.34,8.34,0,0,1-1.09-1.36,23,23,0,0,0-1.88-2.3c-.62-.78-1.26-1.55-1.9-2.32s-1.34-1.59-2-2.39a2.06,2.06,0,0,1-.21-.42l-.22.19a7,7,0,0,0,.52.88c.64.77,1.31,1.51,2,2.27a12.59,12.59,0,0,1,1.33,1.7,13.47,13.47,0,0,0,1.32,1.58c.44.54.89,1.09,1.32,1.64.09.11.16.23.24.34a.61.61,0,0,0-.07.1A13.22,13.22,0,0,1,51,38.29c-1.44-.74-2.88-1.5-4.3-2.27a2.48,2.48,0,0,1-.67-.58c-.74-.81-1.47-1.63-2.2-2.45-.1-.11-.17-.25-.26-.37l-.14.12a17.65,17.65,0,0,1,1.18,1.59,15.17,15.17,0,0,0,1.81,2.1,1.44,1.44,0,0,1,.28.45c-.91-.33-2-.2-2.68-1.08-.86-1-1.81-2-2.73-3s-1.82-1.94-2.72-2.91l-.23.23,5.56,6.09c-.45,0-.93.1-1.29-.32a.83.83,0,0,0-.51-.15A2.3,2.3,0,0,1,40.47,35c-2.11-2.16-4.27-4.28-6.42-6.41-.15-.15-.29-.31-.43-.46l0-.15c.84-.06,1.69-.1,2.53-.2a17,17,0,0,0,2.12-.35c.68-.17.82-.13,1.17.49a2.36,2.36,0,0,0,.64.7c.11-.62-.54-.79-.75-1.33h2.82l-.43.4.06.09.61-.32a.51.51,0,0,1,.79.18c.27.37.58.7.88,1.05a2.85,2.85,0,0,0,.32.27l.14-.13c-.33-.42-.65-.85-1-1.35h.6c.83,0,1.65.05,2.48.1a.8.8,0,0,1,.5.23c.55.62,1.07,1.26,1.61,1.89a2,2,0,0,0,.34.26l.22-.57-2-1.83c.57-.48.79-.47,1.18,0s.73.86,1.13,1.26a1.66,1.66,0,0,0,.52.24,2,2,0,0,0-.21-.56c-.34-.43-.73-.81-1.09-1.23-.17-.19-.32-.41-.52-.66.68-.17,1.28-.34,1.88-.45.14,0,.33.14.46.25s.34.35.51.52l.14-.12c-.15-.25-.31-.49-.49-.77a6,6,0,0,1,2.48-.63c.18,0,.37.18.55.28.39-.79,1.27-.69,1.91-1,.23-.11.65.22,1,.36a.13.13,0,0,1,.06.11c-.2.51.25.59.51.78.59.42,1.18.82,1.78,1.22a3.22,3.22,0,0,0,.49.2c-.06-.21-.09-.32-.12-.46a.81.81,0,0,1,.22,0l2,.56a.41.41,0,0,1,.21.09l1.85,2-.09.12-1-.51-.08.1a18.38,18.38,0,0,1,4.9,4.23l.16-.13a1.62,1.62,0,0,0-.21-.39c-.27-.31-.57-.59-.84-.89s-.43-.32-.31-.67c0-.08-.22-.28-.37-.37-1.37-.83-2.23-2.18-3.37-3.25a2.31,2.31,0,0,1-.07-.24c.59.05,1.15.06,1.69.14,1.42.21,2.83.43,4.24.68a7.35,7.35,0,0,0,2.88,0c.33-.08.64-.24,1-.33a4.51,4.51,0,0,1,.65-.05,20.54,20.54,0,0,0,1.45,1.86c1.74,1.77,3.53,3.51,5.3,5.26a.46.46,0,0,1,.13.33l-4.37-1.7c1,.46,1.89.94,2.85,1.39.78.35,1.61.61,2.36,1A8.55,8.55,0,0,1,82,37.28C82.08,37.32,82.05,37.55,82,37.63Zm-53.39-10h-.78a1,1,0,0,1,0-.1,2.78,2.78,0,0,1,.34-.26,16.49,16.49,0,0,1,7.34-2.65c2.1-.22,4.21-.28,6.3-.52,1.44-.17,2.87-.47,4.28-.78s3-.69,4.48-1.16a10.47,10.47,0,0,0,3.63-2l-.52.14-.15-.18a4.3,4.3,0,0,1,.52-.35A4.14,4.14,0,0,0,56,17a4,4,0,0,1,3.46-3c.63-.1,1.28-.12,1.91-.2a2.14,2.14,0,0,1,1.58.46,27.1,27.1,0,0,1,4.25,3.9,29.62,29.62,0,0,1,4.49,6.07A3,3,0,0,1,72.14,26a.93.93,0,0,1-.69.84,6.55,6.55,0,0,1-3.11.09c-.84-.11-1.66-.3-2.49-.45a2.11,2.11,0,0,0-.7-.07c-1.25.27-2.27-.37-3.34-.81-1.51-.62-3-1.28-4.51-1.85a9.55,9.55,0,0,0-2.37-.51,7.62,7.62,0,0,0-1.76.21.23.23,0,0,0-.15.1c-.29.65-1,.48-1.45.66,0,0-.11,0-.14,0-.6-.57-1.24,0-1.87-.07-.32-.05-.38.19-.11.82l-4.9,1.23a1.14,1.14,0,0,1-.37,0,20.16,20.16,0,0,0-6.34.38c-1.79.27-3.59.5-5.37.84-1.34.25-2.66.66-4,1a4.35,4.35,0,0,1-1,.09.58.58,0,0,1-.59-.53l1.73-.29Zm24.17-8c.29-.33.54-.62.8-.9,0-.05.21-.07.23,0a.36.36,0,0,1,.06.28A1,1,0,0,1,52.77,19.57Zm1.35-1.52c.24-.31.52-.6.79-.9l.2.11c-.23.39-.46.79-.7,1.16,0,0-.27,0-.27,0S54.06,18.13,54.12,18.05Zm5.93-5.14a11.76,11.76,0,0,1,.63-1,.45.45,0,0,1,.43-.08,9.93,9.93,0,0,1,.86.72l-.09.13ZM82.24,36.28l1.53-.78C83.35,36.5,82.94,36.71,82.24,36.28Zm5.82-4.41c-.33.93-.72,1.85-1.1,2.8a5.45,5.45,0,0,1-.72-.28c-.15-.08-.4-.28-.38-.33.1-.24.24-.52.59-.31a1.11,1.11,0,0,0,.26.06c-.45-.81.28-1.23.5-1.81a3.63,3.63,0,0,1,.28-.51l-.1-.08-.44.24L87.58,30c0-.12.07-.24.12-.36a2.4,2.4,0,0,1,.21-.38,2.51,2.51,0,0,1,.32.41A3,3,0,0,1,88.06,31.87Zm-.43-7.63c.48.33.47.89.62,1.36l-.11.06c-.21-.46-.43-.91-.64-1.36Zm-10.86-12,4.93,4.86-.1.14a3.52,3.52,0,0,1-.56-.35q-2-1.92-3.9-3.86a5.38,5.38,0,0,1-.52-.64Zm1.57,3.19-3.62-4.09C75.64,11.64,77.67,13.92,78.34,15.4ZM73.67,9.91C72.56,9.35,71.91,8.28,71,7.49A7.32,7.32,0,0,1,73.67,9.91Zm-.07,1-.17.15c-.29-.34-.58-.67-.86-1l.13-.12ZM67.54,4.57l1.15.83-.09.12-1.17-.8ZM44.37,11l-1.21-.74C43.63,9.9,44,10.11,44.37,11ZM30,17.53a.57.57,0,0,1,.43.1c.4.27.78.58,1.16.87l.42.32.11-.07a.84.84,0,0,0-.14-.32c-.3-.31-.62-.61-.93-.92a5.4,5.4,0,0,1-.36-.44l-.35,0-.05-.11A5.62,5.62,0,0,1,32,16.14a2.41,2.41,0,0,1,1.38.65,13.18,13.18,0,0,1,1.3,1.29,5.15,5.15,0,0,0,.43.33c-.07-.74-2-2.48-2.66-2.36.11-.16.15-.29.24-.34l4.8-2.54c.11-.05.28,0,.52.09.83-.59.85-.57,1.57.25.3.35.59.69.9,1a3,3,0,0,0,.33.27l.1-.09L40,13.34l.35.23.08-.1-.66-.76-.15.11c.08.14.17.27.26.41l-.47-.38c-.36-.32-.36-.47.05-.71.8-.45,1.65-.83,2.42-1.33a1.45,1.45,0,0,1,2.08.12c.61.57.68.49,1.14.19L43.92,9.75A9.8,9.8,0,0,1,45,9.17c.1,0,.31.08.42.18s.46.47.7.7l.14-.1L46,9.28l.43.14.07-.09c-.19-.16-.37-.32-.65-.58.49-.2.92-.42,1.38-.56.1,0,.27.18.41.25a2.77,2.77,0,0,0,.41.12c0-.13-.05-.25-.09-.37s-.07-.17-.14-.33l.5,0a6.6,6.6,0,0,1,.65-.43,14.88,14.88,0,0,1,1.42-.62,5,5,0,0,1,.79-.16c.06,0,.14,0,.17,0,.54-.66,1.39-.73,2.08-1.1.5-.27,1-.48,1.53-.78s.64-.26.92.11c0,.07.17.1.26.16l.12-.08a2.71,2.71,0,0,0-.2-.42c-.16-.22-.11-.35.13-.42.58-.19,1.16-.44,1.66.19.09.12.3.14.46.2l.08-.1-.47-.64L59,3.63c.39,0,.78,0,1.17,0s.63,0,.37-.5a6.28,6.28,0,0,1,3.84.33,3.61,3.61,0,0,1,1.77,1.44A7.46,7.46,0,0,0,67,6.05a5.2,5.2,0,0,0,.43.37l.16-.14L66.27,4.53l0-.06c.18.14.37.26.54.4a28.31,28.31,0,0,1,4.51,5,33.54,33.54,0,0,0,2.42,3,28.82,28.82,0,0,0,2.73,2.27,12.43,12.43,0,0,0,1.24.92c1.17.71,2.39,1.36,3.55,2.09A19.11,19.11,0,0,1,83,19.49l-.08.12-.7-.2-.06.12c.82.76,2,1,2.75,1.9a9.24,9.24,0,0,1,1.83,2.9,6.82,6.82,0,0,1,.88,3.37l-1.19-.82a.47.47,0,0,0-.1.1c.3.32.6.67.93,1s.36.47.08.79c0,0-.1.09-.1.13a3.67,3.67,0,0,1-.94,2.4l-.53.81c-.16.25-.34.33-.61.09A13.53,13.53,0,0,1,83.84,31,1.2,1.2,0,0,0,84,31a2.18,2.18,0,0,0,.27-.11c-.06-.08-.11-.19-.19-.22-.53-.19-1.07-.36-1.63-.54a1.14,1.14,0,0,0,.15.23l2.29,2.14c.24.22.22.39,0,.63-.63.69-.61.67-1.51.42a4.66,4.66,0,0,1-2-1.15c-.74-.72-1.52-1.4-2.29-2.09-.12-.1-.26-.18-.38-.28l-.14.15,2.42,2.43-.06.08-1-.32,0,.12a7.2,7.2,0,0,1,3.36,2.12c-.45.48-.9,1-1.39,1.47-.29.27-.56,0-.78-.18-1.32-1.23-2.65-2.44-4-3.69s-2.63-2.57-3.95-3.86a2.85,2.85,0,0,0-.38-.31c-.1-.54.13-.74.67-.62a.58.58,0,0,0,.49-.19.54.54,0,0,0-.14-.5.58.58,0,0,1-.31-.7.86.86,0,0,0,0-.42,1,1,0,0,1,.16-1.12c.18-.22.11-.53-.16-.56-.69-.08-.9-.6-1.18-1.08l-.3-.56a3.94,3.94,0,0,1,.41.16c.31.18.61.39.93.55a.92.92,0,0,0,.41,0c-.07-.13-.12-.32-.24-.39a6.2,6.2,0,0,0-1-.45,2.74,2.74,0,0,1-1.31-1c-1-1.31-2.1-2.56-3.16-3.84l-.35-.43,1.52.17a2.31,2.31,0,0,0-1.63-.66A1.18,1.18,0,0,1,66.9,16c-1-.78-1.92-1.56-2.82-2.4a14,14,0,0,1-1.2-1.53,2.83,2.83,0,0,1-.48-.72l1.76.92.09-.16a17.46,17.46,0,0,0-2.88-1.57l-.08.08.25.52a.82.82,0,0,1-.14.05c-.88-.16-.84-.09-1.2.58a.8.8,0,0,1-.5.3,10.73,10.73,0,0,1-1.14.11.49.49,0,0,1-.27,0c-.32-.18-.48-.05-.61.26a.86.86,0,0,1-.3.33c-.08.06-.21.07-.3.13s-.44.42-.53.37a1.92,1.92,0,0,1-.58-.59c-.78-.93-1.55-1.88-2.32-2.82l-.1.07L55,12.22l-.1.13L52,10.45l-.08.13c.92.65,1.84,1.31,2.76,1.95.41.29.85.54,1.24.85s.27.46,0,.79c-.48.62-.86,1.33-1.31,2s-.75,1-1.13,1.5l-.66-.48c0,.07,0,.11,0,.13.37.85.35.9-.3,1.61-.18.2-.32.23-.48,0-.36-.48-.69-1-1.06-1.43-.15-.19-.42-.27-.59-.45-.59-.64-1.16-1.31-1.75-1.95a2.59,2.59,0,0,0-.42-.32l-.1.1c.22.27.45.54.65.82s.47.72.74,1,.43.32.61.52c.57.62,1.12,1.26,1.69,1.88.19.21.17.35,0,.57A4.48,4.48,0,0,1,49.67,21c-1.44.59-2.91,1.11-4.38,1.65a3,3,0,0,1-.62.11,6.09,6.09,0,0,0-2-2.24,8.41,8.41,0,0,0,1.54,2.28c-.44.18-.77.22-1.1-.19-.59-.72-1.24-1.4-1.88-2.09a4.19,4.19,0,0,0-.45-.39l-.09.08c.13.23.26.46.4.69l-.05.07-1.31-.72-.09.15c1.16.74,2.55,1.2,3.21,2.68-1,.07-1.94.15-2.9.2-.13,0-.29-.17-.4-.29l-1.73-1.86c-.1-.11-.22-.2-.33-.3l-.13.11,1.24,1.52c-1.11-.4-2-1.23-3-1.67l-.12.21,3.81,2.16a.76.76,0,0,1,0,.15,5.64,5.64,0,0,1-1.79.15c-.14,0-.29-.08-.4,0-.55.22-.86,0-1.18-.44s-.91-1.06-1.37-1.58l-.17.13,1.4,1.86a1.3,1.3,0,0,1-.27.08,5.24,5.24,0,0,0-2.08.24.47.47,0,0,1-.42-.07,8.71,8.71,0,0,1-1.11-1.42l.43.11c-.56-.46-1.1-.87-1.61-1.33s-1-1-1.54-1.46l.61.9-.09.09-2.52-1.83C28.19,18.25,29.09,17.88,30,17.53Zm-2.68,1.68a28,28,0,0,0,2.34,1.56,13,13,0,0,1,2.89,2.84c.18.18.1.32-.11.37-.67.17-1.34.33-2,.45a.55.55,0,0,1-.44-.18c-1-1-1.93-2-2.87-3-.09-.09-.39-.23-.07-.41,0,0-.05-.14-.08-.14-.86,0-1.06-.85-1.65-1.22A1.5,1.5,0,0,1,27.32,19.21ZM9.81,23.28a1.86,1.86,0,0,1,.51-.35c1.6-.44,3.21-.86,4.82-1.28a.75.75,0,0,1,.29,0l0,.15-2.78.94,1.23.11c.11-.14.2-.34.34-.38.72-.24,1.45-.44,2.19-.62A.71.71,0,0,1,17,22c.56.43,1.09.89,1.61,1.37,1.2,1.11,2.39,2.25,3.58,3.38a1.44,1.44,0,0,0,.44.28c-1.65-1.89-3.55-3.54-5.44-5.36L19.56,21s.07,0,.09,0c1-.54,1.63.11,2.25.74l1.35,1.38a1.18,1.18,0,0,0,.37.24c-.5-1.22-1.77-1.68-2.59-2.74l1.63-.51c0,.12,0,.2,0,.4l1.63-.73c.83-.36.83-.35,1.43.31l3.71,4,.44.48c-.49.15-.91.27-1.32.41-.71.24-1.42.48-2.12.74-.1,0-.16.18-.24.28a1.43,1.43,0,0,0,.36,0l3.08-1a.53.53,0,0,1,.41.06l-.39.25c-.53.33-1.08.63-1.6,1s-.9.65-1.4,0c-.11.72-.65.67-1.08.8-.61.19-.56-.65-1.14-.67l.61.76-.58.51.49.2a12.15,12.15,0,0,1-2.7,1,5.2,5.2,0,0,0,3.33-.76c.58-.37.78-.33,1.07.29a.88.88,0,0,0,1,.53c.74-.08,1.47-.26,2.2-.39,1-.17,2.06-.35,3.09-.48a.88.88,0,0,1,.65.27c2,2,4,4.07,6,6.12a1.64,1.64,0,0,1,.19.4l-.1.07c.26.17.51.35.88.61-.78,0-1.43,0-2.07,0-.14,0-.28-.19-.4-.3l-2.32-2.26-.09.08,2.17,2.47c-.21,0-.32.07-.44.08-2.15.08-4.31.17-6.47.24-1.69.06-3.39.1-5.09.12a1.26,1.26,0,0,1-.77-.32c-1-.91-2-1.85-3.07-2.77a3.17,3.17,0,0,0-.36-.28l-.09.1,3.33,3.14a.79.79,0,0,1,0,.13c-2.68.1-5.36.05-8,0a.66.66,0,0,1,0-.14l1.58-.07c-1.66-.85-2.77-2.31-4.31-3.24L16.74,35a2.18,2.18,0,0,1-1.86-.33l-4.57-4-.08.09,4.33,4.08a.74.74,0,0,1-.86-.19L11.76,33a.71.71,0,0,0-.25-.11L13,34.3l.41.37c-.1,0-.17.11-.23.11a7.55,7.55,0,0,1-3.62-1,3.09,3.09,0,0,1-1.43-1.86A12.75,12.75,0,0,1,8,29.87a.59.59,0,0,0,0-.17s0,0-.14-.09a5.78,5.78,0,0,0,.09,2.68,3.07,3.07,0,0,1-1.3-1.67,8.63,8.63,0,0,1-.14-1A3.32,3.32,0,0,1,7,27.33c.47-.68,1-1.35,1.45-2A.36.36,0,0,1,9,25.22c-.14-.49.31-1.16,1-1.42l.15,0-.35-.48Zm-1.18.55c.35-.19.72-.35,1.08-.51l-1.38.86A1,1,0,0,1,8.63,23.83Zm-1.21.9a2.68,2.68,0,0,1,.84-.5c-.3.36-.61.7-.88,1.07-.44.6-.85,1.21-1.36,1.95a1.76,1.76,0,0,1,.08-.6A18.13,18.13,0,0,1,7.42,24.73ZM38,13.26h0l-.05,0S37.91,13.31,38,13.26ZM39.23,45.2l.43.77c.09.17.16.35.26.5a6.54,6.54,0,0,1,.41.51c.42.71.82,1.43,1.24,2.15.08.14.18.28.27.42l.12-.08A17.5,17.5,0,0,0,38.9,44.7C39,44.87,39.13,45,39.23,45.2ZM37.5,42.76c.36.83,1.19,1.1,1.88,1.53L37.5,42.54A.24.24,0,0,0,37.5,42.76Zm4.34,3.65c-.4-.56-.8-.88-1-.81C41.52,46.46,41.52,46.46,41.84,46.41ZM72,51.52l-.09.07.56,1-.11.09-4-2.11a.61.61,0,0,0-.07.14l1.4.74c.94.52,1.89,1,2.82,1.56a3.69,3.69,0,0,1,.77.71c.23.25.41.55.62.82l.14-.09c-.14-.24-.27-.49-.44-.79l.59.14c0-.06.07-.11.1-.16C73.12,53.37,72.61,52.41,72,51.52ZM59.6,54.78l-5.9-6.2C54.63,50,59.1,54.67,59.6,54.78Zm6.52-2.16,2.48,3.6.12-.09-2.48-3.6Zm7.26-2.21L76,53.73l.11-.09L73.5,50.3ZM64,49.68l1.1,1.53A1.69,1.69,0,0,0,64,49.68ZM53.65,52l.7,1,.13-.06c-.23-.35-.46-.7-.68-1Zm-1.39-2.89.46.83C52.92,49.36,52.51,49.25,52.26,49.06ZM70.41,13.81c-.2-.21-.39-.43-.59-.65l-.08.09,1.6,2-.07.09-2.48-.94-.06.17c.91.39,1.82.77,2.72,1.18a7.81,7.81,0,0,1,.88.52l-.12.18L70,15.4l-.06.13a26.32,26.32,0,0,1,3.08,1.71,26.42,26.42,0,0,1,2.53,2.44l.12-.1c-.08-.68-.86-.91-1.1-1.56,1.15.45,2.13,1.15,3.26,1.5l.11-.21c-.19-.12-.37-.27-.57-.37-1.19-.58-2.39-1.14-3.58-1.75a5.08,5.08,0,0,1-.79-.63s.06-.1.09-.14l1.52.4a.82.82,0,0,0-.36-.29,1,1,0,0,0-.22-.08,6.24,6.24,0,0,1-3.17-2.13A5.9,5.9,0,0,0,70.41,13.81Zm-1,3.39A5.68,5.68,0,0,1,71.53,19a12.46,12.46,0,0,0,.87.91,2.7,2.7,0,0,0,.39.27l.12-.12c-.27-.37-.53-.75-.79-1.12a1.06,1.06,0,0,1,.51.18c.45.25.9.52,1.35.75.1.05.25,0,.38,0-.06-.12-.09-.27-.18-.33-.33-.2-.68-.38-1-.56a9.88,9.88,0,0,1-2.07-1.16c-1.06-1-2-2.13-3-3.21a1,1,0,0,1-.12-.37l-1.46-1.35-.05,0,3.43,4.24-.1.07-.51-.12C69.35,17.11,69.38,17.18,69.43,17.2Zm-.12-.15v0h0Zm7.54,4.08c.5.43.92.74,1.29,1.12,1.11,1.14,2.2,2.31,3.31,3.46a4.52,4.52,0,0,0,.51.39c.05-.14.09-.2.07-.22l-3.32-3.51.18,0c1.25.67,2.5,1.34,3.76,2,.13.07.32,0,.48,0-.1-.12-.18-.28-.31-.34-.67-.34-1.37-.62-2-1-1.17-.61-2.32-1.26-3.49-1.88A1.71,1.71,0,0,0,76.85,21.13ZM46.48,17.07a10.85,10.85,0,0,0,1.43,1.69,9.41,9.41,0,0,1,1.21,1.37,2.67,2.67,0,0,0,.36.31l.16-.11a3.17,3.17,0,0,0-.23-.45c-.39-.47-.79-.95-1.2-1.4q-1.86-2.09-3.74-4.14a6.06,6.06,0,0,0-.54-.47,1.2,1.2,0,0,0,.29.56C45,15.31,45.72,16.2,46.48,17.07Zm4.46-4.73-.7-.35c.54.47,1.15.82,1.67,1.28s1,1,1.44,1.54a2.21,2.21,0,0,0,.52.3l-.18-.57s0,0,0-.09L54,14.3a4.36,4.36,0,0,0-.46-.32,6.25,6.25,0,0,1-1.75-1.53c-.71-.8-1.46-1.55-2.19-2.33l-.11.11,1.53,2Zm-5.08,5-3.8-2.42A10.38,10.38,0,0,0,45.86,17.33ZM56,10.41,52.88,8.18l-.12.15,3,2.31Zm-6.24,3.1L47.5,11.16l-.09.09C47.67,11.9,49.24,13.59,49.71,13.51Zm24.62,1.6a4.29,4.29,0,0,0-2.31-1A3.92,3.92,0,0,0,74.33,15.11Zm-6-4A6.07,6.07,0,0,0,71,12.46,7.44,7.44,0,0,0,68.38,11.07Zm-29.83,4.2c.07,0,.28-.14.29-.23.06-.42-.48-1-1-1.18A2.28,2.28,0,0,0,38.55,15.27ZM56.48,8.9a1.85,1.85,0,0,0-1.2-1.29C55.34,8.21,56,8.94,56.48,8.9ZM86,23.33c-.06-.11-.1-.27-.2-.31-.51-.24-1-.46-1.56-.68l-.09.17c.5.28,1,.56,1.49.82C85.72,23.38,85.87,23.33,86,23.33ZM38,17l-.12.16c.22.25.43.52.67.76.06.06.19,0,.29.06s0-.25,0-.3C38.57,17.47,38.28,17.26,38,17Zm12.17-.79,1.61,1,.09-.13L50.3,16.05A2.14,2.14,0,0,0,50.17,16.24Zm-3.24-2.37-1.5-1-.12.19,1.53,1ZM41.24,15.4l1,1.16A1.2,1.2,0,0,0,41.24,15.4Zm7.66-1.72-1.51-.81a1.09,1.09,0,0,1-.08.15l1.49.83ZM62.34,3.87l-1.1-.6-.06.11c.33.26.59.64,1.06.66ZM85.78,25.64a7.06,7.06,0,0,0,.69.42c.08,0,.21,0,.32-.07-.05-.09-.09-.24-.17-.27a5.09,5.09,0,0,0-.79-.21S85.8,25.6,85.78,25.64ZM42.9,12.91a1.29,1.29,0,0,0,.16-.17l-.64-.56-.12.14C42.42,12.6,42.52,12.9,42.9,12.91ZM65.4,33.57a24.19,24.19,0,0,0,3.75,2.17l.1-.17-3.78-2.13ZM76.31,39a3.52,3.52,0,0,0-1.54-1.37C75.14,38.47,75.73,39,76.31,39ZM55.37,27.17l-.2.17c.36.45.71.9,1.08,1.34,0,0,.16,0,.21,0a.21.21,0,0,0,0-.2C56.13,28,55.75,27.6,55.37,27.17Zm-.68,2.48,1.32.78.09-.15-1.33-.76Zm9.72,3.61v0l.07,0-.06-.06Zm-.54-.75-.18.21.72.54.16-.32ZM48,30.23l.84.57.14-.21-.87-.53A1.63,1.63,0,0,1,48,30.23Zm8.26-2.61.7.52.14-.2-.76-.44ZM24.59,30.91c1.42,1.44,2.81,2.9,4.21,4.35a2.23,2.23,0,0,0,.44.29l.11-.13A4.35,4.35,0,0,0,29,35l-3.31-3.25c-.33-.34-.62-.73-1-1.06a6.8,6.8,0,0,0-.94-.76,7.63,7.63,0,0,0-.95-.47l-.06.14.76.53A8,8,0,0,1,24.59,30.91ZM22,28.11a31.87,31.87,0,0,0-4.81-4.76C18,24.56,21.58,28.12,22,28.11Zm3.89,6.69c0-.45-2.69-2.79-3.31-3A22,22,0,0,0,25.86,34.8ZM18.43,28c.08.1.25.13.37.2l.09-.12a2.86,2.86,0,0,0-.28-.4c-.46-.47-.94-.93-1.38-1.41s-.87-1-1.3-1.53c0,.15,0,.34.09.44C16.81,26.11,17.61,27,18.43,28ZM15.66,32.1l4,3.61.16-.18L15.8,32Zm1.1-3.85.12-.11-3.4-3.72-.09.09A24.4,24.4,0,0,0,16.76,28.25Zm-4.42.42-1.05-1.12-2.2-2.26C9.63,26.33,11.81,28.65,12.34,28.67ZM9.09,25.29l0-.06H9v0ZM21.35,35.34l.08-.16-2.94-2.63,0,0c.86.89,1.71,1.77,2.58,2.65C21.1,35.31,21.24,35.31,21.35,35.34Zm14.18-.74-2.7-2.28a2.09,2.09,0,0,1-.14.17l2.67,2.32ZM13.88,28.33a1.65,1.65,0,0,0,.33.24l.13-.12c-.12-.16-.22-.33-.35-.48l-2-2.35c0,.14,0,.3.09.4C12.64,26.8,13.26,27.56,13.88,28.33Zm-3,1,.1-.1L8.77,26.74A7.56,7.56,0,0,0,10.93,29.35Zm16.3-5c-.31-.91-1.16-1.33-1.79-1.94A6.63,6.63,0,0,0,27.23,24.31Zm-11.31.39v0l0,0,.43.23c-.63-.66-1.28-1.28-1.95-1.87-.1-.1-.29-.1-.45-.13.57.58,1.13,1.16,1.71,1.74C15.69,24.7,15.82,24.69,15.92,24.7Zm-2-1.8h0v0h0ZM30.84,34.44l-1.75-1.56c-.09.21-.14.36-.15.38l1.78,1.32ZM12.37,25.82,12,25.64l.25.27Zm-.43-.21h0l.06,0-1-1.1c.24.35.49.7.75,1C11.75,25.63,11.86,25.6,11.94,25.61ZM33.36,35,31.3,33.28a1.83,1.83,0,0,1-.13.16l2.09,1.68Zm-6.2-3.95-1.34-1.19-.14.15L27,31.24Zm-6.3-8.59.8.88.14-.12L21,22.34ZM11.4,32.82l.07.08h0l0,0Zm-1-.75,1,.75-.88-.89Zm49.71-9.42c.25.38.52.58,1,.3.08-.06.24,0,.36,0,1,0,2.05.13,3.08.13s1.25-.62.88-1.46a3.73,3.73,0,0,0-1-1.36c-.55-.47-1-1-1.62-1.45a8.75,8.75,0,0,0-1.5-.75c-.19.21-.36.44-.63,0a.5.5,0,0,0-.48,0c-1.28.7-2,3-.55,4.16A2.5,2.5,0,0,1,60.11,22.65Zm1.56-.38a.67.67,0,0,1,1.12,0Zm2.44-1a3.85,3.85,0,0,1-2.72-1.21,3.33,3.33,0,0,0,.63.2,1.54,1.54,0,0,0,.46-.11c-.06-.15-.09-.35-.2-.42a5.79,5.79,0,0,0-.71-.34,4.19,4.19,0,0,1-.5-.31A3.3,3.3,0,0,1,64.11,21.26ZM59.78,18.9l.12.06v.87h-.61C59.48,19.48,59.63,19.19,59.78,18.9ZM28.32,21.64l-1.09-.79a.22.22,0,0,0-.15,0l1.15.94Zm-1.24-.82v0h0Z"/></svg>