<svg id="Warstwa_1" data-name="Warstwa 1" xmlns="http://www.w3.org/2000/svg" viewBox="0 0 77.07 25.96"><defs><style>.cls-1{fill:#c8a373;}</style></defs><title>SBR_leaf_r0</title><path class="cls-1" d="M.67,15.24q9.66.23,19.32.1c-.35,2.77,2.59,6.43,4.32,7.81,3.6,2.87,8.24,3.16,12.58,2.55.65-.09.63-1,.17-1.34-3.76-2.43-6.84-7.22-10.94-9.15,3.94-.1,7.89-.23,11.83-.43,0,0,0,0,0,.06A18,18,0,0,0,59.54,24.4c.61-.18.71-1.29,0-1.39-3.61-.52-7.44-5.16-10.87-6.8a24.88,24.88,0,0,0-4.92-1.75q2.82-.18,5.63-.39a.66.66,0,0,0,1.09.21c.12-.12.23-.21.35-.32h0c3.2,1.49,6.39,2.57,10,2,5.32-.88,10.3-3.19,15.72-4,.86-.12.61-1.3,0-1.55-8.86-3.68-19-4.69-26.46,2.34-2.46.12-4.92.21-7.39.31a20.47,20.47,0,0,0,4.26-2.52c3.3-2.55,5.25-7.14,8.91-9,.81-.41.23-1.83-.62-1.51C48.77,2.51,37.28,4.79,35.94,13.28a.43.43,0,0,0,0,.06q-5.66.19-11.32.31a7.92,7.92,0,0,0,3.32-2.58c2.42-3,4.58-6.33,6.83-9.5a.69.69,0,0,0-.75-1c-6.1,2-13.48,5.94-14.32,13.18q-9.52.15-19,.07A.71.71,0,0,0,.67,15.24Zm56.21-2.8-4.57.22c6.15-4.8,13.83-4.23,21-1.76a65.48,65.48,0,0,0-8.56,2.24,19.31,19.31,0,0,1-11.17.58l3.34-.29C57.49,13.38,57.5,12.41,56.88,12.44ZM39.8,15.28a61.76,61.76,0,0,1,7,3.8c.29.19.52-.26.26-.46a41.19,41.19,0,0,0-5.29-3.47,31.41,31.41,0,0,1,9.74,4.43c1.86,1.29,3.36,2.94,5.22,4C49.88,24.64,43.51,21.47,39.8,15.28ZM37.43,13c2.38-5.77,8.5-8,14.2-10C50.48,4.44,49.47,6,48.2,7.33a21.64,21.64,0,0,1-8.32,5.4c1.76-1.28,3.46-2.68,5.12-4.06.36-.3-.11-.9-.49-.65A77.85,77.85,0,0,0,37.43,13ZM21.48,16.73A47.53,47.53,0,0,0,27.71,21a.23.23,0,0,0,.27-.36A47.09,47.09,0,0,0,21.8,15.6a.44.44,0,0,0-.41,0c0-.08,0-.16,0-.24l.68,0c5.41.59,8.59,5.82,12.7,9.18a14.06,14.06,0,0,1-8.52-1.68C24.55,21.75,22,19.23,21.48,16.73Zm-.74-3C22.64,7.92,27,4.66,32.43,2.59L28.37,8.33c-1.54,2.18-2.88,3.67-5,4.5a18.75,18.75,0,0,0,3.52-5c.14-.3-.21-.62-.46-.37-1,1-1.87,2.28-2.84,3.38s-1.8,1.9-2.7,2.84Z"/></svg>