<svg id="Warstwa_1" data-name="Warstwa 1" xmlns="http://www.w3.org/2000/svg" viewBox="0 0 77.07 25.96"><defs><style>.cls-1{fill:#ffffff;}</style></defs><title>SBR_leaf_l0</title><path class="cls-1" d="M76.4,10.72q-9.66-.23-19.32-.1c.35-2.77-2.59-6.43-4.32-7.81C49.16-.06,44.52-.35,40.18.27c-.65.09-.63,1-.17,1.34C43.77,4,46.85,8.82,50.95,10.75c-3.94.1-7.89.23-11.83.43,0,0,0,0,0-.06A18,18,0,0,0,17.52,1.56c-.61.18-.71,1.29,0,1.39,3.61.52,7.44,5.16,10.87,6.8a24.88,24.88,0,0,0,4.92,1.75q-2.82.18-5.63.39a.66.66,0,0,0-1.09-.21c-.12.12-.23.21-.35.32h0c-3.2-1.49-6.39-2.57-10-2C10.95,10.9,6,13.22.55,14c-.86.12-.61,1.3,0,1.55,8.86,3.68,19,4.69,26.46-2.34,2.46-.12,4.92-.21,7.39-.31a20.47,20.47,0,0,0-4.26,2.52c-3.3,2.55-5.25,7.14-8.91,9-.81.41-.23,1.83.62,1.51,6.45-2.46,17.93-4.74,19.28-13.23a.43.43,0,0,0,0-.06q5.66-.19,11.32-.31a7.92,7.92,0,0,0-3.32,2.58c-2.42,3-4.58,6.33-6.83,9.5a.69.69,0,0,0,.75,1c6.1-2,13.48-5.94,14.32-13.18q9.52-.15,19-.07A.71.71,0,0,0,76.4,10.72Zm-56.21,2.8,4.57-.22c-6.15,4.8-13.83,4.23-21,1.76a65.48,65.48,0,0,0,8.56-2.24,19.31,19.31,0,0,1,11.17-.58l-3.34.29C19.58,12.58,19.56,13.55,20.19,13.52Zm17.08-2.83a61.76,61.76,0,0,1-7-3.8c-.29-.19-.52.26-.26.46a41.19,41.19,0,0,0,5.29,3.47,31.41,31.41,0,0,1-9.74-4.43c-1.86-1.29-3.36-2.94-5.22-4C27.19,1.32,33.56,4.49,37.27,10.69Zm2.37,2.26c-2.38,5.77-8.5,8-14.2,10,1.15-1.39,2.15-2.93,3.42-4.28a21.64,21.64,0,0,1,8.32-5.4c-1.76,1.28-3.46,2.68-5.12,4.06-.36.3.11.9.49.65A77.85,77.85,0,0,0,39.64,12.95ZM55.59,9.24a47.53,47.53,0,0,0-6.23-4.32.23.23,0,0,0-.27.36,47.09,47.09,0,0,0,6.18,5.08.44.44,0,0,0,.41,0c0,.08,0,.16,0,.24H55c-5.41-.59-8.59-5.82-12.7-9.18A14.06,14.06,0,0,1,50.8,3.17C52.52,4.21,55,6.73,55.59,9.24Zm.74,3C54.43,18,50,21.3,44.64,23.37l4.06-5.75c1.54-2.18,2.88-3.67,5-4.5a18.75,18.75,0,0,0-3.52,5c-.14.3.21.62.46.37,1-1,1.87-2.28,2.84-3.38s1.8-1.9,2.7-2.84Z"/></svg>