<svg id="Warstwa_1" data-name="Warstwa 1" xmlns="http://www.w3.org/2000/svg" viewBox="0 0 242 120.45"><defs><style>.cls-1,.cls-2{fill:#fff;}.cls-1{fill-rule:evenodd;}</style></defs><title>SBR_logo0</title><path class="cls-1" d="M0,26H99.17a19.7,19.7,0,0,0,4.41,5.67H6.64Z"/><path class="cls-1" d="M242,26H141.27a19.7,19.7,0,0,1-4.41,5.67h98.5Z"/><polygon class="cls-1" points="242 120.45 127.64 120.45 121 114.78 235.36 114.78 242 120.45"/><polygon class="cls-1" points="0 120.45 114.36 120.45 121 114.78 6.64 114.78 0 120.45"/><path class="cls-1" d="M119.92,32.1l.93,0,0,2.89-1.13,0Z"/><path class="cls-1" d="M118.72,32l.93.08L119.37,35l-1.13-.1Z"/><path class="cls-1" d="M117.51,31.83l.93.14-.53,2.85-1.13-.18Z"/><path class="cls-1" d="M116.31,31.59l.93.19-.78,2.8q-.57-.11-1.12-.25Z"/><path class="cls-1" d="M115.11,31.27l.93.25-1,2.72q-.56-.15-1.11-.33Z"/><path class="cls-1" d="M113.91,30.87l.93.32-1.26,2.63q-.56-.19-1.1-.41Z"/><path class="cls-1" d="M112.72,30.38l.92.39-1.49,2.52q-.55-.23-1.09-.49Z"/><path class="cls-1" d="M111.55,29.79q.44.24.91.46l-1.7,2.38q-.54-.27-1.07-.58Z"/><path class="cls-1" d="M110.41,29.11q.43.28.89.54l-1.91,2.23q-.53-.32-1-.67Z"/><path class="cls-1" d="M109.3,28.33c.28.21.56.42.86.62L108.06,31q-.51-.37-1-.76Z"/><path class="cls-1" d="M108.24,27.43q.39.36.82.7L106.78,30q-.49-.42-.94-.86Z"/><path class="cls-1" d="M107.25,26.43q.36.41.76.79l-2.43,1.66q-.45-.46-.87-1Z"/><path class="cls-1" d="M106.35,25.32q.33.45.69.87l-2.56,1.45q-.41-.51-.78-1Z"/><path class="cls-1" d="M105.56,24.11q.28.49.6,1l-2.68,1.22q-.36-.56-.67-1.14Z"/><path class="cls-1" d="M104.91,22.8q.22.52.49,1l-2.77,1q-.3-.59-.55-1.21Z"/><path class="cls-1" d="M104.41,21.41q.16.55.37,1.08l-2.84.73q-.23-.63-.41-1.28Z"/><path class="cls-1" d="M104.09,20q.09.57.23,1.12l-2.88.48q-.16-.65-.25-1.32Z"/><path class="cls-1" d="M104,18.48q0,.58.08,1.15l-2.91.22q-.08-.67-.09-1.34Z"/><path class="cls-1" d="M104,17a11.34,11.34,0,0,0-.06,1.15l-2.92,0q0-.68.07-1.35Z"/><path class="cls-1" d="M104.27,15.54q-.13.56-.21,1.13l-2.9-.28q.08-.67.23-1.32Z"/><path class="cls-1" d="M104.7,14.12q-.2.54-.35,1.09l-2.87-.54q.17-.65.39-1.28Z"/><path class="cls-1" d="M105.3,12.78q-.26.51-.48,1L102,13c.16-.42.34-.82.53-1.22Z"/><path class="cls-1" d="M106,11.52q-.32.47-.59,1l-2.74-1q.31-.59.66-1.15Z"/><path class="cls-1" d="M106.91,10.37q-.36.43-.68.88L103.59,10q.36-.54.77-1.06Z"/><path class="cls-1" d="M107.88,9.32q-.39.39-.76.8L104.6,8.63q.41-.5.86-1Z"/><path class="cls-1" d="M108.92,8.39q-.42.35-.81.71l-2.39-1.71q.45-.45.94-.87Z"/><path class="cls-1" d="M110,7.56q-.44.3-.86.63l-2.23-1.91q.48-.4,1-.78Z"/><path class="cls-1" d="M111.17,6.83q-.46.26-.89.55l-2.05-2.09q.51-.35,1-.68Z"/><path class="cls-1" d="M112.35,6.21c-.31.15-.61.31-.91.47l-1.86-2.26q.52-.31,1.07-.59Z"/><path class="cls-1" d="M113.54,5.69q-.47.19-.93.4L111,3.68q.54-.26,1.1-.5Z"/><path class="cls-1" d="M114.75,5.25l-.94.33L112.38,3q.55-.22,1.11-.42Z"/><path class="cls-1" d="M116,4.9l-.94.26-1.2-2.65q.56-.18,1.13-.33Z"/><path class="cls-1" d="M117.19,4.64l-.95.2-1-2.74,1.13-.25Z"/><path class="cls-1" d="M118.41,4.45l-.95.14-.72-2.81q.56-.1,1.14-.18Z"/><path class="cls-1" d="M119.64,4.33l-.95.08-.47-2.86,1.14-.11Z"/><path class="cls-1" d="M120.86,4.29l-.94,0-.22-2.89,1.14,0Z"/><path class="cls-1" d="M122.08,4.32l-.95,0,0-2.89,1.14,0Z"/><path class="cls-1" d="M123.31,4.41l-.95-.08.28-2.88,1.14.11Z"/><path class="cls-1" d="M124.53,4.59l-.95-.14.53-2.85q.58.08,1.14.18Z"/><path class="cls-1" d="M125.75,4.84l-.95-.2.78-2.8c.38.08.76.16,1.14.26Z"/><path class="cls-1" d="M127,5.17,126,4.9l1-2.72q.57.15,1.13.33Z"/><path class="cls-1" d="M128.18,5.58q-.46-.18-.94-.33l1.26-2.63c.38.13.75.27,1.12.42Z"/><path class="cls-1" d="M129.38,6.09q-.46-.21-.93-.4l1.49-2.51q.56.24,1.1.5Z"/><path class="cls-1" d="M130.57,6.68q-.45-.25-.91-.47l1.7-2.38q.55.28,1.07.59Z"/><path class="cls-1" d="M131.72,7.39q-.43-.29-.89-.55l1.91-2.23c.36.22.7.45,1,.68Z"/><path class="cls-1" d="M132.83,8.19q-.42-.33-.86-.63l2.1-2.05q.51.37,1,.78Z"/><path class="cls-1" d="M133.89,9.1q-.39-.37-.82-.72l2.27-1.87q.49.42.94.87Z"/><path class="cls-1" d="M134.88,10.12c-.24-.27-.49-.54-.76-.8l2.42-1.66q.45.47.86,1Z"/><path class="cls-1" d="M135.77,11.25q-.32-.45-.68-.89l2.56-1.44q.41.52.77,1.06Z"/><path class="cls-1" d="M136.54,12.49q-.27-.49-.59-1l2.67-1.21q.36.56.66,1.15Z"/><path class="cls-1" d="M137.18,13.82q-.21-.53-.48-1l2.76-1q.29.6.53,1.22Z"/><path class="cls-1" d="M137.65,15.22q-.15-.55-.35-1.09l2.83-.73q.22.63.39,1.28Z"/><path class="cls-1" d="M137.94,16.67q-.08-.57-.21-1.13l2.88-.48q.15.65.23,1.33Z"/><path class="cls-1" d="M138,18.16A11.33,11.33,0,0,0,138,17l2.91-.22q.07.67.07,1.35Z"/><path class="cls-1" d="M138,19.64a11.5,11.5,0,0,0,.09-1.15l2.92,0q0,.68-.09,1.34Z"/><path class="cls-1" d="M137.68,21.1q.14-.55.23-1.12l2.91.28q-.1.67-.25,1.32Z"/><path class="cls-1" d="M137.22,22.5c.14-.35.26-.71.37-1.08l2.87.54q-.17.65-.41,1.27Z"/><path class="cls-1" d="M136.6,23.83q.27-.5.49-1l2.82.79q-.25.62-.55,1.21Z"/><path class="cls-1" d="M135.83,25.07q.32-.46.6-1l2.75,1q-.31.58-.68,1.13Z"/><path class="cls-1" d="M135,26.2c.24-.28.47-.57.69-.87l2.65,1.27q-.37.54-.78,1Z"/><path class="cls-1" d="M134,27.23q.4-.38.76-.79l2.53,1.5c-.28.33-.57.64-.87,1Z"/><path class="cls-1" d="M132.93,28.14q.42-.34.82-.7l2.39,1.71q-.45.44-.94.86Z"/><path class="cls-1" d="M131.83,29c.29-.2.58-.4.86-.62l2.23,1.91q-.48.39-1,.76Z"/><path class="cls-1" d="M130.69,29.66c.3-.17.6-.35.89-.53l2.06,2.1q-.5.35-1,.67Z"/><path class="cls-1" d="M129.52,30.26q.46-.22.9-.46l1.86,2.26q-.52.3-1.06.58Z"/><path class="cls-1" d="M128.34,30.77l.92-.39,1.65,2.41c-.36.17-.72.34-1.09.49Z"/><path class="cls-1" d="M127.14,31.19l.93-.32,1.43,2.54q-.54.22-1.1.4Z"/><path class="cls-1" d="M125.94,31.53l.93-.25,1.2,2.65c-.37.12-.74.23-1.11.32Z"/><path class="cls-1" d="M124.74,31.79l.93-.19,1,2.74q-.55.14-1.12.25Z"/><path class="cls-1" d="M123.53,32l.93-.13.72,2.81c-.37.07-.75.13-1.13.17Z"/><path class="cls-1" d="M122.33,32.08l.93-.08.47,2.86-1.13.1Z"/><path class="cls-1" d="M121.13,32.12l.93,0,.22,2.88-1.12,0Z"/><path class="cls-1" d="M121,.55c-11.43,0-20.7,7.91-20.7,17.66s9.27,17.66,20.7,17.66S141.7,28,141.7,18.21,132.43.55,121,.55Zm0,34.79c-11.24,0-20.36-7.67-20.36-17.13S109.76,1.07,121,1.07s20.36,7.67,20.36,17.13S132.24,35.34,121,35.34Z"/><path class="cls-1" d="M123.95,8.56q.33,0,.53-.36a1.16,1.16,0,0,0-.93-1c-.16,0-.25.11-.27.34a1.14,1.14,0,0,0,.16.67A.66.66,0,0,0,123.95,8.56Z"/><path class="cls-1" d="M121.74,8.56q.33,0,.53-.36a1.17,1.17,0,0,0-.93-1c-.16,0-.25.11-.27.34a1.14,1.14,0,0,0,.16.67A.66.66,0,0,0,121.74,8.56Z"/><path class="cls-1" d="M113.5,12.73v4.79a4.8,4.8,0,0,1-.09,1.19,2.26,2.26,0,0,1-.49.83,18.5,18.5,0,0,1-2.18,2A6.52,6.52,0,0,0,112.57,23a6.86,6.86,0,0,0,2.29.67l-.11-12Z"/><path class="cls-1" d="M125.28,22.09c0,.29,0,.85-.08,1.66a5.25,5.25,0,0,1-.17,1.08,3.76,3.76,0,0,1-.54,1,8.89,8.89,0,0,1-1.2,1.27,6.77,6.77,0,0,0,2.23-1.25,3.67,3.67,0,0,0,1.11-1.6,8.86,8.86,0,0,0,.28-2.57V13a6.37,6.37,0,0,1-1.63.58Z"/><path class="cls-2" d="M121,4.65c-9.17,0-16.6,6.07-16.6,13.56s7.43,13.56,16.6,13.56,16.6-6.07,16.6-13.56S130.17,4.65,121,4.65Zm2.06,2.69a1.55,1.55,0,0,1,.69-.56.7.7,0,0,1,.73.23,1.42,1.42,0,0,1,.45.79,1.71,1.71,0,0,1,0,.65l.49-1.63h1l0,.05-.3.48h-.79l-.14.55a.89.89,0,0,1,.41-.15,1.07,1.07,0,0,1,.37.06.76.76,0,0,1,.37.32.82.82,0,0,1,.14.56,1.64,1.64,0,0,1-.16.57,9.36,9.36,0,0,1-.9,1.2l-.08-.08.54-.71a1,1,0,0,0,.18-.55,1,1,0,0,0-.13-.51.64.64,0,0,0-.49-.3.52.52,0,0,0-.56.32l0-.07v0a2.91,2.91,0,0,1-.31.69,3,3,0,0,1-.5.6,2.83,2.83,0,0,1-1.05.53l.3-.58a.61.61,0,0,0,.51,0,1.36,1.36,0,0,0,.46-.5,1.57,1.57,0,0,0,.2-.91c-.24.39-.47.61-.68.66a.75.75,0,0,1-.65-.16,1,1,0,0,1-.39-.68A1.15,1.15,0,0,1,123.06,7.33Zm-2.21,0a1.55,1.55,0,0,1,.69-.56.7.7,0,0,1,.73.23,1.43,1.43,0,0,1,.45.79,1.67,1.67,0,0,1,0,.81,2.93,2.93,0,0,1-.31.69,3,3,0,0,1-.5.6,2.82,2.82,0,0,1-1.05.53l.3-.58a.61.61,0,0,0,.51,0,1.36,1.36,0,0,0,.46-.5,1.57,1.57,0,0,0,.2-.91q-.36.58-.68.66a.75.75,0,0,1-.65-.16,1,1,0,0,1-.39-.68A1.14,1.14,0,0,1,120.85,7.33Zm-1.54.2-.05-.1.81-.65,0,.05V8.5a.57.57,0,0,1-.39.43h.68l0,.06-.45.33h-.76l0-.05a1,1,0,0,0,.4-.8V7.35Zm-8.43,17.12A6.73,6.73,0,0,1,108.17,22a7.21,7.21,0,0,1-1-3.59,7.13,7.13,0,0,1,1.39-4.23,11.37,11.37,0,0,1,3.53-3l.25.29A8.12,8.12,0,0,0,110,13.76a6.13,6.13,0,0,0-1,3.38,6.48,6.48,0,0,0,1.48,4.1,2.41,2.41,0,0,0,.77-.87,8.21,8.21,0,0,0,.13-1.93V13.74L115.93,10a16.55,16.55,0,0,0,2.52.8,11.16,11.16,0,0,0,2.16.18h.25l.17.38L119.26,13a12.38,12.38,0,0,1-4-1.28l.12,12h.41a7.43,7.43,0,0,0,2.81-.51,10,10,0,0,0,2.62-1.67l.32.3a10.69,10.69,0,0,1-2,2.09,7.56,7.56,0,0,1-2.3,1.19,8.44,8.44,0,0,1-2.67.44A7.68,7.68,0,0,1,110.88,24.66Zm22.78-13a2.52,2.52,0,0,1-1,1,3,3,0,0,1-1.49.38,5.88,5.88,0,0,1-2.06-.46v2.78h3.34L131.84,17H129.1v5a8,8,0,0,1-.21,2.16,3.22,3.22,0,0,1-.82,1.3,5.11,5.11,0,0,1-1.53,1,19.4,19.4,0,0,1-2.12.87L120,28.79a14,14,0,0,0-2.45-.77.8.8,0,0,0-.54.2,1.16,1.16,0,0,0-.33.67l-.45-.1a3,3,0,0,1,.18-1.14,2.25,2.25,0,0,1,.81-1,2,2,0,0,1,1.12-.35,5.92,5.92,0,0,1,2.18.57q.94.41,1.15.47a1.37,1.37,0,0,0,.4.06.86.86,0,0,0,.61-.27,1.39,1.39,0,0,0,.36-.82,20,20,0,0,0,.08-2.3V17h-.66a6,6,0,0,0-2.44.37,3.33,3.33,0,0,0-1.37,1.25l-.42-.17a4.33,4.33,0,0,1,1.12-2,4.79,4.79,0,0,1,3.26-1h.51V13.15l.74,0a6.16,6.16,0,0,0,2.36-.48,7.26,7.26,0,0,0,2-1.14,7.11,7.11,0,0,0,1.11-1.3,5.84,5.84,0,0,0,2.87,1.1,1.35,1.35,0,0,0,.83-.26,1.68,1.68,0,0,0,.53-.85H134A3.59,3.59,0,0,1,133.66,11.67Z"/><path class="cls-2" d="M193,52c.58-.06,1.18.52,1.81,1.71l2.8-2.17a4.06,4.06,0,0,0-2.31-1.95,2.15,2.15,0,0,0-2.08.49,6.35,6.35,0,0,0-1.44,2,2.63,2.63,0,0,0-2.54-2.44l-3.25,4,.45.33c.71-.94,1.27-1.31,1.69-1.1s.59.93.53,2.17v6.74c.22,1.59.91,2.51,2.06,2.76L194,61.34l-.25-.33c-1.13.71-1.71.53-1.72-.53V54C192.1,52.69,192.43,52,193,52Z"/><path class="cls-2" d="M186.08,61a1.05,1.05,0,0,1-1.38-.28,2.35,2.35,0,0,1-.48-1.64v-8a1.69,1.69,0,0,1,.9-1.61l-5.54,0a13.66,13.66,0,0,0-3.85,3.75,9.08,9.08,0,0,0-2,4.33c-.09,1.2.5,2.62,1.76,4.27s2.24,2.52,2.92,2.61l3-2.54a3.94,3.94,0,0,0,2.61,2.65l3.27-4-.55-.38Zm-5-7.76V61q-1.46,1.14-3.59-2t.14-6.91h4Z"/><path class="cls-2" d="M172.42,52.06q-1.71-2.22-3.24-2.07t-4.24,3.35l.3.6q2.14-2,3.92.2a6.53,6.53,0,0,1,1.72,4.2,4.73,4.73,0,0,1-1.42,3.34q-1.18-.29-4.4-7.58l-.3-.55-1.36-2.85a1.12,1.12,0,0,0-1.89.1l-2.64,3-1.46-3.09c-.62-.76-1.25-.75-1.89.05L152.73,54l0,.06.39.29c.79-.94,1.37-1,1.75-.3l4.43,9.14q1.15,2.49,3.22.4L164.67,62l-.36-.6-.78.53q-1,.58-4.4-7.5c.78-.94,1.37-1,1.74-.3l4.75,9.48q1.18,1.87,2.91.06,5-4.95,5.3-7.15A5.78,5.78,0,0,0,172.42,52.06Z"/><path class="cls-2" d="M152.73,54a6.23,6.23,0,0,0-1.61-2.65,6.33,6.33,0,0,0-2.82-1.85,3.15,3.15,0,0,0-2.07.15A13.14,13.14,0,0,0,143.52,52a7.88,7.88,0,0,0-2.2,4.8,6.72,6.72,0,0,0,1.66,5.3q2,2.36,3.5,2.54a3.19,3.19,0,0,0,2.65-.86,15.86,15.86,0,0,0,2.63-3.62A7.84,7.84,0,0,0,153,55.27a6.91,6.91,0,0,0-.24-1.16l0,0Zm-2.67,6.53a2.53,2.53,0,0,1-2.44.82q-1.62-.19-3-2.71a7.28,7.28,0,0,1-1.09-4.33,2.14,2.14,0,0,1,1.85-2.07q1.6-.26,3.31,1.52a6.41,6.41,0,0,1,1.93,3.77A4,4,0,0,1,150.05,60.58Z"/><path class="cls-2" d="M152.71,54.07l0,0,0-.06Z"/><path class="cls-2" d="M137.42,52c.58-.06,1.18.52,1.81,1.71L142,51.5a4.06,4.06,0,0,0-2.31-1.95,2.15,2.15,0,0,0-2.08.49,6.35,6.35,0,0,0-1.44,2,2.63,2.63,0,0,0-2.54-2.44l-3.25,4,.45.33c.71-.94,1.27-1.31,1.69-1.1s.6.93.53,2.17v6.74c.22,1.59.91,2.51,2.06,2.76l3.27-3.19-.25-.33c-1.13.71-1.71.53-1.72-.53V54C136.51,52.69,136.84,52,137.42,52Z"/><path class="cls-2" d="M128.45,52a6.68,6.68,0,0,0-4-.77,6,6,0,0,0,3-5.12q0-3.16-4.33-3.73l-7.38,0L113,46.06l.58.35.91-.84,2.91,0-.7,1.2q.26,14.39-.52,15.09l-1.71,2.23.27.4,8.93,0a36.55,36.55,0,0,0,4.1-4.1q3-2.54,2.7-4.95A4.16,4.16,0,0,0,128.45,52Zm-3.78-4.54a3.3,3.3,0,0,1-1.34,3.68l-3.5-.05,0-5.71Q124.22,45,124.67,47.5Zm2.65,11a3.42,3.42,0,0,1-1.61,2.43h-8.1l2.24-2.39V54.34l3.78,0a4.18,4.18,0,0,1,3.15,1.05A2.92,2.92,0,0,1,127.31,58.48Z"/><path class="cls-2" d="M105.34,49.36l-3.6,3.55.38.53,1.06-1c.65-.06.94.73.86,2.36v5.26a2.43,2.43,0,0,1-2.44,1.24c-1-.1-1.65-1.09-1.84-3l0-6.11q0-2.42-1.94-2.79l-2.06,2,0,0-.29.23-1.44,1.42.33.61,1-1c.67-.33,1,.25,1,1.76v5.33a5.08,5.08,0,0,0,3.84,4.76,14.63,14.63,0,0,0,3.9-3.14V63.4c.17,3.07-.52,4.59-2.06,4.59a5.18,5.18,0,0,1-4.07-2.16l-2.74,3.09q3.92,3.29,7.71.38a10.33,10.33,0,0,0,4.36-6.57V52.15C107.19,50.53,106.49,49.61,105.34,49.36Z"/><path class="cls-2" d="M93.5,49.55a2.15,2.15,0,0,0-2.08.49,6.36,6.36,0,0,0-1.44,2,2.63,2.63,0,0,0-2.54-2.44l-3.25,4,.45.33q1.06-1.41,1.69-1.1c.42.21.6.93.53,2.17v6.74c.22,1.59.91,2.51,2.06,2.76l3.27-3.19L91.94,61c-1.13.71-1.71.53-1.72-.53V54c.07-1.28.4-1.95,1-2s1.18.52,1.81,1.71l2.51-1.95.27-.26A4,4,0,0,0,93.5,49.55Z"/><path class="cls-2" d="M95.78,51.47l-.27.26.29-.23Z"/><path class="cls-2" d="M84.27,61a1.05,1.05,0,0,1-1.38-.28,2.36,2.36,0,0,1-.48-1.64v-8a1.69,1.69,0,0,1,.9-1.61l-5.54,0a13.66,13.66,0,0,0-3.85,3.75,9.09,9.09,0,0,0-2,4.33c-.08,1.2.5,2.62,1.76,4.27s2.24,2.52,2.92,2.61l3-2.54a3.94,3.94,0,0,0,2.61,2.65l3.27-4L85,60.22Zm-5-7.76V61q-1.46,1.14-3.59-2t.14-6.91h4Z"/><path class="cls-2" d="M68.43,59.82V52.38h1.8l2.32-2.44-.17-.46H68.23V45.74a3.16,3.16,0,0,1,1.2-2.2l-.33-.33a6.62,6.62,0,0,0-2.16,1.61,4.82,4.82,0,0,0-1.65,3.05l0,2-.78,0-2.37,3.62.56.38a2.24,2.24,0,0,1,2.66-1.36l0,8.2A4.13,4.13,0,0,0,68,64.66l3.64-3.78-.42-.55Q68.95,62.5,68.43,59.82Z"/><path class="cls-2" d="M61.07,53.13A35.45,35.45,0,0,0,56,50.42q-4.05-1.9-4-3.34c.05-1,.73-1.49,2-1.59a3.56,3.56,0,0,1,3.07,1A1.86,1.86,0,0,1,57,49.18l.42.38,3.18-3.84a5,5,0,0,0-2.16-2.27,4.72,4.72,0,0,0-3.63-.06,6.85,6.85,0,0,0-3.49,2.29,7,7,0,0,0-1.49,3.41,3.59,3.59,0,0,0,1,3.11,17.11,17.11,0,0,0,4.86,3Q59.35,56.85,60,58a1.89,1.89,0,0,1-.18,2.25,2.56,2.56,0,0,1-2.48.91A8.07,8.07,0,0,1,54,59.95a9.23,9.23,0,0,1-2.51-2.12A2.64,2.64,0,0,1,51.4,55l-.23-.28L48.38,58A3.41,3.41,0,0,0,49.16,61a8.69,8.69,0,0,0,2.7,2.6,7.06,7.06,0,0,0,3.34,1,4.93,4.93,0,0,0,3.5-1.4,13.55,13.55,0,0,0,2.77-3.35,6.09,6.09,0,0,0,.87-3.86A3.94,3.94,0,0,0,61.07,53.13Z"/><path class="cls-2" d="M224.68,94.74l-1.47,1.31c-1-.05-1.38-1.4-1.27-4.05l0-11.14q-.05-4.14-1.79-4.64l-6.48,5.32.53,1,1.58-1.16c.93,0,1.29,1.31,1.08,4V96q.31,3.87,3.26,4.38l5.19-5.06Z"/><path class="cls-2" d="M218,74.67l4.93-3.92a4.38,4.38,0,0,0-3.16-4.69l-4.79,4.4Q217.81,71,218,74.67Z"/><path class="cls-2" d="M209.5,91.72q-2.4-5.51-5.54-6.07a8.82,8.82,0,0,0,3.46-3.39,7.59,7.59,0,0,0,.51-5.73L202,80.33q1.11,3.61.17,4.69a10,10,0,0,1-3.54,2.18V71.67q.05-6.63,2.26-8.24l-.76-.45q-6.93,4.5-6.59,11.77V95.42a5.5,5.5,0,0,0,3.3,5l5.84-5-.68-.71q-3.9,3.56-3-5.61a1.77,1.77,0,0,1,2.3,0c.87.56,2.19,2.61,4,6.13s3.3,5.29,4.58,5.29l5.11-5.79-.79-.68Q211.91,97.24,209.5,91.72Z"/><path class="cls-2" d="M184.21,84.52q-4.8-1.11-5.23-2.72c-.29-1.08.22-1.78,1.53-2.08a6.51,6.51,0,0,1,4.17.51q2.21,1,.56,3.3l.42.07,4-4.15a5.66,5.66,0,0,0-2.58-2.51,5.51,5.51,0,0,0-3.63-.4,11.28,11.28,0,0,0-3.68,1.53,12.81,12.81,0,0,0-2.71,2.2,6.05,6.05,0,0,0-1.25,3.35A4.61,4.61,0,0,0,177,87.5c1,1.09,3,2,5.9,2.71s4.71,1.44,5.32,2.14a2.2,2.2,0,0,1,.65,2.07,1.94,1.94,0,0,1-1.13,1.37,5.72,5.72,0,0,1-2.8.07,12.33,12.33,0,0,1-3.76-1.21,8.82,8.82,0,0,1-2.75-2,2,2,0,0,1,0-2.55l-.31-.42-3.56,3.53q-.47,1.36.94,3.25a9.41,9.41,0,0,0,3.35,2.84,10.83,10.83,0,0,0,4.31,1.08,5.32,5.32,0,0,0,3.94-1.24,18.18,18.18,0,0,0,3.21-4,8.14,8.14,0,0,0,1.58-4.46,5.61,5.61,0,0,0-1.46-3.45Q189,85.63,184.21,84.52Z"/><path class="cls-2" d="M166.53,77.33q-2.44.24-6.73,5.32l.48.94q3.4-3.18,6.21.32t2.73,6.66A7.51,7.51,0,0,1,167,95.87q-1.87-.46-7-12l-.48-.87-2.16-4.53q-1.54-1.58-3,.16l-4.19,4.74-2.32-4.9c-1-1.21-2-1.19-3,.08l-4.41,5.25,0,.09.62.45c1.25-1.49,2.17-1.65,2.77-.48l7,14.51q1.82,3.95,5.11.63l3.4-2.66-.57-.94-1.24.84q-1.52.92-7-11.9c1.24-1.49,2.17-1.65,2.76-.48l7.53,15q1.87,3,4.61.1,7.9-7.85,8.4-11.34a9.18,9.18,0,0,0-2.22-7C169.87,78.26,168.15,77.18,166.53,77.33Z"/><path class="cls-2" d="M140.43,83.77a9.89,9.89,0,0,0-2.55-4.21,10.05,10.05,0,0,0-4.48-2.94,5,5,0,0,0-3.28.23,20.8,20.8,0,0,0-4.3,3.62,12.51,12.51,0,0,0-3.49,7.61,10.67,10.67,0,0,0,2.63,8.4q3.18,3.75,5.55,4a5.07,5.07,0,0,0,4.21-1.37,25.2,25.2,0,0,0,4.17-5.74,12.43,12.43,0,0,0,1.93-7.71,10.9,10.9,0,0,0-.37-1.85l-.07,0Zm-4.24,10.36a4,4,0,0,1-3.86,1.3q-2.58-.3-4.7-4.31c-1.43-2.67-2-5-1.73-6.87A3.4,3.4,0,0,1,128.83,81q2.53-.41,5.26,2.41a10.16,10.16,0,0,1,3.06,6A6.27,6.27,0,0,1,136.19,94.13Z"/><path class="cls-2" d="M140.4,83.81l.07,0,0-.09Z"/><path class="cls-2" d="M106.66,93.36l12.56-15.59-.44-.68H105.67l-4.24,6.55.45.45c1.18-1.65,3.13-2.4,5.87-2.26H114Q102.35,96,100.5,99.79l.53.48q1.58-1.58,7.61-.3t8.05-.28q2-1.55,4.76-7.21l-.74-.4Q118.56,96.42,106.66,93.36Z"/><path class="cls-2" d="M92.66,84.52q-4.8-1.11-5.23-2.72c-.29-1.08.22-1.78,1.53-2.08a6.52,6.52,0,0,1,4.17.51q2.21,1,.56,3.3l.42.07,4-4.15a5.66,5.66,0,0,0-2.58-2.51,5.51,5.51,0,0,0-3.63-.4,11.29,11.29,0,0,0-3.69,1.53,12.88,12.88,0,0,0-2.71,2.2,6.06,6.06,0,0,0-1.25,3.35,4.61,4.61,0,0,0,1.22,3.88c1,1.09,3,2,5.9,2.71s4.71,1.44,5.32,2.14a2.2,2.2,0,0,1,.65,2.07,1.94,1.94,0,0,1-1.13,1.37,5.72,5.72,0,0,1-2.8.07,12.32,12.32,0,0,1-3.76-1.21,8.81,8.81,0,0,1-2.75-2,2,2,0,0,1,0-2.55l-.31-.42L83,93.18q-.47,1.36.94,3.25a9.42,9.42,0,0,0,3.35,2.84,10.83,10.83,0,0,0,4.31,1.08,5.31,5.31,0,0,0,3.94-1.24,18.18,18.18,0,0,0,3.21-4,8.14,8.14,0,0,0,1.58-4.46,5.6,5.6,0,0,0-1.46-3.45Q97.45,85.63,92.66,84.52Z"/><path class="cls-2" d="M82.21,91.76a19,19,0,0,1-4.06,3.66q-2.49.53-5.07-3.36a17.3,17.3,0,0,1-3-7.31q-.41-3.42,1.74-3.95a2.87,2.87,0,0,1,3.24.91,3,3,0,0,1,.63,2.87,5.76,5.76,0,0,1-2.33,2.78l-1.92,1.48.76,1.1,6.62-5.28L81,82.78q.45-3.59-1.5-5a6.14,6.14,0,0,0-4.35-1.19,13.59,13.59,0,0,0-4.9,3.82q-6.11,5.85-4.34,10.76a19.22,19.22,0,0,0,4.67,7.65q2.91,2.74,5.15.85a35.4,35.4,0,0,0,7.14-7.33Z"/><path class="cls-2" d="M50.32,93.36,62.87,77.78l-.44-.68H49.32l-4.24,6.55.45.45c1.18-1.65,3.13-2.4,5.87-2.26h6.26q-7.51,9.11-10.95,13.93l.06.05-.21.17a30.29,30.29,0,0,0-2.4,3.81l.53.48q1.58-1.58,7.61-.3t8.05-.28q2-1.55,4.76-7.21l-.74-.4Q62.22,96.42,50.32,93.36Z"/><path class="cls-2" d="M46.11,95.18c-1,1-1.73,1.16-2.35.58A12.76,12.76,0,0,1,41.24,92c-.62-1.38-1.28-2.89-2-4.52a12,12,0,0,0-2.78-4.05,5,5,0,0,0-4.39-1.22,8.78,8.78,0,0,0,6-3.68q2.06-3,.8-7.34a6.44,6.44,0,0,0-5.72-5L30.34,66l-9,.05-4.58,7,.9.37a2.93,2.93,0,0,1,2.69-1.9l4.82,0a7.82,7.82,0,0,0-4.22,4.71l0,14.88,0,3.22a14,14,0,0,1-4,6.06l.29.78q2.21-1,9.29-.86l4.34-5-.63-.48c-.86.62-3.28.84-7.26.69a10.15,10.15,0,0,0,3.44-5.85l0-6.24a6,6,0,0,1,3.44.74A6.88,6.88,0,0,1,32,86.53a26.29,26.29,0,0,1,1.75,3.82,44.78,44.78,0,0,0,2.5,5.36,15.7,15.7,0,0,0,4.22,5.11L46.55,96l.16-.22ZM26.35,81.6l.13-10.16-.23,0,.23-.08v.06c2.44-.22,4.26,0,5.45.76a4.72,4.72,0,0,1,2.14,3.7,5.74,5.74,0,0,1-.87,4.14Q32,81.66,26.35,81.6Z"/><path class="cls-2" d="M46.71,95.76l-.16.22.21-.17Z"/><path class="cls-2" d="M26.26,71.46l.23,0v-.06Z"/><polygon class="cls-1" points="7.46 50 31.91 50 34.35 52.1 9.9 52.1 7.46 50"/><polygon class="cls-1" points="234.53 50 210.09 50 207.65 52.1 232.1 52.1 234.53 50"/></svg>