<svg id="Warstwa_1" data-name="Warstwa 1" xmlns="http://www.w3.org/2000/svg" viewBox="0 0 70 63.78"><title>SBR_calendar0</title><path d="M63.58,26.07c-.15-.38.14-.56.31-.74.47-.49,1-.93,1.47-1.41.31-.3.59-.62.9-.92s.72-.63,1.08-1a2,2,0,0,0,.17-.15c.17-.18.3-.11.42.05s.08.26-.07.4c-.37.32-.71.68-1.06,1l-1,1c-.29.3-.57.63-.87.92a2.7,2.7,0,0,1-1.08.71A2.32,2.32,0,0,1,63.58,26.07Z"/><path d="M60,6.86,61.12,7c.45,0,.91.11,1.36.12s.88,0,1.33,0a6.88,6.88,0,0,1,.72.07c.17,0,.33,0,.5,0H66.1c.2,0,.39,0,.59,0l1.38.13c.31,0,.62.07.92.13a.74.74,0,0,1,.45.61.75.75,0,0,0,.16.43,1.92,1.92,0,0,1,.33.94c.06,1.19.07,2.37.07,3.56s0,2.41-.06,3.61,0,2.36-.07,3.54c0,.76,0,1.52-.06,2.27,0,2.11,0,4.22-.06,6.34,0,1,0,1.94-.07,2.9,0,.76,0,1.52-.07,2.27-.11,1.06-.09,2.12-.12,3.19,0,.83-.07,1.65-.13,2.48,0,.59-.12,1.17-.18,1.76,0,0,0,.08,0,.12,0,.53,0,1.06-.07,1.59a15.85,15.85,0,0,0-.19,2.05,4.41,4.41,0,0,1-.13,1.11c-.15.65-.14,1.31-.24,2s-.2,1.34-.31,2c-.08.49-.15,1-.25,1.45-.22,1-.45,2.06-.68,3.08-.12.55-.26,1.09-.37,1.63s-.16,1-.26,1.46-.21.69-.31,1-.16.64-.25,1-.18.44-.25.66q-.23.75-.43,1.5c0,.11,0,.23,0,.34a.94.94,0,0,1-.88.68,1.78,1.78,0,0,1-.41,0c-.72-.18-1.46,0-2.17-.15-.45-.07-.9,0-1.34-.1s-1.1-.19-1.65-.23a6.63,6.63,0,0,0-1.05.07l-.21,0c-1.32.08-2.64.14-4,.14a18.12,18.12,0,0,0-2,.23h-.22l-2,.12-1.06.07c-.83,0-1.68,0-2.5.14-.54.06-1.07.07-1.6.12-1.3.14-2.62,0-3.92.13-3,.22-5.93.07-8.89.1s-6,0-8.93,0c-.87,0-1.74,0-2.61.06-1.89,0-3.78.06-5.68.06-.7,0-1.39-.07-2.09-.12s-1.13-.11-1.69-.19-1.13-.18-1.68-.31a1.85,1.85,0,0,1-1.1-.71,4.73,4.73,0,0,1-.35-.79,2.73,2.73,0,0,1-.18-1.37c0-.53.12-1.05.18-1.58v0q.07-.84.13-1.67c0-.15,0-.3,0-.5L7,56.46l-1.14-.16a1.8,1.8,0,0,0-.23,0,8.06,8.06,0,0,1-2-.24c-.25-.06-.53,0-.79-.08s-.79-.15-1.19-.24-.84-.17-1.25-.28a.48.48,0,0,1-.25-.23c-.11-.21-.28-.36-.14-.68a4,4,0,0,1,.63-.89c.41-.49.86-.95,1.3-1.42.29-.31.62-.6.89-.92a7,7,0,0,0,.76-1c.33-.56.61-1.14.9-1.72A7.16,7.16,0,0,0,5,47.41c.12-.41.32-.8.47-1.21.05-.15.06-.31.11-.46.13-.38.28-.75.4-1.14s.26-.85.38-1.27q.32-1.13.63-2.26c.17-.63.33-1.27.51-1.9s.45-1.51.66-2.27c.06-.22.09-.45.14-.67.12-.48.25-.95.37-1.42s.14-.68.2-1,.14-.91.26-1.35c.19-.73.26-1.48.41-2.21a10.32,10.32,0,0,0,.08-1.06c.05-.52.12-1,.18-1.57,0-.29,0-.57.08-.86.06-.6.12-1.21.18-1.81,0-.1,0-.21,0-.32,0-.68,0-1.35.07-2a7.27,7.27,0,0,1,.07-1.11,17.27,17.27,0,0,0,.12-2.77c0-1,0-2,.13-2.92s.12-2.19.12-3.28c0-.47,0-.93.06-1.4,0-.64,0-1.27.07-1.91a4.39,4.39,0,0,1,.15-.59c0-.05,0-.16-.06-.17-.2-.08-.2-.24-.18-.39A.45.45,0,0,1,11,7.65c.53-.06,1.08,0,1.6-.14a16.1,16.1,0,0,1,2.65-.12l.88,0s.1-.08.12-.14a13.36,13.36,0,0,1,.29-1.32,13.74,13.74,0,0,1,.71-1.73,5,5,0,0,1,1.1-1.49c.37-.34.71-.71,1.11-1A9.77,9.77,0,0,1,20.85.84a5.49,5.49,0,0,1,.91-.28c.29-.09.58-.2.88-.27A8.78,8.78,0,0,1,23.7.13,10.3,10.3,0,0,1,24.92.07a7.85,7.85,0,0,1,3.25.8c.35.2.64.51,1,.71a2.9,2.9,0,0,1,.86.88,4.15,4.15,0,0,1,.76,1.39c0,.12.09.23.12.35a6.86,6.86,0,0,1,.3,1.18,12.5,12.5,0,0,1,0,1.54c0,.12,0,.21.16.16a.53.53,0,0,1,.15,0L37.21,7c.31,0,.62,0,.93,0,.13,0,.26,0,.4,0h.58l5.75-.07c.33,0,.65-.05,1-.09a12.06,12.06,0,0,1,.34-1.34,7,7,0,0,1,.9-1.79c.21-.28.39-.6.61-.88a4.81,4.81,0,0,1,.61-.62c.27-.23.55-.44.84-.66a4.82,4.82,0,0,1,1.4-.77,6.38,6.38,0,0,0,.69-.27A6.35,6.35,0,0,1,53.33.07,4.14,4.14,0,0,1,54.12,0c.46,0,.92.15,1.38.23a2.73,2.73,0,0,1,.63.14,13.93,13.93,0,0,1,1.3.66,3.78,3.78,0,0,1,.81.6,8.1,8.1,0,0,1,.75,1,3.16,3.16,0,0,1,.38.65c.16.41.29.83.42,1.25a2.31,2.31,0,0,1,.12.53c0,.51,0,1,.07,1.52C60,6.65,60,6.76,60,6.86ZM28.39,2.93c.19.11.19.25,0,.4l-.7.71-1,1.07c.29.33.29.45.64.1l.08-.06,1.15-1c.18-.15.37-.29.59-.46-.19-.24-.41-.5-.63-.75,0,0-.11,0-.17,0s0-.17-.06-.21a4.83,4.83,0,0,0-.75-.52c-.34-.17-.72-.28-1.08-.42a6.42,6.42,0,0,0-1.81-.27,5.61,5.61,0,0,0-1.36.12A7.55,7.55,0,0,0,21.93,2a10,10,0,0,0-1.28.66,5.19,5.19,0,0,0-1.78,1.68,7.56,7.56,0,0,0-.71,1.29,7.73,7.73,0,0,0-.34,1.22,4.84,4.84,0,0,0-.18,1,9.3,9.3,0,0,0,.18,2.71,7.72,7.72,0,0,0,.35,1.17,8.84,8.84,0,0,0,.68,1.14A3.23,3.23,0,0,0,20.36,14a5.3,5.3,0,0,0,2,.37c.55,0,1.09,0,1.64-.05l.09,0a7.08,7.08,0,0,0,1.59-.56,2.32,2.32,0,0,0,.88-.72c.17-.26.14-.71-.11-.81a2.8,2.8,0,0,0-1.05-.34,8.22,8.22,0,0,1-.91-.07c-.36,0-.72-.1-1.08-.18a5.11,5.11,0,0,1-1.09-.29,3,3,0,0,1-1.37-1.38,3.18,3.18,0,0,1-.41-1.6c0-.38,0-.76,0-1.14a1.53,1.53,0,0,1,.07-.47,10.79,10.79,0,0,1,.51-1.27,6.28,6.28,0,0,1,.6-.83l-.21-.31a4,4,0,0,1,1.14-1.5c.18.11.28.2.11.4a6.47,6.47,0,0,0-.48.66,4.49,4.49,0,0,0-.22.41l.06.06A2.77,2.77,0,0,0,22.69,4c.4-.44.76-.91,1.15-1.36a.19.19,0,0,1,.33,0,.42.42,0,0,1,0,.36c-.21.3-.46.57-.71.87.29.05.5,0,.63-.26a1.33,1.33,0,0,1,.32-.33c.25-.23.5-.44.74-.68a.28.28,0,0,1,.43.35c-.27.29-.56.57-.83.86a1.08,1.08,0,0,0-.13.22l.06.06c.15,0,.35,0,.45-.08.47-.4.9-.84,1.37-1.24a.44.44,0,0,1,.41,0c.16.1.12.28,0,.41L25.62,4.4l.48.26,1.14-1c.08-.07.19-.11.27-.18s.45-.39.68-.58C28.23,2.85,28.33,2.91,28.39,2.93Zm40,7.31-1.33,1.21c-.22.2-.42.42-.64.62l-1,.91c-.28.25-.54.52-.84.74s-.7.48-1.06.7c-.07,0-.19,0-.28,0s0-.19,0-.25c.2-.24.41-.47.63-.69s.52-.48.78-.73.23-.24.36-.35.52-.42.78-.63c.45-.39.88-.79,1.34-1.17s.74-.58,1.11-.86a.32.32,0,0,0,0-.47,1.13,1.13,0,0,1-.14-.38c0-.15-.07-.25-.25-.25s-.51,0-.77,0a.3.3,0,0,0-.18.07c-.44.35-.88.69-1.3,1.06-.64.55-1.25,1.13-1.89,1.68s-1.14.94-1.72,1.4a1,1,0,0,1-.46.16.17.17,0,0,1-.14-.27q.49-.56,1-1.1c.19-.21.4-.4.61-.6s.45-.45.69-.65.58-.45.87-.68.31-.27.47-.39l.9-.68V8.53h-.52a3,3,0,0,1-.59-.07,1.27,1.27,0,0,0-1.05.29c-.23.14-.42.34-.64.5s-.43.3-.64.46-.23.21-.35.32a7.82,7.82,0,0,1-.77.66c-.26.18-.45.45-.77.56-.17.06-.25.32-.41.44a1.48,1.48,0,0,1-.47.14,2.53,2.53,0,0,1-.06-.37c0-.32.26-.47.44-.67a2.35,2.35,0,0,1,.34-.33l1.18-.89c.12-.09.21-.21.33-.29l.73-.52c.13-.1.25-.21.38-.31a15.53,15.53,0,0,0-1.83,0,1.46,1.46,0,0,0-.86.3q-.93.74-1.84,1.52c-.44.38-.87.77-1.32,1.18a3.19,3.19,0,0,1,.3.51,1.6,1.6,0,0,1-.05,1.47,6.3,6.3,0,0,1-.41.74,2.5,2.5,0,0,1-.69.59,8,8,0,0,1-1.43.66,6.91,6.91,0,0,1-1.81.38,6.84,6.84,0,0,1-2.35-.1c-.37-.12-.77-.16-1.15-.27a5.17,5.17,0,0,1-2-1.2,5.44,5.44,0,0,1-1-1.4,5.73,5.73,0,0,1-.38-.88,10.61,10.61,0,0,1-.33-1.06c-.08-.31-.11-.64-.17-1a.25.25,0,0,0-.08,0,6.43,6.43,0,0,0-.6.49c-.39.4-.78.81-1.15,1.23s-.51.63-.78.93a.31.31,0,0,1-.26.06s-.09-.13-.09-.2a1.13,1.13,0,0,1,0-.35,3.4,3.4,0,0,1,.92-1.35A17.21,17.21,0,0,1,45,9.54a6.93,6.93,0,0,1,.68-.47,1.78,1.78,0,0,0,0-.36c0-.07-.1-.17-.15-.17-.23,0-.47,0-.7,0H43.71a1,1,0,0,1-.14.33c-.3.32-.61.63-.92.94a16.43,16.43,0,0,0-1.78,2.38,1.35,1.35,0,0,1-.36.33c-.14.1-.29.07-.34-.12a.63.63,0,0,1,0-.35,3.21,3.21,0,0,1,.39-.8c.37-.48.77-.92,1.17-1.37s.74-.78,1.1-1.17l.12-.15h-2.2a.38.38,0,0,0-.21.13c-.43.45-.87.9-1.29,1.35a6.14,6.14,0,0,0-1,1.39c-.14.28-.31.55-.47.82s-.36.16-.42,0a1,1,0,0,1,0-.92,7.53,7.53,0,0,1,.63-.91q.45-.57.93-1.1c.22-.23.47-.44.7-.65l-.05-.07h-2.5l-.28.4-.75,1c-.18.24-.34.48-.51.73s-.48.71-.73,1.06a9.55,9.55,0,0,1-.61.77.32.32,0,0,1-.28,0,.26.26,0,0,1-.1-.23,2.89,2.89,0,0,1,.25-.78,10.36,10.36,0,0,1,.72-1l1-1.34.52-.66H34.4a.28.28,0,0,0-.17.09c-.23.24-.47.47-.67.73a14.51,14.51,0,0,0-.9,1.18c-.23.35-.39.74-.6,1.11a2.86,2.86,0,0,1-.37.54.41.41,0,0,1-.32.1c-.05,0-.12-.16-.12-.25a2.07,2.07,0,0,1,.34-1.1c.39-.58.82-1.13,1.24-1.69.17-.23.36-.44.55-.67H30.77a1,1,0,0,1-.1.26c-.3.37-.62.73-.91,1.11a8.37,8.37,0,0,0-.59.91c-.21.37-.38.76-.6,1.13,0,.06-.19.08-.28.07a.23.23,0,0,1-.12-.19,3.09,3.09,0,0,1,.12-.67,2.93,2.93,0,0,1,.32-.69c.25-.38.52-.73.8-1.09s.44-.53.67-.81l-.08,0-1.79.07A.27.27,0,0,0,28,8.8a5.63,5.63,0,0,0-.58.65c-.28.41-.53.84-.75,1.2a11.25,11.25,0,0,1,.93.83,1.69,1.69,0,0,1,.45,1,2.2,2.2,0,0,1-.43,1.38,3.47,3.47,0,0,1-1.41,1.16,7.32,7.32,0,0,1-1.44.5,4.64,4.64,0,0,1-1.24.2,8.83,8.83,0,0,1-2.45-.11,13.39,13.39,0,0,1-1.48-.39,3.64,3.64,0,0,1-1.08-.66,6.79,6.79,0,0,1-1-1.11,7.2,7.2,0,0,1-.92-1.82c-.14-.41-.24-.83-.37-1.31l-.56.83c-.18.26-.36.53-.56.79a.27.27,0,0,1-.25.06c-.06,0-.1-.14-.12-.22a.35.35,0,0,1,0-.19A3.83,3.83,0,0,1,15.83,10c.23-.22.45-.44.36-.79,0-.12-.07-.3-.15-.32a.48.48,0,0,0-.4.06c-.31.27-.6.56-.9.85s-.45.47-.68.7-.38.3-.53.48c-.28.33-.53.7-.81,1a.34.34,0,0,1-.24.1.22.22,0,0,1-.17-.14,1,1,0,0,1,.18-.84C13,10.58,13.6,10,14.17,9.51c.23-.22.46-.42.73-.66a4.45,4.45,0,0,1-.5,0,6.67,6.67,0,0,0-.67,0,.67.67,0,0,0-.41.18c-.47.51-.91,1-1.36,1.57a2.2,2.2,0,0,1-.21.21c-.17.15-.06.34-.07.51q0,3.19-.06,6.38c0,.77-.05,1.55-.06,2.32,0,1,0,2.08-.11,3.12s-.1,2.24-.15,3.35c0,.22,0,.43-.06.64l-.18,1.72c0,.2,0,.4-.06.6s-.1.41-.13.61c-.09.75-.16,1.5-.26,2.25,0,.32-.12.64-.19,1l-.18.88c-.08.37-.14.75-.23,1.12s-.15.48-.21.72-.07.54-.14.8c-.11.42-.25.83-.36,1.25s-.2,1-.33,1.43-.33,1.12-.5,1.68c-.07.25-.12.51-.19.76S8,42.64,7.93,43s-.19.76-.31,1.14-.34,1-.5,1.48c-.1.32-.18.65-.27,1,0,.16-.1.32-.15.47-.13.34-.27.67-.39,1s-.2.63-.32.94-.31.68-.48,1a10.09,10.09,0,0,1-.58,1.06,9.63,9.63,0,0,1-.75.92c-.29.34-.59.67-.9,1s-.59.58-.88.88c-.12.12-.21.26-.34.43.3,0,.53.05.76.09.39.07.77.19,1.17.23a13.6,13.6,0,0,1,1.72.25A12.72,12.72,0,0,0,7,55c.39,0,.78.16,1.18.17s.78.25,1.2.09a.31.31,0,0,1,.17,0,3.58,3.58,0,0,0,1.18.18,2,2,0,0,1,.26,0,7.31,7.31,0,0,1,.9.19c.61.1,1.24.1,1.87.15l1.28.13.47.07c.39.06.78.13,1.18.17s.93,0,1.39.13c.67.14,1.34.16,2,.24l.74.08,1.77.23,1.31.13.47.06.76.07,1.35.18.74.08c.39.05.77.12,1.16.16.56.06,1.12.08,1.67.14s.92.12,1.37.17l.84.08,1.42.18.74.08c.39.05.79.12,1.18.17s.66,0,1,.06a2.06,2.06,0,0,1,.66.07c.46.21,1,0,1.42.16a7.36,7.36,0,0,0,.86.09c.39,0,.79.12,1.18.17s1,.09,1.48.14l1.64.18a7,7,0,0,1,.79.07.5.5,0,0,0,.39-.07c.14-.07.42-.08.5,0a.8.8,0,0,0,.58.23c.27,0,.54,0,.81.07l2.06.25.76.07,1.64.18.79.07,1.64.18a4.38,4.38,0,0,1,.86.08,12.27,12.27,0,0,0,1.64.17c.27,0,.54,0,.81.07l1.57.18.69.07,1.37.18.17,0c.43.06.87.12,1.3.17.12,0,.25-.06.38,0,.36,0,.72.07,1.07.12.15,0,.2,0,.25-.16.11-.44.29-.85.44-1.28.05-.16.07-.33.12-.48s.21-.49.29-.74,0-.29.07-.42a17.38,17.38,0,0,0,.57-2.37,4.94,4.94,0,0,1,.13-.58c.08-.28.16-.56.24-.84a8.22,8.22,0,0,0-.75.64l-1.16,1c-.15.13-.28.28-.42.42-.41.39-.82.78-1.22,1.18l-1.92,1.95c-.29.29-.38.28-.67,0a7.62,7.62,0,0,1,.46-.72c.31-.39.65-.77,1-1.14s.61-.65.93-1,.64-.59,1-.88l1.5-1.33c.09-.08.16-.17.25-.25.3-.25.61-.47.89-.73s.5-.38.55-.72c0-.17,0-.35.08-.52s.15-.6.22-.9.08-.47.11-.71,0-.33,0-.53l-.52.49-.82.81-.64.64c-.4.41-.78.84-1.18,1.24s-.67.61-1,.9-.88.76-1.33,1.13a.7.7,0,0,1-.25.07c0-.37,0-.37.17-.58s.59-.68.88-1,.71-.83,1.09-1.22.89-.9,1.35-1.34,1.15-1,1.71-1.57c.33-.31.81-.5.84-1.07,0-.32.09-.63.13-.94,0-.1,0-.21,0-.31.07-.45.15-.9.22-1.35a1.86,1.86,0,0,0-.38.3l-1.5,1.26-.93.81-.73.66c-.19.18-.37.38-.56.56l-1.56,1.42c-.23.21-.46.41-.71.59a.25.25,0,0,1-.24,0,.27.27,0,0,1,0-.24,1.39,1.39,0,0,1,.23-.35c.41-.47.82-.94,1.26-1.39s.84-.82,1.27-1.21.88-.76,1.32-1.13l.81-.67c.42-.34.86-.66,1.28-1,.2-.16.47-.34.52-.56a14,14,0,0,0,.21-1.73c0-.37,0-.75.08-1.19l-.25.26c-.29.29-.59.58-.87.88s-.4.49-.61.72-.65.67-1,1-.89,1-1.35,1.44-1,.94-1.44,1.4a8.87,8.87,0,0,1-.69.61c-.08.06-.21,0-.32.07a.89.89,0,0,1,0-.34,3.27,3.27,0,0,1,.37-.46l.67-.75c.38-.43.75-.88,1.14-1.3s.64-.65,1-1,.54-.59.82-.88l1.13-1.13c.32-.32.66-.62,1-.94s.49-.38.5-.75.06-.86.09-1.29l-.05,0-.55.5c-.38.35-.76.69-1.13,1.05-.62.62-1.21,1.28-1.84,1.9s-1.22,1.1-1.83,1.64a2.5,2.5,0,0,1-.48.32.26.26,0,0,1-.23-.05s0-.14,0-.21a.59.59,0,0,1,.12-.23l.84-.93c.3-.32.59-.64.91-.95s.86-.79,1.28-1.19.87-.85,1.32-1.25.87-.74,1.29-1.11c.14-.12.34-.25.36-.41a10,10,0,0,0,.08-1.15c0-.21.05-.41.06-.62a2.8,2.8,0,0,0,0-.38c-.14.2-.23.34-.34.47a4.85,4.85,0,0,1-.64.77c-.17.14-.28.33-.44.47s-.44.44-.66.66l-.44.46c-.31.34-.61.68-.93,1s-.71.7-1.09,1-.83.66-1.26,1c-.07,0-.21,0-.31,0a.25.25,0,0,1,0-.2c.31-.37.63-.73,1-1.09s.49-.46.73-.7l1.29-1.33L66.3,37.7c.22-.21.47-.39.67-.62s.61-.72.89-1.09a1.06,1.06,0,0,0,.25-.51c0-.49,0-1,0-1.5a1.58,1.58,0,0,0-.23.13l-.66.58c-.26.22-.53.44-.78.67-.4.38-.8.77-1.19,1.16-.22.22-.43.44-.64.67s-.4.49-.61.72-.59.62-.9.93-.82.81-1.24,1.2c-.11.1-.28.17-.4,0a.36.36,0,0,1,0-.32A8.12,8.12,0,0,1,62,39a8.07,8.07,0,0,0,.66-.79,5.64,5.64,0,0,1,.79-.9c.28-.31.58-.61.87-.91s.47-.54.73-.79.77-.68,1.15-1c.21-.2.4-.42.62-.61s.62-.49.92-.75c.13-.11.31-.26.32-.4,0-.57,0-1.14,0-1.78l-.56.51c-.06.05-.1.12-.16.18-.48.46-1,.91-1.43,1.37s-.68.73-1,1.09L64.1,35l-1.24,1.24c-.3-.22-.32-.27-.09-.59.37-.51.76-1,1.16-1.48a9.1,9.1,0,0,1,.84-.94,5.33,5.33,0,0,1,.94-.87,4.14,4.14,0,0,0,.79-.72c.21-.21.4-.46.62-.65s.65-.5,1-.76a.44.44,0,0,0,.16-.28c0-.77,0-1.54,0-2.31a.87.87,0,0,0,0-.17l-.84.94-1.51,1.64c-.23.26-.45.53-.68.79a4.7,4.7,0,0,1-.37.39l-1,.86a6.7,6.7,0,0,1-.63.49.32.32,0,0,1-.28,0,.24.24,0,0,1,0-.23,7.8,7.8,0,0,1,.53-.82,7.56,7.56,0,0,1,.6-.66c.31-.32.63-.64,1-.95s.49-.42.72-.64.49-.5.74-.75l.63-.62c.24-.24.47-.49.73-.71s.6-.52.54-1a5.47,5.47,0,0,1,0-.92c0-.26,0-.52.08-.8-.11,0-.19,0-.23,0-.27.23-.54.45-.78.7q-1.13,1.17-2.24,2.36c-.42.45-.81.93-1.21,1.39l-.61.67a7.46,7.46,0,0,1-.62.66c-.2.17-.32.53-.75.34a1.21,1.21,0,0,1,.09-.32,11.17,11.17,0,0,1,.75-1.15c.49-.62,1-1.21,1.54-1.8.31-.36.64-.71,1-1.06s.58-.62.88-.91.5-.47.75-.69.44-.33.64-.52.42-.48.79-.23V19.06a1,1,0,0,0-.2.12c-.32.33-.63.68-1,1s-.84.81-1.27,1.21-1,1-1.55,1.41a.73.73,0,0,1-.42.12.17.17,0,0,1-.13-.28c.38-.43.74-.88,1.15-1.28s.75-.67,1.13-1l1.13-1c.13-.12.21-.28.35-.37s.37-.55.79-.38V16.07l-.58.65-1.26,1.39c-.31.34-.62.69-1,1s-.8.7-1.21,1c-.06,0-.17,0-.26,0s0-.22,0-.28a7.32,7.32,0,0,1,.59-.79c.5-.57,1-1.13,1.54-1.68s1.07-1.09,1.63-1.61.58-.52.58-1.32V13.1c-.21.21-.41.42-.63.63s-.66.59-1,.9-.63.63-1,.94-.76.69-1.15,1-.51.45-.78.65c0,0-.18,0-.25,0s0-.15,0-.2a7.19,7.19,0,0,1,.55-.76c.36-.41.74-.81,1.13-1.2s.74-.72,1.13-1.07l1.8-1.59a.42.42,0,0,0,.16-.25c0-.62,0-1.25-.06-1.87C68.42,10.26,68.41,10.24,68.39,10.23ZM55.94,4.82l.17.18c.11.13.18.18.36,0,.42-.35.89-.65,1.34-1A.35.35,0,0,0,58,3.53a3,3,0,0,0-.31-.43,3.48,3.48,0,0,0-.6-.64,4.56,4.56,0,0,0-1.58-.76,5,5,0,0,0-1.84-.15,4.86,4.86,0,0,0-1.49.25,6.07,6.07,0,0,1-.78.25,2.49,2.49,0,0,0-.3.13,6.56,6.56,0,0,0-.74.37,8.37,8.37,0,0,0-.94.7,8,8,0,0,0-.84.86c-.15.18-.23.44-.37.63a4.77,4.77,0,0,0-.58,1.29,2.6,2.6,0,0,0-.12.33,7,7,0,0,1-.14.82,7.6,7.6,0,0,0-.17,1.54c0,.15.06.3.05.45a6.33,6.33,0,0,0,.41,2.14,2.1,2.1,0,0,0,.17.44c.23.38.47.76.72,1.14a2.83,2.83,0,0,0,1,.87,5.06,5.06,0,0,0,2.44.56c.51,0,1,0,1.52-.05l.12,0a9.89,9.89,0,0,0,1.3-.43A5.07,5.07,0,0,0,56,13.1a.5.5,0,0,0,0-.77,1.74,1.74,0,0,0-.74-.41c-.77-.14-1.54-.24-2.32-.32a3,3,0,0,1-1.88-.87,4.68,4.68,0,0,1-.47-.64,2.89,2.89,0,0,1-.53-1.67c0-.1,0-.2,0-.3s-.15-.47,0-.69c0,0,0,0,0,0,0-.31.07-.62.14-.92a3.28,3.28,0,0,1,.29-.82c.19-.34.44-.66.66-1-.19-.18-.2-.19,0-.39A8.58,8.58,0,0,1,53,2.44a2,2,0,0,1,.31-.15l.06.06c0,.1,0,.24-.08.31-.28.31-.59.59-.87.89s-.31.35-.5.57a1.19,1.19,0,0,0,.95-.45,2.45,2.45,0,0,1,.38-.34l1-.73c.12-.09.24-.14.36,0a.24.24,0,0,1-.06.36l-1,.86a.45.45,0,0,0,.66-.05,3.85,3.85,0,0,1,.47-.42c.38-.29.76-.58,1.16-.83a.49.49,0,0,1,.42,0c.14.07.08.25,0,.36S56.07,3,56,3L54.67,4.17l.61.28L55.81,4l1.1-.88a.25.25,0,0,1,.38.1.33.33,0,0,1,0,.31c-.28.27-.58.52-.87.78S56.1,4.65,55.94,4.82Zm-29.81,54c-.48-.07-.94-.14-1.41-.2a.26.26,0,0,0-.2.12c-.27.49-.51,1-.79,1.48A13,13,0,0,1,23,61.41c0,.07-.23.12-.27.09a.37.37,0,0,1-.14-.3,6.16,6.16,0,0,1,.37-.84,3.75,3.75,0,0,1,.29-.41c.17-.25.35-.49.51-.74s.21-.37.33-.57c-.44-.08-.85-.16-1.26-.22-.19,0-.37,0-.44.24a2.32,2.32,0,0,1-.28.55c-.14.26-.29.51-.42.77-.26.49-.52,1-.77,1.48-.12.24-.23.49-.35.77l3.75-.08A18.7,18.7,0,0,1,26.13,58.85ZM9.3,62c.13-.36.23-.67.36-1s.26-.49.38-.74.31-.67.48-1,.39-.77.6-1.14a5.64,5.64,0,0,1,.39-.59.5.5,0,0,1,.19-.14c.17-.08.25.09.35.16a.2.2,0,0,1,0,.19c-.17.31-.36.61-.52.93-.25.49-.48,1-.72,1.49s-.42.93-.63,1.39c-.07.16-.13.32-.19.48l.85.09c.18,0,.37.05.43-.21a2.62,2.62,0,0,1,.2-.62c.21-.41.45-.8.66-1.21s.46-.95.71-1.41.45-.82.68-1.22a1.77,1.77,0,0,0,.08-.2l-3.09-.41-.17.42c-.21.52-.42,1-.63,1.55s-.33.75-.49,1.13-.29.76-.48,1.13-.23.53,0,.69A2,2,0,0,0,9.3,62Zm4.07.33c0-.1.08-.22.13-.33.17-.38.32-.76.51-1.12s.58-1,.87-1.5.51-.88.76-1.33a4.49,4.49,0,0,0,.2-.49l-1.53-.21L12,62.26Zm4.14,0A16.73,16.73,0,0,1,19.58,58l-1.67-.19-1,2.46c-.17.42-.34.85-.51,1.27-.11.27-.23.53-.37.83Zm13.75-2.92-.3,0-.83-.08-.93-.1a.17.17,0,0,0-.13,0,5.36,5.36,0,0,0-.44.58c-.35.57-.69,1.15-1,1.74-.1.18-.19.37-.3.58h2.21c.05,0,.12-.09.15-.15.22-.39.41-.8.64-1.18S30.91,59.91,31.25,59.42Zm-13,2.86c.35,0,.69,0,1,0s.48,0,.5-.36c0-.06.07-.12.11-.18.21-.34.42-.68.62-1s.43-.83.65-1.23.43-.73.69-1.16l-1.46-.17a.23.23,0,0,0-.17.1c-.25.42-.5.84-.72,1.28s-.53,1.07-.78,1.61C18.55,61.49,18.42,61.87,18.26,62.28Zm8-55.05a2,2,0,0,0,0-.39,2.15,2.15,0,0,0-.8-.86A1.62,1.62,0,0,0,25,5.72a4.88,4.88,0,0,0-.95-.3,1.61,1.61,0,0,0-1.12.14,1.92,1.92,0,0,0-.78,1,3.75,3.75,0,0,0-.16.68Zm-9,50.58c-.3-.06-.57-.13-.84-.16-.07,0-.19.11-.23.2-.16.35-.29.73-.46,1.08s-.41.77-.61,1.15-.29.6-.43.9l-.51,1.1-.16.31c.41,0,.76,0,1.1,0,.17,0,.25-.09.24-.23a2.13,2.13,0,0,1,.33-1c.24-.58.52-1.15.79-1.72s.47-.95.71-1.42A2,2,0,0,0,17.33,57.81Zm10.95,1.28c-.13,0-.25,0-.33,0-.33-.19-.68-.09-1-.1a.28.28,0,0,0-.2.12c-.12.19-.2.39-.31.58a12.84,12.84,0,0,0-.74,1.21,6.5,6.5,0,0,1-.59,1.1,1,1,0,0,0-.07.15h1.41ZM55.79,6.85A1.49,1.49,0,0,0,55,6a5.82,5.82,0,0,0-1.37-.56,1.78,1.78,0,0,0-.86,0c-.55.13-.81.59-1,1.06a1.24,1.24,0,0,0-.07.36Zm1.39,1.66c.16.3.12.39-.15.61-.49.39-1,.8-1.44,1.2,0,0-.06.1,0,.12a.19.19,0,0,0,.13.08,2.28,2.28,0,0,1,1,.43.23.23,0,0,0,.21,0c.27-.25.52-.52.8-.76.66-.57,1.33-1.12,2-1.69ZM31.53,62.15c.51,0,1,0,1.42,0a.27.27,0,0,0,.29-.19,9.85,9.85,0,0,1,1.2-2,.48.48,0,0,0,.05-.16c-.47-.06-.91-.12-1.36-.16a.44.44,0,0,0-.32.17c-.28.41-.56.83-.8,1.26S31.69,61.78,31.53,62.15Zm4,0a20.27,20.27,0,0,0,1.28-2.07c-.5-.06-1-.12-1.46-.16a.42.42,0,0,0-.3.15,3.8,3.8,0,0,0-.33.56l-.78,1.51ZM10.08,56.79l-1.71-.11c0,.22-.05.45-.05.68s0,.53,0,.79,0,.45,0,.68,0,.21,0,.32,0,.33-.06.5,0,.25-.05.38a3.74,3.74,0,0,0,0,.41.09.09,0,0,0,.17.06c.09-.18.18-.37.26-.56l.51-1.12c.1-.21.21-.42.31-.64l.45-1C10,57,10,56.93,10.08,56.79ZM44,61.87s0,0,0,0h.19L46,61.77l1.85-.12,1.49-.07.17,0V61.5l-1.68-.16L47,61.23l-1.24-.14a4.56,4.56,0,0,1-.81-.08c-.22-.06-.32,0-.42.17S44.15,61.63,44,61.87ZM27.27,8.78a1.75,1.75,0,0,0-.34-.05c-.31,0-.63.05-.94,0s-.62,0-.72.38c0,0,0,0,0,.06l-.65,1,1.38.26a.2.2,0,0,0,.16-.06c.13-.21.23-.45.37-.65S27,9.13,27.27,8.78ZM38.9,60.35s0,0-.06-.05l-1.24-.08a.15.15,0,0,0-.11.07c-.17.3-.33.6-.5.89s-.31.48-.46.72c0,.07-.08.14-.13.24h1.36ZM22.11,8.8a1.85,1.85,0,0,0,1.82,1.4l.92-1.4ZM38.7,62.18l1.4-.09c.05,0,.11-.08.14-.13l.39-.6.5-.77-1.25-.11a.31.31,0,0,0-.22.06,1.62,1.62,0,0,0-.29.36C39.16,61.28,39,61.69,38.7,62.18ZM56.92,8.53H55.65a.33.33,0,0,0-.17.08,8.41,8.41,0,0,0-.74.57c-.33.31-.64.65-1,1l0,.08a3.19,3.19,0,0,1,.66.07.37.37,0,0,0,.39-.08l.39-.32ZM43.12,61.95c0-.48.38-.72.55-1.09l-.94-.09-.59-.06c-.29,0-.32.22-.43.38l-.07.07-.47.8,0,.07ZM57.27,6.39c.21-.13.4-.25.59-.38s.55-.4.81-.61a.19.19,0,0,0,0-.17c-.1-.28-.22-.55-.34-.86-.5.4-1,.79-1.45,1.18a.23.23,0,0,0-.06.21C57,6,57.13,6.19,57.27,6.39ZM31.44,59.47c.25.25.11.4-.05.55l-.07.07c-.21.33-.43.66-.63,1s-.38.68-.58,1h.74a10.54,10.54,0,0,1,1.54-2.59ZM52.24,9.76a1.78,1.78,0,0,0,.91.38.23.23,0,0,0,.17-.14c0-.29.23-.44.41-.61s.66-.56,1-.86c-.43,0-.83,0-1.23,0a.43.43,0,0,0-.24.14ZM29.89,5.19s0,0-.06,0c-.39.38-.79.75-1.17,1.13s-.4.69-.91.64c0,.07.06.12.07.12.27,0,.54,0,.81,0s.17-.16.25-.24c.31-.31.63-.6,1-.88.13-.11.21-.2.14-.38A3.37,3.37,0,0,1,29.89,5.19ZM12.69,8.79l-1.16-.17.1,1.37ZM27.74,6.36a1,1,0,0,1,.15-.3c.46-.41.92-.84,1.41-1.21s.43-.36.16-.65c-.36.32-.73.63-1.08,1s-.45.49-.69.72S27.46,6.13,27.74,6.36Zm31.05-.28-.9.76,1.05,0C59,6.31,59,6.25,58.79,6.08ZM51.56,8.55l.32.82.86-.82ZM29.77,7.12l.46,0,0-.39-.07,0Z"/><path d="M38,27.25c.22-.27.42-.52.63-.76a7.51,7.51,0,0,1,.55-.57c.32-.29.65-.59,1-.86s1-.75,1.44-1.11a4.51,4.51,0,0,1,.69-.45c.46-.23.94-.4,1.4-.63a5.59,5.59,0,0,1,1.63-.4,5.19,5.19,0,0,1,1.42,0,12.47,12.47,0,0,1,1.33.25,2.11,2.11,0,0,1,.51.19,11.55,11.55,0,0,1,1.43.78,7.38,7.38,0,0,1,1.69,1.59c.31.42.59.85.87,1.29a5.6,5.6,0,0,1,.46.94,6.75,6.75,0,0,1,.5,1.86c0,.37.12.74.12,1.12a9.5,9.5,0,0,1-.11,1.24c-.05.39-.12.77-.2,1.15a2.31,2.31,0,0,1-.12.43c-.25.62-.48,1.26-.78,1.86A18.13,18.13,0,0,1,51.38,37c-.29.44-.64.83-1,1.25s-.59.8-.91,1.18-.45.46-.66.7-.4.47-.6.71-.24.25-.36.37c-.77.78-1.53,1.56-2.31,2.33-.42.41-.87.78-1.31,1.17s-.57.54-.86.79-.83.7-1.25,1.05l-.93.76a8.72,8.72,0,0,1-.82.61c-.57.35-1.15.67-1.73,1a4.49,4.49,0,0,1-.5.21.13.13,0,0,1-.1,0c-.35-.18-.74,0-1.08-.13a5.22,5.22,0,0,1-.83-.5c-.45-.31-.89-.64-1.32-1-.23-.18-.42-.43-.65-.62s-.69-.53-1-.81-.72-.61-1.07-.92-.85-.74-1.26-1.13-.79-.8-1.2-1.2-.63-.6-.94-.91-.42-.46-.64-.69c-.4-.43-.82-.86-1.21-1.31s-.64-.77-.93-1.17-.72-1-1-1.46-.6-1.12-.87-1.69a10,10,0,0,1-.51-1.23,13.26,13.26,0,0,1-.31-1.29c-.06-.29-.11-.57-.15-.86a6.55,6.55,0,0,1,0-2c0-.22,0-.45.07-.67a10.46,10.46,0,0,1,.19-1.12c.12-.46.29-.92.44-1.37a7.06,7.06,0,0,1,.95-1.82,5,5,0,0,1,1.55-1.54,12.07,12.07,0,0,1,1.18-.62,4,4,0,0,1,.78-.2,4.78,4.78,0,0,1,.77-.14c.5,0,1,0,1.49,0a8.67,8.67,0,0,1,1,.14A4.24,4.24,0,0,1,32,23c.33.1.65.21,1,.34s.93.39,1.38.6a6.37,6.37,0,0,1,.7.41c.19.12.38.26.56.4s.59.44.86.69a10.74,10.74,0,0,1,.93.94A9.15,9.15,0,0,1,38,27.25ZM36.48,46.74c.18-.23.33-.46.52-.67.33-.37.68-.71,1-1.08s.37-.5.57-.74.24-.24.39-.1.24.26.21.33a3.43,3.43,0,0,1-.41.69A21.71,21.71,0,0,0,37.33,47a.58.58,0,0,0,0,.3c.17,0,.31.26.52.14s.4-.26.59-.4l1.32-.93c.34-.24.68-.46,1-.72.47-.38.93-.79,1.39-1.19s.85-.71,1.25-1.09c.7-.67,1.39-1.36,2.08-2,.38-.38.77-.75,1.14-1.14.55-.58,1.09-1.16,1.61-1.75s.79-1,1.17-1.46c.22-.28.41-.59.6-.89s.47-.68.67-1a9.72,9.72,0,0,0,.4-.9l.42-1a.39.39,0,0,0-.21.14l-.45.57-.76,1-.65.82c-.2.25-.4.49-.59.74s-.27.41-.41.61a.29.29,0,0,1-.42.11,1.2,1.2,0,0,1,0-.45c.32-.59.65-1.17,1-1.73a11.53,11.53,0,0,1,.9-1.25c.45-.54.94-1,1.43-1.55.26-.27.53-.51.44-.93,0,0,0-.08,0-.11,0-.27,0-.54,0-.81-.27.2-.44.42-.65.61-.61.53-1,1.24-1.54,1.81a2.72,2.72,0,0,1-.6.44.18.18,0,0,1-.27-.19,2,2,0,0,1,.2-.63,3.64,3.64,0,0,1,.46-.62c.37-.42.74-.85,1.14-1.25s.79-.74,1.17-1.09l-.38-1.23-.22.23-1.25,1.29-.66.69c-.15.16-.3.32-.47.47s-.31.09-.34-.05a1,1,0,0,1,0-.61,2.82,2.82,0,0,1,.86-1l.92-.84c.23-.21.46-.42.67-.65a.32.32,0,0,0,.08-.26,1.33,1.33,0,0,0-.2-.35l-.64-.94c-.08,0-.12,0-.15.07l-1.41,1.6c-.08.09-.17.16-.24.25-.24.31-.47.63-.72.93a.26.26,0,0,1-.23.06c-.07,0-.17-.14-.17-.21a1.41,1.41,0,0,1,.11-.62,5.21,5.21,0,0,1,.62-.79c.21-.24.44-.46.66-.69a8.29,8.29,0,0,1,.64-.68c.38-.32.39-.32,0-.64l-.07-.07c-.43-.35-.44-.36-.82,0a9.72,9.72,0,0,0-1.48,1.78c-.1.17-.25.34-.52.23a.83.83,0,0,1,.23-.94c.12-.12.22-.26.34-.39l.74-.77.52-.57-1-.37-.47.44a6.41,6.41,0,0,0-.56.57c-.22.28-.39.6-.62.88s-.23.37-.51.28c0-.31-.06-.6.2-.86.45-.46.86-.95,1.28-1.42H45.41s-.11,0-.14,0a6.24,6.24,0,0,0-.51.59c-.25.35-.46.72-.7,1.07-.1.15-.24.13-.35,0a.52.52,0,0,1,.09-.63c.19-.27.41-.51.64-.8a1,1,0,0,0-.29,0c-.35.15-.7.3-1,.49s-.77.48-1.14.73a9.78,9.78,0,0,0-1,.72c-.73.64-1.43,1.31-2.16,2a3.64,3.64,0,0,1-1.31.94,4,4,0,0,1-.77.22,1.41,1.41,0,0,1-1.32-.67c-.21.18-.41.37-.63.55a3.86,3.86,0,0,1-.63.43.25.25,0,0,1-.36-.28,1.53,1.53,0,0,1,.33-.63c.26-.28.59-.51.87-.78s.73-.71,1.11-1.08l-.77-.59-.57.6-.61.61a2.48,2.48,0,0,0-.41.38,2.5,2.5,0,0,1-.85.86.55.55,0,0,1-.46,0c-.08,0-.07-.29-.06-.44a.57.57,0,0,1,.16-.29c.32-.36.65-.72,1-1.06s.83-.73,1.25-1.09a2,2,0,0,0-.35-.26c-.15-.07-.31-.17-.48,0s-.4.33-.57.52c-.44.48-.86,1-1.29,1.47a.47.47,0,0,1-.51.18c-.19-.06-.19-.26-.14-.42a1.34,1.34,0,0,1,.25-.51c.39-.43.8-.84,1.21-1.25a1.16,1.16,0,0,1,.4-.3c.17-.06.14-.13.11-.24s-.18,0-.22-.06-.23-.1-.35,0-.32.28-.47.42-.41.42-.62.62-.71.63-1.08.93a.29.29,0,0,1-.24.07.39.39,0,0,1-.18-.24c-.08-.33.18-.51.36-.72a3.78,3.78,0,0,1,.45-.36l1.28-1.07a1.84,1.84,0,0,0-.33-.16c-.2-.05-.4-.17-.61,0a1.44,1.44,0,0,0-.2.19c-.34.32-.7.62-1,1s-.47.61-.73.89a.6.6,0,0,1-.41.15c-.19,0-.18-.18-.18-.33,0-.49.35-.77.64-1.06s.79-.7,1.18-1a2.33,2.33,0,0,0-.39-.08.59.59,0,0,0-.37.06c-.34.29-.67.61-1,.92s-.45.49-.7.72a.33.33,0,0,1-.31,0,.38.38,0,0,1-.11-.33,1.63,1.63,0,0,1,.33-.55c.27-.28.58-.52.89-.79-.43-.05-.44-.06-.68.21s-.55.64-.8,1a.82.82,0,0,1-.82.32l0-.61c-.14.16-.24.29-.36.4a4.89,4.89,0,0,0-1.23,2,12.1,12.1,0,0,0-.37,1.23,4,4,0,0,0-.19,1,12.74,12.74,0,0,0,.12,2.94c.11.45.2.9.31,1.4l.39-.38a2.84,2.84,0,0,1,.43-.35c.07,0,.19,0,.28,0s0,.23-.06.3c-.26.34-.54.66-.82,1l.31.55,1.13-1.11c.11.17.34.23.16.44s-.5.65-.78.94-.23.47.08.7l1-1.06c.14-.14.26-.11.37,0l.12.16-.39.46c-.25.29-.51.57-.76.86a.23.23,0,0,0,0,.22c.13.2.28.39.38.53.4-.43.79-.85,1.19-1.26.15-.15.43-.15.52,0a.39.39,0,0,1-.17.47l-.17.13A3.82,3.82,0,0,0,27.43,38a.31.31,0,0,0,.06.24c.09.13.2.25.29.38s.19.16.29,0a.67.67,0,0,1,.12-.18l1.18-1a3.23,3.23,0,0,0,.29-.33A3.15,3.15,0,0,1,30,36.7a.24.24,0,0,1,.23,0c.07.08.16.24.12.31a2.89,2.89,0,0,1-.79,1,3,3,0,0,0-.4.37c-.26.3-.51.62-.77,1l1.79,1.85a3.83,3.83,0,0,1,.39-.69c.26-.3.58-.55.87-.82l1.08-1.05a4.55,4.55,0,0,1,.43-.43.3.3,0,0,1,.29,0c.07.07.13.24.09.3a6.6,6.6,0,0,1-.59.76c-.25.28-.53.53-.78.8s-.43.56-.68.81a8.1,8.1,0,0,1-.76.6c.06,0,.14.1.21.17l1,.93.93.85c.25.23.48.49.74.71.56.48,1.13.95,1.69,1.42l.23.22a2.53,2.53,0,0,1,.16-.29c.14-.19.28-.38.43-.55s.47-.51.7-.76l.62-.67c.21-.23.41-.48.63-.71s.32,0,.44.09,0,.26,0,.34c-.35.46-.71.9-1.08,1.34-.15.18-.32.33-.47.5s-.18.23-.27.35-.35.45-.51.68a.24.24,0,0,0,0,.23C36.09,46.45,36.28,46.58,36.48,46.74Zm-.73-18.53a1.14,1.14,0,0,0,1.48-.32c-.18-.16-.36-.32-.55-.46a.21.21,0,0,0-.2,0C36.23,27.69,36,27.95,35.75,28.22Z"/><path d="M34.22,44.59a1.65,1.65,0,0,1,.47-.95c.28-.35.61-.66.91-1s.6-.7.93-1a.39.39,0,0,1,.38,0A.28.28,0,0,1,37,42a14.17,14.17,0,0,1-1.06,1.25c-.22.23-.37.53-.57.78a9.2,9.2,0,0,1-.7.77.28.28,0,0,1-.27,0A.8.8,0,0,1,34.22,44.59Z"/><path d="M33.1,43.36a.32.32,0,0,1-.28-.5,10.47,10.47,0,0,1,.63-1,4.68,4.68,0,0,1,.63-.63c.4-.36.81-.71,1.21-1.06.12-.1.43-.12.5,0s.05.32-.08.45c-.31.3-.64.57-.94.88a5.56,5.56,0,0,0-1.13,1.43A.72.72,0,0,1,33.1,43.36Z"/><path d="M31.75,42.33c-.21,0-.29-.14-.26-.27a1.45,1.45,0,0,1,.23-.58,7.21,7.21,0,0,1,.58-.57c.22-.23.42-.49.64-.72s.45-.46.68-.69a.28.28,0,0,1,.43,0c.13.12.19.23,0,.4-.32.32-.61.66-.9,1s-.71.83-1.08,1.24A1.3,1.3,0,0,1,31.75,42.33Z"/><path d="M29.16,39.8a.89.89,0,0,1,.35-.7q.88-.85,1.8-1.64a.43.43,0,0,1,.41,0,.25.25,0,0,1,0,.4c-.42.39-.84.79-1.24,1.2-.18.18-.31.42-.48.61a2,2,0,0,1-.46.42C29.3,40.2,29.16,40.08,29.16,39.8Z"/></svg>