<svg id="Warstwa_1" data-name="Warstwa 1" xmlns="http://www.w3.org/2000/svg" viewBox="0 0 35 52.5"><defs><style>.cls-1{fill:#fff;}</style></defs><title>SBR_stopka_pin0</title><path class="cls-1" d="M9.4,2.67l.75-.39L10.6,2l.52-.24.61-.25.51-.19.25-.1s.13,0,.14-.05.14-.11.23-.13l.71-.25.07,0A3.92,3.92,0,0,0,14.5.62c.26-.11.59,0,.75-.16s.56-.06.8-.17c.42-.19.87,0,1.29-.15A9.43,9.43,0,0,1,20.12.06,6.67,6.67,0,0,1,21.48.2c.3.08.6.08.89.13.11,0,.2.13.31.16s.3,0,.37,0,.31.08.45.12.48.17.71.25l0,0,.65.16s.11,0,.13,0c.14.2.36.22.56.29l.38.15c.2.09.4.17.58.28s.22.19.35.26a1.32,1.32,0,0,0,.4.2c.24.05.38.26.62.34s.42.35.64.52.62.44.9.69a7,7,0,0,1,.49.54c.11.12.24.21.36.33l.53.56c.11.11.23.2.33.32s.27.41.44.58.39.63.63.91.19.44.42.57.14.21.18.33a2.11,2.11,0,0,0,.46.84.92.92,0,0,1,.14.32l.17.5.19.49c0,.08.06.17.1.24a.88.88,0,0,0,.1.15s.06,0,.07.05c.06.21.1.42.16.63s.17.58.26.86l0,.07c.05.38.1.76.16,1.14a1,1,0,0,0,.12.23.44.44,0,0,1,.05.14c0,.12,0,.24,0,.36A12.72,12.72,0,0,1,35,16.54c0,.45-.08.9-.14,1.34,0,.07-.1.14-.17.17s-.18.3-.4.25-.51-.35-.51-.54c0-1.13,0-2.25,0-3.38a4.88,4.88,0,0,0-.17-1.28c-.06-.21,0-.45-.13-.61s0-.54-.15-.64-.05-.46-.28-.57c0,0,0,0,0,0-.06-.24-.1-.48-.17-.72a2.28,2.28,0,0,0-.28-.69,9.34,9.34,0,0,1-.48-.93c-.13-.21-.15-.51-.42-.64-.08,0-.11-.18-.16-.27l-.23-.35c-.07-.11-.12-.24-.2-.35-.25-.33-.5-.66-.77-1a7.94,7.94,0,0,0-.77-.84,3.78,3.78,0,0,0-.88-.75c-.2-.09-.33-.32-.49-.48A2.13,2.13,0,0,0,27.82,4,3.3,3.3,0,0,1,27,3.42a1.28,1.28,0,0,0-.36-.2L26,2.82c-.17-.09-.35-.15-.52-.23s-.26-.15-.39-.23a.28.28,0,0,0-.11,0A1.38,1.38,0,0,1,24.27,2s-.12,0-.19,0-.24,0-.25-.14c0,0,0,0-.08,0a1.78,1.78,0,0,1-.42-.12c-.27-.11-.59-.08-.86-.19s-.78-.07-1.15-.23a2.23,2.23,0,0,0-.66,0c-.24,0-.51.09-.7-.16,0,0-.11,0-.16,0-.57,0-1.14,0-1.71,0a1.29,1.29,0,0,0-.35.13l-.16,0c-.15,0-.3,0-.45,0a8.25,8.25,0,0,0-1.38.18c-.23.06-.45.07-.67.12s-.49.17-.74.25a1.4,1.4,0,0,1-.21,0c-.13,0-.3-.06-.34.16l0,0c-.21.05-.42.09-.62.16s-.36.16-.54.24l-.11,0a1,1,0,0,0-.66.31c-.08.1-.26.11-.39.17a4.86,4.86,0,0,0-.86.41c-.37.24-.78.42-1.15.65-.22.13-.39.35-.61.47s-.53.49-.9.6c-.13,0-.22.23-.34.33l-.46.4c-.19.18-.39.35-.57.55s-.53.62-.79.92-.36.37-.53.56-.1.18-.17.25c-.22.27-.46.53-.65.81a6.51,6.51,0,0,0-.33.66c0,.07-.12.12-.17.2s-.28.42-.4.64-.1.27-.17.39c-.15.29-.32.56-.46.85s-.07.37-.17.49,0,.45-.29.55c0,0,0,0,0,0-.05.2-.09.41-.15.6s-.17.43-.25.64v0c-.05.29-.1.58-.17.87a.85.85,0,0,1-.12.22s0,0-.05.07c-.05.29-.11.58-.15.88a13.75,13.75,0,0,1-.17,1.64,15.84,15.84,0,0,0-.12,2.87,8.86,8.86,0,0,0,0,1.07,10.33,10.33,0,0,0,.17,1.69,7.41,7.41,0,0,0,.13.91c.11.28,0,.62.15.82s.07.52.18.73a2.41,2.41,0,0,1,.13.62c.07.26.17.52.26.78a.59.59,0,0,1,0,.07c.05.25,0,.59.17.73s0,.57.3.74c0,0,0,.06,0,.09l.27.79.12.38c.08.23.15.46.24.69s.15.3.22.46a.33.33,0,0,1,0,.1,1.57,1.57,0,0,0,.27.68,4.86,4.86,0,0,1,.23.6c.07.15.17.28.25.42s.1.28.16.42a3.52,3.52,0,0,1,.26.55c.07.3.3.51.39.8s.3.59.41.91c.22,0,.15.25.28.35a.82.82,0,0,1,.18.41c.07.23.33.36.3.63.3.14.28.48.45.71a4.65,4.65,0,0,1,.32.63c0,.06.13.1.16.16.15.24.28.49.43.72a2.5,2.5,0,0,0,.41.55c.1.09.12.26.21.37a2.91,2.91,0,0,0,.42.58c.17.14.22.42.35.62s.35.47.52.71.15.27.23.4a5,5,0,0,0,.29.42c.19.24.4.47.58.72s.11.24.18.35.14.11.18.19c.2.3.38.6.59.9a4.33,4.33,0,0,0,.36.4c.18.2.45.37.52.6.12.41.56.56.65,1,0,.12.21.19.31.3s.25.35.38.51.37.39.55.58.59.67.89,1,.36.35.54.53l.33.35c.14.14.28.28.43.41a3.49,3.49,0,0,0,.74.57c.16.07.37.23.62.08a2.84,2.84,0,0,1,.61-.18s.07-.07.11-.1a2.15,2.15,0,0,0,.61-.49c.11-.13.31-.19.45-.31s.51-.46.75-.69.57-.55.84-.84.56-.65.85-1,.45-.46.66-.7.14-.22.22-.32.16-.19.25-.28a1.47,1.47,0,0,0,.39-.53c0-.12.22-.19.3-.31s.19-.32.3-.47.47-.56.66-.87.36-.37.4-.64c0-.06.13-.1.17-.17.15-.25.29-.52.45-.77a1.35,1.35,0,0,1,.23-.21.5.5,0,0,0,.08-.1c.13-.22.27-.44.4-.66s.11-.25.18-.36.21-.26.3-.41a3,3,0,0,0,.17-.37c.05-.11.1-.23.15-.34a6.21,6.21,0,0,0,.49-.89,5.74,5.74,0,0,1,.42-.9c.13-.25.31-.48.44-.73s.11-.35.17-.52.18-.36.25-.55.15-.42.23-.63.14-.3.21-.45a.39.39,0,0,0,0-.06l.17-.65a1.59,1.59,0,0,1,.16-.57,2,2,0,0,0,.33-1,5.26,5.26,0,0,1,.25-.77v0c.05-.38.1-.76.16-1.14a1.35,1.35,0,0,1,.11-.29.54.54,0,0,0,.06-.14c0-.11,0-.22,0-.33a13,13,0,0,0,.13-2.79c0-.54-.09-1.08-.14-1.62-.34-.23,0-.68-.31-.92,0,0,0,0,0,0-.05-.26-.09-.53-.16-.79a4.52,4.52,0,0,0-.29-.77c0-.1-.15-.15-.19-.29a4.59,4.59,0,0,0-.38-.7c-.07-.14-.12-.3-.19-.44s-.12-.11-.16-.18c-.16-.26-.39-.48-.53-.74s-.47-.46-.63-.73a4.31,4.31,0,0,0-.77-.76c-.09-.09-.15-.23-.25-.31s-.41-.29-.61-.44-.11-.14-.19-.19c-.24-.15-.49-.29-.72-.44s-.19-.18-.29-.26a1.48,1.48,0,0,0-.29-.17l-.44-.17-.43-.22a.43.43,0,0,0-.12-.05c-.1,0-.24,0-.24-.15,0,0,0,0-.06,0-.2-.05-.41-.1-.61-.16s-.44-.17-.66-.26h0l-.92-.15c-.12,0-.27,0-.34-.13s-.13,0-.2,0H18.18c-.08,0-.15.07-.23.11s0,0-.07.05l-.89.16a2.53,2.53,0,0,0-.79.25,3.13,3.13,0,0,1-.38.13c-.17.07-.34.16-.5.24s-.41.2-.6.32a4.85,4.85,0,0,0-.71.46c-.23.2-.42.45-.64.67s-.35.33-.51.5a2.47,2.47,0,0,0-.23.35,2.81,2.81,0,0,0-.38.79,3,3,0,0,1-.13.63,2.17,2.17,0,0,0-.1,1.13,4.25,4.25,0,0,0,.15,1,1.77,1.77,0,0,0,.29.79c.21.22.19.53.41.74s.13.29.18.43,0,.09.06.12c.19.16.28.42.44.58s.28.5.56.67.39.44.59.66.53.56.81.81a5.37,5.37,0,0,0,.62.46,1.82,1.82,0,0,0,.35.17c.15.06.39.06.43.17.14.29.48.06.61.29h0a10,10,0,0,0,1.11.13,4.26,4.26,0,0,0,.87-.13c.15,0,.35-.05.43-.15s.52-.23.75-.42a4.42,4.42,0,0,0,.5-.32l.33-.34c.13-.14.26-.27.38-.42s.17-.27.26-.41l.28-.44.3-.74a.18.18,0,0,0,0,0c.05-.42.13-.84.16-1.26a10.86,10.86,0,0,0,0-1.31,6.75,6.75,0,0,0-.15-1.07,3.2,3.2,0,0,0-.3-.85,6.14,6.14,0,0,0-.64-.9,5.53,5.53,0,0,0-.58-.57.92.92,0,0,0-.29-.16c-.21-.08-.42-.13-.62-.22a4,4,0,0,0-1.71-.12,1.52,1.52,0,0,0-.81.16,4.46,4.46,0,0,1-.77.31,3.37,3.37,0,0,0-.51.31s0,0,0,0c-.35.06-.47.43-.77.57a.85.85,0,0,0-.3.33.53.53,0,0,1-.58.16,1,1,0,0,0-.27-.05,1.92,1.92,0,0,1-.17-.37.88.88,0,0,1,.32-.7c.2-.15.39-.32.59-.47l.39-.29a4.33,4.33,0,0,1,.38-.25,3.19,3.19,0,0,1,.32-.12l.58-.25.64-.23a.57.57,0,0,1,.13,0,9.45,9.45,0,0,1,1.84-.15,2.33,2.33,0,0,1,.45,0,5,5,0,0,1,1,.25,5.38,5.38,0,0,0,.57.19,1.65,1.65,0,0,1,.37.24,5,5,0,0,1,.61.52c.18.2.29.48.49.66s.24.53.44.75.08.38.18.54,0,.56.17.71.1.59.16.88a3,3,0,0,1,.11.71c0,.52-.08,1-.13,1.56,0,0-.05.08-.08.12s-.07.06-.08.09c-.06.27-.09.55-.17.82a3.6,3.6,0,0,1-.22.51l-.2.43a4.7,4.7,0,0,1-.22.42c-.07.12-.17.22-.26.34a4.23,4.23,0,0,1-.3.43,10.1,10.1,0,0,1-.75.74c-.15.13-.37.18-.51.33s-.56.22-.78.45c0,0,0,0-.07,0a3.47,3.47,0,0,0-.81.18,2.72,2.72,0,0,1-1.27.11,5.16,5.16,0,0,1-1.07-.14,3,3,0,0,1-.92-.31c-.12-.07-.36,0-.4-.26,0-.07-.17-.12-.27-.16a7.68,7.68,0,0,1-.85-.58c-.32-.18-.51-.49-.83-.66s-.3-.34-.46-.51-.18-.16-.26-.24a.49.49,0,0,1-.06-.08L12.85,27c-.08-.11-.14-.23-.22-.34s-.14-.12-.18-.19a3.92,3.92,0,0,0-.45-.78c-.12-.12,0-.36-.28-.4-.07,0-.11-.22-.16-.34s-.11-.33-.16-.5-.17-.46-.25-.69a1.65,1.65,0,0,1,0-.26c0-.17.07-.38-.17-.48,0,0,0-.09,0-.13,0-.59,0-1.19,0-1.78,0-.07.08-.14.12-.22a.48.48,0,0,0,.06-.12c.05-.24.09-.48.16-.71a3.35,3.35,0,0,1,.24-.44,4.25,4.25,0,0,1,.19-.41c.11-.17.25-.31.37-.47s.25-.36.39-.53a2.11,2.11,0,0,1,.36-.34c.16-.12.35-.2.51-.32s.23-.25.36-.35.3-.16.44-.26.22-.18.33-.26a1.52,1.52,0,0,1,.31-.18c.17-.07.35-.11.52-.17l.55-.24L16,16c.1,0,.23,0,.25-.14,0,0,0,0,.06,0a6.9,6.9,0,0,0,.82-.17c.48-.16,1,0,1.45-.18a4.31,4.31,0,0,1,1.68-.07c.46.05.92.07,1.37.13s.81.18,1.22.27c.1.3.46.07.6.29,0,0,.06,0,.09,0l.71.27.55.18s.08,0,.09,0c.13.22.37.25.58.33s.33.26.52.33a2.85,2.85,0,0,1,.56.39c.25.16.53.3.78.47s.16.21.26.3.4.29.59.44.21.22.32.33.27.24.39.38.27.34.41.5l.54.64c.09.11.16.22.24.33a3.34,3.34,0,0,1,.49.82,2.38,2.38,0,0,0,.3.56.88.88,0,0,1,.2.34,4.36,4.36,0,0,0,.25.58c.09.21.19.41.26.63a5.52,5.52,0,0,0,.23.81c.13.26,0,.55.15.78s0,.73.14,1.07a11.09,11.09,0,0,1,.11,2.77,5.86,5.86,0,0,1-.16,1.53,5.18,5.18,0,0,1-.13.76,2.45,2.45,0,0,0-.13.77s0,.07-.07.1-.08.05-.09.09c-.06.3-.09.6-.17.89s-.17.48-.25.71v0A2,2,0,0,1,31,35a1.82,1.82,0,0,0-.21.56c-.05.16-.17.29-.22.45-.12.34-.2.69-.33,1,0,.12-.18.2-.2.36s-.17.3-.23.45-.08.39-.19.53,0,.37-.26.42c0,0,0,0,0,.07a2.61,2.61,0,0,1-.41.84c-.07.11-.1.25-.16.36s-.2.27-.29.41a3.91,3.91,0,0,0-.18.37,3.55,3.55,0,0,1-.47.92c-.17.18-.24.4-.4.57a3.34,3.34,0,0,0-.34.64c0,.07-.14.1-.18.17-.15.26-.29.52-.44.78a.57.57,0,0,1-.15.18,2,2,0,0,0-.47.69,3.26,3.26,0,0,1-.27.32c-.19.24-.38.47-.56.72s-.12.23-.2.33c-.25.33-.5.65-.77,1s-.5.57-.75.86-.51.62-.78.93a5.1,5.1,0,0,1-.77.78,9.6,9.6,0,0,0-.75.76c-.22.2-.43.42-.65.61s-.34.22-.5.34-.1.14-.16.18l-.77.45a2.84,2.84,0,0,1-.7.43,2.74,2.74,0,0,1-.85,0s-.09,0-.14-.06-.19,0-.24-.15-.21-.13-.33-.18a1.68,1.68,0,0,1-.72-.58,4.63,4.63,0,0,0-.65-.6c-.12-.11-.22-.23-.33-.35l-.4-.41-.38-.38c-.13-.13-.27-.26-.39-.4s-.26-.34-.39-.5-.13-.13-.19-.2c-.29-.32-.58-.64-.86-1s-.31-.43-.47-.65-.23-.27-.33-.42a3.68,3.68,0,0,0-.43-.6,7.47,7.47,0,0,1-.5-.63,4.37,4.37,0,0,1-.25-.39c0-.06-.14-.1-.18-.16-.2-.28-.38-.58-.58-.85s-.4-.5-.58-.76-.1-.26-.18-.37-.3-.34-.43-.52-.11-.26-.19-.38-.3-.37-.43-.57-.23-.42-.34-.64c0,0,0-.05,0-.07-.18-.21-.37-.42-.53-.64a2.21,2.21,0,0,1-.19-.41c-.06-.14-.09-.3-.28-.35,0,0,0-.06,0-.09A2.16,2.16,0,0,0,6,38.5a.89.89,0,0,1-.16-.34c0-.28-.34-.37-.39-.68a1.79,1.79,0,0,0-.42-.8,2.52,2.52,0,0,1-.47-.86,2.21,2.21,0,0,0-.25-.38c-.06-.1-.08-.21-.13-.31s-.15-.32-.23-.47l-.4-.74c-.06-.11-.09-.22-.14-.34s-.15-.4-.24-.59-.16-.28-.23-.43a3.21,3.21,0,0,1-.17-.4c-.06-.19-.06-.49-.18-.55-.28-.14-.08-.44-.29-.6s-.11-.36-.17-.54-.17-.41-.25-.62,0-.16,0-.23a1.47,1.47,0,0,0-.13-.24s0,0,0,0c-.05-.19-.1-.37-.15-.56A2.75,2.75,0,0,0,1.23,28a.28.28,0,0,1,0-.09c-.05-.28,0-.63-.18-.81s0-.58-.27-.8a.12.12,0,0,1,0-.07,7.73,7.73,0,0,0-.17-1.11c-.1-.35,0-.72-.16-1A4.83,4.83,0,0,1,.29,23a.91.91,0,0,0,0-.18,1.21,1.21,0,0,1-.13-.33c0-.54,0-1.08,0-1.62,0-.27-.1-.54-.1-.81,0-.9.08-1.79.12-2.69,0,0,0-.08,0-.09.28-.24.08-.58.18-.85s0-.83.26-1.2a.13.13,0,0,0,0,0c.05-.33.1-.66.16-1a1.47,1.47,0,0,1,.16-.62,2.12,2.12,0,0,0,.32-.86,4.79,4.79,0,0,1,.25-.54,3.46,3.46,0,0,0,.17-.52c0-.11,0-.23.16-.23,0,0,0,0,0,0a2.31,2.31,0,0,1,.42-.91c.07-.11.09-.24.15-.35.19-.33.4-.66.59-1,.07-.12.1-.26.18-.37a3.29,3.29,0,0,0,.42-.54,1.94,1.94,0,0,1,.34-.52c.23-.27.43-.56.65-.84.08-.11.16-.23.25-.33s.35-.38.53-.56a10.88,10.88,0,0,0,.83-.79A3.89,3.89,0,0,1,7,4.42a6,6,0,0,0,.55-.48l.32-.25c.11-.09.2-.18.31-.26s.37-.24.56-.35l.6-.35S9.4,2.66,9.4,2.67Z"/></svg>