<svg id="Warstwa_1" data-name="Warstwa 1" xmlns="http://www.w3.org/2000/svg" viewBox="0 0 160.03 242.99"><defs><style>.cls-1{fill:#262626;}</style></defs><title>SBR_piwko0</title><path class="cls-1" d="M158.48,52.22a.31.31,0,0,0-.06-.4c-.32-2.42-.73-4.82-1.24-7.2a34.22,34.22,0,0,0,1.42-4.2c2.14-8.05,2.21-17.69-2.07-25.1-2.44-4.24-9.07-10.42-14.94-10.21a10.21,10.21,0,0,0-1.4-.22,6.89,6.89,0,0,0-3.8.42A26.07,26.07,0,0,0,121.44,0c-7.19-.23-17.14,1.24-23.15,5.63A25.85,25.85,0,0,0,75.93,7.29C70.42,10.7,63.81,20.83,67,27.67a1.8,1.8,0,0,0-.47.58C51,61.67,64.72,101,72.84,139.89c6.51,30.89,7.74,61.61-.06,89.81a2.38,2.38,0,0,1,.29.33l.27.37.23,0a.69.69,0,0,0,.19.21,20.81,20.81,0,0,0,5.84,2.65,94.12,94.12,0,0,0,10.17,2.23c6.42,1,12.84,2.09,19.29,2.13a99,99,0,0,0,31.13-5c.53-.07,1.07-.15,1.6-.27a13.65,13.65,0,0,0,2.12-.54,4.07,4.07,0,0,0,1.28-.95l.56-.21c.28-.11.27-.31.15-.45h0a3.77,3.77,0,0,0,.62-.84c-8.35-30.71-4-64.32,3-98q.91-4.39,1.84-8.78a.46.46,0,0,0,.14-.69q.55-2.63,1.09-5.25a.51.51,0,0,0,.08-.39C157.31,94.18,161.09,72.5,158.48,52.22ZM75.14,230.12h0Zm81-165.35-.09.1a.42.42,0,0,0-.14,0,30.72,30.72,0,0,0-3.24.28L153.76,64l1.2-.25c.52-.11.33-.87-.16-.84l1.28-1.3Q156.15,63.2,156.18,64.78Zm-6.46,7.63c.71-.77,1.46-1.5,2.21-2.23.93-.1,1.85-.19,2.78-.25-.72.71-1.43,1.45-2.12,2.19Q151.15,72.28,149.71,72.4Zm1.94.67c-.42.46-.83.94-1.24,1.4q-1.3.13-2.61.2c.35-.46.71-.91,1.08-1.34C149.81,73.27,150.73,73.18,151.66,73.08Zm-.07-3.74-2.87.34.88-1.06c1.1-.16,2.2-.34,3.29-.53ZM147.23,59l1-.08-.51.64-1.07.15Zm-1.38-.8q.74-.43,1.43-.91l.25,0-.73.91ZM153,53.94a18.45,18.45,0,0,0-2.12,1.89l-1.21.2c.52-.58,1.06-1.14,1.63-1.68Zm-.1-2a29.4,29.4,0,0,0,1.9-2.72q.21,1.29.38,2.59Zm-.81,9.28c-1,.25-1.94.49-2.91.69l1.82-2,2.9-.47C153.32,60,152.72,60.64,152.12,61.24Zm.45.77c.85-.22,1.7-.43,2.53-.63l-1.79,1.84q-1.16.23-2.32.43C151.52,63.1,152,62.55,152.57,62Zm-2-2.9-1.62.26.46-.58c.56-.07,1.12-.15,1.68-.25Zm-.35-1.29q.52-.61,1.07-1.18l1.88-.31-1.09,1.16C151.48,57.62,150.86,57.73,150.24,57.82Zm-.29-1q-.49.55-1,1.12l-1,.1.85-1Zm-1.76,3.51,1.46-.23-1.84,2c-.39.06-.78.11-1.17.15C147.17,61.69,147.68,61,148.19,60.37Zm.08,2.6c.91-.15,1.81-.35,2.71-.56-.46.48-.91,1-1.36,1.47-.8.12-1.61.22-2.42.3ZM150,64.69q1.12-.17,2.24-.38l-.94,1-2.17.34Zm.39,1.64c-.43.49-.87,1-1.29,1.47q-1,.13-1.94.22c.37-.47.76-.91,1.14-1.37Zm0,1.28c.44-.5.89-1,1.33-1.48,1.15-.17,2.31-.31,3.47-.37-.42.43-.85.86-1.28,1.28ZM156,60.47l-.25.25a.42.42,0,0,0-.49-.26l-1.5.36q.83-.81,1.67-1.6l.49-.07C156,59.58,156,60,156,60.47Zm-.2-3,0,.26-.78.72c-1,.15-2,.32-3.07.49l.55-.6c1.09-.23,2.17-.51,3.24-.85Zm-.07-.84a.42.42,0,0,0-.19,0c-.64.21-1.29.38-1.94.55l1-1,1.08-.18C155.71,56.14,155.72,56.36,155.74,56.58Zm-.23-2.31a.38.38,0,0,0-.43.1l-.9.94-1.8.29a14.94,14.94,0,0,1,2.4-1.79.39.39,0,0,0,.2-.37l.42-.12C155.45,53.63,155.48,54,155.51,54.27ZM139.42,8.34l-.08.11-.12-.16ZM74.69,16.81c-1,1.31-2,2.66-2.88,4,0-.08,0-.16,0-.24.09-.5.17-1,.24-1.48,1-1.42,2-2.85,2.81-4.36a.43.43,0,0,0-.75-.44c-.59,1-1.23,2-1.89,3a11.12,11.12,0,0,0,0-1.13c.71-.94,1.44-1.85,2.1-2.83a.37.37,0,0,0-.11-.55,11.75,11.75,0,0,1,5-3.93c8.25-3.17,15.27-.17,23.31,1.45.51.1,1.48-.37,1.35-.94.18-.25.33-.53.55-.86a5.38,5.38,0,0,1,.74-.86,27.4,27.4,0,0,0-2,3.32c-.25.5.49.94.75.44a20.72,20.72,0,0,1,3.74-5.4c.67-.34,1.32-.66,1.93-1a51.8,51.8,0,0,1,9.81-1.28,23.66,23.66,0,0,1,14.88,4.66l-.07,0a6.09,6.09,0,0,0-1.76,2.12c-.19.53.64.75.83.23a5.36,5.36,0,0,1,1.53-1.74.41.41,0,0,0,.11-.18l.56.41c-.63,1-1.46,1.89-2.17,2.83-.34.45.41.88.75.44.69-.91,1.49-1.76,2.11-2.73.44.35.89.71,1.34,1.09a28,28,0,0,0-3.11,3.69c-.32.46.43.9.75.44a26.6,26.6,0,0,1,3-3.56l.59.51a1.09,1.09,0,0,0,.42.21,25.32,25.32,0,0,0-3.68,4.89.43.43,0,0,0,.75.44,24.94,24.94,0,0,1,4.29-5.47.77.77,0,0,0,.16-.14c.48-.15.94-.35,1.16-.43a6.11,6.11,0,0,1,.75-.22,42.71,42.71,0,0,0-4.37,5.54.43.43,0,0,0,.75.44c1.32-2.28,3.24-4.07,4.83-6.13h.35c.27,0,.53.07.79.11a39.16,39.16,0,0,0-3.71,5c-.3.48.45.91.75.44a37,37,0,0,1,4-5.32c.4.18.49.09.26-.28l.06-.06c.29.12.59.27.9.41-1.09,1.31-2.24,2.57-3.2,4a.36.36,0,0,0,0,.42,1.24,1.24,0,0,0-.3,1.3,2,2,0,0,0,2.46,1c.29-.08.76-.32.85-.64s-.21-.46-.45-.54c-.49-.18-1,.27-1.5.23-.08,0-.12,0-.16-.06a.7.7,0,0,1-.11-.47,3.05,3.05,0,0,1,.7-1.26c.11-.15-.07-.24-.21-.26.91-1.22,1.94-2.34,2.89-3.52h.1l.35.27a30.16,30.16,0,0,0-3,3.79c-.31.47.44.9.75.44a28.57,28.57,0,0,1,2.87-3.67l.22.2c.18.18.35.36.52.55a13.54,13.54,0,0,0-3,3.59.43.43,0,0,0,.75.44,12.91,12.91,0,0,1,2.81-3.38c.21.25.41.5.61.76a17.92,17.92,0,0,1-1.9,2.36c-.39.4.22,1,.61.61a18.59,18.59,0,0,0,1.82-2.24c.3.46.58.93.84,1.41a4.76,4.76,0,0,0-.91,1.5c-.19.53.65.75.83.23a3.32,3.32,0,0,1,.5-.9,19.64,19.64,0,0,1,1.19,3.26,32.62,32.62,0,0,1-1.42,20.31c-2.2,5.51-6.16,10.87-11.73,13.22l.1-.13c.38-.41-.23-1-.61-.61a4.74,4.74,0,0,0-.84,1.24l-.13,0c-.34.1-.67.19-1,.28.43-.71.89-1.4,1.28-2.14.26-.5-.49-.94-.75-.44-.5,1-1.15,1.87-1.68,2.82q-.54.1-1.06.16l1.85-3.09a.43.43,0,0,0-.75-.44l-2.16,3.62c-.37,0-.75,0-1.11,0a29.4,29.4,0,0,1,2.58-3.68c.34-.43-.26-1.05-.61-.61a28.66,28.66,0,0,0-2.94,4.25c-.43,0-.86-.07-1.29-.13.73-1.29,1.42-2.6,2.17-3.88a.43.43,0,0,0-.75-.44c-.81,1.37-1.53,2.79-2.33,4.17l-1-.21A14.55,14.55,0,0,1,132.67,51c.39-.4-.22-1-.61-.61A15.64,15.64,0,0,0,129.15,55l-1-.3c1-1.69,2.13-3.3,3.22-4.94.31-.47-.44-.9-.75-.44-1.12,1.69-2.28,3.35-3.31,5.1l-.73-.26c.48-2.23,2.71-4.32,4-6.05.33-.45-.42-.89-.75-.44-1.32,1.83-3.43,3.86-4,6.18l-.72-.3c1.07-2.46,3.07-4.43,4.67-6.54.34-.44-.41-.88-.75-.44-1.63,2.15-3.6,4.14-4.71,6.63l-.53-.24a13.12,13.12,0,0,1,1.88-3.49,4.65,4.65,0,0,0,.72-.84.91.91,0,0,0,.12-.27c.72-.92,1.48-1.81,2.18-2.72.31-.4-.28-.79-.64-.53a.41.41,0,0,0-.58,0l-.4.38a.49.49,0,0,0-.61-.14c.11-.18.21-.36.33-.54.31-.47-.44-.9-.75-.44a7.47,7.47,0,0,0-1.41,2.81l-1.08-.11a31.44,31.44,0,0,1,2.34-2.73c.39-.4-.22-1-.61-.61A34.08,34.08,0,0,0,122.44,47l-.95-.07a20.21,20.21,0,0,1,2.67-3.13.43.43,0,0,0-.61-.61,19.3,19.3,0,0,0-3,3.68l-1.09-.06a40.85,40.85,0,0,1,3.64-4.39c.39-.4-.22-1-.61-.61a44,44,0,0,0-4.05,4.94l-1-.06a25.36,25.36,0,0,1,4.29-5.1c.42-.37-.19-1-.61-.61a26.79,26.79,0,0,0-4.67,5.64L115,46.5A25.46,25.46,0,0,1,119,41.88c.36-.31,0-.8-.42-.71a2,2,0,0,0,.44-.27,2.35,2.35,0,0,0,.61-.68,1.72,1.72,0,0,0,.23-.56.88.88,0,0,0,0-.29v0a.75.75,0,0,0,0-.11v0a.93.93,0,0,0-.9-.7c-.58,0-.72.41-1.14.73a1.92,1.92,0,0,1-.33.2s-.21,0-.16,0h-.08l-.08,0h0l0-.06s-.1-.17-.11-.2a2.54,2.54,0,0,1-.07-1.68,1.72,1.72,0,0,1,.34-.6c.16-.17.73-.67,1-.6s.36-.42.06-.5a2.12,2.12,0,0,0-2.78,1.06,3.51,3.51,0,0,0,0,2.53,4.34,4.34,0,0,0,.85,1.37,37.64,37.64,0,0,0-4.12,5.32q-.74-.14-1.47-.33c1-1.82,2.41-3.36,3.58-5.08.32-.46-.43-.9-.75-.44-1.21,1.79-2.66,3.37-3.7,5.28q-.76-.23-1.53-.52a35.36,35.36,0,0,1,4.53-5.89c.39-.4-.22-1-.61-.61a36.66,36.66,0,0,0-4.73,6.15v0c-.32-.14-.64-.28-1-.44a68.7,68.7,0,0,1,4.93-6.5c.36-.42-.25-1-.61-.61a70.62,70.62,0,0,0-5.08,6.7l-.47-.25-.56-.34a32.37,32.37,0,0,1,5.9-7.14c.43-.35-.18-1-.61-.61-2.47,2-4.23,4.69-6,7.3l-.78-.52c1.61-2.41,3.7-4.44,5.5-6.71.34-.43-.26-1.05-.61-.61-1.82,2.31-3.94,4.38-5.59,6.82l-.48-.36a62.56,62.56,0,0,1,5.31-7c.34-.43-.27-1.05-.61-.61a66.15,66.15,0,0,0-5.38,7c-.24-.2-.48-.41-.71-.63a15.74,15.74,0,0,1,4.78-6.05c.42-.37-.19-1-.61-.61a17.13,17.13,0,0,0-4.84,6c-.4-.4-.78-.82-1.15-1.25a26.67,26.67,0,0,1,4.4-5,.43.43,0,0,0-.61-.61,30,30,0,0,0-4.35,4.88c-.13-.18-.28-.36-.4-.55s-.12-.2-.18-.3a46.11,46.11,0,0,1,3.91-4.51c.39-.4-.22-1-.61-.61a47.5,47.5,0,0,0-3.78,4.33c-.13-.23-.25-.47-.37-.71a12.66,12.66,0,0,1,3.3-3.49c.46-.32,0-1.07-.44-.75a13.47,13.47,0,0,0-3.3,3.35c-.14-.33-.27-.66-.4-1a26.14,26.14,0,0,1,2.58-3.06c.39-.4-.22-1-.61-.61a27.57,27.57,0,0,0-2.32,2.69l-.19-.55,0-.09a.55.55,0,0,0-.12-.51,12.33,12.33,0,0,1,2.12-2.31c.44-.35-.18-1-.61-.61a11.34,11.34,0,0,0-1.88,2l-.28-1L95,29l.72-.94c.09-.12.28-.3.3-.46,0-.35-.27-.71-.63-.49l-.11.09a.42.42,0,0,0-.08.12s0,.05-.08.12l-.26.35-.38.49c-.22-.79-.44-1.58-.69-2.37-.19-.59-1.16-.22-1.34.18a9.48,9.48,0,0,0-.8,3.25.44.44,0,0,0-.6.26,9,9,0,0,1-1,2.08,15.24,15.24,0,0,0-1.48.4A24.8,24.8,0,0,1,90,29.93c.33-.45-.42-.88-.75-.44a25,25,0,0,0-1.85,3l-.87.25a27.92,27.92,0,0,1,2.3-3c.35-.43-.26-1-.61-.61A21.57,21.57,0,0,0,85.39,33c-.39.08-.79.14-1.18.19a34.08,34.08,0,0,1,2.4-3.41c.34-.43-.27-1.05-.61-.61a34.12,34.12,0,0,0-2.83,4.11,13.31,13.31,0,0,1-1.34,0,45.92,45.92,0,0,1,3.69-4.87c.35-.43-.25-1-.61-.61a44.28,44.28,0,0,0-4,5.39,11,11,0,0,1-1.34-.27.42.42,0,0,0,.31-.19c1.08-1.6,2.29-3.09,3.5-4.6.34-.43-.26-1.05-.61-.61-1.25,1.56-2.51,3.11-3.63,4.78a.37.37,0,0,0,.11.54A10.09,10.09,0,0,1,78,32.33a15.62,15.62,0,0,1,3.72-4.79c.42-.37-.19-1-.61-.61a16.24,16.24,0,0,0-3.88,5c-.23-.13-.47-.27-.69-.42,1.09-1.71,2.57-3.14,3.61-4.9a.43.43,0,0,0-.75-.44c-1,1.73-2.46,3.14-3.56,4.82a10.26,10.26,0,0,1-.82-.75c1.22-1.72,2.59-3.32,4-4.92.36-.42-.25-1-.61-.61C77,26.31,75.6,27.9,74.37,29.6c-.23-.26-.45-.53-.65-.8,1.1-1.81,2.55-3.38,3.63-5.21a.43.43,0,0,0-.75-.44c-1,1.71-2.33,3.2-3.4,4.86-.14-.22-.26-.45-.37-.67A31.19,31.19,0,0,1,76.74,22c.39-.4-.22-1-.61-.61a30.18,30.18,0,0,0-3.73,5,10,10,0,0,1-.36-1c1.13-1.7,2.31-3.36,3.4-5.09a.38.38,0,0,0,.06-.27,1.31,1.31,0,0,0,.54.27c.16,0,.47-.06.43-.27-.07-.44-.7-.65-.65-1.15a.89.89,0,0,1,.45-.6c.19-.1.09-.29-.1-.27-.54,0-1.34.23-1.3.95a1.41,1.41,0,0,0,.28.73.41.41,0,0,0-.46.19c-.93,1.48-1.93,2.91-2.9,4.36a10.31,10.31,0,0,1-.11-1.57c1.18-1.85,2.42-3.65,3.76-5.39C75.77,16.81,75,16.37,74.69,16.81ZM128.62,65.7l-.23.38-1.21.1q.8-1.06,1.61-2.11h0l1,0c-.19.26-.36.52-.54.78l-.44,0A.45.45,0,0,0,128.62,65.7Zm-18.87,4.63-.36.66-1.81,0,1.27-1.82h.48a.31.31,0,0,0,0-.62h0l.46-.65a.37.37,0,0,0,.4.29l.89,0c-.34.55-.68,1.11-1,1.68A.41.41,0,0,0,109.75,70.33Zm-4.06.29-.09,0c.22-.4.47-.79.7-1.19a2.36,2.36,0,0,1-.15.77,1.39,1.39,0,0,1-.18.31c-.08.08-.18.13-.14.12l-.05,0h-.06S105.55,70.58,105.69,70.63Zm0-2-1.58.05a1.73,1.73,0,0,1,0-.24l.64-.84,1.67-.16Zm-.36.63-.46.81-.08-.08a3.59,3.59,0,0,1-.47-.7Zm-5.4-2.2.82-1.05h1.07l-.79,1.11C100.7,67.13,100.33,67.11,100,67.07Zm.68.68-.76,1.07-1.35,0,1-1.2C99.88,67.68,100.26,67.72,100.64,67.74Zm-5.09-27.4h.69l.66.76c-.63,0-1.26,0-1.9,0Zm-1.94-1c.34-.38.69-.75,1-1.12.21.31.44.62.66.92l-.2.28C94.61,39.45,94.1,39.42,93.6,39.38ZM102,46c-.27.26-.53.52-.79.79l-1.4-.07.49-.71Zm-1.08-.86L101,45l.17.13Zm6.24,5.8q.41-.58.78-1.18h0a.4.4,0,0,0,.41-.37c.76.32,1.54.6,2.32.85l0,0-.68.89-.78,0a1.44,1.44,0,0,0,.41-.83.44.44,0,0,0-.43-.43.91.91,0,0,0-.58.35.39.39,0,0,0-.1.43l-.39.53-1,0a1.8,1.8,0,0,1,.06-.28S107.14,50.92,107.14,50.91Zm0-2.06,0,0,.09,0Zm5,2.22-1,0,.19-.25a.45.45,0,0,0,.07-.42c.36.11.73.2,1.09.29.37.39.75.78,1.15,1.16a.42.42,0,0,0-.16.21,13.78,13.78,0,0,1-.53,1.27c-1.17.05-2.35.13-3.53.2.33-.54.69-1.06,1.06-1.58l1.64,0A.43.43,0,0,0,112.07,51.06Zm10,7.13a.35.35,0,0,0,.06-.34h.22c.91.44,1.84.85,2.79,1.22l-.53.06a.46.46,0,0,0-.81-.13l-.17.23-2.51.26Zm0-6.06c.28-.39.56-.79.86-1.17a8.45,8.45,0,0,0,1-.36,12,12,0,0,0-.92,2Zm4.13,7.69.9-.1,1.2.35-.52.72a.36.36,0,0,0-.27-.08l-1.74.15c.14-.17.26-.34.4-.51A.44.44,0,0,0,126.12,59.83Zm3,1.48c.28,0,.56,0,.84,0l-.65.79-.75,0a.43.43,0,0,0,0,.87h0l-.12.15-1.52.19q.88-1.18,1.75-2.38A.39.39,0,0,0,129.07,61.31Zm-.06-.85.11-.15.45.11-.5,0Zm-1.9,1.16c-.45.61-.9,1.22-1.36,1.82l-2.23.21c.46-.63.95-1.24,1.43-1.85Zm-9,5,.08.09-.11.16-2.55.17c.49-.7,1-1.4,1.49-2.09l1.25-.08a1.77,1.77,0,0,0-.31.63A1.4,1.4,0,0,0,118.16,66.62ZM100,49.55l1.1,0a1.8,1.8,0,0,0,0,.2,1.59,1.59,0,0,0,.49.89l-.4.54Q100.08,51.15,99,51C99.3,50.51,99.64,50,100,49.55Zm-1.54-.91.76-1.11,1.25.06q-.45.53-.87,1.09Zm3.15,3.47q.87,0,1.73,0c-.39.51-.79,1-1.17,1.53-.55,0-1.1-.07-1.65-.13Zm16.32,10.23-1.31,1.78-1.88.11,1.3-1.78Zm-1.23-.8.65-.87,1.91-.13-.66.89Zm-8-1.37q-.75.12-1.51.21l.69-.85h.92a.31.31,0,0,0,0-.62h-.39l.78-.89h1l-.35.57a.4.4,0,0,0,.17.58l-.37.49-.52,0C108.71,59.57,108.58,59.9,108.68,60.16Zm.07.61-1.3,1.76-2,0q.58-.76,1.17-1.51C107.33,61,108,60.89,108.74,60.78Zm1.23-.21,1,.09c-.28.38-.55.76-.81,1.13l-1.11,0Zm-.19,3.26.5-.74a.29.29,0,0,0,.16-.24l.14-.2,1.88,0-1.29,1.83-1.86.13C109.47,64.32,109.62,64.06,109.78,63.82Zm1.41-2.06c.25-.35.5-.7.76-1,.6,0,1.19.05,1.79.06l-.66.94Zm2.34.81,1.39-.07-1.29,1.79-1.36.08Zm2.05-1-1.42.08.63-.91,1.43,0Zm-1.25-1.7c-.57,0-1.13,0-1.69,0A9.32,9.32,0,0,1,114.78,58h.85Zm-2.75-.06-1-.08,1.11-1.47a.45.45,0,0,0,.09-.26h1.52A13.32,13.32,0,0,0,111.59,59.84ZM112,55h-3.48l.32-.6,3.6-.2Q112.24,54.64,112,55Zm-3.67-1.42-1,0L108.56,52l.79,0C109,52.53,108.66,53.06,108.34,53.61Zm-.49.88-.28.55h-1.22l.38-.5Zm-1.06,3.9a.41.41,0,0,0,.49-.29l0-.11H108l-.79.92h-.91Zm0,1.14-.79,1-1,.08.86-1.06Zm-3.55-1.63-.86,1H101c.2-.17.4-.34.61-.5a.36.36,0,0,0,.33-.21l.06-.1.2-.16a.47.47,0,0,0,.06-.07Zm-.9-2.94.3-.41.64,0-.3.4Zm.66,4.57h1.78l-.89,1.12q-.92,0-1.85.05Zm1.53,1.71,1-.07-1.1,1.44-1,0Zm.76-2.33h-1.77l.08-.09a.37.37,0,0,0,.41-.21c.12-.23.27-.46.41-.69L106,58Zm.08-3.89L104,55l.31-.41,1.34,0Zm-1.42-1.29h-.68c.4-.53.81-1,1.22-1.57h.72Zm-2.33.77-.32.44-1.72,0,.4-.57C100.46,54.41,101,54.47,101.56,54.5Zm-1.28,3.28.66,0c-.43.35-.84.72-1.24,1.1h-.2C99.76,58.53,100,58.16,100.28,57.78Zm0,1.75h1.54l-.93,1.18-1.73,0C99.52,60.28,99.9,59.9,100.29,59.53Zm1.21,1.8q.92,0,1.83,0l-1.05,1.37-1.83,0Zm1.4,1.93,1,0q-.79,1.08-1.57,2.17h-1.05Zm2.07-.06,2-.05-1.47,2c-.7.08-1.41.15-2.11.2Q104.18,64.28,105,63.21Zm3.09-.07,1.16,0q-.6.87-1.17,1.75l-1.38.15Zm.67,2.29h.14a.42.42,0,0,0,.18,0l1.46-.1-1,1.37a.28.28,0,0,0-.22-.09c-.47,0-.94,0-1.42.07C108.18,66.27,108.46,65.85,108.73,65.43Zm2.9-.16,1.36-.08q-.71,1-1.38,2.07l-1.44.08Zm2.46-.15L116,65q-.76,1-1.49,2.09l-1.8.1C113.13,66.5,113.61,65.81,114.09,65.12ZM117.73,64l1.32-1.79,2.51-.18-1.31,1.82Zm4.49-2.89-2.49.18.67-.9,2.52-.25Zm1.56.74q-.7.91-1.38,1.84l-1,.08L122.68,62Zm-4.84,3.56a5.78,5.78,0,0,1,.13-.63l.53,0-.69,1A2,2,0,0,1,118.93,65.46Zm1.78-.74,1-.07c-.39.54-.78,1.08-1.16,1.63-.23-.35-.68-.09-1,.08Zm2.14-.16,2.17-.19q-.82,1.06-1.66,2.11l-2,.15C121.86,65.94,122.36,65.25,122.86,64.56Zm1.65-3.6-1.17.1.73-1,1.27-.14C125.05,60.25,124.79,60.61,124.51,61Zm-3.29-9.22-.68-.35q.52,0,1-.13Zm0,6.14-1.26,1.72-1.92.15,1.15-1.56a.36.36,0,0,0,.07-.25Zm-4.3,1.93-1.5.06L116.68,58l1.58,0ZM113,55q.23-.41.44-.83c.64,0,1.28,0,1.91-.05a.41.41,0,0,0,.41-.4q.75.59,1.54,1.15C115.87,55,114.43,55,113,55Zm.86-1.71q.19-.43.35-.87c.32.28.64.56,1,.84Zm.17-6.92-.88-.13A40.83,40.83,0,0,1,117,41.33a.39.39,0,0,0,0-.06,1.45,1.45,0,0,0,.64.11,2.28,2.28,0,0,0,.67-.14l0,0A27.87,27.87,0,0,0,114,46.39Zm-6.74,5.92-1,1.38-1.31,0c.43-.54.85-1.07,1.27-1.62h.38A1.7,1.7,0,0,0,107.3,52.32Zm-1.47-1.06h-.72c.42-.53.86-1,1.29-1.57h.5C106.56,50.24,106.2,50.76,105.83,51.26Zm.18-2.43-2,0c.21-.33.42-.67.61-1h.61c.38.22.77.42,1.16.62Zm-1.46,1.32a.51.51,0,0,0-.18-.48l.94,0q-.65.8-1.29,1.61c-.59,0-1.18,0-1.77,0l.13-.18a2.18,2.18,0,0,0,1.35-.06C104,50.91,104.53,50.55,104.54,50.15Zm-.95-2.41-.18.28-.1,0c-.1,0-.26-.12-.39-.13h-.21a3.22,3.22,0,0,0-.45.11,1.85,1.85,0,0,0-.86.55,1.39,1.39,0,0,0-.11.18l-.65,0c.29-.36.59-.72.9-1.06Zm-1.26-.93.51-.48.83.54Zm-2.5-1.69H98q.45-.5.92-1l1.1,0,.29.25ZM98.6,43.25l-2.14-.08L97.32,42l.42,0q.52.53,1,1ZM96.29,42l-.87,1.17-1.93,0c.29-.36.56-.74.84-1.11C95,42,95.63,41.95,96.29,42ZM95.82,44l2,.08q-.45.49-.89,1c-.59,0-1.17-.09-1.76-.17ZM97.3,46q1,0,1.93,0l-.45.65q-1,0-2,0Zm.89,1.53c-.25.37-.5.75-.75,1.13l-2.21,0,.84-1.11C96.78,47.46,97.48,47.47,98.19,47.49Zm-.28,2,1.05,0q-.48.67-.93,1.36c-.3,0-.6-.12-.9-.18C97.39,50.29,97.65,49.9,97.91,49.49Zm.54,2.32c.71.1,1.41.18,2.12.23l-1,1.38c-.63-.09-1.25-.21-1.86-.35ZM99,54.2l-.46.66-1.89-.08.57-.92C97.77,54,98.36,54.11,99,54.2Zm-1.44,3.46,1.06,0q-.52.62-1.07,1.2H96.33Q96.91,58.28,97.52,57.66Zm.56,1.87h1q-.52.54-1,1.1l-1-.05Zm.56,1.75,1.78,0-1.06,1.41-1.92,0Q98,62,98.63,61.28ZM100,63.34l1.82,0-1.6,2.07a13.92,13.92,0,0,1-1.56-.21Zm1.7,4.43c.62,0,1.25,0,1.88-.07a1.37,1.37,0,0,0-.1.21l-.62.82-1.89.06Zm.44-.61.83-1.17c.69,0,1.38-.1,2.08-.17L104.11,67C103.44,67.1,102.78,67.15,102.11,67.16Zm3.57-.26c0-.07,0-.12-.13-.12l-.18,0,.81-1.1,1.44-.16-.79,1.25Zm1.82.45c.56,0,1.11-.08,1.67-.09l-.94,1.32-1.47,0C107,68.19,107.25,67.76,107.5,67.35Zm-.12,1.87h.41l-.45.64A2.73,2.73,0,0,0,107.38,69.22Zm3.17,1.47,1.48,0-.19.28a.41.41,0,0,0,0,.05h0l-1.43,0Zm.5-.86q.51-.88,1.06-1.73l1.74-.09c-.42.61-.83,1.23-1.24,1.84Zm3.88-1.88,2.55-.17-1.4,2q-1.21.06-2.41.08C114.08,69.2,114.49,68.57,114.92,67.95Zm1.6,2.65,1.13-.06-.81,1.19-1.18.09Zm.64-.9,1.42-2,1.06-.07-1.36,2Zm3.58-2.15,1.86-.14-.84,1c-.36.42.25,1,.61.61s.95-1.14,1.42-1.72l1.55-.12L124,69.07c-1.53.18-3.05.34-4.58.47Zm3.8-1.16q.84-1.06,1.67-2.15l1.48-.16L126,66.27Zm5.1-3.44,0,0c.32,0,.65,0,1,0l-.18.23-.27,0a.45.45,0,0,0-.43-.18Zm.78-1,.65-.8,1-.1-.64.81Zm.51,1.92c.51-.06,1-.13,1.52-.2-.16.22-.32.43-.47.66a.41.41,0,0,0,0,.1l-1.57.19Zm.73-1,.17-.22c.5-.06,1-.11,1.51-.18l-.14.18Zm.93-1.18.48-.6a.45.45,0,0,0,.09-.2h.06c.42,0,.83.06,1.24.07l0,0c-.11.17-.23.33-.35.49ZM95.86,27.86l.07,0-.06,0Zm-3,7.34h0ZM85.7,40.29l-.21.07c.81-1.14,1.64-2.28,2.38-3.45.57-.09,1.14-.22,1.69-.36-1.25,1.85-2.55,3.67-4,5.4-.16-.13-.3-.27-.27-.44a1.07,1.07,0,0,1,.31-.52,2.75,2.75,0,0,1,.29-.39C86.14,40.42,85.91,40.22,85.7,40.29Zm-6.07-3.4c-.2.33-.4.65-.62,1a.44.44,0,0,0-.07-.14c.19-.28.36-.56.53-.85Zm-8.1,3,1,.16-.69.88-1.06-.15C71,40.44,71.27,40.14,71.53,39.84Zm-.54-1c.31-.45.62-.9.93-1.35l.36.1c-.35.44-.7.87-1.06,1.29Zm1.2.23q.51-.62,1-1.25L74,38l-.92,1.23Zm.46-2.62.18-.24.44.09-.16.22Zm2.4.13-.08.1-.87-.05.12-.16Zm-.22-.9L75,35.5l.67.28h0Zm-1-.15-.44-.08.43-.55.35.19Zm-.4,4.6.6.08-.79.84L72.79,41Zm.6-.79.9-1.2.83.1-.44.51a.71.71,0,0,0-.23,0,1.26,1.26,0,0,0-.84.61Zm2.76-1,.58,0c-.35.45-.71.89-1.1,1.3l-.52-.09C76.13,39.19,76.48,38.77,76.82,38.34ZM76,36.75l0-.07.93.06-.55.71-.22,0A.44.44,0,0,0,76,36.75Zm2.45,1.66h.16a13.57,13.57,0,0,1-1.49,1.75.42.42,0,0,0,0-.1A19.27,19.27,0,0,0,78.45,38.42Zm-1-.9.7-.93.41.09c-.18.29-.36.58-.55.86ZM71.33,33l0,0,0,0Zm.66.6a12.3,12.3,0,0,0,1.12.85l-.62.8c-.46-.11-.92-.24-1.37-.39C71.4,34.46,71.69,34,72,33.62Zm-1.34,2q.63.21,1.27.37l-.2.29c-.39-.08-.78-.19-1.17-.3ZM70.29,37l.77.28-1,1.4-.27-.08Zm-.85,3a.45.45,0,0,0,.78.07l.25-.38.08,0c-.2.22-.39.45-.6.66a.4.4,0,0,0-.12.29l-.56-.1ZM66.85,50.06a61.14,61.14,0,0,0,8.21.77.43.43,0,0,0,0-.87,60.16,60.16,0,0,1-8-.75q.19-.87.39-1.73c2.7.77,5.58.67,8.36,1.12.54.09.78-.75.23-.84-2.76-.45-5.7-.31-8.39-1.11.09-.37.17-.74.27-1.1a34.72,34.72,0,0,0,8.28.58.43.43,0,0,0,0-.87,34.21,34.21,0,0,1-8.05-.55l.34-1.27a38.41,38.41,0,0,0,8,.76.43.43,0,0,0,0-.87,37.59,37.59,0,0,1-7.76-.73L69,41.33q1.29.23,2.58.4a.36.36,0,0,0,.52.07l.58.07a.43.43,0,0,0,.73.28l.17-.18,2.82.3c.55.06.55-.81,0-.87l-2.08-.22.21-.22a1.45,1.45,0,0,0,.3.25.39.39,0,0,0,.52-.19,1.15,1.15,0,0,0-.1-.63l.94.15a.39.39,0,0,0,.35.06h.08l-.11.1c-.43.36.19,1,.61.61A16.61,16.61,0,0,0,80.56,37c.45.06.94.11,1.48.14A38.32,38.32,0,0,0,78.94,42a.43.43,0,0,0,.75.44,33.21,33.21,0,0,1,3.42-5.26c.47,0,1,0,1.45,0A53.25,53.25,0,0,1,81.06,42c-.35.43.26,1,.61.61a53.2,53.2,0,0,0,4-5.41l1.13-.1c-1.2,1.82-2.58,3.54-3.7,5.4a.43.43,0,0,0,.75.44c.21-.34.42-.68.64-1a1.36,1.36,0,0,0,1.18.69.36.36,0,0,0,.58,0c1.55-1.89,3-3.89,4.33-5.91a7,7,0,0,0,1,0,60.77,60.77,0,0,0-4.77,7,.43.43,0,0,0,.75.44,60.24,60.24,0,0,1,5.21-7.58,5,5,0,0,0,.79-.16c.21.38.42.75.65,1.12q-.81.86-1.59,1.75l-.39,0c-.53-.08-.76.69-.27.82A48.8,48.8,0,0,0,88,45.35c-.3.47.45.91.75.44a48.08,48.08,0,0,1,4.19-5.6q.8.09,1.6.12l-.62.81-1,0a.43.43,0,0,0,0,.87h.34c-1.41,1.81-2.87,3.59-4.35,5.33-.36.42.25,1,.61.61,1.12-1.32,2.23-2.66,3.32-4l.07,0,1.89,0-.58.78-.1,0a.45.45,0,0,0-.43.73l-.65.88c-.24-.23-.84-.52-.3-.79.25-.12.06-.35-.16-.28s-1.06.32-.8.83a1.12,1.12,0,0,0,1,.59c-.66.91-1.3,1.83-1.9,2.79-.3.47.45.91.75.44.92-1.46,1.93-2.85,3-4.23q.83.14,1.66.2l-.57.73-.85,0c-.55,0-.56.9,0,.87H95c-.7.92-1.37,1.86-2,2.8-.32.46.42.89.75.44l1.07-1.49a.39.39,0,0,0,.34.18l1.82,0c-.22.35-.44.69-.65,1a.44.44,0,0,0-.4.71c-.3.52-.6,1-.87,1.56s.49.94.75.44.64-1.17,1-1.74l.84.17c-.59.93-1.16,1.87-1.73,2.79a.39.39,0,0,0-.05.29c-3.14-.14-6.28-.33-9.42-.59C79.88,53.62,73,52.37,66.5,51.88,66.61,51.27,66.73,50.67,66.85,50.06Zm-.74,4.5c0-.12,0-.23.05-.34l1,.26L66,55.35C66.06,55.09,66.08,54.83,66.11,54.56Zm-.27,2.75h0l-.05,0ZM65.74,59l1,.16q-.54.4-1.06.83C65.69,59.7,65.72,59.37,65.74,59Zm2-.57-1.65-.24q.48-.36,1-.7c.58.09,1.17.16,1.75.22Zm2.06,1.13a.39.39,0,0,0-.2.07c-.42.28-.83.58-1.24.88-.61,0-1.21-.07-1.82-.12q.69-.55,1.42-1.05Zm-4.2,1.59h0c.56.06,1.11.12,1.67.16-.41.32-.83.63-1.23,1l-.46-.12C65.62,61.86,65.62,61.53,65.64,61.2Zm0,2.68.7-.6c.43.1.87.17,1.3.23-.68.42-1.35.87-2,1.34C65.59,64.52,65.59,64.19,65.59,63.87Zm0,2,.07-.05c.68.12,1.36.21,2,.28-.63.39-1.25.78-1.86,1.2l-.21,0C65.63,66.84,65.62,66.38,65.61,65.91Zm.09,2.62.4-.3c.48.06,1,.11,1.44.14a14,14,0,0,0-1.5,1l-.31-.08C65.71,69,65.7,68.77,65.69,68.53Zm6,36.88a31.77,31.77,0,0,0,4.51-.38,3.35,3.35,0,0,0,.11,1.48c-1.43.13-2.86.23-4.29.25Zm72.12,122.52v0h0Zm-1.59-7.52a5.26,5.26,0,0,0,0,1.2c-.06.21-.12.42-.15.63a1.05,1.05,0,0,0-.48.63c-2.12,7.32-10,8.13-16.52,9-7.81,1.05-15.82,1.95-23.72,1.6a85.45,85.45,0,0,1-10.88-1c-2.14-.68-4.67-1-6.44-1.77a17.62,17.62,0,0,1-4.23-2.7c2.07-4.54,3.11-9.77,4.06-14.61a30.66,30.66,0,0,0,3,.89c6.88,1.7,14.16,2.07,21.22,2.1a110.77,110.77,0,0,0,22.69-1.79c2.15-.44,6.85-1.13,8.91-3.2a8.41,8.41,0,0,0,1.12-.38Q141.34,215.73,142.19,220.4Zm-1.83-12.12.1-.28,0,.44A.84.84,0,0,0,140.36,208.29Zm11.59-101.8c-4.35-.11-8.65.74-13,.56-.56,0-.56.85,0,.87,4.3.18,8.55-.65,12.84-.56l-.31,1.68a.43.43,0,0,0-.2-.05c-4.26-.16-8.56,1.3-12.77.29-.54-.13-.77.71-.23.84,4.31,1,8.65-.43,13-.26h0l-.26,1.37c-4.22.25-8.76,2.14-12.83.54-.52-.2-.74.64-.23.84,4.09,1.61,8.66-.21,12.89-.5q-.39,2-.78,4c-3.71.31-7.44.34-11.17.35a.43.43,0,0,0,0,.87c3.67,0,7.33,0,11-.33l-.43,2.12a28.93,28.93,0,0,1-11.27.11c-.54-.11-.77.72-.23.84a29.67,29.67,0,0,0,11.31,0l-.36,1.78c-3.31.26-6.66.75-9.9-.11a.43.43,0,0,0-.23.84c3.26.87,6.62.41,9.95.15l-.26,1.25c-3.15.18-6.38.69-9.46,0-.54-.13-.77.71-.23.84,3.11.73,6.34.26,9.51.08l-.27,1.29H148c-3.32.33-6.69,1.07-10,.57-.54-.08-.78.75-.23.84,3.39.52,6.78-.18,10.16-.52l-.23,1.12a79.74,79.74,0,0,1-10.37.48.43.43,0,0,0,0,.87,83.75,83.75,0,0,0,10.18-.47l-.23,1.1a48,48,0,0,1-5.12.73c-1.46.11-3.34.35-4.61-.53-.46-.32-.89.44-.44.75,1.4,1,3.46.79,5.05.64s3.3-.41,4.94-.69l-.35,1.73a28.14,28.14,0,0,1-9.85.28c-.54-.11-.78.73-.23.84a28.45,28.45,0,0,0,9.89-.22l-.37,1.8c-3.23.6-6.69,1.33-9.85.34-.53-.17-.76.67-.23.84,3.18,1,6.63.34,9.89-.26l-.33,1.65c-3.42.26-6.84.5-10.27.52a.43.43,0,0,0,0,.87c3.37,0,6.73-.25,10.09-.51l-.31,1.57c-3.26,0-6.52.25-9.78.27a.43.43,0,0,0,0,.87c3.21,0,6.4-.24,9.61-.27l-.32,1.63c-3.19.06-6.38.23-9.57.25a.43.43,0,0,0,0,.87c3.14,0,6.27-.19,9.4-.25l-.28,1.52c-3.1.49-7.11.95-9.83-.2-.51-.22-.74.62-.23.84,1.66.7,3.76.58,5.51.53,1.46,0,2.93-.13,4.38-.3l-.27,1.54c-3.3-.57-6.78.56-9.94-.67-.52-.2-.74.64-.23.84,3.22,1.25,6.7.08,10,.68l-.26,1.51h-.05c-3.34,0-6.74.53-10-.26-.54-.13-.77.71-.23.84,3.34.8,6.77.34,10.17.29q-.13.8-.27,1.61H132.91a.43.43,0,0,0,0,.87h9.92q-.33,2.09-.63,4.17a.39.39,0,0,0-.24-.08c-2.93,0-5.85.26-8.77.28a.43.43,0,0,0,0,.87c2.93,0,5.85-.26,8.77-.28a.42.42,0,0,0,.13,0q-.25,1.79-.48,3.57h-9.25a.43.43,0,0,0,0,.87h9.14q-.08.67-.16,1.34c-3-.39-6.18.57-9.13-.26a.43.43,0,0,0-.23.84c3,.85,6.19-.17,9.26.27-.05.45-.11.91-.16,1.36h-8.72a.43.43,0,0,0,0,.87H141c-.06.56-.12,1.13-.18,1.69-2.52.14-5.1.37-7.51-.34a.43.43,0,0,0-.23.84c2.46.72,5.08.51,7.65.37q-.08.82-.15,1.64c-2.73.15-5.47.17-8.2.17a.43.43,0,0,0,0,.87c2.71,0,5.42,0,8.12-.17q-.09,1.08-.18,2.16a.39.39,0,0,0-.27-.1h-8.22a.43.43,0,0,0,0,.87H140a.4.4,0,0,0,.21-.06c-.05.72-.1,1.44-.15,2.16a25.62,25.62,0,0,1-9-.47.43.43,0,0,0-.23.84,26.42,26.42,0,0,0,9.17.5q-.07,1.13-.13,2.26c-2.56.11-5.6.63-7.89-.52-.5-.25-.93.5-.44.75,2.47,1.24,5.56.74,8.28.63q0,1-.08,1.91c-2.79.17-5.72.74-8.41,0a.43.43,0,0,0-.23.84c2.78.79,5.75.23,8.61.06,0,.44,0,.89,0,1.33-2.64.35-5.79,1.35-8.24,0-.49-.27-.92.48-.44.75,2.63,1.43,5.83.47,8.65.1,0,.63,0,1.25,0,1.88a.43.43,0,0,0-.17,0c-2.56,0-5.1.41-7.65.51a.34.34,0,0,0-.38-.38,62.51,62.51,0,0,1-9.51,1.09.31.31,0,0,0,0,.62,57.36,57.36,0,0,0,8.64-.94.41.41,0,0,0,.4.52c2.84,0,5.66-.52,8.5-.55a.45.45,0,0,0,.16,0c0,.49,0,1,0,1.48-2.81.74-5.88,1.39-8.7.81a.31.31,0,0,0-.31-.5,37.5,37.5,0,0,1-9.24,1.09.31.31,0,0,0,0,.62,39.13,39.13,0,0,0,8.64-.95.4.4,0,0,0,.29.5c3,.76,6.29.1,9.32-.68q0,.82,0,1.64a21.49,21.49,0,0,1-7.73.13c-.54-.11-.78.73-.23.84a22.35,22.35,0,0,0,8-.09c0,.4,0,.79,0,1.19-3,.13-6,1-9,.81-.56,0-.55.83,0,.87,3,.21,6-.68,9-.81h0c-.12.3-.23.61-.32.92a50.88,50.88,0,0,1-8.68,1.21.43.43,0,0,0,0,.87,49.21,49.21,0,0,0,8.45-1.15,6.18,6.18,0,0,0-.09,1.43c-2.79.18-5.56,1-8.36.79-.56,0-.55.83,0,.87,2.85.22,5.66-.64,8.49-.8,0,0,0,.06,0,.09-.16.64-.27,1.3-.38,2a29.24,29.24,0,0,1-4,.49,12.8,12.8,0,0,1-3.09.13l2.32-.36c.39-.06.23-.65-.16-.6-4.18.6-8.28,1.54-12.53,1.37-.4,0-.4.6,0,.62a45.09,45.09,0,0,0,9.19-.84.42.42,0,0,0,.19.35c1,.68,3,.28,4.09.2a36.76,36.76,0,0,0,3.82-.44c-.07.39-.16.78-.26,1.16-2,.3-4,.82-6.05,1a.3.3,0,0,0-.37-.37,39.6,39.6,0,0,1-10.88,1.64.31.31,0,0,0,0,.62,40.09,40.09,0,0,0,10-1.39.4.4,0,0,0,.42.41,49.55,49.55,0,0,0,6.62-1,13.44,13.44,0,0,1-.73,1.71c-1.92.2-3.82.53-5.73.91-.55.11-.31.95.23.84,1.64-.33,3.28-.61,4.94-.81a7.33,7.33,0,0,1-1,1.17l-.68.64a29,29,0,0,1-6.95,2.28,119.83,119.83,0,0,1-16.65,1.78c-2.05-.53-4.44-.32-6.48-.38a94.23,94.23,0,0,1-11.64-.69c-3-.47-6.38-.92-9.06-2.57.06-.34.11-.67.16-1a16.52,16.52,0,0,0,7,.14c.55-.11.31-.95-.23-.84a15.54,15.54,0,0,1-6.66-.16c.06-.44.12-.88.18-1.33a47.79,47.79,0,0,0,6.87.14.43.43,0,0,0,0-.87,45.77,45.77,0,0,1-6.76-.13q.09-.8.17-1.6a63.6,63.6,0,0,0,7.69.12.43.43,0,0,0,0-.87,60.63,60.63,0,0,1-7.61-.11q.07-.82.12-1.64c2.63.5,5.38.16,8,.13a.43.43,0,0,0,0-.87c-2.65,0-5.39.38-8-.14,0-.48,0-1,.05-1.45,0-.11,0-.22,0-.32a62.18,62.18,0,0,0,8.22.58.43.43,0,0,0,0-.87,61.09,61.09,0,0,1-8.21-.58c0-.53,0-1.06,0-1.58,2.54.49,5.27-.06,7.81.54.54.13.77-.71.23-.84-2.58-.6-5.47,0-8-.56,0-.61,0-1.21,0-1.82,2.61.33,5.25,0,7.85.46.54.09.78-.74.23-.84-2.69-.46-5.42-.11-8.1-.5,0-.42,0-.83,0-1.25a44.12,44.12,0,0,0,8-.16c.55,0,.56-.92,0-.87a42.62,42.62,0,0,1-8.07.17c0-.48,0-1-.08-1.44a47.64,47.64,0,0,0,8.15.22.43.43,0,0,0,0-.87,43.64,43.64,0,0,1-8.2-.23c0-.47-.06-.95-.09-1.42,2.68-.1,5.34.28,8,.31a.43.43,0,0,0,0-.87c-2.7,0-5.38-.42-8.08-.31,0-.44-.06-.87-.1-1.31h7.91a.43.43,0,0,0,0-.87h-8q-.08-.93-.17-1.86c2.35.06,4.7.23,7.05.25a.43.43,0,0,0,0-.87c-2.38,0-4.75-.19-7.13-.25q-.09-.89-.18-1.78a57,57,0,0,0,6.76-.13.43.43,0,0,0,0-.87,49.07,49.07,0,0,1-6.85.12l-.16-1.48c2.43-.06,4.85-.23,7.29-.25a.43.43,0,0,0,0-.87c-2.46,0-4.92.19-7.38.25l-.08-.75-.07-.58a24.59,24.59,0,0,0,7.09-.27c.55-.1.32-.94-.23-.84a23.35,23.35,0,0,1-7,.22L83.73,173c2.23,0,4.46.06,6.68.27.55.05.55-.82,0-.87-2.26-.21-4.52-.26-6.78-.27L83.5,171c2.29.17,4.63-.18,6.91-.21a.43.43,0,0,0,0-.87c-2.3,0-4.7.42-7,.21l-.22-1.85c2.32-.06,4.63-.24,7-.25a.43.43,0,0,0,0-.87c-2.36,0-4.71.2-7.06.26l-.14-1.17a35.65,35.65,0,0,0,7.21-.42c.55-.06.55-.93,0-.87a32.89,32.89,0,0,1-7.31.41c-.05-.42-.1-.85-.16-1.27a61.34,61.34,0,0,0,7.19.08.43.43,0,0,0,0-.87,55.66,55.66,0,0,1-7.3-.09c0-.33-.09-.65-.13-1,2.13.39,4.6-.3,6.61-.55.55-.07.55-.94,0-.87-2,.25-4.61,1-6.73.5q-.15-1.12-.29-2.25c2.52.17,5.07-.42,7.57-.69.55-.06.55-.93,0-.87-2.52.28-5.13.92-7.68.69-.06-.45-.12-.9-.18-1.34,2.25,0,4.51-.57,6.77-.41.56,0,.55-.83,0-.87-2.28-.16-4.61.53-6.89.43-.06-.44-.12-.87-.19-1.31,2.17.06,4.36-.42,6.52-.45a.43.43,0,0,0,0-.87c-2.18,0-4.44.56-6.65.46-.06-.46-.13-.91-.19-1.37.43,0,.85,0,1.23,0,1.78-.09,3.55-.37,5.33-.4a.43.43,0,0,0,0-.87c-1.49,0-3,.25-4.46.35a19.16,19.16,0,0,1-2.22.11c-.08-.58-.17-1.15-.26-1.73,2,0,4.08-.32,6.12-.35a.43.43,0,0,0,0-.87c-2.08,0-4.17.34-6.25.35l-.31-2c2.28-.06,4.55-.23,6.83-.25a.43.43,0,0,0,0-.87c-2.33,0-4.64.19-7,.25-.08-.53-.16-1.06-.25-1.59,2.41,0,4.81-.25,7.22-.27a.43.43,0,0,0,0-.87c-2.46,0-4.91.25-7.36.27-.07-.45-.15-.9-.23-1.35,2.26,0,4.51-.24,6.77-.26a.43.43,0,0,0,0-.87c-2.31,0-4.61.22-6.91.26l-.14-.81c2.17-.08,4.34-.3,6.5-.52.55-.06.55-.92,0-.87-2.21.22-4.43.45-6.65.52l-.28-1.62a45.82,45.82,0,0,0,7-.8c.55-.11.31-.94-.23-.84a44.48,44.48,0,0,1-7,.78c-.13-.72-.26-1.44-.4-2.16,2.14-.07,4.26-.28,6.39-.52.55-.06.55-.93,0-.87-2.18.24-4.36.46-6.55.53-.06-.32-.12-.65-.18-1A49.63,49.63,0,0,1,83,133a.43.43,0,0,0,0-.87,50,50,0,0,0-5.24.36c-.11-.57-.23-1.13-.34-1.7h5a.43.43,0,0,0,0-.87H77.25L77,128.86a45.6,45.6,0,0,0,4.88-.27c.55-.06.55-.93,0-.87a46.77,46.77,0,0,1-5.05.27c-.09-.42-.17-.85-.26-1.27,1.77,0,3.54-.3,5.31-.33a.43.43,0,0,0,0-.87c-1.83,0-3.66.4-5.49.33l-.25-1.13a25.93,25.93,0,0,0,5.58-.56c.54-.13.31-1-.23-.84a25.28,25.28,0,0,1-5.54.53l-.24-1.08c2-.06,3.93-.28,5.89-.53.54-.07.55-.94,0-.87a61,61,0,0,1-6.08.54l-.31-1.38c2.23-.13,4.44-.53,6.67-.77.55-.06.55-.93,0-.87-2.29.25-4.57.66-6.87.78l-.26-1.1c1.74-.16,3.46-.51,5.2-.74.54-.07.55-.94,0-.87-1.8.24-3.59.6-5.4.75l-.39-1.63c2-.17,4-.25,6.06-.46.55-.06.55-.93,0-.87-2.08.22-4.18.29-6.26.48l-.25-1.05c2.18-.14,4.34-.53,6.51-.76.55-.06.55-.93,0-.87-2.24.24-4.47.65-6.72.77l-.39-1.65a34.91,34.91,0,0,0,5.31-.75.43.43,0,0,0-.23-.84,35.79,35.79,0,0,1-5.28.74l-.24-1a.41.41,0,0,0,.16,0,35.24,35.24,0,0,0,7.24-.84c.54-.12.31-1-.23-.84a34.16,34.16,0,0,1-7,.81.4.4,0,0,0-.32.15l-.36-1.5c1.5,0,3-.14,4.49-.28a2.17,2.17,0,0,0,1.19.86c.61.18,1.74.19,2.1-.42.06-.11-.06-.2-.16-.21-.62,0-1.24.32-1.85,0a1.55,1.55,0,0,1-.46-.34l1.68-.18c.55-.06.55-.93,0-.87l-2.16.23c0-.06,0-.12-.06-.19a5.57,5.57,0,0,1-.13-1.35c.46-.09.92-.19,1.37-.32a.43.43,0,0,0-.23-.84c-.34.1-.69.18-1,.25a2.37,2.37,0,0,1,.39-.92c.06-.08-.06-.09-.11,0a3.26,3.26,0,0,0-.76,1.06,29.86,29.86,0,0,1-5,.45l-.53-2.28c2.29-.22,4.57-.4,6.87-.42a.43.43,0,0,0,0-.87c-2.36,0-4.72.21-7.07.44l-.28-1.23a33.74,33.74,0,0,0,6.64-.56c.55-.11.31-1-.23-.84a33.2,33.2,0,0,1-6.61.53l-.33-1.5a29.13,29.13,0,0,0,8-.67c.55-.1.32-.94-.23-.84a26.79,26.79,0,0,1-8,.62l-.29-1.37c2.61,0,5.2-.35,7.81-.6.55-.05.55-.92,0-.87a79.71,79.71,0,0,1-8,.6l-.32-1.55c2.5.18,5-.34,7.49-.39a.43.43,0,0,0,0-.87c-2.56,0-5.11.63-7.67.38-.1-.49-.2-1-.29-1.48,2.73.31,5.48-.18,8.24-.23a.43.43,0,0,0,0-.87c-2.8,0-5.62.6-8.4.21q-.17-.9-.33-1.8a50.65,50.65,0,0,0,8.3-.31c.55-.08.32-.92-.23-.84a49.84,49.84,0,0,1-8.23.28c-.05-.3-.1-.6-.15-.89,2.92.36,5.82-.14,8.77-.19a.43.43,0,0,0,0-.87c-3,.05-5.95.59-8.92.15-.08-.47-.16-.95-.23-1.42a56,56,0,0,0,10-.35c.54-.07.55-.94,0-.87a56.17,56.17,0,0,1-10.1.34c-.08-.53-.16-1.05-.23-1.58a42,42,0,0,0,10.45-.39c.55-.08.32-.92-.23-.84a40.13,40.13,0,0,1-10.33.35q-.12-.91-.23-1.82a11.62,11.62,0,0,0,3.63.79,2.14,2.14,0,0,0,.08.91c.09.32.79.33,1,.2a3.23,3.23,0,0,0,.62-.46c.1-.09.11-.22,0-.27a.84.84,0,0,0-.54,0,.94.94,0,0,0-.34.15,1.83,1.83,0,0,1,0-.48,40.51,40.51,0,0,0,7.2-.72c.55-.09.32-.92-.23-.84a40.93,40.93,0,0,1-6.71.7,2.58,2.58,0,0,1,.14-.25c.12-.18-.16-.23-.27-.14a5.75,5.75,0,0,0-.47.38,10.52,10.52,0,0,1-4.15-.92h-.05c-.05-.46-.1-.92-.15-1.38,4.2.06,8.39.48,12.6.27.55,0,.56-.9,0-.87-4.24.21-8.46-.22-12.69-.27,0-.44-.08-.89-.12-1.33,4.06.73,8.17.3,12.26.26a.43.43,0,0,0,0-.87c-4.08,0-8.18.51-12.22-.26H66c0-.09,0-.18,0-.27l.66-.51c3.72.05,7.44.24,11.16.26a.43.43,0,0,0,0-.87c-3.35,0-6.7-.17-10-.24l.25-.19c.44-.33,0-1.09-.44-.75l-1.22.92h-.48c0-.39-.05-.78-.08-1.18l.41-.31c3.72.76,7.51.45,11.31.42a.43.43,0,0,0,0-.87c-3.45,0-6.9.29-10.29-.26a11,11,0,0,1,1.6-.86.35.35,0,0,0,.21-.23c2.55.11,5.1,0,7.66,0a.43.43,0,0,0,0-.87c-3.16,0-6.35.15-9.5-.12q1-.64,2-1.24c.72,0,1.45.05,2.18.06a1.7,1.7,0,0,0,1.44,1.29c.07,0,.24-.1.15-.18a6.68,6.68,0,0,1-.84-.57,1.55,1.55,0,0,1-.33-.53c1.55,0,3.1,0,4.64,0a.43.43,0,0,0,0-.87,69.77,69.77,0,0,1-9.76-.26q1.16-.81,2.41-1.5c2.26.14,4.55,0,6.8.14.56,0,.55-.83,0-.87-2-.14-4,0-6-.11a.44.44,0,0,0-.61-.24l-.33.19q-.86-.06-1.71-.21c.48-.38,1-.76,1.47-1.12,2.41.13,4.82.15,7.24.16a.43.43,0,0,0,0-.87c-2,0-4.07,0-6.1-.09l.29-.2a.46.46,0,0,0-.1-.81c1.6.17,3.21.3,4.82.31a.43.43,0,0,0,0-.87,52,52,0,0,1-5.71-.42l1.23-.77C72.16,58,74,58,75.88,58a.43.43,0,0,0,0-.87c-1.6,0-3.21,0-4.81-.08a.42.42,0,0,0-.62-.27L70.1,57c-.62,0-1.24-.1-1.85-.17a19.34,19.34,0,0,1,1.82-.95c.51-.23.07-1-.43-.75a20.16,20.16,0,0,0-2.73,1.51L66,56.46l2.3-1.74a147.46,147.46,0,0,0,14.94,1.83c3.34.36,6.69.63,10,.85l-.09.15a18.84,18.84,0,0,1-1.85,2.6c-.39.4.22,1,.61.61a13.13,13.13,0,0,0,1.36-1.83c.23-.35.46-.7.7-1l.23-.33h0a.38.38,0,0,0,.16-.07l1.94.13a25.65,25.65,0,0,0-3.44,4.28c-.29.48.45.91.75.44a20.75,20.75,0,0,1,2.12-2.83l.11,0h1a28.71,28.71,0,0,0-3.17,3.61c-.32.46.43.89.75.44a20.42,20.42,0,0,1,2.06-2.46.3.3,0,0,0,.17.07l.83,0a45.87,45.87,0,0,0-3.4,4.8c-.3.47.45.91.75.44.66-1,1.34-2.08,2.07-3.08l1.92,0L97.67,65a.32.32,0,0,0-.15.2l-.91,1.23c-.33.45.42.88.75.44l.87-1.18a13.69,13.69,0,0,0,1.51.24l-.77,1a10.39,10.39,0,0,1-1.09-.27c-.38-.12-.54.48-.16.6s.54.15.81.21c-.61.75-1.22,1.49-1.86,2.21-.37.42.24,1,.61.61s.55-.64.82-1a.27.27,0,0,0,.25.14l1.09,0c-.17.42.49.76.79.34l.26-.36,1.89-.05c-.17.42.36.91.67.5l.41-.54h0a3.19,3.19,0,0,0,.6,1.07,3.24,3.24,0,0,0,.82.68c-2.27.09-4.53.21-6.8.23a.31.31,0,0,0,0,.62c2.66,0,5.32-.18,8-.27l-.4.57c-.32.46.43.89.75.44l.73-1,1.94,0c-.18.35-.36.69-.53,1a.46.46,0,0,0,.49.65c-3.09.21-6.19.75-9.22,0a.31.31,0,0,0-.16.6c4,1,8.09-.18,12.15,0,.4,0,.4-.6,0-.62a24.37,24.37,0,0,0-2.76.05.37.37,0,0,0,.25-.21c.24-.5.5-1,.76-1.48.58,0,1.17,0,1.75.05a.27.27,0,0,0,.22-.08.42.42,0,0,0,.57-.15c.16-.24.33-.48.49-.72q1.18,0,2.36-.06l-.88,1.23c-1.19.07-2.38.12-3.58.14a.43.43,0,0,0,0,.87c1.14,0,2.28-.06,3.41-.13a5.74,5.74,0,0,0-.73.71l-.38-.05c-.54-.09-.78.74-.23.84l.13,0a2.56,2.56,0,0,0-.17,1,3.56,3.56,0,0,0,.56,1.94.42.42,0,0,0,.33.39,2,2,0,0,0,2.92,0c3.17-.17,6.32-.73,9.5-.79a.43.43,0,0,0,0-.87c-3.06.06-6.09.58-9.14.77v0c.06-.42-.64-.43-.86-.24a2,2,0,0,0-.25.32q-.83,0-1.66,0l-.06-.1a3.65,3.65,0,0,1-.27-.71c4.18-.28,8.35-.57,12.5-1.08.55-.07.55-.94,0-.87-4.2.51-8.42.8-12.64,1.09a4.11,4.11,0,0,1,0-.66c4.1.44,8.16-.87,12.19-1.5.55-.09.32-.92-.23-.84-3.88.61-7.82,1.91-11.77,1.5a2.49,2.49,0,0,1,.39-.69.43.43,0,0,0,.44-.12c4-.26,7.92-.79,11.88-1.22.55-.06.55-.93,0-.87-3,.32-5.94.7-8.92,1l.8-1.17q2.62-.2,5.24-.52a.46.46,0,0,0,.39,0q2.27-.28,4.53-.6a.38.38,0,0,0,.19-.08c2.88-.31,5.74-.78,8.59-1.3.55-.1.32-.94-.23-.84-3.05.55-6.12,1.06-9.21,1.36a.43.43,0,0,0-.24.11l-2.86.38,1.35-1.82,1.37-.11c-.13.23-.28.46-.4.7-.26.5.49.94.75.44s.39-.69.59-1c3.3.45,6.56-.48,9.86-.55a.43.43,0,0,0,0-.87c-2.79.06-5.57.78-8.36.68a.37.37,0,0,0-.41-.41l-.42,0,.26-.37c2.71-.3,5.4-.73,8.11-1,.55-.05.55-.92,0-.87-1.59.16-3.18.37-4.76.58l.6-.8c1.29-.21,2.58-.43,3.89-.57.55-.06.55-.93,0-.87-1,.11-2.08.27-3.12.44l.14-.18q1.41-.23,2.82-.51c.55-.11.31-.95-.23-.84l-1.92.36a.35.35,0,0,0-.06-.3,20.64,20.64,0,0,0,7.46-1.3.42.42,0,0,0,.7.17c.26-.26.5-.53.76-.8l.5-.25a.38.38,0,0,0,.36.21l1.11,0-.66.82c-.88.11-1.76.21-2.65.27-.55,0-.56.91,0,.87.83-.06,1.65-.15,2.48-.25a.36.36,0,0,0,.57,0l.05-.06,1.09-.15c-.44.56-.88,1.12-1.34,1.67a.46.46,0,0,0-.09.19,12.87,12.87,0,0,1-3.46-.3c-.54-.13-.77.71-.23.84a14.8,14.8,0,0,0,5.11.21l-1,1.1a31.89,31.89,0,0,1-3.46,0c-.56,0-.55.84,0,.87.9,0,1.79,0,2.68,0-.27.41.29,1,.64.56l.55-.62c.78-.05,1.55-.13,2.33-.22-.28.32-.54.66-.82,1a29,29,0,0,1-5.11.37c-.56,0-.56.85,0,.87a26.63,26.63,0,0,0,4.3-.26c-.21.26-.43.5-.63.76a.46.46,0,0,0,0,.51,26.92,26.92,0,0,1-3.08.06c-.56,0-.56.84,0,.87a30.89,30.89,0,0,0,5-.25c-.28.35-.58.68-.85,1-1.29.14-2.58.25-3.89.27a.43.43,0,0,0,0,.87c1.24,0,2.48-.12,3.71-.25a.35.35,0,0,0,.57,0l0-.06,2.63-.31c-.71.7-1.4,1.42-2.06,2.17a45.2,45.2,0,0,1-5.44.08c-.56,0-.55.84,0,.87a43.68,43.68,0,0,0,4.63,0c-.35.42-.67.86-1,1.31-1.3,0-2.6.05-3.91.05a.43.43,0,0,0,0,.87c1.21,0,2.42,0,3.62,0a.46.46,0,0,0,.72,0q1.23,0,2.46-.15-.77.89-1.52,1.8c-1.62.14-3.24.32-4.85.6-.55.09-.32.93.23.84,1.28-.22,2.56-.38,3.85-.51l-.84,1c-.35.43.26,1.05.61.61.47-.59,1-1.16,1.44-1.75.94-.08,1.89-.13,2.83-.18-.75.75-1.49,1.51-2.21,2.28-2.2.13-4.4.14-6.61.14a.43.43,0,0,0,0,.87c1.94,0,3.88,0,5.81-.11-.57.65-1.13,1.32-1.66,2a19.21,19.21,0,0,1-4.58-.27c-.54-.11-.78.73-.23.84a20,20,0,0,0,4.62.29.47.47,0,0,0,.6,0c.7,0,1.4-.11,2.09-.19l-2.1,2.24c-2.07.08-4.13.13-6.2.14a.43.43,0,0,0,0,.87c1.78,0,3.56-.05,5.35-.11l-1,1c-.39.4.22,1,.61.61q.82-.83,1.62-1.68l1.9-.08q-1,1.07-1.92,2.15c-2,0-4,0-6,0a.43.43,0,0,0,0,.87c1.79,0,3.57,0,5.35,0-.06.37.41.74.71.39l.35-.4c.93,0,1.87,0,2.8-.07l-1.9,2c-2.79.19-5.6.2-8.41.21a.43.43,0,0,0,0,.87c2.52,0,5,0,7.54-.16l-1.44,1.49a19.27,19.27,0,0,1-6.53-.25c-.54-.13-.77.71-.23.84a18.64,18.64,0,0,0,5.85.35l-.7.72c-.39.4.22,1,.61.61l1.42-1.46c.89-.1,1.78-.22,2.68-.34-.58.69-1.15,1.39-1.72,2.1a27.76,27.76,0,0,1-9-.07c-.54-.12-.77.72-.23.84a27,27,0,0,0,8.48.17l-.17.21c-.34.44.27,1.05.61.61s.52-.64.77-1l2.52-.3-1.52,1.76c-1.08.21-2.17.41-3.26.56-2.09.29-5.24,1-7.11-.37-.45-.33-.89.43-.44.75,1.89,1.36,4.8.84,6.93.58,1-.12,2-.29,3-.48l-.27.32c-.36.42.25,1,.61.61l1-1.19,2.7-.52c-.5.66-1,1.31-1.54,1.94-3.87.65-8,1.7-11.82.69a.43.43,0,0,0-.23.84c3.66,1,7.51.15,11.21-.51a.43.43,0,0,0,.72.4c.19-.2.38-.41.56-.62l.62-.1c.42-.06.38-.56.1-.76.37-.46.73-.94,1.09-1.41Q152.57,103.06,151.95,106.48ZM70.87,80.26V80.2l0,0ZM150,91.56l1.87-2c.79-.05,1.57-.11,2.36-.2-.63.62-1.23,1.26-1.83,1.9C151.61,91.4,150.81,91.49,150,91.56Zm1.47.71c-.38.42-.75.86-1.13,1.3l-2.59.35,1.35-1.41C149.91,92.44,150.7,92.37,151.48,92.27Zm0-3.52q-1.45.09-2.9.11,1-1.11,2-2.2l3-.15Zm-1.3-2.94-1.9.09,2.22-2.37,2.32-.36C151.92,84,151,84.91,150.19,85.81Zm-.12-3.08c-.75.1-1.5.19-2.26.25q.82-1,1.7-2c.81-.05,1.61-.13,2.41-.22Zm.31-2.67q1.09-1.14,2.22-2.26l2.44-.11q-1.1,1-2.16,2.1C152,79.9,151.22,80,150.38,80.06Zm3,17.84-.31.39a.43.43,0,0,0-.3-.06l-2.19.41L152,97l1.44-.13.11,0Zm.28-1.83a.37.37,0,0,0-.23-.06l-.6.05c.33-.37.66-.75,1-1.12Zm.39-2.61q-1.27,1.34-2.49,2.73L149,96.5q.88-1.08,1.79-2.12c.8-.1,1.6-.19,2.4-.25.55,0,.56-.91,0-.87s-1,.09-1.55.15c.39-.44.79-.88,1.2-1.31l1.29-.2a.37.37,0,0,0,.19-.1C154.25,92.36,154.17,92.91,154.09,93.46Zm.3-2.12a.44.44,0,0,0-.49-.27h-.09c.24-.25.47-.5.71-.74C154.48,90.67,154.44,91,154.39,91.33Zm.38-2.88q-1,.13-2,.22l2.13-2.22H155C154.93,87.11,154.85,87.78,154.77,88.45Zm.41-3.54-.67.69-3.07.16c.95-1,1.93-1.93,3-2.83l.84-.13a.4.4,0,0,0,.17-.06Q155.29,83.82,155.18,84.91Zm.28-2.74-.06-.07.07-.06Zm.11-1.31q-.8.61-1.55,1.26l-2.56.41q.91-1,1.84-1.92,1.17-.17,2.33-.41C155.61,80.41,155.59,80.63,155.57,80.86Zm.13-1.57c-.45.1-.91.19-1.37.28q.71-.7,1.44-1.38C155.75,78.55,155.73,78.92,155.7,79.29Zm.18-2.51-2.36.11c.84-.83,1.67-1.66,2.49-2.51C156,75.18,155.93,76,155.88,76.78Zm.19-3.73c-1.24,1.33-2.53,2.62-3.83,3.9q-1.5.07-3,.18c.52-.62,1.05-1.22,1.59-1.83,1.1-.12,2.2-.28,3.29-.5.55-.11.31-.95-.23-.84-.73.15-1.47.26-2.21.36.43-.48.87-.94,1.3-1.41l2.39-.31c.54-.07.55-.94,0-.87l-1.45.19q1-1.05,2.08-2.07h.15Q156.14,71.45,156.07,73.05Zm.11-4.54-.52.5q-1.36,0-2.72.18l1.4-1.34,1.43-.22c.55-.08.32-.92-.23-.84l-.16,0,.8-.82Q156.2,67.26,156.18,68.51Zm-78-23.25a1.48,1.48,0,0,1,.13-.91c.08-.15.14-.32.23-.47s0-.22.1-.35-.31-.24-.44-.17-.36.14-.54.34a2,2,0,0,0-.39.67,1.69,1.69,0,0,0,0,1.2c.31.8,1.57,1.56,2.39,1.08a.17.17,0,0,0,0-.28C79.17,46,78.29,46,78.16,45.27Zm9.9,6.38c.08,0,.21-.18.12-.26-.45-.46-1.64-.6-1.53-1.48a1.2,1.2,0,0,1,1.28-1c.17,0,.45-.3.17-.37-1-.24-2.61,0-2.56,1.33A2.07,2.07,0,0,0,88.06,51.65Zm14.4-20.81a1.6,1.6,0,0,0,.92-.45c.33-.53-.46-1-.91-1a.64.64,0,0,0-.15,0c0-.47.12-.93.64-.9.14,0,.4-.17.22-.3-.42-.31-1.15-.6-1.62-.18a1.5,1.5,0,0,0-.46.78c-.1.41-.28,1,0,1.4A1.57,1.57,0,0,0,102.46,30.84Zm6.41-.14c.34-.32-.38-.5-.58-.43a.76.76,0,0,0-.58.5c-.08.25.24.54.42.63s.86.35.92-.05a.31.31,0,0,0-.13-.27C108.71,30.91,108.67,30.9,108.88,30.7Zm5.06-10.25c-.24.09-.69.25-.72.57a.82.82,0,0,0,.64.82c.11,0,.32,0,.31-.17,0-.39-.42-.65,0-1C114.35,20.56,114.12,20.39,113.94,20.46ZM131.8,39.8l1.64-2.48a.29.29,0,0,0,0-.08,1.63,1.63,0,0,0,.56,0c.2,0,.78-.18.52-.51a1.25,1.25,0,0,0-1-.32h0a.14.14,0,0,1-.07-.11c.2-.06.47-.3.17-.41.06,0-.14-.26-.16-.27a.59.59,0,0,0-.21-.14.81.81,0,0,0-.49-.07c-.37,0-.45.45-.46.75a1.11,1.11,0,0,0,.57.87h0l-1.64,2.48C131.05,39.82,131.58,40.13,131.8,39.8Zm1.69-16.27a1.91,1.91,0,0,0,.81.34.48.48,0,0,0,.16,0h.06c.11,0,.13,0,.08,0,.19-.08.32-.26.1-.45s-.63-.37-.66-.66a1.36,1.36,0,0,1,.46-.91c.18-.19-.11-.32-.27-.28-.62.16-1.49.48-1.25,1.31A1.4,1.4,0,0,0,133.5,23.53Zm-7.64-5.77a1.6,1.6,0,0,0,1.64-1.94c-.05-.17-.33-.16-.46-.13a1.4,1.4,0,0,0-.8.46,3.69,3.69,0,0,1-.29.3c-.16.14-.22.19-.33.21h0l-.14-.15c.08.11-.07-.14-.09-.18a1.88,1.88,0,0,1-.08-1.15,1.85,1.85,0,0,1,1.37-1.28c.14,0,.33-.28.09-.34-.86-.21-2.2,0-2.61.92a2.56,2.56,0,0,0,0,2A2,2,0,0,0,125.85,17.76Zm-.18-1.06-.07,0h0Zm-.09,0h0l0,0Zm1.87,19.62a2.15,2.15,0,0,1,0-.44,1,1,0,0,0-.39-.58c-.23-.19-.89-.41-1,0a1.57,1.57,0,0,0,.12,1.35,2.65,2.65,0,0,0,1.22.76c.32.16,1.1-.11.67-.52a3.92,3.92,0,0,0-.61-.43A.15.15,0,0,0,127.45,36.27ZM132,45.85c.52-.18.18-.71-.18-.83s-.75-.18-1.12-.3c0,0-.29-.12-.23-.08h0s0,0,0,0,0-.2.09-.29.11-.28,0-.16c.19-.24-.18-.38-.36-.39a1.51,1.51,0,0,0-.75,0,.66.66,0,0,0-.31.47,1.12,1.12,0,0,0,.38.94A2.52,2.52,0,0,0,132,45.85Zm13.61-18.93c.54.24,1.6.21,1.71-.53,0-.11-.12-.21-.21-.23s-1,0-1.16-.17-.08-.5-.07-.64a4,4,0,0,1,1.07-2.17c.19-.2-.21-.35-.34-.32a2.54,2.54,0,0,0-2,2.76A1.63,1.63,0,0,0,145.58,26.92ZM82.75,16.54a2.54,2.54,0,0,0,1.87.36c.2,0,.56-.08.67-.28a.33.33,0,0,0-.17-.44,3.91,3.91,0,0,0-1.33-.38h-.11a2.31,2.31,0,0,1,.12-.45.78.78,0,0,1,.25.08,1.55,1.55,0,0,0,.51.15c.15,0,.5-.11.36-.32a2.26,2.26,0,0,0-1.77-1,.48.48,0,0,0-.47.25C82.38,15.16,82.07,16.05,82.75,16.54Zm1.89,7.79c-.14,0-.09,0-.2-.13,0,0,0-.05-.06-.13a2,2,0,0,1,0-.19.94.94,0,0,1,.09-.5c.27-.53.74-.66,1.26-.87.34-.14.16-.45-.11-.52-1-.24-2.59.23-2.56,1.51a2.16,2.16,0,0,0,2.29,2.07c.36,0,1.39-.21,1.15-.81-.17-.43-.63-.47-1-.46A3.33,3.33,0,0,1,84.64,24.33Zm1.29-13.18c.14,0,.39-.08.35-.26s-.32-.33-.5-.51-.16-.26.07-.39.13-.34-.1-.3-1,.19-.87.62A1.34,1.34,0,0,0,85.94,11.16Zm30.69-1.33c.6.21,2.07.37,2.23-.47a.34.34,0,0,0-.21-.32c-.57-.25-1.08-.05-1.68-.11,0,0-.22-.06-.11,0l0,0h0l0,0a.62.62,0,0,1,.11-.51,1.2,1.2,0,0,1,.9-.53c.14,0,.37-.24.14-.29a2.3,2.3,0,0,0-1.85.16,1.05,1.05,0,0,0-.52,1A1.51,1.51,0,0,0,116.63,9.83Zm19.9,34.83c-.28.29.16.72.44.44a24.13,24.13,0,0,0,3.31-4.44,2.05,2.05,0,0,0,1,.44,28.62,28.62,0,0,1-2.52,3.28c-.28.29.16.73.44.44a34.12,34.12,0,0,0,2.79-3.65A.26.26,0,0,0,142,41a1.43,1.43,0,0,0,.36-.25,1.93,1.93,0,0,0,.31-.38q-.32-.18-.06-.17l.1,0c.16-.07.28-.25.15-.4a1.35,1.35,0,0,0-1.56-.07h0a.81.81,0,0,1,.24-.53c.26-.21.63-.25.92-.45h0c.2,0,.35-.3.08-.33s-.28-.11-.41-.14a2.91,2.91,0,0,0-.56-.08,2.74,2.74,0,0,0-.67,0,1.16,1.16,0,0,0-.84.67,2.4,2.4,0,0,0-.17,1.36.28.28,0,0,0-.15.12A23.43,23.43,0,0,1,136.53,44.66Zm2,4.21s0-.33,0-.38c.07-.39-.66-.43-.84-.21a.68.68,0,0,0,.06,1,1.42,1.42,0,0,0,1.47.12c.08,0,.25-.2.09-.27A6.92,6.92,0,0,1,138.53,48.87ZM146,35.61c.22.12.81.1.69-.29s-.34-.47-.46-.72a.57.57,0,0,1-.08-.26h0a.49.49,0,0,1,.17,0c.11,0,.42-.21.21-.3s-.62-.31-1-.14a.56.56,0,0,0-.36.5,1.36,1.36,0,0,0,.32.77,1.48,1.48,0,0,0,.41.45Zm0,0h0C146.27,35.79,146.08,35.69,146,35.61Zm-19.24-8c.13-.32.28-.62.39-.94s-.28-.22-.39-.12a2.43,2.43,0,0,0-.86,2.9.54.54,0,0,0,.57.31,2.3,2.3,0,0,0,1.51-.53.17.17,0,0,0-.06-.28,1.78,1.78,0,0,0-1.19,0A2,2,0,0,1,126.71,27.64ZM77.5,85a.56.56,0,0,1,.09-.89c.09-.07,0-.17-.08-.14-.45.14-1.11.5-.87,1.08a2.16,2.16,0,0,0,2,1.12c.12,0,.34-.14.23-.29C78.55,85.42,77.87,85.37,77.5,85Zm48.62,20.8c-2.14.7-4.48-.47-3.74-3,.36-1.19,1-1.61,1.19-2.84a24.71,24.71,0,0,0-.41-6.59c0-.13-.25,0-.24.08.18,2.59.75,5.9-1.05,8a3.63,3.63,0,0,0-.33,3.76c1.12,2,3.44,2.75,5.19,1.07C127.08,106,126.39,105.69,126.12,105.78Zm-1.74-14.83c-.11,3.15.47,6.25.61,9.39a19.53,19.53,0,0,0,1.66,1.44,7.45,7.45,0,0,1,.65,3.54c0,.12.21,0,.24,0a3.75,3.75,0,0,0-.87-4.32c-2.42-1.91-2-7.16-2.23-10C124.44,90.88,124.38,90.91,124.37,90.94Zm-18.76,56.18c.72-.28,1.58-1.64.94-2.31a.32.32,0,0,0-.28-.05c-.76.22-.46,1.28-1.13,1.65-.35.19-.75,0-1.08-.32a2.35,2.35,0,0,1-.76-1.64,2.66,2.66,0,0,1,1.16-1.9c.06-.05.05-.16,0-.14a2.34,2.34,0,0,0-1.95,2,2.66,2.66,0,0,0,.93,2.21A2.24,2.24,0,0,0,105.62,147.13Zm-5.1-34.8c-.17,0-.45-.06-.51-.26-.14-.5.26-1.13.48-1.56.1-.2-.27-.16-.35-.09-.44.4-1.48,1.36-.88,2a1.65,1.65,0,0,0,1,.52c.32.06,1,.17,1.11-.25a.13.13,0,0,0,0-.14A1.44,1.44,0,0,0,100.51,112.33ZM106,100.48c.11,0,.28-.11.25-.25s-.18-.25-.32-.35a1.89,1.89,0,0,1-.54-.6,1.64,1.64,0,0,1,0-1.45c.1-.23-.33-.16-.41,0a2,2,0,0,0-.3,1.74A1.51,1.51,0,0,0,106,100.48ZM82.16,73a1.06,1.06,0,0,0-.73.41,1.69,1.69,0,0,1-.58.47.2.2,0,0,1-.23,0,1.55,1.55,0,0,1-.3-.28,2.68,2.68,0,0,1-.53-1.49,2.81,2.81,0,0,1,.5-1.56c.14-.26-.25-.32-.41-.26-1.59.61-1.46,2.66-.52,3.79a2.25,2.25,0,0,0,1.9.9c.77-.08,1.7-1,1.26-1.83A.36.36,0,0,0,82.16,73ZM137,78.77a1.07,1.07,0,0,0-.64.21,1.44,1.44,0,0,1-.62.34,2.07,2.07,0,0,1-.07-1.4,5.19,5.19,0,0,1,.65-1c.08-.1-.06-.17-.15-.14a4.25,4.25,0,0,0-.69.3.34.34,0,0,0-.4-.34c-1.17.15-2.33.36-3.5.52a7.46,7.46,0,0,1-3.52,0c-.52-.21-.74.63-.23.84a6.44,6.44,0,0,0,3.07.07c1.34-.17,2.67-.4,4-.59a2.23,2.23,0,0,0-.16,1.54c.07.31.09.69.44.79a1.89,1.89,0,0,0,1,.08,2.06,2.06,0,0,0,1.25-.86C137.55,78.93,137.19,78.76,137,78.77Zm5.53-8.65c.08,0,.25-.16.15-.26-.3-.3-1.08-.27-1.16-.79s.34-.9.56-1.28c.09-.17-.15-.17-.23-.11-.43.29-1.18,1-1,1.6A1.4,1.4,0,0,0,142.55,70.12Zm-24.49,66.74c-.22-.29-.79-.1-1.07,0l-.2,0a.32.32,0,0,1-.08-.18,1,1,0,0,1,0-.46,1.31,1.31,0,0,1,.75-.75c.08,0,.46-.16.22-.3a1.46,1.46,0,0,0-2.08,1,1.32,1.32,0,0,0,1.34,1.59,1.53,1.53,0,0,0,.83-.2c.2-.13.35-.16.14-.42a.3.3,0,0,0,.1-.08A.15.15,0,0,0,118.06,136.86Zm-2.82,15.46c-.23-.17,0-.54,0-.73s-.29-.15-.37,0c-.26.33-.67.76-.28,1.14a1.18,1.18,0,0,0,1.48.07.13.13,0,0,0,0-.21C115.83,152.39,115.46,152.49,115.24,152.32Zm-18.62,34.8a1.12,1.12,0,0,0-1.07.19l-.24.15a1,1,0,0,1,0-.53c.12-.32.38-.54.49-.85a.12.12,0,0,0-.05-.16c-1.12-.54-2.23.92-1.62,1.93a1.54,1.54,0,0,0,1.45.79c.62-.05,1.43-.53,1.31-1.23A.44.44,0,0,0,96.62,187.12Zm-3.16-29.85c-.66.12-1.59.56-1.51,1.4a1.65,1.65,0,0,0,.33.85,2.3,2.3,0,0,0,.46.46.31.31,0,0,0,.12,0l.07,0c.14,0,.15,0,.06,0,.3,0,.66-.17.42-.42s-.69-.67-.62-1.16a1.71,1.71,0,0,1,.72-1C93.59,157.39,93.58,157.25,93.46,157.27Zm26.34,30.94a.27.27,0,0,0-.27-.18,1.29,1.29,0,0,0-1,.31,1.45,1.45,0,0,1-.57.31c-.21,0-.35-.34-.41-.55a3.38,3.38,0,0,1,.47-2.79c.19-.2-.09-.3-.26-.21a2.43,2.43,0,0,0-1.4,1.77,3,3,0,0,0,.31,1.86,1.78,1.78,0,0,0,1.57.89C118.9,189.6,120.1,189.08,119.8,188.21Zm3.66-26.48a2.79,2.79,0,0,0-1.21,2.37,1.8,1.8,0,0,0,1.15,1.53c.22.07.78-.09.52-.4s-.84-.78-.84-1.45a3.32,3.32,0,0,1,.64-1.91C123.88,161.67,123.58,161.62,123.46,161.73Zm-29.67-36a1.34,1.34,0,0,0-.77.18l-.19.12a3.17,3.17,0,0,1-.47-1,6.46,6.46,0,0,1-.09-.64c0-.07-.08-.37-.07-.42s-.22-.1-.26,0c-.11.25-.25.34-.31.62a1.88,1.88,0,0,0,0,.67,3.31,3.31,0,0,0,.54,1.34.57.57,0,0,0,.52.2,1.28,1.28,0,0,0,1.25-.91C94,125.83,93.86,125.77,93.78,125.77Zm15.91,77.74a1.72,1.72,0,0,1-.66.35H109l0,0h0s0,0,0,0h0a.72.72,0,0,1-.14-.22,2.18,2.18,0,0,1-.1-.34,2.35,2.35,0,0,1,0-.69,2.26,2.26,0,0,1,.72-1.24c.15-.08.22-.28,0-.3a1.66,1.66,0,0,0-1.09.08,1.47,1.47,0,0,0-.64.7,2.36,2.36,0,0,0-.13,1.54,1.87,1.87,0,0,0,3,1.09c.3-.22.84-.81.46-1.18S110,203.29,109.7,203.51Zm20.9-30.11a1.21,1.21,0,0,1-.51-1.67c.1-.21-.29-.15-.37,0-.59.8-.65,1.78.41,2.18C130.4,174,131,173.64,130.6,173.4Zm-19.45-58.86a3.33,3.33,0,0,0-1.11,1.29,5.48,5.48,0,0,1-1.11-.34c-.36-.16-.67.37-.31.53a6.34,6.34,0,0,0,1.36.42,1.08,1.08,0,0,0,.14.35,1.79,1.79,0,0,0,2.36.43.13.13,0,0,0,0-.24c-.36-.1-1.19,0-1.49-.4a13,13,0,0,0,4.2-.52.31.31,0,0,0-.16-.6,12.24,12.24,0,0,1-4.13.5,3.05,3.05,0,0,1,.55-1.26C111.54,114.51,111.26,114.45,111.15,114.54Zm5.86-3.79c-1.48,0-3.17.29-4.8.35-.19-.34-.55-.59-.69-1a1.59,1.59,0,0,1,0-.17,37.13,37.13,0,0,0,5.82-.52,71.33,71.33,0,0,0,7.39-.28c.39,0,.4-.66,0-.62a71.89,71.89,0,0,1-7.4.28h-.08a35.55,35.55,0,0,1-5.71.51,1,1,0,0,1,.24-.42c.19-.19-.18-.26-.31-.2a1.4,1.4,0,0,0-.63.64h-2.27a.31.31,0,0,0,0,.62h2.19s0,0,0,0a2,2,0,0,0,.64,1.1,8.22,8.22,0,0,1-2.48-.35c-.38-.13-.54.47-.16.6,2.53.84,5.7,0,8.31,0A.31.31,0,0,0,117,110.75Zm-11.42-99c1.38-1.94,2.8-3.86,4.32-5.7.35-.43-.26-1-.61-.61-1.56,1.9-3,3.88-4.45,5.88C104.52,11.75,105.27,12.19,105.59,11.74Zm1.1.83c1.41-2,3-3.82,4.39-5.79.33-.45-.42-.89-.75-.44-1.41,2-3,3.82-4.39,5.79C105.62,12.58,106.36,13,106.69,12.56Zm1.24-.53a.47.47,0,0,0,.2.73.81.81,0,0,0,.75.69c.34,0,1.55.23,1.53-.25,0,0,.62-.08.42-.41,1-1.26,2-2.52,3-3.82.34-.45-.42-.88-.75-.44-1,1.28-2,2.52-2.95,3.77l0,0a3,3,0,0,0-.63-.06.39.39,0,0,1,.17-.27,1.1,1.1,0,0,0,.41-.24,1.25,1.25,0,0,1,.21-.13.16.16,0,1,0-.1-.31,2.69,2.69,0,0,1-.63,0A18.26,18.26,0,0,1,112.38,8c.43-.36-.19-1-.61-.61C110.22,8.66,109.2,10.48,107.93,12Zm4.24,1.35a30.6,30.6,0,0,1,2.4-3.22c.39-.4-.22-1-.61-.61a32.27,32.27,0,0,0-2.53,3.4C111.09,13.4,111.84,13.84,112.17,13.39Zm1.64,1.1a12.08,12.08,0,0,1,2.13-2.94c.39-.4-.22-1-.61-.61a12.9,12.9,0,0,0-2.26,3.12C112.82,14.55,113.56,15,113.82,14.49Zm2.06-1.9a5.45,5.45,0,0,0-1.21,2.12c-.18.53.65.76.83.23a4.43,4.43,0,0,1,1-1.74C116.88,12.8,116.27,12.19,115.88,12.59Zm1.37.83a6.41,6.41,0,0,0-1.16,1.47c-.26.49.48.93.75.44a5.63,5.63,0,0,1,1-1.29C118.25,13.63,117.64,13,117.25,13.41ZM86.82,218.84c-1.12,1.43-2.08,3-3.08,4.5-.31.47.44.9.75.44,1-1.46,1.87-2.95,2.95-4.32C87.77,219,87.16,218.41,86.82,218.84Zm2.47.83c-1.57,1.86-3.53,3.56-4.22,6a.43.43,0,0,0,.83.23c.65-2.26,2.53-3.86,4-5.6C90.25,219.86,89.65,219.24,89.28,219.67Zm1.3,1.19a51.46,51.46,0,0,0-4.11,6.34c-.25.5.49.94.75.44a51.5,51.5,0,0,1,4.11-6.34C91.66,220.84,90.91,220.41,90.59,220.86Zm2.81-.09c-2,2.36-3.47,5.1-5.48,7.45-.36.42.25,1,.61.61,2-2.34,3.49-5.09,5.48-7.45C94.37,221,93.76,220.35,93.4,220.77Zm1.58.92c-1.72,2.59-3.49,5.13-5.21,7.72-.31.47.44.9.75.44,1.72-2.59,3.49-5.13,5.21-7.72C96,221.66,95.28,221.23,95,221.69Zm1.64,1.38A64.79,64.79,0,0,0,92,230a.43.43,0,0,0,.75.44,65,65,0,0,1,4.66-6.89C97.7,223.06,96.95,222.63,96.62,223.07Zm2.74-.55c-1.71,2.84-3.59,5.56-5.48,8.27-.32.46.43.89.75.44,1.89-2.72,3.77-5.44,5.48-8.27A.43.43,0,0,0,99.36,222.52Zm1.65,1.93c-1.51,2.64-3.51,4.93-5.21,7.44-.31.46.44.9.75.44,1.7-2.51,3.7-4.81,5.21-7.44A.43.43,0,0,0,101,224.45Zm2.74.28c-1.14,2.42-3.24,4.19-4.39,6.62-.24.5.51.94.75.44,1.14-2.42,3.24-4.19,4.39-6.62C104.73,224.66,104,224.22,103.75,224.72Zm1.6,1.21a16.54,16.54,0,0,1-3.45,5.32c-.35.43.25,1,.61.61a17.63,17.63,0,0,0,3.68-5.71C106.35,225.63,105.52,225.4,105.35,225.93Zm1.37,1.65a9.94,9.94,0,0,1-1.33,2.1c-.31.46.44.9.75.44a10.6,10.6,0,0,0,1.41-2.31C107.74,227.29,106.91,227.06,106.72,227.58Zm-.31-5.46a25.1,25.1,0,0,1,2.13-2.67c.39-.4-.22-1-.61-.61a26.88,26.88,0,0,0-2.26,2.85C105.33,222.14,106.08,222.57,106.41,222.13Zm2.77-2.54a28.87,28.87,0,0,1-2.15,3.76.43.43,0,0,0,.75.44,30.1,30.1,0,0,0,2.24-4C110.23,219.3,109.4,219.08,109.19,219.59Zm2.3-.19a22.21,22.21,0,0,0-3.67,6c-.2.52.63.75.83.23a20.86,20.86,0,0,1,3.45-5.6C112.46,219.58,111.85,219,111.49,219.4Zm1.85.09c-1.44,2.59-3,5.08-4.39,7.72-.25.5.49.94.75.44,1.34-2.65,2.94-5.14,4.39-7.72C114.36,219.43,113.62,219,113.34,219.48Zm1.64,0c-1.23,2.73-2.76,5.32-4.11,8-.25.5.49.94.75.44,1.35-2.68,2.88-5.26,4.11-8C116,219.42,115.22,219,115,219.48Zm2.19.28c-1.41,3-3.52,5.56-4.94,8.55-.24.5.51.94.75.44,1.41-3,3.52-5.56,4.94-8.55C118.17,219.69,117.42,219.25,117.18,219.76Zm2.47,0c-1.53,3.2-4,5.88-5.25,9.2-.2.52.63.75.83.23,1.27-3.24,3.67-5.87,5.17-9C120.64,219.7,119.89,219.25,119.65,219.76Zm2.94.44c.26-.5-.49-.94-.75-.44-1.58,3-3.81,5.67-5,8.93-.19.53.65.75.83.23C118.83,225.73,121,223.17,122.59,220.2Zm.62-.16c-1.7,3.11-3.59,6.11-5.48,9.1-.3.47.45.91.75.44,1.89-3,3.78-6,5.48-9.1C124.23,220,123.48,219.54,123.21,220Zm2.19-.28c-1.72,2.9-3.33,5.86-4.93,8.82-.27.49.48.93.75.44,1.61-3,3.22-5.92,4.93-8.82A.43.43,0,0,0,125.41,219.76Zm1.92-.55c-1.73,3.17-3.52,6.32-4.94,9.65-.22.51.53,1,.75.44,1.42-3.33,3.21-6.48,4.94-9.65C128.34,219.15,127.59,218.72,127.33,219.21Zm1.64,0a63.59,63.59,0,0,0-3.61,8.38.43.43,0,0,0,.83.23,61.92,61.92,0,0,1,3.52-8.17C129.95,219.14,129.2,218.7,129,219.21Zm1.37.83a27.22,27.22,0,0,0-2.51,6.45.43.43,0,0,0,.83.23,26.35,26.35,0,0,1,2.42-6.24C131.36,220,130.61,219.55,130.34,220Zm1.6-.17-.82,2.48c-.18.53.66.76.83.23l.82-2.48C133,219.56,132.12,219.33,131.94,219.86Zm1.69.45-.82,1.65c-.25.5.5.94.75.44l.82-1.65C134.63,220.25,133.88,219.81,133.63,220.31Zm17.92-116.58a103,103,0,0,1-12.61,1.1.43.43,0,0,0,0,.87,102.83,102.83,0,0,0,12.61-1.1C152.1,104.53,152.1,103.66,151.55,103.73Zm-13.16,11.35a87.19,87.19,0,0,0,11.52-.55c.54-.07.55-.94,0-.87a87.31,87.31,0,0,1-11.52.55A.43.43,0,0,0,138.39,115.08Zm-5.48,41.36c2.93,0,5.85,0,8.77-.28.55,0,.56-.92,0-.87-2.92.25-5.84.27-8.77.28A.43.43,0,0,0,132.91,156.44Zm-.55,4.14c2.84,0,5.66-.26,8.5-.28a.43.43,0,0,0,0-.87c-2.84,0-5.66.26-8.5.28A.43.43,0,0,0,132.36,160.58ZM113.05,79.22c4.12,1.06,8.33-.44,12.45-.81.55-.05.56-.92,0-.87-4,.37-8.19,1.88-12.22.84A.43.43,0,0,0,113.05,79.22Zm-12.5,2.58c-.4,0-.4.6,0,.62,4.13.18,8.21-.73,12.34-.55a.29.29,0,0,0,.27-.43,62,62,0,0,0,11.91-1.11c.55-.11.31-.95-.23-.84a61.35,61.35,0,0,1-11.95,1.09.43.43,0,0,0-.35.67C108.53,81.13,104.57,82,100.56,81.8Zm1.37,2.55c3.57.17,7.09-.59,10.65-.56a.39.39,0,0,0,.32.14c4.14-.06,8.22-.79,12.34-1.1.55,0,.56-.91,0-.87-4.12.32-8.2,1-12.34,1.1a.4.4,0,0,0-.28.11c-3.58,0-7.11.73-10.69.56C101.53,83.71,101.53,84.33,101.93,84.35Zm21.66,2.84c-3.22.08-6.56,1.35-9.76.57-.54-.13-.77.7-.23.84,3.29.81,6.68-.46,10-.54A.43.43,0,0,0,123.59,87.19Zm-1.21,1.95a51.59,51.59,0,0,1-8.66,1.09.43.43,0,0,0,0,.87A52.89,52.89,0,0,0,122.61,90C123.15,89.87,122.92,89,122.38,89.13Zm-.43,2.19c-2.45.07-4.84,1-7.29.57-.54-.1-.78.74-.23.84,2.56.45,5-.46,7.52-.54C122.5,92.18,122.5,91.31,121.94,91.32ZM137.84,69c-3.21.29-6.39.81-9.6,1.1-.55,0-.56.92,0,.87,3.21-.29,6.39-.81,9.6-1.1C138.39,69.81,138.4,68.94,137.84,69Zm-9.6,3.63c3.14.19,6.19-.76,9.32-.83a.43.43,0,0,0,0-.87c-3.13.07-6.18,1-9.32.83C127.69,71.71,127.69,72.58,128.25,72.61Zm9.21,0a53.82,53.82,0,0,1-8.93,1.09.43.43,0,0,0,0,.87,55.19,55.19,0,0,0,9.16-1.12C138.23,73.33,138,72.49,137.45,72.59Zm-.71,2.78c.55-.06.55-.93,0-.87-2.65.29-5.28.79-8,.83a.43.43,0,0,0,0,.87C131.47,76.16,134.09,75.66,136.75,75.37Zm-2.47,4.41c.54-.07.55-.94,0-.87a54.39,54.39,0,0,1-6.31.83.43.43,0,0,0,0,.87A54.19,54.19,0,0,0,134.28,79.78Zm1.1.51c-2.22.05-4.36.77-6.58.83a.43.43,0,0,0,0,.87c2.22-.06,4.36-.77,6.58-.83A.43.43,0,0,0,135.38,80.29Zm-.55,2.21a75.49,75.49,0,0,1-7.68.83.43.43,0,0,0,0,.87,75.29,75.29,0,0,0,7.68-.83C135.37,83.3,135.38,82.44,134.83,82.5Zm-.27,2.21c-2.56.05-5.11.78-7.68.55-.56-.05-.55.82,0,.87,2.57.23,5.11-.5,7.68-.55A.43.43,0,0,0,134.55,84.71Zm-.82,2.21c-1.85,0-3.8.59-5.64.29-.54-.09-.78.75-.23.84,1.94.31,3.93-.23,5.87-.26A.43.43,0,0,0,133.73,86.91Zm-2.19,1.93c-1.19,0-2.37.26-3.56.28a.43.43,0,0,0,0,.87c1.19,0,2.37-.26,3.56-.28A.43.43,0,0,0,131.54,88.84Zm-4.23,3.06a5.07,5.07,0,0,0,3,.28.43.43,0,0,0-.23-.84,4.31,4.31,0,0,1-2.51-.28C127,90.89,126.78,91.73,127.31,91.9Zm-.55,22.33c-2.7.54-5.52,1.07-8.27.55-.54-.1-.78.73-.23.84,2.91.55,5.86,0,8.73-.55C127.54,115,127.31,114.12,126.76,114.23Zm-9.48,4.16c2.93,0,5.85-.26,8.77-.28a.43.43,0,0,0,0-.87c-2.93,0-5.85.26-8.77.28A.43.43,0,0,0,117.28,118.39Zm-.27,2.76c3-.28,6-.53,9-.55a.43.43,0,0,0,0-.87c-3,0-6,.28-9,.55C116.46,120.33,116.45,121.2,117,121.15Zm.27,2.2a47,47,0,0,0,8.61-.57c.55-.1.31-.94-.23-.84a45.81,45.81,0,0,1-8.38.54A.43.43,0,0,0,117.28,123.35Zm.27,2.48a54.77,54.77,0,0,0,9.16-.57c.55-.09.32-.93-.23-.84a53.53,53.53,0,0,1-8.93.54A.43.43,0,0,0,117.56,125.83Zm8,1.65c.55-.06.55-.93,0-.87a72,72,0,0,1-7.4.55.43.43,0,0,0,0,.87A71.82,71.82,0,0,0,125.51,127.49ZM119.2,130c1.92,0,3.84-.26,5.76-.28a.43.43,0,0,0,0-.87c-1.92,0-3.84.26-5.76.28A.43.43,0,0,0,119.2,130Zm5.76,1.34h-5.21a.43.43,0,0,0,0,.87H125A.43.43,0,0,0,125,131.31Zm-20,24.31h5.21a.43.43,0,0,0,0-.87h-5.21A.43.43,0,0,0,104.94,155.61Zm0,1.93a72.33,72.33,0,0,0,7.4-.55c.55-.06.55-.93,0-.87a72.32,72.32,0,0,1-7.4.55A.43.43,0,0,0,104.94,157.54Zm-.82,2.21c3-.27,6-.53,9-.55a.43.43,0,0,0,0-.87c-3,0-6,.28-9,.55C103.57,158.93,103.57,159.8,104.12,159.75Zm11.52,3c-3.2,0-6.4.26-9.6.28a.43.43,0,0,0,0,.87c3.2,0,6.4-.26,9.6-.28A.43.43,0,0,0,115.64,162.74Zm0,2.21c-3.19.06-6.54,1-9.7.35a.56.56,0,0,0,.22-.33c.06-.37-.4-.46-.66-.47s-.56,0-.84,0h0a1.25,1.25,0,0,1,.07-1,2,2,0,0,1,.61-.72,2.93,2.93,0,0,0,.64-.5.21.21,0,0,0-.08-.31,27.09,27.09,0,0,0,9.31-.5c.55-.1.32-.93-.23-.84-3.2.57-6.71,1.12-9.91.28a.43.43,0,0,0-.23.84c.25.07.5.11.75.16a2.09,2.09,0,0,0-2.32,2,1.81,1.81,0,0,0,1.82,1.83.39.39,0,0,0,.3.46c3.36.84,6.87-.19,10.26-.26A.43.43,0,0,0,115.64,164.95Zm-1,3.33c.55-.11.31-.94-.23-.84-3.08.6-6.51,1.14-9.64.55-.54-.1-.78.73-.23.84C107.85,169.46,111.4,168.91,114.65,168.28Zm.71,1.35-11,.83c-.55,0-.56.91,0,.87l11-.83C115.91,170.46,115.92,169.59,115.36,169.63Zm-.82,2.48c-3.5.07-7.11,1.09-10.58.29-.54-.12-.77.71-.23.84,3.56.82,7.21-.19,10.81-.26A.43.43,0,0,0,114.54,172.12Zm-.27,2.48c-3.59-.17-7.11,1-10.69.55-.55-.07-.54.8,0,.87,3.58.46,7.11-.72,10.69-.55C114.82,175.49,114.82,174.62,114.27,174.6Zm-.27,1.93c-3.4.31-6.89,1.09-10.3.57-.54-.08-.78.75-.23.84,3.51.53,7-.21,10.53-.54C114.54,177.35,114.55,176.48,114,176.53Zm-1.1,2.21c-2.77.31-5.6,1.08-8.38.57-.54-.1-.78.74-.23.84,2.87.53,5.76-.22,8.61-.54C113.44,179.54,113.45,178.67,112.89,178.73Zm-.55,2.21c-2.65.27-5.29.53-8,.55a.43.43,0,0,0,0,.87c2.66,0,5.3-.28,8-.55C112.9,181.75,112.9,180.88,112.35,180.94ZM111,183.42c-1.92,0-3.83.26-5.76.28a.43.43,0,0,0,0,.87c1.92,0,3.83-.26,5.76-.28A.43.43,0,0,0,111,183.42Zm-.82,2.21a33.14,33.14,0,0,0-5,.57c-.55.09-.32.93.23.84a31.67,31.67,0,0,1,4.82-.54A.43.43,0,0,0,110.15,185.63Zm-.55,1.93c-1.28,0-2.55.26-3.84.28a.43.43,0,0,0,0,.87c1.29,0,2.55-.25,3.84-.28A.43.43,0,0,0,109.6,187.56ZM99.19,76.35a70.09,70.09,0,0,0,12.89-.83c.39-.05.39-.67,0-.62a70,70,0,0,1-12.89.83C98.79,75.71,98.79,76.33,99.19,76.35Zm12.89,1c-4.48.26-8.95.53-13.43.55a.31.31,0,0,0,0,.62c4.48,0,9-.29,13.43-.55C112.47,78,112.47,77.36,112.07,77.39ZM100,79.59c-.4,0-.4.6,0,.62a68.06,68.06,0,0,0,12.61-.55c.39,0,.39-.67,0-.62A68,68,0,0,1,100,79.59Zm13.32,6.52c3.61.75,7.19-.45,10.81-.54a.43.43,0,0,0,0-.87c-3.53.09-7.06,1.29-10.58.57a.44.44,0,0,0-.14,0,.32.32,0,0,0-.33-.16,79.48,79.48,0,0,1-11.16.82.31.31,0,0,0,0,.62A80.62,80.62,0,0,0,113,85.74.36.36,0,0,0,113.33,86.11Zm-.08,1.81c.39-.06.22-.65-.16-.6-3.52.5-7.07.56-10.61.82-.39,0-.4.65,0,.62C106.07,88.5,109.68,88.43,113.25,87.92Zm-.44,1.61a53.74,53.74,0,0,1-9,.54.31.31,0,0,0,0,.62,54.5,54.5,0,0,0,9.13-.56C113.37,90.06,113.2,89.46,112.81,89.53Zm-8.61,3.91c3.06-.54,6.15-.81,9.24-1.09.39,0,.4-.66,0-.62-3.15.29-6.29.57-9.4,1.11C103.65,92.91,103.81,93.5,104.2,93.44Zm1,.49a.31.31,0,0,0,0,.62c3.68-.07,7.28-1,11-.83.4,0,.4-.6,0-.62C112.5,92.91,108.89,93.86,105.22,93.93Zm-.55,2c4.22,0,8.41-.54,12.61-.83a.31.31,0,0,0,.29-.28c1-.07,2-.14,3-.15a.43.43,0,0,0,0-.87c-1.92,0-3.83.26-5.76.28a.43.43,0,0,0-.38.62c-3.25.27-6.5.58-9.77.61A.31.31,0,0,0,104.67,95.93Zm10.81,1.21a23,23,0,0,1,4.27-.26.43.43,0,0,0,0-.87,24.18,24.18,0,0,0-4.5.29.37.37,0,0,0-.21.12c-3.1.06-6.17.5-9.27.54a.31.31,0,0,0,0,.62c3.12,0,6.22-.48,9.34-.54A.42.42,0,0,0,115.48,97.14Zm3.18,1.08h-1.93a.25.25,0,0,0-.27-.15l-9.6.83c-.39,0-.4.65,0,.62l8.11-.7a.39.39,0,0,0,.39.27h3.29A.43.43,0,0,0,118.65,98.22ZM106,100.55c-.39,0-.4.65,0,.62,4-.31,8-1,12.06-.83.4,0,.4-.6,0-.62C114.05,99.52,110.07,100.24,106,100.55Zm-.27,2.55a50.67,50.67,0,0,0,13-.84c.39-.08.22-.68-.16-.6a50.12,50.12,0,0,1-12.8.82C105.37,102.46,105.37,103.08,105.77,103.1Zm1.37,1.65c3.65-.28,7.3-.53,11-.55a.31.31,0,0,0,0-.62c-3.67,0-7.31.27-11,.55C106.74,104.16,106.74,104.78,107.14,104.75Zm10.42.48c-3.39,0-6.76.5-10.14.28-.4,0-.39.59,0,.62,3.39.22,6.76-.24,10.14-.28A.31.31,0,0,0,117.56,105.23Zm-9.32,2.21a.31.31,0,0,0,0,.62c2.93,0,5.85-.26,8.77-.28a.31.31,0,0,0,0-.62C114.08,107.18,111.16,107.42,108.23,107.44Zm8,5.79a75.25,75.25,0,0,1-7.68.28.31.31,0,0,0,0,.62,74.74,74.74,0,0,0,7.68-.28C116.58,113.81,116.58,113.19,116.18,113.23ZM108,118.82c2.48,0,4.92-.51,7.4-.55a.31.31,0,0,0,0-.62c-2.48,0-4.92.51-7.4.55A.31.31,0,0,0,108,118.82Zm7.4,1c-2.2,0-4.38.26-6.58.28a.31.31,0,0,0,0,.62c2.2,0,4.38-.26,6.58-.28A.31.31,0,0,0,115.36,119.85ZM114,121.5c-1.56,0-3.1.26-4.66.28a.31.31,0,0,0,0,.62c1.56,0,3.1-.26,4.66-.28A.31.31,0,0,0,114,121.5Zm-1.37,2.83a.31.31,0,0,0,0-.62h-2.74a.31.31,0,0,0,0,.62Zm13.43-10.48c.39,0,.4-.66,0-.62-2.8.3-5.61.77-8.42.29-.39-.07-.56.53-.16.6C120.35,114.61,123.19,114.16,126.05,113.85ZM125,112.4a25.79,25.79,0,0,1-7.87,0c-.39-.08-.55.52-.16.6a26.26,26.26,0,0,0,8,0C125.35,113,125.35,112.36,125,112.4Zm2.11-1.37a21.34,21.34,0,0,1-9.43,0,.31.31,0,0,0-.16.6,22,22,0,0,0,9.76,0C127.62,111.56,127.46,111,127.07,111Zm-9.24-.49h8.23a.31.31,0,0,0,0-.62h-8.23A.31.31,0,0,0,117.83,110.54Zm.27-2.48a20.15,20.15,0,0,1,3.76.26c.39.07.55-.52.16-.6a20.87,20.87,0,0,0-3.92-.29A.31.31,0,0,0,118.1,108.06Zm11.52,70.8c-1.82,0-3.58.73-5.4.29-.39-.09-.55.5-.16.6,1.89.46,3.67-.21,5.57-.26C130,179.47,130,178.85,129.62,178.86Zm-6,3.1a24.89,24.89,0,0,0,6.39-1.11.31.31,0,0,0-.16-.6,24.25,24.25,0,0,1-6.22,1.09A.31.31,0,0,0,123.59,182Zm-.19,1c-.39-.09-.55.51-.16.6,2.49.58,5.11-.48,7.57-.83.39-.06.22-.65-.16-.6C128.3,182.51,125.76,183.55,123.4,183Zm-1.18,2.54a48.38,48.38,0,0,0,8.85-.84c.39-.07.22-.67-.16-.6a47.54,47.54,0,0,1-8.69.82A.31.31,0,0,0,122.22,185.55Zm8.14.49a19.19,19.19,0,0,1-7.6,1.09c-.4,0-.39.59,0,.62a19.56,19.56,0,0,0,7.76-1.11C130.9,186.51,130.74,185.91,130.36,186Zm-9.24,8.61a46.58,46.58,0,0,0,8.58-.84c.39-.08.22-.67-.16-.6a45.58,45.58,0,0,1-8.42.82A.31.31,0,0,0,121.12,194.65Zm-.36,2.19c2.54.93,5.59,0,8.12-.55.39-.09.22-.69-.16-.6-2.43.54-5.35,1.45-7.79.55C120.55,196.1,120.39,196.7,120.76,196.84Zm-.19,2.49c2.66,0,5.3-.28,8-.55.39,0,.4-.66,0-.62-2.65.27-5.29.53-8,.55A.31.31,0,0,0,120.57,199.33Zm9,1c-3.29.28-6.57.53-9.87.55a.31.31,0,0,0,0,.62c3.3,0,6.58-.28,9.87-.55C130,201,130,200.33,129.62,200.37Zm-8.77,5a55.35,55.35,0,0,0,11.6-1.11c.39-.09.22-.68-.16-.6a54.51,54.51,0,0,1-11.43,1.09A.31.31,0,0,0,120.85,205.4Zm-.27,3.58a54.42,54.42,0,0,0,11.32-1.39c.39-.09.22-.68-.16-.6a53.67,53.67,0,0,1-11.16,1.37A.31.31,0,0,0,120.57,209Zm1.92,1.65a90.72,90.72,0,0,0,11.87-1.39c.39-.06.23-.66-.16-.6A89.44,89.44,0,0,1,122.49,210,.31.31,0,0,0,122.49,210.64Zm7.43-170.91a4.58,4.58,0,0,1,1-1.79c.28-.29-.16-.73-.44-.44a5.32,5.32,0,0,0-1.18,2.07C129.19,39.94,129.79,40.1,129.92,39.73Zm2.66,1.79c1-1.27,1.84-2.63,2.79-3.92.24-.32-.3-.63-.53-.31-.92,1.25-1.74,2.57-2.69,3.8C131.9,41.39,132.33,41.83,132.58,41.52ZM134,43.38a30.09,30.09,0,0,1,3.24-4.62c.28-.29-.16-.73-.44-.44a30.93,30.93,0,0,0-3.34,4.75C133.25,43.41,133.78,43.72,134,43.38Zm2.19.55a27.17,27.17,0,0,1,3.24-4.35c.25-.31-.19-.75-.44-.44a28,28,0,0,0-3.34,4.48C135.47,44,136,44.29,136.19,43.94Zm5.21.83a25.11,25.11,0,0,0,2.19-3.59c.18-.36-.35-.67-.53-.31a25.27,25.27,0,0,1-2.19,3.59C140.63,44.77,141.17,45.08,141.4,44.76Zm2.47-.83c.55-.87.82-1.89,1.37-2.76.21-.34-.32-.65-.53-.31-.55.87-.82,1.89-1.37,2.76C143.12,44,143.66,44.27,143.87,43.94Zm2.76-3.62a18.39,18.39,0,0,0-.85,2.28c-.13.38.47.54.59.17a17.68,17.68,0,0,1,.79-2.13C147.33,40.27,146.8,40,146.63,40.31Zm1.08,2a4.46,4.46,0,0,0,.59-1.54c0-.4-.58-.4-.62,0a3.75,3.75,0,0,1-.51,1.22C147,42.33,147.53,42.64,147.71,42.28ZM68.07,206.85a12.8,12.8,0,0,0-1.75-6.12c1.38-4.22-.9-8.69-3.88-11.8-.13-1.78-4-5.27-4.78-5.71-.28-.16-.85-.12-1,.23a5.24,5.24,0,0,0-.32,1l0-.06c-.62-1-1.15-2.18-2.36-2.35a.81.81,0,0,0-.75.22,8.41,8.41,0,0,0-.69,1.09,4.31,4.31,0,0,0-1-1.22,1,1,0,0,0-1.07-.2c-1.54.84-3.09,2.66-3,4.51,0,.39.68.26.85.1a16.48,16.48,0,0,0,1.66-2c.36-.46.77-.88,1.17-1.31a4.51,4.51,0,0,1,1,1A3,3,0,0,0,52,186.1c.1.32.53.34.79.19a5.51,5.51,0,0,0,1.74-2.58l.51.68a13.55,13.55,0,0,1,.86,1.27,30.42,30.42,0,0,1,1.46,2.9c.05.12.21.12.35.07a5.6,5.6,0,0,0-1.49,2.41,21.14,21.14,0,0,0-4.51-4.57,1.26,1.26,0,0,0-1.4-.07,10.27,10.27,0,0,0-2.18,1.92A12.83,12.83,0,0,0,46,184.9a.74.74,0,0,0-.94-.06c-1.38,1.23-3.67,3.5-3.33,5.54,0,.3.55.28.72.13A8.26,8.26,0,0,0,44,188.15,22.49,22.49,0,0,1,45.53,186a10.39,10.39,0,0,1,1.13,1.77,14.4,14.4,0,0,1,.74,2.08,3,3,0,0,0,0,.89c0,.43.77.28,1,.12a23.32,23.32,0,0,0,2.74-2.8,19.8,19.8,0,0,1,2.37,2.18,15.79,15.79,0,0,1-1.88.2.46.46,0,0,0,0,.91c.87,0,1.71-.2,2.57-.27q.18.25.35.51a20,20,0,0,1-2,.07.46.46,0,0,0,0,.91,17.29,17.29,0,0,0,2.49-.11,7.54,7.54,0,0,1,.38.93,4.32,4.32,0,0,1-2.15.11c-.57-.13-.81.75-.24.88a5.31,5.31,0,0,0,2.62-.12c0,.09,0,.19.05.29a3.33,3.33,0,0,1-2.13.17.46.46,0,0,0-.24.88,4.14,4.14,0,0,0,2.47-.12s0,.09,0,.14a.39.39,0,0,0-.32.22,1.47,1.47,0,0,1-1.42.69.44.44,0,0,0-.44.47c-.62-.89-1.22-1.68-1.67-2.26a1.45,1.45,0,0,0-1.61-.3,11.17,11.17,0,0,0-1.38.89c-.37-1.88-2.09-3.28-3.63-4.4a1.36,1.36,0,0,0-1.33-.05,8.71,8.71,0,0,0-1.59,1.32,6.13,6.13,0,0,0-1.11-1.81.77.77,0,0,0-1-.08c-2.66,1.74-3.76,6.61-3,9.52.08.3.64.17.73-.07.58-1.61.69-3.36,1.26-5a25.83,25.83,0,0,1,1.59-3.19,8.5,8.5,0,0,1,.92,1.23c-1.26,1.54-2.12,3.53-1.4,5.24a.46.46,0,0,0,.11.15,10.13,10.13,0,0,0-.26,2.13.43.43,0,0,0,.54.43A3.33,3.33,0,0,0,43.41,202a.46.46,0,0,0,0-.91,2.39,2.39,0,0,1-2-1,.45.45,0,0,0-.22-.16c0-.12,0-.24,0-.36a8,8,0,0,0,3.42,1.21c.58,0,.58-.89,0-.91a7.47,7.47,0,0,1-3.09-1.15.48.48,0,0,0-.2-.05c0-.18.08-.36.13-.54l0,0a5.27,5.27,0,0,0,3.43,1.17.46.46,0,0,0,0-.91,4.32,4.32,0,0,1-2.87-1c.11-.17.21-.36.31-.54A6,6,0,0,0,45.53,198c.58,0,.58-.89,0-.91A5.2,5.2,0,0,1,42.79,196l.11-.23a10.43,10.43,0,0,0,1.6.72c.41.14.64-.3.52-.62a.45.45,0,0,0,.13-.82c-.48-.25-.94-.51-1.41-.76.35-.53.74-1,1.14-1.51a13,13,0,0,1,2.94,3.45A5.82,5.82,0,0,0,46,200.42c0,.3.25.4.53.39a2.24,2.24,0,0,0,0,.25,9.51,9.51,0,0,0,0,1.43c0,.27.5.1.5-.12s0-.71.06-1.06a2.14,2.14,0,0,1,.06-.4s.23-.26.11-.15a.25.25,0,0,0,.1-.19A30,30,0,0,0,51,196.69c.44.55.87,1.1,1.28,1.68a12,12,0,0,1-1.45-.32c-.56-.17-.8.71-.24.88.79.25,1.62.32,2.41.53.19.31.37.62.54.94a8.26,8.26,0,0,1-2.61-.79c-.52-.25-1,.53-.46.79a9.22,9.22,0,0,0,3.51.95c.13.29.25.59.37.89a29.23,29.23,0,0,1-3.53-.54c-.57-.11-.81.76-.24.88a28.58,28.58,0,0,0,4.06.59,5.16,5.16,0,0,1,.15.92,13.74,13.74,0,0,1-3.67-.57c-.56-.18-.8.7-.24.88a14.48,14.48,0,0,0,3.86.6,7.61,7.61,0,0,1-.15.75,9.61,9.61,0,0,1-3.46-.1c-.57-.11-.81.77-.24.88a14.86,14.86,0,0,0,2,.25,3.14,3.14,0,0,0-.78,1,.41.41,0,0,0,.16.59.38.38,0,0,0-.28.1,8.19,8.19,0,0,0-1.89,2.32,10.8,10.8,0,0,0-.57,1.3c0-.14,0-.29,0-.43a2.61,2.61,0,0,0,.32-.43.46.46,0,0,0-.42-.68A12.55,12.55,0,0,0,44.28,203c-1-.7-3-1.55-4.12-.44a3.16,3.16,0,0,0-.37.47,6.76,6.76,0,0,0-1.87-2.13c-.3-.23-1-.37-1.21.09-1.82,4.13-1.05,10.17,2.52,13.18l.09,0a4.81,4.81,0,0,0,.41.53c.7,1.82,3.28,3.52,4.58,4.18a11.7,11.7,0,0,0,5,1.5,7.86,7.86,0,0,0,3.81,3.68c.9.38,2.15.77,3,.15s.76-1.68.21-2.56c-.11-.18-.51,0-.55.16-.17.7-.44,1.31-1.21,1.24a2.82,2.82,0,0,1-1-.35,10.83,10.83,0,0,1,.62-1.15c.38-.59,1.17-.45,1.73-.15.18.1.68-.18.46-.35a5.82,5.82,0,0,0-.92-.67l-.25-.31a.76.76,0,0,0,.35-.1c.18-.11.33-.39.15-.58h0a2.42,2.42,0,0,0,1-.94A5,5,0,0,0,60.76,215a7.57,7.57,0,0,0,2.63,1.13,9.68,9.68,0,0,1-.68.71,2.48,2.48,0,0,1-1.77-.78c-.42-.41-1.06.23-.64.64a3.53,3.53,0,0,0,1.47.88,4.57,4.57,0,0,1-1.15.55c-1.1.33-2.26,0-3.32.4-.16.05-.45.22-.35.44.6,1.31,3.16,1.33,4.33,1.07a7.64,7.64,0,0,0,4.28-2.47,14.32,14.32,0,0,0,3.19-10A.89.89,0,0,0,68.07,206.85ZM57,185.56a2,2,0,0,0,.71-1.07,13.56,13.56,0,0,1,2.26,2.38l.22.27a1.11,1.11,0,0,0-.82.14,13.58,13.58,0,0,0-1.47,1.2s0,0,0-.07A10.35,10.35,0,0,0,57,185.56Zm-9.33,24.21a2.5,2.5,0,0,1-1.89,1.62,6.21,6.21,0,0,0-.57-.39,5.34,5.34,0,0,0,2.1-1.88C47.42,209.34,47.53,209.56,47.65,209.78Zm-5.86-5.7a.63.63,0,0,1,.38-.32,6.9,6.9,0,0,1-.58.78h0A2.52,2.52,0,0,1,41.79,204.07Zm-2.49,5.48a.67.67,0,0,0-.75.54c0,.12,0,.24,0,.36-1-2.65-1.61-5.2-.74-8.18a10.9,10.9,0,0,1,1.52,1.91,5.14,5.14,0,0,0,.65,4c.23.35.82,0,1-.22a10,10,0,0,0,.58-3,.44.44,0,0,0,.75.24c.32-.35.54-.78.85-1.14a6.69,6.69,0,0,1,.65.56A7.16,7.16,0,0,1,42,206c-.48.32,0,1.11.46.79a9,9,0,0,0,1.94-1.53l.23.23a.46.46,0,0,0-.12.18,3.13,3.13,0,0,1-1.8,1.81c-.54.2-.31,1.08.24.88a4.09,4.09,0,0,0,2.29-2.16l.23.27a.45.45,0,0,0-.06.12,2.61,2.61,0,0,1-2.1,1.81.46.46,0,0,0,.24.88,4.5,4.5,0,0,0,1.54-.71,3.81,3.81,0,0,1-1,.79c-.52.28-.06,1.06.46.79A5.06,5.06,0,0,0,46.6,208l.14.21a4.23,4.23,0,0,1-2,2,.38.38,0,0,0-.22.4A14.31,14.31,0,0,0,39.3,209.55Zm1.39,3.84-.08-.11a7.55,7.55,0,0,1-.23-2.15,11.55,11.55,0,0,1,1.19.13.42.42,0,0,0-.12.29A3,3,0,0,1,40.69,213.4Zm8.62,5.05a2.15,2.15,0,0,0-.22,1l-.57-.14.34-.52a3.26,3.26,0,0,1,.44-.55l.09-.08.08.08A.53.53,0,0,0,49.31,218.45ZM56.17,211a16.69,16.69,0,0,0,3.25,1.56c-.06.41-.15.83-.26,1.25a36.41,36.41,0,0,1-4-2.09.46.46,0,0,0-.46.79,37.46,37.46,0,0,0,4.22,2.15,4.87,4.87,0,0,1-.46.89A46.66,46.66,0,0,1,53,213.27c-.52-.26-1,.53-.46.79a49,49,0,0,0,5.25,2.26c-.09.08-.17.17-.26.25h-.06a5.07,5.07,0,0,1-2.72-.87,21.66,21.66,0,0,0-2.17-1c-.55-.2-.79.68-.24.88,1.28.46,2.69,1.47,4.12,1.77l0,0a1.33,1.33,0,0,0-.78,0h0l-.13.06h0a5.34,5.34,0,0,1-3.3-1.39c-.43-.4-1.07.24-.64.64a6.3,6.3,0,0,0,2.52,1.41l-.55.23a.44.44,0,0,0-.12.1,1.8,1.8,0,0,0-1,.53c-.17.19,0,.4.19.44s.69.13,1,.18a2.83,2.83,0,0,0,.52.62,1.62,1.62,0,0,0-.69.22,1.94,1.94,0,0,0-1,1.57,4.65,4.65,0,0,1-1.3-1.94c.07-.1.06-.22-.09-.27-.09-.29-.18-.59-.25-.92a1.17,1.17,0,0,0-.8-.69.36.36,0,0,0,.05-.52c-.94-1.29-1.91.45-2.55,1.37l-.57-.2a6,6,0,0,0,2-2.95c.19-.56-.68-.79-.87-.24a4.89,4.89,0,0,1-1.6,2.46.46.46,0,0,0-.19.46c-.22-.09-.43-.21-.64-.32a6,6,0,0,0,2.1-3.27.45.45,0,0,0-.87-.24,4.9,4.9,0,0,1-2.14,3c-.2-.12-.39-.24-.56-.37h0a5,5,0,0,0,2.32-3.31.45.45,0,0,0-.87-.24,4.08,4.08,0,0,1-1.91,2.76.4.4,0,0,0-.22.3c-.17-.15-.33-.3-.48-.46a4.48,4.48,0,0,0,2-3.39c0-.59-.88-.59-.9,0a3.54,3.54,0,0,1-1.59,2.64.46.46,0,0,0-.09.1l-.25-.31a5.39,5.39,0,0,0,1.91-2.61c.19-.56-.68-.79-.87-.24a4.35,4.35,0,0,1-1.59,2.14l-.47-.64a4,4,0,0,0,1.13-2.6.44.44,0,0,0,0-.14,11.92,11.92,0,0,1,4.15,1.86c.17.12.71-.06.58-.32a3.94,3.94,0,0,0-.55-.84,3.27,3.27,0,0,0,1.63-1.34c.1.2.19.4.28.61a4.55,4.55,0,0,1-1.21.63c-.55.19-.31,1.07.24.88a6.18,6.18,0,0,0,1.32-.64l0,.05c.11.29.53.09.67-.14a2.35,2.35,0,0,0,0,1.3c.08.27.51.12.62,0a9.81,9.81,0,0,0,.89-2.25,10,10,0,0,1,1.44-2.59c.09-.1.09-.17,0-.23a.93.93,0,0,0,.42,0,16.49,16.49,0,0,0,4.8-1.68c0,.2,0,.41,0,.61s.4.12.47,0a6.24,6.24,0,0,0,.33-.81,12.63,12.63,0,0,1,.89,2.91,14.3,14.3,0,0,1-1.81-1c-.49-.32-.94.47-.46.79a14.67,14.67,0,0,0,2.41,1.29,9.72,9.72,0,0,1,0,1.16,16.34,16.34,0,0,1-2.88-1.41A.46.46,0,0,0,56.17,211ZM64,215.31a6.21,6.21,0,0,1-2.89-1.13.43.43,0,0,0-.13-.05c.06-.26.11-.54.15-.81a.48.48,0,0,0,.12.13,6.92,6.92,0,0,0,3.11,1.34C64.29,215,64.17,215.14,64,215.31Zm2.07-4.84a6.85,6.85,0,0,1-2.85-.53c-.53-.25-1,.54-.46.79a7.76,7.76,0,0,0,3.08.65c-.07.25-.14.49-.23.74a4.84,4.84,0,0,1-3-1c-.48-.34-.93.45-.46.79A5.86,5.86,0,0,0,65.32,213c-.13.3-.26.59-.4.87a5.45,5.45,0,0,1-3.16-1.23.36.36,0,0,0-.52.06,15.1,15.1,0,0,0-1.47-7.7,1.11,1.11,0,0,0-.87-.55,29.75,29.75,0,0,1,.68-5.1c.05-.17-.27-.11-.32,0a27,27,0,0,0-1.47,5.37c-.39.14-.82.28-1.26.41.41-1.8-.46-4-1.62-6a4.08,4.08,0,0,0,1.19-.63c.43-.4-.21-1-.64-.64a3.52,3.52,0,0,1-1,.5c-.21-.33-.42-.65-.63-1a.45.45,0,0,0,.15,0,2.37,2.37,0,0,0,2.2-1.14v0a.63.63,0,0,0,.23-.16,4,4,0,0,0,.27-4.16.72.72,0,0,0,.28-.07,12.91,12.91,0,0,0,3.17-2.8,13.54,13.54,0,0,1,4.45,8.69,21.34,21.34,0,0,0-2.65-3.39,1.13,1.13,0,0,0-1.62.26,7.88,7.88,0,0,0-1.41,3.91c0,.51.77.32,1,.07a22.78,22.78,0,0,0,1.6-2.35A19.47,19.47,0,0,1,62.83,198a.77.77,0,0,1-.37-.15c-.44-.38-1.09.26-.64.64a2.39,2.39,0,0,0,1.63.43c.13.21.26.43.38.65a2.18,2.18,0,0,1-1.39.57c-.58,0-.58.93,0,.91a3.16,3.16,0,0,0,1.82-.68l.14.28a2.88,2.88,0,0,1-1.66.7c-.58,0-.58.93,0,.91a3.73,3.73,0,0,0,2-.77c.06.14.12.28.18.42a3.82,3.82,0,0,1-2.22.66.46.46,0,0,0,0,.91,5,5,0,0,0,2.54-.69l0,.11c.09.27.17.56.25.85a2.85,2.85,0,0,1-3,.35c-.55-.2-.78.68-.24.88a3.75,3.75,0,0,0,3.48-.27c0,.2.06.39.09.59a3.47,3.47,0,0,1-3.32.93c-.57-.1-.82.78-.24.88a4.73,4.73,0,0,0,3.56-.6,3.76,3.76,0,0,1-.22.89l-.36.22a3.34,3.34,0,0,1-2.64-.14c-.53-.25-1,.54-.46.79a4.7,4.7,0,0,0,2,.45,2.3,2.3,0,0,0-.33,1c0,.42.44.56.78.49a4.81,4.81,0,0,0,1.53-.62l.12-.06C66.24,209.84,66.18,210.15,66.12,210.47Zm-24.49,8.64a2.87,2.87,0,0,0-2.64-.16l-.26.15c-3.11-.62-3.74-8.31-5.31-10.49-1.79-2.49-4.37-3-7.3-2.67-.43,0-.82.43-.43.82A10.45,10.45,0,0,1,28,210.42a7.82,7.82,0,0,0-4,.29.48.48,0,0,0-.23.72,10,10,0,0,0-5.42-.09.5.5,0,0,0-.52.14,17.19,17.19,0,0,0-2.07.73.48.48,0,0,0-.32.14c-.71.31-1.4.66-2.07,1a.31.31,0,0,0,0,.57c.46.28.9.58,1.34.9-2.57-.3-5.47,1.29-7.26,2.88-.24.21-.13.46.07.63a10.18,10.18,0,0,0-5.33,5.16c-.1.24.08.42.28.53.39.21.77.45,1.15.66a11.25,11.25,0,0,0-3.56,7,.51.51,0,0,0,.3.48l.59.26a1.84,1.84,0,0,0-.08,1.42,3.44,3.44,0,0,0,2.63,2,.26.26,0,0,0,0,.16,2.34,2.34,0,0,0,2,1.63c.23,0,.52-.21.4-.46s-.54-.56-.82-.8-.36-.3-.55-.44a3.82,3.82,0,0,0,.47,0,.65.65,0,0,0,.23.21,25.61,25.61,0,0,0,2.36,1.14,4.76,4.76,0,0,0-1.81.39c-.38.19-.19.6.09.76a9.73,9.73,0,0,0,3.79,1.42.75.75,0,0,0,.64-.23.57.57,0,0,0,.26.28,12,12,0,0,0,9,.56,8.4,8.4,0,0,0,11-3.69.24.24,0,0,0,0-.08l.5-.46a7.2,7.2,0,0,0,.57-.61,13,13,0,0,0,.86,1.93c1.57,2.86,4.47,4.53,7.47,5.46,1,.31,1.57-.6,1-1.46-3.11-4.67,2.26-11.14-2.44-15a2.31,2.31,0,0,1,.64-.63,3.66,3.66,0,0,1,1.92-.57c.22,0,.6-.38.23-.45s-1-.18-1.5-.23a.48.48,0,0,0,0-.61,4.84,4.84,0,0,0-.35-1.12,2.35,2.35,0,0,1-.11-1.14,1.42,1.42,0,0,1,1-1.11s.41-.05.21-.05h.22l.08,0h0l0,0v0l.11.13c-.05-.08.09.23.1.29a2.11,2.11,0,0,1,.07.49,5.78,5.78,0,0,1-.29,1.67c-.29.91,1.35,1.74,1.79.85C43.36,222.43,43.46,220.1,41.63,219.11Zm-7.7-5.18.13.38a.46.46,0,0,0-.38-.11c-.75.13-1.48.32-2.22.48,0-.08,0-.15,0-.23a22.19,22.19,0,0,1,2.34-.45A.43.43,0,0,0,33.93,213.93Zm-.27-.8a.46.46,0,0,0-.15,0,22,22,0,0,0-2.35.46c-.06-.2-.11-.39-.18-.59.79-.27,1.58-.51,2.39-.7Zm-.73-2.06.14.36c-.82.19-1.61.44-2.4.71-.07-.18-.13-.36-.21-.54A21.66,21.66,0,0,1,32.92,211.06Zm-.37-.86a20.32,20.32,0,0,0-2.48.56l-.24-.5,2.51-.46Zm-5-3.28a5.54,5.54,0,0,1,2.92.76,5.44,5.44,0,0,0-.9.26c-.54.2-.31,1.08.24.88a2.16,2.16,0,0,1,1.51-.19.38.38,0,0,0,.25,0l.26.33c-.82.15-1.64.31-2.46.45A14.62,14.62,0,0,0,27.54,206.93Zm-3.32,4.66a7.06,7.06,0,0,1,4.18-.16,44.42,44.42,0,0,0,1.73,4.78c-1.62-1.63-3.19-3.39-5.31-4.37-.2-.09-.4-.17-.61-.25Zm-.06,1.29A47.57,47.57,0,0,1,27,217.33h0q-.69-.44-1.41-.83c-.14-.31-.28-.62-.44-.91a.45.45,0,0,0,0-.78c-.22-.13-.44-.24-.66-.35-.42-.67-.87-1.32-1.35-2Q23.64,212.66,24.16,212.87Zm.07,3c-.39-.18-.8-.35-1.2-.52-.11-.21-.23-.41-.35-.62a9.78,9.78,0,0,1,1.16.46C24,215.37,24.1,215.6,24.23,215.83Zm-2.47-3.65,0,0c.42.53.82,1.07,1.21,1.62a10.18,10.18,0,0,0-1-.27c-.34-.5-.7-1-1.08-1.48C21.19,212.11,21.47,212.13,21.76,212.18Zm0,2.65-.62-.21a.39.39,0,0,0-.37.06l-.28-.42a9.7,9.7,0,0,1,1,.12C21.54,214.52,21.63,214.68,21.72,214.83Zm-2-2.75q.51.64,1,1.29c-.3,0-.61,0-.92,0L19,212.15C19.26,212.12,19.51,212.09,19.76,212.08Zm-1.71.28.7,1-.48.06a6.56,6.56,0,0,0-.75-.92Zm-2.48,1a7.25,7.25,0,0,0,.51,1,8.88,8.88,0,0,0-1.17-.61C15.12,213.61,15.34,213.48,15.57,213.36ZM3.8,224.83l.34.15a4.78,4.78,0,0,0-1,.93A11,11,0,0,1,3.8,224.83Zm1.28,10.33c-1-.3-2.67-.54-2.86-1.57a1.78,1.78,0,0,1,.15-1.07c.08-.06.14-.13.11-.22.43-.77,1.22-1.44,1.64-2.11.2-.31-.38-.3-.52-.25a6.21,6.21,0,0,0-2.14,1.57h0a14.89,14.89,0,0,1,.42-2.36h0c.81.15,1.85,1,2.7.55.23-.12.38-.39.08-.53a15.2,15.2,0,0,0-1.73-.74,11.31,11.31,0,0,1,1.27-2.22c.23-.3.47-.67.74-1a2.44,2.44,0,0,0,.5,0c.29,0,.66-.36.28-.56l-.18-.09c.09-.16-.07-.31-.28-.21l-.06,0-1.69-.89a7.9,7.9,0,0,1,2.71-3.29,8.39,8.39,0,0,1,3.37-1.38h0a.56.56,0,0,0,.31-.06l.89-.15c.22,0,.53-.36.19-.48a4.33,4.33,0,0,0-1.53-.21l-.19-.09a10.23,10.23,0,0,1,6.5-2.1q.52.44,1,.89c-1.82.24-3.6,1.51-5.15,2.64,0-.09,0-.16-.13-.18-3.27-.39-5,3.77-5.39,6.38a.34.34,0,0,0,0,.14c-.29.16-.42.6,0,.77s.59.24.62.67c0,.58.94.59.9,0a1.75,1.75,0,0,0-.14-.59c.3.14.6.27.91.38a8.46,8.46,0,0,0-3.72,4.63c-.1.28.27.51.46.6.54.26,1.21.63,1.9.93A5.86,5.86,0,0,0,5.08,235.16Zm18.09-11.58-.63,0,0-.1a.47.47,0,0,0-.9.05,6.81,6.81,0,0,0-1.28,0c-.13,0-.43.28-.23.39a.41.41,0,0,0,.14.62c.52.28.76,1,1.1,1.43a.46.46,0,0,0,.11.1l-.36.38c-.27-.27-.54-.54-.78-.83-.37-.45-1,.2-.64.64s.55.59.82.87a22.81,22.81,0,0,0-1.42,1.92A.42.42,0,0,0,19,229l-.42-.2a.27.27,0,0,0-.15-.37,14.8,14.8,0,0,0-2.56-1.19A7.57,7.57,0,0,1,17.13,225a5.07,5.07,0,0,0,1-1.65c0-.16-.13-.25-.27-.21a4.9,4.9,0,0,0-1.78,1.07A21.94,21.94,0,0,0,14,222.44c.42.05.83.09,1.26.1.26.24.51.49.77.74.42.4,1.07-.24.64-.64l-.11-.11.43,0c.24,0,.54-.37.2-.49a9,9,0,0,0-1.56-.36,4.73,4.73,0,0,0-1-.66.48.48,0,0,0-.68.41,6.47,6.47,0,0,1-2.16-.7c1.79-1.29,3.63-2.85,5.78-3.34,2.32,2.18,4.51,4.55,7.07,6.08A7.48,7.48,0,0,1,23.17,223.58Zm.55.76-.44.25a1.87,1.87,0,0,1-.23-.21Zm-1.21.8-.43.35c-.29-.39-.52-.84-.83-1.22l.67.09A3,3,0,0,0,22.52,225.14ZM15.64,235c-1.25-.52-2.52-.59-3.59-1.44.45-.73.94-1.48,1.48-2.2a.49.49,0,0,0,.32-.41c.2-.24.4-.47.61-.7a.47.47,0,0,0,.55-.54,8,8,0,0,1,1.22-.92,4.65,4.65,0,0,0,1,.35.4.4,0,0,0,.17.15l1.1.51.08,0C17.52,231.5,16.56,233.32,15.64,235Zm2.45-.37c1.64.49,3.28,1,4.92,1.44a.53.53,0,0,0-.32.38,36.16,36.16,0,0,1-4.78-1.57l.13-.27ZM15.41,238c.47.12,1,.22,1.44.31a16.67,16.67,0,0,1-5.37-1.46c.26-.18.7-.36.84-.47.38-.29.76-.58,1.16-.83a4.54,4.54,0,0,0,1.77.14c-.22.39-.44.76-.66,1.12C14.26,237.32,15,237.89,15.41,238ZM9.89,225.1c.58.56,1.12,1.16,1.68,1.73-.31-.05-.63-.11-.94-.18l-.07-.06-.39-.2c-.15-.11-.3-.23-.45-.35a.21.21,0,0,0-.24,0c-.61-.26-1.24-.48-1.84-.74.42-2.21,1.4-4.87,3.58-5.73-.32.24-.63.46-.93.66s-.39.51-.1.73a6.67,6.67,0,0,0,1.71.95.46.46,0,0,0,.15.19,32.85,32.85,0,0,1,3.4,2.69c-.1.12-.19.24-.28.37-1.18-.91-2.24-2-3.44-2.87-.47-.35-.92.44-.46.79,1.18.88,2.23,1.94,3.4,2.84l-.15.29a21.17,21.17,0,0,0-2.93-2.61c-.45-.36-1.1.28-.64.64A20.15,20.15,0,0,1,14,227H13c-.92-.76-1.66-1.68-2.51-2.5C10.11,224.05,9.47,224.7,9.89,225.1Zm4.22,2.58a.87.87,0,0,0,.64.51,3.91,3.91,0,0,1,.75.26,6.1,6.1,0,0,0-1.18.59,7.45,7.45,0,0,1-1.38-1.12.38.38,0,0,0-.29-.15A5.3,5.3,0,0,0,14.12,227.68Zm-7.7,7.75a9.9,9.9,0,0,1,1.29-2.18,3.2,3.2,0,0,0,1.75.17c.31-.07.62-.39.24-.62a21.79,21.79,0,0,0-3.38-1.45,12.44,12.44,0,0,1,3.23-4.22,8.06,8.06,0,0,0,3,.62h.08a.49.49,0,0,0-.32.79,6.47,6.47,0,0,0,1.25,1c-.17.14-.34.28-.5.44-.57-.5-1.15-1-1.71-1.51s-1.07.24-.64.64,1.14,1,1.72,1.53l-.27.32a5.26,5.26,0,0,0-2-1.71c-.52-.25-1,.53-.46.79a4.57,4.57,0,0,1,1.83,1.66l-.09.13a8.53,8.53,0,0,1-1.69-1.4c-.42-.4-1.07.24-.64.64A9.74,9.74,0,0,0,11,232.61l-.47.72a.45.45,0,0,0,.11.54,6.85,6.85,0,0,0,2.22,1.45l-1.57.7a2.8,2.8,0,0,0-1.2.69.43.43,0,0,0-.05.09Zm4,3.68s-.05.06-.08.09c-.12-.41-.95-.58-1.27-.69-.59-.2-1.17-.44-1.76-.67.19-.11.39-.22.58-.32a.33.33,0,0,0,.13-.15,6.39,6.39,0,0,0,2.88.42c.34.2.69.4,1.05.57A7.88,7.88,0,0,0,10.38,239.12Zm8.54.46a.35.35,0,0,0,0,.15,22.52,22.52,0,0,1-7.08-.48c.23-.22.46-.43.7-.62a6.63,6.63,0,0,0,5.49.22.24.24,0,0,0,.11-.37,16.46,16.46,0,0,0,1.67.1A3.44,3.44,0,0,0,18.92,239.57ZM18.74,237a5.71,5.71,0,0,1-1.28-.37.48.48,0,0,0-.57.14h0q.32-.57.62-1.14a31.12,31.12,0,0,0,3.62,1.27A13.57,13.57,0,0,1,18.74,237Zm9.63.3s0,0,0,.07c-2.41,1.65-4.9,3.55-7.78,2.29a6.28,6.28,0,0,1,1-1.19,10.63,10.63,0,0,0,3.08-.85.48.48,0,0,0,.46-.22,8.57,8.57,0,0,0,1.72-1.19l.13.08a3.63,3.63,0,0,0-.44.38c-.23.24,0,.52.3.5a6.47,6.47,0,0,0,1.8-.35A2.24,2.24,0,0,0,28.37,237.32Zm-4.46-1h0Zm3.66-.72.08-.08a.35.35,0,0,0,.07-.11l.46.21-.34.18Zm4.58-6.38a36.06,36.06,0,0,1-3.9-1.59c-.53-.24-1,.54-.46.79A40.3,40.3,0,0,0,31.53,230a3.87,3.87,0,0,0-.27.54A37.69,37.69,0,0,1,27.61,229c-.53-.24-1,.54-.46.79A39.7,39.7,0,0,0,31,231.37c0,.09,0,.18,0,.27a26.4,26.4,0,0,1-3.58-1.42c-.53-.24-1,.54-.46.79a26.94,26.94,0,0,0,4,1.57c0,.1,0,.2,0,.31-1.45-.38-2.84-1-4.29-1.33a.46.46,0,0,0-.24.88c1.43.36,2.8.94,4.23,1.31l-.46.43a9,9,0,0,0-3.76-1.4c-.57-.11-.81.77-.24.88a9.1,9.1,0,0,1,3.28,1.14c-.1.08-.19.16-.3.23l-.09.05a.39.39,0,0,0-.18-.16l-2.74-1.27c-.53-.24-1,.54-.46.79l1.45.67-.27.11a7.66,7.66,0,0,0-1.86-.38c-.58-.06-.57.85,0,.91l.41,0-1,.35a.46.46,0,0,0-.22-.73c-1.91-.57-3.83-1.11-5.74-1.68l.13-.27h0c1.87.52,3.72,1.07,5.59,1.58a.46.46,0,0,0,.24-.88c-1.81-.5-3.62-1-5.43-1.54l.29-.58a32.71,32.71,0,0,1,4.74,1.6c.53.24,1-.55.46-.79a33.52,33.52,0,0,0-4.77-1.63l.26-.49a26.93,26.93,0,0,0,3.69,1.07c.57.13.81-.74.24-.88a26.67,26.67,0,0,1-3.46-1l.35-.56a15.61,15.61,0,0,1,3.4,1c.53.24,1-.55.46-.79a16.12,16.12,0,0,0-3.31-1l0-.05c.23-.32.47-.62.7-.9a3.26,3.26,0,0,0,1.86.26c.57-.08.58-1,0-.91a3,3,0,0,1-1.23,0,7.21,7.21,0,0,1,4.72-2.31,10.33,10.33,0,0,0,4.78.2h0c.22.18.43.37.63.56q-.6.24-1.2.45l-.25-.11a.49.49,0,0,0-.68.43l-.43.12c-.47-.14-.95-.27-1.42-.38a.46.46,0,0,0-.36.82l-.19-.08c-.53-.24-1,.55-.46.79,1.41.64,2.9,1.09,4.32,1.69ZM29,226.89s0,0,0,0l-.33-.14Zm4.26,5.68a.41.41,0,0,0,.16.13,41.79,41.79,0,0,0,4.31,1.78c0,.2-.07.4-.09.6a19.46,19.46,0,0,0-4.37-1.54C33.3,233.22,33.3,232.89,33.3,232.57Zm.26,2.74a7.73,7.73,0,0,1-.16-.8,14.35,14.35,0,0,1,4.17,1.54c0,.22,0,.44,0,.66a18.06,18.06,0,0,0-3.6-1.45A.41.41,0,0,0,33.56,235.31Zm1,2.17a6,6,0,0,1-.64-1.09c0-.07,0-.13-.07-.2a16.53,16.53,0,0,1,3.68,1.56c0,.3,0,.6.09.9a4.42,4.42,0,0,1-2.49-1.14A.38.38,0,0,0,34.56,237.48Zm1.78,1.77a9.92,9.92,0,0,0,1.1.29.44.44,0,0,0,.35-.07c.06.24.13.48.21.71A9.35,9.35,0,0,1,36.34,239.25Zm1.85-7.18a18.11,18.11,0,0,0-3-.93c-.57-.14-.81.74-.24.88A15.67,15.67,0,0,1,38,233l-.1.57a40.72,40.72,0,0,1-4-1.66.47.47,0,0,0-.61.19,25.9,25.9,0,0,0,0-2.94.32.32,0,0,0,0,0,.38.38,0,0,0-.17-.57c-1-.46-2.08-.82-3.13-1.21l.29-.08a10.85,10.85,0,0,1,3,1.38c.48.33.94-.46.46-.79a9,9,0,0,0-.86-.51,10.09,10.09,0,0,0,1.29.36.45.45,0,0,0,.52-.29l.23.28,0,0a.44.44,0,0,0,.18.76,16.26,16.26,0,0,1,3,.94c0,.06,0,.12,0,.18a7.87,7.87,0,0,0-2.9-.66.46.46,0,0,0-.21.86h0a.46.46,0,0,0-.24.88,20.5,20.5,0,0,1,3.35,1.23Zm-5.28-5.7.68-.27c.2.21.4.43.59.65A11,11,0,0,1,32.9,226.37Zm4.94,1.71.1.23a21.17,21.17,0,0,0-2.33-.67.5.5,0,0,0,.1-.31.39.39,0,0,0,.26.17A10.93,10.93,0,0,1,37.84,228.08Zm-.68-3.82c.17.17.33.36.49.54h0Zm-.95,2.37h0a.48.48,0,0,0-.56.49.43.43,0,0,0,0-.07c-.37-.46-.75-.9-1.15-1.33l.48-.22a12.16,12.16,0,0,0,1.28,1.13Zm2.08,4.32a21,21,0,0,0-3-1.11l.1,0a7.56,7.56,0,0,1,3,.75C38.31,230.72,38.31,230.83,38.3,230.94Zm.29-6.39a.48.48,0,0,0-.09-.19,33.59,33.59,0,0,1-2.59-2.81.46.46,0,0,0-.85.21H35c-4.78.39-8.24-1.86-11.94-4.57-.47-.35-.92.44-.46.79,3.67,2.69,7.12,4.87,11.7,4.73a19.82,19.82,0,0,1,2.57,2.6,2.13,2.13,0,0,0-.33.41,11,11,0,0,1-1.06-1,.52.52,0,0,0-.21-.21c-.5-.53-1-1.09-1.41-1.66s-1,.19-.64.64.7.85,1.07,1.26l-.5.23c-.36-.35-.72-.69-1.11-1a.49.49,0,0,0-.79.31c-.55,0-1.07-.11-1.56-.2a9.39,9.39,0,0,0-2.39-.62c-3.15-1.11-5.31-3.17-8.09-6a25.92,25.92,0,0,0-2.5-2.27.43.43,0,0,0,0-.65,4.6,4.6,0,0,1-1-1.64l.22-.09a5.68,5.68,0,0,1,.82.92.5.5,0,0,0,.4.59,10.11,10.11,0,0,1,.73,1.55c.21.54,1.08.31.87-.24a12.9,12.9,0,0,0-.64-1.41l.58,0a23.58,23.58,0,0,1,1.55,2.53c.27.52,1,.06.78-.46-.11-.22-.25-.44-.37-.66.35.12.7.23,1,.36.14.28.28.56.39.85.21.54,1.09.31.87-.24l0-.09c.44.2.87.41,1.29.64.06.15.14.29.2.44a.49.49,0,0,0,.82.14l.61.36a.44.44,0,0,0,.66-.43c.28.47,1,0,.76-.49a34.35,34.35,0,0,0-2.12-3.49l.36.21.14.13a.44.44,0,0,0,.12.33,8.29,8.29,0,0,1,2,3.81c.13.57,1,.33.87-.24a8.79,8.79,0,0,0-.35-1.16,16,16,0,0,0,2.34,2.29c1.22.87,2.3,1.5,3.79,1.07.21-.06.47-.41.13-.5A8.71,8.71,0,0,1,32.1,218h0a4.36,4.36,0,0,1,1.94.28c.53.23,1-.55.46-.79a5.35,5.35,0,0,0-2.4-.4.43.43,0,0,0-.23.08c0-.16,0-.33-.07-.5.76,0,1.52-.16,2.28-.09.58,0,.58-.86,0-.91-.81-.07-1.61.11-2.42.09l0-.19c.75-.17,1.5-.36,2.26-.49a.36.36,0,0,0,.31-.29c.11.29.22.58.34.87.6,1.46,1.71,3.76,3.26,4.25a1.41,1.41,0,0,0-.29.68,3,3,0,0,0-.16.56.45.45,0,0,0-.57.32c-.07.39.3.82.61,1.17a3.07,3.07,0,0,0,1.25,1.79.74.74,0,0,0,.27.11Zm-3-1.89-.27-.24,0-.07C35.47,222.46,35.54,222.56,35.62,222.66Zm-24,12.28c-.55-.28-1-.76-1.52-1s-1,.52-.46.79,1,.76,1.52,1S12.11,235.21,11.59,234.94ZM6.24,228c.2-.45.17-.8-.31-1s-.93.46-.51.75C5.4,228.17,6,228.48,6.24,228Z"/></svg>