<svg version="1.1" xmlns="http://www.w3.org/2000/svg" xmlns:xlink="http://www.w3.org/1999/xlink" enable-background="new 0 0 2588.233 499.412" xml:space="preserve" width="678.5079355239868" height="133.47619032859802" style=""><rect id="backgroundrect" width="100%" height="100%" x="0" y="0" fill="none" stroke="none" style="" class=""/>

<g class="currentLayer" style=""><title>Layer 1</title><g id="svg_1" class="" fill="#b80404" fill-opacity="1" stroke="#b80404" stroke-opacity="1">
	<path d="M525.2639045715332,97.15803527832031 c-6.209250450134277,5.298323631286621 -12.332331657409668,6.186733245849609 -16.018535614013672,6.771191596984863 c-0.05938868969678879,0.4781566560268402 -0.10970711708068848,0.9563133120536804 -0.15505850315093994,1.4344700574874878 c12.97070598602295,-0.7214789986610413 22.51544189453125,-8.364104270935059 24.573097229003906,-17.13340950012207 c-0.999025821685791,-0.008690083399415016 -1.9844461679458618,-0.016773879528045654 -2.9748337268829346,-0.025463968515396118 C529.6846809387207,91.52667236328125 527.9743537902832,94.75855255126953 525.2639045715332,97.15803527832031 z" id="svg_2" fill="#b80404" fill-opacity="1" stroke="#b80404" stroke-opacity="1"/>
	<path d="M151.40422439575195,97.15803527832031 c-2.7105000019073486,-2.3996753692626953 -4.420894622802734,-5.631376266479492 -5.424887657165527,-8.953210830688477 c-0.9901716113090515,0.008690083399415016 -1.9755915403366089,0.016773879528045654 -2.9748337268829346,0.025463968515396118 c2.0576560497283936,8.769303321838379 11.60239028930664,16.411930084228516 24.573097229003906,17.13340950012207 c-0.04535136744379997,-0.4781566560268402 -0.09566978365182877,-0.9563133120536804 -0.15505850315093994,-1.4344700574874878 C163.73653030395508,103.34477996826172 157.61348342895508,102.45637512207031 151.40422439575195,97.15803527832031 z" id="svg_3" fill="#b80404" fill-opacity="1" stroke="#b80404" stroke-opacity="1"/>
	<path d="M503.0701789855957,100.75411987304688 c-2.0164079666137695,-0.2265484631061554 -4.124382495880127,0.8738585710525513 -4.977636337280273,2.5985372066497803 c-0.8536855578422546,1.7252848148345947 -0.3874302804470062,3.9402456283569336 1.10247004032135,5.2334513664245605 c1.4899005889892578,1.2932056188583374 3.885316848754883,1.561587929725647 5.659634590148926,0.6353864669799805 c1.7736703157424927,-0.9259991645812988 2.787597417831421,-2.9756460189819336 2.394767999649048,-4.840376377105713 C506.8565559387207,102.5176010131836 505.0878791809082,100.98045349121094 503.0701789855957,100.75411987304688 z" id="svg_4" fill="#b80404" fill-opacity="1" stroke="#b80404" stroke-opacity="1"/>
	<path d="M173.42103958129883,100.77735900878906 c-1.9423344135284424,0.293643981218338 -3.6207668781280518,1.793795108795166 -4.002150535583496,3.60375714302063 c-0.39304521679878235,1.8647301197052002 0.6210976839065552,3.9143776893615723 2.394767999649048,4.840376377105713 c1.7741024494171143,0.9262012243270874 4.169734477996826,0.6578190326690674 5.659417629241943,-0.6353864669799805 c1.4899005889892578,-1.2930035591125488 1.9561556577682495,-3.508166551589966 1.10247004032135,-5.2334513664245605 C177.7009162902832,101.5849380493164 175.50114822387695,100.46349334716797 173.42103958129883,100.77735900878906 z" id="svg_5" fill="#b80404" fill-opacity="1" stroke="#b80404" stroke-opacity="1"/>
	<path d="M598.0159797668457,80.70732116699219 c-11.647957801818848,-2.0195348262786865 -16.52949333190918,-0.2089661955833435 -24.20359230041504,1.9684048891067505 c-5.866954803466797,1.6567742824554443 -5.442811489105225,1.2721878290176392 -11.351447105407715,1.331805944442749 c-0.18226931989192963,-1.6608163118362427 -0.7845785617828369,-3.3218350410461426 -2.3725244998931885,-4.252481460571289 c-0.793864905834198,0.05982011556625366 -1.578875184059143,0.07659399509429932 -2.3541676998138428,0.1067061498761177 c-0.04319177567958832,3.956817150115967 -0.049670543521642685,3.632657289505005 -0.23258773982524872,4.111622333526611 c-4.9331488609313965,0.10872708261013031 -96.48762512207031,-0.06305363029241562 -103.6758041381836,0.12368211150169373 c2.9819602966308594,1.6731442213058472 3.4089109897613525,2.305903434753418 6.5334038734436035,2.305903434753418 c1.1892857551574707,0 96.41937255859375,-0.04001479968428612 97.2383041381836,-0.07659399509429932 c0.08184842020273209,1.353227972984314 0.08681546896696091,0.8496072292327881 0.13691794872283936,4.384853839874268 c1.1223384141921997,-0.17077024281024933 2.4092369079589844,-0.17077024281024933 3.289701461791992,-0.9563133120536804 c0.9582095742225647,-0.892451286315918 1.195116400718689,-2.2074835300445557 1.6104055643081665,-3.364072561264038 c1.847960352897644,0.03415404632687569 3.7138450145721436,-0.11539620906114578 5.556838512420654,0.13641409575939178 c12.117237091064453,2.4016964435577393 14.525826454162598,7.351406574249268 41.27168273925781,0.584458589553833 c0.508799135684967,-0.12873448431491852 4.179452896118164,-1.0733263492584229 5.297904014587402,-1.6258536577224731 C613.6848030090332,83.89678192138672 599.5274543762207,80.96195983886719 598.0159797668457,80.70732116699219 z" id="svg_6" fill="#b80404" fill-opacity="1" stroke="#b80404" stroke-opacity="1"/>
	<path d="M222.84212112426758,84.0970458984375 c-7.188191890716553,-0.18673573434352875 -98.74267578125,-0.014955028891563416 -103.6758041381836,-0.12368211150169373 c-0.18378102779388428,-0.48078393936157227 -0.18961189687252045,-0.1653136909008026 -0.23258773982524872,-4.111622333526611 c-0.7752923965454102,-0.030112149193882942 -1.560302734375,-0.0470881313085556 -2.3539514541625977,-0.1067061498761177 c-1.587945818901062,0.9308494329452515 -2.1902551651000977,2.591665744781494 -2.3725244998931885,4.252481460571289 c-5.908418655395508,-0.05982011556625366 -5.484276294708252,0.324766606092453 -11.351447105407715,-1.331805944442749 c-7.673882961273193,-2.1773715019226074 -12.555632591247559,-3.9879403114318848 -24.20359230041504,-1.9684048891067505 c-1.3035277128219604,0.21967720985412598 -15.65162181854248,3.1642003059387207 -16.745450973510742,4.7783331871032715 c1.0350910425186157,0.5113002061843872 4.401025772094727,1.3989012241363525 5.297904014587402,1.6258536577224731 c26.74304962158203,6.766341209411621 29.146455764770508,1.8190568685531616 41.27168273925781,-0.584458589553833 c1.8429934978485107,-0.25181031227111816 3.7090938091278076,-0.1022600531578064 5.557054042816162,-0.13641409575939178 c0.41528889536857605,1.1565895080566406 0.652411699295044,2.47162127494812 1.6104055643081665,3.364072561264038 c0.8806803822517395,0.7857452034950256 2.167363405227661,0.7857452034950256 3.289701461791992,0.9563133120536804 c0.05031842365860939,-3.5352470874786377 0.05506950989365578,-3.0314242839813232 0.13691794872283936,-4.384853839874268 c0.8189162015914917,0.03678128495812416 96.04900360107422,0.07659399509429932 97.2383041381836,0.07659399509429932 C219.4332160949707,86.40315246582031 219.85994338989258,85.77039337158203 222.84212112426758,84.0970458984375 z" id="svg_7" fill="#b80404" fill-opacity="1" stroke="#b80404" stroke-opacity="1"/>
	<path d="M513.8948860168457,78.85894775390625 c0.7802594900131226,-1.5969544649124146 -0.5245641469955444,-2.975848913192749 -1.3320344686508179,-4.265213966369629 c-0.9078912138938904,-1.1869035959243774 0.451570063829422,-4.619284152984619 5.611475944519043,-5.302769660949707 c2.6187171936035156,-0.11539620906114578 5.301574230194092,0.3203205466270447 7.591602802276611,1.5668420791625977 c3.8552982807159424,2.4675793647766113 5.593550682067871,6.8952789306640625 5.5477681159973145,11.143314361572266 c1.0312037467956543,-0.08528407663106918 2.0669422149658203,-0.1578361690044403 3.1117517948150635,-0.1835022270679474 c-0.05031842365860939,-0.2902083992958069 -0.15505850315093994,-0.871029257774353 -0.20969611406326294,-1.1652796268463135 c-1.911884069442749,-17.902179718017578 -29.847246170043945,-15.04132080078125 -27.283164978027344,-2.30549955368042 C507.6755256652832,81.15172576904297 512.9662971496582,81.88633728027344 513.8948860168457,78.85894775390625 z" id="svg_8" fill="#b80404" fill-opacity="1" stroke="#b80404" stroke-opacity="1"/>
	<path d="M150.90214920043945,70.85761260986328 c2.2902441024780273,-1.2465217113494873 4.972886085510254,-1.6822384595870972 7.591602802276611,-1.5668420791625977 c5.160121440887451,0.6834851503372192 6.519582271575928,4.116068363189697 5.611691474914551,5.302769660949707 c-0.8074703216552734,1.2893660068511963 -2.1122937202453613,2.668259620666504 -1.3320344686508179,4.265213966369629 c0.9286232590675354,3.0273823738098145 6.219400405883789,2.2927675247192383 6.9622979164123535,-0.5125128030776978 c2.564080238342285,-12.735620498657227 -25.37128257751465,-15.596678733825684 -27.283164978027344,2.30549955368042 c-0.0546375997364521,0.2942502796649933 -0.15937763452529907,0.875071108341217 -0.20969611406326294,1.1652796268463135 c1.0448089838027954,0.025463968515396118 2.08054780960083,0.0982181504368782 3.1117517948150635,0.1835022270679474 C145.3085823059082,77.75287628173828 147.04683303833008,73.3251953125 150.90214920043945,70.85761260986328 z" id="svg_9" fill="#b80404" fill-opacity="1" stroke="#b80404" stroke-opacity="1"/>
	<path d="M431.7804145812988,77.62981414794922 c-19.809911727905273,-10.921615600585938 -50.414520263671875,-25.56986427307129 -70.7675552368164,-15.259380340576172 c-7.992422103881836,4.068575382232666 -12.79664421081543,12.270195007324219 -13.339778900146484,20.27153968811035 c0.652411699295044,0.016975974664092064 1.3141095638275146,0.03839804232120514 1.980126976966858,0.05557611957192421 c0.5016725063323975,-2.740812301635742 1.2091537714004517,-5.503247261047363 2.7143874168395996,-7.932833194732666 c2.440767765045166,-3.932162046432495 6.1820387840271,-7.117177486419678 11.164210319519043,-8.282861709594727 c4.023962020874023,-0.9007370471954346 11.957858085632324,-0.1879483014345169 15.178888320922852,0.5210008025169373 c13.951589584350586,3.0100021362304688 20.927494049072266,5.934720516204834 34.25885009765625,12.33446216583252 c27.14689826965332,13.027647018432617 54.07114791870117,28.019054412841797 82.78935241699219,27.119930267333984 c-0.0269948597997427,-0.41227370500564575 -0.045783285051584244,-1.1084909439086914 -0.045783285051584244,-1.3962740898132324 C476.1659736633301,103.1014633178711 464.7495918273926,94.46916198730469 431.7804145812988,77.62981414794922 z" id="svg_10" fill="#b80404" fill-opacity="1" stroke="#b80404" stroke-opacity="1"/>
	<path d="M297.9573860168457,67.00305938720703 c3.221026659011841,-0.7089490294456482 11.154923439025879,-1.4217381477355957 15.178888320922852,-0.5210008025169373 c4.982170581817627,1.1656837463378906 8.723228454589844,4.350700378417969 11.164210319519043,8.282861709594727 c1.5052332878112793,2.4295859336853027 2.212714672088623,5.19202184677124 2.7143874168395996,7.932833194732666 c0.6660172343254089,-0.017380166798830032 1.3277150392532349,-0.03880223631858826 1.980126976966858,-0.05557611957192421 c-0.5431365966796875,-8.001343727111816 -5.347357749938965,-16.20296287536621 -13.339778900146484,-20.27153968811035 c-20.353046417236328,-10.310481071472168 -50.95744323730469,4.337766647338867 -70.7675552368164,15.259380340576172 c-32.969146728515625,16.839359283447266 -44.38560104370117,25.47184944152832 -63.932674407958984,27.43155860900879 c0,0.2877832353115082 -0.01900438219308853,0.9840003848075867 -0.045783285051584244,1.3962740898132324 c28.718210220336914,0.8991203308105469 55.642459869384766,-14.092284202575684 82.78935241699219,-27.119930267333984 C277.0298652648926,72.93777465820312 284.0057563781738,70.01304626464844 297.9573860168457,67.00305938720703 z" id="svg_11" fill="#b80404" fill-opacity="1" stroke="#b80404" stroke-opacity="1"/>
	<path d="M404.2603340148926,60.07300567626953 c14.827953338623047,-6.139644145965576 23.46004295349121,0.6871229410171509 46.57283401489258,15.015657424926758 c3.654456615447998,2.1686809062957764 7.486861705780029,4.269457817077637 11.77991008758545,5.067935466766357 c3.7412712574005127,0.6489269733428955 7.724201679229736,1.054531455039978 11.37433910369873,-0.2049243003129959 c4.448321342468262,-1.519956350326538 8.257621765136719,-4.487114429473877 10.926656723022461,-8.129066467285156 c-0.24187394976615906,-0.1919902116060257 -0.716335654258728,-0.5808209776878357 -0.9489233493804932,-0.7730131149291992 c-1.7378209829330444,1.1489098072052002 -3.480177640914917,2.1761584281921387 -5.555110454559326,2.6716954708099365 c-2.4990761280059814,0.5969884991645813 -6.205578804016113,1.2319709062576294 -8.592788696289062,0.0099026532843709 c-0.4563210904598236,-0.20068030059337616 -31.676631927490234,-13.884531021118164 -33.96687698364258,-14.640162467956543 c-10.269925117492676,-3.6930830478668213 -24.759902954101562,-6.1054911613464355 -33.36024856567383,0.27747640013694763 C402.8918342590332,59.93659973144531 403.4895820617676,60.632408142089844 404.2603340148926,60.07300567626953 z" id="svg_12" fill="#b80404" fill-opacity="1" stroke="#b80404" stroke-opacity="1"/>
	<path d="M202.68062210083008,79.9518814086914 c3.64992094039917,1.2594558000564575 7.6330671310424805,0.8536491990089417 11.37433910369873,0.2049243003129959 c4.293045997619629,-0.7984772324562073 8.125452995300293,-2.899254083633423 11.77991008758545,-5.067935466766357 c23.112783432006836,-14.328533172607422 31.744873046875,-21.155502319335938 46.57283401489258,-15.015657424926758 c0.770973265171051,0.559398889541626 1.3687472343444824,-0.13641409575939178 1.7699990272521973,-0.7045029997825623 c-8.600346565246582,-6.382967948913574 -23.090320587158203,-3.9705593585968018 -33.36024856567383,-0.27747640013694763 c-2.2902441024780273,0.7556329965591431 -33.51055908203125,14.439481735229492 -33.96687698364258,14.640162467956543 c-2.386993885040283,1.2222702503204346 -6.093495845794678,0.5870858430862427 -8.592572212219238,-0.0099026532843709 c-2.074932813644409,-0.49553680419921875 -3.8172895908355713,-1.5227854251861572 -5.555110454559326,-2.6716954708099365 c-0.23258773982524872,0.19219230115413666 -0.7070494294166565,0.5808209776878357 -0.9489233493804932,0.7730131149291992 C194.42302322387695,75.46477508544922 198.2325325012207,78.43193054199219 202.68062210083008,79.9518814086914 z" id="svg_13" fill="#b80404" fill-opacity="1" stroke="#b80404" stroke-opacity="1"/>
	<path d="M409.93144607543945,83.99944305419922 c-7.9384331703186035,0.06851018220186234 -18.231246948242188,-0.13641409575939178 -21.726112365722656,0.16652624309062958 c0,0.6363970637321472 -0.003887259867042303,0.8112091422080994 0.04103218764066696,2.220215320587158 c1.7792853116989136,0.06851018220186234 23.94357681274414,0.08952806144952774 30.353452682495117,-0.016975974664092064 C414.8911323547363,84.82257843017578 412.3030586242676,83.91738891601562 409.93144607543945,83.99944305419922 z" id="svg_14" fill="#b80404" fill-opacity="1" stroke="#b80404" stroke-opacity="1"/>
	<path d="M266.7366523742676,83.99944305419922 c-2.3716604709625244,-0.08205054700374603 -4.959711074829102,0.8233348727226257 -8.668158531188965,2.369967460632324 c6.409875392913818,0.10630194842815399 28.574167251586914,0.08528407663106918 30.353452682495117,0.016975974664092064 c0.0449194498360157,-1.4090059995651245 0.04103218764066696,-1.5838181972503662 0.04103218764066696,-2.220215320587158 C284.9678840637207,83.86302947998047 274.6750679016113,84.06795501708984 266.7366523742676,83.99944305419922 z" id="svg_15" fill="#b80404" fill-opacity="1" stroke="#b80404" stroke-opacity="1"/>
	<path d="M378.2634468078613,82.4212875366211 c-1.0022650957107544,0.5911278128623962 -1.025804877281189,5.207582950592041 -1.5510168075561523,7.359691619873047 c-3.2303128242492676,13.23539924621582 -23.582927703857422,11.544675827026367 -26.97304916381836,-1.5541101694107056 c-0.684589684009552,-0.008690083399415016 -1.3642123937606812,-0.012731984257698059 -2.043834686279297,-0.012731984257698059 c0.871394157409668,3.262014865875244 1.820533275604248,5.243152141571045 4.416574954986572,7.889989376068115 c6.204930782318115,5.178683280944824 18.482192993164062,5.405029296875 24.997241973876953,0.5935529470443726 c3.3549211025238037,-2.512040376663208 5.7602715492248535,-5.789414405822754 6.120491027832031,-9.860011100769043 c0.036497049033641815,-0.4124758243560791 0.15851381421089172,-2.253358840942383 -0.03390554338693619,-2.768296957015991 C382.5616645812988,82.37217712402344 379.27263259887695,81.82610321044922 378.2634468078613,82.4212875366211 z" id="svg_16" fill="#b80404" fill-opacity="1" stroke="#b80404" stroke-opacity="1"/>
	<path d="M299.9556465148926,89.78096771240234 c-0.5187332034111023,-2.125230312347412 -0.55350261926651,-6.771393775939941 -1.5510168075561523,-7.359691619873047 c-1.0068005323410034,-0.5937549471855164 -4.297366142272949,-0.0511300265789032 -4.932501316070557,1.6478822231292725 c-0.1924193799495697,0.5145337581634521 -0.0704025998711586,2.356023073196411 -0.03390554338693619,2.768296957015991 c0.36021947860717773,4.070597171783447 2.7657856941223145,7.347970962524414 6.120491027832031,9.860011100769043 c6.515048027038574,4.811476707458496 18.792308807373047,4.58513069152832 24.997241973876953,-0.5935529470443726 c2.5958261489868164,-2.6468374729156494 3.5451812744140625,-4.628176212310791 4.416574954986572,-7.889989376068115 c-0.6796225905418396,0 -1.3594610691070557,0.004041898995637894 -2.044050931930542,0.012731984257698059 C323.5383491516113,101.32563781738281 303.18571853637695,103.01616668701172 299.9556465148926,89.78096771240234 z" id="svg_17" fill="#b80404" fill-opacity="1" stroke="#b80404" stroke-opacity="1"/>
	<path d="M372.9947090148926,86.40315246582031 c0.004319177940487862,-0.7857452034950256 0.004319177940487862,-1.5755321979522705 0.022891642525792122,-2.3608734607696533 c-7.133554458618164,-0.0470881313085556 -31.697364807128906,0.004041898995637894 -32.963314056396484,0.004041898995637894 c-0.09566978365182877,-8.773751258850098 -0.09566978365182877,-17.56447982788086 0.0321778729557991,-26.342880249023438 c4.416574954986572,0.19219230115413666 8.175771713256836,4.807435035705566 14.047693252563477,-4.1283955574035645 c3.4218688011169434,-5.499206066131592 5.219510555267334,-13.55976390838623 10.438587188720703,-17.462215423583984 c0.4837478995323181,-0.44400259852409363 1.190797209739685,-0.8198992609977722 1.2316135168075562,-1.524402379989624 c-2.8376998901367188,-0.9221593141555786 -5.944700241088867,-1.3364540338516235 -8.924070358276367,-0.9094274640083313 c-3.8552982807159424,0.7730131149291992 -6.277709484100342,3.8893182277679443 -8.741369247436523,6.485631465911865 c-2.641824960708618,-14.012455940246582 -1.5374112129211426,-16.681119918823242 -9.804750442504883,-25.87745475769043 c-8.267337799072266,9.196331977844238 -7.163140773773193,11.864994049072266 -9.804750442504883,25.87745475769043 c-2.4636592864990234,-2.59611177444458 -4.8860697746276855,-5.712618827819824 -8.741369247436523,-6.485631465911865 c-2.9795846939086914,-0.4270266592502594 -6.08636999130249,-0.012731984257698059 -8.924070358276367,0.9094274640083313 c0.04103218764066696,0.7045029997825623 0.748081624507904,1.080399513244629 1.2316135168075562,1.524402379989624 c5.219078540802002,3.902655839920044 7.016720771789551,11.963212013244629 10.438587188720703,17.462215423583984 c5.871922016143799,8.935829162597656 9.631118774414062,4.3205885887146 14.047693252563477,4.1283955574035645 c0.12763170897960663,8.778399467468262 0.12763170897960663,17.569122314453125 0.0321778729557991,26.342880249023438 c-1.2659510374069214,0 -25.829763412475586,-0.0511300265789032 -32.963314056396484,-0.004041898995637894 c0.01857246644794941,0.7853409647941589 0.01857246644794941,1.5751283168792725 0.022891642525792122,2.3608734607696533 C312.9578742980957,86.35809326171875 362.6798286437988,86.35304260253906 372.9947090148926,86.40315246582031 z" id="svg_18" fill="#b80404" fill-opacity="1" stroke="#b80404" stroke-opacity="1"/>
</g></g></svg>