<svg id="Warstwa_1" data-name="Warstwa 1" xmlns="http://www.w3.org/2000/svg" viewBox="0 0 282.39 131.4"><defs><style>.cls-1{fill:#fff;}</style></defs><title>SBR_szyszka chmielu0</title><path class="cls-1" d="M209.54,5.48c.1.15.4.07.33-.14-.67-1.89-1.22-3.65-1.68-5.34h-1.69A26,26,0,0,0,209.54,5.48Z"/><path class="cls-1" d="M202.64,5.56c.23.83.48,1.59.72,2.25.53,1.52,1.22,3.17,1.22,3.17s.31,0,.28-.11l-.46-1.5c-.16-.47-.3-1.06-.47-1.73s-.36-1.43-.52-2.27A47.72,47.72,0,0,1,202.63,0h-1.29A49.34,49.34,0,0,0,202.64,5.56Z"/><path class="cls-1" d="M242.58,1.23c0,.13.31.07.3-.06L242.68,0h-.41Z"/><path class="cls-1" d="M190.53,51.32c1.24,1.18,1.93,1.85,2.5,2.31l1.4,1.18c.11.08.29-.13.2-.23s-1.5-1.41-2.73-2.77a24.89,24.89,0,0,1-1.75-2,45.54,45.54,0,0,1-10-29.12,102.26,102.26,0,0,1,5-11.91l.55-.45L185.4,8c1.36-2.73,2.82-5.41,4.37-8H187a89.62,89.62,0,0,1-6.07,7.82,44.33,44.33,0,0,1-8.26,6.85,66.6,66.6,0,0,1-8.38,4.81c-2.39,1.15-4,1.79-4,1.79s0,.31.09.29,1.72-.45,4.25-1.34a68,68,0,0,0,9-3.92c2.09-1.09,4.11-2.31,5.87-3.47-9.85,14.4-23.75,29.26-34.23,39.18-.1.09,0,.28.15.2a162.48,162.48,0,0,0,29.33-27.39c-2.89,7.34-4.63,19.06-18.38,31.05A54.48,54.48,0,0,1,149.47,61c-1.42.89-3.12,1.82-3.06,1.79-.11.07,0,.32.13.27l1.51-.7c.58-.25,2.55-1.25,3.89-2a56.47,56.47,0,0,0,5.22-3.39A57.23,57.23,0,0,0,167,47.65c-4.09,18.2-14.53,31-15,31.4,0,.1.15.25.23.18a80.64,80.64,0,0,0,11.89-16.48c-2.06,12.55-3.53,27.82-1.87,40.44a.56.56,0,0,0,1.11,0c.7-17.2.36-25.83,3.57-42.46a76.07,76.07,0,0,0,9.12,28.12c.07.11.32,0,.27-.14a75.93,75.93,0,0,1-6.56-25.47c-.31-4.46-.58-3.05-.28-12.87a41.09,41.09,0,0,1,2.61-9.88c.64,14,6.39,26.39,12.46,37.74-1.58-2.7-2.13-6.3-3.33-9.2-6.63-16-7.22-25.18-3.35-41C180.1,37.76,184.35,44.73,190.53,51.32Z"/><path class="cls-1" d="M261.36,40.87a0,0,0,0,0,.08-.06C255.11,28.69,265.09,16,260.94,0h-3.29C262,16.06,251.56,30.84,261.36,40.87Z"/><path class="cls-1" d="M266.8,6c.63,2.46,1.18,4.79,1.8,6.75a27.86,27.86,0,0,0,1.84,4.58c.27.53.51.93.68,1.2l.25.42c.08.12.32,0,.26-.15l-.22-.43c-.15-.28-.35-.68-.58-1.22a27.3,27.3,0,0,1-1.47-4.6c-.47-2-.84-4.29-1.3-6.81A48.79,48.79,0,0,0,266.73,0h-1.86A44.21,44.21,0,0,1,266.8,6Z"/><path class="cls-1" d="M249.09,11.92c-.87,2.54-5.82,11.2-4.87,10.64,5.3-3,9.21-12.36,8.63-22.56h-2.09A30.28,30.28,0,0,1,249.09,11.92Z"/><path class="cls-1" d="M120.4,20.77c11-10.34,18.72-15.68,24-20.77h-3.57c-10.8,10.17-22.38,14.63-27.38,25.28a.83.83,0,0,0,1.31,1q2-2,4-3.92c1,1.28,2.25,2.22,3.27,3.66,2,2.89,3.58,8.8,3.26,14.22a31,31,0,0,0-2.74-3.37,29.92,29.92,0,0,0-5-4.26c-.74-.5-1.38-.88-1.83-1.13l-.71-.39c-.06,0-.19.19-.15.23a26.56,26.56,0,0,1,2.24,1.86,28.79,28.79,0,0,1,4.16,4.76c.23.32.44.65.65,1-9-9.1-12.09-5.6-14.92-17-.13-.53-1-.59-1.13,0l0,.16a.91.91,0,0,0-.95.9c-.76,7-3.32,14.66-10.54,17.29a16.59,16.59,0,0,1-5.07.65C93.83,34,92.21,24.59,103.94,18c1.57-.88.38-2.68-1-2.75-2.06-.11-3.72.23-5.61-1a17.86,17.86,0,0,1-3.64-3.29A21.39,21.39,0,0,1,88.84,0H68a47.29,47.29,0,0,0-9.32,3.49A21.47,21.47,0,0,1,56.37,0H51.89c-8.7,4.12-18.73,5.21-20,2.37A6.4,6.4,0,0,1,32.16,0h-9l.35.13a12.12,12.12,0,0,0,3.4.66A12.6,12.6,0,0,0,29,.72c-.06.35-.11.69-.15,1l-.23.13a9.11,9.11,0,0,1-3.29,1,9.78,9.78,0,0,1-3.65-.29A8.86,8.86,0,0,1,20,2s-.18.2-.16.23l.39.31a8.86,8.86,0,0,0,1.1.73,11,11,0,0,0,3.86,1.33,11.47,11.47,0,0,0,3.85-.11c.56,1.28,2,2.07,4.89,2.27l-.24.18a11.28,11.28,0,0,1-2.48,1.33A12,12,0,0,1,28.39,9,11.19,11.19,0,0,1,27,9.06a.45.45,0,0,0-.05.27,11.65,11.65,0,0,0,1.38.36,13.22,13.22,0,0,0,3.2.25,13.66,13.66,0,0,0,2-.26q-.43.49-.84,1C22.09,10.81,16.77,3.5,12,0l.07,0H7.91A1.6,1.6,0,0,0,9,1.42c4,1.46,9.55,11.32,21.89,12.09C28,18,25.61,22.87,21.18,26a1.55,1.55,0,0,0,.39,2.79l1.46.43C12.45,31.87,7.92,48.64,2.67,56.2c-1.36,2,2.45,2.87,4.77,3.44-7,6.64-6.16,21.45-6,29.76a1.53,1.53,0,0,0,1.9,1.46l.54-.14A25.29,25.29,0,0,0,0,104.66a1.62,1.62,0,0,0,1.17,1.5c1.5.56,3.26,1.2,5.1,1.71-2,2.66-1.2,8.48-1.73,11a1.47,1.47,0,0,0,1,1.77c3.55.75,7.55-.51,11-1.3-.49,2.61-.83,5.26-1.43,7.85a1.56,1.56,0,0,0,1.09,1.85c5.36,1.77,10.28-.84,15.13-3-.3,1.17-.81,2.21.32,2.77,9.38,4.72,19.4,2.62,25.9-4.53a59,59,0,0,0,3.58,5.76,1.54,1.54,0,0,0,2.64,0c3.73-6.07,11.8-4.49,18.49-15.5a24.63,24.63,0,0,0,1.72,3.85,1.41,1.41,0,0,0,1.91.5,38.3,38.3,0,0,0,16.12-18.44c1.06.54,1.93-.08,3.05-.81,13.93-9,16.24-25.48,14.1-30.16,5-7.81,8.08-13.37,5.2-23.14l.34.4c2.14,2.55,3-3.38,3.08-4.59a33.47,33.47,0,0,0-.82-11.64C126.12,27,124,22.31,120.4,20.77ZM94.87,48.35l0,.29a35.25,35.25,0,0,1,.25,6,35.92,35.92,0,0,1-.79,6c-.36,1.64-.7,2.71-.7,2.71s.22.15.25.1.51-1,1.13-2.6a37.15,37.15,0,0,0,1.78-6c.18-.88.32-1.76.43-2.61a41.94,41.94,0,0,0,4.58,7.08C97.36,68.54,91.62,76.64,82,80.92a34,34,0,0,1-1.83-4.5c-1.23-3.33-2.66-7.39-2.81-8C76.35,64.34,76,59.76,78.12,56a48.84,48.84,0,0,0,7.81-3,22.22,22.22,0,0,0-1.3,6.66,20.3,20.3,0,0,0,0,2.13s.26.06.27,0a21.49,21.49,0,0,1,2-6.25,21,21,0,0,1,3.63-5.16l1-.69c-.67,2-1.39,4.29-2,6.63-2,7-3.26,14.56-2.6,12.87A129.93,129.93,0,0,1,94.87,48.35ZM84.61,42c-1.23,1.23.37,3,1.81,2.29,1.85-.87,4.41-.36,6.45-.69h0c-4.49,4.35-10,9-21,10.83l-.48-.25c0-5.16.36-10.34.8-15.47.54-6.19,1-14.5,6.8-16.37a34.17,34.17,0,0,0,7.46.47l-.18.14a27.34,27.34,0,0,0-2.9,2.79,24.34,24.34,0,0,0-4,6.22c-.21.45-.38.88-.51,1.26s-.27.71-.34,1l-.27.87c0,.07.22.15.26.09l.37-.81c.11-.26.28-.56.46-.91s.4-.74.66-1.15a23.17,23.17,0,0,1,4.54-5.34,25.48,25.48,0,0,1,3-2.19,22.46,22.46,0,0,1,2.84-1.47c.33-.15.64-.27.93-.37-.95,1-1.95,2.06-3,3.25a62.86,62.86,0,0,0-3.81,5.05,62,62,0,0,0-3.2,5.42c-.91,1.79-1.69,3.48-2.27,5-.3.74-.56,1.42-.77,2s-.41,1.14-.54,1.59l-.43,1.39c0,.11.21.19.26.09l.54-1.34c.16-.43.4-.94.66-1.52s.56-1.24.93-1.94c.69-1.42,1.6-3,2.63-4.68a60.62,60.62,0,0,1,3.55-5c1.31-1.62,2.7-3.17,4.07-4.55.76-.75,1.51-1.45,2.22-2.09C89,31.53,89.42,37.21,84.61,42ZM28.39,87.54A10,10,0,0,0,28.54,89a43.87,43.87,0,0,0-2.95,3.52,42.57,42.57,0,0,0-3.22,5c-.77,1.42-1.21,2.39-1.21,2.39s.2.18.24.14S22,99.14,23,97.9a41.42,41.42,0,0,1,3.88-4.27A40.93,40.93,0,0,1,31.26,90l.45-.32.54-.16c-18.26,24.22-18.56,23.64,4.51-1-.63,4.87.47,10,2,14.69-7.13,5.37-20.64,8.69-22.08,5.11-.73-1.8.31-5.84.43-7.81.78-12.9,5.72-14.68,10.58-18,.15.59.26,1.14.35,1.66L27.89,84C20.14,94.6,20.14,93.73,28.39,87.54Zm3.33-1.42c-.51-8.26-6.92-15.94-2.94-24A62.68,62.68,0,0,0,36,60a26.69,26.69,0,0,0-3.78,7.22,25.41,25.41,0,0,0-.77,2.72c0,.06.23.13.26.08a23.59,23.59,0,0,1,1.16-2.52,25.25,25.25,0,0,1,7.54-8.68,45.22,45.22,0,0,0-3.6,7.2,43.49,43.49,0,0,0-2.76,11.52l-.1,1.1c0,.08.25.12.27,0,.26-1.28.48-2.41.91-3.88a42.37,42.37,0,0,1,7.43-14.58,41.76,41.76,0,0,0-1.27,5.22c-.7,3.71-.89,9.28-.41,7.89a44.31,44.31,0,0,1,2-7.42c.18-.5.38-1,.58-1.47a50.32,50.32,0,0,0,2.87,12.11C42.7,80.12,42.37,82.56,31.72,86.12ZM29,44.25s.85-1,2.26-2.45a44.56,44.56,0,0,1,5.54-4.73A44,44,0,0,1,43,33.35l-.17.17A79.47,79.47,0,0,0,29.06,51.19c-.76,1.31-1.35,2.44-1.75,3.23l-.63,1.24c0,.1.18.22.24.13l.73-1.18c.47-.74,1.14-1.8,2-3A79.1,79.1,0,0,1,36.57,43a80,80,0,0,1,6.84-6.52c-.1.42-.19.84-.28,1.26l-.21-.19s-2.22,3-4.11,6.21-3.5,6.49-3.5,6.49.2.18.23.15,2.18-2.93,4.62-5.61c.72-.8,1.45-1.58,2.14-2.28C41,52.2,41,52,44.58,52c-6.16,2.25-9.7,7-23.7,8.27-.77.07,1.42-11.87,1.76-12.92A55.7,55.7,0,0,1,26.09,39c.34-.67,3.9-7.63,4.33-7.53a33.79,33.79,0,0,0,8.84,1.24c-1.16.89-2.37,1.91-3.52,3a45.68,45.68,0,0,0-5,5.58c-1.23,1.62-1.94,2.76-1.94,2.76S28.95,44.3,29,44.25Zm29.69-22.2a23.33,23.33,0,0,1,2.49-.59,24.63,24.63,0,0,1,9.46.09c-.42.14-.86.29-1.32.47a34.62,34.62,0,0,0-5.06,2.39,38.68,38.68,0,0,0-5.19,3.68,38,38,0,0,0-4.4,4.52,33.47,33.47,0,0,0-3.07,4.51l-.56,1-.45.93c-.28.58-.53,1.08-.69,1.52l-.54,1.35c0,.1.2.2.25.11l.64-1.28c.19-.41.48-.89.8-1.43l.51-.87.63-.92a32.58,32.58,0,0,1,3.34-4.12,33.08,33.08,0,0,1,9.74-7c1.25-.56,2.45-1.05,3.57-1.43-1.15.94-2.43,2-3.65,3.2a72.68,72.68,0,0,0-6.42,6.91c0,.05.15.23.2.19a72.19,72.19,0,0,1,7.28-5.76c1.7-1.19,3.46-2.25,4.88-3.07-1.63,3.42-2.43,8.09-2.76,13.12-7.92,7.71-8.79,8.35-23.49,9.14A61.7,61.7,0,0,1,48.2,32.18a33,33,0,0,1,3.51-6.83,25.16,25.16,0,0,1,6.3-6.4c.44-.31,5.08-3.66,5.33-3.48a47.37,47.37,0,0,0,6.22,3.7,26.89,26.89,0,0,0-2.91.21A26.43,26.43,0,0,0,61,20.77a23.61,23.61,0,0,0-2.4,1S58.63,22.06,58.69,22.05Zm-19.74,65c.91-.38,1.81-.8,2.68-1.25-.58,3.69-.75,8.85-.27,7.68a43.79,43.79,0,0,1,3.14-9.43A13.89,13.89,0,0,0,48,80.64c.16.41.33.87.51,1.32a26.38,26.38,0,0,0-2.79,11.6,23.49,23.49,0,0,0,.13,2.76c0,.06.26.05.27,0a24.91,24.91,0,0,1,3.91-12c1,.6,1.65-.37,2.82-1.15a37.56,37.56,0,0,0-3.06,7.42,36,36,0,0,0-1.33,12.58c0,.08.26.08.27,0a34.92,34.92,0,0,1,8.48-21.4l.69-.77-.2-.17,2.55-1c-3.73,9.2-4.69,17.86-4.06,16.31a69.27,69.27,0,0,1,3.56-9.78,67.58,67.58,0,0,1,4.51-8.29,15.84,15.84,0,0,0,2.22-1.37c-.17,1.24-.15,2.51-.27,3.75a35.91,35.91,0,0,1-5.62,16.62,30.64,30.64,0,0,1-8.61,8.49A31.51,31.51,0,0,1,45.46,109a2.21,2.21,0,0,1-.66.19c-.18,0-.22-.19-.4-.64-.29-.7-.46-1.47-.73-2.19-.55-1.45-1.17-2.87-1.64-4.35a52.31,52.31,0,0,1-1.51-5.9C40.38,95.37,38.83,87.11,38.94,87.07Zm23.2-11.72c-3.31,2-7.23,2.8-10.55,4.86l-.38-.3c-3.38-9.25-6.48-18.89-2-27.9a49.8,49.8,0,0,0,7.15-.81,38.15,38.15,0,0,0-3.41,7.57s.22.15.24.12a39.14,39.14,0,0,1,3.21-4.22A30,30,0,0,1,62,49.6a64.32,64.32,0,0,0-6.47,11.68c0,.06.2.18.24.13a65.76,65.76,0,0,1,5.55-7.68,60.4,60.4,0,0,1,4.54-4.84A63.37,63.37,0,0,0,58.22,64C57.45,66.27,57,67.81,57,67.81s.22.16.26.09a62.21,62.21,0,0,1,5.8-11.11,63.41,63.41,0,0,1,4.09-5.51,43.88,43.88,0,0,1-1.25,4.66c-1.37,4.33-3.53,7.88-2.62,7a49.7,49.7,0,0,0,4.16-6.29c.33-.58.63-1.16.92-1.74.06,1.35-.1,2.36,1.19,2.58-3.6,10.27-3.84,9.73,2.75-.22l1.8-.35a11.5,11.5,0,0,0-.87,5.28,15.47,15.47,0,0,0-1.36,1,13.87,13.87,0,0,0-2,2.58C67.75,69.37,65.86,73,62.15,75.34ZM86.34.63a11.83,11.83,0,0,0,0,2.3,18.39,18.39,0,0,0,3.74,8.83l-.49-.17a59,59,0,0,0-6-1.64A58.12,58.12,0,0,0,77.44,9,52.52,52.52,0,0,0,72,8.84c-.79,0-1.51,0-2.15.08S68.7,9,68.24,9l-1.43.14c-.11,0-.09.27,0,.27l1.43,0c.45,0,1,0,1.64,0s1.34,0,2.12.1a51.67,51.67,0,0,1,5.26.64,56.68,56.68,0,0,1,5.89,1.39,57,57,0,0,1,5.66,2.06A51.33,51.33,0,0,1,93.51,16l.38.22c-1.6-.36-3.42-.74-5.26-1-5.18-.91-10.38-1.25-10.38-1.25s-.1.25,0,.27,5.09,1,10,2.62c1.4.43,2.77.91,4,1.36-.64.2-1.29.38-2,.52C78,21.23,65.53,16.19,57.61,7.57,66.82,3.08,76,.26,86.34.63ZM55,5.59c-1.06.68-1.31,1.43-1.1,2a17.17,17.17,0,0,0-2.72-.2,16.69,16.69,0,0,0-5.3.92A13.62,13.62,0,0,0,44.29,9l-.58.29s.05.26.1.25l.61-.17A13.11,13.11,0,0,1,46.06,9a15.54,15.54,0,0,1,5,.07A15,15,0,0,1,55.6,10.7c.28.15.53.3.75.44a23.71,23.71,0,0,0-10.29.74,23.18,23.18,0,0,0-9.39,5.62,21.44,21.44,0,0,0-2.33,2.71c-.26.34-.44.63-.57.82l-.2.29c-.05.09.15.23.22.16l.22-.27c.14-.18.35-.44.63-.75A20.9,20.9,0,0,1,37.16,18a22,22,0,0,1,9.32-4.51,21.57,21.57,0,0,1,10.16.36l.1,0a55,55,0,0,1-5.59,4.48A57.84,57.84,0,0,1,45.38,22c-1.63.88-2.77,1.4-2.77,1.4s0,.27.1.26,1.19-.35,3-1a58.85,58.85,0,0,0,5.71-2.44,37.48,37.48,0,0,0-5.09,7.88c-10.21,1.55-7.53,3.08-21.39-1.33C32.44,19.27,34.44,3.41,55,5.59ZM6.3,56.2c5.83-9.48,8.45-21.45,20.62-23.78a25.3,25.3,0,0,0-2.07,2.35l-.68.43a43.52,43.52,0,0,0-9.45,8.33c-1.1,1.3-1.76,2.22-1.76,2.22s.16.22.2.18a42.21,42.21,0,0,1,6.95-5.52c.6-.38,1.21-.74,1.82-1.08-.25.49-.49,1-.72,1.49a48.77,48.77,0,0,0-5.95,6.29,47.53,47.53,0,0,0-4.91,7.64c0,.05.19.19.23.15s.65-.91,1.72-2.2a46.73,46.73,0,0,1,4.19-4.42c1-.88,1.94-1.7,2.87-2.43a44.64,44.64,0,0,0-1.7,12.35C13.84,57.56,10,57.24,6.3,56.2Zm3.32,4A18.34,18.34,0,0,0,17,60l.11-.29a.84.84,0,0,1,0,.26c.17,0,.35-.07.52-.12,0,.31,0,.6,0,.87l-.39-.44-.26.27a11.7,11.7,0,0,1-2,2.25,51.13,51.13,0,0,0-4.26,6A50.61,50.61,0,0,0,7.55,75.2C6.78,77,6.36,78.25,6.36,78.25s.21.17.25.11.58-1.16,1.57-2.83a49.54,49.54,0,0,1,4.05-5.79A49,49,0,0,1,17,64.64c.59-.54,1.1-1,1.51-1.33a1.56,1.56,0,0,0,.41.16c-1.17,2.26-2.86,5.38-4.75,8.42C10.74,77.62,6.64,83,6.64,83s.14.24.21.18,4.65-4.89,8.76-10.29c2.82-3.63,5.37-7.46,6.71-9.55l.54-.08c-5,19.75-5,18.16,1.12,4.65,0,4.42,2,9.34,2.91,12a12.3,12.3,0,0,0-6.77,3.89c-2.67-1.37-13.69,3-15.87,3.77C3.81,67.63,6.55,68.75,9.62,60.23ZM2.94,103.76c.28-8,4-11.32,6.18-14.1a45.51,45.51,0,0,0,8.11-2.27c-3.54,5.56-3.67,12.19-3.8,18.84C11,105.67,8.74,105.81,2.94,103.76Zm13.28,12.9c-2.71.58-6,1.75-8.93,1.57.07-2.36-.16-4.85.61-7.12A3.7,3.7,0,0,1,10,108.55c1.12-.35,2.21.42,3.36.35a3.42,3.42,0,0,0,.23,1.89,15.05,15.05,0,0,1-.9,1.52,15.34,15.34,0,0,1-2.08,2.46,14.39,14.39,0,0,1-1.14,1s.1.25.13.24a14.82,14.82,0,0,0,1.41-.63,16.65,16.65,0,0,0,2.9-1.87A17.19,17.19,0,0,0,15.53,112a21.51,21.51,0,0,0,2.84.69,18.49,18.49,0,0,0-1.3,4.05A1.45,1.45,0,0,0,16.22,116.66Zm15.45,7.49c-4.61.28-8.82,3.21-13.39,2.52,2.32-12.32,1.55-9.35,3.58-13.66a24.42,24.42,0,0,0,9-1.67A53.76,53.76,0,0,1,23.13,121c-1.29,1.27-2.21,2.07-2.21,2.07s.11.25.16.22,1-.65,2.51-1.73a55.64,55.64,0,0,0,7.55-6.65c-.17.38-.35.77-.54,1.15a26.74,26.74,0,0,1-2.16,3.56c-.67.93-1.18,1.52-1.18,1.52s.15.22.19.2.63-.46,1.51-1.23a28,28,0,0,0,3-3.1l.18-.22C32,119,32,121.38,31.67,124.16Zm2.31,3c2.29-8.2-2.38-10.2,5.79-21.14.58,1.46,1.06,2.63,1.48,3.57a14.43,14.43,0,0,1-2.15,4.83,14,14,0,0,1-.87,1.15s.15.22.18.21A15.92,15.92,0,0,0,42,112.6c.18-.22.36-.44.53-.67a1.86,1.86,0,0,0,1.23.94,59,59,0,0,1-6.81,9.35c-.9,1.27,3.52-2.42,6.26-5.3a62.2,62.2,0,0,0,4.76-5.56q.86-.4,1.72-.85a25.84,25.84,0,0,1-2,4.31,27.4,27.4,0,0,1-7.83,8.56,24.26,24.26,0,0,1-2.15,1.38l-.85.48c-.06,0,0,.27.11.25,1.47-.59,1.29-.52,2-.83a28.8,28.8,0,0,0,13.62-13.48,24.63,24.63,0,0,1-5.59,14.59c0,.06.14.23.2.19l.64-.61a25.78,25.78,0,0,0,6.17-9.69,36.23,36.23,0,0,0,2.24,6.19A19.18,19.18,0,0,1,34,127.12Zm45.5-14.28a19.94,19.94,0,0,1-4.35,5.7c-2.82,2.5-6.36,3.75-9.48,5.77A15.72,15.72,0,0,0,62.5,127c.07-.07-2.11-3.52-2.3-3.88-.73-1.39-1.36-2.81-2-4.26a44,44,0,0,1-2.48-8.26c-.22-1.08-.72-2.47-.24-3.49s1.74-1.64,2.59-2.4a39,39,0,0,0,5.51-6.11,38.47,38.47,0,0,1-.37,9.84c-.27,1.64-.55,2.72-.55,2.72s.23.14.26.09a40.54,40.54,0,0,0,2.5-8.65A41.23,41.23,0,0,0,66,94.71l.2-.38c.11.32.21.68.32,1.1a30.69,30.69,0,0,1,1,6,33,33,0,0,1-.91,10.1,31.75,31.75,0,0,1-2.14,5.92c-.38.81-.27.59-1.22,2.32,0,.08.17.22.23.15l.7-1a29.1,29.1,0,0,0,1.67-2.8,33.51,33.51,0,0,0,3.29-9.37,34.33,34.33,0,0,0,.59-7.53q.65,1.35,1.43,2.75h-.14a46.54,46.54,0,0,1,.71,5.57,48,48,0,0,1,0,5.71s.25.09.27.05a48.06,48.06,0,0,0,1.68-7.22c.83,1.25,1.72,2.52,2.72,3.81a1.26,1.26,0,0,0,2.27-.32c.44-1.26,1.77-2,2.19-3.23C82.25,108.34,80.38,111.13,79.49,112.84ZM77,106.78a36.44,36.44,0,0,1-6.79-14.41,39.59,39.59,0,0,1,.29-17.94,51,51,0,0,1,1.86-6c.26-.7,1.33-2.37,1.21-3.13a48.81,48.81,0,0,0,1.82,7.4c-.18.24-.37.52-.58.83a26.23,26.23,0,0,0-3.9,9.11c-.28,1.3-.37,2.17-.37,2.17s.24.11.27.07a24.47,24.47,0,0,1,5.63-9.18c.24.64.48,1.26.72,1.85l-.09.2a35.12,35.12,0,0,0-3,11.64C73.94,91,74,92.08,74,92.08s.26.08.27,0a33.18,33.18,0,0,1,4.22-11.54c.39.85.76,1.58,1.08,2.18a34.9,34.9,0,0,0-2.09,8.09,34.06,34.06,0,0,0,.14,10c0,.06.27,0,.27,0s0-1.23.09-3.05a32.91,32.91,0,0,1,3.57-12.65c.17-.33.33-.63.49-.9q1.74-.7,3.44-1.55c0,19.08-.59,18.86,3-1.66a42.55,42.55,0,0,0,4.09-2.78,16.53,16.53,0,0,0,2.3,7.13C91.18,99.7,79.65,101.35,77,106.78Zm8.7,9.24A23.39,23.39,0,0,1,84,111.56a18.37,18.37,0,0,0,1.62-8,29.12,29.12,0,0,0,5-3.95,26.61,26.61,0,0,1-1.9,6c-.36,1.3,2.3-2.55,3.37-4.75a56.19,56.19,0,0,0,2.43-5.81c.3-.79.46-1.55.81-2.33s1.19-2.17,1.15-3a26.69,26.69,0,0,1-.13,4.52A27.94,27.94,0,0,1,91,107.72c-.48.64-.34.48-1.47,1.81,0,.07.13.25.19.2a27.91,27.91,0,0,0,2.78-2.9,29.58,29.58,0,0,0,6-12.21c.16-.75.3-1.48.41-2.18A23,23,0,0,1,100,95.21C97.38,100.4,98,108.07,85.71,116Zm18-17.9a57.84,57.84,0,0,0-1.76-5.73,41.47,41.47,0,0,0-3.63-6c-1.35-2.17-2.7-4.59-2.84-7.2-.18-3.42,2.08-5.33,4-7.85a36.69,36.69,0,0,1,3,12.34c0,.05.26.06.27,0s.13-1.06.18-2.67a38.49,38.49,0,0,0-1.46-11.78l-.17-.57a28.5,28.5,0,0,0,1.52-2.92,35.78,35.78,0,0,1,1.69,4.53A39.19,39.19,0,0,1,106,80.35a38,38,0,0,1-.38,6.34c-.13.89-.08.65-.46,2.6,0,.09.23.16.26.07l.35-1.19c.14-.45.56-2,.76-3.18a39.68,39.68,0,0,0,.68-9.95,41.07,41.07,0,0,0-1.56-9l.26.31a20.82,20.82,0,0,1,3.58,6.42,21.55,21.55,0,0,1,1.17,7.53l0,.73c0,.06.25.1.27,0a21.56,21.56,0,0,0,.43-2.67,22.34,22.34,0,0,0-.83-8.75c.61.79,1.21,1.58,1.78,2.41,1.11,1.6,1.49,3.18,3.39,2.42a3.23,3.23,0,0,0,1.18-1C117.9,87,104.4,96.13,103.68,98.11Zm12.19-27.37a10.21,10.21,0,0,1-1,1.59c.85-1.12-5.54-8.75-7.14-10.72-3.11-3.84-10.29-11.65-10-18h0a17.32,17.32,0,0,0,1.63-2.76l.3-.25c0,.59,0,1.2.06,1.8a22.33,22.33,0,0,0,1.13,5.47,19.73,19.73,0,0,0,.94,2.31s.26,0,.26-.09a19.44,19.44,0,0,1-.5-2.38,21.2,21.2,0,0,1-.13-5.27,20.84,20.84,0,0,1,1-4.56q.4-.48.77-1c.56,1.87,1.33,4.31,2.2,6.71,1.74,4.95,3.87,9.7,3.87,9.7s.27,0,.26-.09-1.45-5-2.49-10.05c-1-4.67-1.62-9.38-1.71-10.07l.06-.14c.1.4.22.82.35,1.25a123.54,123.54,0,0,0,4.5,12.12c.86,2.16,1.7,4.32,2.37,6.38a43.46,43.46,0,0,1,1.48,5.74l.22,1.23.12,1.12a25.08,25.08,0,0,1,.18,3.44c0,.12.26.14.27,0L115,62.6a16.73,16.73,0,0,0,0-1.86l0-1.15-.13-1.27a44.36,44.36,0,0,0-1.06-6c-.52-2.15-1.2-4.4-1.9-6.63-1.09-3.39-2.17-6.75-2.91-9.64a48.07,48.07,0,0,0,2.4,4.42,46.71,46.71,0,0,0,3.92,5.43c1.17,1.39,2,2.25,2,2.25s.24-.12.21-.17-.7-1-1.64-2.49a44.7,44.7,0,0,1-5-11.4,107.45,107.45,0,0,1,9.17,7.66,1.11,1.11,0,0,0,0,.4C123,53.47,124.84,57.31,115.87,70.74Z"/><path class="cls-1" d="M229.61,5.46A25,25,0,0,0,232.82,0h-1.17a20.61,20.61,0,0,1-2.16,5.37C229.44,5.44,229.56,5.54,229.61,5.46Z"/><path class="cls-1" d="M281.43,0h-2.67c.25,1.39.49,2.78.72,4.17,0,0,0,.06,0,.09a1.9,1.9,0,0,0-1.55-.33l-3.41-1.25a1.46,1.46,0,0,0-1.62,2.15,26,26,0,0,1,4.44,20c-1.77-1.13-3.54-2.25-5.3-3.39a1.5,1.5,0,0,0-2.17,1.68c1.49,6.7,3.78,12.76,2.74,19.52-1.53-1-3.06-2.1-4.59-3.13-1.22-.83-2.41.57-2.23,1.74q1.28,8.4,2.54,16.81c-4.3-2-10.2-5-10.37-9.16a1.45,1.45,0,0,0-2.9,0c-.06.86-.13,1.71-.19,2.57-3-3.52-7.3-8.24-6.31-11.34a1.26,1.26,0,0,0-2.32-.93q-1.85,3.67-3.72,7.33c-6.66-6.39-8.28-20.05-10.71-15.75-.71,1.26-1.43,2.52-2.15,3.77-4.26-6.24-.51-15-5.39-21.06-5.66-7.07-16.17-1.58-10,14.1,3.11,7.89,5.75,14.54,2,22.24q-1.61-2.4-3.28-4.77c-.86-1.24-3.14-.53-2.61,1.09a21.08,21.08,0,0,1-5,21.61c-.62-1.36-2.43-5.48-2.83-6.38-.32.12-.61,1.19-.69,1.52-1,3.71.17,7.61-4.92,15.44-1.19-1.27-2.39-2.53-3.63-3.75s-1.89.39-6.67,16.18c-2-1.58-7.57-6-7.14-3.53,1,5.6-1.27,12.43-5.19,16.59a45.69,45.69,0,0,0-5-5.08c-3.17,3.74-4.49,10-5.86,14.66A26.94,26.94,0,0,1,154,96.17c-.17-1.15-1.59-1.16-2.28-.59L148.82,98a28.42,28.42,0,0,1-3.75-21.12,1.31,1.31,0,0,0-1.91-1.45l-4.49,2A20.33,20.33,0,0,1,142,59.48c.68-.94-.48-1.9-1.37-1.76A51.75,51.75,0,0,0,134.8,59c-.07-6.41,3-12.4,6.49-17.68,2.58-1,3.31-3.5,2-3.18-3.33.8-5.65,2.41-8.84.65,4.82-10.84,6.68-11.37,10.88-17,3.75-.32,5.69-3.6.81-2.76a.3.3,0,0,0-.13,0c-2.62.31-4.27,0-2.93-3.48.77-2,2.75-4.06,4.13-5.62a33.21,33.21,0,0,1,8.87-7c2.09-1.16,5.22-1.88,8.1-2.94h-7c-8.57,3.52-14.33,9.38-18,18.68a1.06,1.06,0,0,0,.3,1.06,11.45,11.45,0,0,0,3,1.64c-5.13,4.32-9,11.79-10.93,17.46a1.33,1.33,0,0,0,.63,1.48,13,13,0,0,0,6.33,1.45c-4.32,5.12-5.45,11.66-5.74,18.51a1.07,1.07,0,0,0,1.08,1.06q2.28-.25,4.5-.71a22,22,0,0,0-1.66,18.72c.64,1.75,2.17.63,5.49-.82a30.46,30.46,0,0,0,5.19,22,1.4,1.4,0,0,0,2.17.27l2.29-1.91A29.1,29.1,0,0,0,163.45,117a1.48,1.48,0,0,0,2.15-.91c1.36-4.28,3.89-9.51,4.48-14.3a38.31,38.31,0,0,0,2.75,4.84,1.49,1.49,0,0,0,2.33.28c6-8,6.38-12.13,5.73-18a64.62,64.62,0,0,0,5.44,5,1.35,1.35,0,0,0,2.22-.62c1.63-5.35,3.14-10.7,4.47-16.12,1,1.33,2.06,2.62,3.11,3.92,1.85,2.32,6.93-7.85,7.77-12.44.09.24.18.47.27.71a.85.85,0,0,0,1.4.37,23.37,23.37,0,0,0,8.29-17.81l1,1.59a1.54,1.54,0,0,0,2.65,0,22.87,22.87,0,0,0,3.74-13c-.15-5.57-3-10.06-5-15.12a19,19,0,0,1-1.18-4.5c-.41-3.32,2.3-11.21,6.43-7,2.51,2.57,2.76,7.48,3,10.87.34,4.81.84,9.16,4.27,12.82a1.19,1.19,0,0,0,1.86-.27c.63-1.11,1.26-2.23,1.89-3.37,2.55,5.43,4.7,11,9.34,15.05,1.28,1.15,1.83-.63,4.25-4.85,1.66,4.32,6.52,8.8,8.4,11.76a1.43,1.43,0,0,0,2.64-.72l.06-.71c3.09,3.43,8.47,5.69,12,7.42a1.51,1.51,0,0,0,2.17-1.69Q270.21,52,269,44l3.61,2.44a1.53,1.53,0,0,0,2.22-.95c1.78-6.93.13-13-1.5-19.56l4,2.53a1.49,1.49,0,0,0,2.15-.91,28.85,28.85,0,0,0-2-20.27c1.85.74,3.74,1.15,4.58-.08s-.15-4.28-.36-5.6C281.6,1,281.51.51,281.43,0Z"/><path class="cls-1" d="M105.85,13.06c10.62.64,22.78-5.92,31-13.06h-4c-7.57,5.88-15.6,8.42-23.88,11.18A29.24,29.24,0,0,0,103.25,0H99.39c3,3.71,4.78,7.82,6.93,12.06l-.58.2A.41.41,0,0,0,105.85,13.06Z"/><path class="cls-1" d="M89.89,1.72a19.62,19.62,0,0,0,5.74,8.47,8.89,8.89,0,0,0,1.55,1.07,2.92,2.92,0,0,0,.46.22A3.24,3.24,0,0,0,97.4,11c-.18-.31-.54-.77-1-1.51A36.59,36.59,0,0,1,91.75,1c-.13-.36-.23-.69-.34-1H89.35C89.51.55,89.68,1.12,89.89,1.72Z"/><path class="cls-1" d="M155.22,11.71C166.77,8.25,174.44,4.38,180.84,0h-3.56a82.57,82.57,0,0,1-22.14,11.47A.12.12,0,0,0,155.22,11.71Z"/><path class="cls-1" d="M204.25,48.54a.06.06,0,0,0,.09-.08c-3.08-7.23-8.11-13-10.88-28.21-1.88-10.36-1.23-16,.19-20.25h-3.75C188.15,16.29,192.3,38.75,204.25,48.54Z"/></svg>